<svg xmlns="http://www.w3.org/2000/svg" width="120.0" height="120.0" viewBox="0 0 120.0 120.0">
    <path d="M107.43,16.84s-29.37,-17.58 -60,18S12.35,84.13 12.35,84.13s-5.69,14.68 7.9,21.27c9.35,4.53 15.44,-1 15.44,-1s9.16,-2.11 14.44,-13.65C53.83,82.68 56,71.58 56,71.58s2.3,-16.95 22,-24.52c20,-7.7 26.16,-15.21 26.16,-15.21s5.52,-3.5 5.38,-9C109.43,18.76 107.43,16.84 107.43,16.84Z" fill="#545454" fill-opacity="1"/>
    <path d="M49.32,93.78c-15.64,21 -29.07,11.61 -29.07,11.61S26.5,73.67 63.41,51.16a52.74,52.74 0,0 1,11.45 -5.53C82,43.08 90.43,39 94.57,36.17S108.23,28 109.18,20.32l0.29,4.54c-1,5.36 -14.67,17.53 -32.13,23S56.5,72.11 56.5,72.11C52.73,90.34 49.32,93.78 49.32,93.78Z" fill="#434242" fill-opacity="1"/>
    <path d="M16.1,71.29c-6.31,12.32 -6.84,24.06 -4,25.92S18,90.5 24.81,78.51 37.25,52.43 34.4,50.57 22.39,59 16.1,71.29Z" fill="#fdd8c5" fill-opacity="1"/>
    <path d="M12.26,97.67c4.06,-2.54 5.64,-6.86 12.6,-19.07s12.53,-25.71 9.76,-28.43" fill="#000000" fill-opacity="0" stroke="#ddbdaf" stroke-opacity="1" stroke-width="3.0"/>
    <path d="M70.602,22.137a3.53,8.91 71.95,1 0,16.943 -5.521a3.53,8.91 71.95,1 0,-16.943 5.521z" fill="#fedac6" fill-opacity="1"/>
    <path d="M80.63,21.61c3.73,-1.22 6.41,-3.31 6,-4.68" fill="#000000" fill-opacity="0" stroke="#f4eeed" stroke-opacity="1" stroke-width="1.0" stoke-linecap="round"/>
    <path d="M35.32,53.8A52.58,52.58 0,0 1,31.5 65.58" fill="#000000" fill-opacity="0" stroke="#f2e9e7" stroke-opacity="1" stroke-width="3.0" stoke-linecap="round"/>
    <path d="M-90.3,-2027.56H1444.49V2152.58H-90.3z" fill="#000000" fill-opacity="0" stroke="#ffffff" stroke-opacity="1" stroke-width="5.0"/>
</svg>