<svg xmlns="http://www.w3.org/2000/svg" width="120.0" height="120.0" viewBox="0 0 120.0 120.0">
    <path d="M50.32,115.18s5.07,0.48 7.64,-1.3c1.8,-1.24 4.73,-7.26 3.66,-16.64 -0.95,-8.35 -1.49,-13.22 5,-24 7.81,-13.1 13.73,-10.29 20.08,-21.84 5.09,-9.27 7.76,-19.72 8.74,-31.95 1,-12.81 -4.73,-13.07 -4.73,-13.07A5.42,5.42 0,0 0,88.44 5.2a4.26,4.26 0,0 0,-2 -0.13S83.36,3.08 75.56,9C68.37,14.45 56.6,25.26 53,33.91c-4,9.63 -2.52,15.8 -4.91,21.63C45.81,61 41.47,69.19 36.21,73.78c-3.76,3.28 -5.55,3.39 -10.12,5.17s-8,4.6 -8.54,6.1 1.1,6.37 1.1,6.37 3.09,-0.51 10.19,5.13C37.82,103.69 43.62,113.41 50.32,115.18Z" fill="#434242" fill-opacity="1" fill-rule="evenodd"/>
    <path d="M90.67,6.35s5.76,0.26 4.73,13.07a83.57,83.57 0,0 1,-8.74 31.95c-2.43,4.78 -10.58,13.8 -14.27,9.35 -3.27,-3.94 4.1,-14 10.44,-28.13 5.81,-12.94 7.78,-18.4 7,-23.07a5.64,5.64 0,0 0,-3.37 -4.45,4.32 4.32,0 0,1 2.42,0.28C90.47,6 90.67,6.35 90.67,6.35Z" fill="#3c3c3c" fill-opacity="1" fill-rule="evenodd"/>
    <path d="M86.49,5.07a4.26,4.26 0,0 1,2 0.13,5.42 5.42,0 0,1 2.23,1.15s3.94,3.49 3.24,10.91A72.64,72.64 0,0 1,85.6 43.19C81,51.4 78.77,53.92 76.54,52.68c-2.45,-1.37 1.33,-7.4 5,-15.52 3.79,-8.31 6.75,-15 8.22,-20.39C91.37,11 90.84,6.51 86.49,5.07Z" fill="#4f4e4e" fill-opacity="1" fill-rule="evenodd"/>
    <path d="M50.32,115.18c-6.7,-1.77 -12.5,-11.49 -21.48,-18.63 -7.1,-5.64 -10.19,-5.13 -10.19,-5.13s-1.62,-4.87 -1.1,-6.37c0,0 1.85,-2.84 7.44,-1.34S38.07,91.8 41.62,98.4s6,11.81 8.32,14.21 3.87,2.53 3.87,2.53Z" fill="#3c3c3c" fill-opacity="1" fill-rule="evenodd"/>
    <path d="M50.32,115.18c-6.7,-1.77 -12.5,-11.49 -21.48,-18.63 -7.1,-5.64 -10.19,-5.13 -10.19,-5.13a12.86,12.86 0,0 0,4.11 8.69c4.78,4.42 14.6,11.55 20.49,13.89C47.55,115.7 50.32,115.18 50.32,115.18Z" fill="#9d9ea5" fill-opacity="1" fill-rule="evenodd"/>
</svg>