<svg xmlns="http://www.w3.org/2000/svg" width="120.0" height="120.0" viewBox="0 0 120.0 120.0">
    <path d="M52.39,90a145,145 0,0 0,9.25 -19.17c1,-2.6 2,-5.31 3.91,-7.47a33.92,33.92 0,0 1,6.58 -5.21c4.83,-3.33 10.19,-5.9 15.34,-8.71 4.86,-2.65 9.65,-5.67 13.28,-9.86 4,-4.68 7.12,-12.16 4.69,-18.29 -2.1,-5.29 -8.52,-7.82 -13.66,-9a25,25 0,0 0,-14.52 0.84c-5.93,2.16 -11.11,6 -15.76,10.3C55.35,29.08 50.05,36.27 43,40.83c-10.16,6.55 -19.2,13.76 -24.66,24.88C13.76,75 12.31,86 15.18,96c1.33,4.63 3.72,9.05 8.25,11.18A15,15 0,0 0,36 107c6.79,-3.19 11.82,-9.39 15.65,-15.66C51.88,90.89 52.14,90.46 52.39,90ZM33,73.35a21.75,21.75 0,0 1,7 -13.77,10.91 10.91,0 0,1 4.87,-2.66c1.77,-0.35 5.21,0 5.38,2.37 0.26,3.58 -1.31,7.42 -2.93,10.53a39,39 0,0 1,-4.86 7.26,37.43 37.43,0 0,1 -3.14,3.28c-0.78,0.72 -2,2.19 -3.17,2.06a2.29,2.29 0,0 1,-1.55 -1.29A13.09,13.09 0,0 1,33 73.35ZM30,98.46c-0.81,0.76 -1.55,0.65 -2.07,-0.34a16.63,16.63 0,0 1,-1.11 -2.48,24.68 24.68,0 0,1 -1.42,-7.11 0.81,0.81 0,0 1,0 -0.22c0.14,-0.45 0.29,-0.89 0.44,-1.33a4.92,4.92 0,0 1,1.19 0.6,14.56 14.56,0 0,0 4.43,2.56c0.95,0.4 1.94,0.68 2.92,1a0.93,0.93 0,0 1,0.43 1.63c-1.32,1.65 -2.66,3.27 -4,4.91l-0.05,0C30.51,97.93 30.27,98.2 30,98.46Z" fill="#2b4254" fill-opacity="1"/>
    <path d="M36,107a33.24,33.24 0,0 0,10.64 -9.54A80.69,80.69 0,0 0,54 85.15c2.14,-4.3 4.12,-8.69 5.9,-13.16a60.49,60.49 0,0 1,2.93 -6.79A15.19,15.19 0,0 1,65.15 62a23.37,23.37 0,0 1,2.9 -2.51c1,-0.74 2,-1.41 3,-2.09s2,-1.37 3.09,-2c2.1,-1.28 4.24,-2.46 6.4,-3.58 4.32,-2.24 8.64,-4.35 12.63,-6.93a30.18,30.18 0,0 0,10 -9.89,21.29 21.29,0 0,0 2.6,-6.58 14.27,14.27 0,0 0,-0.34 -7.1,14.19 14.19,0 0,1 1,3.52 16.77,16.77 0,0 1,0 3.68,22 22,0 0,1 -2.18,7.06 25.28,25.28 0,0 1,-4.29 6.07,39.22 39.22,0 0,1 -5.64,4.83 127,127 0,0 1,-12.62 7.39c-2.11,1.16 -4.21,2.32 -6.23,3.58 -1,0.63 -2,1.28 -3,2s-2,1.36 -2.93,2.06a20.15,20.15 0,0 0,-2.61 2.21,12.81 12.81,0 0,0 -2,2.67 69.8,69.8 0,0 0,-2.88 6.5A142.35,142.35 0,0 1,55.7 86.05,71.57 71.57,0 0,1 47.53,98.2 31.71,31.71 0,0 1,36 107Z" fill="#334e60" fill-opacity="1"/>
    <path d="M29.05,98.18c-0.35,0 -0.93,-0.12 -1.11,-0.49a20.22,20.22 0,0 1,-2 -4.85,16.17 16.17,0 0,1 -0.28,-5.24 3.41,3.41 0,0 0,0 -1.71A11.54,11.54 0,0 0,24 83.7a15.47,15.47 0,0 1,-1.47 -2.47,21.36 21.36,0 0,1 -1.72,-5.34 35.55,35.55 0,0 1,-0.53 -5.13,39.13 39.13,0 0,0 -0.17,-5.2s-0.74,1.59 -0.83,1.76a19.21,19.21 0,0 0,-0.93 2.31,24.85 24.85,0 0,0 -1.26,4.77c-1.24,8.07 -1.06,17.37 3.09,24.26a8.84,8.84 0,0 0,3.92 3.18c1.76,0.71 4,-0.14 5.31,-1.35a2.49,2.49 0,0 0,0.88 -1.41C30.44,98.27 29.67,98.22 29.05,98.18Z" fill="#1f3947" fill-opacity="1"/>
    <path d="M43.4,79.38a55.5,55.5 0,0 0,6.43 -9.17,48 48,0 0,0 5.52,-14.15c0.82,-4 2,-7.87 4.63,-11.06 3,-3.71 7.53,-5.66 11.45,-8.22s8.13,-5.21 11.94,-8.15 9.75,-8.47 5.81,-13.58a7.56,7.56 0,0 0,-5.9 -2.59,16.94 16.94,0 0,0 -8.55,1.95A70.48,70.48 0,0 0,66.58 20,186.49 186.49,0 0,0 47.74,37.14 18.4,18.4 0,0 1,45.37 39c-0.63,0.44 -1.3,1 -2,1.36a54.38,54.38 0,0 0,-12.34 9.73c-3.84,4.05 -8.11,9.41 -9.07,15a27.68,27.68 0,0 0,-0.08 7.66c0.44,4 1.52,8.23 4.4,11.08a8.77,8.77 0,0 0,9 1.87,14.87 14.87,0 0,0 4.47,-2.79A35.37,35.37 0,0 0,43.4 79.38ZM39.23,80.2c-0.78,0.72 -2,2.18 -3.17,2A2.28,2.28 0,0 1,34.51 81a13.06,13.06 0,0 1,-1.63 -7.77,21.66 21.66,0 0,1 7,-13.77 10.83,10.83 0,0 1,4.86 -2.66c1.77,-0.35 5.21,0.05 5.38,2.37 0.26,3.58 -1.3,7.41 -2.93,10.53a39.27,39.27 0,0 1,-4.85 7.26A39.07,39.07 0,0 1,39.23 80.2Z" fill="#334e60" fill-opacity="1"/>
    <path d="M63.343,31.659a0.64,0.76 59.3,1 0,1.307 -0.776a0.64,0.76 59.3,1 0,-1.307 0.776z" fill="#ffffff" fill-opacity="1"/>
    <path d="M60.702,33.844a0.64,0.76 59.36,1 0,1.308 -0.775a0.64,0.76 59.36,1 0,-1.308 0.775z" fill="#ffffff" fill-opacity="1"/>
    <path d="M77.1,22.83a2.39,2.39 0,0 1,-0.54 1.67,1.92 1.92,0 0,1 -2.6,0.6 1.92,1.92 0,0 1,0 -2.67,1.92 1.92,0 0,1 2.61,-0.6 1.22,1.22 0,0 1,0.28 0.32" fill="#000000" fill-opacity="0" stroke="#25333f" stroke-opacity="1" stroke-width="0.25" stoke-linecap="round"/>
    <path d="M74.378,24.571a1.42,1.12 128.6,1 0,1.772 -2.22a1.42,1.12 128.6,1 0,-1.772 2.22z" fill="#000000" fill-opacity="0" stroke="#25333f" stroke-opacity="1" stroke-width="0.25" stoke-linecap="round"/>
    <path d="M77.76,22.11L76.9,22.54" fill="#000000" fill-opacity="0" stroke="#25333f" stroke-opacity="1" stroke-width="0.25" stoke-linecap="round"/>
    <path d="M77.55,22.67a2.9,2.9 0,0 1,-0.67 2.08,2.39 2.39,0 0,1 -3.24,0.75 2.39,2.39 0,0 1,0 -3.33,2.39 2.39,0 0,1 3.24,-0.75 2,2 0,0 1,0.36 0.4" fill="#000000" fill-opacity="0" stroke="#25333f" stroke-opacity="1" stroke-width="0.25" stoke-linecap="round"/>
    <path d="M36.06,82.21a1.25,1.25 0,0 1,-0.31 -0.07A2.32,2.32 0,0 1,34.52 81a13.63,13.63 0,0 1,-1.17 -9.73,29.87 29.87,0 0,1 3.2,-7.67l2.82,-3.41 1.45,-1.24c0.29,-0.25 0.63,-0.46 0.93,-0.7a10.54,10.54 0,0 0,-1 -0.24,3.71 3.71,0 0,0 -1.14,0.26 8.93,8.93 0,0 0,-2.15 1.21,20.72 20.72,0 0,0 -6.17,6.67c-2.35,4.19 -3,9.42 -0.6,13.73a6,6 0,0 0,2.77 2.69,3.48 3.48,0 0,0 3.6,-0.34C36.7,82.18 36.38,82.24 36.06,82.21Z" fill="#2b4254" fill-opacity="1"/>
    <path d="M-110.31,-1930.73H1424.44V1574.28H-110.31z" fill="#000000" fill-opacity="0" stroke="#32dd14" stroke-opacity="1" stroke-width="23.55"/>
</svg>