<svg xmlns="http://www.w3.org/2000/svg" width="120.0" height="120.0" viewBox="0 0 120.0 120.0">
    <path d="M29.54,74.44c-2.46,3.22 -2.88,6.21 1,8 8.37,4 14.64,-5 21.78,-13.93A185.09,185.09 0,0 1,66 53.4,95.75 95.75,0 0,0 55.42,68.24c-3.93,6.8 -3.14,14.73 -8.81,21 -3.26,3.62 -10.9,4.77 -14,8.26 -2.36,2.69 -1.13,8.5 -5.33,12.71a14.06,14.06 0,0 1,-6.38 3.67,8 8,0 0,1 -2.67,-3.39c-2.09,-5 3,-13.46 -1.36,-16.21 -2.52,-1.57 -4.93,-0.17 -7.15,3.11 0.23,-0.36 0.47,-0.71 0.73,-1.06 4.25,-5.54 9.77,-4.18 13.43,-8.23C26.75,84.94 25.57,78.85 29.54,74.44Z" fill="#6dcb2f" fill-opacity="1"/>
    <path d="M52.29,68.54c-7.14,8.94 -13.41,17.89 -21.78,13.93 -3.85,-1.82 -3.43,-4.81 -1,-8l0.27,-0.29c4.29,-4.43 7.44,-4.1 18.6,-10.18S72.92,39.54 77.85,32.49c7.81,-11.19 10.86,-15.3 18,-21 10.25,-8.2 13.84,-6 14.94,-5 2.74,2.47 -1.4,9.16 -7,15C97.23,28.2 88.71,33.79 77.16,42.74A79.69,79.69 0,0 0,66 53.4,185.09 185.09,0 0,0 52.29,68.54Z" fill="#82df46" fill-opacity="1"/>
    <path d="M16.9,94.28c4.41,2.75 -0.73,11.18 1.36,16.21a8,8 0,0 0,2.67 3.39,9.73 9.73,0 0,1 -9.15,-2 11.07,11.07 0,0 1,-2 -14.51C12,94.11 14.38,92.71 16.9,94.28Z" fill="#82df46" fill-opacity="1"/>
    <path d="M95.67,15.26c-1.43,1.36 -2.27,2.81 -1.86,3.24s1.89,-0.33 3.33,-1.69S99.4,14 99,13.57 97.1,13.9 95.67,15.26Z" fill="#a3f172" fill-opacity="1"/>
</svg>