<svg xmlns="http://www.w3.org/2000/svg" width="120.0" height="120.0" viewBox="0 0 120.0 120.0">
    <g>
        <clipPath id="clip_1">
            <path d="M62.49,74.45L62.49,74.45 62.49,74.45 62.49,74.45z M 0,0"/>
        </clipPath>
        <path d="M50.09 62.05H74.9V86.86H50.09z" clip-path="url(#clip_1)" fill="#2d2d2d" fill-opacity="1"/>
    </g>
    <g>
        <clipPath id="clip_1">
            <path d="M45.62,66.31a8.38,8.38 0,0 0,-5.19 -2.1,34 34,0 0,1 -4,4.85l0,0.21h0.23a6.89,6.89 0,0 1,3.39 2c0.4,0.46 0.76,1 1.16,1.44 0.76,1.09 1.57,2.09 2.32,3.19a46.57,46.57 0,0 1,3.13 6.55c5.35,-5.64 2.74,-13 -1,-16.19 M 0,0"/>
        </clipPath>
        <path d="M23.95 51.81H62.03V94.9H23.95z" clip-path="url(#clip_1)" fill="#545454" fill-opacity="1"/>
    </g>
    <g>
        <clipPath id="clip_1">
            <path d="M11.67,94.24a1.27,1.27 0,0 0,-1.36 0.84c-0.2,0.41 -0.16,1 0.12,1.09s0.9,-0.23 1.22,-0.61 0.6,-1 0,-1.32m0,0a0.66,0.66 0,0 1,0.43 0.66,1.62 1.62,0 0,1 -0.16,0.77 1.93,1.93 0,0 1,-0.56 0.71,1.43 1.43,0 0,1 -1.24,0.24 0.8,0.8 0,0 1,-0.52 -0.89A1.73,1.73 0,0 1,10 95a2.25,2.25 0,0 1,0.72 -0.57,1.16 1.16,0 0,1 0.94,-0.16 M 0,0"/>
        </clipPath>
        <path d="M-2.78 81.79H24.509999999999998V109.08000000000001H-2.78z" clip-path="url(#clip_1)" fill="#3c3c3c" fill-opacity="1"/>
    </g>
    <g>
        <clipPath id="clip_1">
            <path d="M12.68,109.08a8.18,8.18 0,0 1,-1.69 -1.4h0a15.16,15.16 0,0 0,3.11 3.61,9.88 9.88,0 0,0 3.12,1.93 13,13 0,0 1,-1.36 -3,6.19 6.19,0 0,1 -3.17,-1.13 M 0,0"/>
        </clipPath>
        <path d="M-1.42 95.28H29.61V125.63H-1.42z" clip-path="url(#clip_1)" fill="#545454" fill-opacity="1"/>
    </g>
    <g>
        <clipPath id="clip_1">
            <path d="M12.85,97.46a0.79,0.79 0,0 0,-1 0.5,0.78 0.78,0 0,0 0.2,1.06 0.8,0.8 0,0 0,1 -0.49,0.78 0.78,0 0,0 -0.21,-1.07 M 0,0"/>
        </clipPath>
        <path d="M-0.64 85.01H25.57V111.48H-0.64z" clip-path="url(#clip_1)" fill="#e6e6e6" fill-opacity="1"/>
    </g>
    <g>
        <clipPath id="clip_1">
            <path d="M10.88,94.23c-0.27,-0.13 -0.69,0.15 -0.93,0.63s-0.2,1 0.08,1.11 0.69,-0.15 0.93,-0.63 0.2,-1 -0.08,-1.11 M 0,0"/>
        </clipPath>
        <path d="M-2.61 81.8H23.52V108.41H-2.61z" clip-path="url(#clip_1)" fill="#e6e6e6" fill-opacity="1"/>
    </g>
    <g>
        <clipPath id="clip_1">
            <path d="M28.84,75.31 L18.19,83.49c-3,2.15 -5.11,5.31 -3.4,7.69a2.06,2.06 0,0 0,1.27 0.72c2.6,0.63 4,-1.58 6.65,-3.39l8.89,-6.16c3.84,-2.43 6.89,-5.69 5.07,-8.26s-5.28,-0.54 -7.83,1.22 M 0,0"/>
        </clipPath>
        <path d="M1.78 60.47H49.620000000000005V104.42H1.78z" clip-path="url(#clip_1)" fill="#545454" fill-opacity="1"/>
    </g>
    <g>
        <clipPath id="clip_1">
            <path d="M56.71,35.25C56.2,32.58 52.16,24 44.9,25.61a5.45,5.45 0,0 0,-4 3.89c2.77,-0.53 7,2.27 8.2,7.08C50.7,42.83 49,61 55.13,68a39,39 0,0 0,7.36 6.43c1.84,1.15 2.36,-1.29 0.22,-3.83A27.44,27.44 0,0 1,55.19 57.1a8.59,8.59 0,0 1,-0.3 -3.81c0.2,-2.68 2.33,-15.37 1.82,-18 M 0,0"/>
        </clipPath>
        <path d="M28.53 13.01H76.50999999999999V87.15H28.53z" clip-path="url(#clip_1)" fill="#545454" fill-opacity="1"/>
    </g>
    <g>
        <clipPath id="clip_1">
            <path d="M40.88,86.38c-8.56,3.85 -23.69,9.07 -25.36,18.33a11.65,11.65 0,0 0,0.33 5.5,2.48 2.48,0 0,0 1.48,-0.47c0.67,-0.48 0.6,-1.47 0.72,-2a8.93,8.93 0,0 1,0.61 -1.78,10.1 10.1,0 0,1 0.81,-1.45c2,-3 7.38,-6.12 9.88,-7.25 0.78,-0.35 1.6,-0.72 2.43,-1a6.83,6.83 0,0 1,3.2 -0.45c2.85,0.45 4.08,2.38 7.19,1.58a8.42,8.42 0,0 0,5.37 -5.26c0.91,-2.92 0.28,-6.33 -1,-9.63a17.86,17.86 0,0 1,-5.7 3.88 M 0,0"/>
        </clipPath>
        <path d="M2.93 70.1H60.37V122.62H2.93z" clip-path="url(#clip_1)" fill="#6d6d6d" fill-opacity="1"/>
    </g>
    <g>
        <clipPath id="clip_1">
            <path d="M15.85,7.5H111.29V114H15.85z M 0,0"/>
        </clipPath>
        <g clip-path="url(#clip_1)">
            <clipPath id="clip_2">
                <path d="M13.68 7.47H112.9V116.62H13.68z M 0,0"/>
            </clipPath>
            <g clip-path="url(#clip_2)">
                <clipPath id="clip_3">
                    <path d="M111.28,14.91c0,-3.11,-0.44,-5.82,-2.61,-7.41,-1.51,6.52,-5.75,15.65,-8.06,19.79,-4.79,8.57,-15.84,19.75,-21.9,26C72.17,60,65.45,63.91,55.19,57.1a27.44,27.44,0,0,0,7.52,13.52c2.14,2.54,1.62,5,-0.22,3.83h0A39,39,0,0,1,55.13,68c-6.12,-7,-4.43,-25.19,-6,-31.44,-1.21,-4.81,-5.43,-7.61,-8.2,-7.08,-1.79,5.07,0,13.58 0.75,17.29,1.11,5.15,2,9.22 0.77,13.38a14.56,14.56,0,0,1,-2,4,8.38,8.38,0,0,1,5.19,2.1c3.7,3.23,6.31,10.55,1,16.19,1.24,3.3,1.87,6.71,1,9.63a8.44,8.44,0,0,1,-5.38,5.26c-3.1 0.8,-4.33,-1.13,-7.18,-1.58a6.83,6.83,0,0,0,-3.2 0.45c0,0.07,-0.77,2.54,-4.77,6.25A12,12,0,0,1,18.66,106a8.72,8.72,0,0,0,-0.61,1.78c-0.11 0.52,-0.05,1.51,-0.71,2a2.53,2.53,0,0,1,-1.49 0.47,13,13,0,0,0,1.36,3c3,1.15,7.4,1.35,13.53,-1.82,8.89,-4.6,12.3,-11.53,15.94,-16.54s8.5,-10.18,11.61,-12.25c1.61,-1.08,4.22,-2.39,6.45,-3.66a26.78,26.78,0,0,0,2.55,-1.59,3.73,3.73,0,0,0,1.52,-1.63A26.58,26.58,0,0,1,70.15,72a43.66,43.66,0,0,1,3.38,-6.33c2.77,-4.3,11.8,-10.3,23.64,-22.19s14,-23.24,14.11,-28.58 M 0,0"/>
                </clipPath>
                <g clip-path="url(#clip_3)">
                    <clipPath id="clip_4">
                        <path d="M13.68 7.47H112.9V114.14H13.68z M 0,0"/>
                    </clipPath>
                    <path d="M3.44 -4.91H123.67999999999999V126.4H3.44z" clip-path="url(#clip_4)" fill="#434242" fill-opacity="1"/>
                </g>
            </g>
        </g>
    </g>
    <g>
        <clipPath id="clip_1">
            <path d="M55.19,6H108.68V60.66H55.19z M 0,0"/>
        </clipPath>
        <g clip-path="url(#clip_1)">
            <clipPath id="clip_2">
                <path d="M53.37 4.99H110.41999999999999V64.52H53.37z M 0,0"/>
            </clipPath>
            <g clip-path="url(#clip_2)">
                <clipPath id="clip_3">
                    <path d="M100.93,6.08c-9,0.7,-17.87,11.09,-22.36,20.19S72.13,42.22,67,49.83,55.19,57.1,55.19,57.1c10.26,6.81,17,2.9,23.52,-3.83,6.06,-6.23,17.11,-17.41,21.9,-26,2.31,-4.14,6.55,-13.27,8.06,-19.79,-1.56,-1.15,-4,-1.72,-7.74,-1.42 M 0,0"/>
                </clipPath>
                <g clip-path="url(#clip_3)">
                    <clipPath id="clip_4">
                        <path d="M53.37 4.99H110.41999999999999V62.04H53.37z M 0,0"/>
                    </clipPath>
                    <path d="M42.78 -6.4H121.07000000000001V73.05999999999999H42.78z" clip-path="url(#clip_4)" fill="#545454" fill-opacity="1"/>
                </g>
            </g>
        </g>
    </g>
    <g>
        <clipPath id="clip_1">
            <path d="M37.53,78.11c-0.82,2 -3,3.31 -4.71,4.39L23.42,89c-3.07,2.12 -4.41,4.64 -7.58,4a2.68,2.68 0,0 1,-1.78 -1c-2.14,-2.92 0.23,-6.21 3.65,-8.71l8.65,-6.68c2,-1.34 3.63,-2.87 5.5,-3.63s3.52,-1.44 5.25,0.49 0.85,3.51 0.42,4.56 M 0,0"/>
        </clipPath>
        <path d="M0.84 59.91H50.540000000000006V105.58H0.84z" clip-path="url(#clip_1)" fill="#a9a9a9" fill-opacity="1"/>
    </g>
    <g>
        <clipPath id="clip_1">
            <path d="M67.29,77.37l-1.06,-0.58c0.38,0.22 0.73,0.41 1.06,0.58 M 0,0"/>
        </clipPath>
        <path d="M53.83 64.39H79.7V89.78H53.83z" clip-path="url(#clip_1)" fill="#2d2d2d" fill-opacity="1"/>
    </g>
    <g>
        <clipPath id="clip_1">
            <path d="M66.23,76.79c-1.1,-0.62 -2.38,-1.4 -3.74,-2.34 1.36,0.94 2.64,1.73 3.74,2.34 M 0,0"/>
        </clipPath>
        <path d="M50.09 62.05H78.64V89.19H50.09z" clip-path="url(#clip_1)" fill="#3c3c3c" fill-opacity="1"/>
    </g>
    <g>
        <clipPath id="clip_1">
            <path d="M43.73,75.08c1,1.71 6.08,9.86 4.53,15.62 -1.18,5.54 -6.44,10.38 -12.49,5.3 0,0 0.79,0.14 0.8,0.13 4.29,2.78 9.51,1 10.88,-4.61 1.32,-5.32 -1.71,-11.5 -5,-16.76 -1.41,-2.28 -4,-5.25 -6.38,-5.52 1.48,-1.08 3.28,0.36 4.79,1.89a0.34,0.34 0,0 1,0.08 0.09,36.35 36.35,0 0,1 2.77,3.86 M 0,0"/>
        </clipPath>
        <path d="M23.37 56.46H60.96000000000001V110.55000000000001H23.37z" clip-path="url(#clip_1)" fill="#a9a9a9" fill-opacity="1"/>
    </g>
    <g>
        <clipPath id="clip_1">
            <path d="M31.56,82.31l-8.89,6.17c-2.47,1.71 -3.88,4 -6.34,3.57a2.54,2.54 0,0 1,-1.51 -0.91c-1.7,-2.35 0.5,-5.49 3.41,-7.62l10.36,-8c2.65,-1.83 5.36,-4 8,-1.45 1.47,4.23 -1.25,5.76 -5.07,8.19 M 0,0"/>
        </clipPath>
        <path d="M1.82 60.53H49.44V104.50999999999999H1.82z" clip-path="url(#clip_1)" fill="#545454" fill-opacity="1"/>
    </g>
    <g>
        <clipPath id="clip_1">
            <path d="M36,69.27l0.11,0 -0.11,0 M 0,0"/>
        </clipPath>
        <path d="M23.58 56.83H48.5V81.67H23.58z" clip-path="url(#clip_1)" fill="#7c7c7c" fill-opacity="1"/>
    </g>
    <g>
        <clipPath id="clip_1">
            <path d="M8.72,69.26H46.59V110.21H8.72z M 0,0"/>
        </clipPath>
        <g clip-path="url(#clip_1)">
            <clipPath id="clip_2">
                <path d="M6.24 67H48.410000000000004V111.65H6.24z M 0,0"/>
            </clipPath>
            <g clip-path="url(#clip_2)">
                <clipPath id="clip_3">
                    <path d="M15.85,110.21a11.65,11.65,0,0,1,-0.33,-5.5c1.67,-9.26,16.8,-14.48,25.36,-18.33a17.86,17.86,0,0,0,5.7,-3.88A46.57,46.57,0,0,0,43.45,76c-0.75,-1.09,-1.56,-2.1,-2.32,-3.19,-0.4,-0.46,-0.76,-1,-1.16,-1.44a6.89,6.89,0,0,0,-3.39,-2h-0.23c-0.9,0,-1.9,1,-2.77,1.46,-2.54,1.49,-4.9,3.27,-7.52,5C16.28,82.28,8.62,91.14,8.72,100.22c0,2.22 0.17,5.18,2.27,7.47a8.48,8.48,0,0,0,1.69,1.39,6.19,6.19,0,0,0,3.17,1.13 M 0,0"/>
                </clipPath>
                <g clip-path="url(#clip_3)">
                    <clipPath id="clip_4">
                        <path d="M8.72 67H48.41V111.65H8.72z M 0,0"/>
                    </clipPath>
                    <path d="M-3.68 56.86H58.99V122.61H-3.68z" clip-path="url(#clip_4)" fill="#898989" fill-opacity="1"/>
                </g>
            </g>
        </g>
    </g>
    <g>
        <clipPath id="clip_1">
            <path d="M13.52,97.48a1.12,1.12 0,0 0,-1.35 0.72c-0.17,0.46 0,1 0.31,1.12s0.9,-0.08 1.21,-0.48a0.86,0.86 0,0 0,-0.17 -1.36m0,0A1.09,1.09 0,0 1,14 99a1.42,1.42 0,0 1,-1.77 0.85,1.09 1.09,0 0,1 -0.31,-1.72 1.48,1.48 0,0 1,1.63 -0.61 M 0,0"/>
        </clipPath>
        <path d="M-0.8 85H26.49V112.28999999999999H-0.8z" clip-path="url(#clip_1)" fill="#3c3c3c" fill-opacity="1"/>
    </g>
</svg>