<svg xmlns="http://www.w3.org/2000/svg" width="120.0" height="120.0" viewBox="0 0 120.0 120.0">
    <path d="M61.13,55.75S65.73,43.13 74.68,35 87.5,18.78 84.09,15.31s-9.42,-0.55 -15.59,6.13C60.89,29.69 57.27,45 55.61,52.58S50.55,71.37 43.23,79.91c-8.4,9.78 -12.24,20 -3.88,25.3 0,0 6.84,4.64 14.28,-6.83C59.7,89 56.12,65.85 61.13,55.75Z" fill="#898196" fill-opacity="1"/>
    <path d="M62,33.31C65,25.07 77.45,13.2 80.38,16 82.32,17.93 70,24.13 65.24,34.48c-4.57,10 -7.84,16.93 -10.28,24 -2.11,6.1 -9.24,34.78 -14.22,39.49s-5.86,-2.37 -3.59,-7.68C39.53,84.69 45.9,78.41 48.64,72 53.47,60.73 59.53,40.16 62,33.31Z" fill="#938da0" fill-opacity="1"/>
    <path d="M56.72,89.11S53.78,100 50.56,98.68s2.64,-9.73 4,-20.49S55,58 66.31,40.3 82.14,18.39 83.79,19.58c2.65,1.93 -1.51,7.71 -9.11,15.46C65.94,44 63.46,50.15 60.88,57.25 57.27,67.13 58,82.89 56.72,89.11Z" fill="#938da0" fill-opacity="1"/>
    <path d="M47,82.16c-1.22,3.15 -2.37,5.56 -4.16,9.66 -0.43,1 -2.82,5.89 -4.27,5.32 -0.72,-0.29 -1.39,-1.85 1.19,-8.13a38.75,38.75 0,0 1,5.15 -8.17A50.67,50.67 0,0 0,47.87 76,53.37 53.37,0 0,0 51,69.59c-0.44,1.69 -1.53,6 -1.91,7C48.26,79 47.91,79.84 47,82.16Z" fill="#9995a3" fill-opacity="1"/>
    <path d="M68.48,27.52C71,24.2 73.09,22.68 76.24,20c1.34,-1.15 1.89,-1.77 1.64,-2.32 -0.64,-1.15 -1.8,-0.24 -2.93,0.49 -2.14,1.36 -3.8,3.44 -5.59,5.19 -3.29,3.22 -7.67,11.72 -6.58,12.11 0.83,0.3 1.52,-1.48 2.1,-2.59A40,40 0,0 1,68.48 27.52Z" fill="#9995a3" fill-opacity="1"/>
    <path d="M57.62,64.37c-0.61,3.43 -1,6.9 -1.48,11a58.58,58.58 0,0 1,-3.57 15.57c-0.38,1 -2.23,6.12 -1,6.55s2.83,-4 3.46,-5.67c1.15,-3 1.46,-7.56 1.61,-11 0.23,-5 0.62,-10.79 1.32,-15.73a74.56,74.56 0,0 1,2.65 -10.79A66.4,66.4 0,0 0,57.62 64.37Z" fill="#9995a3" fill-opacity="1"/>
    <path d="M70.38,38.82c-2.75,3.45 -3.86,5.6 -4.38,5.41 -0.88,-0.57 2.92,-5.66 4.78,-8.38 3.58,-5.26 2.83,-4.14 6.41,-9.25a56.9,56.9 0,0 1,4 -4.7c0.53,-0.36 1,-0.94 1.83,-0.46S82,25.07 80,27.63s-3.94,4.49 -6.09,7C73.91,34.58 71.61,37.28 70.38,38.82Z" fill="#9995a3" fill-opacity="1"/>
    <path d="M39.4,105.36a7,7 0,0 0,5.11 0.66,11.21 11.21,0 0,0 4.61,-2.38C46,105.51 40.82,106.34 36,102 36.34,103.15 38.34,104.71 39.4,105.36Z" fill="#787387" fill-opacity="1"/>
    <path d="M79.84,13.84a4.93,4.93 0,0 1,3.75 1,4.36 4.36,0 0,1 1.61,2.6 4.28,4.28 0,0 0,-1.85 -1.92c-3.41,-1.88 -5.2,-0.91 -7.69,-0.12A12.79,12.79 0,0 1,79.84 13.84Z" fill="#787387" fill-opacity="1"/>
    <path d="M-1006.68,-437.22H697.79V3528.35H-1006.68z" fill="#000000" fill-opacity="0" stroke="#32dd14" stroke-opacity="1" stroke-width="11.07"/>
</svg>