<svg xmlns="http://www.w3.org/2000/svg" width="120.0" height="120.0" viewBox="0 0 120.0 120.0">
    <g>
        <clipPath id="clip_1">
            <path d="M10.62,92.78c-0.27,-0.15 -0.7,0.12 -0.95,0.59s-0.24,1 0,1.12 0.7,-0.12 1,-0.59 0.24,-1 0,-1.12 M 0,0"/>
        </clipPath>
        <path d="M-2.88 80.37H23.2V106.89H-2.88z" clip-path="url(#clip_1)" fill="#e6e6e6" fill-opacity="1"/>
    </g>
    <g>
        <clipPath id="clip_1">
            <path d="M15.91,109.72c-1.28,0.39 -2.74,-0.29 -3.92,-1.07a8.5,8.5 0,0 1,-1.72 -1.5h0a20.14,20.14 0,0 0,8.45 6.36,12.62 12.62,0 0,1 -2.8,-3.79 M 0,0"/>
        </clipPath>
        <path d="M-2.11 94.78H31.07V125.87H-2.11z" clip-path="url(#clip_1)" fill="#545454" fill-opacity="1"/>
    </g>
    <g>
        <clipPath id="clip_1">
            <path d="M12.45,96.1a0.91,0.91 0,0 0,-0.83 1.54,0.91 0.91,0 0,0 0.83,-1.54 M 0,0"/>
        </clipPath>
        <path d="M-1.04 83.68H25.1V110.07000000000001H-1.04z" clip-path="url(#clip_1)" fill="#e6e6e6" fill-opacity="1"/>
    </g>
    <g>
        <clipPath id="clip_1">
            <path d="M14.92,105.27a10,10 0,0 0,1 4.45,2.24 2.24,0 0,0 0.7,-0.33c0.68,-0.48 0.63,-1.47 0.75,-2a8.92,8.92 0,0 1,0.7 -1.9,8.61 8.61,0 0,1 0.77,-1.33c2.05,-3 7.46,-6 10,-7.13 0.85,-0.36 1.75,-0.76 2.65,-1a6.35,6.35 0,0 1,3 -0.33c2.83,0.49 4,2.46 7.13,1.71A8.46,8.46 0,0 0,47 92.17c1,-3 0.37,-6.46 -0.84,-9.86a15.36,15.36 0,0 1,-3.39 1.89c-9.83,4 -27.74,11.73 -27.85,21.07 M 0,0"/>
        </clipPath>
        <path d="M2.56 69.95H59.85V122.09H2.56z" clip-path="url(#clip_1)" fill="#6d6d6d" fill-opacity="1"/>
    </g>
    <g>
        <clipPath id="clip_1">
            <path d="M11.4,92.79a1.27,1.27 0,0 0,-1.37 0.8c-0.22,0.41 -0.21,1 0.06,1.1s0.89,-0.2 1.22,-0.57 0.64,-1 0.09,-1.33m0,0a0.64,0.64 0,0 1,0.38 0.67,1.58 1.58,0 0,1 -0.19,0.78 1.9,1.9 0,0 1,-0.59 0.69,1.4 1.4,0 0,1 -1.22,0.21 0.81,0.81 0,0 1,-0.46 -0.91,1.73 1.73,0 0,1 0.42,-0.76 2.51,2.51 0,0 1,0.73 -0.55,1.09 1.09,0 0,1 0.93,-0.13 M 0,0"/>
        </clipPath>
        <path d="M-3.05 80.37H24.15V107.57000000000001H-3.05z" clip-path="url(#clip_1)" fill="#3c3c3c" fill-opacity="1"/>
    </g>
    <g>
        <clipPath id="clip_1">
            <path d="M35.87,69 L36,69l-0.12,0 M 0,0"/>
        </clipPath>
        <path d="M23.51 56.59H48.35V81.35000000000001H23.51z" clip-path="url(#clip_1)" fill="#8e8e8e" fill-opacity="1"/>
    </g>
    <g>
        <clipPath id="clip_1">
            <path d="M28.66,74.94 L17.91,83c-3,2.11 -5.19,5.25 -3.52,7.68a2,2 0,0 0,1.25 0.74c2.58,0.68 4.05,-1.52 6.69,-3.29l9,-6.06c3.87,-2.37 7,-5.6 5.2,-8.22s-5.25,-0.63 -7.82,1.1 M 0,0"/>
        </clipPath>
        <path d="M1.45 60.21H49.35V103.91H1.45z" clip-path="url(#clip_1)" fill="#545454" fill-opacity="1"/>
    </g>
    <g>
        <clipPath id="clip_1">
            <path d="M15.91,7.77H111.81V114H15.91z M 0,0"/>
        </clipPath>
        <g clip-path="url(#clip_1)">
            <clipPath id="clip_2">
                <path d="M15.61 6H114.53V117.28H15.61z M 0,0"/>
            </clipPath>
            <g clip-path="url(#clip_2)">
                <clipPath id="clip_3">
                    <path d="M36.4,107.17c4,-3.52,7.15,-8.94,11.42,-14.61S58.6,82.6,63,80.07s5.64,-3,6.66,-7.47,4.11,-7.86,14.24,-16.37,18.71,-16.86,24.5,-27.71S111.22,9,109.77,7.84a0.5 0.5,0,0,0,-0.08,-0.07c-0.47,4.71,-1.72,9.73,-6,17.76,-5.35,10.18,-18,23.35,-32,33.49,-4.1,3,-17.57,3.4,-12.18,7.14,5,3.51,7.52,7.16,4.38,7S47.23,64.85,43.45,58a26.92,26.92,0,0,0,-2.14,4A21.2,21.2,0,0,1,40,64.22a12.43,12.43,0,0,1,5.31,2.6c6,5,6.21,11.49 0.83,15.49,1.21,3.4,1.81,6.89 0.84,9.86a8.46,8.46,0,0,1,-5.44,5.21c-3.11 0.75,-4.3,-1.22,-7.13,-1.71a6.35,6.35,0,0,0,-3,0.33,22.91,22.91,0,0,1,-5.15,6.41,10.61,10.61,0,0,1,-8.23,3.09,8.92,8.92,0,0,0,-0.7,1.9c-0.12 0.52,-0.07,1.51,-0.75,2a2.24,2.24,0,0,1,-0.7 0.33,12.62,12.62,0,0,0,2.8,3.79l0.17 0.07c5.32,1.87,13.49,-2.89,17.52,-6.41 M 0,0"/>
                </clipPath>
                <g clip-path="url(#clip_3)">
                    <clipPath id="clip_4">
                        <path d="M15.61 6H112.05V114.81H15.61z M 0,0"/>
                    </clipPath>
                    <path d="M3.54 -4.6H124.17V126.36000000000001H3.54z" clip-path="url(#clip_4)" fill="#434242" fill-opacity="1"/>
                </g>
            </g>
        </g>
    </g>
    <g>
        <clipPath id="clip_1">
            <path d="M96.67,7.74C89.21,11.06 83.61,18 78,28.84S71.31,45.45 64.84,52.28s-15.3,5.06 -18.4,4.78a3,3 0,0 0,-3 1c3.78,6.8 17.43,15 20.47,15.16s0.66,-3.53 -4.38,-7C54.15,62.42 67.62,62 71.72,59c14,-10.14 26.67,-23.31 32,-33.49 4.23,-8 5.48,-13 6,-17.76 -1.52,-1.21 -5.69,-3.28 -13,0 M 0,0"/>
        </clipPath>
        <path d="M31.08 -6.36H122.05V85.57000000000001H31.08z" clip-path="url(#clip_1)" fill="#545454" fill-opacity="1"/>
    </g>
    <g>
        <clipPath id="clip_1">
            <path d="M31.25,82l-9,6c-2.49,1.68 -3.94,4 -6.38,3.49a2.52,2.52 0,0 1,-1.49 -0.94C12.76,88.24 15,85.11 18,83L28.4,75.2c2.68,-1.81 5.41,-4 8,-1.33 1.39,4.28 -1.34,5.78 -5.19,8.16 M 0,0"/>
        </clipPath>
        <path d="M1.5 60.27H49.18V104.01H1.5z" clip-path="url(#clip_1)" fill="#424343" fill-opacity="1"/>
    </g>
    <g>
        <clipPath id="clip_1">
            <path d="M45.33,66.82A12.43,12.43 0,0 0,40 64.22a33.08,33.08 0,0 1,-3.63 4.51l0,0.26h0.13a6.86,6.86 0,0 1,3.34 2.12c0.39,0.47 0.75,1 1.14,1.47 0.73,1.11 1.52,2.13 2.25,3.25a48,48 0,0 1,3 6.48c5.38,-4 5.17,-10.47 -0.83,-15.49 M 0,0"/>
        </clipPath>
        <path d="M23.98 51.86H62.39V94.68H23.98z" clip-path="url(#clip_1)" fill="#545454" fill-opacity="1"/>
    </g>
    <g>
        <clipPath id="clip_1">
            <path d="M14.92,105.27c0.11,-9.34 18,-17.1 27.85,-21.07a15.36,15.36 0,0 0,3.39 -1.89,48 48,0 0,0 -3,-6.48c-0.73,-1.12 -1.52,-2.14 -2.25,-3.25 -0.39,-0.48 -0.74,-1 -1.14,-1.47A6.86,6.86 0,0 0,36.47 69h-0.13c-0.92,0 -2,0.92 -2.88,1.43 -2.56,1.46 -4.94,3.21 -7.58,4.92C16,81.74 8.24,90.52 8.19,99.66c0,2.22 0.07,5.16 2.08,7.49a8.5,8.5 0,0 0,1.72 1.5c1.18,0.78 2.64,1.46 3.92,1.07A10.09,10.09 0,0 1,14.92 105.27Z M 0,0"/>
        </clipPath>
        <path d="M-4.18 56.62H58.52V122.19999999999999H-4.18z" clip-path="url(#clip_1)" fill="#898989" fill-opacity="1"/>
    </g>
    <g>
        <clipPath id="clip_1">
            <path d="M13.13,96.12a1.12,1.12 0,0 0,-1.37 0.68c-0.2,0.45 -0.09,1 0.25,1.14s0.89,0 1.22,-0.44a0.88,0.88 0,0 0,-0.1 -1.38m0,0a1.11,1.11 0,0 1,0.37 1.5,1.4 1.4,0 0,1 -1.78,0.79 1.1,1.1 0,0 1,-0.23 -1.74,1.47 1.47,0 0,1 1.64,-0.55 M 0,0"/>
        </clipPath>
        <path d="M-1.2 83.67H26V110.87H-1.2z" clip-path="url(#clip_1)" fill="#3c3c3c" fill-opacity="1"/>
    </g>
    <g>
        <clipPath id="clip_1">
            <path d="M43.49,75c1,1.73 5.9,10 4.25,15.79 -1.27,5.55 -6.59,10.33 -12.53,5.12 0,0 0.78,0.15 0.8,0.14 4.23,2.87 9.45,1.13 10.92,-4.45 1.4,-5.34 -1.51,-11.6 -4.68,-17C40.88,72.29 38.33,69.26 36,69c1.49,-1.06 3.26,0.41 4.73,2a0.3,0.3 0,0 1,0.08 0.08A35.32,35.32 0,0 1,43.49 75 M 0,0"/>
        </clipPath>
        <path d="M22.85 56.23H60.440000000000005V110.47999999999999H22.85z" clip-path="url(#clip_1)" fill="#c1c1c1" fill-opacity="1"/>
    </g>
    <g>
        <clipPath id="clip_1">
            <path d="M37.27,77.9c-0.85,2 -3,3.28 -4.77,4.34L23,88.67c-3.09,2.08 -4.47,4.58 -7.62,3.94a2.65,2.65 0,0 1,-1.75 -1c-2.08,-3 0.34,-6.24 3.78,-8.7l8.74,-6.58c2,-1.31 3.66,-2.82 5.53,-3.56s3.53,-1.39 5.22,0.59 0.79,3.54 0.35,4.59 M 0,0"/>
        </clipPath>
        <path d="M0.51 59.65H50.269999999999996V105.08H0.51z" clip-path="url(#clip_1)" fill="#c1c1c1" fill-opacity="1"/>
    </g>
</svg>