<svg xmlns="http://www.w3.org/2000/svg" width="120.0" height="120.0" viewBox="0 0 120.0 120.0">
    <path d="M44.71,64.1a8.06,8.06 0,0 1,0.91 -0.25c2.64,-0.54 7.84,-0.64 9.9,-2.27S77.26,40.16 81.75,34.84s5.86,-11.66 14.67,-20.15S109,7.36 110.67,9c3.45,3.45 0.68,8.09 -4.68,13.89C99.47,30 93.61,32.11 87.16,36.74c-8.49,6.09 -26.57,25 -29,28.27 -3.91,5.11 -1.75,12.55 -6.79,18.7 -3.2,3.9 -6.39,5.13 -10.83,5.76s-6,3 -6,3 0.08,-0.31 -0.2,0.67a37.73,37.73 0,0 1,-2 6.23c-0.19,0.37 -0.5,1.09 -0.94,2 2.46,-5.7 2.87,-9.94 3.38,-19.08C35.47,69.45 39.17,67 44.71,64.1Z" fill="#d02f4a" fill-opacity="1"/>
    <path d="M96.05,17.55c-1.48,1.37 -2.11,3.1 -1.41,3.85s2.47,0.25 4,-1.13 2.1,-3.1 1.4,-3.85S97.52,16.17 96.05,17.55Z" fill="#f8677f" fill-opacity="1"/>
    <path d="M21.4,87.29c0.79,-0.28 1.54,-0.52 2.22,-0.7 4.78,-1.26 5.6,-1.48 7.05,-8.72 1.33,-6.65 7.49,-11 8.85,-11.54 1.06,-0.46 1.55,-0.6 2.6,-1.08a24.84,24.84 0,0 1,2.59 -1.15c-5.54,2.93 -9.24,5.35 -10,18.2 -0.51,9.14 -0.92,13.38 -3.38,19.08 -1.55,3.2 -4.71,8.8 -10.23,10.32a11.72,11.72 0,0 1,-7 -0.14C6.09,101.55 14.22,91.57 21.4,87.29Z" fill="#c31a3f" fill-opacity="1"/>
    <path d="M14.19,111.56a9.47,9.47 0,0 1,-6.26 -10.75c1,-7.35 8.23,-11.63 13.47,-13.52C14.22,91.57 6.09,101.55 14.19,111.56Z" fill="#ae0935" fill-opacity="1"/>
</svg>