<svg xmlns="http://www.w3.org/2000/svg" width="120.0" height="120.0" viewBox="0 0 120.0 120.0">
    <path d="M52.3,115.18s5.07,0.48 7.64,-1.3c1.8,-1.24 4.72,-7.26 3.66,-16.64 -1,-8.35 -1.5,-13.22 5,-24 7.81,-13.1 13.72,-10.29 20.08,-21.84 5.09,-9.27 7.76,-19.72 8.74,-31.95 1,-12.81 -4.73,-13.07 -4.73,-13.07A5.42,5.42 0,0 0,90.42 5.2a4.26,4.26 0,0 0,-2 -0.13S85.34,3.08 77.54,9c-7.19,5.46 -19,16.27 -22.59,24.92 -4,9.63 -2.52,15.8 -4.92,21.63C47.79,61 43.44,69.19 38.19,73.78c-3.76,3.28 -5.55,3.39 -10.13,5.17s-8,4.6 -8.53,6.1 1.1,6.37 1.1,6.37 3.09,-0.51 10.18,5.13C39.79,103.69 45.6,113.41 52.3,115.18Z" fill="#a3285f" fill-opacity="1" fill-rule="evenodd"/>
    <path d="M92.65,6.35s5.76,0.26 4.73,13.07a83.57,83.57 0,0 1,-8.74 31.95c-2.44,4.78 -10.58,13.8 -14.27,9.35 -3.27,-3.94 4.1,-14 10.44,-28.13 5.8,-12.94 7.77,-18.4 7,-23.07a5.64,5.64 0,0 0,-3.37 -4.45,4.32 4.32,0 0,1 2.42,0.28C92.45,6 92.65,6.35 92.65,6.35Z" fill="#931956" fill-opacity="1" fill-rule="evenodd"/>
    <path d="M88.47,5.07a4.26,4.26 0,0 1,2 0.13,5.42 5.42,0 0,1 2.23,1.15s3.94,3.49 3.24,10.91a72.47,72.47 0,0 1,-8.32 25.93c-4.59,8.21 -6.82,10.73 -9,9.49 -2.45,-1.37 1.33,-7.4 5,-15.52 3.8,-8.31 6.76,-15 8.22,-20.39C93.34,11 92.82,6.51 88.47,5.07Z" fill="#af2f6f" fill-opacity="1" fill-rule="evenodd"/>
    <path d="M52.3,115.18c-6.7,-1.77 -12.51,-11.49 -21.49,-18.63 -7.09,-5.64 -10.18,-5.13 -10.18,-5.13s-1.62,-4.87 -1.1,-6.37c0,0 1.84,-2.84 7.44,-1.34S40.05,91.8 43.6,98.4s6,11.81 8.32,14.21 3.87,2.53 3.87,2.53Z" fill="#931956" fill-opacity="1" fill-rule="evenodd"/>
    <path d="M52.3,115.18c-6.7,-1.77 -12.51,-11.49 -21.49,-18.63 -7.09,-5.64 -10.18,-5.13 -10.18,-5.13a12.86,12.86 0,0 0,4.11 8.69c4.77,4.42 14.6,11.55 20.49,13.89C49.53,115.7 52.3,115.18 52.3,115.18Z" fill="#9d9ea5" fill-opacity="1" fill-rule="evenodd"/>
</svg>