<svg xmlns="http://www.w3.org/2000/svg" width="120.0" height="120.0" viewBox="0 0 120.0 120.0">
    <path d="M86.91,40.51c-0.42,4.22 -3,8.11 -5.9,11.9 -3,4 -5.8,8 -7.42,12.72a29.43,29.43 0,0 0,0.26 20.53c3.61,9.77 2.49,12.4 -7.33,16.25 -10.38,4.06 -20.73,5 -30.19,-2.75 -4.59,-3.79 -5.24,-8 -1.62,-12.87 2.83,-3.78 6.94,-5.94 11,-8.06 4.7,-2.46 9.1,-5.2 12.62,-9.28C63,63.58 64.72,57.7 62.39,50.79a94.16,94.16 0,0 1,-3 -10.22,24.57 24.57,0 0,1 4.08,-20.24c4.46,-6.26 9.49,-7.18 16.83,-1.83C86.71,23.2 88.89,31 86.91,40.51Z" fill="#e25a81" fill-opacity="1"/>
    <path d="M73.93,91.72a21.53,21.53 0,0 0,-2.22 0.93,13.51 13.51,0 0,0 -3.87,3c-1.14,1.3 -2,2.82 -3.19,4.07l-0.42,0.4a9.81,9.81 0,0 1,-4 1.94,40.16 40.16,0 0,1 -4.6,1.15 25.47,25.47 0,0 1,-5 0.4,28.67 28.67,0 0,1 -3.07,-0.14 33.64,33.64 0,0 1,-7.26 -1.65,23 23,0 0,0 9.15,3 29.78,29.78 0,0 0,9.69 -0.56,48.11 48.11,0 0,0 5.9,-1.74c1.33,-0.48 2.62,-1 3.89,-1.59a23.34,23.34 0,0 0,3.6 -1.9,8.43 8.43,0 0,0 2.23,-2.06 6.66,6.66 0,0 0,1 -4.58,5.56 5.56,0 0,0 -0.13,-0.8C75.6,91.23 74.79,91.41 73.93,91.72Z" fill="#d14674" fill-opacity="1" fill-rule="evenodd"/>
    <path d="M63.38,55.57c0,0.36 0,0.72 0,1.08A20.63,20.63 0,0 1,63 60.47a17.84,17.84 0,0 1,-1.51 4,4.63 4.63,0 0,1 0.82,-0.45c0.55,-0.26 1.14,-0.44 1.69,-0.7a14.94,14.94 0,0 0,4.93 -3.9c0.26,-0.31 0.52,-0.64 0.76,-1a3,3 0,0 0,0.58 -1c0.25,-0.48 -2.75,-0.35 -4.19,-0.8a5.64,5.64 0,0 1,-2.79 -2.35,3.65 3.65,0 0,0 0.12,1.09A1.49,1.49 0,0 1,63.38 55.57Z" fill="#d14674" fill-opacity="1" fill-rule="evenodd"/>
    <path d="M73.68,85.64c0.18,-1 -0.58,-2.16 -0.84,-3.17a29.25,29.25 0,0 1,0.75 -17.34C75.21,60.41 78,56.36 81,52.41a48.6,48.6 0,0 0,3.72 -5.53,18.76 18.76,0 0,0 1.72,-4.14 30.2,30.2 0,0 0,0.7 -3.43c0.17,-1.11 0.34,-2.22 0.42,-3.35 0,-0.38 0,-0.75 0,-1.13a24.78,24.78 0,0 0,-0.34 -4.94A19.39,19.39 0,0 0,86 25.49a17.16,17.16 0,0 0,-2.31 -3.8,17.59 17.59,0 0,0 -3.31,-3.14l0,-0.05c0.57,0.42 1,2 1.36,2.66 2.9,5.55 4.47,12.25 3.16,18.47A33,33 0,0 1,81.19 48c-2.3,4.28 -5.89,8.33 -7.75,12.83 -1.48,3.57 -3,7.13 -3.4,11a50.22,50.22 0,0 0,-0.46 5.47,19.87 19.87,0 0,0 1.31,7.9 2.89,2.89 0,0 0,0.72 1.07,1.44 1.44,0 0,0 1.2,0.38A1.12,1.12 0,0 0,73.68 85.64Z" fill="#d14674" fill-opacity="1"/>
    <path d="M-123.21,-3370H744.26V269.94H-123.21z" fill="#000000" fill-opacity="0" stroke="#3299fe" stroke-opacity="1" stroke-width="24.22"/>
</svg>