<svg xmlns="http://www.w3.org/2000/svg" width="120.0" height="120.0" viewBox="0 0 120.0 120.0">
    <path d="M27.08,71.15c-2.85,12.1 -3.56,22.79 6.77,30.78A16.61,16.61 0,0 0,42 104.86c6.89,0.7 12.53,-1.61 18.16,-5C77.31,89.41 92.09,60.24 94.6,39.33c0.71,-5.86 1.81,-12.54 -0.34,-17.48a16.18,16.18 0,0 0,-2.47 -4.07L90.2,16.36c-4.68,-2.56 -8.46,-0.54 -11.77,1.44l-3,2.07c-0.93,0.16 -1.85,0 -2.74,0.2 -3,0.55 -5.73,2.48 -8.39,4.11l-4,3.06 -1.11,1a47.51,47.51 0,0 0,-6.7 3.64c-3.55,2.79 -6.9,5 -10.74,10.16S28.8,63.87 27.08,71.15ZM55.59,65.93c2.32,1.24 -1.41,13.8 -6.47,20.78C47.77,88.59 41,96 38.78,94.82s-0.19,-8.49 1.93,-12.94S53.28,64.69 55.59,65.93Z" fill="#49627c" fill-opacity="1" fill-rule="evenodd"/>
    <path d="M90.06,16.23S95.42,19.78 95.58,28 93.6,47.86 90,57.76c-3.47,9.56 -13.47,28.33 -21.62,35.59 -8.61,7.66 -15.5,11.11 -21.89,11.52 4.92,-3.19 11.33,-7.16 17.25,-13.91 6.9,-7.86 16.34,-25.53 19.47,-33.52 2.93,-7.48 8.65,-19.11 9.26,-27.93A28.91,28.91 0,0 0,90.06 16.23Z" fill="#000000" fill-opacity="1" fill-rule="evenodd"/>
    <path d="M75.44,19.87s9.19,-8.06 14.85,-3.44c5.22,4.25 2.27,15.37 -0.18,24a151.73,151.73 0,0 1,-11 27.24C75,75.39 70.34,84.32 62.85,92.07a84.62,84.62 0,0 1,-16.41 12.86,22.84 22.84,0 0,1 -6,-0.33c5.83,-5 10.5,-8.65 14.43,-14a116.6,116.6 0,0 0,11 -17.51c2.93,-6 9.44,-22.31 11.1,-27.64s3.87,-16.3 3.77,-19.62C80.65,23.76 79.14,20 75.44,19.87Z" fill="#49627c" fill-opacity="1" fill-rule="evenodd"/>
    <path d="M59,28.28s13.21,-12.41 19.32,-7.5c5.51,4.42 1.9,16.39 0.91,19.56a238.86,238.86 0,0 1,-9.34 24.4c-6.26,14.55 -13.07,25 -21.12,32.59 -3.15,2.88 -5.07,4.66 -8.45,7.36 -6.26,-1.12 -8.68,-4.13 -10.64,-6.55a28.56,28.56 0,0 1,-3.61 -6.9c-0.31,-0.86 -0.38,-1.76 -0.61,-2.64a30.56,30.56 0,0 1,-0.27 -7.31c0.88,9.95 3.62,14.14 7.25,16.08s6.83,0.8 9.6,-0.33c3.78,-1.53 6.47,-5 8.94,-8.26A80.63,80.63 0,0 0,56.79 80c4.29,-7.54 9.14,-21.85 11.05,-28s4.53,-20.48 -0.66,-23.42A8.62,8.62 0,0 0,59 28.28Z" fill="#58738a" fill-opacity="1" fill-rule="evenodd"/>
    <path d="M67.18,28.53S60,23.32 46.59,35.89 15.42,84 30.47,96c4.06,3.61 8,2.68 11.57,1.06 -8.57,-0.15 -13.43,-5.63 -13.84,-12.37C27.85,79 33.73,62.52 38.58,54.26S49.68,36.23 55,32.7 67.18,28.53 67.18,28.53Z" fill="#49627c" fill-opacity="1" fill-rule="evenodd"/>
    <path d="M67.18,28.53s-16.39,-0.67 -28.72,22.13C28.38,69.3 24,87.71 28.53,94 24,89 23.78,84 25.15,75.14S36,49.08 36,49.08 53.07,21.34 67.18,28.53Z" fill="#49627c" fill-opacity="1" fill-rule="evenodd"/>
    <path d="M55.59,65.93c-1.18,-0.48 -5.82,2.89 -12.58,12.13a13.66,13.66 0,0 0,-1 1.64c-6.82,13.12 -3.21,15.12 -3.21,15.12S33.35,96.7 31,91.38s-1.56,-12.45 2.75,-20.87S47.44,47.72 53.42,49.27C57.05,50.21 56.47,66 55.59,65.93Z" fill="#000000" fill-opacity="1" fill-rule="evenodd"/>
    <path d="M-89.63,-3907.5H1445.16V272.64H-89.63z" fill="#000000" fill-opacity="0" stroke="#ffffff" stroke-opacity="1" stroke-width="5.0"/>
</svg>