<svg xmlns="http://www.w3.org/2000/svg" width="120.0" height="120.0" viewBox="0 0 120.0 120.0">
    <path d="M98.7,6.89a2.52,2.52 0,0 1,2.62 1.29,6.85 6.85,0 0,1 0.9,2.25 19.31,19.31 0,0 1,0.15 6.61,32.62 32.62,0 0,1 -1.19,5.53 40.93,40.93 0,0 1,-4 8.89A61.81,61.81 0,0 1,88.34 43,50.74 50.74,0 0,1 76.5,52.14a42.22,42.22 0,0 1,-11 4.51,20.52 20.52,0 0,1 -7.07,0.51 12.07,12.07 0,0 1,-4.72 -1.52,5.08 5.08,0 0,1 -1.44,-1.21 1.11,1.11 0,0 1,0.19 -1.83c0.23,-0.18 0.42,-0.43 0.73,-0.49l0.26,-0.11h0a47,47 0,0 0,7.8 -4.14,53.35 53.35,0 0,0 10.49,-9.3 90.8,90.8 0,0 0,5.93 -7.72c1.66,-2.38 3.22,-4.82 4.79,-7.27 1.27,-2 2.53,-4 3.86,-5.91A32.14,32.14 0,0 1,96.36 8c0.55,-0.34 1.14,-0.62 1.71,-0.93Z" fill="#000000" fill-opacity="1"/>
    <path d="M10.26,104s0.09,0 0.1,0.06a6.72,6.72 0,0 0,4.21 3.54,16.44 16.44,0 0,0 10,0.12 28,28 0,0 0,9.83 -4.86,41.57 41.57,0 0,0 8,-7.82 49.7,49.7 0,0 0,4.42 -6.85c0.9,-1.66 1.69,-3.38 2.54,-5.07 1.34,-2.65 2.63,-5.32 3.89,-8 1.07,-2.28 2.11,-4.58 3.17,-6.87A24.37,24.37 0,0 1,57.6 65.9a5.27,5.27 0,0 1,2.07 -2c2,-1.07 4.06,-2 6.1,-3A114.58,114.58 0,0 0,79.48 53,67.24 67.24,0 0,0 92.91,40.91a65,65 0,0 0,4 -5.19,55.1 55.1,0 0,0 3.57,-5.95 44,44 0,0 0,2.74 -6.45,32.69 32.69,0 0,0 1.9,-10.5 11.93,11.93 0,0 0,-0.61 -4,4.78 4.78,0 0,0 -1.5,-2.32 2.29,2.29 0,0 0,-1 -0.47,0.71 0.71,0 0,1 -0.39,-0.16 7,7 0,0 1,3.95 0.12l0.94,0.6a4.91,4.91 0,0 1,1.69 2.75,13.77 13.77,0 0,1 0.29,4.66 32.91,32.91 0,0 1,-1 5.56,40 40,0 0,1 -1.74,5.26 53.4,53.4 0,0 1,-2.28 4.92,60.56 60.56,0 0,1 -4,6.54 72.84,72.84 0,0 1,-4.86 6.09,92.87 92.87,0 0,1 -12.2,11.51c-3.41,2.7 -7,5.19 -10.54,7.67 -2.65,1.84 -5.36,3.6 -8,5.53a16.33,16.33 0,0 0,-3.91 4.13c-1.32,2 -2.65,4 -3.94,6C55,79 53.77,80.82 52.63,82.64c-1.26,2 -2.48,4 -3.71,6.09s-2.53,4 -3.9,6a53.92,53.92 0,0 1,-6.55 7.68,36.58 36.58,0 0,1 -10.72,7.3 22.66,22.66 0,0 1,-8.29 2.08,9 9,0 0,1 -6.91,-2.28l-0.11,0a9.53,9.53 0,0 1,-1.63 -2.94,10.94 10.94,0 0,1 -0.56,-2.11A0.47,0.47 0,0 1,10.26 104Z" fill="#000000" fill-opacity="1"/>
    <path d="M27.75,109.67a22.66,22.66 0,0 1,-8.29 2.08,9 9,0 0,1 -6.91,-2.28l2,-1.84a16.44,16.44 0,0 0,10 0.12" fill="#ffffff" fill-opacity="1"/>
    <path d="M107.8,18.56a22.23,22.23 0,0 0,0.75 -4.58,13.77 13.77,0 0,0 -0.29,-4.66 4.91,4.91 0,0 0,-1.69 -2.75,3.87 3.87,0 0,0 -2,-0.91l-1.08,1.22a5,5 0,0 1,1.06 1.92,11.93 11.93,0 0,1 0.61,4 27,27 0,0 1,-1.37 8.81Z" fill="#ffffff" fill-opacity="1"/>
    <path d="M63.84,74.9c2.08,-2.3 4,-4.68 6.12,-7a63,63 0,0 1,7.55 -7c2.8,-2.26 5.68,-4.42 8.38,-6.79a100.58,100.58 0,0 0,8.2 -8.06c1.55,-1.72 3.06,-3.48 4.47,-5.3 1.25,-1.61 2.41,-3.27 3.51,-5a60.1,60.1 0,0 0,3.49 -6.28,49.93 49.93,0 0,0 2,-4.9 42.92,42.92 0,0 0,1.72 -6.28,26.2 26.2,0 0,0 0.47,-4.23c0,-0.2 -0.07,-0.41 0.06,-0.6a22.48,22.48 0,0 1,0 4.92,37.91 37.91,0 0,1 -1.86,8.48 43.74,43.74 0,0 1,-2.16 5.31,55.53 55.53,0 0,1 -3.65,6.4 77.82,77.82 0,0 1,-14.29 16c-2.91,2.52 -6,4.89 -9,7.27 -4.17,3.28 -8.19,6.72 -12,10.37 -0.89,0.85 -1.82,1.65 -2.73,2.48 -0.06,0 -0.11,0.11 -0.18,0.16a0.45,0.45 0,0 1,-0.11 0C63.84,75 63.83,74.91 63.84,74.9Z" fill="#000000" fill-opacity="1"/>
    <path d="M12.44,109.43l0.11,0a9,9 0,0 0,6.91 2.28,22.66 22.66,0 0,0 8.29,-2.08 36.58,36.58 0,0 0,10.72 -7.3A53.92,53.92 0,0 0,45 94.69q2.05,-2.91 3.9,-6c1.23,-2 2.45,-4.08 3.71,-6.09C53.77,80.82 55,79 56.12,77.21c1.29,-2 2.62,-4 3.94,-6A16.33,16.33 0,0 1,64 67.06c2.59,-1.93 5.3,-3.69 8,-5.53 3.57,-2.48 7.13,-5 10.54,-7.67a92.87,92.87 0,0 0,12.2 -11.51,72.84 72.84,0 0,0 4.86,-6.09 60.56,60.56 0,0 0,4 -6.54,53.4 53.4,0 0,0 2.28,-4.92 40,40 0,0 0,1.74 -5.26,32.91 32.91,0 0,0 1,-5.56 13.77,13.77 0,0 0,-0.29 -4.66,4.91 4.91,0 0,0 -1.69,-2.75l0.09,-0.14a6.11,6.11 0,0 1,2.69 3.88,14.13 14.13,0 0,1 0.37,2v0a1.79,1.79 0,0 1,0 0.23l0.06,0.55v0.1a0.46,0.46 0,0 0,0 0.44v0c-0.13,0.19 -0.06,0.4 -0.06,0.6a26.2,26.2 0,0 1,-0.47 4.23,42.92 42.92,0 0,1 -1.72,6.28 49.93,49.93 0,0 1,-2 4.9,60.1 60.1,0 0,1 -3.49,6.28c-1.1,1.71 -2.26,3.37 -3.51,5 -1.41,1.82 -2.92,3.58 -4.47,5.3a100.58,100.58 0,0 1,-8.2 8.06c-2.7,2.37 -5.58,4.53 -8.38,6.79a63,63 0,0 0,-7.55 7c-2.07,2.31 -4,4.69 -6.12,7 -1.28,1.32 -2.59,2.62 -3.85,4a53.37,53.37 0,0 0,-5.27 6.53c-1.25,1.8 -2.38,3.67 -3.51,5.55S49.09,94.45 48,96.17s-2.11,3.18 -3.28,4.69a39.32,39.32 0,0 1,-9.77 9.4,25.46 25.46,0 0,1 -9.66,3.86 15,15 0,0 1,-6.75 -0.28,11 11,0 0,1 -5.26,-3.36A5.54,5.54 0,0 1,12.44 109.43Z" fill="#000000" fill-opacity="1"/>
    <path d="M10.19,103.63a14.88,14.88 0,0 1,0.29 -5.44,23.6 23.6,0 0,1 2.85,-7.09 28.79,28.79 0,0 1,5.74 -6.9,60 60,0 0,1 7.24,-5.44c2.36,-1.55 4.77,-3 7.08,-4.63a29,29 0,0 0,6.37 -6,41.41 41.41,0 0,0 3.36,-5.22c1,-1.75 1.84,-3.53 2.75,-5.3a9,9 0,0 1,5 -4.53c0.78,-0.29 1.55,-0.61 2.33,-0.92 -0.31,0.06 -0.5,0.31 -0.73,0.49a1.11,1.11 0,0 0,-0.19 1.83,5.08 5.08,0 0,0 1.44,1.21 12.07,12.07 0,0 0,4.72 1.52,20.52 20.52,0 0,0 7.07,-0.51 42.22,42.22 0,0 0,11 -4.51A50.74,50.74 0,0 0,88.34 43a61.81,61.81 0,0 0,8.87 -11.49,40.93 40.93,0 0,0 4,-8.89A32.62,32.62 0,0 0,102.37 17a19.31,19.31 0,0 0,-0.15 -6.61,6.85 6.85,0 0,0 -0.9,-2.25A2.52,2.52 0,0 0,98.7 6.89s0,-0.11 0.08,-0.17a11.82,11.82 0,0 1,2.9 -0.87,0.71 0.71,0 0,0 0.39,0.16 2.29,2.29 0,0 1,1 0.47,4.78 4.78,0 0,1 1.5,2.32 11.93,11.93 0,0 1,0.61 4,32.69 32.69,0 0,1 -1.9,10.5 44,44 0,0 1,-2.74 6.45A55.1,55.1 0,0 1,97 35.72a65,65 0,0 1,-4 5.19A67.24,67.24 0,0 1,79.48 53a114.58,114.58 0,0 1,-13.71 7.82c-2,1 -4.1,2 -6.1,3a5.27,5.27 0,0 0,-2.07 2,24.37 24.37,0 0,0 -1.25,2.37c-1.06,2.29 -2.1,4.59 -3.17,6.87 -1.26,2.69 -2.55,5.36 -3.89,8 -0.85,1.69 -1.64,3.41 -2.54,5.07a49.7,49.7 0,0 1,-4.42 6.85,41.57 41.57,0 0,1 -8,7.82 28,28 0,0 1,-9.83 4.86,16.44 16.44,0 0,1 -10,-0.12 6.72,6.72 0,0 1,-4.21 -3.54s-0.06,0 -0.1,-0.06v0C10.35,103.89 10.24,103.76 10.19,103.63ZM34.19,79.63a2.79,2.79 0,0 0,0.24 -1.42,1.4 1.4,0 0,0 -1.11,-1.3 2.7,2.7 0,0 0,-1.44 0,8.39 8.39,0 0,0 -2.38,1.08c-1.66,1.1 -3.3,2.23 -4.9,3.41A40.59,40.59 0,0 0,14.25 92.15a7.93,7.93 0,0 0,-1.25 3,3.55 3.55,0 0,0 0.11,1.8 1.38,1.38 0,0 0,1.66 0.91,2.7 2.7,0 0,0 0.9,-0.36A4.92,4.92 0,0 0,17.16 96a39.13,39.13 0,0 1,2.65 -3.72A43,43 0,0 1,27.51 85c1.62,-1.22 3.3,-2.36 5,-3.5A5.13,5.13 0,0 0,34.23 79.66Z" fill="#000000" fill-opacity="1"/>
    <path d="M34.23,79.66a5.13,5.13 0,0 1,-1.74 1.84c-1.68,1.14 -3.36,2.28 -5,3.5a43,43 0,0 0,-7.7 7.25A39.13,39.13 0,0 0,17.16 96a4.92,4.92 0,0 1,-1.49 1.49,2.7 2.7,0 0,1 -0.9,0.36 1.38,1.38 0,0 1,-1.66 -0.91,3.55 3.55,0 0,1 -0.11,-1.8 7.93,7.93 0,0 1,1.25 -3A40.59,40.59 0,0 1,24.64 81.47c1.6,-1.18 3.24,-2.31 4.9,-3.41A8.39,8.39 0,0 1,31.92 77a2.7,2.7 0,0 1,1.44 0,1.4 1.4,0 0,1 1.11,1.3A2.79,2.79 0,0 1,34.23 79.66ZM13.71,93.27a5.58,5.58 0,0 0,-0.63 2.42,1.73 1.73,0 0,0 0.77,1.68 1.75,1.75 0,0 0,1.89 -0.26A5,5 0,0 0,17.2 95.5a36,36 0,0 1,2.34 -3.27,39.87 39.87,0 0,1 5.85,-5.84c2.11,-1.75 4.37,-3.31 6.64,-4.84a6.54,6.54 0,0 0,1.07 -0.81,3 3,0 0,0 1,-2 1.43,1.43 0,0 0,-1.35 -1.63,3.16 3.16,0 0,0 -1.26,0.13 7.93,7.93 0,0 0,-2.18 1.08c-0.83,0.56 -1.65,1.11 -2.47,1.68a48.51,48.51 0,0 0,-10.12 8.9A31.19,31.19 0,0 0,13.71 93.27Z" fill="#000000" fill-opacity="1"/>
    <path d="M13.71,93.27a31.19,31.19 0,0 1,3.06 -4.37A48.51,48.51 0,0 1,26.89 80c0.82,-0.57 1.64,-1.12 2.47,-1.68a7.93,7.93 0,0 1,2.18 -1.08,3.16 3.16,0 0,1 1.26,-0.13 1.43,1.43 0,0 1,1.35 1.63,3 3,0 0,1 -1,2 6.54,6.54 0,0 1,-1.07 0.81c-2.27,1.53 -4.53,3.09 -6.64,4.84a39.87,39.87 0,0 0,-5.85 5.84A36,36 0,0 0,17.2 95.5a5,5 0,0 1,-1.46 1.61,1.75 1.75,0 0,1 -1.89,0.26 1.73,1.73 0,0 1,-0.77 -1.68A5.58,5.58 0,0 1,13.71 93.27ZM18.71,89.6c-0.1,0.18 -0.3,0.26 -0.46,0.38l-0.88,0.64c-0.14,0.1 -0.24,0.24 -0.1,0.41s0.25,0.06 0.37,0c0.58,-0.4 1.18,-0.79 1.75,-1.2 0.32,-0.23 0.3,-0.35 -0.06,-0.56 -0.11,-0.07 -0.28,-0.07 -0.33,-0.23a0.69,0.69 0,0 1,0.27 -0.24l0.88,-0.55c0.19,-0.12 0.56,-0.22 0.4,-0.49s-0.47,0 -0.67,0.11c-0.42,0.23 -0.82,0.51 -1.22,0.78 -0.71,0.48 -0.71,0.53 0,0.93C18.67,89.56 18.67,89.58 18.69,89.6ZM25.3,82.86c-0.05,0.21 -0.1,0.38 -0.13,0.56a0.6,0.6 0,0 0,0.58 0.75,1.44 1.44,0 0,0 0.71,-0.12c0.12,0 0.22,-0.13 0.17,-0.28s-0.16,-0.17 -0.29,-0.13 -0.45,0.18 -0.63,0 0,-0.42 0.06,-0.63a0.5,0.5 0,0 0,-0.29 -0.59,1.11 1.11,0 0,0 -1,0.15 0.21,0.21 0,0 0,-0.07 0.22,0.18 0.18,0 0,0 0.24,0.11C24.84,82.85 25,82.72 25.28,82.86ZM30.88,79.17c-0.15,0.11 -0.24,0.15 -0.32,0.22s-0.49,0.22 -0.31,0.48 0.36,0 0.51,-0.13 0.49,-0.35 0.76,0a0.23,0.23 0,0 0,0.33 0c0.13,-0.13 0.08,-0.25 -0.06,-0.35a0.28,0.28 0,0 1,-0.1 -0.21c0.08,-0.13 0.22,-0.18 0.32,-0.27s0.45,-0.19 0.26,-0.44 -0.36,0 -0.52,0.12 -0.43,0.39 -0.72,0.06a0.21,0.21 0,0 0,-0.32 0,0.23 0.23,0 0,0 0,0.33A2.3,2.3 0,0 0,30.86 79.17ZM24.31,83.37a0.84,0.84 0,0 0,-0.77 0c-0.14,0.07 -0.34,0.13 -0.29,0.32s0.24,0.14 0.39,0.09l0.12,0c0.34,-0.06 0.41,0 0.29,0.34a0.92,0.92 0,0 0,-0.05 0.59c0.14,0.43 0.65,0.58 1.17,0.35 0.15,-0.07 0.32,-0.16 0.24,-0.36s-0.24,-0.09 -0.37,-0.06a1,1 0,0 1,-0.24 0.05c-0.26,0 -0.39,-0.11 -0.34,-0.35s0.11,-0.27 0.13,-0.4A0.44,0.44 0,0 0,24.29 83.37ZM14.62,94.3c-0.11,-0.07 -0.22,-0.13 -0.34,0a0.23,0.23 0,0 0,0 0.36c0.25,0.26 0.51,0.51 0.77,0.76 0.09,0.09 0.2,0.15 0.31,0a0.24,0.24 0,0 0,0 -0.37C15.14,94.8 14.87,94.55 14.62,94.3Z" fill="#000000" fill-opacity="1"/>
    <path d="M18.69,89.6s0,0 0,0c-0.72,-0.4 -0.72,-0.45 0,-0.93 0.4,-0.27 0.8,-0.55 1.22,-0.78 0.2,-0.12 0.48,-0.45 0.67,-0.11s-0.21,0.37 -0.4,0.49l-0.88,0.55A0.69,0.69 0,0 0,19 89c0.05,0.16 0.22,0.16 0.33,0.23 0.36,0.21 0.38,0.33 0.06,0.56 -0.57,0.41 -1.17,0.8 -1.75,1.2 -0.12,0.09 -0.25,0.17 -0.37,0s0,-0.31 0.1,-0.41l0.88,-0.64C18.39,89.86 18.59,89.78 18.69,89.6Z" fill="#000000" fill-opacity="1"/>
    <path d="M25.28,82.86c-0.26,-0.14 -0.44,0 -0.63,0a0.18,0.18 0,0 1,-0.24 -0.11,0.21 0.21,0 0,1 0.07,-0.22 1.11,1.11 0,0 1,1 -0.15,0.5 0.5,0 0,1 0.29,0.59c0,0.21 -0.25,0.44 -0.06,0.63s0.42,0.06 0.63,0 0.25,0 0.29,0.13 -0.05,0.23 -0.17,0.28a1.44,1.44 0,0 1,-0.71 0.12,0.6 0.6,0 0,1 -0.58,-0.75C25.18,83.24 25.23,83.07 25.28,82.86Z" fill="#000000" fill-opacity="1"/>
    <path d="M30.86,79.17a2.3,2.3 0,0 1,-0.17 -0.2,0.23 0.23,0 0,1 0,-0.33 0.21,0.21 0,0 1,0.32 0c0.29,0.33 0.49,0.08 0.72,-0.06s0.36,-0.34 0.52,-0.12 -0.13,0.32 -0.26,0.44 -0.24,0.14 -0.32,0.27a0.28,0.28 0,0 0,0.1 0.21c0.14,0.1 0.19,0.22 0.06,0.35a0.23,0.23 0,0 1,-0.33 0c-0.27,-0.35 -0.49,-0.19 -0.76,0s-0.37,0.35 -0.51,0.13 0.16,-0.35 0.31,-0.48S30.71,79.28 30.86,79.17Z" fill="#000000" fill-opacity="1"/>
    <path d="M24.29,83.37a0.44,0.44 0,0 1,0.28 0.53c0,0.13 -0.11,0.26 -0.13,0.4s0.08,0.37 0.34,0.35A1,1 0,0 0,25 84.6c0.13,0 0.29,-0.12 0.37,0.06s-0.09,0.29 -0.24,0.36c-0.52,0.23 -1,0.08 -1.17,-0.35a0.92,0.92 0,0 1,0.05 -0.59c0.12,-0.33 0,-0.4 -0.29,-0.34l-0.12,0c-0.15,0 -0.34,0.15 -0.39,-0.09s0.15,-0.25 0.29,-0.32A0.84,0.84 0,0 1,24.29 83.37Z" fill="#000000" fill-opacity="1"/>
    <path d="M14.62,94.3c0.25,0.25 0.52,0.5 0.77,0.76a0.24,0.24 0,0 1,0 0.37c-0.11,0.12 -0.22,0.06 -0.31,0 -0.26,-0.25 -0.52,-0.5 -0.77,-0.76a0.23,0.23 0,0 1,0 -0.36C14.4,94.17 14.51,94.23 14.62,94.3Z" fill="#000000" fill-opacity="1"/>
    <path d="M-970.19,-1198.67H705.32V2293.9H-970.19z" fill="#000000" fill-opacity="0" stroke="#3299fe" stroke-opacity="1" stroke-width="19.72"/>
</svg>