<svg xmlns="http://www.w3.org/2000/svg" width="120.0" height="120.0" viewBox="0 0 120.0 120.0">
    <path d="M66.29,19.17c15.87,7.16 29.51,21.92 30,40.13a32.85,32.85 0,0 1,-0.69 7.6,25.75 25.75,0 0,1 -3.43,8.75A96,96 0,0 1,87 83.77c-1.38,1.76 -2.48,3.78 -3.92,5.49s-2.12,3.41 -3.28,5a35.85,35.85 0,0 1,-8.13 8.58c-7.65,5.51 -19.35,4.35 -26.11,-2.08a20.51,20.51 0,0 1,-5 -6.52,19.9 19.9,0 0,1 -1.67,-6.88c-0.41,-6.55 -1.8,-13 -2.45,-19.51 -0.58,-5.81 -0.83,-11.94 -3.82,-17.11 -4,-6.86 -10.36,-12.87 -8.66,-21.65A17,17 0,0 1,28.9 19.7,23.55 23.55,0 0,1 39.26,14c4.07,-1 9.3,0.09 13.37,0.86A61.7,61.7 0,0 1,66.29 19.17Z" fill="#e3e3e3" fill-opacity="1"/>
    <path d="M52.6,14.9a20.2,20.2 0,0 0,-5 -0.94,24.18 24.18,0 0,0 -8.4,0 23.59,23.59 0,0 0,-10.36 5.71A16.93,16.93 0,0 0,24 29.15,17.3 17.3,0 0,0 26,40.34c1,1.95 2.34,3.61 3.46,5.47s1.93,3.78 3.57,5.14a8.8,8.8 0,0 0,5.75 1.81,20.69 20.69,0 0,0 9.52,-2.62c6.67,-3.65 10.89,-11 11.37,-18.56C60,26.64 58.7,20 55,16.41A7.1,7.1 0,0 0,52.6 14.9Z" fill="#efefef" fill-opacity="1"/>
    <path d="M31.092,38.149a8.58,6.66 113.96,1 0,6.969 -15.681a8.58,6.66 113.96,1 0,-6.969 15.681z" fill="#7f7f7f" fill-opacity="1"/>
    <path d="M41.46,28.86A9.34,9.34 0,0 1,40.24 34a10.29,10.29 0,0 1,-1.65 2.2,9.46 9.46,0 0,1 -2.27,1.62 7.38,7.38 0,0 1,-2.74 0.73A5.73,5.73 0,0 1,30.79 38a5.65,5.65 0,0 1,-3 -4.36,6.34 6.34,0 0,0 3.41,3.47 5.76,5.76 0,0 0,4.59 -0.37,9.77 9.77,0 0,0 3.64,-3.22A13.14,13.14 0,0 0,41.46 28.86Z" fill="#636262" fill-opacity="1"/>
    <path d="M35.82,57.77c1.41,-3.75 6.69,-2.52 9.15,-0.54 4.24,3.41 4.7,8.67 5.16,13.73A60.66,60.66 0,0 1,50 84.09c-0.51,4 -2.52,8.1 -2.22,12.09 0.27,3.67 2.74,5.58 4.67,8.33 -0.18,-0.25 -1.87,-0.38 -2.28,-0.59a18.39,18.39 0,0 1,-2.6 -1.55,21.53 21.53,0 0,1 -4.29,-4 20.47,20.47 0,0 1,-4.6 -11.53c-0.65,-8.61 -1.89,-17.14 -3,-25.69a7.87,7.87 0,0 1,0 -2.78A4.91,4.91 0,0 1,35.82 57.77Z" fill="#ededed" fill-opacity="1"/>
    <path d="M42.792,86.825a2.76,2.39 94.49,1 0,0.432 -5.503a2.76,2.39 94.49,1 0,-0.432 5.503z" fill="#e3e3e3" fill-opacity="1"/>
    <path d="M39.441,69.867a2.76,2.39 76.41,1 0,4.646 -1.123a2.76,2.39 76.41,1 0,-4.646 1.123z" fill="#e3e3e3" fill-opacity="1"/>
    <path d="M40.75,71.7a2.69,2.69 0,0 1,-1.34 -1.54,3.06 3.06,0 0,1 0,-2.13A2.44,2.44 0,0 1,41 66.56,2.08 2.08,0 0,1 43,67a2.34,2.34 0,0 0,-1.82 0A2.18,2.18 0,0 0,40 68.26,3.34 3.34,0 0,0 40.75,71.7Z" fill="#cecece" fill-opacity="1"/>
    <path d="M42.07,86.5A2.66,2.66 0,0 1,40.73 85a3.06,3.06 0,0 1,0 -2.13,2.48 2.48,0 0,1 1.57,-1.48 2.11,2.11 0,0 1,2 0.48,2.42 2.42,0 0,0 -1.83,0 2.24,2.24 0,0 0,-1.15 1.25A3.34,3.34 0,0 0,42.07 86.5Z" fill="#cecece" fill-opacity="1"/>
    <path d="M68,77.77c2.91,-3.83 6,-7.64 10.1,-10.43a18.6,18.6 0,0 1,6.8 -2.92,8.42 8.42,0 0,1 3.86,0.15 4.89,4.89 0,0 1,1.8 1,4.49 4.49,0 0,1 1.2,1.68 7.41,7.41 0,0 1,0.4 3.88,16.93 16.93,0 0,1 -1,3.62A58.33,58.33 0,0 1,88 81.27c-1.12,2.16 -2.34,4.25 -3.63,6.3s-2.65,4 -4,6c1.15,-2.12 2.38,-4.2 3.52,-6.32s2.29,-4.23 3.29,-6.41 2.18,-4.3 3,-6.53A16.36,16.36 0,0 0,90.93 71a6.25,6.25 0,0 0,-0.34 -3.23,3.28 3.28,0 0,0 -2.21,-2 7.36,7.36 0,0 0,-3.31 -0.16,19.1 19.1,0 0,0 -6.48,2.56A33.85,33.85 0,0 0,73 72.59C71.25,74.22 69.64,76 68,77.77Z" fill="#cecece" fill-opacity="1"/>
    <path d="M84.24,65.1A7.53,7.53 0,0 1,89 64.65a4.56,4.56 0,0 1,2.27 1.44A5.88,5.88 0,0 1,92 67.25a8.7,8.7 0,0 1,0.42 1.28,10.78 10.78,0 0,1 -0.3,5A29.58,29.58 0,0 1,90.38 78c-0.71,1.41 -1.44,2.75 -2.14,4.1s-1.52,2.73 -2.39,4a62.12,62.12 0,0 1,-5.62 7.4c1.18,-2.88 2.58,-5.63 3.93,-8.36l4,-8.23a31.84,31.84 0,0 0,1.73 -4.07,10.31 10.31,0 0,0 0.63,-4 3.51,3.51 0,0 0,-1.92 -3.06A8.68,8.68 0,0 0,84.24 65.1Z" fill="#bfbfbf" fill-opacity="1"/>
    <path d="M-843.99,-703.41H690.76V2801.6H-843.99z" fill="#000000" fill-opacity="0" stroke="#32dd14" stroke-opacity="1" stroke-width="23.55"/>
</svg>