<svg xmlns="http://www.w3.org/2000/svg" width="120.0" height="120.0" viewBox="0 0 120.0 120.0">
    <g>
        <clipPath id="clip_1">
            <path d="M73.65,63.29h0Z M 0,0"/>
        </clipPath>
        <path d="M61.29 50.93H86.1V75.63H61.29z" clip-path="url(#clip_1)" fill="#656564" fill-opacity="1"/>
    </g>
    <g>
        <clipPath id="clip_1">
            <path d="M81.57,66.36c0.37,0.44 -0.56,1.51 -1,2a16.27,16.27 0,0 1,-5.93 3.94c-0.6,0.26 -2.85,1 -3.29,0.7 3.22,-0.29 9.28,-4.2 10.24,-6.63 M 0,0"/>
        </clipPath>
        <path d="M58.98 54.01H94.00999999999999V85.43H58.98z" clip-path="url(#clip_1)" fill="#3c3c3c" fill-opacity="1"/>
    </g>
    <g>
        <clipPath id="clip_1">
            <path d="M65.65,16.56a103.49,103.49 0,0 1,13.52 0.66c6.07,0.81 17.3,2.78 20.91,5.4s-2,4.67 -3.53,5.25 -8.07,3.09 -10.36,6 -5,8.46 -3.08,13.88c0.54,1.57 1.47,3.44 4.83,3.11s12,-3.29 13.34,-4.19c-3,0.57 -5.38,0.42 -6.78,-1.05s-1.29,-4.42 -0.54,-6.46 4.2,-4.92 6.74,-6a39.25,39.25 0,0 0,6.15 -2.88c1.32,-0.9 2.47,-2.06 1.9,-3.27 -0.79,-1.67 -5.35,-4.11 -8.81,-5.54 -3.85,-1.58 -22.77,-7.2 -34.29,-4.88 M 0,0"/>
        </clipPath>
        <path d="M53.3 3.65H121.25V63.21H53.3z" clip-path="url(#clip_1)" fill="#b7b7b7" fill-opacity="1"/>
    </g>
    <g>
        <clipPath id="clip_1">
            <path d="M73.54,63.34h0Z M 0,0"/>
        </clipPath>
        <path d="M61.19 50.99H86V75.69H61.19z" clip-path="url(#clip_1)" fill="#656564" fill-opacity="1"/>
    </g>
    <g>
        <clipPath id="clip_1">
            <path d="M88.37,63.61c0.63,0.47 -0.06,2.24 -0.49,3.4a13.25,13.25 0,0 1,-3.77 4.52c-0.25,0.2 -1.83,1.53 -2,1.41a3.44,3.44 0,0 1,-1 0.59l0,0c-0.28,0.21 -1.8,1 -1.94,0.87 -0.41,0.33 -3.91,1.63 -4.37,1.45 -1,0.33 -4.81,1.11 -5.72,0.54a21.48,21.48 0,0 0,6 -1.35c6.25,-2.21 11.05,-5.41 13.27,-11.48 M 0,0"/>
        </clipPath>
        <path d="M56.71 51.26H100.97V89H56.71z" clip-path="url(#clip_1)" fill="#3c3c3c" fill-opacity="1"/>
    </g>
    <g>
        <clipPath id="clip_1">
            <path d="M73.32,63.45h0Z M 0,0"/>
        </clipPath>
        <path d="M60.97 51.1H85.78V75.8H60.97z" clip-path="url(#clip_1)" fill="#656564" fill-opacity="1"/>
    </g>
    <g>
        <clipPath id="clip_1">
            <path d="M34,46.92a1.56,1.56 0,0 1,-0.81 -0.21,1.52 1.52,0 0,1 -0.59,-1.38c0,-0.49 0,-0.65 -0.25,-0.73 -0.56,-0.24 -1.45,0.25 -1.75,0.46a0.42,0.42 0,0 1,-0.48 -0.68,3 3,0 0,1 2.55,-0.54 1.44,1.44 0,0 1,0.76 1.46c0,0.42 0,0.61 0.2,0.71 0.42,0.26 1.39,-0.13 1.79,-0.36a0.41,0.41 0,1 1,0.41 0.71,4.07 4.07,0 0,1 -1.83,0.56 M 0,0"/>
        </clipPath>
        <path d="M17.61 31.36H48.41V59.28H17.61z" clip-path="url(#clip_1)" fill="#161616" fill-opacity="1"/>
    </g>
    <g>
        <clipPath id="clip_1">
            <path d="M73.75,63.23h0Z M 0,0"/>
        </clipPath>
        <path d="M61.4 50.88H86.21V75.58H61.4z" clip-path="url(#clip_1)" fill="#656564" fill-opacity="1"/>
    </g>
    <g>
        <clipPath id="clip_1">
            <path d="M83.41,27.35H109V50.63H83.41z M 0,0"/>
        </clipPath>
        <g clip-path="url(#clip_1)">
            <clipPath id="clip_2">
                <path d="M83.47,38.81s1.47,1.55,-0.06,5.41c0,3.83,3.59,6.37,3.59,6.37s0.72 0.28,4,-0.58,9.14,-2.07,13,-5c2.15,-1.86,2.52,-2.53,2.86,-3.65s1.5,-5.89,1.72,-7.37 0.41,-5.14 0.44,-5.55a4.76,4.76,0,0,0,-0.13,-1s0.47,2.66,-11.55,6.94,-13.85,4.52,-13.85,4.52 M 0,0"/>
            </clipPath>
            <path d="M71.06 15H121.36V62.99H71.06z" clip-path="url(#clip_2)" fill="#898989" fill-opacity="1"/>
        </g>
    </g>
    <g>
        <clipPath id="clip_1">
            <path d="M84.86,63.18c0.21,0.16 -0.08,1.33 -0.27,1.78 -0.46,1.12 -1.74,3.12 -2.75,3.56a17.66,17.66 0,0 0,2 -2.59c0,-0.08 0.13,-0.34 0.21,-0.22 0.38,-0.86 0.61,-2 0.81,-2.53 M 0,0"/>
        </clipPath>
        <path d="M69.49 50.83H97.28999999999999V80.87H69.49z" clip-path="url(#clip_1)" fill="#3c3c3c" fill-opacity="1"/>
    </g>
    <g>
        <clipPath id="clip_1">
            <path d="M49.06,91.73c8,1.49 25.17,-2.76 39.78,-15.38 10.54,-9.11 8.68,-15.56 6.82,-18.44A4.89,4.89 0,0 0,94 57.18,8.32 8.32,0 0,0 91.1,57c-0.93,0.12 -1.87,0.18 -2.8,0.35a28.28,28.28 0,0 0,-6.21 2c-4.9,2.13 -9.59,4.65 -14.27,7.22 -4.91,2.69 -9.8,5.41 -14.73,8.06a65.77,65.77 0,0 1,-10.43 4.56l-1.47,0.46c-0.71,3.54 -0.14,10.64 7.87,12.12 M 0,0"/>
        </clipPath>
        <path d="M28.62 44.57H109.46000000000001V104.37H28.62z" clip-path="url(#clip_1)" fill="#474747" fill-opacity="1"/>
    </g>
    <g>
        <clipPath id="clip_1">
            <path d="M19,55.94a1.9,1.9 0,0 1,0.79 -0.43,1 1,0 0,1 0.92,0.19 1,1 0,0 1,0.24 1A1.74,1.74 0,0 1,19.51 58a1.06,1.06 0,0 1,-1 -0.35,1 1,0 0,1 -0.09,-0.94 2,2 0,0 1,0.52 -0.74m0,0a1.58,1.58 0,0 0,-0.46 0.76,0.81 0.81,0 0,0 0.2,0.76c0.41,0.33 1,0.07 1.39,-0.26s0.69,-0.9 0.41,-1.35a0.81,0.81 0,0 0,-0.74 -0.28,1.55 1.55,0 0,0 -0.8,0.37 M 0,0"/>
        </clipPath>
        <path d="M6.04 43.12H33.33V70.33H6.04z" clip-path="url(#clip_1)" fill="#161616" fill-opacity="1"/>
    </g>
    <g>
        <clipPath id="clip_1">
            <path d="M26.39,60A1.19,1.19 0,0 1,28 59.86a1.39,1.39 0,1 1,-1.63 0.16 M 0,0"/>
        </clipPath>
        <path d="M13.51 47.25H40.56V74.22H13.51z" clip-path="url(#clip_1)" fill="#c9c9c9" fill-opacity="1"/>
    </g>
    <g>
        <clipPath id="clip_1">
            <path d="M19,55.94a1.19,1.19 0,0 1,1.63 -0.16,1.19 1.19,0 0,1 -0.35,1.59 1.19,1.19 0,0 1,-1.63 0.17,1.19 1.19,0 0,1 0.35,-1.6 M 0,0"/>
        </clipPath>
        <path d="M6.1 43.17H33.15V70.14H6.1z" clip-path="url(#clip_1)" fill="#c9c9c9" fill-opacity="1"/>
    </g>
    <g>
        <clipPath id="clip_1">
            <path d="M73.11,63.55h0Z M 0,0"/>
        </clipPath>
        <path d="M60.76 51.2H85.57V75.9H60.76z" clip-path="url(#clip_1)" fill="#656564" fill-opacity="1"/>
    </g>
    <g>
        <clipPath id="clip_1">
            <path d="M85.13,64.58h0.16c-0.66,3.38 -2.9,5.93 -6.63,7.82 -0.39,0.2 -2.57,1.44 -2.91,1.29 -1,0.43 -4.83,1.52 -5.5,1 4.43,-0.22 10.51,-3.9 12.62,-6.53 0.79,-1 2.06,-2.09 2.26,-3.61 M 0,0"/>
        </clipPath>
        <path d="M57.9 52.23H97.65V87.19999999999999H57.9z" clip-path="url(#clip_1)" fill="#3c3c3c" fill-opacity="1"/>
    </g>
    <g>
        <clipPath id="clip_1">
            <path d="M73,63.61h0Z M 0,0"/>
        </clipPath>
        <path d="M60.65 51.26H85.46V75.96H60.65z" clip-path="url(#clip_1)" fill="#656564" fill-opacity="1"/>
    </g>
    <g>
        <clipPath id="clip_1">
            <path d="M78.28,67.38c0.25,0.93 -4.6,4.3 -5.93,3.88a11.39,11.39 0,0 0,5.93 -3.88 M 0,0"/>
        </clipPath>
        <path d="M60 55.03H90.64V83.65H60z" clip-path="url(#clip_1)" fill="#3c3c3c" fill-opacity="1"/>
    </g>
    <g>
        <clipPath id="clip_1">
            <path d="M75.21,68c0.12,0.77 -2.58,2 -3,1.78a5.68,5.68 0,0 0,3 -1.78 M 0,0"/>
        </clipPath>
        <path d="M59.84 55.62H87.57000000000001V82.12H59.84z" clip-path="url(#clip_1)" fill="#3b3b3b" fill-opacity="1"/>
    </g>
    <g>
        <clipPath id="clip_1">
            <path d="M36,44.53a1.5,1.5 0,0 1,-0.81 -0.2,1.55 1.55,0 0,1 -0.59,-1.39c0,-0.49 -0.05,-0.64 -0.25,-0.73 -0.57,-0.24 -1.48,0.26 -1.75,0.46a0.41,0.41 0,0 1,-0.57 -0.1,0.42 0.42,0 0,1 0.09,-0.58 3,3 0,0 1,2.55 -0.54,1.44 1.44,0 0,1 0.76,1.46c0,0.42 0,0.61 0.2,0.72 0.42,0.25 1.39,-0.14 1.79,-0.37a0.41,0.41 0,1 1,0.41 0.72,4.24 4.24,0 0,1 -1.83,0.55 M 0,0"/>
        </clipPath>
        <path d="M19.6 28.97H50.400000000000006V56.89H19.6z" clip-path="url(#clip_1)" fill="#161616" fill-opacity="1"/>
    </g>
    <g>
        <clipPath id="clip_1">
            <path d="M73.22,63.5h0Z M 0,0"/>
        </clipPath>
        <path d="M60.86 51.15H85.67V75.85H60.86z" clip-path="url(#clip_1)" fill="#656564" fill-opacity="1"/>
    </g>
    <g>
        <clipPath id="clip_1">
            <path d="M78.39,64.26c0.26,0.08 0.27,0.17 0.43,0.32A4,4 0,0 1,77 68.19l0.81,-1L76,68.68c1.32,-1.71 2.09,-2.15 2.37,-4.42 M 0,0"/>
        </clipPath>
        <path d="M63.67 51.9H91.19V81.02H63.67z" clip-path="url(#clip_1)" fill="#3c3c3c" fill-opacity="1"/>
    </g>
    <g>
        <clipPath id="clip_1">
            <path d="M50.16,33.07a2.13,2.13 0,0 1,-0.72 -0.11,1.19 1.19,0 0,1 -0.81,-1.32c0,-0.4 0,-0.45 -0.27,-0.52a2.74,2.74 0,0 0,-1.83 0.48,0.41 0.41,0 0,1 -0.46,-0.68 3.54,3.54 0,0 1,2.49 -0.6,1.16 1.16,0 0,1 0.9,1.32c0,0.39 0,0.46 0.25,0.54a3.93,3.93 0,0 0,2.09 -0.28,0.43 0.43,0 0,1 0.54,0.24 0.41,0.41 0,0 1,-0.24 0.53,5.87 5.87,0 0,1 -1.94,0.4 M 0,0"/>
        </clipPath>
        <path d="M33.54 17.9H64.72V45.42H33.54z" clip-path="url(#clip_1)" fill="#161616" fill-opacity="1"/>
    </g>
    <g>
        <clipPath id="clip_1">
            <path d="M81.57,63c1.07,0.93 -0.49,3.77 -1.13,4.26 0.11,-0.18 0.22,-0.36 0.32,-0.54L79.2,68.25a1.09,1.09 0,0 0,0 -0.17c1.68,-0.92 2.3,-3.66 2.32,-5.12 M 0,0"/>
        </clipPath>
        <path d="M66.85 50.61H94.28999999999999V80.6H66.85z" clip-path="url(#clip_1)" fill="#3c3c3c" fill-opacity="1"/>
    </g>
    <g>
        <clipPath id="clip_1">
            <path d="M73.43,63.39h0Z M 0,0"/>
        </clipPath>
        <path d="M61.08 51.04H85.89V75.74H61.08z" clip-path="url(#clip_1)" fill="#656564" fill-opacity="1"/>
    </g>
    <g>
        <clipPath id="clip_1">
            <path d="M26.39,60a2,2 0,0 1,0.79 -0.43,1 1,0 0,1 0.92,0.19 1,1 0,0 1,0.25 1,1.77 1.77,0 0,1 -1.44,1.29A1,1 0,0 1,26 61.7a1,1 0,0 1,-0.08 -0.94,1.93 1.93,0 0,1 0.51,-0.74m0,0a1.56,1.56 0,0 0,-0.45 0.76,0.77 0.77,0 0,0 0.19,0.76c0.42,0.34 1,0.08 1.39,-0.26s0.7,-0.9 0.41,-1.35a0.79,0.79 0,0 0,-0.74 -0.28,1.64 1.64,0 0,0 -0.8,0.37 M 0,0"/>
        </clipPath>
        <path d="M13.44 47.2H40.73V74.41H13.44z" clip-path="url(#clip_1)" fill="#161616" fill-opacity="1"/>
    </g>
    <g>
        <clipPath id="clip_1">
            <path d="M11,16.44H108.96V103.99H11z M 0,0"/>
        </clipPath>
        <g clip-path="url(#clip_1)">
            <clipPath id="clip_2">
                <path d="M8.53 16.01H109.81V104.94000000000001H8.53z M 0,0"/>
            </clipPath>
            <g clip-path="url(#clip_2)">
                <clipPath id="clip_3">
                    <path d="M94,19.72a89.85,89.85,0,0,0,-14.34,-2.94c-1.44,-0.16,-2.89,-0.3,-4.34,-0.33,-1.91,0,-3.82,0,-5.73 0.1,-1.16,0,-2.31 0.13,-3.47 0.23s-2.58 0.23,-3.85 0.42c-1.8 0.27,-3.6 0.56,-5.37 0.95a38.11,38.11,0,0,0,-11.17,4.42A53.45,53.45,0,0,0,35.61,30.5,92.87,92.87,0,0,0,28.8,38c-2.79,3.42,-5.59,6.83,-8.14,10.43a63.11,63.11,0,0,0,-6.3,11A37.59,37.59,0,0,0,11,72.3a24.19,24.19,0,0,0,0.35,5.7,29.33,29.33,0,0,0,2.54,7.8,31.48,31.48,0,0,0,6.84,9.06,33.39,33.39,0,0,0,13.14,7.56,31.68,31.68,0,0,0,5.75,1.23c1.4 0.15,2.79 0.29,4.19 0.34,1.24,0,2.48,0,3.71,-0.11s2.29,-0.19,3.43,-0.36a44.16,44.16,0,0,0,7.14,-1.71A67.4,67.4,0,0,0,71,95.91,88.53,88.53,0,0,0,86.71,84.39a60.09,60.09,0,0,0,8.68,-9.76,20.41,20.41,0,0,0,3.48,-7.48,11.21,11.21,0,0,0,0.18,-3.83,8.05,8.05,0,0,0,-1.82,-4,6.73,6.73,0,0,0,-1.57,-1.45c1.86,2.88,3.72,9.33,-6.82,18.44C74.23,89,57.07,93.22,49.06,91.73s-8.58,-8.58,-7.87,-12.12c0,-0.16,0,-0.26,0,-0.37a21.47,21.47,0,0,1,1.49,-5.08A31.89,31.89,0,0,1,47.82,66a25.57,25.57,0,0,1,7,-5.9A64.34,64.34,0,0,1,67.3,54.72a74,74,0,0,1,8.17,-2.07c1.66,-0.3,3.32,-0.54,5,-0.8s3.37,-0.5,5,-0.81c2.16,-0.41,4.32,-0.83,6.45,-1.34a46.91,46.91,0,0,0,9.51,-3.61,13.58,13.58,0,0,0,3,-1.87,6.49,6.49,0,0,0,2.25,-3.11c0.48,-1.72,1,-3.45,1.33,-5.19 0.28,-1.26 0.43,-2.55 0.61,-3.83 0.1,-0.64 0.35,-3.54 0.35,-4.19,0,-3.24,-10.85,-7,-14.93,-8.18 M 0,0"/>
                </clipPath>
                <g clip-path="url(#clip_3)">
                    <clipPath id="clip_4">
                        <path d="M11 16.01H109.81V104.94000000000001H11z M 0,0"/>
                    </clipPath>
                    <path d="M-1.35 4.09H121.31V116.35000000000001H-1.35z" clip-path="url(#clip_4)" fill="#545454" fill-opacity="1"/>
                </g>
            </g>
        </g>
    </g>
    <g>
        <clipPath id="clip_1">
            <path d="M93.22,61.94c-1,-2.32 -2.58,-3.31 -6.26,-3.24L84.54,59a34.16,34.16 0,0 0,-4.75 1.45c-6.59,2.64 -12.63,6.45 -18.71,9.65 -4.55,2.4 -8.27,4.72 -12.72,6.69a51.29,51.29 0,0 1,-7.17 2.79c-0.06,0.19 18.25,-1.44 18.86,-1.28a2.33,2.33 0,0 1,1 -0.76l0,-0.21 2,0.32c-1.78,-0.77 -4.17,-0.46 -4.69,-2.43l0.75,0.87c1.27,0.95 2.71,1 4.69,1.4a4.71,4.71 0,0 0,2 0c-1.55,0.17 -3,-0.59 -4.05,-0.75 0,-0.15 -0.11,-0.29 -0.16,-0.43 0.2,-0.26 0.42,-0.29 0.49,-0.7a17.23,17.23 0,0 0,2.69 0.48c-1.37,-0.57 -2.71,-0.3 -3.5,-1.4 1.53,1 3.67,1.15 5.87,1.29l0.06,-0.1a10.74,10.74 0,0 1,-3.62 -0.71c0.12,-0.46 0.24,-0.34 0.54,-0.75 0,-0.1 0.06,0 0,-0.11v-0.16c0.48,0 1,0.12 1.46,0.19a13.23,13.23 0,0 1,-1.78 -0.62l-0.11,-0.16a10.47,10.47 0,0 0,5.12 0.75l-1.4,0c-0.65,-0.13 -1.24,-0.29 -1.78,-0.43 -0.07,-0.17 -0.08,-0.14 0,-0.33s0.5,-0.44 0.65,-0.59c0,-0.09 -0.08,-0.18 -0.11,-0.27a15.44,15.44 0,0 0,3.18 0.32c-1.31,-0.5 -2.55,0.25 -3.4,-0.8 1.24,0.85 3.27,0.46 4.86,0.37 -0.91,-0.3 -2.81,0.56 -3.24,-0.48l-0.11,0.05c0.32,-0.33 0.81,-0.41 0.76,-1a9.77,9.77 0,0 0,2.53 0.16c-0.49,-0.19 -1.81,-0.13 -2.37,-0.27l-0.22,-0.27c1,0.55 2,0.31 3.29,0.16 -0.55,-0.17 -1.41,0.26 -1.83,-0.21 -0.15,-0.31 0.61,-0.61 0.7,-1.19 2.22,0.14 5.71,-1.48 5.45,-3.55 -0.69,0.53 -1.37,1.07 -2,1.61l-1.78,1 -1.51,0.43 -0.11,0c0.25,-1.36 3.13,-3 4.58,-3.23 0.66,-0.13 1.11,0.26 1.46,0.32 0.73,0.13 1.36,-0.74 1.24,-1 -0.42,-0.8 -2.57,0 -3.18,0.27 -2.17,0.92 -5.38,3 -6.31,5.07l-0.11,0.05c-0.22,-2.4 5.13,-5.24 7.06,-6 0.89,-0.37 3.33,-1.16 3.94,0 0.21,0 0.87,0.08 1.29,0.11 0.15,-0.56 0.39,-0.72 0.33,-1.35 -4.07,-1.29 -9.49,3 -12.56,5.34 -0.8,0.61 -2.23,1.9 -2.38,3.07 -0.55,-1.38 2,-3.34 2.75,-3.88A34.78,34.78 0,0 1,76.61 63c1,-0.41 2.73,-1.2 4.26,-0.76 0.67,0.19 0.83,0.72 1.29,1.08 0,-0.11 -0.07,-0.22 -0.1,-0.32h0.21s0.85,0.18 1.08,0.53c1.33,-1 0.18,-3 -2.26,-2.47 -5.59,1.24 -10.24,4.26 -14.29,7.27 -1,0.76 -3.46,2.74 -3.5,4.1l-0.06,0.16c-0.5,-1.29 2.11,-3.39 2.8,-3.93a46.43,46.43 0,0 1,12.57 -7.12c1.85,-0.67 6.24,-1.75 6.52,1.08a1.12,1.12 0,0 0,-0.16 -0.86l0.32,0.21 0.27,-0.27a1.85,1.85 0,0 1,1.13 1.35l0.27,0a4.5,4.5 0,0 0,0.11 -2.85,2.53 2.53,0 0,1 1.08,2.31c0.24,-0.33 0,-1.23 -0.16,-1.56 0.11,0 0,0 0.11,-0.05 0.22,0.24 0.12,0.46 0.53,0.54 -0.12,-0.19 0.28,-0.27 0.17,-0.6 1.31,0.22 1.77,2.26 1.29,3.78l0.16,0.16a1.59,1.59 0,0 1,0.65 -1l-0.06,0.11c0.21,0.1 0.06,0.43 0,0.76 0.72,-1 0.44,-2.92 0.17,-4.1l0.32,0.16c0,-0.14 0,0 0,-0.16A11.79,11.79 0,0 0,93 62.21c0.32,-0.15 0,-0.24 0.22,-0.27 M 0,0"/>
        </clipPath>
        <path d="M28.84 46.35H105.57000000000001V91.98H28.84z" clip-path="url(#clip_1)" fill="#aaaaaa" fill-opacity="1"/>
    </g>
</svg>