<svg xmlns="http://www.w3.org/2000/svg" width="120.0" height="120.0" viewBox="0 0 120.0 120.0">
    <path d="M57.6,43c-8.87,2.88 -16.06,0.19 -18.36,-1.94 -2.5,-2.31 -2.12,-4.45 0.09,-8.14a19.16,19.16 0,0 1,2.29 -2.81c-0.27,0.19 -0.55,0.37 -0.81,0.56 -5.75,4.86 -12.7,11.63 -16,17 -4.78,7.73 -0.57,14 6.14,10.69 2.47,-1.21 9.86,-5.2 18.79,-10l1.79,-1 0.44,-0.23 1.85,-1 0.09,0 1.78,-0.94 0.48,-0.26L60,43l0.52,-0.27 1.91,-1h0l1.92,-1 0.45,-0.23 1.94,-1c-3.4,1.47 -6.63,2.75 -9.12,3.56" fill="#e3e3e3" fill-opacity="1" fill-rule="evenodd"/>
    <path d="M98,23.78c-5,0.45 -20.12,7.92 -28.08,12s-14.52,5.72 -19.63,5.92S40.92,40 39.33,37.91s0,-5 0,-5c-2.21,3.69 -2.6,5.83 -0.09,8.14 2.3,2.13 9.49,4.82 18.36,1.94 2.49,-0.81 5.72,-2.09 9.12,-3.56h0c2.72,-1.41 5.41,-2.79 8,-4.08h0a190.21,190.21 0,0 1,17.71 -8.18c11.28,-4 16,-2.56 16.47,2.11H109c0,-0.2 0,-0.61 0,-1.14a5.85,5.85 0,0 0,-0.89 -2.32c-2,-2.47 -5.12,-2.51 -10.12,-2" fill="#000000" fill-opacity="1"/>
    <path d="M81.3,14.9a28.52,28.52 0,0 1,7.23 0.78c3.49,0.95 5.53,2.42 5.59,4.05S92,23.4 88.63,24.62C83.29,26.55 74,31.16 67.14,34.87A40.13,40.13 0,0 1,52 39.7a11.51,11.51 0,0 1,-1.23 0.06c-3.88,0 -9.61,-1.48 -9.82,-4.16 -0.24,-3.08 2,-5 7.95,-9.2a93.64,93.64 0,0 1,18.25 -9.48,48.11 48.11,0 0,1 14.18,-2m0,-0.57a48.86,48.86 0,0 0,-14.38 2.06,95 95,0 0,0 -18.38,9.55c-5.76,4.09 -8.45,6.18 -8.18,9.7 0.24,3.16 6.32,4.68 10.38,4.68q0.69,0 1.29,-0.06a40.44,40.44 0,0 0,15.38 -4.89c6.07,-3.29 15.7,-8.16 21.41,-10.21 6.94,-2.51 8.72,-7.62 -0.15,-10a28.94,28.94 0,0 0,-7.37 -0.81" fill="#000000" fill-opacity="1"/>
    <path d="M46,92.14c3.72,1.9 13.35,1.29 28.73,-8.94S96.52,68.24 91,64.47c-4.14,-1.37 -9.93,-0.36 -13.21,0.58C72.23,66.64 45.62,80.74 42,81.19c-1.6,3.53 0.3,9.06 4,11" fill="#cecece" fill-opacity="1" fill-rule="evenodd"/>
    <path d="M53.44,34.51l-0.21,-0.06 -3.12,-1.22c-0.3,-0.12 -0.42,-0.34 -0.27,-0.51a0.8,0.8 0,0 1,0.81 -0.08l3.11,1.22c0.3,0.12 0.42,0.35 0.27,0.51a0.72,0.72 0,0 1,-0.59 0.14" fill="#000000" fill-opacity="1"/>
    <path d="M84.77,17.22l-0.53,-0.15 0.53,-0.15c0.27,-0.08 0.4,-0.26 0.28,-0.39a0.77,0.77 0,0 0,-0.72 -0.11l-1.15,0.32 -1.07,-0.32a0.65,0.65 0,0 0,-0.66 0.11c-0.12,0.15 0,0.32 0.25,0.4l0.39,0.12 -0.65,0.18c-0.27,0.08 -0.4,0.25 -0.27,0.39a0.65,0.65 0,0 0,0.51 0.15l0.2,0 1.28,-0.36 1.2,0.36 0.18,0a0.58,0.58 0,0 0,0.48 -0.15c0.12,-0.14 0,-0.32 -0.25,-0.4" fill="#000000" fill-opacity="1"/>
    <g>
        <clipPath id="clip_1">
            <path d="M60,43l-3.79,2L60,43 M 0,0"/>
        </clipPath>
        <path d="M43.83 30.64H72.33V57.34H43.83z" clip-path="url(#clip_1)" fill="#c6b6c6" fill-opacity="1"/>
    </g>
    <g>
        <clipPath id="clip_1">
            <path d="M57.6,43c-8.87,2.88 -16.06,0.19 -18.36,-1.94 -2.5,-2.31 -2.12,-4.45 0.09,-8.14a19.16,19.16 0,0 1,2.29 -2.81c-0.27,0.19 -0.55,0.37 -0.81,0.56 -5.75,4.86 -12.7,11.63 -16,17 -4.78,7.73 -0.57,14 6.14,10.69 2.47,-1.21 9.86,-5.2 18.79,-10l1.79,-1 0.44,-0.23 1.85,-1 0.09,0 1.78,-0.94 0.48,-0.26L60,43l0.52,-0.27 1.91,-1h0l1.92,-1 0.45,-0.23 1.94,-1c-3.4,1.47 -6.63,2.75 -9.12,3.56 M 0,0"/>
        </clipPath>
        <path d="M10.42 17.79H79.07000000000001V71.6H10.42z" clip-path="url(#clip_1)" fill="#e3e3e3" fill-opacity="1"/>
    </g>
    <g>
        <clipPath id="clip_1">
            <path d="M52,47.21l-0.44,0.23 0.44,-0.23 M 0,0"/>
        </clipPath>
        <path d="M39.18 34.86H64.33V59.8H39.18z" clip-path="url(#clip_1)" fill="#c6b6c6" fill-opacity="1"/>
    </g>
    <g>
        <clipPath id="clip_1">
            <path d="M19.81,78.09h-0.06c-0.45,0 -0.83,0.62 -0.83,1.38s0.38,1.39 0.83,1.39 0.83,-0.62 0.83,-1.39 -0.34,-1.32 -0.77,-1.37 M 0,0"/>
        </clipPath>
        <path d="M6.57 65.73H32.94V93.21000000000001H6.57z" clip-path="url(#clip_1)" fill="#ffffff" fill-opacity="1"/>
    </g>
    <g>
        <clipPath id="clip_1">
            <path d="M53.92,46.18l-0.09,0 0.09,0 M 0,0"/>
        </clipPath>
        <path d="M41.48 33.83H66.27V58.58H41.48z" clip-path="url(#clip_1)" fill="#c6b6c6" fill-opacity="1"/>
    </g>
    <g>
        <clipPath id="clip_1">
            <path d="M49.75,48.39l1.79,-1 -1.79,1 M 0,0"/>
        </clipPath>
        <path d="M37.4 35.09H63.89V60.75H37.4z" clip-path="url(#clip_1)" fill="#c6b6c6" fill-opacity="1"/>
    </g>
    <g>
        <clipPath id="clip_1">
            <path d="M53.44,34.51l-0.21,-0.06 -3.12,-1.22c-0.3,-0.12 -0.42,-0.34 -0.27,-0.51a0.8,0.8 0,0 1,0.81 -0.08l3.11,1.22c0.3,0.12 0.42,0.35 0.27,0.51a0.72,0.72 0,0 1,-0.59 0.14 M 0,0"/>
        </clipPath>
        <path d="M37.42 20.22H66.44V46.87H37.42z" clip-path="url(#clip_1)" fill="#8e847c" fill-opacity="1"/>
    </g>
    <g>
        <clipPath id="clip_1">
            <path d="M74.73,35.38h0 M 0,0"/>
        </clipPath>
        <path d="M62.38 23.02H87.11V47.739999999999995H62.38z" clip-path="url(#clip_1)" fill="#c6b6c6" fill-opacity="1"/>
    </g>
    <g>
        <clipPath id="clip_1">
            <path d="M62.41,41.71h0 M 0,0"/>
        </clipPath>
        <path d="M50.04 29.36H74.75999999999999V54.07H50.04z" clip-path="url(#clip_1)" fill="#c6b6c6" fill-opacity="1"/>
    </g>
    <g>
        <clipPath id="clip_1">
            <path d="M81.3,14.9a28.52,28.52 0,0 1,7.23 0.78c3.49,0.95 5.53,2.42 5.59,4.05S92,23.4 88.63,24.62C83.29,26.55 74,31.16 67.14,34.87A40.13,40.13 0,0 1,52 39.7a11.51,11.51 0,0 1,-1.23 0.06c-3.88,0 -9.61,-1.48 -9.82,-4.16 -0.24,-3.08 2,-5 7.95,-9.2a93.64,93.64 0,0 1,18.25 -9.48,48.11 48.11,0 0,1 14.18,-2m0,-0.57a48.86,48.86 0,0 0,-14.38 2.06,95 95,0 0,0 -18.38,9.55c-5.76,4.09 -8.45,6.18 -8.18,9.7 0.24,3.16 6.32,4.68 10.38,4.68q0.69,0 1.29,-0.06a40.44,40.44 0,0 0,15.38 -4.89c6.07,-3.29 15.7,-8.16 21.41,-10.21 6.94,-2.51 8.72,-7.62 -0.15,-10a28.94,28.94 0,0 0,-7.37 -0.81 M 0,0"/>
        </clipPath>
        <path d="M27.98 1.98H107.04V52.68H27.98z" clip-path="url(#clip_1)" fill="#8e847c" fill-opacity="1"/>
    </g>
    <g>
        <clipPath id="clip_1">
            <path d="M66.75,39.46c2.72,-1.41 5.41,-2.79 8,-4.08 -2.57,1.29 -5.26,2.67 -8,4.08 M 0,0"/>
        </clipPath>
        <path d="M54.39 23.02H87.08V51.81H54.39z" clip-path="url(#clip_1)" fill="#c6b6c6" fill-opacity="1"/>
    </g>
    <g>
        <clipPath id="clip_1">
            <path d="M66.72,39.47h0 M 0,0"/>
        </clipPath>
        <path d="M54.36 27.1H79.1V51.82H54.36z" clip-path="url(#clip_1)" fill="#c6b6c6" fill-opacity="1"/>
    </g>
    <g>
        <clipPath id="clip_1">
            <path d="M60.49,42.72 L60,43l0.52,-0.27 M 0,0"/>
        </clipPath>
        <path d="M47.62 30.37H72.84V55.35H47.62z" clip-path="url(#clip_1)" fill="#c6b6c6" fill-opacity="1"/>
    </g>
    <g>
        <clipPath id="clip_1">
            <path d="M62.4,41.72l-1.91,1 1.91,-1 M 0,0"/>
        </clipPath>
        <path d="M48.13 29.37H74.75V55.08H48.13z" clip-path="url(#clip_1)" fill="#c6b6c6" fill-opacity="1"/>
    </g>
    <g>
        <clipPath id="clip_1">
            <path d="M64.78,40.48l-0.45,0.23 0.45,-0.23 M 0,0"/>
        </clipPath>
        <path d="M51.98 28.13H77.14V53.07H51.98z" clip-path="url(#clip_1)" fill="#c6b6c6" fill-opacity="1"/>
    </g>
    <g>
        <clipPath id="clip_1">
            <path d="M53.83,46.23l-1.85,1 1.85,-1 M 0,0"/>
        </clipPath>
        <path d="M39.62 33.87H66.19V59.56H39.62z" clip-path="url(#clip_1)" fill="#c6b6c6" fill-opacity="1"/>
    </g>
    <g>
        <clipPath id="clip_1">
            <path d="M11,24.87H108.98V106.31H11z M 0,0"/>
        </clipPath>
        <g clip-path="url(#clip_1)">
            <clipPath id="clip_2">
                <path d="M8.53 22.57H109.83V106.58000000000001H8.53z M 0,0"/>
            </clipPath>
            <g clip-path="url(#clip_2)">
                <clipPath id="clip_3">
                    <path d="M108.93,29.3c-.49,-4.67,-5.19,-6.08,-16.47,-2.11,-1.56.55,-3.65,1.43,-6.12,2.56,-3.3,1.51,-7.29,3.45,-11.59,5.62h0c-2.57,1.29,-5.26,2.67,-8,4.08h0c-5.73,3,-11.63,6.08,-17,8.92,-8.93,4.75,-16.32,8.74,-18.79,10,-6.71,3.3,-10.92,-3,-6.14,-10.69,3.29,-5.32,10.24,-12.09,16,-16.95C16,48.37,8.63,68.61,11.63,82.67c2.39,11.2,14.1,23.65,31.61,23.65S95.42,81.76,95.82,71.7C96,67.56,93.9,65.43,91,64.47c5.51,3.77,-.9,8.5,-16.28,18.73S49.72,94,46,92.14s-5.61,-7.42,-4,-11c0,0,1.93,-7.73,13.64,-14.55S91.44,50.38,99.4,43.9c7.67,-6.24,9.46,-10.79,9.58,-14,0,-.22,0,-.43,0,-.64 M 0,0"/>
                </clipPath>
                <path d="M-1.35 12.52H121.34V118.67H-1.35z" clip-path="url(#clip_3)" fill="#d8d8d8" fill-opacity="1"/>
            </g>
        </g>
    </g>
    <g>
        <clipPath id="clip_1">
            <path d="M66.72,39.47h0l-1.94,1 1.94,-1 M 0,0"/>
        </clipPath>
        <path d="M52.42 27.12H79.07V52.83H52.42z" clip-path="url(#clip_1)" fill="#c6b6c6" fill-opacity="1"/>
    </g>
    <g>
        <clipPath id="clip_1">
            <path d="M98,23.78c-5,0.45 -20.12,7.92 -28.08,12s-14.52,5.72 -19.63,5.92S40.92,40 39.33,37.91s0,-5 0,-5c-2.21,3.69 -2.6,5.83 -0.09,8.14 2.3,2.13 9.49,4.82 18.36,1.94 2.49,-0.81 5.72,-2.09 9.12,-3.56h0c2.72,-1.41 5.41,-2.79 8,-4.08h0a190.21,190.21 0,0 1,17.71 -8.18c11.28,-4 16,-2.56 16.47,2.11H109c0,-0.2 0,-0.61 0,-1.14a5.85,5.85 0,0 0,-0.89 -2.32c-2,-2.47 -5.12,-2.51 -10.12,-2 M 0,0"/>
        </clipPath>
        <path d="M25.16 11.2H121.36V56.64H25.16z" clip-path="url(#clip_1)" fill="#8e847c" fill-opacity="1"/>
    </g>
    <g>
        <clipPath id="clip_1">
            <path d="M19.82,78.08h-0.11v0.11l0.12,-0.11 M 0,0"/>
        </clipPath>
        <path d="M7.34 65.73H32.17V90.55000000000001H7.34z" clip-path="url(#clip_1)" fill="#aaaaaa" fill-opacity="1"/>
    </g>
    <g>
        <clipPath id="clip_1">
            <path d="M20,78a0.65,0.65 0,0 0,-0.22 0.11h0.7A0.65,0.65 0,0 0,20 78 M 0,0"/>
        </clipPath>
        <path d="M7.47 65.61H32.88V90.44H7.47z" clip-path="url(#clip_1)" fill="#3c3c3c" fill-opacity="1"/>
    </g>
    <g>
        <clipPath id="clip_1">
            <path d="M14.19,75.41c0,-0.72 -0.34,-1.31 -0.76,-1.31h0c-0.41,0 -0.74,0.6 -0.74,1.31s0.34,1.32 0.76,1.32h0.08l0,0c0.39,-0.06 0.7,-0.62 0.7,-1.31 M 0,0"/>
        </clipPath>
        <path d="M0.31 61.75H26.54V89.09H0.31z" clip-path="url(#clip_1)" fill="#ffffff" fill-opacity="1"/>
    </g>
    <g>
        <clipPath id="clip_1">
            <path d="M64.33,40.71l-1.92,1 1.92,-1 M 0,0"/>
        </clipPath>
        <path d="M50.06 28.36H76.69V54.07H50.06z" clip-path="url(#clip_1)" fill="#c6b6c6" fill-opacity="1"/>
    </g>
    <g>
        <clipPath id="clip_1">
            <path d="M56.18,45l-0.48,0.26 0.48,-0.26 M 0,0"/>
        </clipPath>
        <path d="M43.35 32.63H68.54V57.59H43.35z" clip-path="url(#clip_1)" fill="#c6b6c6" fill-opacity="1"/>
    </g>
    <g>
        <clipPath id="clip_1">
            <path d="M20.16,80.9a0.69,0.69 0,0 0,0.52 0.14,0.42 0.42,0 0,0 0.14,-0.06Z M 0,0"/>
        </clipPath>
        <path d="M7.81 68.55H33.17V93.4H7.81z" clip-path="url(#clip_1)" fill="#3c3c3c" fill-opacity="1"/>
    </g>
    <g>
        <clipPath id="clip_1">
            <path d="M85.19,13.68c-12.39,0 -18.25,1.8 -27.57,6.23a78.9,78.9 0,0 0,-16 10.23A19.69,19.69 0,0 0,39.33 33s-1.59,2.88 0,5 5.8,4 10.92,3.8 11.67,-1.83 19.63,-5.92S93,24.23 98,23.78s8.15,-0.42 10.12,2a5.85,5.85 0,0 1,0.89 2.32,12.8 12.8,0 0,0 -3.38,-7.95c-3.4,-3.53 -8,-6.52 -20.4,-6.52 M 0,0"/>
        </clipPath>
        <g clip-path="url(#clip_1)">
            <clipPath id="clip_2">
                <path d="M38.18 12.69H109.83000000000001V42.339999999999996H38.18z M 0,0"/>
            </clipPath>
            <path d="M26.27 1.33H121.32V54.08H26.27z" clip-path="url(#clip_2)" fill="#b5afa9" fill-opacity="1"/>
        </g>
    </g>
    <g>
        <clipPath id="clip_1">
            <path d="M21.27,79.32a1.91,1.91 0,0 0,-0.75 -1.24h-0.71c0.43,0 0.77,0.64 0.77,1.37s-0.37,1.39 -0.83,1.39l0.41,0.05 0.66,0.08a1.51,1.51 0,0 0,0.45 -1.66 M 0,0"/>
        </clipPath>
        <path d="M7.4 65.73H33.68V93.34H7.4z" clip-path="url(#clip_1)" fill="#aaaaaa" fill-opacity="1"/>
    </g>
    <g>
        <clipPath id="clip_1">
            <path d="M84.77,17.22l-0.53,-0.15 0.53,-0.15c0.27,-0.08 0.4,-0.26 0.28,-0.39a0.77,0.77 0,0 0,-0.72 -0.11l-1.15,0.32 -1.07,-0.32a0.65,0.65 0,0 0,-0.66 0.11c-0.12,0.15 0,0.32 0.25,0.4l0.39,0.12 -0.65,0.18c-0.27,0.08 -0.4,0.25 -0.27,0.39a0.65,0.65 0,0 0,0.51 0.15l0.2,0 1.28,-0.36 1.2,0.36 0.18,0a0.58,0.58 0,0 0,0.48 -0.15c0.12,-0.14 0,-0.32 -0.25,-0.4 M 0,0"/>
        </clipPath>
        <path d="M68.77 4.03H97.44999999999999V30.130000000000003H68.77z" clip-path="url(#clip_1)" fill="#8e847c" fill-opacity="1"/>
    </g>
    <g>
        <clipPath id="clip_1">
            <path d="M55.7,45.24l-1.78,0.94 1.78,-0.94 M 0,0"/>
        </clipPath>
        <path d="M41.57 32.88H68.06V58.53H41.57z" clip-path="url(#clip_1)" fill="#c6b6c6" fill-opacity="1"/>
    </g>
    <g>
        <clipPath id="clip_1">
            <path d="M14.64,75.38a1.78,1.78 0,0 0,-0.55 -1.28h-0.66c0.42,0 0.76,0.59 0.76,1.31s-0.31,1.25 -0.7,1.31l0,0 0.68,0.06a1.64,1.64 0,0 0,0.45 -1.42 M 0,0"/>
        </clipPath>
        <path d="M1.07 61.75H27V89.15H1.07z" clip-path="url(#clip_1)" fill="#aaaaaa" fill-opacity="1"/>
    </g>
    <g>
        <clipPath id="clip_1">
            <path d="M13.51,76.74a0.59,0.59 0,0 0,0.42 0.16,0.52 0.52,0 0,0 0.26,-0.1Z M 0,0"/>
        </clipPath>
        <path d="M1.16 64.38H26.55V89.25999999999999H1.16z" clip-path="url(#clip_1)" fill="#3c3c3c" fill-opacity="1"/>
    </g>
    <g>
        <clipPath id="clip_1">
            <path d="M46,92.14c3.72,1.9 13.35,1.29 28.73,-8.94S96.52,68.24 91,64.47c-4.14,-1.37 -9.93,-0.36 -13.21,0.58C72.23,66.64 45.62,80.74 42,81.19c-1.6,3.53 0.3,9.06 4,11 M 0,0"/>
        </clipPath>
        <path d="M29.07 51.45H105.32V105.35H29.07z" clip-path="url(#clip_1)" fill="#cecece" fill-opacity="1"/>
    </g>
    <g>
        <clipPath id="clip_1">
            <path d="M13.72,74a0.61,0.61 0,0 0,-0.31 0.13h0.68a0.54,0.54 0,0 0,-0.37 -0.13 M 0,0"/>
        </clipPath>
        <path d="M1.06 61.61H26.45V86.45H1.06z" clip-path="url(#clip_1)" fill="#3c3c3c" fill-opacity="1"/>
    </g>
</svg>