<svg xmlns="http://www.w3.org/2000/svg" width="120.0" height="120.0" viewBox="0 0 120.0 120.0">
    <path d="M93.32,51.41c13.18,-13.2 15.35,-22.59 8.66,-30.72a28,28 0,0 0,-5.49 -5.15,15.22 15.22,0 0,1 2.68,7.86c0.19,6 -1.12,9.8 -17,25.67C68.29,63 63.15,64.59 56.14,59c-1.51,-1.21 -2.56,-3.6 -3.27,-6.7C42.31,62.81 25.44,79.49 19.34,87c-8.17,10 -6.53,16.36 -2.64,20.25s8.92,7.39 20.84,-1.7C47.79,97.69 80.13,64.61 93.32,51.41Z" fill="#bf5e79" fill-opacity="1" fill-rule="evenodd"/>
    <path d="M84.47,54.58c11.39,-11.41 18.51,-22.76 17,-29.4 -0.45,-1.91 -0.39,-5 -5.55,-10.08 1.13,1.7 -6.44,12.53 -6.35,15.27 0.16,5.15 -1,8.47 -14.67,22.18 -12,12 -11.09,10.05 -17.14,5.2 -1.31,-1 -2.91,-4.11 -3.52,-6.79 -9.13,9.1 -28.38,27.87 -33.65,34.33 -7.07,8.65 -5.64,14.14 -2.29,17.49s7.72,6.39 18,-1.46C45.13,94.56 73.08,66 84.47,54.58Z" fill="#000000" fill-opacity="1"/>
    <path d="M57.12,58.74c7,5.61 11.17,4.25 25.08,-9.67 15.85,-15.87 17.16,-19.71 17,-25.67a15.22,15.22 0,0 0,-2.68 -7.86c-5.66,-4 -10.42,-3.7 -10.42,-3.7 -5.25,-1 -10.34,2 -13.28,5 -1.45,1.45 -5.83,5.83 -6,11.39 -0.17,6.47 -0.62,9.85 -5.31,15.27 -1,1.18 -4.3,4.47 -8.64,8.8A11.81,11.81 0,0 0,57.12 58.74Z" fill="#e2e0e0" fill-opacity="1" fill-rule="evenodd"/>
    <path d="M84.94,30.14c-5.57,5.59 -13,7.26 -16.47,3.75S66.62,23 72.2,17.41s13,-7.26 16.47,-3.74S90.52,24.56 84.94,30.14Z" fill="#000000" fill-opacity="1"/>
    <path d="M81,26.2c-3.85,3.85 -9,5 -11.38,2.58s-1.27,-7.52 2.58,-11.37 8.94,-5 11.37,-2.58S84.84,22.34 81,26.2Z" fill="#7f4f5f" fill-opacity="1" fill-rule="evenodd"/>
    <path d="M17.11,105.35c0.95,-0.54 -0.88,-1.28 -1.69,-0.8a1.28,1.28 0,0 0,0.05 0.58A1.23,1.23 0,0 0,17.11 105.35Z" fill="#000000" fill-opacity="1"/>
    <path d="M19.85,107.39c0.19,-0.77 -1.55,-0.55 -1.8,-0.44l-0.17,0.19a2.36,2.36 0,0 0,0 0.28C18.33,107.82 19.68,108.13 19.85,107.39Z" fill="#000000" fill-opacity="1"/>
    <path d="M84.5,11.83a19.82,19.82 0,0 1,12 3.71,15.24 15.24,0 0,1 2.68,7.86s-2.68,-3.26 -8.63,-4.89A6.59,6.59 0,0 0,84.5 11.83Z" fill="#000000" fill-opacity="1"/>
    <path d="M90.31,20.68a19.25,19.25 0,0 1,8.79 5.49,20.83 20.83,0 0,1 -0.56,2.6 32.49,32.49 0,0 0,-9.18 -5A18.15,18.15 0,0 0,90.31 20.68Z" fill="#000000" fill-opacity="1"/>
    <path d="M-882.63,-429.53H652.16V3750.61H-882.63z" fill="#000000" fill-opacity="0" stroke="#ffffff" stroke-opacity="1" stroke-width="5.0"/>
</svg>