<svg xmlns="http://www.w3.org/2000/svg" width="120.0" height="120.0" viewBox="0 0 120.0 120.0">
    <path d="M63.16,21a10.15,10.15 0,0 1,3.09 -4.92,6.68 6.68,0 0,0 1.37,-1.17c0.57,-0.82 1.12,-1.67 1.71,-2.47a21.72,21.72 0,0 1,8.75 -7.16,5.34 5.34,0 0,1 6,1 18.41,18.41 0,0 1,4.62 6.42,35.32 35.32,0 0,1 2.44,6.7A52.11,52.11 0,0 1,93 33.43a39.29,39.29 0,0 1,-2.74 14,44 44,0 0,1 -8.47,13.45c-2.47,2.71 -5.22,5.14 -7.78,7.76A30.77,30.77 0,0 0,66.7 80.88c-0.85,2.62 -1.67,5.25 -2.49,7.88a56.52,56.52 0,0 1,-4.13 10,32.41 32.41,0 0,1 -5.71,7.71 31.74,31.74 0,0 1,-8.55 5.87A26.73,26.73 0,0 1,37.89 115a15,15 0,0 1,-7.33 -0.43,4.5 4.5,0 0,1 -3.11,-3.12 13.68,13.68 0,0 1,-0.42 -3.19,28.42 28.42,0 0,1 1.58,-9.79A41.78,41.78 0,0 1,33.26 89c1.44,-2.22 3.21,-4.19 4.77,-6.33a33.8,33.8 0,0 1,7.44 -7.47A48.5,48.5 0,0 0,50 71.46,52 52,0 0,0 56.44,64a28.66,28.66 0,0 0,3.87 -7.21,27.71 27.71,0 0,0 1.39,-7.33c0.29,-4.25 0.09,-8.5 0.16,-12.75A43.39,43.39 0,0 1,62.67 28a4.84,4.84 0,0 0,0.07 -1.9,10 10,0 0,1 0.31,-4.69A3.06,3.06 0,0 1,63.16 21Z" fill="#e3e3e3" fill-opacity="1"/>
    <path d="M74.51,63a73.56,73.56 0,0 0,7 -6.25,38.67 38.67,0 0,0 9.94,-18.58 41.44,41.44 0,0 0,0.35 -15.46l-0.7,-3.24a51.62,51.62 0,0 1,1.88 14.05,39.19 39.19,0 0,1 -2.74,14A44,44 0,0 1,81.73 61c-2.47,2.71 -5.22,5.14 -7.78,7.76" fill="#a3dbe8" fill-opacity="1"/>
    <path d="M67.84,68.59c2.24,-1.82 4.42,-3.74 6.67,-5.57a73.56,73.56 0,0 0,7 -6.25,38.67 38.67,0 0,0 9.94,-18.58 41.44,41.44 0,0 0,0.35 -15.46l-0.7,-3.24a51.62,51.62 0,0 1,1.88 14.05,39.19 39.19,0 0,1 -2.74,14A44,44 0,0 1,81.73 61c-2.47,2.71 -5.22,5.14 -7.78,7.76A30.77,30.77 0,0 0,66.67 81" fill="#b5b5b5" fill-opacity="1"/>
    <path d="M60.21,79.17c0.24,-0.48 0.61,-0.93 0.88,-1.39q0.9,-1.52 1.71,-3.06a19.81,19.81 0,0 1,5.07 -6.22c2.25,-1.82 4.43,-3.74 6.68,-5.57A12,12 0,0 0,73 65c-0.46,0.62 -0.89,1.26 -1.38,1.85A18.55,18.55 0,0 0,68 73.42c-0.74,2.45 -0.53,5 -1.32,7.48 -0.85,2.62 -1.67,5.25 -2.49,7.88a56.11,56.11 0,0 1,-4.13 10,31.9 31.9,0 0,1 -5.4,7.34c-2,2 -4.5,4.26 -7.2,5.22a67.16,67.16 0,0 0,6.45 -8.85A42.09,42.09 0,0 0,58.08 92a46,46 0,0 0,1.85 -10.78A4.64,4.64 0,0 1,60.21 79.17Z" fill="#cecece" fill-opacity="1"/>
    <path d="M91.71,22.44a39.57,39.57 0,0 1,-1.2 19.9,39.77 39.77,0 0,1 -11,16.73c-2.48,2.29 -5.14,4.33 -7.69,6.48l-3.86,3.19a20.29,20.29 0,0 0,-3.39 3.54c-1,1.3 -1.71,2.79 -2.61,4.23a30.31,30.31 0,0 1,-2.75 4.23,15.89 15.89,0 0,1 -8.61,5 16,16 0,0 0,8.25 -5.26,31.61 31.61,0 0,0 2.58,-4.23c0.84,-1.42 1.55,-3 2.54,-4.36a19,19 0,0 1,3.46 -3.76l3.83,-3.23c2.54,-2.17 5.17,-4.23 7.59,-6.49a42,42 0,0 0,6.53 -7.45,39.54 39.54,0 0,0 4.47,-8.82 39,39 0,0 0,2.11 -9.69A42.12,42.12 0,0 0,91.71 22.44Z" fill="#efefef" fill-opacity="1"/>
    <path d="M65.925,30.207a7.44,5.3 105.27,1 0,3.919 -14.355a7.44,5.3 105.27,1 0,-3.919 14.355z" fill="#efefef" fill-opacity="1"/>
    <path d="M73.47,28.34A13.75,13.75 0,0 0,75 19.26a7,7 0,0 1,0.74 4.79A7.7,7.7 0,0 1,73.47 28.34Z" fill="#efefef" fill-opacity="1"/>
    <path d="M66.435,28.335a5.5,3.92 105.27,1 0,2.897 -10.612a5.5,3.92 105.27,1 0,-2.897 10.612z" fill="#cecece" fill-opacity="1"/>
    <path d="M71.08,19a6.17,6.17 0,0 1,0.58 5A6.4,6.4 0,0 1,68.87 28a8.47,8.47 0,0 1,-0.71 -1.49,5.8 5.8,0 0,1 -0.25,-2.27 6.94,6.94 0,0 1,0.52 -2,6.32 6.32,0 0,1 2.12,-2.82l0.39,-0.26Z" fill="#b5b5b5" fill-opacity="1"/>
    <path d="M33.77,92.29c-0.88,2.63 -1.83,5.17 -2.55,7.78a65.31,65.31 0,0 0,-1.7 8,21.29 21.29,0 0,1 0.77,-8.24A26.27,26.27 0,0 1,33.77 92.29Z" fill="#efefef" fill-opacity="1"/>
    <path d="M83.18,8.42a30.91,30.91 0,0 1,2.64 3.48,17.37 17.37,0 0,1 1.87,4 18.71,18.71 0,0 1,0.87 4.32,39.79 39.79,0 0,1 -0.1,4.37c-0.28,-1.43 -0.45,-2.86 -0.64,-4.27a30.3,30.3 0,0 0,-1 -4.12,26.36 26.36,0 0,0 -1.61,-3.93C84.52,11 83.81,9.74 83.18,8.42Z" fill="#efefef" fill-opacity="1"/>
    <path d="M-92.19,-96.85H624.49V1561.82H-92.19z" fill="#000000" fill-opacity="0" stroke="#32dd14" stroke-opacity="1" stroke-width="11.07"/>
</svg>