<svg xmlns="http://www.w3.org/2000/svg" width="120.0" height="120.0" viewBox="0 0 120.0 120.0">
    <g>
        <clipPath id="clip_1">
            <path d="M8.23,71.96H32.88V105.85H8.23z M 0,0"/>
        </clipPath>
        <g clip-path="url(#clip_1)">
            <clipPath id="clip_2">
                <path d="M5.77 70.13H32.9V107.13H5.77z M 0,0"/>
            </clipPath>
            <g clip-path="url(#clip_2)">
                <clipPath id="clip_3">
                    <path d="M21.46,94.06A33.83,33.83,0,0,1,30.26,90l1,-7.1c-0.56 0.42,-1.14 0.8,-1.67,1.16l-8.35,6.12c-2.73,2,-3.89,4.29,-6.75,3.81a2.38,2.38,0,0,1,-1.62,-0.89c-2,-2.61 0.09,-5.65,3.12,-8l7.68,-6.23c1.74,-1.25,3.22,-2.67,4.89,-3.4,1.26,-0.55,2.55,-1.11,3.84,-0.37L32.89,72A2.7,2.7,0,0,0,32.5,72c-0.79 0.09,-1.64 0.91,-2.39,1.38,-2.27,1.4,-4.36,3.06,-6.69,4.69C14.73,84.15,8,92.34,8.24,100.6a12.33,12.33,0,0,0,0.89,4.81l4.64 0.44c0.27,-4.54,4.1,-9.18,7.69,-11.79M10.24,96.57c-0.15 0.55,-0.53 0.93,-0.85 0.84s-0.45,-0.61,-0.29,-1.16 0.54,-0.93 0.86,-0.84 0.44 0.61 0.28,1.16m2.53,2.68c-0.14 0.5,-0.55 0.82,-0.92 0.71a0.84 0.84,0,0,1,-0.42,-1.09c0.15,-0.49 0.56,-0.81 0.93,-0.71a0.84 0.84,0,0,1,0.41,1.09 M 0,0"/>
                </clipPath>
                <g clip-path="url(#clip_3)">
                    <clipPath id="clip_4">
                        <path d="M8.23 70.13H32.900000000000006V107.13H8.23z M 0,0"/>
                    </clipPath>
                    <path d="M-4.1 59.62H45.22V118.18H-4.1z" clip-path="url(#clip_4)" fill="#a295a4" fill-opacity="1"/>
                </g>
            </g>
        </g>
    </g>
    <g>
        <clipPath id="clip_1">
            <path d="M32.32,75.9a3.1,3.1 0,0 0,-2.4 -0.5,8.61 8.61,0 0,0 -2.09,0.92c-0.72,0.45 -1.43,1 -2.14,1.51l-9.18,7.41c-2.58,2 -4.51,4.89 -2.93,7a1.77,1.77 0,0 0,0.59 0.51,2.81 2.81,0 0,0 0.53,0.16c1.58,0.36 2.66,-0.44 3.91,-1.52a22,22 0,0 1,2 -1.71l7.89,-5.77c0.46,-0.3 0.9,-0.6 1.32,-0.89a15.42,15.42 0,0 0,1.69 -1.48,7.24 7.24,0 0,0 1.78,-2.64 5.37,5.37 0,0 0,-0.36 -2.53,4.8 4.8,0 0,0 -0.6,-0.46 M 0,0"/>
        </clipPath>
        <path d="M0.67 63H45.65V105.32H0.67z" clip-path="url(#clip_1)" fill="#c6b2c7" fill-opacity="1"/>
    </g>
    <g>
        <clipPath id="clip_1">
            <path d="M12.36,98.16c-0.37,-0.1 -0.78,0.21 -0.93,0.71a0.84,0.84 0,0 0,0.42 1.09c0.37,0.11 0.78,-0.21 0.92,-0.71a0.84,0.84 0,0 0,-0.41 -1.09 M 0,0"/>
        </clipPath>
        <path d="M-0.95 85.81H25.150000000000002V112.32000000000001H-0.95z" clip-path="url(#clip_1)" fill="#e6e6e6" fill-opacity="1"/>
    </g>
    <g>
        <clipPath id="clip_1">
            <path d="M10.15,107c-0.61,-0.9 -1,-1.53 -1,-1.61a6.76,6.76 0,0 0,1 1.61 M 0,0"/>
        </clipPath>
        <path d="M-3.2 93.1H22.48V119.36999999999999H-3.2z" clip-path="url(#clip_1)" fill="#918992" fill-opacity="1"/>
    </g>
    <g>
        <clipPath id="clip_1">
            <path d="M14.43,9.84H111.77V114H14.43z M 0,0"/>
        </clipPath>
        <g clip-path="url(#clip_1)">
            <clipPath id="clip_2">
                <path d="M13.17 8.47H114.3V117H13.17z M 0,0"/>
            </clipPath>
            <g clip-path="url(#clip_2)">
                <clipPath id="clip_3">
                    <path d="M110.6,9.84c-1.86,10.61,-9.75,25.67,-18.34,31.78C84,47.49,49.18,83.83,44.77,85.67c-0.37 0.15,-0.8 0.31,-1.29 0.47a10.7,10.7,0,0,1,0.21,5.1c-0.92,4.82,-5.18,9.11,-10.37,5.61,-0.26,-0.17,-0.52,-0.35,-0.79,-0.56,0,0,0,0,0.11,0,-0.26,-0.06,-0.53,-0.12,-0.83,-0.16a5.58,5.58,0,0,0,-2.49 0.33s-0.84,2.77,-4.55,6.56,-7.57,3.16,-7.67,3.15a8.91,8.91,0,0,0,-0.32,1.12c-0.09 0.47,0,1.37,-0.61,1.82a2.38,2.38,0,0,1,-1.74 0.44,10.06,10.06,0,0,0,4.06,4.26c5.2 0.87,11,-0.91,21.61,-14.28s11.45,-13.76,25,-27.24,16.29,-14.7,29.45,-25.95,16.73,-24.55,17.18,-29.79a12.85,12.85,0,0,0,-1.11,-6.71 M 0,0"/>
                </clipPath>
                <g clip-path="url(#clip_3)">
                    <clipPath id="clip_4">
                        <path d="M13.17 8.47H111.84V114.53999999999999H13.17z M 0,0"/>
                    </clipPath>
                    <path d="M2.09 -2.5H124.10000000000001V126.33000000000001H2.09z" clip-path="url(#clip_4)" fill="#b49db8" fill-opacity="1"/>
                </g>
            </g>
        </g>
    </g>
    <g>
        <clipPath id="clip_1">
            <path d="M34.76,97.11l-0.85,-0.36a7.72,7.72 0,0 0,0.85 0.36 M 0,0"/>
        </clipPath>
        <path d="M21.58 84.41H47.099999999999994V109.44H21.58z" clip-path="url(#clip_1)" fill="#bab1ba" fill-opacity="1"/>
    </g>
    <g>
        <clipPath id="clip_1">
            <path d="M42.69,86.14l-0.3,0.35 0.36,-0.11 -0.06,-0.24 M 0,0"/>
        </clipPath>
        <path d="M30.05 73.81H55.09V98.83H30.05z" clip-path="url(#clip_1)" fill="#918992" fill-opacity="1"/>
    </g>
    <g>
        <clipPath id="clip_1">
            <path d="M33.33,75.84a3.82,3.82 0,0 0,-0.89 -0.73c-1.29,-0.74 -2.58,-0.18 -3.84,0.37 -1.67,0.73 -3.15,2.15 -4.89,3.4L16,85.11c-3,2.34 -5.1,5.38 -3.12,8a2.38,2.38 0,0 0,1.62 0.89c2.86,0.48 4,-1.83 6.75,-3.82l8.35,-6.11c0.53,-0.36 1.11,-0.74 1.67,-1.16A6.93,6.93 0,0 0,33.79 80c0.37,-1 1.13,-2.41 -0.46,-4.14M31.5,81.53A15.42,15.42 0,0 1,29.81 83l-1.32,0.89L20.6,89.67a22,22 0,0 0,-2 1.71c-1.25,1.08 -2.33,1.88 -3.91,1.52a2.81,2.81 0,0 1,-0.53 -0.16,1.77 1.77,0 0,1 -0.59,-0.51c-1.58,-2.1 0.35,-5 2.93,-7l9.18,-7.41c0.71,-0.52 1.42,-1.06 2.14,-1.51a8.61,8.61 0,0 1,2.09 -0.92,3.1 3.1,0 0,1 2.4,0.5 4.8,4.8 0,0 1,0.6 0.46,5.37 5.37,0 0,1 0.36,2.53 7.24,7.24 0,0 1,-1.78 2.64 M 0,0"/>
        </clipPath>
        <path d="M-0.21 62.42H46.63V106.39H-0.21z" clip-path="url(#clip_1)" fill="#dcd9de" fill-opacity="1"/>
    </g>
    <g>
        <clipPath id="clip_1">
            <path d="M9.12,105.41l0,0 0,0Z M 0,0"/>
        </clipPath>
        <path d="M-3.21 93.07H21.47V117.75999999999999H-3.21z" clip-path="url(#clip_1)" fill="#bab1ba" fill-opacity="1"/>
    </g>
    <g>
        <clipPath id="clip_1">
            <path d="M10,95.41c-0.32,-0.09 -0.7,0.29 -0.86,0.84s0,1.07 0.29,1.16 0.7,-0.29 0.85,-0.84 0,-1.07 -0.28,-1.16 M 0,0"/>
        </clipPath>
        <path d="M-3.3 83.07H22.64V109.75999999999999H-3.3z" clip-path="url(#clip_1)" fill="#e6e6e6" fill-opacity="1"/>
    </g>
    <g>
        <clipPath id="clip_1">
            <path d="M14.43,109.55a6.23,6.23 0,0 1,-2.46 -1A7.22,7.22 0,0 1,10.15 107c1.54,2.26 4.68,6.16 8.34,6.77a10.06,10.06 0,0 1,-4.06 -4.26 M 0,0"/>
        </clipPath>
        <path d="M-2.19 94.7H30.819999999999997V126.14H-2.19z" clip-path="url(#clip_1)" fill="#c6b2c7" fill-opacity="1"/>
    </g>
    <g>
        <clipPath id="clip_1">
            <path d="M10.67,95.41a1.22,1.22 0,0 0,-1.27 1c-0.11,0.42 0.06,1 0.42,1.05s0.94,-0.35 1.17,-0.75 0.38,-1 -0.32,-1.27m0,0a0.76,0.76 0,0 1,0.61 0.57,1.37 1.37,0 0,1 0,0.75 1.53,1.53 0,0 1,-0.43 0.74,1.52 1.52,0 0,1 -1.23,0.38 0.91,0.91 0,0 1,-0.76 -0.76,1.25 1.25,0 0,1 0.21,-0.77 2.05,2.05 0,0 1,0.61 -0.64,1.28 1.28,0 0,1 1,-0.27 M 0,0"/>
        </clipPath>
        <path d="M-3.45 83.06H23.68V110.19H-3.45z" clip-path="url(#clip_1)" fill="#3c3c3c" fill-opacity="1"/>
    </g>
    <g>
        <clipPath id="clip_1">
            <path d="M85.62,23.08c3,2.06 6.08,8 3.69,15.66 -1.78,5.69 -3.57,7.22 -1.93,5.84 0,0 2,-1.07 4.16,-8.24 1.21,-3.92 1.43,-10.78 -3.62,-15.22 -2.26,-2 -3.69,-2 -4.91,-0.46a10.58,10.58 0,0 0,-2.19 3.82s1.64,-3.59 4.8,-1.4 M 0,0"/>
        </clipPath>
        <path d="M68.49 7.22H104.6V57.39H68.49z" clip-path="url(#clip_1)" fill="#b49db8" fill-opacity="1"/>
    </g>
    <g>
        <clipPath id="clip_1">
            <path d="M33.54,96.6l0.37,0.15 -0.33,-0.19Z M 0,0"/>
        </clipPath>
        <path d="M21.21 84.23H46.24V109.08000000000001H21.21z" clip-path="url(#clip_1)" fill="#f0f0f0" fill-opacity="1"/>
    </g>
    <g>
        <clipPath id="clip_1">
            <path d="M9.24,96a2.17,2.17 0,0 1,0.2 -0.29,0.89 0.89,0 0,0 -0.2,0.29 M 0,0"/>
        </clipPath>
        <path d="M-3.09 83.42H21.78V108.38H-3.09z" clip-path="url(#clip_1)" fill="#a8aaab" fill-opacity="1"/>
    </g>
    <g>
        <clipPath id="clip_1">
            <path d="M42.69,86.14a34.69,34.69 0,0 0,-4.5 -9.3C37,75 34.87,72.59 32.89,72l-0.45,3.07a3.82,3.82 0,0 1,0.89 0.73c1.59,1.73 0.83,3.17 0.46,4.14A6.93,6.93 0,0 1,31.3 82.9l-1,7.11c4.34,-1.45 9,-2.56 12.13,-3.52Z M 0,0"/>
        </clipPath>
        <path d="M17.93 59.71H55.03V102.34H17.93z" clip-path="url(#clip_1)" fill="#a295a4" fill-opacity="1"/>
    </g>
    <g>
        <clipPath id="clip_1">
            <path d="M43.48,86.14c0,-0.23 -0.12,-0.46 -0.18,-0.69a34.86,34.86 0,0 0,-4 -8.33,32.58 32.58,0 0,0 -2.56,-3.48l-0.07,-0.07c-1.18,-1.17 -2.55,-2.25 -3.74,-1.93a1.79,1.79 0,0 0,-0.61 0.29l0.16,0a2.7,2.7 0,0 1,0.39 0.08c2,0.55 4.09,2.92 5.3,4.8a34.69,34.69 0,0 1,4.5 9.3l0.06,0.24A12.08,12.08 0,0 1,43 92c-1,4.45 -4.69,6.34 -8.22,5.11a7.72,7.72 0,0 1,-0.85 -0.36l-0.36,-0.15 0,0c-0.11,-0.06 -0.22,-0.11 -0.33,-0.18s-0.42,-0.06 -0.61,-0.08l-0.11,0a9.12,9.12 0,0 0,0.79 0.57c5.19,3.5 9.45,-0.79 10.37,-5.61a10.83,10.83 0,0 0,-0.21 -5.1 M 0,0"/>
        </clipPath>
        <path d="M20.01 59.25H56.239999999999995V110.46000000000001H20.01z" clip-path="url(#clip_1)" fill="#dcd9de" fill-opacity="1"/>
    </g>
    <g>
        <clipPath id="clip_1">
            <path d="M110.13,9c-1.47,-2.24 -4.08,-3.64 -8.35,-2.76C93.81,7.91 84.62,17 81.71,22.83c-2.82,5.67 -10,15.22 -22,26.43S33,71.63 33,71.63h0c1.19,-0.32 2.56,0.76 3.74,1.93l0.07,0.07a32.58,32.58 0,0 1,2.56 3.48,34.86 34.86,0 0,1 4,8.33c0.06,0.23 0.13,0.46 0.18,0.69 0.49,-0.16 0.92,-0.32 1.29,-0.47C49.18,83.83 84,47.49 92.26,41.62c8.6,-6.11 16.48,-21.17 18.34,-31.78a8.13,8.13 0,0 0,-0.47 -0.81 M 0,0"/>
        </clipPath>
        <path d="M20.61 -6.33H122.92999999999999V98.48H20.61z" clip-path="url(#clip_1)" fill="#c6b2c7" fill-opacity="1"/>
    </g>
    <g>
        <clipPath id="clip_1">
            <path d="M12.92,98.17a1.1,1.1 0,0 0,-1.25 0.89c-0.09,0.47 0.15,1 0.56,1.06a1.16,1.16 0,0 0,1.17 -0.66,0.85 0.85,0 0,0 -0.48,-1.29m0,0a1.11,1.11 0,0 1,0.77 1.35,1.38 1.38,0 0,1 -1.62,1.06 1.09,1.09 0,0 1,-0.79 -0.72,1.21 1.21,0 0,1 0.11,-0.86 1.47,1.47 0,0 1,1.53 -0.83 M 0,0"/>
        </clipPath>
        <path d="M-1.09 85.81H26.04V112.94H-1.09z" clip-path="url(#clip_1)" fill="#3c3c3c" fill-opacity="1"/>
    </g>
    <g>
        <clipPath id="clip_1">
            <path d="M12,108.59a6.23,6.23 0,0 0,2.46 1,7.6 7.6,0 0,1 -0.66,-3.7l-4.65,-0.44 0,0c0,0.08 0.4,0.71 1,1.61A7.22,7.22 0,0 0,12 108.59 M 0,0"/>
        </clipPath>
        <path d="M-3.21 93.08H26.759999999999998V121.89H-3.21z" clip-path="url(#clip_1)" fill="#a295a4" fill-opacity="1"/>
    </g>
    <g>
        <clipPath id="clip_1">
            <path d="M42.75,86.38l-0.36,0.11c-3.16,1 -7.79,2.07 -12.13,3.51a33.83,33.83 0,0 0,-8.8 4.06c-3.59,2.61 -7.42,7.25 -7.69,11.79a7.6,7.6 0,0 0,0.66 3.7,2.38 2.38,0 0,0 1.74,-0.44c0.6,-0.45 0.52,-1.35 0.61,-1.82a8.91,8.91 0,0 1,0.32 -1.12,9.25 9.25,0 0,1 0.9,-1.85c1.75,-2.76 6.54,-5.7 8.77,-6.76a22.26,22.26 0,0 1,2.55 -1.1,5.58 5.58,0 0,1 2.49,-0.33 6.4,6.4 0,0 1,0.83 0.17c0.19,0 0.61,0.09 0.61,0.08s0.22,0.12 0.33,0.18l0.33,0.19 0.85,0.36C38.29,98.34 42,96.45 43,92a12.08,12.08 0,0 0,-0.23 -5.62 M 0,0"/>
        </clipPath>
        <path d="M1.42 74.04H55.550000000000004V121.9H1.42z" clip-path="url(#clip_1)" fill="#7e7280" fill-opacity="1"/>
    </g>
</svg>