<svg xmlns="http://www.w3.org/2000/svg" width="120.0" height="120.0" viewBox="0 0 120.0 120.0">
    <path d="M84.82,16.53l0,0Z" fill="#000000" fill-opacity="1"/>
    <path d="M84.72,16.52l0,0Z" fill="#000000" fill-opacity="1"/>
    <path d="M84.65,16.51l0,0Z" fill="#000000" fill-opacity="1"/>
    <path d="M96.91,24.73l0,-0.09 0,0A0.13,0.13 0,0 0,96.91 24.73Z" fill="#000000" fill-opacity="1"/>
    <path d="M97.18,26a12.78,12.78 0,0 1,0.52 2.93A23.61,23.61 0,0 1,95.48 40a40.84,40.84 0,0 1,-8.25 11.29c-0.76,0.81 -1.53,1.61 -2.29,2.41a29.75,29.75 0,0 0,-6.43 8.2,86 86,0 0,0 -4.78,12.52C73,77 71.89,79.44 71,82c-0.78,2.1 -1.64,4.13 -2.58,6.3a16.34,16.34 0,0 1,-1.55 2.94c0.26,-0.7 0.53,-1.4 0.8,-2.1 0.39,-1.55 0.79,-3.1 1.19,-4.65a137.16,137.16 0,0 1,6.82 -21.14c0.73,-1.68 1.72,-3.26 2.64,-5 0.59,-1.11 1.54,-2 2.18,-3.14l1.9,-2.47 4.82,-6 2.56,-3.35c0.85,-1.3 1.72,-2.6 2.58,-3.9 1.65,-3.16 3.24,-6 4,-8.94a18.62,18.62 0,0 0,0.55 -4.14c0,-0.56 -0.07,-1.13 -0.11,-1.7 0,0 0,0 0,0C96.93,25.18 97.06,25.58 97.18,26Z" fill="#000000" fill-opacity="1"/>
    <path d="M91.25,18.19a11.68,11.68 0,0 1,1.23 1.56A11.12,11.12 0,0 1,94.05 26c-0.12,2.9 -1.24,5.68 -2.83,8.8l-1.58,2.46 -0.78,1A14.56,14.56 0,0 1,86.58 41l-2.09,2.06c-1.95,1.63 -3.8,3.22 -5.78,4.61 -3.11,2.21 -8.4,5.53 -10.51,10C65.7,63 65.24,68 64,73.09a73.2,73.2 0,0 1,-2.57 8.37c-0.5,1.29 -1.17,2.47 -1.79,3.79 -1.79,3.82 -5.43,9 -8.81,11.37a17.72,17.72 0,0 1,-17.32 2.19c-6.56,-2.52 -8.79,-10.06 -10,-14.36a21.87,21.87 0,0 1,-1 -5l0.66,3a21.25,21.25 0,0 0,3.13 6.41,16.92 16.92,0 0,0 9.88,6.38 15.64,15.64 0,0 0,12.66 -2.9,32.11 32.11,0 0,0 3,-2.79c0.31,-0.37 0.62,-0.75 0.94,-1.12A20.85,20.85 0,0 0,56 84c4,-7.63 4.78,-14.06 5.56,-21.22l0.63,-5.16a17.56,17.56 0,0 1,1.39 -5.81c1.36,-2.87 5.7,-4.64 7.75,-5.47l2.91,-1.47a65.64,65.64 0,0 0,7.37 -4.45A37.77,37.77 0,0 0,85 37.31a19,19 0,0 0,3.79 -5.42c2.32,-5 2.87,-10.83 -3.72,-14.37a17.4,17.4 0,0 0,-2 -1A12.62,12.62 0,0 0,75.92 16l-2.07,0.47c1,-0.57 2.84,-0.69 3.94,-1 3.31,-0.79 9,-1 12.73,2Z" fill="#000000" fill-opacity="1"/>
    <path d="M50.81,96.62a17.72,17.72 0,0 1,-17.32 2.19,13.68 13.68,0 0,1 -6.87,-6.28l1.44,-1.69a16.94,16.94 0,0 0,8.15 4.4,15.64 15.64,0 0,0 12.66,-2.9M90.52,17.52l0.73,0.67a11.68,11.68 0,0 1,1.23 1.56A11.12,11.12 0,0 1,94.05 26c-0.12,2.9 -1.24,5.68 -2.83,8.8l-1.58,2.46 -4.69,0a19,19 0,0 0,3.79 -5.42c2.32,-5 2.87,-10.83 -3.72,-14.37Z" fill="#ffffff" fill-opacity="0.2" fill-rule="evenodd"/>
    <path d="M73.75,16.5l0.1,0Z" fill="#000000" fill-opacity="1"/>
    <path d="M73.61,16.54l0.1,0Z" fill="#000000" fill-opacity="1"/>
    <path d="M73.52,16.57l0,0Z" fill="#000000" fill-opacity="1"/>
    <path d="M53.33,30.15l0.06,0Z" fill="#000000" fill-opacity="1"/>
    <path d="M53.19,30.29l0.05,0Z" fill="#000000" fill-opacity="1"/>
    <path d="M53.06,30.44h0l0.08,-0.05Z" fill="#000000" fill-opacity="1"/>
    <path d="M52.92,30.58l0.07,-0.09Z" fill="#000000" fill-opacity="1"/>
    <path d="M52.78,30.72l0.07,-0.09Z" fill="#000000" fill-opacity="1"/>
    <path d="M52.62,30.88l0.1,-0.13Z" fill="#000000" fill-opacity="1"/>
    <path d="M50.14,33.59c-1.64,1.51 -3,3.2 -4.6,4.52l-2.61,2.23 -1.34,1.18a23.23,23.23 0,0 1,2.83 -2.74c2.13,-1.86 4,-4 6.11,-5.74L52.72,31Z" fill="#000000" fill-opacity="1"/>
    <path d="M41.34,41.52l0.1,-0.13Z" fill="#000000" fill-opacity="1"/>
    <path d="M41.23,41.62l0.09,-0.12Z" fill="#000000" fill-opacity="1"/>
    <path d="M41.1,41.73l0.07,-0.09Z" fill="#000000" fill-opacity="1"/>
    <path d="M41,41.81l0.06,0Z" fill="#000000" fill-opacity="1"/>
    <path d="M40.85,41.93l0,0Z" fill="#000000" fill-opacity="1"/>
    <path d="M92.87,18.45l1.26,1.32c1.47,1.88 2.84,4 2.86,6.06a23.7,23.7 0,0 1,-2.43 9.76l-1.75,3.29 -2.56,3.95 -0.92,1.29 -3.6,4.57 -2.43,3L81.44,54A38.16,38.16 0,0 0,77 60.8a109.76,109.76 0,0 0,-7 19.66c-0.45,1.76 -0.91,3.53 -1.37,5.29A32.53,32.53 0,0 1,67.06 91c-0.49,1.15 -1.51,2.2 -2.17,3.43l-1.37,1.72 -1.31,1.56c-0.9,0.83 -1.69,1.75 -2.57,2.45 -5.32,4.22 -10.42,5.75 -16.43,4.41 -1.41,-0.32 -2.77,-0.76 -4.22,-1.19a20,20 0,0 1,-11 -8.4,10.16 10.16,0 0,1 -1.21,-2s0,-0.12 0,-0.13 0.05,0.08 0.06,0.07c0.39,0.57 0.77,1.14 1.17,1.71s1.15,1.22 1.77,1.88a6.63,6.63 0,0 0,1.58 1.19c0.66,0.36 1.21,0.72 1.83,1A17.85,17.85 0,0 0,38.74 100a17.53,17.53 0,0 0,12.32 -3.59A30.93,30.93 0,0 0,53.69 94c0.31,-0.37 0.57,-0.78 0.87,-1.15a22.78,22.78 0,0 0,2.69 -3.44,37.77 37.77,0 0,0 2.26,-4c0.71,-1.5 1.49,-2.93 2,-4.42A73.48,73.48 0,0 0,64 73c1.08,-4.4 1.66,-8.8 3.38,-13.3a26.94,26.94 0,0 1,1.51 -3.26A9.83,9.83 0,0 1,70.67 54c0.47,-0.48 1,-0.94 1.49,-1.42a39.77,39.77 0,0 1,5.34 -4.14c5.66,-4 13.35,-10.46 15.58,-18.07 1,-3.58 1.4,-7 -0.39,-10.27a9.2,9.2 0,0 0,-3.63 -3.62,13.35 13.35,0 0,0 -2.63,-1l-1,-0.21 1.18,0.19A12.36,12.36 0,0 1,92.38 18Z" fill="#000000" fill-opacity="1"/>
    <path d="M87.86,19.51l1,1.15a8.65,8.65 0,0 1,1.56 5.75A15.76,15.76 0,0 1,89.38 31c-0.93,2.42 -4,6.26 -6.13,8.14 -3.85,3.35 -6.91,4.81 -10.92,6.71a63.52,63.52 0,0 0,-5.86 3A6.82,6.82 0,0 0,64 51.16c-1.75,3.29 -1.85,7 -2.2,10.24 -0.61,5.69 -1.16,11.47 -3.3,17.33a47.63,47.63 0,0 1,-2.39 5.12c-0.61,1 -1.18,1.92 -1.8,2.87L53,88.41c-0.81,0.77 -1.39,1.71 -2.14,2.36 -4.66,4.1 -8.44,5.27 -13.71,4.61a16.31,16.31 0,0 1,-5 -1.54c-0.46,-0.28 -1,-0.62 -1.5,-0.91S29.45,92 29,91.71a17.13,17.13 0,0 1,-3.36 -3.81c-4.87,-8.07 -3.9,-16.47 -0.39,-25.64a54.94,54.94 0,0 1,2.87 -5.75l1.76,-2.6 2,-2.57L34,48.89c1.91,-1.77 3.48,-3.8 5.39,-5.47 2.46,-2.14 4.73,-4.27 7.15,-6.3L49,34.71c0.52,-0.56 1.05,-1.11 1.58,-1.67l5,-4.94c1.65,-1.43 3.19,-3 4.86,-4.31a40.16,40.16 0,0 1,12.45 -7c4.52,-1.4 9.05,-2 14.3,2.17Z" fill="#000000" fill-opacity="1"/>
    <path d="M36.16,83.55a5.12,5.12 0,0 1,-1.88 2.84,2.08 2.08,0 0,1 -2.31,0.19c-2.33,-1.12 -3,-3.86 -2.72,-6.61s3.33,-12.39 8,-20.25S50.12,41.36 52.44,39.47s5.17,-4.32 8.15,-2 0.7,5.66 -0.59,7.26c-0.7,0.87 -6.22,5.52 -9.82,10.82S39.91,72.18 38.11,77.2C37.25,79.59 36.54,82.12 36.16,83.55Z" fill="#000000" fill-opacity="1"/>
    <path d="M35.82,82.86A5.3,5.3 0,0 1,34 85.64a1.93,1.93 0,0 1,-2.15 0.3c-2.13,-1 -2.7,-3.53 -2.36,-6.15s3.42,-11.91 8,-19.6 12.4,-18 14.6,-19.92S57,35.93 59.74,38s0.5,5.35 -0.74,6.92c-0.68,0.86 -5.93,5.53 -9.41,10.73S39.6,71.9 37.8,76.75C36.94,79.06 36.21,81.49 35.82,82.86Z" fill="#000000" fill-opacity="1"/>
    <path d="M33.64,100.75s7.79,5.35 17.06,2.42C59.26,100 63.58,92.46 65.78,88.41S72,70 73.19,67.38s4.18,-9.07 8.3,-14 9.39,-9.89 11.71,-14.12 4.1,-8.51 3.8,-13.48c-0.08,-4.54 -5.54,-8.7 -6.15,-8.84S95.4,20 94.78,25.76s-3.53,15 -8.26,19.31S75.63,56.57 72.65,63.22 66.89,81.28 62.5,88.09s-9,11.63 -15.35,13.61C43,103 33.64,100.75 33.64,100.75Z" fill="#545454" fill-opacity="1" fill-rule="evenodd"/>
    <path d="M37.48,68.34l-0.09,0C36,68 36,67.94 36.88,66.81c0.49,-0.65 1,-1.29 1.55,-1.89 0.26,-0.28 0.52,-1 1,-0.52s-0.16,0.7 -0.39,1 -0.74,0.89 -1.11,1.33a1.1,1.1 0,0 0,-0.31 0.52c0.17,0.23 0.43,0.15 0.65,0.2 0.68,0.15 0.78,0.33 0.39,0.86 -0.71,1 -1.45,1.88 -2.17,2.83 -0.15,0.21 -0.32,0.39 -0.58,0.23s-0.22,-0.47 -0.06,-0.71c0.35,-0.5 0.73,-1 1.08,-1.48A2.33,2.33 0,0 0,37.48 68.34Z" fill="#000000" fill-opacity="1"/>
    <path d="M44.7,54.3c-0.48,-0.09 -0.7,0.21 -1,0.39a0.29,0.29 0,0 1,-0.44 -0.06,0.33 0.33,0 0,1 0,-0.38 1.84,1.84 0,0 1,1.48 -0.75c0.47,0 0.68,0.33 0.77,0.8s-0.17,0.81 0.24,1 0.69,-0.11 1,-0.33a0.37,0.37 0,0 1,0.54 0.07c0.14,0.21 0,0.38 -0.15,0.52a2.29,2.29 0,0 1,-1.06 0.57,1 1,0 0,1 -1.31,-0.89C44.74,55 44.73,54.65 44.7,54.3Z" fill="#000000" fill-opacity="1"/>
    <path d="M52.31,44.89l-0.38,-0.24a0.39,0.39 0,0 1,-0.16 -0.53,0.34 0.34,0 0,1 0.51,-0.17c0.62,0.38 0.81,-0.12 1.11,-0.47s0.39,-0.72 0.78,-0.45 -0.05,0.57 -0.2,0.83 -0.31,0.35 -0.37,0.59a0.46,0.46 0,0 0,0.28 0.28c0.27,0.09 0.41,0.26 0.27,0.54a0.37,0.37 0,0 1,-0.52 0.18c-0.61,-0.41 -0.89,0 -1.2,0.4 -0.19,0.26 -0.42,0.74 -0.77,0.47s0.08,-0.63 0.25,-0.93C52,45.25 52.12,45.13 52.31,44.89Z" fill="#000000" fill-opacity="1"/>
    <path d="M43.38,55.62a0.73,0.73 0,0 1,0.72 0.7c0,0.23 0,0.47 0,0.71 0.06,0.41 0.34,0.55 0.74,0.38a3.12,3.12 0,0 0,0.35 -0.2c0.19,-0.12 0.41,-0.34 0.62,-0.1s0,0.5 -0.2,0.69a1.34,1.34 0,0 1,-2 0.05,1.44 1.44,0 0,1 -0.21,-1c0,-0.59 -0.14,-0.66 -0.65,-0.38l-0.17,0.11c-0.21,0.16 -0.46,0.42 -0.67,0.07s0.1,-0.48 0.31,-0.66A1.38,1.38 0,0 1,43.38 55.62Z" fill="#000000" fill-opacity="1"/>
    <path d="M32.52,78.63c0.55,0.27 1.09,0.53 1.63,0.81a0.42,0.42 0,0 1,0.19 0.6c-0.12,0.24 -0.33,0.21 -0.52,0.12 -0.54,-0.27 -1.09,-0.53 -1.62,-0.81a0.39,0.39 0,0 1,-0.22 -0.58C32.11,78.54 32.31,78.57 32.52,78.63Z" fill="#000000" fill-opacity="1"/>
    <path d="M-970.19,-1771.53H705.32V1721.04H-970.19z" fill="#000000" fill-opacity="0" stroke="#3299fe" stroke-opacity="1" stroke-width="19.72"/>
</svg>