<svg xmlns="http://www.w3.org/2000/svg" width="120.0" height="120.0" viewBox="0 0 120.0 120.0">
    <path d="M99.3,6.59A2.58,2.58 0,0 1,102 7.89a7,7 0,0 1,0.9 2.29,19.21 19.21,0 0,1 0.16,6.68 32.36,32.36 0,0 1,-1.2 5.59,41.51 41.51,0 0,1 -4,9 62.5,62.5 0,0 1,-9 11.62,51.49 51.49,0 0,1 -12,9.28 42.81,42.81 0,0 1,-11.1 4.54,20.61 20.61,0 0,1 -7.17,0.51 12.05,12.05 0,0 1,-4.78 -1.54,5.2 5.2,0 0,1 -1.46,-1.23c-0.58,-0.74 -0.54,-1.27 0.19,-1.84 0.23,-0.18 0.42,-0.44 0.74,-0.5l0.26,-0.11h0A47.26,47.26 0,0 0,61.39 48,54.26 54.26,0 0,0 72,38.6a88.64,88.64 0,0 0,6 -7.8c1.68,-2.41 3.26,-4.88 4.85,-7.35 1.29,-2 2.56,-4 3.9,-6A32.59,32.59 0,0 1,96.92 7.7c0.57,-0.34 1.16,-0.63 1.74,-0.94Z" fill="#000000" fill-opacity="1"/>
    <path d="M10.18,104s0.08,0 0.1,0.06a6.72,6.72 0,0 0,4.21 3.54,16.41 16.41,0 0,0 10,0.12 27.93,27.93 0,0 0,9.83 -4.86,41.34 41.34,0 0,0 8,-7.82 49.64,49.64 0,0 0,4.41 -6.85c0.91,-1.66 1.69,-3.38 2.54,-5.07q2,-4 3.9,-8c1.07,-2.28 2.1,-4.58 3.16,-6.87q0.57,-1.22 1.26,-2.37a5.17,5.17 0,0 1,2.06 -2c2,-1.07 4.06,-2 6.11,-3A114.58,114.58 0,0 0,79.4 53,67.51 67.51,0 0,0 92.83,40.91a62.67,62.67 0,0 0,4 -5.19,55.18 55.18,0 0,0 3.58,-5.95 44,44 0,0 0,2.74 -6.45,32.67 32.67,0 0,0 1.89,-10.5 11.92,11.92 0,0 0,-0.6 -4A4.85,4.85 0,0 0,103 6.48,2.29 2.29,0 0,0 102,6a0.71,0.71 0,0 1,-0.39 -0.16,7 7,0 0,1 4,0.12l0.94,0.6a5,5 0,0 1,1.69 2.75,13.77 13.77,0 0,1 0.28,4.66 31.93,31.93 0,0 1,-1 5.56,41.53 41.53,0 0,1 -1.74,5.26c-0.69,1.67 -1.44,3.32 -2.28,4.92a60.64,60.64 0,0 1,-4 6.54,70.74 70.74,0 0,1 -4.85,6.09A92.33,92.33 0,0 1,82.37 53.86c-3.41,2.7 -7,5.19 -10.54,7.67 -2.65,1.84 -5.35,3.6 -7.95,5.53A16.29,16.29 0,0 0,60 71.19c-1.32,2 -2.66,4 -3.94,6 -1.15,1.82 -2.35,3.61 -3.49,5.43 -1.26,2 -2.49,4 -3.72,6.09s-2.52,4 -3.9,6a53.21,53.21 0,0 1,-6.54 7.68,36.84 36.84,0 0,1 -10.72,7.3 22.71,22.71 0,0 1,-8.29 2.08,9 9,0 0,1 -6.91,-2.28l-0.12,0a9.74,9.74 0,0 1,-1.63 -2.94,11.69 11.69,0 0,1 -0.55,-2.11A0.39,0.39 0,0 1,10.18 104Z" fill="#000000" fill-opacity="1"/>
    <path d="M27.67,109.67a22.71,22.71 0,0 1,-8.29 2.08,9 9,0 0,1 -6.91,-2.28l2,-1.84a16.41,16.41 0,0 0,10 0.12" fill="#ffffff" fill-opacity="1"/>
    <path d="M107.71,18.56a21.58,21.58 0,0 0,0.75 -4.58,13.77 13.77,0 0,0 -0.28,-4.66 5,5 0,0 0,-1.69 -2.75,3.87 3.87,0 0,0 -2,-0.91L103.4,6.88a5.11,5.11 0,0 1,1.07 1.92,11.92 11.92,0 0,1 0.6,4 27,27 0,0 1,-1.36 8.81Z" fill="#ffffff" fill-opacity="1"/>
    <path d="M63.76,74.9c2.07,-2.3 4.05,-4.68 6.11,-7a62.32,62.32 0,0 1,7.56 -7c2.8,-2.26 5.67,-4.42 8.38,-6.79A98.87,98.87 0,0 0,94 46.1c1.56,-1.72 3.06,-3.48 4.48,-5.3q1.86,-2.41 3.5,-5a58.41,58.41 0,0 0,3.5 -6.28,47.52 47.52,0 0,0 2,-4.9 43,43 0,0 0,1.73 -6.28,27.36 27.36,0 0,0 0.46,-4.23c0,-0.2 -0.06,-0.41 0.07,-0.6a22.48,22.48 0,0 1,0 4.92,37.91 37.91,0 0,1 -1.86,8.48 43.68,43.68 0,0 1,-2.15 5.31,57 57,0 0,1 -3.65,6.4 78.11,78.11 0,0 1,-14.29 16c-2.92,2.52 -6,4.89 -9,7.27 -4.17,3.28 -8.2,6.72 -12,10.37 -0.89,0.85 -1.81,1.65 -2.72,2.48l-0.18,0.16a0.42,0.42 0,0 1,-0.12 0C63.75,75 63.74,74.91 63.76,74.9Z" fill="#000000" fill-opacity="1"/>
    <path d="M12.35,109.43l0.12,0a9,9 0,0 0,6.91 2.28,22.71 22.71,0 0,0 8.29,-2.08 36.84,36.84 0,0 0,10.72 -7.3,53.21 53.21,0 0,0 6.54,-7.68c1.38,-1.94 2.67,-3.93 3.9,-6s2.46,-4.08 3.72,-6.09C53.69,80.82 54.89,79 56,77.21c1.28,-2 2.62,-4 3.94,-6a16.29,16.29 0,0 1,3.9 -4.13c2.6,-1.93 5.3,-3.69 7.95,-5.53 3.57,-2.48 7.13,-5 10.54,-7.67A92.33,92.33 0,0 0,94.58 42.35a70.74,70.74 0,0 0,4.85 -6.09,60.64 60.64,0 0,0 4,-6.54c0.84,-1.6 1.59,-3.25 2.28,-4.92a41.53,41.53 0,0 0,1.74 -5.26,31.93 31.93,0 0,0 1,-5.56 13.77,13.77 0,0 0,-0.28 -4.66,5 5,0 0,0 -1.69,-2.75l0.09,-0.14a6.13,6.13 0,0 1,2.68 3.88,12.79 12.79,0 0,1 0.37,2v0c0,0.08 0,0.15 0,0.23l0.06,0.55v0.1a0.46,0.46 0,0 0,0 0.44v0c-0.13,0.19 -0.06,0.4 -0.07,0.6a27.36,27.36 0,0 1,-0.46 4.23,43 43,0 0,1 -1.73,6.28 47.52,47.52 0,0 1,-2 4.9,58.41 58.41,0 0,1 -3.5,6.28q-1.64,2.57 -3.5,5c-1.42,1.82 -2.92,3.58 -4.48,5.3a98.87,98.87 0,0 1,-8.19 8.06c-2.71,2.37 -5.58,4.53 -8.38,6.79a62.32,62.32 0,0 0,-7.56 7c-2.06,2.31 -4,4.69 -6.11,7 -1.29,1.32 -2.59,2.62 -3.86,4a53.29,53.29 0,0 0,-5.26 6.53c-1.25,1.8 -2.39,3.67 -3.52,5.55S49,94.45 47.89,96.17s-2.11,3.18 -3.28,4.69a39.49,39.49 0,0 1,-9.77 9.4,25.44 25.44,0 0,1 -9.67,3.86 14.91,14.91 0,0 1,-6.74 -0.28,11 11,0 0,1 -5.26,-3.36A6,6 0,0 1,12.35 109.43Z" fill="#000000" fill-opacity="1"/>
    <path d="M51,53.14c0.78,-0.29 1.55,-0.61 2.32,-0.91 -0.31,0.06 -0.5,0.31 -0.73,0.49a1.1,1.1 0,0 0,-0.18 1.82,4.88 4.88,0 0,0 1.43,1.21 12,12 0,0 0,4.72 1.53,20.59 20.59,0 0,0 7.08,-0.52 42.34,42.34 0,0 0,11 -4.5,51.28 51.28,0 0,0 11.84,-9.19A62.48,62.48 0,0 0,97.3 31.58a41.6,41.6 0,0 0,4 -8.89,32.73 32.73,0 0,0 1.19,-5.54 19,19 0,0 0,-0.15 -6.6,6.8 6.8,0 0,0 -0.89,-2.26A2.51,2.51 0,0 0,98.79 7c0,-0.06 0,-0.12 0.07,-0.17A11.89,11.89 0,0 1,101.77 6a0.7,0.7 0,0 0,0.39 0.15,2.22 2.22,0 0,1 1,0.48 4.77,4.77 0,0 1,1.51 2.31,12 12,0 0,1 0.6,4 32.73,32.73 0,0 1,-1.89 10.51,44.48 44.48,0 0,1 -2.74,6.44A55.18,55.18 0,0 1,97 35.83,59.5 59.5,0 0,1 93,41 67.93,67.93 0,0 1,79.56 53.14,112.27 112.27,0 0,1 65.86,61c-2,1 -4.1,2 -6.11,3.06a5.13,5.13 0,0 0,-2.07 2c-0.45,0.77 -0.87,1.56 -1.25,2.37 -1.06,2.28 -2.1,4.58 -3.16,6.87q-1.89,4 -3.9,8c-0.85,1.69 -1.63,3.41 -2.54,5.07a49.74,49.74 0,0 1,-4.41 6.86,42.22 42.22,0 0,1 -8,7.82 28.1,28.1 0,0 1,-9.83 4.86,16.48 16.48,0 0,1 -9.95,-0.12 6.82,6.82 0,0 1,-4.22 -3.54s-0.06,0 -0.09,-0.06h0c0.08,-0.16 0,-0.28 -0.08,-0.42a14.81,14.81 0,0 1,0.29 -5.43,24 24,0 0,1 2.85,-7.1 28.78,28.78 0,0 1,5.74 -6.89,59.85 59.85,0 0,1 7.24,-5.45c2.36,-1.54 4.78,-3 7.08,-4.62s2.7,-1.53 4.51,-3.87l-0.35,0.82C40,65.65 39.07,61 39.31,55.91a49,49 0,0 1,4.46 -19.28A8.4,8.4 0,0 1,46 34c3.38,-2.79 6.13,0 7.35,3.15s1.09,6.26 -0.07,9.91a36.94,36.94 0,0 1,-2.21 6.12l0.06,0 0.06,0" fill="#000000" fill-opacity="1"/>
    <path d="M34.15,79.66a5.31,5.31 0,0 1,-1.74 1.84c-1.69,1.14 -3.36,2.28 -5,3.5a42.61,42.61 0,0 0,-7.69 7.25A35.85,35.85 0,0 0,17.08 96a5,5 0,0 1,-1.49 1.49,2.75 2.75,0 0,1 -0.91,0.36A1.37,1.37 0,0 1,13 96.91a3.34,3.34 0,0 1,-0.11 -1.8,7.77 7.77,0 0,1 1.25,-3A40.44,40.44 0,0 1,24.56 81.47c1.6,-1.18 3.24,-2.31 4.9,-3.41A8.21,8.21 0,0 1,31.83 77a2.74,2.74 0,0 1,1.45 0,1.39 1.39,0 0,1 1.1,1.3A2.79,2.79 0,0 1,34.15 79.66ZM13.63,93.27A5.59,5.59 0,0 0,13 95.69a1.73,1.73 0,0 0,0.77 1.68,1.75 1.75,0 0,0 1.89,-0.26 5.15,5.15 0,0 0,1.47 -1.61,35.86 35.86,0 0,1 2.33,-3.27 40.88,40.88 0,0 1,5.85 -5.84c2.12,-1.75 4.37,-3.31 6.65,-4.84A7,7 0,0 0,33 80.74a3.06,3.06 0,0 0,1 -2,1.43 1.43,0 0,0 -1.35,-1.63 3.22,3.22 0,0 0,-1.27 0.13,8.07 8.07,0 0,0 -2.18,1.08L26.81,80a48.26,48.26 0,0 0,-10.12 8.9A29.6,29.6 0,0 0,13.63 93.27Z" fill="#000000" fill-opacity="1"/>
    <path d="M13.63,93.27a29.6,29.6 0,0 1,3.06 -4.37A48.26,48.26 0,0 1,26.81 80l2.46,-1.68a8.07,8.07 0,0 1,2.18 -1.08,3.22 3.22,0 0,1 1.27,-0.13 1.43,1.43 0,0 1,1.35 1.63,3.06 3.06,0 0,1 -1,2 7,7 0,0 1,-1.07 0.81c-2.28,1.53 -4.53,3.09 -6.65,4.84a40.88,40.88 0,0 0,-5.85 5.84,35.86 35.86,0 0,0 -2.33,3.27 5.15,5.15 0,0 1,-1.47 1.61,1.75 1.75,0 0,1 -1.89,0.26A1.73,1.73 0,0 1,13 95.69,5.59 5.59,0 0,1 13.63,93.27ZM18.63,89.6c-0.1,0.18 -0.3,0.26 -0.46,0.38l-0.88,0.64c-0.14,0.1 -0.24,0.24 -0.1,0.41s0.24,0.06 0.37,0c0.58,-0.4 1.17,-0.79 1.75,-1.2 0.32,-0.23 0.29,-0.35 -0.06,-0.56 -0.12,-0.07 -0.28,-0.07 -0.33,-0.23a0.69,0.69 0,0 1,0.27 -0.24c0.29,-0.18 0.59,-0.36 0.87,-0.55s0.57,-0.22 0.41,-0.49 -0.47,0 -0.67,0.11c-0.42,0.23 -0.83,0.51 -1.23,0.78 -0.71,0.48 -0.7,0.53 0,0.93ZM25.22,82.86a4.9,4.9 0,0 0,-0.13 0.56,0.59 0.59,0 0,0 0.57,0.75 1.41,1.41 0,0 0,0.71 -0.12c0.12,0 0.23,-0.13 0.18,-0.28a0.21,0.21 0,0 0,-0.29 -0.13c-0.21,0.06 -0.45,0.18 -0.63,0s0,-0.42 0.05,-0.63a0.49,0.49 0,0 0,-0.28 -0.59,1.1 1.1,0 0,0 -1,0.15 0.21,0.21 0,0 0,-0.07 0.22,0.18 0.18,0 0,0 0.24,0.11C24.76,82.85 24.94,82.72 25.2,82.86ZM30.79,79.17a3.42,3.42 0,0 0,-0.31 0.22c-0.16,0.13 -0.5,0.22 -0.32,0.48s0.37,0 0.52,-0.13 0.49,-0.35 0.76,0a0.22,0.22 0,0 0,0.32 0c0.14,-0.13 0.08,-0.25 0,-0.35a0.25,0.25 0,0 1,-0.1 -0.21c0.07,-0.13 0.21,-0.18 0.32,-0.27s0.45,-0.19 0.26,-0.44 -0.37,0 -0.52,0.12 -0.44,0.39 -0.72,0.06a0.21,0.21 0,0 0,-0.32 0,0.24 0.24,0 0,0 0,0.33ZM24.22,83.37a0.82,0.82 0,0 0,-0.76 0c-0.15,0.07 -0.35,0.13 -0.3,0.32s0.25,0.14 0.4,0.09l0.11,0c0.34,-0.06 0.41,0 0.3,0.34a0.86,0.86 0,0 0,-0.06 0.59,0.81 0.81,0 0,0 1.17,0.35c0.16,-0.07 0.32,-0.16 0.24,-0.36s-0.24,-0.09 -0.37,-0.06a1,1 0,0 1,-0.23 0.05c-0.26,0 -0.39,-0.11 -0.35,-0.35s0.11,-0.27 0.13,-0.4A0.43,0.43 0,0 0,24.2 83.37ZM14.53,94.3c-0.11,-0.07 -0.22,-0.13 -0.33,0a0.23,0.23 0,0 0,0 0.36c0.25,0.26 0.51,0.51 0.78,0.76 0.09,0.09 0.2,0.15 0.31,0a0.24,0.24 0,0 0,0 -0.37C15.05,94.8 14.79,94.55 14.53,94.3Z" fill="#000000" fill-opacity="1"/>
    <path d="M18.61,89.6l0,0c-0.72,-0.4 -0.73,-0.45 0,-0.93 0.4,-0.27 0.81,-0.55 1.23,-0.78 0.2,-0.12 0.47,-0.45 0.67,-0.11s-0.22,0.37 -0.41,0.49 -0.58,0.37 -0.87,0.55a0.69,0.69 0,0 0,-0.27 0.24c0.05,0.16 0.21,0.16 0.33,0.23 0.35,0.21 0.38,0.33 0.06,0.56 -0.58,0.41 -1.17,0.8 -1.75,1.2 -0.13,0.09 -0.25,0.17 -0.37,0s0,-0.31 0.1,-0.41l0.88,-0.64C18.31,89.86 18.51,89.78 18.61,89.6Z" fill="#000000" fill-opacity="1"/>
    <path d="M25.2,82.86c-0.26,-0.14 -0.44,0 -0.63,0a0.18,0.18 0,0 1,-0.24 -0.11,0.21 0.21,0 0,1 0.07,-0.22 1.1,1.1 0,0 1,1 -0.15,0.49 0.49,0 0,1 0.28,0.59c0,0.21 -0.24,0.44 -0.05,0.63s0.42,0.06 0.63,0a0.21,0.21 0,0 1,0.29 0.13c0,0.15 -0.06,0.23 -0.18,0.28a1.41,1.41 0,0 1,-0.71 0.12,0.59 0.59,0 0,1 -0.57,-0.75A4.9,4.9 0,0 1,25.2 82.86Z" fill="#000000" fill-opacity="1"/>
    <path d="M30.77,79.17 L30.6,79a0.24,0.24 0,0 1,0 -0.33,0.21 0.21,0 0,1 0.32,0c0.28,0.33 0.48,0.08 0.72,-0.06s0.35,-0.34 0.52,-0.12 -0.13,0.32 -0.26,0.44 -0.25,0.14 -0.32,0.27a0.25,0.25 0,0 0,0.1 0.21c0.13,0.1 0.19,0.22 0,0.35a0.22,0.22 0,0 1,-0.32 0c-0.27,-0.35 -0.5,-0.19 -0.76,0s-0.37,0.35 -0.52,0.13 0.16,-0.35 0.32,-0.48A3.42,3.42 0,0 1,30.77 79.17Z" fill="#000000" fill-opacity="1"/>
    <path d="M24.2,83.37a0.43,0.43 0,0 1,0.28 0.53c0,0.13 -0.1,0.26 -0.13,0.4s0.09,0.37 0.35,0.35a1,1 0,0 0,0.23 -0.05c0.13,0 0.3,-0.12 0.37,0.06s-0.08,0.29 -0.24,0.36a0.81,0.81 0,0 1,-1.17 -0.35,0.86 0.86,0 0,1 0.06,-0.59c0.11,-0.33 0,-0.4 -0.3,-0.34l-0.11,0c-0.15,0 -0.34,0.15 -0.4,-0.09s0.15,-0.25 0.3,-0.32A0.82,0.82 0,0 1,24.2 83.37Z" fill="#000000" fill-opacity="1"/>
    <path d="M14.53,94.3c0.26,0.25 0.52,0.5 0.77,0.76a0.24,0.24 0,0 1,0 0.37c-0.11,0.12 -0.22,0.06 -0.31,0 -0.27,-0.25 -0.53,-0.5 -0.78,-0.76a0.23,0.23 0,0 1,0 -0.36C14.31,94.17 14.42,94.23 14.53,94.3Z" fill="#000000" fill-opacity="1"/>
    <path d="M-970.19,-1500.94H705.32V1991.63H-970.19z" fill="#000000" fill-opacity="0" stroke="#3299fe" stroke-opacity="1" stroke-width="19.72"/>
</svg>