<svg xmlns="http://www.w3.org/2000/svg" width="120.0" height="120.0" viewBox="0 0 120.0 120.0">
    <path d="M29.65,74.76c-2.06,2.2 0,6.67 3.9,8.35A7.36,7.36 0,0 1,29.65 74.76Z" fill="#4b585f" fill-opacity="1"/>
    <path d="M46.44,28.9C43.64,36.15 46,45.12 47.67,53c1.3,6 -1.13,9.54 -3.51,11.82 -4.56,4.38 -12.14,0.06 -18.25,8.46a8.85,8.85 0,0 0,3.68 13.55A31.08,31.08 0,0 0,42.7 88.81c-1.72,0.24 -3.49,0.42 -5.31,0.52 -11.51,0.67 -16.8,-5.3 -18,-11.67 3.26,-13.17 17,-9.88 22.88,-14 3.9,-2.72 5,-6.61 3.18,-12.54 -3,-10 -4.52,-16.57 0.49,-25.76 1.52,-2.79 3.39,-4.5 5.24,-4.91C50.45,21 48.75,22.91 46.44,28.9Z" fill="#6e6e88" fill-opacity="1"/>
    <path d="M28.77,74.68c-2.11,2.25 0,6.82 4,8.53A7.51,7.51 0,0 1,28.77 74.68Z" fill="#4b585f" fill-opacity="1"/>
    <path d="M66.85,64.21h0c-0.48,0.08 -0.88,0.14 -1.21,0.16 -0.52,0 -1,0.06 -1.47,0.06C44.07,65.6 53.66,48.17 53.73,36c0,-7.13 -0.58,-12.46 -2.57,-15.53 0,0 0,0 0,0h0c-0.71,0.59 -2.4,2.51 -4.69,8.45C43.64,36.16 46,45.13 47.67,53c1.3,6 -1.13,9.54 -3.51,11.83 -4.56,4.37 -12.14,0 -18.25,8.45A8.85,8.85 0,0 0,29.6 86.87a31,31 0,0 0,13.1 1.94h0C70.08,85.06 86.26,66.06 95.38,65.6 84.6,60 71.88,63.35 66.85,64.21ZM76.59,70C68.37,80.66 40,86.34 32.74,83.22L32.26,83c-3.66,-1.86 -5.51,-6.15 -3.49,-8.3h0c1.12,-1.17 3.39,-1.7 7.18,-0.84 9.93,2.26 22,-0.09 33.3,-4.49l1.25,-0.49C76.62,66.39 79.12,66.71 76.59,70Z" fill="#8d89ad" fill-opacity="1"/>
    <path d="M64.14,64.43C44.07,65.6 53.66,48.17 53.73,36c0,-7.13 -0.58,-12.46 -2.57,-15.53 2.22,0.67 5,5 5.78,10.09 0.05,0.32 0.09,0.63 0.13,0.94 1.26,10 -2.43,14.94 -3.22,19.58 -1.21,7 2.29,11.56 5.46,12.53l0.3,0.08 0.12,0a4,4 0,0 0,0.48 0.07h0.09A10.81,10.81 0,0 0,64.14 64.43Z" fill="#a6a1c2" fill-opacity="1"/>
    <path d="M96.25,65.93C81.57,70.39 67,92.63 40.55,95.37a23.13,23.13 0,0 1,-10.73 -2.66l-0.07,0c-0.72,-0.45 -1.44,-0.93 -2.17,-1.43 0,0 0,0 -0.06,0s-7.09,-4.53 -8.32,-12.28a1.73,1.73 0,0 1,0.16 -1.27C20.59,84 25.88,90 37.39,89.33c1.82,-0.1 3.59,-0.28 5.31,-0.52h0C70.08,85.06 86.25,66.05 95.38,65.6Z" fill="#d0cde7" fill-opacity="1"/>
    <path d="M97.64,66.62C87.36,70 76.93,82.06 62.5,89.67h0a145.57,145.57 0,0 1,-14.32 4.79,29.56 29.56,0 0,1 -7.61,0.9c26.46,-2.74 41,-25 55.7,-29.44A12,12 0,0 1,97.64 66.62Z" fill="#4e4e61" fill-opacity="1"/>
    <path d="M100.85,71.62c-2,-3.48 -16.74,7.56 -27.93,14 0,0 0,0 0,0 -3.47,1.35 -7,2.74 -10.4,4 14.43,-7.61 24.86,-19.63 35.14,-23C100.09,68 101,69.74 100.85,71.62Z" fill="#bfbadc" fill-opacity="1"/>
    <path d="M96.29,80.09a1.47,1.47 0,0 0,-0.13 -1.93c-1.29,-1.09 -11.84,3 -23.24,7.48 11.19,-6.46 26,-17.5 27.93,-14C100.71,74.32 98.58,77.33 96.29,80.09Z" fill="#4e4e61" fill-opacity="1"/>
    <path d="M96.29,80.09l0,0c-11,13.3 -38.71,28.63 -66.45,12.6a23.13,23.13 0,0 0,10.73 2.66,29.56 29.56,0 0,0 7.61,-0.9 145.57,145.57 0,0 0,14.32 -4.79h0c3.39,-1.27 6.93,-2.66 10.4,-4 0,0 0,0 0,0 11.4,-4.44 22,-8.57 23.24,-7.48A1.47,1.47 0,0 1,96.29 80.09Z" fill="#6e6e88" fill-opacity="1"/>
    <path d="M96.26,65.93L96.25,65.93" fill="#000000" fill-opacity="0" stroke="#000000" stroke-opacity="1" stroke-width="0.25"/>
    <path d="M76.59,70C68.37,80.66 40,86.34 32.74,83.21c-4,-1.71 -6.08,-6.28 -4,-8.53h0C29.89,73.5 32.16,73 36,73.83c9.93,2.26 22,-0.09 33.3,-4.48l1.25,-0.49C76.62,66.39 79.12,66.71 76.59,70Z" fill="#a6a1c2" fill-opacity="1"/>
    <path d="M60.21,63.78a4,4 0,0 1,-0.48 -0.07l-0.12,0 -0.3,-0.08c-3.17,-1 -6.67,-5.48 -5.46,-12.53 0.79,-4.64 4.48,-9.6 3.22,-19.58 0,-0.31 -0.08,-0.62 -0.13,-0.94 -0.79,-5.09 -3.56,-9.42 -5.78,-10.09 0,0 0,0 0,0h0a6.2,6.2 0,0 1,5.39 3.42c7.21,13.11 1.11,22 0,26.91A24.82,24.82 0,0 0,56 57C56.11,60.3 57.41,62.7 60.21,63.78Z" fill="#6e6e88" fill-opacity="1"/>
    <path d="M51.16,20.46h0S51.16,20.45 51.16,20.46Z" fill="#6e6e88" fill-opacity="1"/>
    <path d="M-132.03,-417.88H756.11V591.41H-132.03z" fill="#000000" fill-opacity="0" stroke="#3299fe" stroke-opacity="1" stroke-width="16.87"/>
</svg>