<svg xmlns="http://www.w3.org/2000/svg" width="120.0" height="120.0" viewBox="0 0 120.0 120.0">
    <path d="M-1014.68,-3393.45H689.79V572.12H-1014.68z" fill="#000000" fill-opacity="0" stroke="#32dd14" stroke-opacity="1" stroke-width="11.07"/>
    <path d="M52.86,86.19s3.92,-9.92 12,-10.27c8.31,-0.35 22.4,2.44 19.2,19.9 -3.11,17 -25.92,9.31 -28.93,7.19 -6,-4.25 -15.7,-13.42 -19,-33.31S40,30.59 44.49,24.37 57.47,11 62.83,14c4.28,2.35 6.06,12.25 -2.07,19.73 -7.39,6.79 -13.15,12.8 -15.23,19.72C43.68,59.6 41.84,71.54 52.86,86.19Z" fill="#1b365d" fill-opacity="1"/>
    <path d="M52.86,86.19s-0.89,3 -1.8,3.24c-2.17,0.68 -9.56,-11.8 -10.6,-23S41,51 44.73,44.88c3,-4.93 11,-15.29 13.09,-20.17 3.89,-9.1 -1.53,-10.56 -1.53,-10.56s5,-2.35 7.57,0.58c1.59,1.81 0,12.13 -12,25.65 -11,12.31 -9.46,19 -6.44,31.24A36.43,36.43 0,0 0,52.86 86.19Z" fill="#152e4c" fill-opacity="1"/>
    <path d="M40,83.4s9.47,24.75 34.28,22.75C74.26,106.15 50.78,112.47 40,83.4Z" fill="#152e4c" fill-opacity="1"/>
    <path d="M66.06,18.7a15.19,15.19 0,0 1,-2.24 11.44c-1.59,2.4 -7.68,8 -7.68,8S66.16,27.89 66.06,18.7Z" fill="#1c3c56" fill-opacity="1"/>
    <path d="M48.21,34.29c-5.52,5.34 -9.14,15.67 -10.12,19 0.35,-6.32 2.6,-18.27 6.22,-24.89 2.9,-5.3 5.44,-9.11 10.5,-11.6C56.27,16.16 59.22,23.67 48.21,34.29Z" fill="#264768" fill-opacity="1"/>
    <path d="M79,79a19.55,19.55 0,0 0,-12.65 -3.35,13.09 13.09,0 0,0 -7.6,2.59c7.13,-3.86 14.18,-0.67 16.82,0.5 10.56,4.67 8.94,13.84 8.94,13.84C84.67,90 85.61,83.81 79,79Z" fill="#152e4c" fill-opacity="1"/>
    <path d="M53.418,90.065a7.3,1.72 125.76,1 0,8.532 -11.847a7.3,1.72 125.76,1 0,-8.532 11.847z" fill="#264768" fill-opacity="1"/>
    <path d="M54.74,101.4s14.15,9.11 27.15,0c0,0 -3,5 -11.7,5.33S54.74,101.4 54.74,101.4Z" fill="#152e4c" fill-opacity="1"/>
</svg>