<svg xmlns="http://www.w3.org/2000/svg" width="120.0" height="120.0" viewBox="0 0 120.0 120.0">
    <path d="M47.87,93.11C54.22,90.4 55,83.78 61,77.34c5.37,-5.75 9.46,-7.24 11.93,-7.69a10.66,10.66 0,0 1,5 0.36,22.33 22.33,0 0,1 3.36,2c1,0.86 3.52,2.53 4,5.61 0.6,3.41 0.6,10.76 -6.2,17.18 -7.08,6.68 -23.19,11 -35.52,5.11s-12.79,-30.09 -1.52,-46C52,39.79 54,36.86 57.6,31.26A34.91,34.91 0,0 1,70.21 19.42c4.18,-2.07 10.76,-3 13.63,-1s4.37,7.93 -6.73,14.73S60.57,38.94 50.34,50.64C42.54,59.56 39.11,70 38.67,77.38 38.17,85.71 41,96 47.87,93.11Z" fill="#b1d6c4" fill-opacity="1"/>
    <path d="M59.72,31.87s3.65,-6.36 7.71,-7.43c3.69,-1 3.83,2 -0.58,5.55l-4.4,3.56S70,30.61 72.18,27s-1.44,-4.44 -3.32,-4.17S63.73,24.4 59.72,31.87Z" fill="#bcdccc" fill-opacity="1"/>
    <path d="M83.45,18.18c1.16,0.61 2.85,4 -4.39,9.05S61,37.92 55.55,43.06c-5.1,4.85 -6.24,7.78 -6.24,7.78S55.6,42.36 68.87,35.5c12.31,-6.35 16.46,-10.37 16.85,-13.89C86,19.3 83.45,18.18 83.45,18.18Z" fill="#aad0bd" fill-opacity="1"/>
    <path d="M83.45,18.18S86,19.3 85.72,21.61c-0.39,3.52 -4.54,7.54 -16.85,13.89C55.6,42.36 49.31,50.84 49.31,50.84s7.91,-7.77 13.22,-10.33S77,33.77 80.74,30.62s4.68,-5.28 5.14,-7.4A4.2,4.2 0,0 0,83.45 18.18Z" fill="#a0c3b1" fill-opacity="1"/>
    <path d="M77.92,70s3.33,6.31 -3.45,13.54S60.59,94.89 48.93,95.84a11.12,11.12 0,0 1,-5 -0.49s3.93,2.49 11.37,1.55 18.58,-5.16 24.28,-13c5.4,-7.44 2.63,-11.11 2.63,-11.11S79.2,70.34 77.92,70Z" fill="#aad0bd" fill-opacity="1"/>
    <path d="M44,95.35s3.78,2.51 11.22,1.57 18.73,-5.18 24.43,-13c5.4,-7.44 2.63,-11.11 2.63,-11.11s2.33,1.69 2.63,3.32S86.53,83 78.79,90s-21.16,8.7 -26.39,8.43C46.67,98.16 44,95.35 44,95.35Z" fill="#a0c3b1" fill-opacity="1"/>
    <path d="M44.08,95.42s2.68,2.69 8.14,3c4.89,0.31 18.84,-1.35 26.57,-8.42s6.39,-12.31 6.09,-13.94a16.05,16.05 0,0 1,0.57 6.57c-0.58,2.9 -0.68,3.24 -0.68,3.24S81.46,94 71.07,97.54C61.14,100.94 48.78,101.48 44.08,95.42Z" fill="#aad0bd" fill-opacity="1"/>
    <path d="M44.08,95.42s7.81,8.39 27,2.12a23,23 0,0 0,13.7 -11.65A22.6,22.6 0,0 1,70.47 100C58.41,104 48.3,101.52 44.08,95.42Z" fill="#a0c3b1" fill-opacity="1"/>
    <path d="M-76.55,-673.8H617.05V808.74H-76.55z" fill="#000000" fill-opacity="0" stroke="#3299fe" stroke-opacity="1" stroke-width="19.72"/>
</svg>