<svg xmlns="http://www.w3.org/2000/svg" width="120.0" height="120.0" viewBox="0 0 120.0 120.0">
    <path d="M94.47,5.73c1.26,0.67 4.59,4.83 3.45,14.52s-3.78,14.38 -4.07,16.48A41.16,41.16 0,0 1,85.42 54C80.72,59.6 73,67.93 69.27,74.56s-4.47,12.25 -4,19.94 0.8,11.15 0.46,12.22a15.35,15.35 0,0 1,-1.68 3.89A11,11 0,0 1,60 114.75c-1.13,0.5 -6.94,-1.43 -12.16,-7.94S41,95.47 36.06,91.81s-7.84,-3.11 -10.59,-3.52a9,9 0,0 1,-3.58 -1A8.89,8.89 0,0 1,23 82.83,8.77 8.77,0 0,1 24.91,80 57.82,57.82 0,0 0,35.18 76c4.14,-2.25 9.74,-5.5 13.6,-12.4s5.54,-13 7.79,-19.89 5.21,-13.69 8.56,-18c1,-1.32 2.36,-2.76 4.06,-4.72 1.15,-1.32 2.78,-3.22 4.22,-4.67C80.16,9.52 88.83,2.73 94.47,5.73Z" fill="#434242" fill-opacity="1" fill-rule="evenodd"/>
    <path d="M65.13,25.74A58.09,58.09 0,0 1,69.19 21c1.15,-1.32 2.78,-3.22 4.22,-4.67C80.16,9.52 88.83,2.73 94.47,5.73c1.26,0.67 4.59,4.83 3.45,14.52s-3.78,14.38 -4.07,16.48c0,0 -2.73,-2.25 -12.62,0.73C74.83,39.39 65.42,47.37 60,55.63s-9.76,15.74 -9.76,15.74 6.55,-15.47 7.86,-23C59.59,40 63.6,28.51 65.13,25.74Z" fill="#333333" fill-opacity="1" fill-rule="evenodd"/>
    <path d="M60,114.75c-1.13,0.5 -6.94,-1.43 -12.16,-7.94S41,95.47 36.06,91.81s-7.84,-3.11 -10.59,-3.52a9,9 0,0 1,-3.58 -1s-0.44,0.79 1.53,4.18c1.88,3.21 1.75,2.83 8.26,7.43 7.22,5.11 13.89,11.85 20.14,14.35C58.47,115.91 60,114.75 60,114.75Z" fill="#9d9ea5" fill-opacity="1" fill-rule="evenodd"/>
    <path d="M51.82,113.24c-6.25,-2.5 -12.92,-9.24 -20.14,-14.35a70.35,70.35 0,0 1,-6.2 -4.54s1.19,2.28 7.9,7.43A98.09,98.09 0,0 0,51.82 113.24Z" fill="#434242" fill-opacity="1" fill-rule="evenodd"/>
    <path d="M56.55,88.1c-0.09,13.49 5.76,18.17 5.41,19s-4.38,-1.12 -8,-5.47 -4.74,-12.28 -1.72,-20.09c4,-10.22 13.05,-21.91 14.05,-20.88C67.57,62 56.63,75.93 56.55,88.1Z" fill="#ffffff" fill-opacity="1" fill-rule="evenodd"/>
    <path d="M48.78,63.62S44,72 36.43,76.64C31.75,79.55 24.71,80 24.71,80l0.2,-0.08A57.82,57.82 0,0 0,35.18 76C39.32,73.77 44.92,70.52 48.78,63.62Z" fill="#ffffff" fill-opacity="1" fill-rule="evenodd"/>
</svg>