<svg xmlns="http://www.w3.org/2000/svg" width="120.0" height="120.0" viewBox="0 0 120.0 120.0">
    <path d="M107.09,32.36a3.62,3.62 0,0 0,1 -1.73l6.21,-25.16a1.82,1.82 0,0 0,-2.25 -2.19L86,10.43A3.47,3.47 0,0 0,84.3 11.6L6.8,106.46a6.59,6.59 0,0 0,8.75 9.4Z" fill="#cfb0c6" fill-opacity="1"/>
    <path d="M111.64,4 L88.11,10.42a0.39,0.39 0,0 0,-0.16 0.66l1.9,1.73a0.68,0.68 0,0 0,0.68 0.14l22.64,-7.61h0A1.22,1.22 0,0 0,111.64 4Z" fill="#ddd0da" fill-opacity="1"/>
    <path d="M104.71,26.91a3.7,3.7 0,0 1,-1 1.76L14.91,115.05c-5.95,3.69 -9.41,0.2 -5.67,-5.72l84,-90.75a3.54,3.54 0,0 1,1.7 -1.22Z" fill="#c9a1c0" fill-opacity="1"/>
    <path d="M74.39,24.28a51.75,51.75 0,0 1,5.87 3.59,63.72 63.72,0 0,1 5.38,4.3 63.93,63.93 0,0 1,4.83 4.91,57.68 57.68,0 0,1 4.21,5.44c-1.52,-1.71 -3,-3.42 -4.62,-5.06s-3.19,-3.25 -4.9,-4.75 -3.44,-3 -5.23,-4.39S76.27,25.59 74.39,24.28Z" fill="#af84a7" fill-opacity="1"/>
    <path d="M81.35,23.093a3.94,3.04 124.49,1 0,4.462 -6.495a3.94,3.04 124.49,1 0,-4.462 6.495z" fill="#bc93b2" fill-opacity="1"/>
    <path d="M85.81,16.59A2.78,2.78 0,0 1,87.12 19a4.76,4.76 0,0 1,-0.83 2.71,4.61 4.61,0 0,1 -2.24,1.75 2.74,2.74 0,0 1,-2.7 -0.36,2.91 2.91,0 0,0 2.56,0 4.79,4.79 0,0 0,2 -1.68A4.55,4.55 0,0 0,86.74 19,2.9 2.9,0 0,0 85.81,16.59Z" fill="#af84a7" fill-opacity="1"/>
    <path d="M-812.2,-1417.31H722.55V1566.08H-812.2z" fill="#000000" fill-opacity="0" stroke="#32dd14" stroke-opacity="1" stroke-width="21.73"/>
</svg>