<svg xmlns="http://www.w3.org/2000/svg" width="120.0" height="120.0" viewBox="0 0 120.0 120.0">
    <path d="M97.13,18.43a20.23,20.23 0,0 1,1 4.42A57.3,57.3 0,0 1,98.55 33c-0.49,9.23 -3.68,17.94 -8.34,25.88A116,116 0,0 1,76 77.58a96.54,96.54 0,0 1,-36.66 25,52 52,0 0,1 -13.38,3.65c-2.35,0.25 -3.77,-0.76 -4.25,-3.08 -0.72,-3.48 0,-7 0.93,-10.35C25.48,82 29.83,71.47 36.42,62.36 43.36,52.76 53.07,46 61.48,37.84a84.26,84.26 0,0 0,7.78 -8.68,38.88 38.88,0 0,0 5.24,-9.65 13.73,13.73 0,0 1,1.18 -3.16,5.41 5.41,0 0,1 2.25,-1.47 20.15,20.15 0,0 1,8.33 -1.13,20.94 20.94,0 0,1 7.84,1.42 5.1,5.1 0,0 1,2.82 2.73Z" fill="#e3e3e3" fill-opacity="1"/>
    <path d="M81.26,71.34A48.34,48.34 0,0 1,76 77.45a96.54,96.54 0,0 1,-36.66 25A52.39,52.39 0,0 1,26 106.12c-2.35,0.24 -3.77,-0.77 -4.25,-3.09 -0.72,-3.48 0,-7 0.93,-10.35 2.88,-10.82 7.23,-21.34 13.82,-30.45C42.17,54.33 49.76,48.37 57,42c0.2,-0.14 2.72,2.14 2.93,2.31 1.65,1.34 3.27,2.76 4.92,4.1A49.79,49.79 0,0 1,71.18 54,32.06 32.06,0 0,1 76,61.2C77.64,64.71 78.71,68.34 81.26,71.34Z" fill="#cecece" fill-opacity="1"/>
    <path d="M80.23,71.82c-1.4,2.53 -3.44,4.59 -5.19,6.75s-3.72,4.31 -5.72,6.36S65.17,88.87 63,90.71s-4.53,3.52 -6.9,5.15c-1.18,0.82 -2.38,1.62 -3.6,2.39S50,99.8 48.78,100.51a46.85,46.85 0,0 1,-7.86 3.6l-2.05,0.69a21.26,21.26 0,0 1,-2.17 0.61,34.26 34.26,0 0,1 -4.34,0.75 38.09,38.09 0,0 1,-8.67 0l0,-0.45c2.72,-0.93 5.41,-1.74 8,-2.66 1.3,-0.47 2.59,-0.93 3.83,-1.45l1.82,-0.8 1.87,-0.91c2.48,-1.22 5,-2.36 7.48,-3.52a82.79,82.79 0,0 0,7.42 -3.71,100.46 100.46,0 0,0 13.66,-9.5C69.9,81.43 72,79.58 74,77.61s4.2,-3.79 5.85,-6Z" fill="#bfbfbf" fill-opacity="1"/>
    <path d="M86.426,22.836a3.62,8.07 92.42,1 0,0.306 -7.234a3.62,8.07 92.42,1 0,-0.306 7.234z" fill="#515151" fill-opacity="1"/>
    <path d="M78.51,19.17A2,2 0,0 1,78.77 18a4,4 0,0 1,0.86 -1,7.12 7.12,0 0,1 2.22,-1.19 13.64,13.64 0,0 1,4.9 -0.67,13.46 13.46,0 0,1 4.83,1.08 7.34,7.34 0,0 1,2.12 1.37,3.75 3.75,0 0,1 0.77,1 2,2 0,0 1,0.16 1.23,2.59 2.59,0 0,0 -1.39,-1.68 8.73,8.73 0,0 0,-2.07 -0.84,19.8 19.8,0 0,0 -4.48,-0.67 19.5,19.5 0,0 0,-4.52 0.29,8.73 8.73,0 0,0 -2.14,0.67A2.56,2.56 0,0 0,78.51 19.17Z" fill="#a5a5a5" fill-opacity="1"/>
    <path d="M76.81,78.23a1,1 0,0 1,-1.35 0.17,15 15,0 0,1 -5.15,-7c-1,-2.87 -2,-6.71 -3.81,-9.16a39.08,39.08 0,0 0,-6 -6.56c-3.31,-2.81 -6.61,-5.62 -10,-8.32a0.61,0.61 0,0 1,0 -0.92l5.11,-4.82a0.91,0.91 0,0 1,1.17 0c3.38,2.69 6.67,5.48 10,8.28A38.8,38.8 0,0 1,73 56.14a50,50 0,0 1,4.32 8,37 37,0 0,0 4.61,7.05 0.93,0.93 0,0 1,0 1.18Z" fill="#cea596" fill-opacity="1"/>
    <path d="M58,53.62c-1.77,-1.49 -3.54,-3 -5.34,-4.44" fill="#e2c8c0" fill-opacity="1"/>
    <path d="M52.56,49l6,-6c0.48,0.42 0.94,0.85 1.4,1.28l-5.64,6.29Z" fill="#e2c8c0" fill-opacity="1"/>
    <path d="M68.12,65a66.9,66.9 0,0 1,2.42 6.77,13.81 13.81,0 0,0 1.86,3.57l6.9,-7.71a32.19,32.19 0,0 1,-1.8 -3.17c-1,-2 -1.89,-4.09 -3,-6Z" fill="#e2c8c0" fill-opacity="1"/>
    <path d="M75.24,78.21a15.42,15.42 0,0 1,-3.65 -3.56,14.54 14.54,0 0,1 -1.31,-2.22c-0.37,-0.79 -0.63,-1.61 -0.91,-2.4 -1.1,-3.2 -2.09,-6.47 -4.36,-9a39.8,39.8 0,0 0,-3.35 -3.76c-1.18,-1.19 -2.52,-2.23 -3.79,-3.35 -2.57,-2.22 -5.13,-4.44 -7.64,-6.73 2.71,2 5.37,4.15 8,6.27 1.32,1.06 2.66,2.11 3.9,3.31a40,40 0,0 1,3.46 3.78,21.62 21.62,0 0,1 1.5,2.11A17.32,17.32 0,0 1,68.27 65a46.83,46.83 0,0 1,1.66 4.84A15.78,15.78 0,0 0,75.24 78.21Z" fill="#af8679" fill-opacity="1"/>
    <path d="M34.806,75.466a3.07,2.36 119.49,1 0,3.023 -5.345a3.07,2.36 119.49,1 0,-3.023 5.345z" fill="#bfbfbf" fill-opacity="1"/>
    <path d="M39.921,66.273a3.058,2.351 125.605,1 0,3.561 -4.973a3.058,2.351 125.605,1 0,-3.561 4.973z" fill="#bfbfbf" fill-opacity="1"/>
    <path d="M75.28,19.28a9.55,9.55 0,0 0,3.33 3.27A15.7,15.7 0,0 0,83 24.2a22.2,22.2 0,0 0,4.64 0.67,16.79 16.79,0 0,0 2.35,-0.09c0.4,0 0.79,-0.1 1.19,-0.17a3.28,3.28 0,0 1,1.21 -0.09,1.14 1.14,0 0,0 -0.56,0.17l-0.56,0.24c-0.38,0.16 -0.77,0.29 -1.16,0.42a11.88,11.88 0,0 1,-2.45 0.44,15.43 15.43,0 0,1 -4.93,-0.48 12.86,12.86 0,0 1,-4.55 -2A7.5,7.5 0,0 1,75.28 19.28Z" fill="#ffffff" fill-opacity="0.6"/>
    <path d="M44.22,61.79a2.24,2.24 0,0 0,-2 -0.31,3.62 3.62,0 0,0 -1.71,1.06 3.51,3.51 0,0 0,-0.94 1.77,2.27 2.27,0 0,0 0.43,2 2.18,2.18 0,0 1,-0.73 -2,3.7 3.7,0 0,1 1,-2 3.77,3.77 0,0 1,1.92 -1.08A2.14,2.14 0,0 1,44.22 61.79Z" fill="#a5a5a5" fill-opacity="1"/>
    <path d="M38.26,70.43a2.25,2.25 0,0 0,-2 -0.12,3.68 3.68,0 0,0 -1.6,1.21 3.72,3.72 0,0 0,-0.78 1.86,2.27 2.27,0 0,0 0.62,1.89 2.11,2.11 0,0 1,-0.91 -1.91,3.7 3.7,0 0,1 0.77,-2.07A3.61,3.61 0,0 1,36.18 70,2.13 2.13,0 0,1 38.26,70.43Z" fill="#a5a5a5" fill-opacity="1"/>
    <path d="M-853.32,-93.07H681.43V3411.94H-853.32z" fill="#000000" fill-opacity="0" stroke="#32dd14" stroke-opacity="1" stroke-width="23.55"/>
</svg>