<svg xmlns="http://www.w3.org/2000/svg" width="120.0" height="120.0" viewBox="0 0 120.0 120.0">
    <path d="M89.35,20.15A11.07,11.07 0,0 1,93 26.59c0.84,5 -2.17,11.6 -6.16,15.77 -7.56,7.88 -16.47,12.19 -26.45,13.09 -4.82,0.43 -13.37,-0.55 -17,-5.92C39.2,43.32 42.32,31.62 49.23,25c9,-8.54 23.08,-13.86 37.48,-6.69Z" fill="#4f4f4f" fill-opacity="1" fill-rule="evenodd"/>
    <path d="M48,42l0,-0.1Z" fill="#afa39f" fill-opacity="1" fill-rule="evenodd"/>
    <path d="M41.61,45.31l0.1,-0.07Z" fill="#afa39f" fill-opacity="1" fill-rule="evenodd"/>
    <path d="M90.14,20.82l0.15,0.06c0.18,0.25 0.37,0.47 0.56,0.69a9.86,9.86 0,0 0,-0.73 -0.71Z" fill="#f2eedf" fill-opacity="1"/>
    <path d="M23.66,74.26c-1.17,6.55 0,15.6 4.17,22a19.91,19.91 0,0 0,11.43 8.11,22.8 22.8,0 0,0 5.12,0.65c7.69,0.08 14.45,-4.77 20,-10.89a58.63,58.63 0,0 0,4.09 -5.71,50.49 50.49,0 0,0 3.79,-7.06c0.48,-1 3.48,-8 4.19,-10.56 0.63,-2.28 1.22,-6.29 2.82,-8.64a19.12,19.12 0,0 1,3.46 -3.85,62.24 62.24,0 0,0 7.8,-7.77c0.82,-1.23 0.88,-2.83 1.7,-4.05a18.67,18.67 0,0 0,2.28 -5.31c1.77,-6.72 2.08,-11.61 -1.06,-16.55A19.35,19.35 0,0 0,91.25 22c4.19,5.27 1,14.59 -4.43,20.46a40.33,40.33 0,0 1,-28.51 13c-3.93,0.1 -10.43,-1.18 -13.9,-4.91 -1.52,-1.63 -2,-4.19 -2.73,-6.06 0.07,0.46 0.33,1.65 0.4,2.11C38.07,51.16 25.64,63.25 23.66,74.26ZM46.89,65.59c1.2,-1.29 6.43,-6.56 7.93,-5.84s2,5.52 2,7c0.05,7.31 -4,16.77 -8.8,22 -1.43,1.55 -4.9,5.09 -7.63,4.07C35.06,90.36 38.92,74.15 46.89,65.59Z" fill="#4f4f4f" fill-opacity="1"/>
    <path d="M56.79,57.23a41,41 0,0 0,-16 18c-4.31,10 -2.48,16.52 -0.38,17.54 2.7,1.29 7.07,-3.3 7.07,-3.3s-8.32,8.32 -14.38,6S25.65,88.06 25,85s-1.12,-9.4 0.94,-14.07A64.83,64.83 0,0 1,36 56c2.85,-3.07 7.13,-6.92 7.13,-6.92a17.89,17.89 0,0 0,6.29 5.07C53.16,55.81 56.79,57.23 56.79,57.23Z" fill="#494949" fill-opacity="1"/>
    <path d="M89.56,20.27a16.48,16.48 0,0 1,6.91 16.91,29.93 29.93,0 0,1 -8.32,16 9.15,9.15 0,0 1,-2.74 2.23,39.53 39.53,0 0,1 -9.83,3.18c-8.93,1.41 -15.77,0.77 -20.76,-1.25a36.67,36.67 0,0 1,-8.37 -4.85s5.84,4.47 16.45,2.63c7.91,-1.38 16.82,-6.53 19.46,-8.74s7.91,-7.22 10.14,-13.86S89.56,20.27 89.56,20.27Z" fill="#494949" fill-opacity="1"/>
    <path d="M46.55,28.14s-5.33,7.82 0.11,3.72a49.9,49.9 0,0 1,6.4 -4.26c2.57,-1.47 7.74,-3 3.74,-0.51s-15.91,11.65 -9.07,8S59.55,26.9 68.44,24.74s-2.31,2.73 -2.31,2.73 -11,4 -17.6,11.71 6.84,-2.48 6.84,-2.48a70.8,70.8 0,0 1,18.31 -9c11,-3.62 -4.09,4.46 -4.09,4.46S41.16,50 50.84,46.31A257.09,257.09 0,0 1,75.46 34.47c14.66,-6.17 0.35,2.55 0.35,2.55s-37.5,19.09 -20.7,12.92S91.54,37.21 88,40.2c0,0 -10.06,13.85 -28.1,15.21 0,0 -12.2,0.43 -16.57,-5.64C38.77,43.43 42,33.76 46.55,28.14Z" fill="#545454" fill-opacity="1"/>
    <path d="M-88.3,-3326.49H1446.49V853.65H-88.3z" fill="#000000" fill-opacity="0" stroke="#ffffff" stroke-opacity="1" stroke-width="5.0"/>
</svg>