<svg xmlns="http://www.w3.org/2000/svg" width="120.0" height="120.0" viewBox="0 0 120.0 120.0">
    <path d="M104,9.52a8.94,8.94 0,0 0,-4.07 0.26c4.87,0.91 6.1,3.66 5,10.62 -1.42,8.81 -15.07,47.18 -38.09,64.23S29.3,104 17.37,105.1A18.14,18.14 0,0 1,13 105c2.29,4.08 3.95,5.57 11.35,5.57 6.27,0 21.21,-1.6 36.61,-11.31 16.48,-10.4 29.26,-25.78 37.71,-43.87C106.29,39 114.45,11.06 104,9.52Z" fill="#96bca9" fill-opacity="1"/>
    <path d="M17.37,105.1C29.3,104 43.8,101.68 66.82,84.63s36.67,-55.42 38.09,-64.23c1.12,-7 -0.11,-9.71 -5,-10.62C96,11 94,15.21 90.84,19.15c-4.12,5.11 -21.22,22.39 -36.74,35S14.65,84.7 11.7,93.85A13.9,13.9 0,0 0,12.94 105v0A18.14,18.14 0,0 0,17.37 105.1Z" fill="#b2d3c5" fill-opacity="1"/>
    <path d="M58.39,62.87a1.24,1.24 0,0 1,-1.08 -0.18,1.2 1.2,0 0,1 -0.51,-0.88 0.26,0.26 0,0 0,-0.28 -0.22,0.25 0.25,0 0,0 -0.22,0.28A1.75,1.75 0,0 0,57 63.1a1.71,1.71 0,0 0,1 0.32,1.77 1.77,0 0,0 0.5,-0.07 0.24,0.24 0,0 0,0.17 -0.3A0.25,0.25 0,0 0,58.39 62.87Z" fill="#96bca9" fill-opacity="1"/>
    <path d="M58.32,63.84A2.07,2.07 0,0 1,55.84 62a0.24,0.24 0,0 0,-0.27 -0.22,0.25 0.25,0 0,0 -0.22,0.28 2.54,2.54 0,0 0,2.55 2.28,2.94 2.94,0 0,0 0.51,0 0.24,0.24 0,0 0,0.2 -0.29A0.24,0.24 0,0 0,58.32 63.84Z" fill="#96bca9" fill-opacity="1"/>
    <path d="M67.4,52.19a2.19,2.19 0,0 0,-1.73 -0.31,0.25 0.25,0 0,0 -0.19,0.3 0.24,0.24 0,0 0,0.3 0.19,1.65 1.65,0 0,1 2.06,1.5 0.25,0.25 0,0 0,0.25 0.23h0a0.25,0.25 0,0 0,0.23 -0.27A2.18,2.18 0,0 0,67.4 52.19Z" fill="#96bca9" fill-opacity="1"/>
    <path d="M68.05,51.14a3.22,3.22 0,0 0,-2.45 -0.38,0.25 0.25,0 1,0 0.11,0.49A2.69,2.69 0,0 1,69 53.47a0.26,0.26 0,0 0,0.25 0.21h0a0.25,0.25 0,0 0,0.21 -0.28A3.23,3.23 0,0 0,68.05 51.14Z" fill="#96bca9" fill-opacity="1"/>
    <path d="M66.28,53.18l-0.81,0.88a0.25,0.25 0,0 0,0 0.35,0.28 0.28,0 0,0 0.17,0.07 0.27,0.27 0,0 0,0.19 -0.08l0.81,-0.88a0.25,0.25 0,0 0,0 -0.35A0.26,0.26 0,0 0,66.28 53.18Z" fill="#96bca9" fill-opacity="1"/>
    <path d="M66.49,54.34a0.26,0.26 0,0 0,-0.3 0.19,1.27 1.27,0 0,1 -0.34,0.59 1.24,1.24 0,0 1,-0.69 0.35,0.68 0.68,0 0,1 -0.55,-0.17 0.9,0.9 0,0 1,0.18 -1.25,1.18 1.18,0 0,1 0.58,-0.33 0.25,0.25 0,0 0,0.19 -0.3,0.25 0.25,0 0,0 -0.3,-0.19 1.67,1.67 0,0 0,-0.82 0.47,1.4 1.4,0 0,0 -0.19,1.95 1.12,1.12 0,0 0,0.81 0.32h0.16a1.67,1.67 0,0 0,1 -0.49,1.78 1.78,0 0,0 0.47,-0.83A0.26,0.26 0,0 0,66.49 54.34Z" fill="#96bca9" fill-opacity="1"/>
    <path d="M77.47,44.13a0.25,0.25 0,0 0,-0.35 -0.07s-0.94,0.62 -1.47,0c-0.17,-0.19 -0.09,-0.47 0.06,-0.91s0.38,-1.11 -0.22,-1.53S73.7,42 73.66,42a0.24,0.24 0,0 0,0 0.35,0.26 0.26,0 0,0 0.35,0c0.22,-0.18 0.87,-0.57 1.23,-0.32s0.21,0.44 0,1a1.33,1.33 0,0 0,0 1.41,1.28 1.28,0 0,0 1,0.41 2.28,2.28 0,0 0,1.17 -0.37A0.25,0.25 0,0 0,77.47 44.13Z" fill="#96bca9" fill-opacity="1"/>
    <path d="M12.55,103.51c1.56,3.38 4.09,6 5.64,5.85s1.54,-3 0,-6.38 -4.09,-6 -5.64,-5.85S11,100.13 12.55,103.51Z" fill="#96bca9" fill-opacity="1"/>
    <path d="M13.25,103c1.31,2.71 3.34,4.86 4.54,4.79s1.13,-2.33 -0.17,-5 -3.34,-4.86 -4.55,-4.79S12,100.26 13.25,103Z" fill="#576d63" fill-opacity="1"/>
</svg>