<svg xmlns="http://www.w3.org/2000/svg" width="120.0" height="120.0" viewBox="0 0 120.0 120.0">
    <path d="M42.87,83.47c0.33,2.25 4.16,10.39 14.2,10.74S98,70.44 97.92,62c-0.16,-4.68 -3.23,-4.8 -3.64,-5.26h0A19,19 0,0 0,82 56.86c-6.06,2.2 -11.12,5.84 -16.27,9A158.13,158.13 0,0 1,43.77 77.37s0,-0.08 0,-0.12a9.86,9.86 0,0 0,-0.94 6.22" fill="#000000" fill-opacity="1"/>
    <path d="M64.12,35.75C71.45,32.83 88,28.63 91.45,27.2s6.39,-3.1 6.76,-4.8a4.62,4.62 0,0 0,-1 -3.39l0.48,0.2c-8.38,-3.9 -22.17,-6.17 -42,-0.08 -19.14,7.45 -30.55,19.93 -39.52,37.5a53,53 0,0 0,-4.81 13.42c-1.56,7.44 2.36,17.74 6.1,20.73a16.77,16.77 0,0 0,5.59 3l2.53,0.69a17,17 0,0 1,-0.93 -3.14C17.69,57.11 55.94,39 64.12,35.75" fill="#000000" fill-opacity="1"/>
    <g>
        <clipPath id="clip_1">
            <path d="M78.93,15.83A39.58,39.58 0,0 1,94.3 18.4c1.17,0.48 3.83,1.26 3.35,3.24 -0.53,2.22 -5.83,4.05 -8.05,4.92C80.81,30 70.75,32 60.48,33.83c-5.43,1 -12.17,0.32 -13.75,-3.63 -1.36,-3.43 2.84,-6.86 4.47,-7.94C56,19.08 62,17.8 68.87,16.56l6.59,-0.62 3.47,-0.11 M 0,0"/>
        </clipPath>
        <path d="M34.18 3.54H109.99000000000001V46.51H34.18z" clip-path="url(#clip_1)" fill="#c39f97" fill-opacity="1"/>
    </g>
    <g>
        <clipPath id="clip_1">
            <path d="M48.87,38.68c0.27,0.55 -0.2,1.32 -1,1.73s-1.73,0.28 -2,-0.27 0.2,-1.33 1,-1.73 1.74,-0.28 2,0.27 M 0,0"/>
        </clipPath>
        <path d="M33.48 25.89H61.23V52.93H33.48z" clip-path="url(#clip_1)" fill="#ffffff" fill-opacity="1"/>
    </g>
    <g>
        <clipPath id="clip_1">
            <path d="M97.83,19.28h0 M 0,0"/>
        </clipPath>
        <path d="M85.55 7H110.14V31.58H85.55z" clip-path="url(#clip_1)" fill="#bb9991" fill-opacity="1"/>
    </g>
    <g>
        <clipPath id="clip_1">
            <path d="M59.19,28.43l-0.66,-0.28 0.66,-0.26c0.35,-0.14 0.51,-0.45 0.35,-0.7a0.76,0.76 0,0 0,-0.9 -0.19l-1.45,0.58L55.85,27a0.67,0.67 0,0 0,-0.84 0.21,0.52 0.52,0 0,0 0.33,0.7l0.49,0.21 -0.82,0.32c-0.34,0.14 -0.5,0.45 -0.35,0.7a0.69,0.69 0,0 0,0.65 0.25,1 1,0 0,0 0.25,-0.06l1.61,-0.64 1.51,0.65a0.86,0.86 0,0 0,0.23 0.06,0.63 0.63,0 0,0 0.6,-0.27 0.51,0.51 0,0 0,-0.32 -0.7 M 0,0"/>
        </clipPath>
        <path d="M42.32 14.65H71.88V41.68H42.32z" clip-path="url(#clip_1)" fill="#aa939b" fill-opacity="1"/>
    </g>
    <g>
        <clipPath id="clip_1">
            <path d="M94.19,18.29a42.22,42.22 0,0 0,-15.32 -2.45h0c-4.11,0.35 -8.21,0.85 -12.26,1.59a62.59,62.59 0,0 0,-11.9 3.19,16.69 16.69,0 0,0 -5.22,3.13 11.36,11.36 0,0 0,-2 2.29,5 5,0 0,0 -0.89,2.78 4.07,4.07 0,0 0,1.1 2.65,6.89 6.89,0 0,0 2.47,1.62 16.1,16.1 0,0 0,6 1,30 30,0 0,0 6.1,-0.71l6.07,-1.14c4.05,-0.79 8.08,-1.64 12.06,-2.71 2,-0.53 4,-1.12 5.92,-1.77s3.87,-1.41 5.79,-2.17a23.65,23.65 0,0 0,2.8 -1.29,7.28 7.28,0 0,0 2.41,-1.88A1.91,1.91 0,0 0,97.72 21a2.32,2.32 0,0 0,-0.8 -1.28,9.83 9.83,0 0,0 -2.73,-1.41m0,0a9.7,9.7 0,0 1,2.74 1.39A2.33,2.33 0,0 1,97.76 21a2,2 0,0 1,-0.39 1.47A7.27,7.27 0,0 1,95 24.36a23.84,23.84 0,0 1,-2.8 1.32c-1.91,0.77 -3.82,1.55 -5.78,2.22s-3.92,1.27 -5.91,1.83c-4,1.1 -8,2 -12,2.82l-6.08,1.19a31,31 0,0 1,-6.16 0.77,16.44 16.44,0 0,1 -6.16,-1 6.75,6.75 0,0 1,-2.65 -1.75,4.49 4.49,0 0,1 -1.19,-3 5.54,5.54 0,0 1,1 -3,12 12,0 0,1 2.07,-2.36A17.22,17.22 0,0 1,54.6 20.3a62.08,62.08 0,0 1,12 -3.11c4.07,-0.7 8.17,-1.16 12.29,-1.48h0a42,42 0,0 1,15.32 2.58 M 0,0"/>
        </clipPath>
        <path d="M33.9 3.43H110.06V46.79H33.9z" clip-path="url(#clip_1)" fill="#9e8282" fill-opacity="1"/>
    </g>
    <g>
        <clipPath id="clip_1">
            <path d="M40.14,34.81c0.26,0.55 -0.2,1.32 -1,1.72s-1.74,0.29 -2,-0.27 0.2,-1.32 1,-1.72 1.73,-0.29 2,0.27 M 0,0"/>
        </clipPath>
        <path d="M24.74 22.02H52.489999999999995V49.06H24.74z" clip-path="url(#clip_1)" fill="#ffffff" fill-opacity="1"/>
    </g>
    <g>
        <clipPath id="clip_1">
            <path d="M40.14,34.81a1.11,1.11 0,0 1,-0.16 1,2.39 2.39,0 0,1 -0.83,0.78A2.45,2.45 0,0 1,38 37a1.1,1.1 0,0 1,-0.9 -1.88,2.39 2.39,0 0,1 1,-0.67 2.29,2.29 0,0 1,1.12 -0.16,1.09 1.09,0 0,1 0.93,0.54m0,0a1,1 0,0 0,-0.93 -0.47,2 2,0 0,0 -1,0.31c-0.59,0.33 -1.09,1 -0.87,1.51s1.09,0.51 1.72,0.26a2.13,2.13 0,0 0,0.88 -0.6,1 1,0 0,0 0.22,-1 M 0,0"/>
        </clipPath>
        <path d="M24.5 21.97H52.489999999999995V49.26H24.5z" clip-path="url(#clip_1)" fill="#3c3c3c" fill-opacity="1"/>
    </g>
    <g>
        <clipPath id="clip_1">
            <path d="M64.12,35.75C71.45,32.83 88,28.63 91.45,27.2s6.39,-3.1 6.76,-4.8a4.62,4.62 0,0 0,-1 -3.39l0.48,0.2c-8.38,-3.9 -22.17,-6.17 -42,-0.08 -19.14,7.45 -30.55,19.93 -39.52,37.5a53,53 0,0 0,-4.81 13.42c-1.56,7.44 2.36,17.74 6.1,20.73a16.77,16.77 0,0 0,5.59 3l2.53,0.69a17,17 0,0 1,-0.93 -3.14C17.69,57.11 55.94,39 64.12,35.75 M 0,0"/>
        </clipPath>
        <path d="M11 14.39H99.43V95.45H11z" clip-path="url(#clip_1)" fill="#545454" fill-opacity="1"/>
        <g clip-path="url(#clip_1)">
            <clipPath id="clip_2">
                <path d="M11 14.39H99.43V95.45H11z M 0,0"/>
            </clipPath>
            <path d="M-1.28 3.09H110.56V106.77000000000001H-1.28z" clip-path="url(#clip_2)" fill="#545454" fill-opacity="1"/>
        </g>
    </g>
    <g>
        <clipPath id="clip_1">
            <path d="M94.19,18.29a41.59,41.59 0,0 0,-15.32 -2.51c-11.94,0.94 -23.31,3.3 -28.11,6.7a14.78,14.78 0,0 0,-2.86 2.66,69.11 69.11,0 0,1 13.42,-3.68c13.83,-2.39 26.23,-0.6 31.32,4 2.26,-1 4.71,-2.27 5.07,-3.74 0.48,-2 -2.31,-2.94 -3.52,-3.41 M 0,0"/>
        </clipPath>
        <path d="M35.61 3.49H110.04V37.71H35.61z" clip-path="url(#clip_1)" fill="#f0e6e6" fill-opacity="1"/>
    </g>
    <g>
        <clipPath id="clip_1">
            <path d="M11,19.01H109V104.63H11z M 0,0"/>
        </clipPath>
        <g clip-path="url(#clip_1)">
            <clipPath id="clip_2">
                <path d="M48.64,70.2c6.35,-7.38,15.58,-9.92,24,-12.46S92.5,51.39,98.5,47.81,109,40.08,109,31.89c0,-7,-8.67,-11.47,-11.14,-12.6h0l-.15,-.07L97.2,19a4.62,4.62,0,0,1,1,3.39c-.37,1.7,-3.29,3.38,-6.76,4.8s-20,5.63,-27.33,8.55c-4.21,1.68,-16.43,7.3,-26.31,17l8.84,-29.48C38,27.75,28.21,38,22.72,45.29a67.53,67.53,0,0,0,-7,11.92C12.44,64.43,10,70.55,11.38,80c1.07,7.61,8.47,12.69,13.91,14.54l.13,-.45c0,.13.09.26.15.4,1.58,3.94,5.31,9.2,13.86,10,11.25,1,16.93,-1.92,27.69,-7s22.39,-16.28,26,-20.09a22.92,22.92,0,0,0,6.41,-13.08c.56,-5.39,-4.63,-7.53,-5.27,-7.49h0c.41.46,3.47.58,3.64,5.26,0,8.43,-30.81,32.54,-40.85,32.2S43.2,85.72,42.87,83.47a9.91,9.91,0,0,1,.93,-6.22,31.75,31.75,0,0,1,4.84,-7 M 0,0"/>
            </clipPath>
            <path d="M-1.28 6.73H121.28V116.91000000000001H-1.28z" clip-path="url(#clip_2)" fill="#434242" fill-opacity="1"/>
        </g>
    </g>
    <g>
        <clipPath id="clip_1">
            <path d="M61.32,21.46A69.11,69.11 0,0 0,47.9 25.14c-1.17,1.47 -2,3.32 -1.17,5.22 1.65,3.85 8.41,4.53 13.81,3.52 10.26,-1.9 20.32,-3.8 29.12,-7.26 0.74,-0.29 1.84,-0.7 3,-1.18 -5.09,-4.58 -17.49,-6.37 -31.32,-4 M 0,0"/>
        </clipPath>
        <path d="M34.12 8.12H104.91999999999999V46.589999999999996H34.12z" clip-path="url(#clip_1)" fill="#e9d1cb" fill-opacity="1"/>
    </g>
    <g>
        <clipPath id="clip_1">
            <path d="M42.87,83.47c0.33,2.25 4.16,10.39 14.2,10.74S98,70.44 97.92,62c-0.16,-4.68 -3.23,-4.8 -3.64,-5.26h0A19,19 0,0 0,82 56.86c-6.06,2.2 -11.12,5.84 -16.27,9A158.13,158.13 0,0 1,43.77 77.37s0,-0.08 0,-0.12a9.86,9.86 0,0 0,-0.94 6.22 M 0,0"/>
        </clipPath>
        <path d="M30.44 43.49H110.2V106.49000000000001H30.44z" clip-path="url(#clip_1)" fill="#545454" fill-opacity="1"/>
    </g>
    <g>
        <clipPath id="clip_1">
            <path d="M87.86,20.34a0.79,0.79 0,0 1,-0.22 -0.05l-3.06,-1.21c-0.29,-0.11 -0.41,-0.33 -0.27,-0.49a0.78,0.78 0,0 1,0.8 -0.08l3.06,1.2c0.29,0.11 0.41,0.34 0.27,0.5a0.67,0.67 0,0 1,-0.58 0.13 M 0,0"/>
        </clipPath>
        <path d="M71.97 6.16H100.78V32.64H71.97z" clip-path="url(#clip_1)" fill="#aa939b" fill-opacity="1"/>
    </g>
    <g>
        <clipPath id="clip_1">
            <path d="M97.68,19.21l0.15,0.07 -0.15,-0.07 M 0,0"/>
        </clipPath>
        <path d="M85.39 6.93H110.11V31.56H85.39z" clip-path="url(#clip_1)" fill="#ddafa4" fill-opacity="1"/>
    </g>
    <g>
        <clipPath id="clip_1">
            <path d="M48.87,38.68a1.08,1.08 0,0 1,-0.16 1.06,2.49 2.49,0 0,1 -2,1.11 1.21,1.21 0,0 1,-1.14 -0.61A1.22,1.22 0,0 1,45.85 39a2.3,2.3 0,0 1,1 -0.67A2.43,2.43 0,0 1,48 38.14a1.1,1.1 0,0 1,0.92 0.54m0,0a1,1 0,0 0,-0.93 -0.47,2.21 2.21,0 0,0 -1,0.31c-0.59,0.34 -1.09,1 -0.88,1.51s1.1,0.52 1.73,0.27a2.2,2.2 0,0 0,0.88 -0.6,1 1,0 0,0 0.21,-1 M 0,0"/>
        </clipPath>
        <path d="M33.24 25.85H61.230000000000004V53.14H33.24z" clip-path="url(#clip_1)" fill="#3c3c3c" fill-opacity="1"/>
    </g>
</svg>