<svg xmlns="http://www.w3.org/2000/svg" width="120.0" height="120.0" viewBox="0 0 120.0 120.0">
    <g>
        <clipPath id="clip_1">
            <path d="M37.16,78.76C36.45,80.68 34.43,82 32.85,83l-8.66,6.43c-2.82,2.08 -4,4.5 -7,4a2.53,2.53 0,0 1,-1.69 -0.92c-2.08,-2.71 0.06,-5.88 3.2,-8.34l8,-6.55c1.81,-1.31 3.33,-2.8 5.07,-3.57s3.26,-1.45 4.93,0.34 0.89,3.3 0.51,4.31 M 0,0"/>
        </clipPath>
        <path d="M2.36 61.03H49.98V105.85H2.36z" clip-path="url(#clip_1)" fill="#dccdd2" fill-opacity="1"/>
    </g>
    <g>
        <clipPath id="clip_1">
            <path d="M33.32,90.58c-4.46,1.92 -8.52,4 -10.44,6.4 -2.29,2.85 -4.41,5.77 -5.27,8.81a9.73,9.73 0,0 0,-0.31 4,2.4 2.4,0 0,0 1.61,-0.49c0.62,-0.48 0.53,-1.41 0.62,-1.9A9.55,9.55 0,0 1,20 106a9.11,9.11 0,0 1,0.83 -1.65c1.81,-2.89 6.78,-6 9.09,-7.11A22.63,22.63 0,0 1,32.58 96a5.67,5.67 0,0 1,2.54 -0.34C37.81,96 39,97.84 41.91,97a7.91,7.91 0,0 0,4.9 -5.12A12.48,12.48 0,0 0,46.44 85C42.86,86.79 37.88,88.61 33.32,90.58Z M 0,0"/>
        </clipPath>
        <path d="M4.91 72.65H59.45V122.11000000000001H4.91z" clip-path="url(#clip_1)" fill="#8c7a81" fill-opacity="1"/>
    </g>
    <g>
        <clipPath id="clip_1">
            <path d="M11.75,11.22H109.42V114H11.75z M 0,0"/>
        </clipPath>
        <g clip-path="url(#clip_1)">
            <clipPath id="clip_2">
                <path d="M107.79,11.22C106.61,29.34,96.93,34.4,90.41,35c-5.85 0.58,-14,-2.92,-15.06,-10.55a38.94,38.94,0,0,0,-2.06,10.18,23.13,23.13,0,0,1,-0.7,3.81,3.26,3.26,0,0,1,3.09,-0.5c3.66,1.42,4.76,5.67,3.47,10.61,-1.38,5.24,-24,30.06,-29.56,34.44A19.45,19.45,0,0,1,46.44,85a12.48,12.48,0,0,1,0.37,6.94A7.94,7.94,0,0,1,41.91,97c-2.9 0.83,-4.1,-1,-6.79,-1.32a5.67,5.67,0,0,0,-2.54 0.34,19.37,19.37,0,0,1,-5.06,7.31A10.11,10.11,0,0,1,20,106H20a9.55,9.55,0,0,0,-0.42,1.45c-0.09 0.49,0,1.42,-0.62,1.9a2.4,2.4,0,0,1,-1.61 0.49,6.2,6.2,0,0,1,-2.77,-1,7.39,7.39,0,0,1,-2.78,-2.88A11.55,11.55,0,0,0,18.36,113,15,15,0,0,0,24,114c4.4,0,10.32,-3.65,13.54,-7S47.9,92.56,52.62,87.56C57.48,82.41,62.27,77,73.51,64c10.78,-12.53,24.72,-17.77,31.64,-30.41,5.46,-10,4.9,-17.55,2.64,-22.32 M 0,0"/>
            </clipPath>
            <path d="M-0.55 -1.08H121.72V126.3H-0.55z" clip-path="url(#clip_2)" fill="#6d5064" fill-opacity="1"/>
        </g>
    </g>
    <g>
        <clipPath id="clip_1">
            <path d="M107.79,11.22A14.06,14.06 0,0 0,105.7 8C102.06,3.9 94.41,6.4 85.17,12.86c-5.39,3.77 -8.22,7.4 -9.82,11.62 1.1,7.63 9.21,11.13 15.06,10.55 6.52,-0.63 16.2,-5.69 17.38,-23.81 M 0,0"/>
        </clipPath>
        <path d="M63.04 -6.3H120.09V47.400000000000006H63.04z" clip-path="url(#clip_1)" fill="#815c72" fill-opacity="1"/>
    </g>
    <g>
        <clipPath id="clip_1">
            <path d="M10.58,70.49H46.44V109.81H10.58z M 0,0"/>
        </clipPath>
        <g clip-path="url(#clip_1)">
            <clipPath id="clip_2">
                <path d="M8.12 69.97H47.48V111.8H8.12z M 0,0"/>
            </clipPath>
            <g clip-path="url(#clip_2)">
                <clipPath id="clip_3">
                    <path d="M42.58,76.66c-0.73,-1,-1.52,-2,-2.25,-3,-0.39,-0.43,-0.74,-0.91,-1.13,-1.33A6.54,6.54,0,0,0,36,70.5h0c-0.9,-0.1,-1.9 0.92,-2.78,1.47,-2.35,1.47,-4.52,3.21,-6.93,4.93,-9,6.43,-16,15,-15.67,23.62a12.18,12.18,0,0,0,1.16,5.42,7.39,7.39,0,0,0,2.78,2.88,6.2,6.2,0,0,0,2.77,1,9.74,9.74,0,0,1,0.31,-4c0.86,-3,3,-6,5.27,-8.81,1.92,-2.4,6,-4.48,10.44,-6.4S42.86,86.79,46.44,85a38.49,38.49,0,0,0,-3.86,-8.29 M 0,0"/>
                </clipPath>
                <g clip-path="url(#clip_3)">
                    <clipPath id="clip_4">
                        <path d="M10.58 69.97H47.48V111.8H10.58z M 0,0"/>
                    </clipPath>
                    <path d="M-1.72 58.18H58.75V122.11H-1.72z" clip-path="url(#clip_4)" fill="#b1a8ac" fill-opacity="1"/>
                </g>
            </g>
        </g>
    </g>
    <g>
        <clipPath id="clip_1">
            <path d="M28.94,76.32l-9.79,8c-2.72,2.11 -4.67,5.15 -3,7.37a2,2 0,0 0,1.22 0.65c2.45,0.54 3.75,-1.59 6.15,-3.37l8.19,-6.06c3.55,-2.39 6.33,-5.56 4.55,-8s-5,-0.38 -7.31,1.35 M 0,0"/>
        </clipPath>
        <path d="M3.23 61.57H49.11V104.74000000000001H3.23z" clip-path="url(#clip_1)" fill="#815c72" fill-opacity="1"/>
    </g>
    <g>
        <clipPath id="clip_1">
            <path d="M42.9,75.74a33.63,33.63 0,0 0,-2.69 -3.6l-0.07,-0.07c-1.46,-1.42 -3.18,-2.74 -4.54,-1.68 2.21,0.2 4.73,3 6.12,5.07 3.19,4.91 6.19,10.69 5.09,15.76 -1.16,5.32 -6,7.17 -10.1,4.64 0,0 -0.74,-0.11 -0.75,-0.1 5.79,4.66 10.61,-0.05 11.58,-5.33 1.32,-5.5 -3.64,-13.1 -4.64,-14.69 M 0,0"/>
        </clipPath>
        <path d="M23.3 57.7H60.07000000000001V109.96000000000001H23.3z" clip-path="url(#clip_1)" fill="#dccdd2" fill-opacity="1"/>
    </g>
    <g>
        <clipPath id="clip_1">
            <path d="M75.68,38a3.26,3.26 0,0 0,-3.09 0.5c-2,7.34 -7.57,12.92 -17.09,19.08L36.05,70.13l0,0.37a6.54,6.54 0,0 1,3.2 1.86c0.39,0.42 0.74,0.9 1.13,1.33 0.73,1 1.52,2 2.25,3A38.49,38.49 0,0 1,46.44 85,19.45 19.45,0 0,0 49.59,83c5.54,-4.38 28.18,-29.2 29.56,-34.44 1.29,-4.94 0.19,-9.19 -3.47,-10.61 M 0,0"/>
        </clipPath>
        <path d="M23.7 25.47H91.97V97.26H23.7z" clip-path="url(#clip_1)" fill="#815c72" fill-opacity="1"/>
    </g>
    <g>
        <clipPath id="clip_1">
            <path d="M31.66,82.89c-2.73,2 -5.46,4 -8.18,6.06 -2.28,1.68 -3.55,3.93 -5.86,3.54a2.36,2.36 0,0 1,-1.44 -0.83c-1.66,-2.18 0.33,-5.21 3,-7.3l9.52,-7.79c2.45,-1.8 4.93,-4 7.51,-1.57 1.48,4 -1,5.49 -4.56,7.89 M 0,0"/>
        </clipPath>
        <path d="M3.27 61.64H48.96V104.84H3.27z" clip-path="url(#clip_1)" fill="#424343" fill-opacity="1"/>
    </g>
</svg>