<svg xmlns="http://www.w3.org/2000/svg" width="120.0" height="120.0" viewBox="0 0 120.0 120.0">
    <path d="M68.57,96S70,85.22 70.27,81.41c0,-0.19 0,-0.37 0.06,-0.55 0.22,-1.59 1,-8 1.72,-9.69a11,11 0,0 1,1.84 -3.58c0.59,-0.58 1.43,-0.58 1.76,-2s-2.59,-2.82 -2.59,-2.82 -4.1,-1.68 -3.47,-5.25S72.67,50.35 74.1,45c0.94,-3.53 8.76,-23.77 2.07,-33.84 -1.89,-2.85 -6.4,-4 -6.4,-4 2.48,5.25 2.41,33.24 -0.16,40.67s-8.42,13.8 -0.07,15.62c2.22,0.49 2.47,2.87 0.2,3.34a24.29,24.29 0,0 1,-7.94 0.19,63.91 63.91,0 0,1 -13.14,-3.65c0.27,0.6 1.05,0.89 1.77,1.35A3.79,3.79 0,0 1,51.69 67a3.51,3.51 0,0 1,0 0.57,6.81 6.81,0 0,1 3.63,-0.55 11.89,11.89 0,0 1,8.35 4.81,5.69 5.69,0 0,1 0.69,4.66 13.87,13.87 0,0 1,4 5A8.36,8.36 0,0 1,69 84.12c0,0.71 0,1.41 -0.07,2.11a5.35,5.35 0,0 1,-4.69 5c-0.84,0.1 -2,-0.24 -2.72,0a5,5 0,0 0,-2.18 1.49c-0.07,1.09 0.09,2.29 0,3.5 -0.21,4.68 -2.63,8.78 -5.6,9.93a8.44,8.44 0,0 0,0.25 1c0.14,0.43 0.61,1.12 0.33,1.75a1.89,1.89 0,0 1,-0.45 0.64,13 13,0 0,0 5,1.89c4.22,-1.83 9.13,-8.28 9.74,-15.46" fill="#c797a5" fill-opacity="1" fill-rule="evenodd"/>
    <g>
        <clipPath id="clip_1">
            <path d="M68.57,96S70,85.22 70.27,81.41c0,-0.19 0,-0.37 0.06,-0.55 0.22,-1.59 1,-8 1.72,-9.69a11,11 0,0 1,1.84 -3.58c0.59,-0.58 1.43,-0.58 1.76,-2s-2.59,-2.82 -2.59,-2.82 -4.1,-1.68 -3.47,-5.25S72.67,50.35 74.1,45c0.94,-3.53 8.76,-23.77 2.07,-33.84 -1.89,-2.85 -6.4,-4 -6.4,-4 2.48,5.25 2.41,33.24 -0.16,40.67s-8.42,13.8 -0.07,15.62c2.22,0.49 2.47,2.87 0.2,3.34a24.29,24.29 0,0 1,-7.94 0.19,63.91 63.91,0 0,1 -13.14,-3.65c0.27,0.6 1.05,0.89 1.77,1.35A3.79,3.79 0,0 1,51.69 67a3.51,3.51 0,0 1,0 0.57,6.81 6.81,0 0,1 3.63,-0.55 11.89,11.89 0,0 1,8.35 4.81,5.69 5.69,0 0,1 0.69,4.66 13.87,13.87 0,0 1,4 5A8.36,8.36 0,0 1,69 84.12c0,0.71 0,1.41 -0.07,2.11a5.35,5.35 0,0 1,-4.69 5c-0.84,0.1 -2,-0.24 -2.72,0a5,5 0,0 0,-2.18 1.49c-0.07,1.09 0.09,2.29 0,3.5 -0.21,4.68 -2.63,8.78 -5.6,9.93a8.44,8.44 0,0 0,0.25 1c0.14,0.43 0.61,1.12 0.33,1.75a1.89,1.89 0,0 1,-0.45 0.64,13 13,0 0,0 5,1.89c4.22,-1.83 9.13,-8.28 9.74,-15.46 M 0,0"/>
        </clipPath>
        <path d="M85.83 45.67H118.77V92.1H85.83z" clip-path="url(#clip_1)" fill="#ecbac9" fill-opacity="1"/>
    </g>
    <path d="M58.55,72.5c1.47,0.82 8.6,4.61 9.94,9.47 1.51,4.54 -0.22,10.29 -6.75,9.14l0.63,-0.24c4.29,0.21 7.27,-3.32 5.89,-8 -1.33,-4.44 -6.15,-7.66 -10.75,-10.11 -2,-1.07 -5.15,-2.13 -7,-1.33 0.61,-1.41 2.52,-1.13 4.27,-0.65l0.09,0a30.38,30.38 0,0 1,3.65 1.65" fill="#f3f3f3" fill-opacity="1" fill-rule="evenodd"/>
    <path d="M52.77,62.11s5.95,-6.45 6.62,-10.41C60.27,46.47 59,35.07 58.32,26c-0.54,-7.72 3.62,-20.12 11.45,-18.87 0,0 11.75,5.78 2.3,34.28 -5.73,17.27 -8.88,16.69 -6.53,19.65s6.37,6.18 3.12,5.6C63.51,65.72 52.77,62.11 52.77,62.11Z" fill="#eeb3c5" fill-opacity="1" fill-rule="evenodd"/>
    <g>
        <clipPath id="clip_1">
            <path d="M42.74,101.71c0.12,0.52 0.46,0.88 0.76,0.81s0.44,-0.55 0.31,-1.07 -0.46,-0.88 -0.76,-0.81 -0.43,0.55 -0.31,1.07 M 0,0"/>
        </clipPath>
        <path d="M33.17 91.14H53.39V112.02H33.17z" clip-path="url(#clip_1)" fill="#aaabac" fill-opacity="1"/>
    </g>
    <g>
        <clipPath id="clip_1">
            <path d="M54,107.17a8,8 0,0 1,-0.36 -3c0.17,-3 2.72,-7.59 4,-9.46 1,-1.35 2,-2.89 3.44,-3.45 2.25,-0.88 4,0 5.86,-1.89a7.08,7.08 0,0 0,1.63 -6.11,12.47 12.47,0 0,0 -4.32,-6.21c-0.7,2.62 -2.55,5.9 -5.92,9.69C52,94 46.84,104.85 53.85,109.57a2,2 0,0 0,0.45 -0.65c0.28,-0.63 -0.19,-1.32 -0.33,-1.75 M 0,0"/>
        </clipPath>
        <path d="M35.91 72.66H82.32V113.93H35.91z" clip-path="url(#clip_1)" fill="#d5d5d5" fill-opacity="1"/>
    </g>
    <g>
        <clipPath id="clip_1">
            <path d="M46.19,102.13a0.85,0.85 0,0 0,-0.62 1c0,0.37 0.35,0.7 0.62,0.64s0.57,-0.39 0.62,-0.78a0.67,0.67 0,0 0,-0.62 -0.86m0,0c0.49,0 0.79,0.41 0.85,0.84a1.08,1.08 0,0 1,-0.85 1.23,0.84 0.84,0 0,1 -0.85,-1 1.14,1.14 0,0 1,0.85 -1 M 0,0"/>
        </clipPath>
        <path d="M35.72 92.72H56.629999999999995V113.63H35.72z" clip-path="url(#clip_1)" fill="#c9c9c9" fill-opacity="1"/>
    </g>
    <g>
        <clipPath id="clip_1">
            <path d="M45.82,102.78c0.11,0.46 0.48,0.78 0.83,0.69a0.78,0.78 0,0 0,0.43 -1c-0.11,-0.47 -0.48,-0.78 -0.83,-0.7a0.79,0.79 0,0 0,-0.43 1 M 0,0"/>
        </clipPath>
        <path d="M36.27 92.27H56.620000000000005V112.97999999999999H36.27z" clip-path="url(#clip_1)" fill="#aaabac" fill-opacity="1"/>
    </g>
    <g>
        <clipPath id="clip_1">
            <path d="M55.35,67.06a6.81,6.81 0,0 0,-3.63 0.55A6.35,6.35 0,0 1,51.14 70a4.46,4.46 0,0 0,-0.56 1.4c0.81,-1.61 4.88,-0.36 6.45,0.44a37.71,37.71 0,0 1,7.36 4.71,5.65 5.65,0 0,0 -0.69,-4.66 11.89,11.89 0,0 0,-8.35 -4.81 M 0,0"/>
        </clipPath>
        <path d="M42.61 55.73H72.57V88.96H42.61z" clip-path="url(#clip_1)" fill="#eeb3c5" fill-opacity="1"/>
    </g>
    <g>
        <clipPath id="clip_1">
            <path d="M43.51,100.53a1,1 0,0 0,-0.58 1.08c0,0.35 0.28,0.75 0.49,0.7s0.5,-0.5 0.57,-0.87 0,-0.9 -0.48,-0.91m0,0a0.5,0.5 0,0 1,0.52 0.29,1.29 1.29,0 0,1 0.19,0.58 1.42,1.42 0,0 1,-0.1 0.69,1.08 1.08,0 0,1 -0.72,0.63 0.62,0.62 0,0 1,-0.67 -0.41,1.27 1.27,0 0,1 0,-0.67A2,2 0,0 1,43 101a0.89,0.89 0,0 1,0.56 -0.46 M 0,0"/>
        </clipPath>
        <path d="M32.97 91.19H53.879999999999995V112.1H32.97z" clip-path="url(#clip_1)" fill="#c9c9c9" fill-opacity="1"/>
    </g>
    <g>
        <clipPath id="clip_1">
            <path d="M52.85,82.92l-3.78,8.25c-1,2.29 -1.07,4.6 -3,5.28a2.06,2.06 0,0 1,-1.47 0c-2.24,-1 -2,-4.22 -0.8,-7l4.08,-10.17C49,76.8 50,74 53,74.8c2.86,2.46 1.56,4.73 -0.17,8.12 M 0,0"/>
        </clipPath>
        <path d="M29.51 68.11H67.81V103.05H29.51z" clip-path="url(#clip_1)" fill="#424242" fill-opacity="1"/>
    </g>
    <g>
        <clipPath id="clip_1">
            <path d="M50.48,71.54l0.06,-0.07 -0.06,0.07 M 0,0"/>
        </clipPath>
        <path d="M40.96 61.99H60.06V81.03H40.96z" clip-path="url(#clip_1)" fill="#424242" fill-opacity="1"/>
    </g>
    <g>
        <clipPath id="clip_1">
            <path d="M45.81,102.35a0.66,0.66 0,0 0,-0.5 0.76c0,0.4 0.29,0.71 0.58,0.69s0.52,-0.35 0.5,-0.75a0.66,0.66 0,0 0,-0.58 -0.7 M 0,0"/>
        </clipPath>
        <path d="M35.76 92.88H55.95V113.27H35.76z" clip-path="url(#clip_1)" fill="#e6e6e6" fill-opacity="1"/>
    </g>
    <g>
        <clipPath id="clip_1">
            <path d="M55.37,77.33c0.27,1.81 -0.75,3.67 -1.52,5.19l-4,8.75c-1.31,2.84 -1.21,5.24 -3.75,6.15a2.24,2.24 0,0 1,-1.71 0c-2.79,-1.22 -2.49,-4.63 -1.09,-7.9L46.7,81a29.12,29.12 0,0 1,2.42 -5c1,-1.25 1.92,-2.53 4,-1.85s2.11,2.19 2.25,3.14 M 0,0"/>
        </clipPath>
        <path d="M28.78 67.54H68.83V103.89000000000001H28.78z" clip-path="url(#clip_1)" fill="#c7c7c7" fill-opacity="1"/>
    </g>
    <g>
        <clipPath id="clip_1">
            <path d="M47.9,79q-2.09,5.24 -4.19,10.46c-1.21,2.82 -1.43,6 0.83,7a1.69,1.69 0,0 0,1.22 0c2.15,-0.64 2.24,-2.86 3.36,-5.28l3.78,-8.25c1.73,-3.4 2.55,-7.06 0.13,-8.17S49,76.6 47.9,79 M 0,0"/>
        </clipPath>
        <path d="M29.43 68.04H67.92V102.94H29.43z" clip-path="url(#clip_1)" fill="#eeb3c5" fill-opacity="1"/>
    </g>
    <g>
        <clipPath id="clip_1">
            <path d="M43.07,100.8c-0.26,0 -0.44,0.39 -0.42,0.83s0.26,0.79 0.51,0.78 0.44,-0.39 0.42,-0.83 -0.26,-0.8 -0.51,-0.78 M 0,0"/>
        </clipPath>
        <path d="M33.05 91.35H53.17999999999999V111.85H33.05z" clip-path="url(#clip_1)" fill="#e6e6e6" fill-opacity="1"/>
    </g>
    <g>
        <clipPath id="clip_1">
            <path d="M43.68,102.24l-0.29,0.11c-0.39,-0.25 -0.93,-0.84 -0.46,-1.43 0,0 0,-0.06 0,-0.09l0.17,0a2.89,2.89 0,0 1,0.56 1.37 M 0,0"/>
        </clipPath>
        <path d="M33.31 91.33H53.040000000000006V111.92H33.31z" clip-path="url(#clip_1)" fill="#aaabac" fill-opacity="1"/>
    </g>
    <g>
        <clipPath id="clip_1">
            <path d="M46.17,101.91 L46,102c-0.32,0.66 0.05,1.05 0.41,1.42h0.32a0.45,0.45 0,0 0,0.28 -0.2c0.16,-0.66 -0.13,-0.92 -0.5,-1.26l-0.31,0 M 0,0"/>
        </clipPath>
        <path d="M36.4 92.34H56.47V112.96000000000001H36.4z" clip-path="url(#clip_1)" fill="#424242" fill-opacity="1"/>
    </g>
    <g>
        <clipPath id="clip_1">
            <path d="M42.92,100.78a1.11,1.11 0,0 0,0.46 1.61l0.33,-0.06a2.17,2.17 0,0 0,-0.58 -1.5l-0.21,0 M 0,0"/>
        </clipPath>
        <path d="M33.27 91.26H53.09V112.01H33.27z" clip-path="url(#clip_1)" fill="#424242" fill-opacity="1"/>
    </g>
    <g>
        <clipPath id="clip_1">
            <path d="M30.593,83.698L58.023,66.909L75.908,96.13L48.479,112.919z M 0,0"/>
        </clipPath>
        <g clip-path="url(#clip_1)">
            <clipPath id="clip_2">
                <path d="M35.5 71.52H69.72V109.53999999999999H35.5z M 0,0"/>
            </clipPath>
            <g clip-path="url(#clip_2)">
                <clipPath id="clip_3">
                    <path d="M58.34,86.79c3.37,-3.8,5.22,-7.07,5.92,-9.69a39.09,39.09,0,0,0,-5.54,-3.85c-1,-.48,-2,-.87,-3,-1.35,-.49,-.16,-1,-.38,-1.46,-.55a5.71,5.71,0,0,0,-3.32,-.06c-.75.31,-1.09,1.53,-1.54,2.33,-1.2,2.16,-2.15,4.46,-3.29,6.84,-4.27,8.9,-6,18.59,-2.06,25.17,1.18,2,2.94,4.64,6.64,4.78a4.36,4.36,0,0,0,3.19,-.84c-7,-4.72,-1.86,-15.62,4.49,-22.78 M 0,0"/>
                </clipPath>
                <g clip-path="url(#clip_3)">
                    <clipPath id="clip_4">
                        <path d="M36.76 71.17H69.08V107.28999999999999H36.76z M 0,0"/>
                    </clipPath>
                    <path d="M27.67 63.28H78.84V116.55000000000001H27.67z" clip-path="url(#clip_4)" fill="#eeeeee" fill-opacity="1"/>
                </g>
            </g>
        </g>
    </g>
    <g>
        <clipPath id="clip_1">
            <path d="M58.55,72.5c1.47,0.82 8.6,4.61 9.94,9.47 1.51,4.54 -0.22,10.29 -6.75,9.14l0.63,-0.24c4.29,0.21 7.27,-3.32 5.89,-8 -1.33,-4.44 -6.15,-7.66 -10.75,-10.11 -2,-1.07 -5.15,-2.13 -7,-1.33 0.61,-1.41 2.52,-1.13 4.27,-0.65l0.09,0a30.38,30.38 0,0 1,3.65 1.65 M 0,0"/>
        </clipPath>
        <path d="M45.96 57.43H75.78999999999999V101.22999999999999H45.96z" clip-path="url(#clip_1)" fill="#c7c7c7" fill-opacity="1"/>
    </g>
    <g>
        <clipPath id="clip_1">
            <path d="M53.85,109.57a2,2 0,0 0,0.45 -0.65c0.28,-0.63 -0.19,-1.32 -0.33,-1.75a8.44,8.44 0,0 1,-0.25 -1l0,0c0.12,0.75 0.69,1.75 0.68,2.34 0,0.81 -0.84,1.3 -1.28,1.5a6.92,6.92 0,0 1,-5.72 -0.65l-1.33,-1 0.08,0.22A16.68,16.68 0,0 0,49.57 111a10.93,10.93 0,0 0,9.26 0.45,13.19 13.19,0 0,1 -5,-1.88 M 0,0"/>
        </clipPath>
        <path d="M38.23 95.72H66.58V124.08H38.23z" clip-path="url(#clip_1)" fill="#eeb3c5" fill-opacity="1"/>
    </g>
    <g>
        <clipPath id="clip_1">
            <path d="M63.22,11.52c-5.62,7.92 -3.08,22.57 -3.06,31.32 0,2.54 -0.54,6.1 -0.77,8.86 -0.32,3.76 -4.54,7 -7.45,8.7 -0.91,0.52 -2.46,0.17 -3,1.24a1.84,1.84 0,0 0,-0.26 1.65A63.91,63.91 0,0 0,61.8 66.94a24.29,24.29 0,0 0,7.94 -0.19c2.27,-0.47 2,-2.85 -0.2,-3.34 -8.35,-1.83 -2.54,-8.07 0.07,-15.62s7.71,-28.75 1.92,-40c-2.8,-0.12 -7,1.8 -8.31,3.69 M 0,0"/>
        </clipPath>
        <path d="M30.06 7.38H96.76V76.05H30.06z" clip-path="url(#clip_1)" fill="#eeb3c5" fill-opacity="1"/>
    </g>
    <path d="M-68.3,-3022.22H675.7V912.89H-68.3z" fill="#000000" fill-opacity="0" stroke="#32dd14" stroke-opacity="1" stroke-width="11.07"/>
</svg>