<svg xmlns="http://www.w3.org/2000/svg" width="120.0" height="120.0" viewBox="0 0 120.0 120.0">
    <path d="M100.33,57.62l1,0.27c2.37,0.54 4.86,0.49 7.13,1.46a3.21,3.21 0,0 1,0.78 0.46,1.17 1.17,0 0,1 0.32,1.55 31.87,31.87 0,0 1,-3.16 5A31,31 0,0 1,104.1 69a25.63,25.63 0,0 1,-7.8 5.29,34.37 34.37,0 0,1 -5.62,2 37.12,37.12 0,0 1,-4.9 0.93A35,35 0,0 1,76 77.11c-3.08,-0.52 -6.16,-1.63 -9.33,-1.25a16.69,16.69 0,0 0,-3.72 1A61.8,61.8 0,0 0,50.8 83.39c-2.83,1.75 -5.68,3.46 -8.59,5.07a78.42,78.42 0,0 1,-7.08 3.6,20.88 20.88,0 0,1 -5.74,1.66 15.73,15.73 0,0 1,-8.21 -1.19,16.84 16.84,0 0,1 -5.85,-4.21 21.77,21.77 0,0 1,-3 -4.19,28.45 28.45,0 0,1 -2.43,-6 2.66,2.66 0,0 1,0.21 -2.1,7.11 7.11,0 0,1 1.27,-1.71c3.67,-3.81 8.6,-6.65 12.8,-9.85A74.9,74.9 0,0 0,38 51.12c1.82,-2.33 3.54,-4.73 5.38,-7q1.55,-1.94 3.22,-3.75A24,24 0,0 1,57 33.57,20.25 20.25,0 0,1 59.31,33a20.59,20.59 0,0 1,12.93 1.41,24.66 24.66,0 0,1 7.34,5.75c0.73,0.82 1.49,1.63 2.22,2.45s1.34,1.55 2,2.33c1.78,2.07 3.56,4.15 5.46,6.13a28,28 0,0 0,5.65 4.19A21.35,21.35 0,0 0,100.33 57.62ZM59.56,44.52a12.69,12.69 0,0 0,0.2 2.3,7.77 7.77,0 0,0 1.41,3.5A12.29,12.29 0,0 0,64 53a16.19,16.19 0,0 0,1.44 0.87c0.16,0.09 0.25,0.06 0.3,-0.12l0.09,-0.31a17.67,17.67 0,0 0,0.51 -3.9,19.75 19.75,0 0,0 -0.27,-3.43 15.89,15.89 0,0 0,-2.2 -6.15A8.57,8.57 0,0 0,62 37.74c-0.27,-0.21 -0.3,-0.21 -0.5,0.08a8.86,8.86 0,0 0,-0.79 1.37A13.39,13.39 0,0 0,59.56 44.52Z" fill="#ffc217" fill-opacity="1"/>
    <path d="M104.12,69a25.71,25.71 0,0 1,-7.79 5.29,34.11 34.11,0 0,1 -5.63,2A37.11,37.11 0,0 1,76 77.16c-3.08,-0.52 -6.16,-1.64 -9.32,-1.25a16,16 0,0 0,-3.72 1,45.37 45.37,0 0,0 3.91,-2.34c2.48,-1.8 4.64,-4 7.1,-5.83A13.41,13.41 0,0 1,83.2 66a29,29 0,0 1,4.6 0.9l4.89,1.23a55.71,55.71 0,0 0,6.51 1.35,15.17 15.17,0 0,0 2.52,0.16 3.59,3.59 0,0 0,1.18 -0.17Z" fill="#cc8e05" fill-opacity="1"/>
    <path d="M106.68,60.13a26.22,26.22 0,0 1,-10.22 -3,25.63 25.63,0 0,1 -4.47,-3c-1.4,-1.21 -2.31,-2.73 -3.58,-4 1.5,1 2.66,2.41 4,3.42a42.12,42.12 0,0 0,4.46 2.72A52.79,52.79 0,0 0,106.68 60.13Z" fill="#ffd16c" fill-opacity="1"/>
    <path d="M56.58,35.61a13.47,13.47 0,0 1,3.51 0.66,7.35 7.35,0 0,1 1,0.43A6,6 0,0 1,63 38.36a21.39,21.39 0,0 1,2.44 5,19 19,0 0,1 0.89,5.36c0.36,3.42 0.15,6.69 -1.65,9.77A33.12,33.12 0,0 1,54.61 68.94,66.17 66.17,0 0,1 33.23,78a55.21,55.21 0,0 1,-10 1.54,49.52 49.52,0 0,1 -6.56,0 12.59,12.59 0,0 1,-5.87 -1.48,1.69 1.69,0 0,1 -0.53,-0.5 1.38,1.38 0,0 1,-0.15 -0.94,4.56 4.56,0 0,1 1.25,-2.32c3.68,-3.81 8.6,-6.64 12.8,-9.85A74.64,74.64 0,0 0,38 51.11c2.59,-3.33 5,-6.73 7.85,-9.89l0.2,-0.23a23.86,23.86 0,0 1,3.48 -3.41,9.91 9.91,0 0,1 5,-1.93A15.45,15.45 0,0 1,56.58 35.61ZM59.58,44.51a12.69,12.69 0,0 0,0.2 2.3,7.84 7.84,0 0,0 1.41,3.5A12.12,12.12 0,0 0,64 53a13,13 0,0 0,1.43 0.87c0.16,0.09 0.26,0.06 0.3,-0.12l0.09,-0.3a17.18,17.18 0,0 0,0.51 -3.91,18.81 18.81,0 0,0 -0.26,-3.43 16.17,16.17 0,0 0,-2.2 -6.15A8.4,8.4 0,0 0,62 37.74c-0.27,-0.21 -0.3,-0.21 -0.5,0.07a8.86,8.86 0,0 0,-0.79 1.37A13.39,13.39 0,0 0,59.56 44.51Z" fill="#eaac0f" fill-opacity="1"/>
    <path d="M40.69,50.76l-1.24,0.8a17.5,17.5 0,0 1,-3.72 2.29s2.47,-3 2.3,-2.77c2.53,-3.34 5,-6.72 7.82,-9.86l0.2,-0.23a23.86,23.86 0,0 1,3.48 -3.41,9.91 9.91,0 0,1 5,-1.93 15.45,15.45 0,0 1,2 0,13.47 13.47,0 0,1 3.51,0.66 7.35,7.35 0,0 1,1 0.43A6,6 0,0 1,63 38.36a21.39,21.39 0,0 1,2.44 5,19 19,0 0,1 0.89,5.36 19.41,19.41 0,0 1,-0.1 5.55,10.94 10.94,0 0,0 -1.37,-0.75 12.55,12.55 0,0 1,-3 -2.38,8 8,0 0,1 -2.19,-4.93c-0.12,-0.87 -1.3,-1.17 -2,-1.33 -5.06,-1.18 -10,1.71 -14.24,4.2C42.5,49.62 41.59,50.19 40.69,50.76ZM59.56,44.51a12.69,12.69 0,0 0,0.2 2.3,7.84 7.84,0 0,0 1.41,3.5A12.12,12.12 0,0 0,64 53a13,13 0,0 0,1.43 0.87c0.16,0.09 0.26,0.06 0.3,-0.12l0.09,-0.3a17.18,17.18 0,0 0,0.51 -3.91,18.81 18.81,0 0,0 -0.26,-3.43 16.17,16.17 0,0 0,-2.2 -6.15A8.4,8.4 0,0 0,62 37.74c-0.27,-0.21 -0.3,-0.21 -0.5,0.07a8.86,8.86 0,0 0,-0.79 1.37A13.39,13.39 0,0 0,59.56 44.51Z" fill="#e2a100" fill-opacity="1"/>
    <path d="M12,78.77a46.37,46.37 0,0 0,10.91 0.39,56.71 56.71,0 0,0 10.74,-1.88 66.18,66.18 0,0 0,19.89 -8.64,35.16 35.16,0 0,0 8.05,-7.19 25.1,25.1 0,0 0,3 -4.5,17.45 17.45,0 0,0 1.6,-5.09 16.56,16.56 0,0 0,-0.06 -5.35,20.56 20.56,0 0,0 -1.68,-5.13A10.69,10.69 0,0 0,61.28 37a9,9 0,0 0,-5.14 -1.5,8.63 8.63,0 0,1 5.28,1.3 11,11 0,0 1,3.4 4.34,20.66 20.66,0 0,1 1.85,5.22 17.23,17.23 0,0 1,-1.39 10.91,26 26,0 0,1 -3,4.68 36,36 0,0 1,-8.19 7.44A65.16,65.16 0,0 1,33.83 78a56.5,56.5 0,0 1,-10.89 1.63A43.6,43.6 0,0 1,12 78.77Z" fill="#ffd16c" fill-opacity="1"/>
    <path d="M100.41,58l1.55,0.3c0.36,0.07 0.74,0.1 1.1,0.15l1.46,0.2c1,0.14 2,0.31 2.9,0.53a6.22,6.22 0,0 1,1 0.32l0.44,0.2a1.12,1.12 0,0 1,0.37 0.24,0.51 0.51,0 0,1 0.07,0.17 0.21,0.21 0,0 1,0 0.17,0.39 0.39,0 0,1 -0.14,0.08 4.08,4.08 0,0 1,-1.9 -0.11c-1,-0.21 -1.89,-0.46 -2.83,-0.74a18,18 0,0 1,-2.63 -0.95c-0.11,-0.05 -0.23,-0.08 -0.34,-0.14Z" fill="#e2a100" fill-opacity="1"/>
    <path d="M-139.38,-379.13H728.09V294.88H-139.38z" fill="#000000" fill-opacity="0" stroke="#3299fe" stroke-opacity="1" stroke-width="19.72"/>
</svg>