<svg xmlns="http://www.w3.org/2000/svg" width="120.0" height="120.0" viewBox="0 0 120.0 120.0">
    <path d="M86.28,6.84c4.64,1.85 10.5,2.88 12.85,6.31 1.36,2 3.66,10.5 2.31,14.15A109.84,109.84 0,0 1,91.15 47.05c-1.57,2.5 -3.44,6.62 -5.37,8.56 0,0 1.53,-9.7 1.18,-13.81 -0.87,-10.12 -2.73,-19.46 -10.07,-25.07C75.14,15.4 66,12.36 63.73,12.55c1,-0.47 2.08,-1.06 3.12,-1.53C70.15,9.5 73.51,8.16 77,6.8c1.6,-0.63 3.1,-1.79 5.4,-1.3Z" fill="#000000" fill-opacity="1"/>
    <path d="M55.26,17.61 L42.8,24.93 39.11,27.4c-4.37,2.36 -9,5.54 -11.93,9.89 -1.57,2.3 -4.81,7.89 -4.76,11.91 0.13,0.12 -0.78,3.34 -0.81,4.4Q20.94,59.29 20.27,65c0.05,1.6 -1.52,14.71 -1.08,19.91 0.38,4.41 -0.25,10.47 0.39,15.34 0.27,2 1.2,4.3 1.41,6.11 -1.31,-1.78 -1.76,-5.18 -2,-7.62a143.16,143.16 0,0 1,-0.79 -18.18c0,-7 0.93,-22.13 1.24,-25.54s2.32,-12 4.52,-15.47c2.93,-4.67 4.85,-6.16 9,-9.27a125.27,125.27 0,0 1,13.72 -8.41c4,-2.16 7.77,-4.68 11.89,-6.74 1.76,-0.88 3.24,-2.12 5.57,-2.2Z" fill="#000000" fill-opacity="1"/>
    <path d="M81.66,23.28c3.56,6.62 4.28,12 5,20.63 0.31,3.48 -0.1,9.48 -1.84,13.44C83,61.53 79.94,65 77.53,68.63 71.79,77.3 65.75,85.65 60,94.05c-5,7.36 -10.75,15.21 -18.44,18.77 -2.14,1 -5.89,2.76 -9.23,1.14 -3.68,-1.79 -4.94,-5.78 -5.38,-9.85 -0.82,-7.5 0.23,-15.34 0.27,-23.57 0,-4.17 0.84,-8.51 0.92,-13 0.32,-2.38 0.41,-5 0.72,-7.41C29,53.68 33,45.81 35.53,42c2.95,-4.35 7.46,-7.4 11.83,-9.75 3.65,-2 6.63,-5.17 10.33,-7.13 4.09,-2.16 8.72,-4.62 12.9,-6.71 1.39,-0.7 3.44,-1.94 5.06,-2.09C77.57,18.47 80.32,20.79 81.66,23.28Z" fill="#000000" fill-opacity="1"/>
    <path d="M20.77,106.19c-0.08,-0.17 0,-0.13 0,-0.24Z" fill="#000000" fill-opacity="1"/>
    <path d="M20.81,106.43a0.71,0.71 0,0 1,0.1 -0.14A0.71,0.71 0,0 0,20.81 106.43Z" fill="#000000" fill-opacity="1"/>
    <path d="M62.51,12.89l0.15,0Z" fill="#000000" fill-opacity="1"/>
    <path d="M59.37,94c5.72,-8.4 11.76,-16.75 17.5,-25.43 2.42,-3.64 5.5,-7.09 7.34,-11.28a6.81,6.81 0,0 0,1.3 -2.17c1.79,-2.07 3.52,-5.79 5,-8.12 3.75,-6 7.61,-12.52 10.3,-19.75 1.35,-3.65 -1,-12.17 -2.31,-14.15a6.9,6.9 0,0 0,-0.47 -0.6,17.55 17.55,0 0,0 -6,-1.66c-3.84,-0.1 -29.62,12.27 -40.85,19.32s-19.43,8.4 -22,32.81 -5.3,48.33 4,51a17.05,17.05 0,0 0,2.78 0.49,18.05 18.05,0 0,0 5,-1.69C48.61,109.21 54.34,101.36 59.37,94Z" fill="#dcdcdc" fill-opacity="1"/>
    <path d="M86.28,6.84c4.64,1.85 10.5,2.88 12.85,6.31 1.36,2 3.66,10.5 2.31,14.15A109.84,109.84 0,0 1,91.15 47.05c-1.57,2.5 -3.44,6.62 -5.37,8.56 0,0 1.53,-9.7 1.18,-13.81 -0.87,-10.12 -2.73,-19.46 -10.07,-25.07C75.14,15.4 66,12.36 63.73,12.55c1,-0.47 2.08,-1.06 3.12,-1.53C70.15,9.5 73.51,8.16 77,6.8c1.6,-0.63 3.1,-1.79 5.4,-1.3Z" fill="#000000" fill-opacity="1"/>
    <path d="M55.26,17.61 L42.8,24.93 39.11,27.4c-4.37,2.36 -9,5.54 -11.93,9.89 -1.57,2.3 -4.81,7.89 -4.76,11.91 0.13,0.12 -0.78,3.34 -0.81,4.4Q20.94,59.29 20.27,65c0.05,1.6 -1.52,14.71 -1.08,19.91 0.38,4.41 -0.25,10.47 0.39,15.34 0.27,2 1.2,4.3 1.41,6.11 -1.31,-1.78 -1.76,-5.18 -2,-7.62a143.16,143.16 0,0 1,-0.79 -18.18c0,-7 0.93,-22.13 1.24,-25.54s2.32,-12 4.52,-15.47c2.93,-4.67 4.85,-6.16 9,-9.27a125.27,125.27 0,0 1,13.72 -8.41c4,-2.16 7.77,-4.68 11.89,-6.74 1.76,-0.88 3.24,-2.12 5.57,-2.2Z" fill="#d1d1d1" fill-opacity="1" fill-rule="evenodd"/>
    <path d="M81.66,23.28c3.56,6.62 4.28,12 5,20.63 0.31,3.48 -0.1,9.48 -1.84,13.44C83,61.53 79.94,65 77.53,68.63 71.79,77.3 65.75,85.65 60,94.05c-5,7.36 -10.75,15.21 -18.44,18.77 -2.14,1 -5.89,2.76 -9.23,1.14 -3.68,-1.79 -4.94,-5.78 -5.38,-9.85 -0.82,-7.5 0.23,-15.34 0.27,-23.57 0,-4.17 0.84,-8.51 0.92,-13 0.32,-2.38 0.41,-5 0.72,-7.41C29,53.68 33,45.81 35.53,42c2.95,-4.35 7.46,-7.4 11.83,-9.75 3.65,-2 6.63,-5.17 10.33,-7.13 4.09,-2.16 8.72,-4.62 12.9,-6.71 1.39,-0.7 3.44,-1.94 5.06,-2.09C77.57,18.47 80.32,20.79 81.66,23.28Z" fill="#000000" fill-opacity="1"/>
    <path d="M20.77,106.19c-0.08,-0.17 0,-0.13 0,-0.24Z" fill="#000000" fill-opacity="1"/>
    <path d="M20.81,106.43a0.71,0.71 0,0 1,0.1 -0.14A0.71,0.71 0,0 0,20.81 106.43Z" fill="#000000" fill-opacity="1"/>
    <path d="M62.51,12.89l0.15,0Z" fill="#000000" fill-opacity="1"/>
    <path d="M59.37,94c5.72,-8.4 11.76,-16.75 17.5,-25.43 2.42,-3.64 5.5,-7.09 7.34,-11.28a6.81,6.81 0,0 0,1.3 -2.17c1.79,-2.07 3.52,-5.79 5,-8.12 3.75,-6 7.61,-12.52 10.3,-19.75 1.35,-3.65 -1,-12.17 -2.31,-14.15a6.9,6.9 0,0 0,-0.47 -0.6,17.55 17.55,0 0,0 -6,-1.66c-3.84,-0.1 -29.62,12.27 -40.85,19.32s-19.43,8.4 -22,32.81 -5.3,48.33 4,51a17.05,17.05 0,0 0,2.78 0.49,18.05 18.05,0 0,0 5,-1.69C48.61,109.21 54.34,101.36 59.37,94Z" fill="#dcdcdc" fill-opacity="1"/>
    <path d="M28.44,108.2s5,-2.18 5.47,-4.73 1.65,-41.35 0.56,-43.22A19.39,19.39 0,0 1,32 55.06a29.8,29.8 0,0 1,-0.15 -4.6,56.44 56.44,0 0,0 -2.82,11.8c-1,7.12 -2.59,24.11 -2.31,30.35S27,107.3 28.44,108.2Z" fill="#000000" fill-opacity="1"/>
    <path d="M24.6,78c-1.23,-0.52 -2.45,-1.07 -3.68,-1.58 -0.27,-0.11 -0.61,-0.42 -0.84,0a0.64,0.64 0,0 0,0.35 0.92c1.4,0.64 2.82,1.25 4.24,1.85 0.33,0.14 0.56,0 0.59,-0.35A0.88,0.88 0,0 0,24.6 78Z" fill="#b5a38c" fill-opacity="1"/>
    <path d="M22.29,60.28a1.55,1.55 0,0 1,1.28 2.3,0.93 0.93,0 0,0 0,0.33c0,0.36 0.13,0.74 0.52,0.77s0.38,-0.41 0.43,-0.69c0.23,-1.47 0.23,-1.47 1.72,-1 0.25,0.08 0.53,0.21 0.7,-0.09a0.53,0.53 0,0 0,-0.21 -0.74,2.3 2.3,0 0,0 -0.7,-0.35c-1,-0.25 -1.38,-0.79 -1,-1.61 0,-0.24 0.05,-0.35 0.06,-0.46 0,-0.43 0.26,-1.05 -0.36,-1.12s-0.42,0.61 -0.48,1c-0.22,1.3 -0.23,1.31 -1.52,0.79 -0.3,-0.12 -0.67,-0.41 -0.89,0A0.61,0.61 0,0 0,22.29 60.28Z" fill="#b5a38c" fill-opacity="1"/>
    <path d="M84.86,57.35c2.59,-2.76 2.63,-9.39 2.43,-13.12 -0.53,-10.45 -2.06,-19.69 -8.37,-26.06a22.73,22.73 0,0 0,-1.69 -1.54,10.29 10.29,0 0,0 -1.56,-1c-8.51,3.93 -24.84,11.93 -35.51,20S29.36,53.78 27.67,71.22c-1.48,15.17 -4.12,35.36 2.64,42.26a4.58,4.58 0,0 0,2.12 0.5c-3.11,-1 -3.86,-4.49 -4.5,-7.31 -2.32,-10.11 1.58,-44 1.91,-46.43 0.34,-2 0.67,-3.93 1,-5.9C33.29,41.2 40.94,36.52 48.93,31.5c5,-3.15 9.11,-6 14.11,-8.57l12,-6.1a20.59,20.59 0,0 1,3.2 2.8c6.2,6.64 7.65,16.93 8,27.49 -0.13,2.1 -0.26,5.41 -0.4,6.32S84.85,57.4 84.86,57.35Z" fill="#b5a38c" fill-opacity="1"/>
    <path d="M62.47,13.09c0.86,-0.24 1.4,-0.22 1.14,-0.06s-7.6,3.9 -10.1,5.33C47,22.07 40.4,26.12 34.3,30.22a31.33,31.33 0,0 0,-6.08 5.52A26.31,26.31 0,0 0,22.12 49c-0.92,4.69 -1.81,12.54 -2.07,14.36s-0.81,7.51 -0.8,8.4c-0.16,3.64 -0.35,8.59 -0.46,10.8s-0.55,21 3.06,25.54c-3.38,-6.73 -3.75,-23.84 -1.77,-41.62 2.2,-19.67 2.3,-26.3 13.93,-35.35C43.74,23.5 61,15 66.38,12.39l-0.29,-0.07A4.55,4.55 0,0 0,62.47 13.09Z" fill="#e6e6e6" fill-opacity="1"/>
    <path d="M65.78,12.68A34.69,34.69 0,0 1,75 15.9l0.64,-0.3a37.82,37.82 0,0 0,-9.29 -3.21Z" fill="#b5a38c" fill-opacity="1"/>
    <path d="M65.78,12.68l-0.39,0.19c-6.25,3 -22.18,11.05 -31.38,18.21C22.38,40.13 22.28,46.76 20.08,66.43c-2,17.78 -1.61,34.89 1.77,41.62l0.09,0.13a16.66,16.66 0,0 0,4 3,33 33,0 0,0 4.37,2.33c-6.76,-6.9 -4.12,-27.09 -2.64,-42.26 1.69,-17.44 1.77,-27.54 12.49,-35.63C50.5,27.78 66.14,20 74.84,16L75,15.9A34.69,34.69 0,0 0,65.78 12.68Z" fill="#f3ece1" fill-opacity="1"/>
    <path d="M65.78,12.68A250.13,250.13 0,0 0,40 27,58 58,0 0,0 28.54,36.3a23.41,23.41 0,0 0,-4 6.16,34.15 34.15,0 0,0 -2.12,7c-0.94,4.83 -1.39,9.74 -1.94,14.64s-1,9.8 -1.24,14.71a137.12,137.12 0,0 0,0 14.76,72 72,0 0,0 0.77,7.33 27.21,27.21 0,0 0,2 7l0,0a15.38,15.38 0,0 0,3.95 3,34.08 34.08,0 0,0 4.42,2.36l-0.27,0.4a14.81,14.81 0,0 1,-3.39 -6.92,40.87 40.87,0 0,1 -1,-7.62 118.82,118.82 0,0 1,0.49 -15.33c0.42,-5.09 1,-10.16 1.48,-15.24s0.87,-10.19 1.84,-15.22A36.38,36.38 0,0 1,31.71 46a23.92,23.92 0,0 1,4.07 -6.51,31.16 31.16,0 0,1 5.76,-5.06c2.08,-1.48 4.21,-2.91 6.38,-4.25A255.33,255.33 0,0 1,75 15.86v0.07A36.09,36.09 0,0 0,65.78 12.68ZM65.78,12.68A36.64,36.64 0,0 1,75 15.86l0.07,0 -0.07,0a266.47,266.47 0,0 0,-27 14.44c-2.16,1.34 -4.28,2.77 -6.35,4.26a31,31 0,0 0,-5.7 5,24 24,0 0,0 -4,6.44 36,36 0,0 0,-2.1 7.31c-0.95,5 -1.31,10.1 -1.8,15.18s-1,10.16 -1.43,15.25a119.7,119.7 0,0 0,-0.46 15.26,40.56 40.56,0 0,0 1,7.54 14.35,14.35 0,0 0,3.26 6.68l0.84,0.87 -1.11,-0.47a32.82,32.82 0,0 1,-4.49 -2.41,15.74 15.74,0 0,1 -4.06,-3.11v0a26.89,26.89 0,0 1,-2 -7.15,70.52 70.52,0 0,1 -0.76,-7.37 143.25,143.25 0,0 1,0 -14.8c0.25,-4.93 0.72,-9.85 1.28,-14.74s1,-9.81 2,-14.66a34.55,34.55 0,0 1,2.16 -7.09,23.36 23.36,0 0,1 4,-6.22 56.8,56.8 0,0 1,11.5 -9.28A250.56,250.56 0,0 1,65.78 12.68Z" fill="#b5a38c" fill-opacity="1"/>
    <path d="M29.33,40.81a4,4 0,0 1,0.6 0,1.55 1.55,0 0,1 1.25,1.94A3.81,3.81 0,0 1,29 45.61a2.29,2.29 0,0 1,-0.9 0.2,1.68 1.68,0 0,1 -1.53,-1A2.4,2.4 0,0 1,26.93 42a3,3 0,0 1,2.4 -1.19m0,-1a4,4 0,0 0,-3.18 1.54,3.41 3.41,0 0,0 -0.53,3.85 2.67,2.67 0,0 0,2.43 1.61,3.18 3.18,0 0,0 1.32,-0.29A4.82,4.82 0,0 0,32.16 43a2.49,2.49 0,0 0,-2 -3.1,4.08 4.08,0 0,0 -0.77,-0.07Z" fill="#000000" fill-opacity="1" stroke="#b5a38c" stroke-opacity="1" stroke-width="1.0"/>
    <path d="M24.91,78.94a0.37,0.37 0,0 1,-0.15 0q-2.13,-0.9 -4.23,-1.84a0.48,0.48 0,0 1,-0.27 -0.27,0.38 0.38,0 0,1 0,-0.31c0,-0.07 0.06,-0.07 0.07,-0.07a0.9,0.9 0,0 1,0.27 0.11l0.18,0.09c0.75,0.31 1.49,0.64 2.24,1l1.44,0.62c0.37,0.16 0.5,0.32 0.51,0.6S24.94,78.94 24.91,78.94Z" fill="#ddd5c7" fill-opacity="1"/>
    <path d="M20.51,76.74h0l0.2,0.1 2.23,1 1.45,0.63a0.8,0.8 0,0 1,0.28 0.17c-1.28,-0.54 -2.66,-1.13 -4.05,-1.76a0.25,0.25 0,0 1,-0.12 -0.1m-0.14,-0.57a0.32,0.32 0,0 0,-0.29 0.2,0.64 0.64,0 0,0 0.35,0.92c1.4,0.64 2.82,1.25 4.24,1.85a0.79,0.79 0,0 0,0.24 0c0.2,0 0.33,-0.14 0.35,-0.4A0.88,0.88 0,0 0,24.6 78c-1.23,-0.52 -2.45,-1.07 -3.68,-1.58a1.71,1.71 0,0 0,-0.55 -0.22Z" fill="#b5a38c" fill-opacity="1"/>
    <path d="M24.08,63.43c-0.23,0 -0.29,-0.29 -0.29,-0.52a0.71,0.71 0,0 1,0 -0.25A1.8,1.8 0,0 0,22.35 60a0.48,0.48 0,0 1,-0.33 -0.22,0.29 0.29,0 0,1 0,-0.27c0,-0.11 0.08,-0.11 0.1,-0.11a0.85,0.85 0,0 1,0.3 0.11l0.17,0.07a3.25,3.25 0,0 0,1.09 0.34c0.54,0 0.62,-0.47 0.76,-1.32a1.83,1.83 0,0 0,0 -0.34,1.35 1.35,0 0,1 0,-0.37s0,-0.06 0.11,-0.06 0.18,0 0.21,0.07 0,0.32 0,0.51 0,0.2 0,0.28 0,0.13 0,0.23l0,0.22a1.2,1.2 0,0 0,0 1.06,1.74 1.74,0 0,0 1.23,0.82 1.93,1.93 0,0 1,0.62 0.32,0.28 0.28,0 0,1 0.13,0.41c0,0.06 -0.05,0.06 -0.08,0.06a0.84,0.84 0,0 1,-0.24 -0.06,5.08 5.08,0 0,0 -1.27,-0.32c-0.62,0 -0.71,0.53 -0.86,1.48 0,0.08 0,0.14 0,0.21 0,0.28 0,0.28 -0.11,0.28Z" fill="#ddd5c7" fill-opacity="1"/>
    <path d="M24.36,59.87a1.4,1.4 0,0 0,0.12 0.47,2 2,0 0,0 1.4,1 1.34,1.34 0,0 1,0.43 0.2,4.47 4.47,0 0,0 -1.21,-0.29 0.86,0.86 0,0 0,-0.88 0.65,1.88 1.88,0 0,0 -0.23,-1 1.85,1.85 0,0 0,-0.68 -0.68,1.42 1.42,0 0,0 0.38,0.06 0.73,0.73 0,0 0,0.67 -0.33m0.24,-2.26c-0.51,0 -0.34,0.64 -0.39,1 -0.14,0.8 -0.19,1.11 -0.52,1.11a3.5,3.5 0,0 1,-1 -0.32,1.8 1.8,0 0,0 -0.56,-0.2 0.36,0.36 0,0 0,-0.33 0.25,0.61 0.61,0 0,0 0.49,0.85 1.55,1.55 0,0 1,1.28 2.3,0.93 0.93,0 0,0 0,0.33c0,0.36 0.13,0.74 0.52,0.77h0.06c0.4,0 0.32,-0.42 0.37,-0.69 0.15,-0.94 0.2,-1.28 0.61,-1.28a4.68,4.68 0,0 1,1.11 0.28,1.47 1.47,0 0,0 0.4,0.1 0.34,0.34 0,0 0,0.3 -0.19,0.53 0.53,0 0,0 -0.21,-0.74 2.3,2.3 0,0 0,-0.7 -0.35c-1,-0.25 -1.38,-0.79 -1,-1.61 0,-0.24 0.05,-0.35 0.06,-0.46 0,-0.43 0.26,-1.05 -0.36,-1.12Z" fill="#b5a38c" fill-opacity="1"/>
    <path d="M97.17,12.57l-0.23,0.1C87.2,17.26 38,39.3 36.67,41.23c-1.42,2.11 -2.21,2.67 -2,4.38s8.52,12 7.18,21 -1.1,8.68 0.17,8.3 3.57,-7.17 4.46,-9.65c0.81,-2.26 45.78,-40.47 53.48,-47l0,0C99,14.51 97.78,13.08 97.17,12.57Z" fill="#e6e6e6" fill-opacity="1"/>
    <path d="M28.44,108.2s5,-2.18 5.47,-4.73 1.65,-41.35 0.56,-43.22A19.39,19.39 0,0 1,32 55.06a29.8,29.8 0,0 1,-0.15 -4.6,56.44 56.44,0 0,0 -2.82,11.8c-1,7.12 -2.59,24.11 -2.31,30.35S27,107.3 28.44,108.2Z" fill="#000000" fill-opacity="1"/>
    <path d="M24.6,78c-1.23,-0.52 -2.45,-1.07 -3.68,-1.58 -0.27,-0.11 -0.61,-0.42 -0.84,0a0.64,0.64 0,0 0,0.35 0.92c1.4,0.64 2.82,1.25 4.24,1.85 0.33,0.14 0.56,0 0.59,-0.35A0.88,0.88 0,0 0,24.6 78Z" fill="#b5a38c" fill-opacity="1"/>
    <path d="M22.29,60.28a1.55,1.55 0,0 1,1.28 2.3,0.93 0.93,0 0,0 0,0.33c0,0.36 0.13,0.74 0.52,0.77s0.38,-0.41 0.43,-0.69c0.23,-1.47 0.23,-1.47 1.72,-1 0.25,0.08 0.53,0.21 0.7,-0.09a0.53,0.53 0,0 0,-0.21 -0.74,2.3 2.3,0 0,0 -0.7,-0.35c-1,-0.25 -1.38,-0.79 -1,-1.61 0,-0.24 0.05,-0.35 0.06,-0.46 0,-0.43 0.26,-1.05 -0.36,-1.12s-0.42,0.61 -0.48,1c-0.22,1.3 -0.23,1.31 -1.52,0.79 -0.3,-0.12 -0.67,-0.41 -0.89,0A0.61,0.61 0,0 0,22.29 60.28Z" fill="#b5a38c" fill-opacity="1"/>
    <path d="M84.86,57.35c2.59,-2.76 2.63,-9.39 2.43,-13.12 -0.53,-10.45 -2.06,-19.69 -8.37,-26.06a22.73,22.73 0,0 0,-1.69 -1.54,10.29 10.29,0 0,0 -1.56,-1c-8.51,3.93 -24.84,11.93 -35.51,20S29.36,53.78 27.67,71.22c-1.48,15.17 -4.12,35.36 2.64,42.26a4.58,4.58 0,0 0,2.12 0.5c-3.11,-1 -3.86,-4.49 -4.5,-7.31 -2.32,-10.11 1.58,-44 1.91,-46.43 0.34,-2 0.67,-3.93 1,-5.9C33.29,41.2 40.94,36.52 48.93,31.5c5,-3.15 9.11,-6 14.11,-8.57l12,-6.1a20.59,20.59 0,0 1,3.2 2.8c6.2,6.64 7.65,16.93 8,27.49 -0.13,2.1 -0.26,5.41 -0.4,6.32S84.85,57.4 84.86,57.35Z" fill="#ba9e83" fill-opacity="1"/>
    <path d="M65.78,12.68A34.69,34.69 0,0 1,75 15.9l0.64,-0.3a37.82,37.82 0,0 0,-9.29 -3.21Z" fill="#ba9e83" fill-opacity="1"/>
    <path d="M62.47,13.09c0.86,-0.24 1.4,-0.22 1.14,-0.06s-7.6,3.9 -10.1,5.33C47,22.07 40.4,26.12 34.3,30.22a31.33,31.33 0,0 0,-6.08 5.52A26.31,26.31 0,0 0,22.12 49c-0.92,4.69 -1.81,12.54 -2.07,14.36s-0.81,7.51 -0.8,8.4c-0.16,3.64 -0.35,8.59 -0.46,10.8s-0.55,21 3.06,25.54c-3.38,-6.73 -3.75,-23.84 -1.77,-41.62 2.2,-19.67 2.3,-26.3 13.93,-35.35C43.74,23.5 61,15 66.38,12.39l-0.29,-0.07A4.55,4.55 0,0 0,62.47 13.09Z" fill="#ba9e83" fill-opacity="1"/>
    <path d="M65.78,12.68l-0.39,0.19c-6.25,3 -22.18,11.05 -31.38,18.21C22.38,40.13 22.28,46.76 20.08,66.43c-2,17.78 -1.61,34.89 1.77,41.62l0.09,0.13a16.66,16.66 0,0 0,4 3,33 33,0 0,0 4.37,2.33c-6.76,-6.9 -4.12,-27.09 -2.64,-42.26 1.69,-17.44 1.77,-27.54 12.49,-35.63C50.5,27.78 66.14,20 74.84,16L75,15.9A34.69,34.69 0,0 0,65.78 12.68Z" fill="#e5dbcf" fill-opacity="1"/>
    <path d="M29.33,40.81a4,4 0,0 1,0.6 0,1.55 1.55,0 0,1 1.25,1.94A3.81,3.81 0,0 1,29 45.61a2.29,2.29 0,0 1,-0.9 0.2,1.68 1.68,0 0,1 -1.53,-1A2.4,2.4 0,0 1,26.93 42a3,3 0,0 1,2.4 -1.19m0,-1a4,4 0,0 0,-3.18 1.54,3.41 3.41,0 0,0 -0.53,3.85 2.67,2.67 0,0 0,2.43 1.61,3.18 3.18,0 0,0 1.32,-0.29A4.82,4.82 0,0 0,32.16 43a2.49,2.49 0,0 0,-2 -3.1,4.08 4.08,0 0,0 -0.77,-0.07Z" fill="#000000" fill-opacity="1" stroke="#b5a38c" stroke-opacity="1" stroke-width="1.0"/>
    <path d="M24.91,78.94a0.37,0.37 0,0 1,-0.15 0q-2.13,-0.9 -4.23,-1.84a0.48,0.48 0,0 1,-0.27 -0.27,0.38 0.38,0 0,1 0,-0.31c0,-0.07 0.06,-0.07 0.07,-0.07a0.9,0.9 0,0 1,0.27 0.11l0.18,0.09c0.75,0.31 1.49,0.64 2.24,1l1.44,0.62c0.37,0.16 0.5,0.32 0.51,0.6S24.94,78.94 24.91,78.94Z" fill="#ddd5c7" fill-opacity="1"/>
    <path d="M20.51,76.74h0l0.2,0.1 2.23,1 1.45,0.63a0.8,0.8 0,0 1,0.28 0.17c-1.28,-0.54 -2.66,-1.13 -4.05,-1.76a0.25,0.25 0,0 1,-0.12 -0.1m-0.14,-0.57a0.32,0.32 0,0 0,-0.29 0.2,0.64 0.64,0 0,0 0.35,0.92c1.4,0.64 2.82,1.25 4.24,1.85a0.79,0.79 0,0 0,0.24 0c0.2,0 0.33,-0.14 0.35,-0.4A0.88,0.88 0,0 0,24.6 78c-1.23,-0.52 -2.45,-1.07 -3.68,-1.58a1.71,1.71 0,0 0,-0.55 -0.22Z" fill="#b5a38c" fill-opacity="1"/>
    <path d="M24.08,63.43c-0.23,0 -0.29,-0.29 -0.29,-0.52a0.71,0.71 0,0 1,0 -0.25A1.8,1.8 0,0 0,22.35 60a0.48,0.48 0,0 1,-0.33 -0.22,0.29 0.29,0 0,1 0,-0.27c0,-0.11 0.08,-0.11 0.1,-0.11a0.85,0.85 0,0 1,0.3 0.11l0.17,0.07a3.25,3.25 0,0 0,1.09 0.34c0.54,0 0.62,-0.47 0.76,-1.32a1.83,1.83 0,0 0,0 -0.34,1.35 1.35,0 0,1 0,-0.37s0,-0.06 0.11,-0.06 0.18,0 0.21,0.07 0,0.32 0,0.51 0,0.2 0,0.28 0,0.13 0,0.23l0,0.22a1.2,1.2 0,0 0,0 1.06,1.74 1.74,0 0,0 1.23,0.82 1.93,1.93 0,0 1,0.62 0.32,0.28 0.28,0 0,1 0.13,0.41c0,0.06 -0.05,0.06 -0.08,0.06a0.84,0.84 0,0 1,-0.24 -0.06,5.08 5.08,0 0,0 -1.27,-0.32c-0.62,0 -0.71,0.53 -0.86,1.48 0,0.08 0,0.14 0,0.21 0,0.28 0,0.28 -0.11,0.28Z" fill="#ddd5c7" fill-opacity="1"/>
    <path d="M24.36,59.87a1.4,1.4 0,0 0,0.12 0.47,2 2,0 0,0 1.4,1 1.34,1.34 0,0 1,0.43 0.2,4.47 4.47,0 0,0 -1.21,-0.29 0.86,0.86 0,0 0,-0.88 0.65,1.88 1.88,0 0,0 -0.23,-1 1.85,1.85 0,0 0,-0.68 -0.68,1.42 1.42,0 0,0 0.38,0.06 0.73,0.73 0,0 0,0.67 -0.33m0.24,-2.26c-0.51,0 -0.34,0.64 -0.39,1 -0.14,0.8 -0.19,1.11 -0.52,1.11a3.5,3.5 0,0 1,-1 -0.32,1.8 1.8,0 0,0 -0.56,-0.2 0.36,0.36 0,0 0,-0.33 0.25,0.61 0.61,0 0,0 0.49,0.85 1.55,1.55 0,0 1,1.28 2.3,0.93 0.93,0 0,0 0,0.33c0,0.36 0.13,0.74 0.52,0.77h0.06c0.4,0 0.32,-0.42 0.37,-0.69 0.15,-0.94 0.2,-1.28 0.61,-1.28a4.68,4.68 0,0 1,1.11 0.28,1.47 1.47,0 0,0 0.4,0.1 0.34,0.34 0,0 0,0.3 -0.19,0.53 0.53,0 0,0 -0.21,-0.74 2.3,2.3 0,0 0,-0.7 -0.35c-1,-0.25 -1.38,-0.79 -1,-1.61 0,-0.24 0.05,-0.35 0.06,-0.46 0,-0.43 0.26,-1.05 -0.36,-1.12Z" fill="#b5a38c" fill-opacity="1"/>
</svg>