<svg xmlns="http://www.w3.org/2000/svg" width="120.0" height="120.0" viewBox="0 0 120.0 120.0">
    <path d="M46.17,72.89c0.17,-0.39 11.74,-21.82 13.5,-27.65a53,53 0,0 0,2 -15.06c0.06,-3.95 0.49,-17 5.94,-18.95 0,0 1.49,-3 3.14,-3.62 7.36,-2.76 10.55,8.33 10.72,10.12 0.08,0.94 1.28,9.29 -4.66,19.91S70,54.14 69.21,58.48 64,86.57 64,86.57Z" fill="#cef0fa" fill-opacity="1"/>
    <path d="M74,28.55s5,-10.74 -4.48,-12Z" fill="#c5e8ef" fill-opacity="1"/>
    <path d="M69.23,57.76S74,37.6 75.94,32.13c3.25,-9.29 0.26,-19.93 -9.08,-20.74 0,0 2,-4.71 6,-4.34 5.2,0.49 10,6.44 8.48,16.9C79.56,36.56 73.32,41.08 69.23,57.76Z" fill="#bde1e5" fill-opacity="1"/>
    <path d="M67.59,45.18s1.69,-7.21 3.27,-12S74,18.76 63.16,17.81c0,0 6.33,-5 11.13,3C77.06,25.31 69.77,38.16 67.59,45.18Z" fill="#bde1e5" fill-opacity="1"/>
    <path d="M64.78,25.11s-1.92,-0.36 -2.82,0.61c0,0 -2.08,-6.8 1.2,-7.91 0,0 0.69,-0.45 3.6,0.81C66.76,18.62 62.62,19.65 64.78,25.11Z" fill="#c5e8ef" fill-opacity="1"/>
    <path d="M66.42,16.44s1,-4 4.74,-3.79a15.59,15.59 0,0 0,-3.84 -1.29c-2.06,-0.32 -4.62,4.7 -4.85,6.82A19.1,19.1 0,0 1,66.42 16.44Z" fill="#c5e8ef" fill-opacity="1"/>
    <path d="M66.09,25.33A3.45,3.45 0,0 1,69 27.56c0.87,2.16 -2.38,9.57 -2.38,9.57S69.64,27.81 66.09,25.33Z" fill="#c5e8ef" fill-opacity="1"/>
    <path d="M66.62,37.13s2,-9.57 -1.84,-12C64.78,25.11 71.35,23.85 66.62,37.13Z" fill="#bde1e5" fill-opacity="1"/>
    <path d="M64.78,25.11a3.9,3.9 0,0 0,-2.82 0.61c-1.67,1.31 -0.32,6 -0.46,9.35C61.5,35.07 61.32,24.7 64.78,25.11Z" fill="#c5e8ef" fill-opacity="1"/>
    <path d="M49.61,72.09S59.89,48.85 60.8,40.57c0,0 -8.51,21.84 -14.63,32.32Z" fill="#c5e8ef" fill-opacity="1"/>
    <path d="M62.74,81.23 L70,55 64,86.57A9.07,9.07 0,0 0,62.74 81.23Z" fill="#c5e8ef" fill-opacity="1"/>
    <path d="M49.36,109.74a1.88,1.88 0,0 0,0.44 -0.62c0.27,-0.61 -0.18,-1.28 -0.32,-1.69a7.94,7.94 0,0 1,-0.24 -1l-0.05,0c0.11,0.73 0.67,1.69 0.66,2.26 0,0.79 -0.81,1.26 -1.24,1.45a6.63,6.63 0,0 1,-5.53 -0.63l-1.29,-1 0.08,0.21a16.18,16.18 0,0 0,3.35 2.37,10.54 10.54,0 0,0 9,0.44 12.71,12.71 0,0 1,-4.82 -1.83" fill="#cef0fa" fill-opacity="1" fill-rule="evenodd"/>
    <path d="M59.56,77.78h0a13.56,13.56 0,0 1,3.82 4.79A7.92,7.92 0,0 1,64 85.13c0,0.68 0,1.36 -0.07,2A5.17,5.17 0,0 1,59.37 92a21,21 0,0 0,-2.63 0,5 5,0 0,0 -2.12,1.45c-0.06,1 0.09,2.21 0,3.38 -0.21,4.53 -2.54,8.49 -5.42,9.61a7.94,7.94 0,0 0,0.24 1c0.14,0.41 0.59,1.08 0.32,1.69a1.88,1.88 0,0 1,-0.44 0.62,12.71 12.71,0 0,0 4.82,1.83c4.08,-1.78 8.84,-8 9.43,-15 0,0 0.3,-5.22 0.35,-11.14l-4.28,-1.23 -0.12,-6.46" fill="#aeced6" fill-opacity="1" fill-rule="evenodd"/>
    <g>
        <clipPath id="clip_1">
            <path d="M59.56,77.78h0a13.56,13.56 0,0 1,3.82 4.79A7.92,7.92 0,0 1,64 85.13c0,0.68 0,1.36 -0.07,2A5.17,5.17 0,0 1,59.37 92a21,21 0,0 0,-2.63 0,5 5,0 0,0 -2.12,1.45c-0.06,1 0.09,2.21 0,3.38 -0.21,4.53 -2.54,8.49 -5.42,9.61a7.94,7.94 0,0 0,0.24 1c0.14,0.41 0.59,1.08 0.32,1.69a1.88,1.88 0,0 1,-0.44 0.62,12.71 12.71,0 0,0 4.82,1.83c4.08,-1.78 8.84,-8 9.43,-15 0,0 0.3,-5.22 0.35,-11.14l-4.28,-1.23 -0.12,-6.46 M 0,0"/>
        </clipPath>
        <path d="M80.3 47.93H112.16V92.84H80.3z" clip-path="url(#clip_1)" fill="#ecbac9" fill-opacity="1"/>
    </g>
    <path d="M53.91,73.89c1.42,0.79 8.32,4.46 9.62,9.16C65,87.44 63.32,93 57,91.9c0,0 0.6,-0.23 0.61,-0.25 4.14,0.21 7,-3.2 5.69,-7.7 -1.28,-4.29 -5.94,-7.4 -10.4,-9.78 -1.93,-1 -5,-2 -6.74,-1.24 0.59,-1.36 2.44,-1.13 4.13,-0.66l0.09,0a31.44,31.44 0,0 1,3.53 1.6" fill="#f3f3f3" fill-opacity="1" fill-rule="evenodd"/>
    <path d="M54.66,95.86a3,3 0,0 1,2.57 -1.56c1.82,0 5.83,-0.11 6.45,-5.92 0,0 -1,4.79 -6.68,3.52a8.52,8.52 0,0 0,-2.38 1.55Z" fill="#9ab9c1" fill-opacity="1"/>
    <g>
        <clipPath id="clip_1">
            <path d="M41.6,103.18c0.1,0.45 0.47,0.75 0.8,0.67a0.75,0.75 0,0 0,0.41 -1,0.65 0.65,0 1,0 -1.21,0.29 M 0,0"/>
        </clipPath>
        <path d="M32.36 93.01H52.05V113.04H32.36z" clip-path="url(#clip_1)" fill="#aaabac" fill-opacity="1"/>
    </g>
    <g>
        <clipPath id="clip_1">
            <path d="M50.83,78.56c0.26,1.75 -0.72,3.55 -1.47,5Q47.44,87.81 45.5,92c-1.27,2.75 -1.16,5.07 -3.62,6a2.21,2.21 0,0 1,-1.66 0c-2.7,-1.18 -2.4,-4.47 -1,-7.63 1.09,-2.76 2.19,-5.51 3.28,-8.26a27.51,27.51 0,0 1,2.34 -4.8c0.92,-1.22 1.86,-2.46 3.87,-1.8a3,3 0,0 1,2.17 3 M 0,0"/>
        </clipPath>
        <path d="M25.11 69.09H63.86V104.25H25.11z" clip-path="url(#clip_1)" fill="#c7c7c7" fill-opacity="1"/>
    </g>
    <g>
        <clipPath id="clip_1">
            <path d="M38.79,101.24a1.08,1.08 0,0 0,0.44 1.56l0.32,0a2.16,2.16 0,0 0,-0.55 -1.46l-0.21,-0.05 M 0,0"/>
        </clipPath>
        <path d="M29.46 92.04H48.63V112.11000000000001H29.46z" clip-path="url(#clip_1)" fill="#424242" fill-opacity="1"/>
    </g>
    <g>
        <clipPath id="clip_1">
            <path d="M41.59,102.77c-0.29,0 -0.51,0.34 -0.48,0.73s0.27,0.69 0.56,0.67 0.5,-0.34 0.48,-0.73 -0.27,-0.69 -0.56,-0.67 M 0,0"/>
        </clipPath>
        <path d="M31.86 93.61H51.39V113.34H31.86z" clip-path="url(#clip_1)" fill="#e6e6e6" fill-opacity="1"/>
    </g>
    <g>
        <clipPath id="clip_1">
            <path d="M46.1,73a0.46,0.46 0,0 0,0.07 -0.07,0.46 0.46,0 0,1 -0.07,0.07 M 0,0"/>
        </clipPath>
        <path d="M36.89 63.72H55.370000000000005V82.14H36.89z" clip-path="url(#clip_1)" fill="#424242" fill-opacity="1"/>
    </g>
    <g>
        <clipPath id="clip_1">
            <path d="M49.36,109.74a1.88,1.88 0,0 0,0.44 -0.62c0.27,-0.61 -0.18,-1.28 -0.32,-1.69a7.94,7.94 0,0 1,-0.24 -1l-0.05,0c0.11,0.73 0.67,1.69 0.66,2.26 0,0.79 -0.81,1.26 -1.24,1.45a6.63,6.63 0,0 1,-5.53 -0.63l-1.29,-1 0.08,0.21a16.18,16.18 0,0 0,3.35 2.37,10.54 10.54,0 0,0 9,0.44 12.71,12.71 0,0 1,-4.82 -1.83 M 0,0"/>
        </clipPath>
        <path d="M34.25 96.35H61.68V123.78H34.25z" clip-path="url(#clip_1)" fill="#cef0fa" fill-opacity="1"/>
    </g>
    <g>
        <clipPath id="clip_1">
            <path d="M39.53,102.66l-0.29,0.1c-0.37,-0.24 -0.89,-0.81 -0.44,-1.38 0,0 0,-0.06 0,-0.08l0.16,0a2.66,2.66 0,0 1,0.55 1.32 M 0,0"/>
        </clipPath>
        <path d="M29.49 92.1H48.56999999999999V112.02H29.49z" clip-path="url(#clip_1)" fill="#aaabac" fill-opacity="1"/>
    </g>
    <g>
        <clipPath id="clip_1">
            <path d="M39.37,101a0.94,0.94 0,0 0,-0.56 1c0,0.35 0.26,0.74 0.46,0.68s0.49,-0.48 0.55,-0.84 0,-0.87 -0.45,-0.88m0,0a0.49,0.49 0,0 1,0.5 0.28,1.32 1.32,0 0,1 0.18,0.57 1.42,1.42 0,0 1,-0.1 0.66,1 1,0 0,1 -0.7,0.61 0.58,0.58 0,0 1,-0.64 -0.39,1.2 1.2,0 0,1 0,-0.65 1.79,1.79 0,0 1,0.24 -0.63,0.83 0.83,0 0,1 0.55,-0.45 M 0,0"/>
        </clipPath>
        <path d="M29.17 91.97H49.400000000000006V112.2H29.17z" clip-path="url(#clip_1)" fill="#c9c9c9" fill-opacity="1"/>
    </g>
    <g>
        <clipPath id="clip_1">
            <path d="M26.873,84.723L53.407,68.482L70.708,96.747L44.174,112.988z M 0,0"/>
        </clipPath>
        <g clip-path="url(#clip_1)">
            <clipPath id="clip_2">
                <path d="M31.61 72.94H64.71000000000001V109.72H31.61z M 0,0"/>
            </clipPath>
            <g clip-path="url(#clip_2)">
                <clipPath id="clip_3">
                    <path d="M53.71,87.71c3.26,-3.67,5,-6.83,5.72,-9.37a37.34,37.34,0,0,0,-5.35,-3.73c-1,-.46,-2,-.84,-2.94,-1.3,-.47,-.16,-.94,-.37,-1.4,-.54a5.71,5.71,0,0,0,-3.22,-.06C45.8,73,45.46,74.2,45,75c-1.16,2.09,-2.07,4.31,-3.18,6.62,-4.13,8.6,-5.82,18,-2,24.35,1.14,1.89,2.85,4.49,6.43,4.62a4.17,4.17,0,0,0,3.08,-.82c-6.78,-4.56,-1.79,-15.1,4.35,-22 M 0,0"/>
                </clipPath>
                <g clip-path="url(#clip_3)">
                    <clipPath id="clip_4">
                        <path d="M32.84 72.6H64.10000000000001V107.53999999999999H32.84z M 0,0"/>
                    </clipPath>
                    <path d="M24.04 64.97H73.53999999999999V116.5H24.04z" clip-path="url(#clip_4)" fill="#eeeeee" fill-opacity="1"/>
                </g>
            </g>
        </g>
    </g>
    <g>
        <clipPath id="clip_1">
            <path d="M49.48,107.43a8,8 0,0 1,-0.35 -2.86c0.17,-2.93 2.63,-7.34 3.91,-9.15 0.92,-1.3 2,-2.79 3.33,-3.34 2.17,-0.85 3.83,0 5.67,-1.82a6.86,6.86 0,0 0,1.57 -5.91,12 12,0 0,0 -4.18,-6c-0.67,2.54 -2.46,5.7 -5.72,9.37 -6.15,6.93 -11.13,17.47 -4.35,22a1.88,1.88 0,0 0,0.44 -0.62c0.27,-0.61 -0.18,-1.28 -0.32,-1.69 M 0,0"/>
        </clipPath>
        <path d="M32.01 74.05H76.9V113.97H32.01z" clip-path="url(#clip_1)" fill="#d5d5d5" fill-opacity="1"/>
    </g>
    <g>
        <clipPath id="clip_1">
            <path d="M43.61,80.14l-4,10.12c-1.18,2.73 -1.38,5.84 0.79,6.82a1.65,1.65 0,0 0,1.19 0c2.08,-0.61 2.17,-2.76 3.25,-5.1q1.82,-4 3.65,-8c1.68,-3.28 2.47,-6.83 0.13,-7.9s-3.9,1.78 -5,4.07 M 0,0"/>
        </clipPath>
        <path d="M25.74 69.57H62.980000000000004V103.32999999999998H25.74z" clip-path="url(#clip_1)" fill="#cef0fa" fill-opacity="1"/>
    </g>
    <g>
        <clipPath id="clip_1">
            <path d="M38.62,102.14c0.12,0.51 0.45,0.86 0.73,0.79s0.43,-0.53 0.31,-1 -0.45,-0.86 -0.74,-0.79 -0.42,0.53 -0.3,1 M 0,0"/>
        </clipPath>
        <path d="M29.36 91.92H48.92V112.11H29.36z" clip-path="url(#clip_1)" fill="#aaabac" fill-opacity="1"/>
    </g>
    <g>
        <clipPath id="clip_1">
            <path d="M53.91,73.89c1.42,0.79 8.32,4.46 9.62,9.16C65,87.44 63.32,93 57,91.9c0,0 0.6,-0.23 0.61,-0.25 4.14,0.21 7,-3.2 5.69,-7.7 -1.28,-4.29 -5.94,-7.4 -10.4,-9.78 -1.93,-1 -5,-2 -6.74,-1.24 0.59,-1.36 2.44,-1.13 4.13,-0.66l0.09,0a31.44,31.44 0,0 1,3.53 1.6 M 0,0"/>
        </clipPath>
        <path d="M41.73 59.31H70.58V101.68H41.73z" clip-path="url(#clip_1)" fill="#c7c7c7" fill-opacity="1"/>
    </g>
    <g>
        <clipPath id="clip_1">
            <path d="M41.93,102.33l-0.19,0.09c-0.3,0.64 0,1 0.4,1.37h0.31c0.15,0 0.17,-0.08 0.27,-0.2a1.07,1.07 0,0 0,-0.49 -1.21l-0.3,0 M 0,0"/>
        </clipPath>
        <path d="M32.48 93.08H51.9V113.02H32.48z" clip-path="url(#clip_1)" fill="#424242" fill-opacity="1"/>
    </g>
    <g>
        <clipPath id="clip_1">
            <path d="M38.93,101.26c-0.24,0 -0.42,0.38 -0.4,0.81s0.25,0.76 0.49,0.75 0.43,-0.38 0.41,-0.81 -0.25,-0.76 -0.5,-0.75 M 0,0"/>
        </clipPath>
        <path d="M29.24 92.13H48.709999999999994V111.96H29.24z" clip-path="url(#clip_1)" fill="#e6e6e6" fill-opacity="1"/>
    </g>
    <g>
        <clipPath id="clip_1">
            <path d="M48.4,84l-3.66,8c-1,2.22 -1,4.45 -3,5.11a2,2 0,0 1,-1.42 0c-2.17,-1 -1.92,-4.08 -0.77,-6.77l3.94,-9.84c1.1,-2.39 2.07,-5.05 5,-4.32 2.77,2.38 1.51,4.58 -0.16,7.85 M 0,0"/>
        </clipPath>
        <path d="M25.82 69.64H62.87V103.44H25.82z" clip-path="url(#clip_1)" fill="#424242" fill-opacity="1"/>
    </g>
    <g>
        <clipPath id="clip_1">
            <path d="M42,102.55a0.84,0.84 0,0 0,-0.61 1c0.06,0.36 0.34,0.67 0.6,0.62s0.55,-0.38 0.61,-0.75a0.66,0.66 0,0 0,-0.6 -0.84m0,0c0.47,0 0.76,0.39 0.82,0.81a1,1 0,0 1,-0.83 1.19,0.81 0.81,0 0,1 -0.82,-1 1.11,1.11 0,0 1,0.83 -1 M 0,0"/>
        </clipPath>
        <path d="M31.82 93.45H52.05V113.68H31.82z" clip-path="url(#clip_1)" fill="#c9c9c9" fill-opacity="1"/>
    </g>
    <path d="M-68.3,-2695.29H675.7V1239.82H-68.3z" fill="#000000" fill-opacity="0" stroke="#32dd14" stroke-opacity="1" stroke-width="11.07"/>
</svg>