<svg xmlns="http://www.w3.org/2000/svg" width="120.0" height="120.0" viewBox="0 0 120.0 120.0">
    <path d="M82.33,85.13c1.36,0.24 2.32,2.16 0,4.92s-6.23,7.64 -9.75,10.32 -6.77,3.72 -11,0c-3.84,-3.36 -8.72,-9.21 -14.95,-19.65 -6.4,-10.7 -15.57,-31.38 -16.76,-33.41 1.08,1.87 2.16,3.82 2.16,3.82a2.11,2.11 0,0 1,0.29 0.06C34.13,55 44.48,76.63 52.88,89c7.13,10.45 10.3,12.24 14,12.7 3.44,0.42 9.08,-6.28 12.12,-9.48s1.07,-4.28 0.4,-4.24a2.63,2.63 0,0 0,-0.67 0.17c0.72,-0.86 1.43,-1.75 2.13,-2.64A2.18,2.18 0,0 1,82.33 85.13Z" fill="#eacf4b" fill-opacity="1"/>
    <path d="M79,92.17c-3,3.2 -8.68,9.9 -12.12,9.48 -3.72,-0.46 -6.89,-2.25 -14,-12.7C44.48,76.63 34.13,55 32.36,51.24c1.08,0.3 5.11,2.14 9.39,13.41 3.88,10.21 5.77,12.7 5.77,12.7s1.23,2.06 2,1.88 7.08,-5.81 10.5,-11 5.6,-9.16 8.64,-18 5.68,-22.55 8.51,-27.68S86.5,11.67 94.33,15s9.36,12.08 6.8,22.72S88.89,60.46 78.34,72.22 65.06,88.85 63.62,92.53a5.84,5.84 0,0 0,1.29 6.23s2,-0.21 7,-3.81a40.54,40.54 0,0 0,6.85 -6.85,2.63 2.63,0 0,1 0.67,-0.17C80.09,87.89 82.05,89 79,92.17Z" fill="#efd850" fill-opacity="1"/>
    <path d="M13.4,46.78c1.39,-5.31 6,-9.07 8.63,-8.67a3.44,3.44 0,0 1,1.44 0.59c5.07,5 6.88,12.63 12.8,25C55.7,104.47 64.74,107 70.82,104c6.23,-3 10.67,-9.58 15.59,-14.6 2.16,-2.2 3.78,-4.3 4,-6.94s-1.62,-4.59 -4.87,-3.06c0.44,-0.57 0.86,-1.11 1.27,-1.62 4.08,-5 8.64,-8.57 15.18,-8.81s7.8,4.74 5.1,8.39S94.57,82.92 83.83,93.63c-9.64,9.61 -12.46,14.63 -26.19,11.33S32.82,95.18 21.81,78.09C10.92,61.18 12,52.1 13.4,46.78Z" fill="#eacf4b" fill-opacity="1"/>
    <path d="M90.43,82.47c-0.24,2.64 -1.86,4.74 -4,6.94 -4.92,5 -9.36,11.56 -15.59,14.6 -6.08,3 -15.12,0.46 -34.55,-40.27 -5.92,-12.41 -7.73,-20.05 -12.8,-25 2.07,1.34 3.79,4.5 4.6,5.64 0.54,0.82 6.18,13.85 13.12,28C47.54,85.21 56.3,96.69 58.78,99.17c4.73,4.72 8,5.2 11.4,4.16S82.41,92.57 85.29,89.05s2.08,-6.64 0,-7.08a3.13,3.13 0,0 0,-1.9 0.25c0.75,-1 1.48,-1.93 2.17,-2.81C88.81,77.88 90.66,79.92 90.43,82.47Z" fill="#e5bb0c" fill-opacity="1"/>
    <path d="M85.29,82c2.08,0.44 2.88,3.56 0,7.08s-11.71,13.24 -15.11,14.28 -6.67,0.56 -11.4,-4.16c-2.48,-2.48 -11.24,-14 -17.59,-26.87 -6.94,-14.11 -12.58,-27.14 -13.12,-28 0.4,0.56 1.12,1.77 1.84,3 1.19,2 10.36,22.71 16.76,33.41 6.23,10.44 11.11,16.29 14.95,19.65 4.19,3.67 7.44,2.63 11,0S80,92.81 82.33,90.05s1.36,-4.68 0,-4.92a2.18,2.18 0,0 0,-1.45 0.33c0.86,-1.09 1.7,-2.18 2.51,-3.24A3.13,3.13 0,0 1,85.29 82Z" fill="#e5c642" fill-opacity="1"/>
    <path d="M31.59,86.4c3.3,5.43 11.05,12.07 15.49,14.41s9.3,4.3 10.54,3.68c0.91,-0.46 -1.65,-2 -3.42,-3.6a58.43,58.43 0,0 1,-6.12 -6.21c-1.6,-1.9 -7.76,-9.48 -10.25,-11.43s-4.95,-3.6 -6.54,-3.6S28.29,81 31.59,86.4ZM35.52,85.83c1.35,0 3.59,1 8.13,6a98.07,98.07 0,0 0,10.83 10.5c2.41,1.89 0.47,1.43 0.47,1.43a23.86,23.86 0,0 1,-5.63 -2.26c-2.85,-1.47 -6.54,-4.15 -11.22,-9.1S34.47,85.83 35.52,85.83Z" fill="#efd850" fill-opacity="1"/>
    <path d="M71.57,51.21c0.68,-3.31 1.36,-6.57 2.08,-9.85s1.51,-6.53 2.44,-9.77c0.48,-1.62 1,-3.24 1.61,-4.83a19.06,19.06 0,0 1,2.42 -4.62,15 15,0 0,1 8.22,-5.94A18.52,18.52 0,0 0,81.42 23a21.57,21.57 0,0 0,-2 4.41q-0.8,2.32 -1.46,4.74c-1,3.18 -1.83,6.42 -2.86,9.62A71.78,71.78 0,0 1,71.57 51.21Z" fill="#ffffff" fill-opacity="0.25"/>
    <path d="M-112.64,-1624.18H1422.11V1880.83H-112.64z" fill="#000000" fill-opacity="0" stroke="#32dd14" stroke-opacity="1" stroke-width="23.55"/>
</svg>