<svg xmlns="http://www.w3.org/2000/svg" width="120.0" height="120.0" viewBox="0 0 120.0 120.0">
    <path d="M22.67,74.38A79.64,79.64 0,0 1,38.76 60.53c3.64,-2.41 7.33,-4.74 11,-7.16 7.61,-5.06 15.51,-10.07 19,-19 1.23,-3.14 1.82,-6.49 2.76,-9.73C73.85,16.39 80.36,10 89.25,9.54a17.34,17.34 0,0 1,16.59 24.08c-1.83,4.43 -4.26,7.57 -8.58,9.89 -3.61,1.94 -7.61,3 -11.5,4.3C76.34,50.91 69.55,57 63.39,64.62c-8.67,10.69 -13.79,23.6 -22,34.58C36.69,105.57 27,114 18.66,108.62a11.86,11.86 0,0 1,-4.34 -5.5c-3.77,-9 0,-17.93 5.54,-25.28C20.76,76.66 21.7,75.5 22.67,74.38Z" fill="#833854" fill-opacity="1"/>
    <path d="M98,43c-3.9,2.41 -8.43,3.65 -12.59,5.33a41.68,41.68 0,0 0,-11.37 7,68.21 68.21,0 0,0 -9.19,9.79 102,102 0,0 0,-7.54 11.2C55,80.14 52.8,84.13 50.46,88.06a110.15,110.15 0,0 1,-7.7 11.45,35.92 35.92,0 0,1 -10.44,9.16 16.43,16.43 0,0 1,-6.67 2.09,10 10,0 0,1 -6.56,-1.88 10.08,10.08 0,0 0,6.49 1.2,16 16,0 0,0 6.12,-2.45 37.2,37.2 0,0 0,9.52 -9.29C46.46,91 50.51,82.86 55.2,75S65.54,59.56 72.84,53.77A40.08,40.08 0,0 1,85 47.13C89.43,45.74 93.88,44.88 98,43Z" fill="#72304b" fill-opacity="1"/>
    <path d="M90.69,40.29c-4.88,0 -7.1,-2.43 -7.37,-2.29s0.79,1.78 2.69,3.27a7.35,7.35 0,0 0,7.44 0.79c3.35,-1.56 6.79,-5.2 6.33,-5.62S95.1,40.31 90.69,40.29Z" fill="#8e4361" fill-opacity="1" fill-rule="evenodd"/>
    <path d="M68.3,35.37c-0.12,0.32 -0.28,0.58 -0.41,0.88a18.42,18.42 0,0 1,-1.75 3c-0.69,1 -1.45,1.91 -2.2,2.85 0.06,-0.07 0.24,0 0.31,0 0.57,0 1.14,0.06 1.71,0a14.16,14.16 0,0 0,5.7 -1.5c0.35,-0.17 0.69,-0.36 1,-0.55a2.63,2.63 0,0 0,0.87 -0.63c0.4,-0.32 -2.23,-1.34 -3.3,-2.26a5.32,5.32 0,0 1,-1.44 -3.09c-0.14,0.4 -0.32,0.74 -0.42,1.06C68.37,35.22 68.32,35.31 68.3,35.37Z" fill="#72304b" fill-opacity="1" fill-rule="evenodd"/>
    <path d="M24.54,83.61a3.68,3.68 0,0 1,0.31 3.82,2.36 2.36,0 0,1 -1.56,1.26 1.88,1.88 0,0 1,-1.85 -0.57,2 2,0 0,0 1.79,0.33 2.19,2.19 0,0 0,1.34 -1.17A3.45,3.45 0,0 0,25 85.47,4.05 4.05,0 0,0 24.54,83.61Z" fill="#72304b" fill-opacity="1"/>
    <path d="M26.897,79.685a1.83,1.44 122.7,1 0,1.977 -3.08a1.83,1.44 122.7,1 0,-1.977 3.08z" fill="#8e4361" fill-opacity="1"/>
    <path d="M29.19,76.28a1.28,1.28 0,0 1,0.7 1.09,2.16 2.16,0 0,1 -0.33,1.31 2.21,2.21 0,0 1,-1 0.86,1.3 1.3,0 0,1 -1.28,-0.18 1.38,1.38 0,0 0,1.19 0,2.1 2.1,0 0,0 0.87,-0.8 2.07,2.07 0,0 0,0.36 -1.13A1.4,1.4 0,0 0,29.19 76.28Z" fill="#72304b" fill-opacity="1"/>
    <path d="M21.903,87.277a1.83,1.44 111.16,1 0,1.321 -3.413a1.83,1.44 111.16,1 0,-1.321 3.413z" fill="#8e4361" fill-opacity="1"/>
    <path d="M23.35,83.9a1.27,1.27 0,0 1,0.9 0.93,2.15 2.15,0 0,1 -0.06,1.35 2.27,2.27 0,0 1,-0.86 1,1.29 1.29,0 0,1 -1.3,0.08A1.43,1.43 0,0 0,23.19 87,2.31 2.31,0 0,0 24,84.89 1.42,1.42 0,0 0,23.35 83.9Z" fill="#72304b" fill-opacity="1"/>
    <path d="M23.66,83.34a1.72,1.72 0,0 0,-1.3 0,2.1 2.1,0 0,0 -0.94,0.88 2,2 0,0 0,-0.29 0.59c-0.06,0.21 -0.17,0.41 -0.21,0.63a3.19,3.19 0,0 0,0 1.34,2.57 2.57,0 0,1 -0.22,-1.37 4,4 0,0 1,0.19 -0.68,2.38 2.38,0 0,1 1.37,-1.56A1.54,1.54 0,0 1,23.66 83.34Z" fill="#72304b" fill-opacity="1"/>
    <path d="M24.37,83.71a3,3 0,0 1,0.52 2.22,2.49 2.49,0 0,1 -2.5,2.42 2.81,2.81 0,0 1,0.73 -5.41,1.68 1.68,0 0,1 0.54,0.16" fill="#000000" fill-opacity="0" stroke="#8e4361" stroke-opacity="1" stroke-width="0.38"/>
</svg>