<svg xmlns="http://www.w3.org/2000/svg" width="120.0" height="120.0" viewBox="0 0 120.0 120.0">
    <path d="M65,28.33c-0.78,-1.25 -1.35,-2.07 -2.12,-3.1 -3.44,-4.66 -9.74,-6.89 -9.41,-0.77a0.17,0.17 0,0 0,0 0.07v0.07c-0.11,-0.36 -0.22,-0.71 -0.34,-1.07a27.8,27.8 0,0 0,-3.55 -7.29c1.32,0.33 1.4,1.48 2.76,1.17s1.23,-1.51 2.81,-1.51c1.13,0 3.49,2.12 6.23,5.65 0,0 0,0.06 0.12,0.2s0.24,0.41 0.44,0.75h0c0.19,0.34 0.44,0.77 0.71,1.28l0.07,0.11c0,0.07 0.07,0.13 0.11,0.21l0.14,0.28c0.46,0.92 1.11,1.94 1.62,3.06C64.65,27.57 64.93,28.21 65,28.33Z" fill="#8da1b7" fill-opacity="1"/>
    <path d="M70.41,90.16h0l1.52,0.42a34.14,34.14 0,0 0,9.74 1.14s0.06,0 0.08,0h0.08c0.35,0 0.7,0 1,-0.09 2.59,-0.29 4.24,-1.13 3.94,-2.54 0.43,1.64 0.34,4.09 -4.53,4.78C73,95.18 63.56,90.7 58.64,87c-2.6,-2 -3.27,-4.09 -3.32,-5.65a1.45,1.45 0,0 0,0.11 0.26,8.63 8.63,0 0,0 0.48,0.75C58.39,85.92 63.38,88.18 70.41,90.16Z" fill="#9cb3cd" fill-opacity="1"/>
    <path d="M88.35,95.84c-1.95,7.3 -6.95,9.33 -18.37,6.76S49.34,92.87 47.7,86.32c-1.53,-6.1 -5,-9.06 -7.77,-11.65 -4.67,-4.36 -10.18,-11.78 -8.18,-24.48 2.57,-16.28 13.52,-30.91 13.52,-30.91s1.84,-3 3.74,-2.94a4.06,4.06 0,0 1,0.56 0.07h0a26.1,26.1 0,0 1,2.91 5.51C44.43,27 36,54.81 38.47,62.16S45.24,71.93 58.15,73a37.79,37.79 0,0 1,-2.46 6.09,0.13 0.13,0 0,0 0,0.07c-2.95,6.78 -0.5,14.58 10.72,19 5.61,2.2 12.27,3.36 16.82,1.7 5,-1.8 7.45,-6.73 3.17,-11.64a3,3 0,0 0,-0.32 -0.4A7.87,7.87 0,0 1,88.35 95.84Z" fill="#9cb3cd" fill-opacity="1"/>
    <path d="M85.24,88.34c-0.81,-3.15 -8.88,-5.48 -14.21,-8.43l-0.18,-0.11c-0.2,-0.1 -0.38,-0.21 -0.56,-0.32a14.32,14.32 0,0 1,-1.52 -1l-0.06,0a0,0 0,0 0,0 0A4.21,4.21 0,0 1,67 76.5a4.2,4.2 0,0 1,-0.08 -0.47,0.71 0.71,0 0,1 0,-0.21 1.82,1.82 0,0 1,0 -0.32,1.14 1.14,0 0,0 0.06,-0.25v0a3.42,3.42 0,0 1,0.11 -0.35s0,0 0,0c4.42,-15 4.59,-21.68 3.29,-29.47 -0.85,-5.09 -3.42,-12 -5.79,-17.3 -0.06,-0.13 -0.11,-0.23 -0.16,-0.36 -0.74,-1.19 -1.54,-2.34 -2.35,-3.41 -2.41,-3.16 -4.9,-5.53 -5.91,-5.81 -2.37,-0.67 -3.72,-0.37 -2.73,6.21a0.1,0.1 0,0 0,0 0.07s0,0 0,0h0c0.07,0.24 0.15,0.5 0.21,0.75s0.2,0.7 0.29,1.05c0,0 0,0 0,0 1.95,6.71 3,9.25 5.13,28.86 1.13,10.56 -0.27,18.31 -3.31,23.2l-0.14,0.32a0.12,0.12 0,0 0,0 0.08,0.76 0.76,0 0,0 -0.06,0.18A3.22,3.22 0,0 0,55.26 81l0.06,0c2.37,-1.89 3.73,-2.25 6.93,-1.75 2,0.32 7.22,2.43 11.93,4.85C79.5,86.79 84.2,90 83,91.48 84.71,91 85.62,89.84 85.24,88.34ZM59.75,50.24c-0.21,-2 -1.24,-13.57 2.33,-14.49a2,2 0,0 1,1.12 0c2.09,0.58 4.6,4.24 5.22,13 -0.3,-2.2 -1.72,-9.89 -5,-10.46a3.44,3.44 0,0 0,-0.46 0C59.32,38.39 59.66,48.43 59.75,50.24ZM60.89,56.24c0,-0.24 -0.06,-0.5 -0.08,-0.76s-0.07,-0.55 -0.09,-0.83 0,-0.69 -0.07,-1.07 0,-0.49 0,-0.74v-0.1c0,-0.28 0,-0.56 0,-0.85 0,-1 0,-2 0.06,-3 0,-0.45 0.08,-0.89 0.14,-1.31A7.34,7.34 0,0 1,62 44a2.94,2.94 0,0 1,0.3 -0.31l0.1,-0.09a0.9,0.9 0,0 1,0.22 -0.14,1.45 1.45,0 0,1 0.41,-0.21 1.81,1.81 0,0 1,0.37 -0.1l0.5,0c3,0.13 4.83,6 4.75,13.76 -0.13,-0.77 -0.66,-11.45 -4.35,-11.2a0.4,0.4 0,0 0,-0.15 0c-3.11,0.36 -3.48,5.39 -3.34,8.87 0,0.18 0,0.37 0,0.55s0,0.14 0,0.22 0,0.39 0,0.56c0,0.54 0.1,1 0.13,1.35C61,57 60.94,56.64 60.89,56.28ZM64.73,53.15c-5,0 -3,11.72 -3,11.72 -0.63,-2.6 -1.61,-13.76 2.3,-14.77a1,1 0,0 1,0.51 0c2.15,0.39 4.39,6.43 1.64,14.54 1.24,-4.59 1.54,-11.27 -1.35,-11.46A0.39,0.39 0,0 0,64.73 53.19ZM70,41.71A77.64,77.64 0,0 0,65.4 29.33s0,0 0,0 -0.11,-0.19 -0.17,-0.29a2.41,2.41 0,0 0,0.15 0.33A79.47,79.47 0,0 1,70 41.71Z" fill="#b1c5dc" fill-opacity="1"/>
    <path d="M71.7,56.9V57c0,0.29 -0.06,0.57 -0.1,0.86s-0.08,0.7 -0.12,1c0,0 0,0.07 0,0.11 -0.17,1.3 -0.37,2.49 -0.56,3.58 -0.06,0.38 -0.12,0.74 -0.2,1.1a47.17,47.17 0,0 1,-3.62 11.13c4.43,-15 4.6,-21.67 3.29,-29.47 -0.85,-5.08 -3.41,-12 -5.78,-17.3 -0.06,-0.12 -0.11,-0.23 -0.16,-0.35 -0.51,-1.12 -1,-2.16 -1.47,-3.09 0.11,0.18 0.22,0.39 0.33,0.61 0.56,1 1.19,2.29 1.84,3.7l0,0.06a3.18,3.18 0,0 0,0.16 0.32A81.29,81.29 0,0 1,70 41.64l0.29,1.1c0.22,0.86 0.41,1.72 0.6,2.59 0.07,0.34 0.14,0.68 0.2,1s0.11,0.62 0.16,0.93c0.09,0.47 0.16,0.94 0.22,1.42l0.06,0.49c0.06,0.49 0.12,1 0.16,1.47s0.1,1.14 0.12,1.69v0A35.7,35.7 0,0 1,71.7 56.9Z" fill="#becddd" fill-opacity="1"/>
    <path d="M82.87,91.63c-0.33,0 -0.68,0.06 -1,0.09A6.84,6.84 0,0 0,83 91.48c1.67,-0.53 2.59,-1.65 2.21,-3.14 -0.94,-3.64 -11.59,-6.19 -16.47,-9.87a23.07,23.07 0,0 0,3 1.72,0 0,0 0,1 0,0l0.68,0.32c0.14,0.08 0.28,0.14 0.4,0.2l1,0.44 0.42,0.17c0.34,0.14 0.6,0.25 0.8,0.32a1.09,1.09 0,0 0,0.21 0.09,0.22 0.22,0 0,1 0.08,0c0.94,0.37 1.86,0.75 2.7,1.15a35.08,35.08 0,0 1,6.69 3.6l0.28,0.23a3.8,3.8 0,0 1,0.37 0.33,6.16 6.16,0 0,1 0.68,0.66 3,3 0,0 1,0.32 0.4,2.83 2.83,0 0,1 0.43,0.85s0,0.06 0,0.08C87.11,90.5 85.46,91.34 82.87,91.63Z" fill="#7e8da4" fill-opacity="1"/>
    <path d="M71.73,80.19 L71,79.83l-0.19,-0.11c-0.19,-0.1 -0.37,-0.21 -0.55,-0.32 -1.63,-0.9 -3.08,-2 -3.34,-2.9a2.59,2.59 0,0 1,-0.07 -0.55,1.55 1.55,0 0,1 0,-0.21c0,-0.11 0,-0.2 0,-0.31a2.44,2.44 0,0 0,0.06 -0.26s0,0 0,-0.07a0.89,0.89 0,0 1,0.06 -0.2,47.49 47.49,0 0,0 3.66,-11.27c0.07,-0.35 0.13,-0.71 0.19,-1.09 0.21,-1.09 0.39,-2.29 0.56,-3.59 0,0 0,-0.07 0,-0.11q0.08,-0.47 0.12,-1c0,-0.31 0.08,-0.62 0.1,-0.93v-0.06a32.26,32.26 0,0 0,0.07 -4.51v0c0,-0.56 -0.06,-1.13 -0.12,-1.69a14.36,14.36 0,0 0,-0.16 -1.47c0,-0.17 0,-0.33 -0.06,-0.5 -0.06,-0.47 -0.13,-0.95 -0.22,-1.41s-0.11,-0.63 -0.15,-0.93 -0.14,-0.7 -0.21,-1c-0.18,-0.86 -0.38,-1.72 -0.6,-2.59 -0.09,-0.36 -0.19,-0.73 -0.29,-1.09a79.85,79.85 0,0 0,-4.62 -12.38c-0.06,-0.11 -0.11,-0.22 -0.16,-0.33l0,-0.06c-0.66,-1.41 -1.29,-2.66 -1.85,-3.69 -0.11,-0.22 -0.22,-0.43 -0.33,-0.61s-0.1,-0.18 -0.14,-0.28a1.39,1.39 0,0 1,-0.11 -0.21L62.66,24c-0.27,-0.51 -0.52,-0.93 -0.71,-1.27v0c-0.2,-0.34 -0.36,-0.59 -0.44,-0.75 5.8,7.54 13.15,21.33 14.3,35 0,0 1.1,7.5 -5.07,14.79C66.9,76.24 68.65,78.52 71.73,80.19Z" fill="#8fa6bf" fill-opacity="1"/>
    <path d="M68.4,48.76c-0.31,-2.29 -1.85,-10.6 -5.44,-10.49s-3.32,10.15 -3.23,12c-0.21,-1.94 -1.24,-13.56 2.33,-14.49C64.28,35.16 67.67,38.36 68.4,48.76Z" fill="#a0b9d2" fill-opacity="1"/>
    <path d="M68.64,56.87c-0.13,-0.76 -0.66,-11.45 -4.35,-11.19C61,45.91 60.67,51 60.8,54.57c0,0.19 0,0.37 0,0.55s0,0.15 0,0.22 0,0.39 0,0.56c0.05,0.55 0.1,1 0.14,1.35 0,-0.29 -0.09,-0.62 -0.14,-1s-0.06,-0.5 -0.08,-0.77 -0.06,-0.55 -0.09,-0.83 -0.05,-0.69 -0.07,-1.07 0,-0.48 -0.05,-0.74v-0.09c0,-0.28 0,-0.56 0,-0.86 0,-1 0,-2 0.06,-3 0,-0.44 0.08,-0.88 0.14,-1.31A7.3,7.3 0,0 1,62 44c0.1,-0.11 0.19,-0.22 0.3,-0.32l0.1,-0.08a1.43,1.43 0,0 1,0.22 -0.15,1.45 1.45,0 0,1 0.41,-0.21 1.82,1.82 0,0 1,0.37 -0.09C66.71,42.61 68.73,48.69 68.64,56.87Z" fill="#a0b9d2" fill-opacity="1"/>
    <path d="M66.21,64.67c1.26,-4.67 1.56,-11.49 -1.5,-11.48 -5,0 -2.95,11.72 -2.95,11.72 -0.63,-2.6 -1.61,-13.76 2.3,-14.77C66.32,49.54 69.18,55.9 66.21,64.67Z" fill="#a0b9d2" fill-opacity="1"/>
    <path d="M83,91.49a6.84,6.84 0,0 1,-1.18 0.24h-0.16a33.44,33.44 0,0 1,-9.74 -1.14l-1.52,-0.41h0c-1.28,-0.75 -11.6,-5.62 -14.5,-7.86a8.63,8.63 0,0 1,-0.48 -0.75,1.45 1.45,0 0,1 -0.11,-0.26 1.73,1.73 0,0 1,-0.07 -0.31v0l0.06,0c2.37,-1.89 3.73,-2.25 6.93,-1.76 2,0.33 7.22,2.44 11.93,4.86C79.49,86.8 84.18,90 83,91.49Z" fill="#a0b9d2" fill-opacity="1"/>
    <path d="M58.38,72c-0.06,0.18 -0.2,0.8 -0.23,1 -13.46,4 -18.86,-3.36 -20.62,-11.77C35.81,53 43.77,27.7 52.48,21.92v0c0.23,0.56 0.44,1.16 0.65,1.77C54.74,28.56 55.8,35 56.94,44.28 57.78,51.17 60.63,64.84 58.38,72Z" fill="#a0b9d2" fill-opacity="1"/>
    <path d="M55.24,78.47c-3.43,2.13 -5,2.13 -7.45,1.93 -1.13,-0.09 -0.11,2.16 3.35,1.39C53.4,81.28 55.77,78.14 55.24,78.47Z" fill="#acc0d9" fill-opacity="1"/>
    <path d="M83.19,99.8c-4.55,1.66 -11.21,0.5 -16.82,-1.7 -11.22,-4.4 -13.67,-12.2 -10.72,-19a0.71,0.71 0,0 0,-0.06 0.19A3.21,3.21 0,0 0,55.25 81h0a1.83,1.83 0,0 0,0.07 0.32c0,1.56 0.72,3.67 3.32,5.65C63.56,90.7 73,95.18 82.28,93.87c4.87,-0.69 5,-3.14 4.53,-4.78 0,0 0,-0.06 0,-0.08a2.83,2.83 0,0 0,-0.43 -0.85C90.64,93.07 88.18,98 83.19,99.8Z" fill="#a0b9d2" fill-opacity="1"/>
    <path d="M58.27,72.39c2,-8.35 -0.48,-21.22 -1.32,-28.11A218.15,218.15 0,0 0,52.2 21.21c1.94,6.71 4.61,10.63 6.94,34.32 1,10.57 -0.27,18.31 -3.31,23.19A33.09,33.09 0,0 0,58.15 73C58.19,72.8 58.23,72.57 58.27,72.39Z" fill="#8fa6bf" fill-opacity="1"/>
</svg>