<svg xmlns="http://www.w3.org/2000/svg" width="120.0" height="120.0" viewBox="0 0 120.0 120.0">
    <path d="M49.92,72.19s1.62,-4.51 1.32,-7.45 -4.23,-11 -2.71,-17.35 4,-11 7.16,-10.26 4.18,7.46 3.52,11.18 -2.5,11.09 -1.13,11 2.78,-4.86 2.26,-12.77S62.45,8.14 72.81,9.28s8.1,28.77 2.54,39.29S67,84 67,84 61,73.32 49.92,72.19Z" fill="#bcddd4" fill-opacity="1"/>
    <path d="M52.91,107.63a2.16,2.16 0,0 0,0.42 -0.59c0.25,-0.6 -0.18,-1.24 -0.31,-1.64a7.17,7.17 0,0 1,-0.23 -0.94l0,0c0.11,0.71 0.64,1.63 0.63,2.18 0,0.75 -0.78,1.21 -1.19,1.39a6.39,6.39 0,0 1,-5.32 -0.6c-0.38,-0.31 -0.84,-0.66 -1.23,-1l0.07,0.21A16.25,16.25 0,0 0,48.92 109a10.17,10.17 0,0 0,8.62 0.42,12.18 12.18,0 0,1 -4.63,-1.76" fill="#bcddd4" fill-opacity="1" fill-rule="evenodd"/>
    <path d="M62.71,76.9h0a13.12,13.12 0,0 1,3.68 4.61A7.83,7.83 0,0 1,67 84l-0.06,2a5,5 0,0 1,-4.37 4.64,19.21 19.21,0 0,0 -2.52,0A4.64,4.64 0,0 0,58 92c-0.06,1 0.09,2.13 0,3.26 -0.2,4.35 -2.45,8.16 -5.21,9.24a7.73,7.73 0,0 0,0.23 1c0.13,0.39 0.56,1 0.31,1.63a2.16,2.16 0,0 1,-0.42 0.59,12.18 12.18,0 0,0 4.63,1.76C61.46,107.68 66,101.68 66.6,95c0,0 0.29,-5 0.34,-10.7l-4.12,-1.19 -0.11,-6.21" fill="#9bb7b0" fill-opacity="1" fill-rule="evenodd"/>
    <g>
        <clipPath id="clip_1">
            <path d="M62.71,76.9h0a13.12,13.12 0,0 1,3.68 4.61A7.83,7.83 0,0 1,67 84l-0.06,2a5,5 0,0 1,-4.37 4.64,19.21 19.21,0 0,0 -2.52,0A4.64,4.64 0,0 0,58 92c-0.06,1 0.09,2.13 0,3.26 -0.2,4.35 -2.45,8.16 -5.21,9.24a7.73,7.73 0,0 0,0.23 1c0.13,0.39 0.56,1 0.31,1.63a2.16,2.16 0,0 1,-0.42 0.59,12.18 12.18,0 0,0 4.63,1.76C61.46,107.68 66,101.68 66.6,95c0,0 0.29,-5 0.34,-10.7l-4.12,-1.19 -0.11,-6.21 M 0,0"/>
        </clipPath>
        <path d="M82.65 48.2H113.29V91.38H82.65z" clip-path="url(#clip_1)" fill="#ecbac9" fill-opacity="1"/>
    </g>
    <path d="M57.28,73.16c1.36,0.76 8,4.28 9.25,8.8 1.4,4.23 -0.21,9.57 -6.28,8.51 0,0 0.58,-0.22 0.58,-0.23 4,0.2 6.77,-3.08 5.48,-7.4 -1.23,-4.13 -5.72,-7.13 -10,-9.41 -1.86,-1 -4.8,-1.94 -6.48,-1.19 0.56,-1.31 2.34,-1.09 4,-0.64l0.09,0a28,28 0,0 1,3.39 1.53" fill="#f3f3f3" fill-opacity="1" fill-rule="evenodd"/>
    <path d="M50,72s0.07,-0.15 0.42,-1.26a17.47,17.47 0,0 0,0.55 -2.24c0.11,0 0.33,-0.09 0.44,-0.13a9.35,9.35 0,0 1,5.63 0.2c7.15,2.81 5.8,8.29 5.8,8.29S52.75,68.91 50,72Z" fill="#94b8b0" fill-opacity="1"/>
    <path d="M60.54,62.15a5.38,5.38 0,0 0,1.65 -3.47c0.57,-3.15 -0.48,-6.3 -0.12,-9.49a18.34,18.34 0,0 0,0.45 -4.53c-0.29,-2 -1.78,-3.68 -2.05,-5.68 -0.41,4 0.32,8.05 0.08,12.08a51.09,51.09 0,0 1,-0.84 6,2.1 2.1,0 0,1 -0.77,1.55 1,1 0,0 1,-1.33 -0.75C57.52,60 58.65,64.17 60.54,62.15Z" fill="#afcec4" fill-opacity="1"/>
    <path d="M57.59,57.77s0.36,7.78 3,2.38c1.37,-2.81 0.63,-5 0.62,-11.18 0,0 -0.88,-10.41 -0.28,-14.83a61.06,61.06 0,0 0,-0.58 12.45C60.92,57.78 58.66,60.43 57.59,57.77Z" fill="#94b8b0" fill-opacity="1"/>
    <path d="M69.59,67A109.29,109.29 0,0 1,73 54.65c0.32,-1 0.63,-2 1,-3 0.93,-2.31 2.26,-4.45 3.1,-6.8a34.64,34.64 0,0 0,1.41 -6.06l-1.22,3.59a20.91,20.91 0,0 1,-1.19 3,18.79 18.79,0 0,1 -2.26,3.14A10.27,10.27 0,0 1,71 51a7.34,7.34 0,0 0,-2 1.15,4.41 4.41,0 0,0 -0.9,2.14c-0.45,2.07 -0.87,4.25 0,6.27A17.29,17.29 0,0 1,69.59 67Z" fill="#afcec4" fill-opacity="1"/>
    <path d="M68.37,61.52s-0.83,-7.25 2.17,-9.7 6.25,-3.63 9,-17.65c0,0 -1.89,10.75 -7.58,15C68,52.14 66,56.37 68.37,61.52Z" fill="#94b8b0" fill-opacity="1"/>
    <path d="M74.57,50.67a68.94,68.94 0,0 0,-4.78 15.61,46.1 46.1,0 0,1 3.4,-15.67c0.87,-2.13 1.9,-4.19 2.93,-6.24 0.44,-0.88 2.77,-7.06 2.86,-7.35C78,42.06 78.38,42.3 74.57,50.67Z" fill="#94b8b0" fill-opacity="1"/>
    <path d="M58,94.28a2.87,2.87 0,0 1,2.47 -1.5c1.75,0 5.61,-0.11 6.2,-5.69 0,0 -1,4.61 -6.42,3.38A8.37,8.37 0,0 0,58 92Z" fill="#7da098" fill-opacity="1"/>
    <g>
        <clipPath id="clip_1">
            <path d="M54.32,77.65c0.25,1.68 -0.7,3.42 -1.42,4.83q-1.84,4.06 -3.71,8.13c-1.22,2.65 -1.12,4.88 -3.48,5.73a2.16,2.16 0,0 1,-1.6 0c-2.59,-1.13 -2.3,-4.3 -1,-7.34 1.06,-2.65 2.11,-5.29 3.16,-7.94a26.5,26.5 0,0 1,2.25 -4.62c0.89,-1.16 1.79,-2.36 3.72,-1.72a2.91,2.91 0,0 1,2.09 2.92 M 0,0"/>
        </clipPath>
        <path d="M29.59 68.54H66.84V102.35000000000001H29.59z" clip-path="url(#clip_1)" fill="#c7c7c7" fill-opacity="1"/>
    </g>
    <g>
        <clipPath id="clip_1">
            <path d="M47.38,79.17l-3.9,9.73c-1.13,2.62 -1.33,5.61 0.76,6.55a1.53,1.53 0,0 0,1.14 0c2,-0.59 2.09,-2.66 3.12,-4.91q1.77,-3.84 3.52,-7.68c1.62,-3.15 2.37,-6.56 0.12,-7.59S48.39,77 47.38,79.17 M 0,0"/>
        </clipPath>
        <path d="M30.19 69.01H65.99V101.47H30.19z" clip-path="url(#clip_1)" fill="#bcddd4" fill-opacity="1"/>
    </g>
    <g>
        <clipPath id="clip_1">
            <path d="M45.43,100.92a0.6,0.6 0,0 0,-0.46 0.71c0,0.37 0.26,0.66 0.54,0.64s0.48,-0.33 0.46,-0.7 -0.26,-0.66 -0.54,-0.65 M 0,0"/>
        </clipPath>
        <path d="M36.08 92.12H54.86V111.09H36.08z" clip-path="url(#clip_1)" fill="#e6e6e6" fill-opacity="1"/>
    </g>
    <g>
        <clipPath id="clip_1">
            <path d="M43.29,99.23a0.92,0.92 0,0 0,-0.54 1c0,0.33 0.26,0.7 0.45,0.65s0.48,-0.46 0.53,-0.81 0,-0.84 -0.44,-0.84m0,0a0.47,0.47 0,0 1,0.49 0.27A1.08,1.08 0,0 1,44 100a1.34,1.34 0,0 1,-0.1 0.64,1 1,0 0,1 -0.67,0.58 0.56,0.56 0,0 1,-0.61 -0.38,1.18 1.18,0 0,1 0,-0.62 1.85,1.85 0,0 1,0.24 -0.61,0.81 0.81,0 0,1 0.52,-0.42 M 0,0"/>
        </clipPath>
        <path d="M33.49 90.54H52.94V109.99000000000001H33.49z" clip-path="url(#clip_1)" fill="#c9c9c9" fill-opacity="1"/>
    </g>
    <g>
        <clipPath id="clip_1">
            <path d="M52.91,107.63a2.16,2.16 0,0 0,0.42 -0.59c0.25,-0.6 -0.18,-1.24 -0.31,-1.64a7.17,7.17 0,0 1,-0.23 -0.94l0,0c0.11,0.71 0.64,1.63 0.63,2.18 0,0.75 -0.78,1.21 -1.19,1.39a6.39,6.39 0,0 1,-5.32 -0.6c-0.38,-0.31 -0.84,-0.66 -1.23,-1l0.07,0.21A16.25,16.25 0,0 0,48.92 109a10.17,10.17 0,0 0,8.62 0.42,12.18 12.18,0 0,1 -4.63,-1.76 M 0,0"/>
        </clipPath>
        <path d="M38.38 94.76H64.75V121.14H38.38z" clip-path="url(#clip_1)" fill="#bcddd4" fill-opacity="1"/>
    </g>
    <g>
        <clipPath id="clip_1">
            <path d="M31.283,83.575L56.794,67.96L73.427,95.134L47.916,110.749z M 0,0"/>
        </clipPath>
        <g clip-path="url(#clip_1)">
            <clipPath id="clip_2">
                <path d="M35.84 72.25H67.67V107.61H35.84z M 0,0"/>
            </clipPath>
            <g clip-path="url(#clip_2)">
                <clipPath id="clip_3">
                    <path d="M57.09,86.45c3.13,-3.53,4.85,-6.57,5.5,-9a35.91,35.91,0,0,0,-5.15,-3.59c-.94,-.44,-1.88,-.8,-2.83,-1.25,-.45,-.15,-.9,-.36,-1.35,-.51A5.35,5.35,0,0,0,50.17,72c-.69.29,-1,1.42,-1.43,2.17,-1.11,2,-2,4.14,-3.06,6.36,-4,8.27,-5.59,17.29,-1.92,23.41,1.1,1.83,2.74,4.32,6.18,4.45a4,4,0,0,0,3,-.79c-6.52,-4.39,-1.73,-14.52,4.18,-21.18 M 0,0"/>
                </clipPath>
                <g clip-path="url(#clip_3)">
                    <clipPath id="clip_4">
                        <path d="M37.02 71.92H67.08V105.52000000000001H37.02z M 0,0"/>
                    </clipPath>
                    <path d="M28.55 64.58H76.14V114.13H28.55z" clip-path="url(#clip_4)" fill="#eeeeee" fill-opacity="1"/>
                </g>
            </g>
        </g>
    </g>
    <g>
        <clipPath id="clip_1">
            <path d="M42.74,99.46a1,1 0,0 0,0.43 1.5l0.3,0a2,2 0,0 0,-0.53 -1.4l-0.2,-0.05 M 0,0"/>
        </clipPath>
        <path d="M33.77 90.61H52.21000000000001V109.91H33.77z" clip-path="url(#clip_1)" fill="#424242" fill-opacity="1"/>
    </g>
    <g>
        <clipPath id="clip_1">
            <path d="M43.45,100.82l-0.27,0.1c-0.36,-0.23 -0.87,-0.78 -0.43,-1.33 0,0 0,-0.06 0,-0.08l0.16,0a2.72,2.72 0,0 1,0.52 1.27 M 0,0"/>
        </clipPath>
        <path d="M33.8 90.67H52.15V109.82H33.8z" clip-path="url(#clip_1)" fill="#aaabac" fill-opacity="1"/>
    </g>
    <g>
        <clipPath id="clip_1">
            <path d="M42.88,99.48c-0.24,0 -0.41,0.36 -0.39,0.77s0.24,0.74 0.48,0.73 0.41,-0.37 0.38,-0.78 -0.23,-0.74 -0.47,-0.72 M 0,0"/>
        </clipPath>
        <path d="M33.56 90.69H52.28V109.75999999999999H33.56z" clip-path="url(#clip_1)" fill="#e6e6e6" fill-opacity="1"/>
    </g>
    <g>
        <clipPath id="clip_1">
            <path d="M33.58,67.4l0.08,0Z M 0,0"/>
        </clipPath>
        <path d="M24.74 58.54H42.5V76.24H24.74z" clip-path="url(#clip_1)" fill="#7a7a7c" fill-opacity="1"/>
    </g>
    <g>
        <clipPath id="clip_1">
            <path d="M49.77,72.27l0.06,-0.07 -0.06,0.07 M 0,0"/>
        </clipPath>
        <path d="M40.92 63.38H58.69V81.09H40.92z" clip-path="url(#clip_1)" fill="#424242" fill-opacity="1"/>
    </g>
    <g>
        <clipPath id="clip_1">
            <path d="M45.78,100.72a0.81,0.81 0,0 0,-0.58 0.93c0.06,0.34 0.33,0.64 0.58,0.59s0.53,-0.36 0.58,-0.72a0.62,0.62 0,0 0,-0.58 -0.8m0,0c0.46,0 0.74,0.37 0.79,0.77a1,1 0,0 1,-0.79 1.15,0.78 0.78,0 0,1 -0.79,-1 1.06,1.06 0,0 1,0.79 -1 M 0,0"/>
        </clipPath>
        <path d="M36.04 91.97H55.489999999999995V111.42H36.04z" clip-path="url(#clip_1)" fill="#c9c9c9" fill-opacity="1"/>
    </g>
    <g>
        <clipPath id="clip_1">
            <path d="M52,82.84q-1.75,3.84 -3.52,7.68c-1,2.14 -1,4.28 -2.83,4.91a1.93,1.93 0,0 1,-1.38 0c-2.08,-0.92 -1.84,-3.92 -0.74,-6.5q1.91,-4.72 3.8,-9.46c1,-2.3 2,-4.86 4.82,-4.15 2.67,2.29 1.45,4.39 -0.15,7.54 M 0,0"/>
        </clipPath>
        <path d="M30.27 69.07H65.89V101.57H30.27z" clip-path="url(#clip_1)" fill="#424242" fill-opacity="1"/>
    </g>
    <g>
        <clipPath id="clip_1">
            <path d="M45.76,100.51l-0.18,0.08c-0.3,0.61 0,1 0.38,1.32h0.3a0.49,0.49 0,0 0,0.26 -0.19,1 1,0 0,0 -0.47,-1.17l-0.29,0 M 0,0"/>
        </clipPath>
        <path d="M36.67 91.61H55.34V110.78999999999999H36.67z" clip-path="url(#clip_1)" fill="#424242" fill-opacity="1"/>
    </g>
    <g>
        <clipPath id="clip_1">
            <path d="M53,105.4a7.53,7.53 0,0 1,-0.34 -2.74c0.16,-2.82 2.53,-7.06 3.76,-8.8 0.88,-1.25 1.87,-2.68 3.2,-3.21 2.09,-0.82 3.68,0 5.45,-1.75a6.62,6.62 0,0 0,1.52 -5.69,11.55 11.55,0 0,0 -4,-5.77c-0.65,2.44 -2.37,5.48 -5.5,9 -5.91,6.66 -10.7,16.79 -4.19,21.18a2,2 0,0 0,0.43 -0.59c0.25,-0.6 -0.18,-1.24 -0.31,-1.64 M 0,0"/>
        </clipPath>
        <path d="M36.22 73.31H79.38V111.69H36.22z" clip-path="url(#clip_1)" fill="#d5d5d5" fill-opacity="1"/>
    </g>
    <g>
        <clipPath id="clip_1">
            <path d="M57.28,73.16c1.36,0.76 8,4.28 9.25,8.8 1.4,4.23 -0.21,9.57 -6.28,8.51 0,0 0.58,-0.22 0.58,-0.23 4,0.2 6.77,-3.08 5.48,-7.4 -1.23,-4.13 -5.72,-7.13 -10,-9.41 -1.86,-1 -4.8,-1.94 -6.48,-1.19 0.56,-1.31 2.34,-1.09 4,-0.64l0.09,0a28,28 0,0 1,3.39 1.53 M 0,0"/>
        </clipPath>
        <path d="M45.57 59.14H73.31V99.88H45.57z" clip-path="url(#clip_1)" fill="#c7c7c7" fill-opacity="1"/>
    </g>
    <g>
        <clipPath id="clip_1">
            <path d="M45.44,101.32c0.1,0.43 0.45,0.72 0.77,0.64a0.73,0.73 0,0 0,0.4 -0.92c-0.11,-0.43 -0.45,-0.72 -0.77,-0.65a0.73,0.73 0,0 0,-0.4 0.93 M 0,0"/>
        </clipPath>
        <path d="M36.56 91.55H55.49V110.81H36.56z" clip-path="url(#clip_1)" fill="#aaabac" fill-opacity="1"/>
    </g>
    <g>
        <clipPath id="clip_1">
            <path d="M42.57,100.32c0.12,0.49 0.43,0.82 0.71,0.76s0.41,-0.51 0.29,-1 -0.43,-0.82 -0.7,-0.76 -0.41,0.51 -0.3,1 M 0,0"/>
        </clipPath>
        <path d="M33.67 90.5H52.480000000000004V109.92H33.67z" clip-path="url(#clip_1)" fill="#aaabac" fill-opacity="1"/>
    </g>
    <path d="M-68.3,-2382.53H675.7V1552.58H-68.3z" fill="#000000" fill-opacity="0" stroke="#32dd14" stroke-opacity="1" stroke-width="11.07"/>
</svg>