<svg xmlns="http://www.w3.org/2000/svg" width="120.0" height="120.0" viewBox="0 0 120.0 120.0">
    <path d="M48.19,92.32c2,-0.21 5.51,2.14 6.61,2.87 3,2 3.41,2.67 5.33,5.72 0.67,1.07 2.1,3.23 1.43,5.17 -0.46,0.58 -8.75,1.28 -9.9,0.75 0,0 0.65,-3.15 0.08,-4.54 -0.92,-2.21 -4.22,-5.86 -7.19,-5.85C45.06,95.94 47.4,92.79 48.19,92.32Z" fill="#e4dace" fill-opacity="1" fill-rule="evenodd"/>
    <path d="M74.15,6.76c5.78,-1.31 9.69,0.67 11.22,2.71 1.94,2.61 -2,9 -3.39,10.41 -7.19,7.19 -19,10 -27.83,15.49C43.9,41.82 36.44,53.23 31.76,65.25 27.5,76.17 28,93.93 38,98.22c2.12,0.91 4.23,-0.06 5.62,-1 0.38,-0.28 0.65,-0.72 1.22,-0.82 1.28,-0.2 3.44,1.54 4.15,2.11a10.14,10.14 0,0 1,3.34 5.26c0.28,1 0.27,2.6 -0.53,3s-2.66,0 -3.57,-0.12a32.53,32.53 0,0 1,-9.12 -2.1A31.06,31.06 0,0 1,31 99.63c-5.41,-4.39 -9,-17.26 -6.84,-27.48A59.19,59.19 0,0 1,26.61 63a76.19,76.19 0,0 1,8.54 -16.2c3.45,-4.9 7.29,-9.46 10.76,-14.38 5.38,-7.64 10,-16 18,-21A26.2,26.2 0,0 1,74.15 6.76Z" fill="#000000" fill-opacity="1"/>
    <path d="M53.16,25.9a2.15,2.15 0,0 0,-1 0.88l0.24,0.47a1.57,1.57 0,0 0,1.57 -0.7c0,-0.35 0,-0.39 -0.23,-0.53Z" fill="#000000" fill-opacity="1"/>
    <path d="M50.17,29.06c-0.5,0.31 -0.75,0.4 -1,1l0.23,0.41c0.81,0.06 1.53,-0.19 1.58,-1.05l-0.23,-0.29 -0.12,-0.06Z" fill="#000000" fill-opacity="1"/>
    <path d="M77.65,70c7.6,-0.14 15.64,3.25 13,11.7a27.52,27.52 0,0 1,-2.46 5.67c-5.16,8.82 -14.74,17 -26.83,18.77 1,-1.66 -1.35,-5.51 -2.06,-6.52C56,94.84 50,92.15 48.19,92.32a2,2 0,0 1,0.17 -0.23l4,-5.56c4.29,-6 9.37,-11 16.54,-14.15a39.72,39.72 0,0 1,6.08 -2Z" fill="#000000" fill-opacity="1"/>
    <path d="M40.59,48.61S51.48,31 61.74,27.25s24,-14.39 24,-14.39 -1.8,5.61 -4.6,7.86 -7.34,5.26 -17.95,10C49.18,35.41 40.59,48.61 40.59,48.61Z" fill="#000000" fill-opacity="1"/>
    <path d="M88.23,87.41s-7,15.16 -26.83,18.77a2.09,2.09 0,0 0,0.28 -1.4,7.7 7.7,0 0,0 -0.71,-2.22C61.71,102.53 75.64,100.09 88.23,87.41Z" fill="#000000" fill-opacity="1"/>
    <path d="M56.24,96.28S61.71,74.7 77.65,70a33.13,33.13 0,0 0,-15.86 6.53C55,81.63 48.19,92.32 48.19,92.32S51.24,92.31 56.24,96.28Z" fill="#000000" fill-opacity="1"/>
    <path d="M36.54,103.3S24.63,100 23.66,81.72c-1.37,-26.41 19,-43 19,-43S10.21,77.93 36.54,103.3Z" fill="#000000" fill-opacity="1"/>
    <path d="M78.3,9c0.07,0.74 -1.38,1.48 -3.25,1.66s-3.43,-0.28 -3.5,-1S72.94,8.17 74.8,8 78.23,8.28 78.3,9Z" fill="#000000" fill-opacity="1"/>
</svg>