<svg xmlns="http://www.w3.org/2000/svg" width="120.0" height="120.0" viewBox="0 0 120.0 120.0">
    <path d="M88.23,36.68c-2.16,9.62 -8.79,17.15 -17,23.63a23.45,23.45 0,0 0,-7.24 9c-1.84,4.29 -0.7,8.7 0.61,12.94 2,6.36 4,12.7 5,19.3a42.86,42.86 0,0 1,0.49 8.1c-0.15,5.46 -4.87,7.77 -9.64,6.55 -4.46,-1.14 -8.31,-3.63 -12.19,-6a75.57,75.57 0,0 1,-14.59 -11,20.32 20.32,0 0,1 -4.35,-6.34c-1.36,-3.11 0.18,-7 3.78,-9.43 3.09,-2.09 6.43,-3.84 9.37,-6.12 6.1,-4.74 9.18,-11 8,-18.84 -0.78,-5.3 -2.26,-10.5 -2.27,-15.91a37.12,37.12 0,0 1,4 -16.43A46.46,46.46 0,0 1,60.1 14.72c4.68,-5.06 9.63,-9.81 16.9,-11 7.81,-1.25 11.62,2.47 13.21,9.37C92,20.77 90.91,28.38 88.23,36.68Z" fill="#91bd8f" fill-opacity="1"/>
    <path d="M90.2,13.14a30.92,30.92 0,0 1,1.08 5.91,38.06 38.06,0 0,1 0,6A55.75,55.75 0,0 1,89 37l0,-0.08a33.56,33.56 0,0 1,-4.73 11.37,49.78 49.78,0 0,1 -8,9.32c-1.48,1.39 -3.07,2.7 -4.62,4a26.8,26.8 0,0 0,-4 4.07,17.7 17.7,0 0,0 -2.79,4.84 12.11,12.11 0,0 0,-0.52 5.41,33.42 33.42,0 0,0 1.24,5.66l1.7,5.77a114.89,114.89 0,0 1,2.82 11.79,47.35 47.35,0 0,1 0.67,6.07c0,1 0,2 0,3 0,0.51 0,1 -0.08,1.53a9.35,9.35 0,0 1,-0.26 1.57,7.22 7.22,0 0,1 -1.41,2.84A6.47,6.47 0,0 1,66.55 116a8.85,8.85 0,0 1,-6 0.17,9 9,0 0,0 5.77,-0.66 6,6 0,0 0,3.19 -4.43,13.74 13.74,0 0,0 0.1,-2.89c0,-1 -0.09,-2 -0.18,-3a47.1,47.1 0,0 0,-1 -5.84c-0.82,-3.88 -2,-7.69 -3.19,-11.5l-1.83,-5.73a31.79,31.79 0,0 1,-1.43 -6,14.54 14.54,0 0,1 0.59,-6.46 19.66,19.66 0,0 1,3.14 -5.57,29.51 29.51,0 0,1 4.45,-4.42c1.58,-1.26 3.09,-2.49 4.55,-3.83a50.23,50.23 0,0 0,7.81 -8.75,32.52 32.52,0 0,0 4.86,-10.56v-0.08A62,62 0,0 0,90.35 25,37.11 37.11,0 0,0 90.2,13.14Z" fill="#75a372" fill-opacity="1"/>
    <path d="M58.89,73.6a26.12,26.12 0,0 0,-7.13 8,90.24 90.24,0 0,0 -5.13,9.74 91.9,91.9 0,0 1,4.42 -10.15,27.36 27.36,0 0,1 6.88,-8.89Z" fill="#75a372" fill-opacity="1"/>
    <path d="M50.16,74.28a12.68,12.68 0,0 1,-0.19 4.1c-0.25,1.29 -0.51,2.55 -0.83,3.83 -0.64,2.53 -1.46,5 -2.2,7.46 0.47,-2.55 1,-5.08 1.4,-7.62 0.18,-1.26 0.31,-2.56 0.41,-3.83a11.11,11.11 0,0 0,-0.19 -3.62Z" fill="#75a372" fill-opacity="1"/>
    <path d="M63.12,15.29a24.33,24.33 0,0 0,-1.91 1.89A32.84,32.84 0,0 0,58 21.35a44.51,44.51 0,0 0,-4.62 9.42c-0.25,0.72 -0.5,1.44 -0.72,2.17a33.37,33.37 0,0 0,-1.34 6A17.35,17.35 0,0 0,51.39 46a1.35,1.35 0,0 0,0.2 0.44,0.48 0.48,0 0,0 0.41,0.19c0.41,0 0.37,-0.58 0.38,-0.91a67.27,67.27 0,0 1,0.28 -7.12,34.36 34.36,0 0,1 1.45,-5.73A47.54,47.54 0,0 1,63 17.65c0.33,-0.39 0.66,-0.77 1,-1.14A10.29,10.29 0,0 0,65 15.44a2.53,2.53 0,0 0,0.13 -0.22,2.16 2.16,0 0,0 0.26,-0.65 1,1 0,0 0,0 -0.65,0.32 0.32,0 0,0 -0.46,-0.11 4.36,4.36 0,0 0,-0.88 0.67c-0.24,0.21 -0.48,0.42 -0.71,0.64Z" fill="#ffffff" fill-opacity="0.25" fill-rule="evenodd"/>
</svg>