<svg xmlns="http://www.w3.org/2000/svg" width="120.0" height="120.0" viewBox="0 0 120.0 120.0">
    <path d="M57.7,31.26C48.1,50 30.22,85.58 25.8,93.52c-5.55,10 0.2,15.51 3.22,17.3s9,2.91 15.47,-6.29c5.21,-7.45 25.85,-39.13 38.6,-58.09 -3.32,0.21 -8.75,-1.5 -14.26,-4.76S59,34.3 57.7,31.26Z" fill="#cea596" fill-opacity="1" fill-rule="evenodd"/>
    <path d="M69.35,40.85c-5.83,-3.46 -10.07,-7.68 -11.08,-10.7l-0.57,1.11c1.31,3 5.5,7.08 11.13,10.42s10.94,5 14.26,4.76c0.22,-0.34 0.44,-0.66 0.66,-1C80.56,45.87 75,44.19 69.35,40.85Z" fill="#d89c9c" fill-opacity="1" fill-rule="evenodd"/>
    <path d="M85.79,11.3C71.5,2.84 68,12.09 63.11,20.89c-0.92,1.67 -2.63,5 -4.84,9.26 1,3 5.25,7.24 11.08,10.7 5.65,3.34 11.21,5 14.4,4.61C86,42.16 87.93,39.28 89.5,37 100,22 98.72,19 85.79,11.3Z" fill="#e2b9b7" fill-opacity="1" fill-rule="evenodd"/>
    <path d="M89.44,19.07c2.15,0.72 3.74,0.82 4.15,0.12 0.73,-1.23 -2.47,-4.47 -7.14,-7.24s-9.06,-4 -9.79,-2.78c-0.41,0.7 0.44,2.05 2.11,3.59a33.14,33.14 0,0 1,10.67 6.31Z" fill="#d89c9c" fill-opacity="1" fill-rule="evenodd"/>
    <path d="M89.44,19.07a33.14,33.14 0,0 0,-10.67 -6.31,31 31,0 0,0 5,3.65A30.29,30.29 0,0 0,89.44 19.07Z" fill="#bf8888" fill-opacity="1" fill-rule="evenodd"/>
    <path d="M23.65,99.35c0.06,3.47 -0.12,7.31 4.93,5.2 6.26,-2.63 38.74,-63.8 38.74,-63.8s1.44,1 3.34,2S74,44.33 74,44.33 52.7,78.49 44.92,90.44s-14.11,22.34 -19.36,17.14C22.64,104.7 23.65,99.35 23.65,99.35Z" fill="#e2c8c0" fill-opacity="1" fill-rule="evenodd"/>
    <path d="M74.76,43.57l1.47,0.57 1.88,0.61 1.25,0.33 1.55,0.3 1.57,0.14h0.94l0.33,-0.06 3.57,-5.27 0.92,-1.34 0.85,-1.23 1.49,-2.15a47.18,47.18 0,0 0,4.84 -8.34,18.24 18.24,0 0,0 1,-3.4l0.08,-0.86 -0.1,-0.79c0,0.36 -0.37,0.73 -0.66,0.86a2.2,2.2 0,0 1,-0.83 0.2,9.18 9.18,0 0,1 -2.44,-0.27 25.14,25.14 0,0 1,-3.68 -1.21l-0.4,-0.18a1.42,1.42 0,0 0,-1.82 0.62Z" fill="#d89c9c" fill-opacity="1" fill-rule="evenodd"/>
    <path d="M-167.52,-2065.8H1507.99V1426.77H-167.52z" fill="#000000" fill-opacity="0" stroke="#3299fe" stroke-opacity="1" stroke-width="19.72"/>
</svg>