<svg xmlns="http://www.w3.org/2000/svg" width="120.0" height="120.0" viewBox="0 0 120.0 120.0">
    <path d="M68.2,101.47c0.38,0.12 1.14,0 1.16,-0.17l0.43,0.89 1.39,1c-2.13,0.6 -4.86,-1.12 -7.43,-3.36C60,96.51 55.56,90.48 49.39,80.18c-6.31,-10.58 -15.37,-31 -16.54,-33C33.91,49 35,51 35,51a1.17,1.17 0,0 1,0.28 0c1.76,3.72 12,25.08 20.28,37.25C62.57,98.57 64.67,100.36 68.2,101.47Z" fill="#c447a1" fill-opacity="1"/>
    <path d="M68,101.35c-3.53,-1.14 -5.45,-2.78 -12.48,-13.1C47.24,76.08 37,54.72 35.26,51c1.08,0.3 5.06,2.12 9.28,13.25 3.83,10.08 5.7,12.55 5.7,12.55s1.21,2 2,1.86 7,-5.75 10.37,-10.85 5.53,-9 8.53,-17.81 5.61,-22.28 8.41,-27.35 9.21,-10.73 17,-7.41 9.24,11.93 6.71,22.44 -12.08,22.43 -22.51,34S67.56,88.15 66.14,91.79c-1,2.68 -0.18,4.27 0.61,6a16.66,16.66 0,0 0,2.59 3.59A2.29,2.29 0,0 1,68 101.35Z" fill="#d158a9" fill-opacity="1"/>
    <path d="M73.44,51.91c0.67,-3.31 1.35,-6.57 2.08,-9.84S77,35.53 78,32.29c0.48,-1.62 1,-3.23 1.61,-4.83A19.28,19.28 0,0 1,82 22.84a15,15 0,0 1,8.22 -5.94,18.45 18.45,0 0,0 -6.92,6.8 21,21 0,0 0,-2 4.41q-0.8,2.33 -1.47,4.74c-1,3.19 -1.82,6.42 -2.85,9.62A71.25,71.25 0,0 1,73.44 51.91Z" fill="#ffffff" fill-opacity="0.25"/>
    <path d="M39.13,63.35C33.28,51.1 31.5,43.55 26.49,38.61A3.58,3.58 0,0 0,25.06 38c-2.64,-0.39 -7.14,3.32 -8.53,8.57s-2.45,14.22 8.32,30.93c10.87,16.88 21.82,23.27 35.38,26.53 5.91,1.42 9.44,2.41 12.71,1C66.69,106.52 57.75,102.39 39.13,63.35ZM34.21,79.07c1.57,0 4,1.63 6.46,3.55S49.21,92 50.8,93.91a56.93,56.93 0,0 0,6 6.13c1.75,1.54 4.27,3.11 3.37,3.56 -1.22,0.61 -6,-1.33 -10.41,-3.63s-12,-8.87 -15.3,-14.24S32.64,79.07 34.21,79.07Z" fill="#c447a1" fill-opacity="1"/>
    <path d="M38.39,85.17c1.33,0 3.54,1 8,6a97.06,97.06 0,0 0,10.71 10.36c2.38,1.87 0.46,1.41 0.46,1.41A23.16,23.16 0,0 1,52 100.68c-2.82,-1.46 -6.47,-4.1 -11.09,-9S37.35,85.17 38.39,85.17Z" fill="#c447a1" fill-opacity="1"/>
    <path d="M72.94,105.08c-6.07,1.48 -15.19,-2.69 -33.81,-41.73C33.28,51.1 31.5,43.55 26.49,38.61c2,1.33 3.73,4.46 4.54,5.58C31.56,45 37.13,57.87 44,71.8 50.26,84.56 58.6,96.11 61.05,98.56c4.38,4.38 8.43,6.84 11.57,6.06C72.84,104.62 73.07,105 72.94,105.08Z" fill="#b73091" fill-opacity="1"/>
    <path d="M63.75,99.83c2.57,2.24 5.3,4 7.43,3.36 0,0 0.39,0.6 0.49,0.72s1,0.71 1,0.71c-3.14,0.78 -7.11,-1.6 -11.49,-6C58.68,96.19 50.26,84.56 44,71.8 37.13,57.87 31.56,45 31,44.19c0.4,0.56 1.11,1.75 1.82,3 1.17,2 10.23,22.43 16.54,33C55.56,90.48 60,96.51 63.75,99.83Z" fill="#ba3e9d" fill-opacity="1"/>
    <path d="M34.5,85.73C37.76,91.1 45.42,97.66 49.8,100s9.19,4.24 10.41,3.63c0.9,-0.45 -1.62,-2 -3.37,-3.56a56.93,56.93 0,0 1,-6 -6.13C49.21,92 43.12,84.55 40.67,82.62s-4.89,-3.55 -6.46,-3.55S31.25,80.37 34.5,85.73ZM38.39,85.17c1.33,0 3.54,1 8,6a97.06,97.06 0,0 0,10.71 10.36c2.38,1.87 0.46,1.41 0.46,1.41A23.16,23.16 0,0 1,52 100.68c-2.82,-1.46 -6.47,-4.1 -11.09,-9S37.35,85.17 38.39,85.17Z" fill="#d158a9" fill-opacity="1"/>
    <path d="M-112.64,-381.08H1422.11V3123.93H-112.64z" fill="#000000" fill-opacity="0" stroke="#32dd14" stroke-opacity="1" stroke-width="23.55"/>
</svg>