<svg xmlns="http://www.w3.org/2000/svg" width="120.0" height="120.0" viewBox="0 0 120.0 120.0">
    <path d="M47,29.94c-2.74,7.1 -0.48,15.88 1.2,23.63 1.27,5.87 -1.11,9.34 -3.44,11.58 -4.46,4.28 -11.88,0.06 -17.86,8.28a8.66,8.66 0,0 0,3.6 13.26,30.45 30.45,0 0,0 12.84,1.9c-1.69,0.24 -3.42,0.41 -5.21,0.51 -11.26,0.66 -16.44,-5.19 -17.65,-11.42C25.55,62.69 37,68 42.84,64c3.82,-2.66 4.86,-6.47 3.12,-12.28 -2.91,-9.75 -4.43,-16.22 0.48,-25.21 1.49,-2.73 3.32,-4.41 5.13,-4.81C50.88,22.22 49.22,24.07 47,29.94Z" fill="#384349" fill-opacity="1"/>
    <path d="M29.65,74.76c-2.06,2.2 0,6.67 3.9,8.35A7.36,7.36 0,0 1,29.65 74.76Z" fill="#4b585f" fill-opacity="1"/>
    <path d="M66.93,64.51h0a11.54,11.54 0,0 1,-1.18 0.16,14.25 14.25,0 0,1 -1.44,0C44.63,65.87 54,48.8 54.09,36.88c0,-7 -0.57,-12.19 -2.5,-15.2l0,0 0,0c-0.7,0.58 -2.35,2.46 -4.59,8.27 -2.74,7.11 -0.48,15.89 1.2,23.63 1.27,5.87 -1.11,9.35 -3.44,11.58 -4.46,4.29 -11.88,0.06 -17.86,8.28a8.67,8.67 0,0 0,3.6 13.27A30.47,30.47 0,0 0,43.3 88.59h0C70.1,84.92 85.93,66.32 94.87,65.87 84.32,60.34 71.86,63.66 66.93,64.51ZM76.47,70.17c-8,10.45 -35.8,16 -42.92,13a4.09,4.09 0,0 1,-0.47 -0.23c-3.59,-1.81 -5.41,-6 -3.43,-8.12h0c1.09,-1.15 3.32,-1.67 7,-0.83 9.72,2.22 21.52,-0.08 32.59,-4.39l1.23,-0.48C76.51,66.65 79,67 76.47,70.17Z" fill="#4b585f" fill-opacity="1"/>
    <path d="M64.28,64.72C44.63,65.87 54,48.8 54.09,36.88c0,-7 -0.57,-12.19 -2.5,-15.2 2.17,0.67 4.87,4.89 5.64,9.88 0.05,0.31 0.09,0.61 0.13,0.92C58.59,42.25 55,47.1 54.2,51.64 53,58.55 56.45,63 59.56,63.91l0.29,0.09L60,64l0.49,0.08 0,0 0.1,0A10.72,10.72 0,0 0,64.28 64.72Z" fill="#5b6770" fill-opacity="1"/>
    <path d="M95.72,66.2C81.35,70.56 67.09,92.33 41.19,95a22.43,22.43 0,0 1,-10.5 -2.6s-0.05,0 -0.08,0c-0.7,-0.44 -1.4,-0.91 -2.12,-1.4l0,0s-7,-4.43 -8.15,-12a1.67,1.67 0,0 1,0.15 -1.24c1.21,6.23 6.39,12.08 17.65,11.42 1.79,-0.1 3.52,-0.27 5.21,-0.51h0C70.1,84.92 85.93,66.31 94.87,65.87Z" fill="#c4aba9" fill-opacity="1"/>
    <path d="M97.08,66.87C87,70.21 76.8,82 62.68,89.43c0,0 0,0 0,0a141.7,141.7 0,0 1,-14 4.68,28.7 28.7,0 0,1 -7.45,0.88c25.9,-2.68 40.16,-24.45 54.53,-28.81A12.32,12.32 0,0 1,97.08 66.87Z" fill="#8d7271" fill-opacity="1"/>
    <path d="M100.22,71.77c-1.94,-3.41 -16.39,7.4 -27.34,13.72 0,0 0,0 0,0 -3.4,1.32 -6.87,2.68 -10.18,3.92C76.8,82 87,70.21 97.08,66.87 99.48,68.22 100.33,69.92 100.22,71.77Z" fill="#c4aba9" fill-opacity="1"/>
    <path d="M95.76,80.05a1.43,1.43 0,0 0,-0.13 -1.88c-1.26,-1.07 -11.59,3 -22.75,7.32 11,-6.32 25.4,-17.13 27.34,-13.72C100.08,74.4 98,77.35 95.76,80.05Z" fill="#8d7271" fill-opacity="1"/>
    <path d="M95.76,80.05a0,0 0,0 1,0 0c-10.81,13 -37.89,28 -65,12.34A22.43,22.43 0,0 0,41.19 95a28.7,28.7 0,0 0,7.45 -0.88,141.7 141.7,0 0,0 14,-4.68s0,0 0,0c3.31,-1.24 6.78,-2.6 10.18,-3.92 0,0 0,0 0,0C84,81.15 94.37,77.1 95.63,78.17A1.43,1.43 0,0 1,95.76 80.05Z" fill="#384349" fill-opacity="1"/>
    <path d="M76.47,70.16c-8,10.45 -35.8,16 -42.92,13 -3.9,-1.68 -6,-6.15 -3.9,-8.35h0c1.09,-1.15 3.32,-1.67 7,-0.83 9.72,2.21 21.52,-0.09 32.59,-4.39l1.23,-0.48C76.5,66.64 79,67 76.47,70.16Z" fill="#5b6770" fill-opacity="1"/>
    <path d="M60.46,64.1 L60,64l-0.12,0 -0.29,-0.09C56.45,63 53,58.55 54.2,51.64c0.78,-4.54 4.39,-9.39 3.16,-19.16 0,-0.31 -0.08,-0.61 -0.13,-0.92 -0.77,-5 -3.47,-9.21 -5.64,-9.88l0,0h0A6.09,6.09 0,0 1,56.87 25c7.06,12.84 1.09,21.55 0,26.35a23.9,23.9 0,0 0,-0.58 6c0.1,3.27 1.37,5.63 4.1,6.68Z" fill="#384349" fill-opacity="1"/>
    <path d="M51.59,21.68h-0.06a0,0 0,0 1,0 0h0Z" fill="#384349" fill-opacity="1"/>
    <path d="M-132.03,-113.88H756.11V895.41H-132.03z" fill="#000000" fill-opacity="0" stroke="#3299fe" stroke-opacity="1" stroke-width="16.87"/>
</svg>