<svg xmlns="http://www.w3.org/2000/svg" width="120.0" height="120.0" viewBox="0 0 120.0 120.0">
    <path d="M5.68,114.12A2.58,2.58 0,0 1,4.8 113,4.28 4.28,0 0,1 5,110.09a37.07,37.07 0,0 1,3.94 -8.17A100.24,100.24 0,0 1,32.78 75.58c9.64,-7.26 20.72,-12.51 30.6,-19.48 8.28,-5.85 16.27,-12 22.71,-19.82Q92,29 97.63,21.53q2.9,-3.87 5.7,-7.82C105,11.3 107.1,9.17 108.9,6.8a5.6,5.6 0,0 1,3.17 -1.95c1.33,-0.37 2.22,0.4 2.86,1.43 0.78,1.24 0.56,3.63 -0.6,4.49C109.11,14.66 105,19.85 101.15,25S93.38,35.52 89.6,40.84C85.53,46.56 81,52 77.31,58Q75.58,60.66 74,63.39c-12.68,22.27 -34,41.18 -58,50.48 -2.7,1 -5.34,1.76 -8.24,1.13A5.22,5.22 0,0 1,5.68 114.12Z" fill="#cfb0c6" fill-opacity="1"/>
    <path d="M74,63.41a118.52,118.52 0,0 1,-39.23 40.93,109.33 109.33,0 0,1 -17.86,9.3c-3.58,1.43 -7.43,2.42 -11,0.67a20,20 0,0 0,10.86 -2.11,66.77 66.77,0 0,0 7,-4C32.4,102.9 41,97.53 48.77,91A145.78,145.78 0,0 0,69.53 69.16l0.19,-0.24A50.47,50.47 0,0 0,74 63.41Z" fill="#bc93b2" fill-opacity="1"/>
    <path d="M25.236,90.73a4.78,3.68 130.85,1 0,6.253 -7.231a4.78,3.68 130.85,1 0,-6.253 7.231z" fill="#bc93b2" fill-opacity="1"/>
    <path d="M32.13,84.13a3.5,3.5 0,0 0,-3 -0.76,5.81 5.81,0 0,0 -2.8,1.4 6,6 0,0 0,-1.73 2.62,3.55 3.55,0 0,0 0.4,3.08A2.87,2.87 0,0 1,24.15 89a4,4 0,0 1,0 -1.73,5.75 5.75,0 0,1 4.91,-4.36 4,4 0,0 1,1.72 0.2A2.92,2.92 0,0 1,32.13 84.13Z" fill="#af84a7" fill-opacity="1"/>
    <path d="M36.87,80.52l-0.1,-0.09c-0.21,-0.16 -0.32,-0.52 -0.6,-0.48s-0.43,0.27 -0.64,0.43 -0.15,0.13 -0.23,0.18 -0.48,0.2 -0.65,0 0,-0.43 0.2,-0.58l0.15,-0.12c0.63,-0.48 0.65,-0.49 0.18,-1.09a0.38,0.38 0,0 1,0.06 -0.59A0.51,0.51 0,0 1,36 78c0.23,0.17 0.33,0.61 0.67,0.52s0.47,-0.33 0.71,-0.5a1.11,1.11 0,0 1,0.3 -0.17,0.39 0.39,0 0,1 0.51,0.17 0.36,0.36 0,0 1,-0.14 0.47c-0.21,0.15 -0.41,0.32 -0.63,0.46s-0.36,0.29 -0.06,0.51c0.09,0.06 0.14,0.18 0.22,0.25a0.38,0.38 0,0 1,0.06 0.6A0.56,0.56 0,0 1,36.87 80.52Z" fill="#000000" fill-opacity="1"/>
    <path d="M18.76,97.61c-0.18,0.35 -0.33,0.37 -0.51,0.18 -0.55,-0.58 -1.09,-1.16 -1.62,-1.76a0.7,0.7 0,0 1,-0.12 -0.6,0.55 0.55,0 0,1 0.27,-0.45c0.19,-0.07 0.28,0.13 0.39,0.24 0.47,0.5 0.93,1 1.39,1.51A0.8,0.8 0,0 1,18.76 97.61Z" fill="#000000" fill-opacity="1"/>
    <path d="M-827.2,-394.55H707.55V2588.84H-827.2z" fill="#000000" fill-opacity="0" stroke="#32dd14" stroke-opacity="1" stroke-width="21.73"/>
</svg>