<svg xmlns="http://www.w3.org/2000/svg" width="120.0" height="120.0" viewBox="0 0 120.0 120.0">
    <path d="M91,37.69l0.33,-0.06Z" fill="#f4ead9" fill-opacity="1" fill-rule="evenodd"/>
    <path d="M27.9,50.49c-6.74,16 -9.58,32 -0.71,44.91a18.66,18.66 0,0 0,4.7 4.89c1.16,0.82 8.91,5.66 16.25,4.36C57.41,103 66,96.59 74.43,89.39c4.59,-3.94 11.39,-12 18.15,-22.47s7.63,-26.55 2.52,-37.3a25.4,25.4 0,0 0,-4.26 -5.85c-10.71,-11.7 -28.25,-13 -46.47,4.28C38.68,33.46 31.32,42.39 27.9,50.49ZM52,64.82a17.15,17.15 0,0 1,4.82 -2.9,0.75 0.75,0 0,1 1,0.86 28,28 0,0 1,-0.49 4.37c-1.45,6.45 -6.76,17 -12.89,22a15.49,15.49 0,0 1,-4.4 3,1.52 1.52,0 0,1 -1.88,-0.9 13.18,13.18 0,0 1,-0.39 -5.47C38.59,77 45,70.06 52,64.82Z" fill="#49627c" fill-opacity="1" fill-rule="evenodd"/>
    <path d="M83.1,20.05l-0.15,0.32a2.23,2.23 0,0 0,2.52 0.74,1.05 1.05,0 0,0 -0.15,-0.6A2.55,2.55 0,0 0,83.1 20.05Z" fill="#000000" fill-opacity="1"/>
    <path d="M79.13,17.71v0.21a3.4,3.4 0,0 0,2.41 0.59l0.15,-0.12c0,-0.13 0,-0.27 -0.08,-0.4C80.83,17.46 79.72,17.15 79.13,17.71Z" fill="#000000" fill-opacity="1"/>
    <path d="M92.34,67.62c5.79,-8.93 8,-24.93 3.66,-29.5 -5.21,-5.43 -15,4.69 -18.44,9.73s-6.32,13.27 -10,20.44c-3.14,6.2 -11.84,18.62 -18.2,23.42 -5.84,4.4 -11.15,8.19 -18,4.19s-9.31,-13.11 -9.31,-13.11 0.78,12.73 12,19.17 21.16,1 24.7,-1.24l0.55,-0.31C64.13,97.86 78.83,89.18 92.34,67.62Z" fill="#000000" fill-opacity="1"/>
    <path d="M89.3,68.87a48.55,48.55 0,0 0,5.34 -10.73c2,-5.64 0.68,-10.66 -1.86,-12.94 -4.17,-3.74 -10.55,3 -12.28,5.25a129.45,129.45 0,0 0,-9.72 16.42c-4,8 -9,16.93 -16.35,23.16S40.87,101 33.82,98.5s-8.17,-5.58 -8.17,-5.58 4.88,9.71 14.72,11.5 19,-2.92 26.55,-8.67C72.57,91.44 84.33,76.07 89.3,68.87Z" fill="#3c4f60" fill-opacity="1" fill-rule="evenodd"/>
    <path d="M57.26,62c0.51,1.81 1.92,-7.36 -7.6,-12.49 -8.2,-4.41 -15.23,3.24 -18.2,7.57 -3.31,4.84 -13.22,25.2 -2.56,33.39C35,94.85 39,92 39,92s-2.65,0.42 -1.29,-7.47a21.08,21.08 0,0 1,4.95 -10.79C46,69.19 56.41,60 57.26,62Z" fill="#000000" fill-opacity="1"/>
    <path d="M70.56,21.06c-1,0.72 -2.34,2.49 -2,3.53s1.65,1 2.31,1c1.88,-0.1 4.11,-1.44 5.78,-2.62 0.54,-0.38 1.52,-1.11 1.59,-1.87 0.06,-0.32 -0.08,-0.46 -0.21,-0.74C75.65,18.57 72.48,19.67 70.56,21.06Z" fill="#405368" fill-opacity="1"/>
    <path d="M77.88,20.89c-2,-1.68 -4.87,-0.69 -6.93,0.4" fill="#000000" fill-opacity="0" stroke="#49627c" stroke-opacity="1" stroke-width="1.5" stoke-linecap="round"/>
    <path d="M-93.96,-3610.93H1440.83V569.21H-93.96z" fill="#000000" fill-opacity="0" stroke="#ffffff" stroke-opacity="1" stroke-width="5.0"/>
</svg>