<svg xmlns="http://www.w3.org/2000/svg" width="120.0" height="120.0" viewBox="0 0 120.0 120.0">
    <path d="M38.78,99.82c5.95,1.28 7.87,-7.75 15.85,-15.73s13.6,-11.92 22.6,-12.48 13.38,2.58 15,5.28 4,13.39 -9.22,24C70.15,111 56.4,115.59 41.56,110S23.16,83 29.68,65 48.56,34.9 53.62,26.89C57.38,21 66.44,10 77.79,8.09S93.1,10 93.42,12.25s-1.27,8.83 -13.94,13.83C67.27,30.9 58.93,34.48 50.7,42.6c-7.64,7.54 -17.23,22.91 -18.41,37C31.05,94.41 34.06,98.81 38.78,99.82Z" fill="#e9c5c7" fill-opacity="1"/>
    <path d="M66.56,18.38c0.17,-0.09 2.53,-1.73 7.51,-4.64l5,-2.91a23,23 0,0 0,-7.25 2.7A24.14,24.14 0,0 0,66.56 18.38Z" fill="#dbafb3" fill-opacity="1"/>
    <path d="M77.23,71.61c-6.28,1.91 -7.35,4.72 -14.08,12 -7.4,8 -14.45,14.71 -20,16.38a6.86,6.86 0,0 1,-5.67 -0.53s4,2.61 8.83,-3.33C49.91,91.68 58.17,79.53 66,74.82A20.55,20.55 0,0 1,77.23 71.61Z" fill="#dbafb3" fill-opacity="1"/>
    <path d="M77.23,71.74c-6.28,1.91 -7.35,4.72 -14.08,12 -7.4,8 -15.24,15.59 -21,16.59 -6.46,1.12 -9.21,-6 -9.21,-6s2.1,9.42 16.35,6.23c9.86,-2.2 19.52,-10.28 27.18,-19.36 5.77,-6.83 9.37,-8.16 11.63,-7.68a15.18,15.18 0,0 0,-6 -1.73C78.07,71.41 77.23,71.74 77.23,71.74Z" fill="#d1a7ab" fill-opacity="1"/>
    <path d="M88.13,73.33S84.35,71.6 76.5,81c-7.6,9.12 -17.33,17.13 -27.18,19.36C33.17,104 32.4,91.67 32.4,91.67s-0.25,15.09 24.36,11.44c17.09,-2.54 21.73,-12.52 27.68,-18.55 5.37,-5.45 8.15,-6.82 8.15,-6.82A9.45,9.45 0,0 0,88.13 73.33Z" fill="#e9c5c7" fill-opacity="1"/>
    <path d="M32.4,91.67s0,15.29 24.16,11.48c17.07,-2.7 21.93,-12.56 27.88,-18.59 5.37,-5.45 8.15,-6.82 8.15,-6.82a6.57,6.57 0,0 1,0.65 2.37c0.18,1.59 0.19,2.55 0.19,2.55A62.17,62.17 0,0 0,89 88.56C87.26,91.32 82,99.82 72,104.25a41.27,41.27 0,0 1,-28.37 1.81C32.77,102.49 32.4,91.67 32.4,91.67Z" fill="#d1a7ab" fill-opacity="1"/>
    <path d="M32.4,91.8a16.38,16.38 0,0 0,11.27 14.39c6.07,2.08 17.34,3.12 28.37,-1.81C82,100 87.26,91.46 89,88.69a61.45,61.45 0,0 1,4.44 -5.89,15.18 15.18,0 0,1 -0.84,5.36c-1,3.17 -4.74,10.15 -13.78,15.89 -9.29,5.89 -12.18,6.34 -12.18,6.34s-11.32,2.78 -21.82,-1C32.85,105.1 32.4,91.8 32.4,91.8Z" fill="#dbafb3" fill-opacity="1"/>
</svg>