<svg xmlns="http://www.w3.org/2000/svg" width="120.0" height="120.0" viewBox="0 0 120.0 120.0">
    <path d="M15.53,80.85c2.06,-3.85 5.69,-5.45 9.24,-7.09 3.08,-1.42 6.11,-2.92 9,-4.63a3.08,3.08 0,0 0,1.64 -4,19.25 19.25,0 0,1 -0.8,-6.29A5.06,5.06 0,0 1,38.36 54a18.47,18.47 0,0 1,14.06 1.52c2.3,1.24 2.84,1.16 3.83,-1.33 2,-5.12 3.25,-10.32 1.77,-15.9a24.12,24.12 0,0 1,-0.24 -11.64,21.24 21.24,0 0,1 6.64,-11.11c3.25,-3 6.64,-5.62 11,-7 5.83,-1.79 10,0.65 13,4.74 4.21,5.83 6,12.39 4.58,19.58a20.69,20.69 0,0 1,-4.69 9.25c-5,6 -11.41,10.2 -17.38,15a16.88,16.88 0,0 0,-5.54 8.58c-0.56,1.92 0.33,3.51 1.46,5 4.73,6.06 9.58,12 14.2,18.18 2.92,3.9 4,8.29 2.49,13.15 -1,3.06 -5.65,6.4 -9.2,6.29a25.44,25.44 0,0 1,-17.66 -7.39,38.28 38.28,0 0,0 -9.52,-7.1c-1.73,-0.86 -3.35,-0.42 -5,0.14 -4.09,1.37 -7.92,3.43 -12.1,4.57 -3.63,1 -7.1,1.14 -10.44,-1.26C14.32,93.49 12.39,86 15.53,80.85Z" fill="#434242" fill-opacity="1"/>
    <path d="M46,93.27a103.24,103.24 0,0 1,12.43 9.28,39.18 39.18,0 0,0 4,3.45A13.22,13.22 0,0 0,68 108.09l3.14,0.12h0.74a4.57,4.57 0,0 1,-1.78 -0.71c-0.78,-0.37 -1.56,-0.74 -2.31,-1.17a39.89,39.89 0,0 1,-9 -7.59,34.49 34.49,0 0,0 -4.51,-4.29 10.75,10.75 0,0 0,-4.08 -1.94A5.85,5.85 0,0 0,46 93.27Z" fill="#808080" fill-opacity="1"/>
    <path d="M63.7,102.83a53.15,53.15 0,0 1,-7.4 -6.38,19.61 19.61,0 0,0 -3.7,-2.86 11,11 0,0 0,-2.07 -0.89,5.36 5.36,0 0,0 -0.54,-0.14 1.88,1.88 0,0 0,-0.46 -0.06,6.89 6.89,0 0,0 -1.09,0.06 35.52,35.52 0,0 0,-4.66 0.92,45.37 45.37,0 0,0 -4.56,1.44 53.71,53.71 0,0 1,-9.34 2.88c3,-1.18 5.88,-2.7 8.87,-4A33.07,33.07 0,0 1,43.39 92a32.27,32.27 0,0 1,4.88 -1,8.31 8.31,0 0,1 1.34,0 3.67,3.67 0,0 1,0.74 0.11l0.64,0.17a10.87,10.87 0,0 1,2.37 1.09,17.89 17.89,0 0,1 3.83,3.29C59.38,98 61.39,100.51 63.7,102.83Z" fill="#282828" fill-opacity="1"/>
    <path d="M58.84,44.38c0,0.41 0,0.83 0.06,1.24A23.12,23.12 0,0 1,58.54 50,20.42 20.42,0 0,1 57,54.59a4.7,4.7 0,0 1,0.92 -0.56c0.62,-0.31 1.28,-0.54 1.9,-0.86a17.12,17.12 0,0 0,5.48 -4.64c0.29,-0.37 0.57,-0.76 0.83,-1.15a3.22,3.22 0,0 0,0.62 -1.15c0.27,-0.56 -3.16,-0.3 -4.82,-0.75a6.47,6.47 0,0 1,-3.27 -2.58,4.11 4.11,0 0,0 0.18,1.25Z" fill="#282828" fill-opacity="1" fill-rule="evenodd"/>
    <path d="M58.42,40.25a24.36,24.36 0,0 1,0.35 7.81,22.09 22.09,0 0,1 -2.25,7.56 15.25,15.25 0,0 1,-5.2 5.89,55.21 55.21,0 0,1 -6.77,3.86 63.61,63.61 0,0 0,6.54 -4.18,16.12 16.12,0 0,0 4.58,-6 27.2,27.2 0,0 0,2.24 -7.26A38.55,38.55 0,0 0,58.42 40.25Z" fill="#666666" fill-opacity="1"/>
    <path d="M77.83,11.31c-1.23,0.71 -2.46,1.38 -3.66,2.12a37.05,37.05 0,0 0,-3.47 2.28c-1.11,0.81 -2,1.82 -3.09,2.62s-2.1,1.66 -3.32,2.52l-0.17,-0.11a8.48,8.48 0,0 1,2.13 -3.88,12.88 12.88,0 0,1 3.59,-2.5 38.1,38.1 0,0 1,3.89 -1.83c1.33,-0.5 2.66,-1 4,-1.4Z" fill="#666666" fill-opacity="1"/>
</svg>