<svg xmlns="http://www.w3.org/2000/svg" width="120.0" height="120.0" viewBox="0 0 120.0 120.0">
    <path d="M88.58,72.72c-2.19,4.7 -4.67,8.86 -7,13.11A102.75,102.75 0,0 1,76 94.9a49.81,49.81 0,0 1,-8.58 9.8c-6.92,6 -16,10.4 -25.3,8.55a24.43,24.43 0,0 1,-6.27 -2.18c-8.18,-4.19 -13.6,-12.63 -15.37,-21.49a36.69,36.69 0,0 1,-0.29 -12.19A49.29,49.29 0,0 1,26 60.32a44.88,44.88 0,0 1,2.51 -3.92,7.33 7.33,0 0,1 4.93,-3.1c2.58,-0.41 4.58,0.62 6.77,1.78a37.7,37.7 0,0 1,4.86 3.05c2,1.5 4.49,3.28 5.6,5.62s0.64,5.38 0.38,7.76a48.31,48.31 0,0 1,-1.64 8.43c-0.83,2.78 -2,5.44 -2.71,8.26a13.46,13.46 0,0 0,-0.47 3.61,3 3,0 0,0 2.81,2.92 5.17,5.17 0,0 0,2.52 -0.57,13.66 13.66,0 0,0 4.55,-3.84 48.15,48.15 0,0 0,6.07 -10.38c3.75,-8 6.62,-16.63 7.26,-25.5 0.21,-3 0.3,-6.1 0.49,-9.14a59.52,59.52 0,0 1,1.08 -8.63,69.39 69.39,0 0,1 7.41,-20.1l0.07,-0.13a36,36 0,0 1,3.13 -4.62,19 19,0 0,1 3.75,-3.75C87,6.91 88.93,6 91,6.45a6.8,6.8 0,0 1,2.71 1.39,14.49 14.49,0 0,1 3.65,4.82 28.37,28.37 0,0 1,2.54 9.53,48.88 48.88,0 0,1 0.23,7.94 97.64,97.64 0,0 1,-0.86 10.4A97.36,97.36 0,0 1,96.87 51.6a95.42,95.42 0,0 1,-3.62 10.74A96.59,96.59 0,0 1,88.58 72.72Z" fill="#cdc4d6" fill-opacity="1"/>
    <path d="M92.94,7.31A13.14,13.14 0,0 1,98 13.58a30.78,30.78 0,0 1,2.18 7.9,53.43 53.43,0 0,1 0.39,8.19c0,2.72 -0.22,5.44 -0.48,8.16A82.69,82.69 0,0 1,97 53.91a148.17,148.17 0,0 1,-5.81 15.28c-1.13,2.48 -2.32,4.93 -3.6,7.35s-2.64,4.75 -3.94,7.12a104,104 0,0 1,-8.78 13.79A48.18,48.18 0,0 1,63 108.71a30.19,30.19 0,0 1,-15.45 4.82,30.9 30.9,0 0,0 14.92,-5.61A49,49 0,0 0,73.64 96.54,112.2 112.2,0 0,0 82,82.78c1.27,-2.4 2.64,-4.75 3.87,-7.12s2.41,-4.81 3.51,-7.26a153.22,153.22 0,0 0,5.83 -15,87.13 87.13,0 0,0 3.39,-15.7c0.34,-2.67 0.56,-5.35 0.71,-8a52.48,52.48 0,0 0,-0.07 -8,30 30,0 0,0 -1.71,-7.82A13.55,13.55 0,0 0,92.94 7.31Z" fill="#b0a6bc" fill-opacity="1"/>
    <path d="M70.89,37a1.17,1.17 0,0 1,0.88 -1,2 2,0 0,1 1.37,0.16A5.36,5.36 0,0 1,74.91 38a20.78,20.78 0,0 1,2.32 4.13l-0.07,0a25.91,25.91 0,0 0,-2.73 -3.77,8 8,0 0,0 -1.64,-1.44 1.64,1.64 0,0 0,-0.9 -0.23,1.37 1.37,0 0,0 -0.93,0.37Z" fill="#b0a6bc" fill-opacity="1"/>
    <path d="M70.12,42.51l0.46,-0.37a2,2 0,0 1,0.59 -0.27,1.94 1.94,0 0,1 1.32,0.14 6.44,6.44 0,0 1,1.85 1.52A15.3,15.3 0,0 1,77 47.38l-0.07,0a18.52,18.52 0,0 0,-3 -3.44c-0.57,-0.47 -1.22,-0.93 -1.77,-1.3a1.91,1.91 0,0 0,-0.9 -0.29,6.42 6.42,0 0,0 -1.09,0.19Z" fill="#b0a6bc" fill-opacity="1"/>
    <path d="M69.76,48.17a2.65,2.65 0,0 1,1 -0.78,1.66 1.66,0 0,1 1.38,0.12 5.12,5.12 0,0 1,1.67 1.82c0.91,1.29 1.82,2.56 2.64,3.91l-0.06,0c-0.49,-0.61 -1,-1.2 -1.54,-1.79l-1.54,-1.77a10.5,10.5 0,0 0,-1.55 -1.57,1.36 1.36,0 0,0 -0.87,-0.27 5.66,5.66 0,0 0,-1.07 0.34Z" fill="#b0a6bc" fill-opacity="1"/>
    <path d="M69.55,53.07a1.11,1.11 0,0 1,0.3 -0.39,1 1,0 0,1 0.46,-0.26 1.76,1.76 0,0 1,1 0.18c0.73,0.27 1,0.95 1.3,1.38a16.75,16.75 0,0 1,1.77 3l-0.07,0a25.25,25.25 0,0 0,-2.19 -2.67,4 4,0 0,0 -1.12,-1 3,3 0,0 0,-0.63 -0.28,1.82 1.82,0 0,0 -0.36,0l-0.42,0.07Z" fill="#b0a6bc" fill-opacity="1"/>
    <path d="M69,58.62a1.14,1.14 0,0 1,0.41 -0.44,1 1,0 0,1 0.68,-0.11 2.24,2.24 0,0 1,1 0.53,4.37 4.37,0 0,1 1.24,1.77l-0.07,0a5,5 0,0 0,-1.51 -1.28c-0.27,-0.14 -0.61,-0.18 -0.86,-0.32a1.16,1.16 0,0 0,-0.34 -0.12c-0.14,0 -0.33,0 -0.53,0Z" fill="#b0a6bc" fill-opacity="1"/>
    <path d="M70.93,36.76a1.66,1.66 0,0 1,0.7 -1.28,1.52 1.52,0 0,1 0.82,-0.28 1.93,1.93 0,0 1,0.84 0.15,4.36 4.36,0 0,1 2,2A18.93,18.93 0,0 1,76.4 39.7c0.3,0.8 0.57,1.61 0.9,2.4l-0.1,0.06c-0.5,-0.71 -0.88,-1.48 -1.32,-2.22a19.42,19.42 0,0 0,-1.34 -2.11A6.63,6.63 0,0 0,72.8 36.4a1.09,1.09 0,0 0,-0.81 -0.2,2.09 2.09,0 0,0 -0.95,0.61Z" fill="#dbd7e2" fill-opacity="1"/>
    <path d="M70.27,42.2a2,2 0,0 1,0.34 -0.6,1 1,0 0,1 0.29,-0.25 2.07,2.07 0,0 1,0.32 -0.19,1.92 1.92,0 0,1 1.58,0.08 5.43,5.43 0,0 1,2 1.86,24.55 24.55,0 0,1 2.4,4.52l-0.1,0.06c-0.46,-0.7 -1,-1.39 -1.46,-2.07a16.14,16.14 0,0 0,-1.55 -1.91,17.41 17.41,0 0,0 -1.81,-1.45 1.83,1.83 0,0 0,-0.84 -0.37h-0.28a1.27,1.27 0,0 0,-0.24 0.07,3.64 3.64,0 0,0 -0.53,0.31Z" fill="#dbd7e2" fill-opacity="1"/>
    <path d="M69.79,47.81a2.18,2.18 0,0 1,0.81 -1.16,1.74 1.74,0 0,1 1.65,0.07 3.18,3.18 0,0 1,1 1c0.25,0.36 0.48,0.71 0.7,1.1 0.45,0.74 0.8,1.49 1.23,2.21s0.82,1.46 1.21,2.2l-0.1,0.06c-0.54,-0.64 -1.07,-1.29 -1.6,-1.94s-1,-1.38 -1.5,-2a11.52,11.52 0,0 0,-0.82 -0.89c-0.28,-0.28 -0.53,-0.54 -0.77,-0.74a1.28,1.28 0,0 0,-0.74 -0.32,3.6 3.6,0 0,0 -1,0.51Z" fill="#dbd7e2" fill-opacity="1"/>
    <path d="M69.55,52.77a1.44,1.44 0,0 1,0.62 -1,1.62 1.62,0 0,1 1.3,-0.1 1.8,1.8 0,0 1,1 0.77,6.93 6.93,0 0,1 0.47,1c0.52,1.18 1,2.36 1.5,3.57l-0.1,0.06c-0.77,-1 -1.49,-2.11 -2.21,-3.19a4.5,4.5 0,0 0,-0.55 -0.69,2.45 2.45,0 0,0 -0.52,-0.38 1.29,1.29 0,0 0,-0.57 -0.21,2.43 2.43,0 0,0 -0.84,0.26Z" fill="#dbd7e2" fill-opacity="1"/>
    <path d="M68.92,58.34A1.38,1.38 0,0 1,70 57.51a1.09,1.09 0,0 1,0.44 0.06,1.59 1.59,0 0,1 0.32,0.16 3.35,3.35 0,0 1,0.52 0.47,7 7,0 0,1 1.08,2.18l-0.08,0a11.86,11.86 0,0 0,-1.52 -1.66,1.23 1.23,0 0,0 -0.44,-0.19L70,58.47a6.63,6.63 0,0 0,-1 0Z" fill="#dbd7e2" fill-opacity="1"/>
    <path d="M43,113.4a0.21,0.21 0,0 0,0.11 -0.1c0.1,-0.17 0.32,-0.47 0.22,-0.67a0.27,0.27 0,0 0,-0.1 -0.11,6.83 6.83,0 0,0 -1.33,-0.85c-0.56,-0.29 -1.15,-0.54 -1.72,-0.82l-3.47,-1.72a11.87,11.87 0,0 1,-3.52 -2.65,18.92 18.92,0 0,1 -2,-2.7A19.8,19.8 0,0 1,29.45 100,24.18 24.18,0 0,0 28,96.09a9.08,9.08 0,0 0,-1.32 -1.71A6.79,6.79 0,0 0,24.54 93a35.13,35.13 0,0 0,-3.6 -1.46,10.85 10.85,0 0,1 0.7,2.23c0.27,0.77 0.56,1.52 0.88,2.27a32.2,32.2 0,0 0,2.19 4.3,28.88 28.88,0 0,0 6,7.14 26.76,26.76 0,0 0,8.43 4.88,25.39 25.39,0 0,0 3.82,1Z" fill="#e4dded" fill-opacity="1"/>
    <path d="M90.55,9.54a27.27,27.27 0,0 0,-3.24 1.86,25.61 25.61,0 0,0 -2.6,2.52c-0.84,0.91 -1.69,1.82 -2.52,2.76s-1.66,1.9 -2.6,2.86A11.47,11.47 0,0 1,81 15.81,16.39 16.39,0 0,1 83.3,12.6a11.4,11.4 0,0 1,3.23 -2.48A7.76,7.76 0,0 1,90.55 9.54Z" fill="#ffffff" fill-opacity="0.25"/>
    <path d="M51.45,95.45a8.39,8.39 0,0 0,3 -1.55,18.27 18.27,0 0,0 2.44,-2.23l2.35,-2.52a26.78,26.78 0,0 1,2.57 -2.53A13.46,13.46 0,0 1,60.49 90a14.37,14.37 0,0 1,-2.18 3,9.5 9.5,0 0,1 -3.1,2.22A4.92,4.92 0,0 1,51.45 95.45Z" fill="#dbd7e2" fill-opacity="1"/>
    <path d="M30.26,54.58a7.4,7.4 0,0 0,1.54 1.17c0.58,0.36 1.19,0.71 1.8,1.06a22.9,22.9 0,0 1,9 8.79,21.69 21.69,0 0,0 -5.8,-6 22.38,22.38 0,0 0,-3.6 -2.06c-0.63,-0.3 -1.27,-0.61 -1.9,-0.94a8,8 0,0 1,-1.89 -1.26Z" fill="#dbd7e2" fill-opacity="1"/>
    <path d="M43.17,113.5c0.37,0 0.7,-0.4 0.6,-0.61a0.27,0.27 0,0 0,-0.1 -0.11,7.15 7.15,0 0,0 -1.33,-0.85c-0.57,-0.29 -1.16,-0.53 -1.73,-0.82l-3.47,-1.71a12.13,12.13 0,0 1,-3.51 -2.65,18.4 18.4,0 0,1 -3.78,-6.5c-0.4,-1.11 -0.72,-2.24 -1.14,-3.35a6.74,6.74 0,0 0,-2.14 -2.66,11.37 11.37,0 0,0 -2.3,-1.37 22.1,22.1 0,0 0,-2.43 -1,1.47 1.47,0 0,0 -0.83,-0.06" fill="#000000" fill-opacity="0" stroke="#9fa2a3" stroke-opacity="1" stroke-width="0.77"/>
    <path d="M28.72,96.9a6.65,6.65 0,0 0,-2.14 -2.65" fill="#000000" fill-opacity="0" stroke="#cccece" stroke-opacity="1" stroke-width="0.77"/>
    <path d="M43.17,113.5c0.37,0 0.7,-0.4 0.6,-0.61a0.27,0.27 0,0 0,-0.1 -0.11,7.15 7.15,0 0,0 -1.33,-0.85c-0.57,-0.29 -1.16,-0.53 -1.73,-0.82l-3.47,-1.71" fill="#000000" fill-opacity="0" stroke="#cccece" stroke-opacity="1" stroke-width="0.77"/>
    <path d="M-65.34,-751.3H651.34V907.37H-65.34z" fill="#000000" fill-opacity="0" stroke="#32dd14" stroke-opacity="1" stroke-width="11.07"/>
</svg>