<svg xmlns="http://www.w3.org/2000/svg" width="120.0" height="120.0" viewBox="0 0 120.0 120.0">
    <path d="M93.75,50c13.18,-13.2 15.34,-22.6 8.65,-30.73a27.67,27.67 0,0 0,-5.49 -5.14A15.22,15.22 0,0 1,99.6 22c0.19,6 -1.12,9.81 -17,25.67 -13.91,13.93 -19,15.52 -26.06,9.91 -1.52,-1.21 -2.57,-3.6 -3.27,-6.7C42.74,61.36 25.87,78 19.77,85.52c-8.18,10 -6.53,16.36 -2.64,20.24s8.92,7.39 20.84,-1.7C48.22,96.24 80.56,63.17 93.75,50Z" fill="#e5a83c" fill-opacity="1" fill-rule="evenodd"/>
    <path d="M84.9,53.13c11.39,-11.4 18.5,-22.76 17,-29.4 -0.45,-1.9 -0.39,-5 -5.55,-10.08 1.13,1.7 -6.44,12.54 -6.35,15.28 0.16,5.15 -1,8.47 -14.67,22.18 -12,12 -11.09,10 -17.14,5.2 -1.31,-1.05 -2.91,-4.12 -3.52,-6.79C45.5,58.61 26.24,77.39 21,83.85 13.91,92.5 15.33,98 18.69,101.34s7.72,6.38 18,-1.47C45.56,93.11 73.5,64.54 84.9,53.13Z" fill="#000000" fill-opacity="1"/>
    <path d="M57.55,57.3c7,5.61 11.17,4.25 25.08,-9.68C98.48,31.76 99.79,27.92 99.6,22a15.22,15.22 0,0 0,-2.69 -7.85c-5.65,-4 -10.42,-3.7 -10.42,-3.7 -5.24,-1 -10.33,2 -13.27,5 -1.45,1.45 -5.83,5.83 -6,11.4 -0.17,6.47 -0.62,9.84 -5.31,15.26 -1,1.19 -4.31,4.48 -8.64,8.8A11.82,11.82 0,0 0,57.55 57.3Z" fill="#e2e0e0" fill-opacity="1" fill-rule="evenodd"/>
    <path d="M85.37,28.7c-5.58,5.58 -13,7.26 -16.47,3.74S67.05,21.55 72.62,16s13,-7.26 16.48,-3.74S91,23.11 85.37,28.7Z" fill="#000000" fill-opacity="1"/>
    <path d="M81.42,24.75c-3.85,3.86 -8.94,5 -11.37,2.59S68.77,19.82 72.62,16 81.57,11 84,13.38 85.27,20.9 81.42,24.75Z" fill="#967d17" fill-opacity="1" fill-rule="evenodd"/>
    <path d="M17.53,103.91c1,-0.55 -0.87,-1.29 -1.68,-0.81a1.31,1.31 0,0 0,0.05 0.59A1.24,1.24 0,0 0,17.53 103.91Z" fill="#000000" fill-opacity="1"/>
    <path d="M20.28,105.94c0.19,-0.77 -1.55,-0.54 -1.8,-0.43l-0.18,0.19a2.51,2.51 0,0 1,0 0.27C18.76,106.38 20.11,106.68 20.28,105.94Z" fill="#000000" fill-opacity="1"/>
    <path d="M84.93,10.39a19.78,19.78 0,0 1,12 3.71A15.16,15.16 0,0 1,99.6 22S96.91,18.69 91,17.07A6.59,6.59 0,0 0,84.93 10.39Z" fill="#000000" fill-opacity="1"/>
    <path d="M90.73,19.24a19.16,19.16 0,0 1,8.8 5.49A22.69,22.69 0,0 1,99 27.32a32.73,32.73 0,0 0,-9.19 -5A17.18,17.18 0,0 0,90.73 19.24Z" fill="#000000" fill-opacity="1"/>
    <path d="M-888.63,-88.53H646.16V4091.61H-888.63z" fill="#000000" fill-opacity="0" stroke="#ffffff" stroke-opacity="1" stroke-width="5.0"/>
</svg>