<svg xmlns="http://www.w3.org/2000/svg" width="120.0" height="120.0" viewBox="0 0 120.0 120.0">
    <path d="M36.77,109.28S41.92,102 48.61,91.09 69.92,68.24 69.92,68.24 93,48.59 99.33,37.23c4.27,-7.72 9.16,-25.49 4.61,-28.06 -10.7,-6 -17.79,6.08 -18.42,7.11A249.56,249.56 0,0 0,74.27 40.19a55.82,55.82 0,0 1,-16.06 22S53,66.27 51.27,64.3s0.33,-5.78 0.33,-5.78a41.06,41.06 0,0 1,4.8 -6.13c2.6,-2.63 7.89,-10.14 7.48,-13.82 -0.24,-2.21 -0.54,-4.83 -5.53,-5.9S48,42.15 48,42.15a56.55,56.55 0,0 0,-3.24 9.58C43.31,57.43 42,64 40.5,66.52s-0.5,3 -10.7,12S14.55,95 14.92,103.39s11.74,9.48 14.17,9A16.7,16.7 0,0 0,36.77 109.28Z" fill="#e5dfda" fill-opacity="1"/>
    <path d="M62.77,74.66s-3.24,-3.39 -25.64,19c0,0 -8,7.8 -8.89,14.14 -0.5,3.34 1.2,4.63 1.2,4.63s5,-0.71 7.25,-3C36.69,109.42 41.8,94.28 62.77,74.66Z" fill="#e2bdaf" fill-opacity="1"/>
    <path d="M58.35,32.67s-8.63,5.2 -11.5,20.18C45.29,61 45.08,64.29 40.66,71.47c-4.68,7.58 -24,17 -24.31,36.29 0,0 -7.15,-7.39 4.85,-20.75a78.53,78.53 0,0 1,10.62 -10.7c5.9,-4.85 8.09,-8.84 8.09,-8.84s1.47,-2.16 5.37,-18C49.88,30.69 58.35,32.67 58.35,32.67Z" fill="#d6d0cc" fill-opacity="1"/>
    <path d="M62.77,74.66s-0.9,-0.68 -3.11,0.6c-7.75,4.51 -23.46,22.64 -23,34.16C36.69,109.42 48.26,92.32 62.77,74.66Z" fill="#d6ac9f" fill-opacity="1"/>
    <path d="M25.156,111.837a0.49,0.97 99.68,1 0,0.165 -0.966a0.49,0.97 99.68,1 0,-0.165 0.966z" fill="#ffffff" fill-opacity="1"/>
    <path d="M81,58.11 L60.27,74.94s1.57,-0.76 2.5,-0.28C62.77,74.66 79,60.39 81,58.11Z" fill="#d6d0cc" fill-opacity="1"/>
    <path d="M-90.63,-1417.42H1444.16V2762.72H-90.63z" fill="#000000" fill-opacity="0" stroke="#ffffff" stroke-opacity="1" stroke-width="5.0"/>
</svg>