<svg xmlns="http://www.w3.org/2000/svg" width="120.0" height="120.0" viewBox="0 0 120.0 120.0">
    <path d="M55,58.28s1.17,-2.57 3,-0.68 4,3.57 6.33,1.15a14.89,14.89 0,0 0,2.09 -5c0.06,-2.4 -3.32,-1.25 -5.25,-1.14C58.66,52.77 56.12,55.58 55,58.28Z" fill="#527a84" fill-opacity="1"/>
    <path d="M59.59,70.4A12,12 0,0 0,68 61c1.48,-7.69 -4.94,-21.83 -7,-27.37S54.22,11.13 64.75,8.2C75.86,5.1 80.17,26 80.17,26s5,25 -5.42,43.73c0,0 -8.13,11.94 -9,14.19S62.38,102.06 61,105.46c-1.69,4.09 -6.17,7.7 -13.65,6.38l2.47,-5.1a5.73,5.73 0,0 0,4 -3.39c1.21,-2.92 1.58,-9 1.58,-9L46.28,76.73s0.68,-2 -1.06,-6.81c-1.81,-5 -4.81,-19.8 6.44,-22.12a14.89,14.89 0,0 1,6.25 0.61c6.61,1.93 9.35,3.34 8.33,6.45 0,0 -1,3.18 -4.91,0.2a3.59,3.59 0,0 0,-4.47 0.65C51.16,61.65 59.59,70.4 59.59,70.4Z" fill="#668c9c" fill-opacity="1"/>
    <path d="M59.59,70.4C62.23,73 66.16,72.66 69,71a4.54,4.54 0,0 1,-2.15 -3.33,9.77 9.77,0 0,1 0.5,-4.45c-2,4.1 -4.31,6.1 -7.77,7.21h0" fill="#527a84" fill-opacity="1"/>
    <path d="M49.41,110.59a9.62,9.62 0,0 0,9 -5.7C61,99.16 62,90.34 62,90.34l-6.43,3.08 -1.63,9.22s-0.5,2.9 -4.94,4.31Z" fill="#527a84" fill-opacity="1"/>
    <path d="M50.23,58A14.86,14.86 0,0 0,51 63.2a19.23,19.23 0,0 0,2.11 4c1.24,2.08 12.64,16.68 12.64,16.68s-4.78,-5.55 -5.69,-6.5a35.3,35.3 0,0 0,-5 -4.74c-1.3,-1 -4.72,-3 -6.86,-1.76A2.77,2.77 0,0 0,47 72.36a40.26,40.26 0,0 0,-0.61 4.11,23 23,0 0,0 -0.19,-2.37 69.07,69.07 0,0 1,-2.76 -9.77,22.56 22.56,0 0,1 0.34,-7.9s-1.09,6.9 3.37,6.31c2.3,-0.31 2.13,-2.85 2.19,-3.18a26.76,26.76 0,0 1,0.77 -3.6,7.59 7.59,0 0,1 3.61,-4.79A9.35,9.35 0,0 0,50.23 58Z" fill="#5d8391" fill-opacity="1"/>
    <path d="M65.74,83.89a77.19,77.19 0,0 1,4.14 -6.62c3.07,-4.29 7.6,-11.5 9.37,-19 0,0 -2.89,10.14 -12.61,21.67Z" fill="#527a84" fill-opacity="1"/>
    <path d="M55.18,96.43s5,-0.51 6.29,-2.69l0.59,-3.91L55.43,94Z" fill="#496d75" fill-opacity="1"/>
    <path d="M49.65,107.76s0.56,4.51 -2.33,4.08a13.32,13.32 0,0 1,-8.42 -10.07c-1.5,-7.9 5.27,-24 6.83,-24.66 0,0 6.31,-3.16 15.8,10.18 0,0 2.39,4.19 -2.82,6S50.13,97.24 49.65,107.76Z" fill="#d3d5d3" fill-opacity="1"/>
    <path d="M38.78,100.4c0.49,1.33 2.42,2.41 5.25,0.74s4.74,-11.54 6.71,-15.55a29.86,29.86 0,0 1,3.73 -6.07,13.6 13.6,0 0,0 -7.72,-2.89C40.76,76.24 38,98.23 38.78,100.4Z" fill="#e5e5e5" fill-opacity="1"/>
    <path d="M39.69,104.45s1.35,-1.72 2.06,-0.27 3,5.95 7.66,6.41c0,0 -0.32,1.81 -2.73,1.14C44.45,111.11 40.52,107.91 39.69,104.45Z" fill="#c2c4c2" fill-opacity="1"/>
    <path d="M49.79,105.68S50.84,96.45 53.41,91a34.9,34.9 0,0 1,4.75 -7.75s1.28,1.34 2,2.28c1.38,1.81 2.93,3.89 1.49,5.92s-3.73,1.75 -5.34,2.8C54.43,95.41 51.57,95.42 49.79,105.68Z" fill="#c6c6c6" fill-opacity="1"/>
    <path d="M74.74,51.28c0.2,-3.87 0.57,-18.5 -5.21,-31.68 -5.67,2 -10.6,-4.51 -10.22,-6.31 -3.34,8 1.16,18.87 4.24,27 2.36,6.2 4.34,11.24 4.63,18 0.11,2.74 1.69,5.53 4.46,2.35C74.7,58.2 74.59,54.33 74.74,51.28Z" fill="#5d8391" fill-opacity="1"/>
    <path d="M43.12,105.06m-0.69,0a0.69,0.69 0,1 1,1.38 0a0.69,0.69 0,1 1,-1.38 0" fill="#b2b2b2" fill-opacity="1"/>
    <path d="M38.73,97a2.1,2.1 0,0 0,2 2.43c2.69,0.47 2.17,-4.8 3.63,-8.27s6.49,-10.18 2.73,-12 -5.93,7.63 -6.51,9.58S39.18,94.43 38.73,97Z" fill="#668b94" fill-opacity="1"/>
    <path d="M42.9,94.8s-0.51,2.5 -1.87,2 -1.36,-4.9 -1.36,-4.9 -2.11,7.84 0.42,8.23S42.9,94.8 42.9,94.8Z" fill="#527a84" fill-opacity="1"/>
    <path d="M74.17,12.27S68.55,7.71 63.48,8.72C63.48,8.72 69.32,5.47 74.17,12.27Z" fill="#5d8391" fill-opacity="1"/>
    <path d="M51.61,64.69A113.87,113.87 0,0 0,61.77 78.78,49.49 49.49,0 0,1 51.61,64.69Z" fill="#527a84" fill-opacity="1"/>
    <path d="M68.21,57.39s1.42,-5.61 -4.28,-19.15c-6,-14.27 -4.62,-25 -4.62,-25S55.24,20.21 62.26,37C62.26,37 68.23,51.94 68.21,57.39Z" fill="#527a84" fill-opacity="1"/>
    <path d="M65.7,56.51s-2.1,4.3 -5.82,0.6c-2.52,-2.51 0.44,-2.5 0.44,-2.5s-2.63,-0.87 -4.65,2.78a1.7,1.7 0,0 1,2.38 0.21C59.06,58.87 63.24,62.83 65.7,56.51Z" fill="#476e77" fill-opacity="1"/>
    <path d="M55.1,49.92s2,-1.48 7.53,0.07C62.63,50 57.78,47.71 55.1,49.92Z" fill="#527a84" fill-opacity="1"/>
    <path d="M46.73,73.39s-3,-4.63 -3.23,-15.74c0,0 -1.76,6 2.65,16.45a20.18,20.18 0,0 1,0.13 2.63A11.51,11.51 0,0 0,46.73 73.39Z" fill="#527a84" fill-opacity="1"/>
    <path d="M59.11,75.55s5.63,4.16 11.15,-0.3l-3.62,4.64 -0.9,4Z" fill="#5d8391" fill-opacity="1"/>
    <path d="M-68.3,-1076.19H675.7V2858.92H-68.3z" fill="#000000" fill-opacity="0" stroke="#32dd14" stroke-opacity="1" stroke-width="11.07"/>
</svg>