<svg xmlns="http://www.w3.org/2000/svg" width="120.0" height="120.0" viewBox="0 0 120.0 120.0">
    <path d="M46.13,74l-0.08,-0.13c-0.07,-0.08 -0.07,-0.13 0,-0.18s0.08,-0.12 0.1,-0.19c0.15,-0.55 0.25,-1.1 0.36,-1.65a18.57,18.57 0,0 0,0.3 -3.57,32.16 32.16,0 0,0 -0.3,-4c-0.11,-0.91 -0.22,-1.82 -0.34,-2.73s-0.25,-1.88 -0.35,-2.82q-0.34,-3 -0.41,-5.92a46.71,46.71 0,0 1,0.15 -4.88,44 44,0 0,1 0.63,-4.71c0.2,-1 0.43,-2.06 0.7,-3.08 0.19,-0.74 0.41,-1.48 0.63,-2.21 0.17,-0.57 0.36,-1.14 0.56,-1.71 0.36,-1 0.76,-2 1.18,-3S50.24,31 50.76,30c0.67,-1.33 1.39,-2.62 2.16,-3.9 1.14,-1.91 2.39,-3.74 3.7,-5.54 1,-1.38 2,-2.74 3.13,-4.05 0.76,-0.91 1.54,-1.79 2.34,-2.65 0.64,-0.68 1.28,-1.35 2,-2s1.24,-1.15 1.88,-1.7 1.28,-1.07 1.95,-1.57S69.25,7.52 70,7c0.52,-0.34 1,-0.71 1.58,-1a14.84,14.84 0,0 1,1.52 -0.82,13.38 13.38,0 0,1 1.32,-0.52 9.55,9.55 0,0 1,2.21 -0.28A4,4 0,0 1,78 4.76a4.72,4.72 0,0 1,0.93 0.59,7.2 7.2,0 0,1 1.49,1.9 14,14 0,0 1,0.73 1.45c0.31,0.69 0.6,1.38 0.88,2.08 0.15,0.4 0.33,0.79 0.48,1.19A13.1,13.1 0,0 1,83 13.45c0.09,0.35 0.25,0.68 0.36,1s0.21,0.72 0.32,1.07c0,0.17 0.11,0.33 0.17,0.49 0.23,0.73 0.38,1.48 0.6,2.22 0.05,0.17 0,0.37 0.08,0.55A11.59,11.59 0,0 1,84.79 20c0.07,0.31 0.09,0.64 0.16,1s0.1,0.74 0.18,1.1a5.29,5.29 0,0 1,0.05 0.56,5.76 5.76,0 0,1 0.12,1.25 4.41,4.41 0,0 0,0.1 0.58c0,0.53 0.09,1.05 0.09,1.58 0,0.34 0.05,0.69 0.06,1s0,0.85 0,1.26a3.84,3.84 0,0 0,0 0.83c0,0.14 0,0.29 0,0.44a3.28,3.28 0,0 1,0 0.83,1.12 1.12,0 0,0 0,0.41 11.37,11.37 0,0 1,0 1.43c0,0.41 0,0.81 0,1.22s-0.06,1.07 -0.08,1.6 -0.09,1 -0.12,1.44 -0.13,1.09 -0.17,1.64 -0.13,1.21 -0.23,1.81c-0.05,0.33 -0.08,0.67 -0.16,1s-0.11,0.63 -0.17,1q-0.15,0.87 -0.36,1.74a37.38,37.38 0,0 1,-1.21 4A30.55,30.55 0,0 1,81.53 51a30.05,30.05 0,0 1,-1.94 3.28c-0.59,0.86 -1.2,1.69 -1.85,2.5s-1.48,1.75 -2.27,2.58c-0.5,0.52 -1,1 -1.53,1.54s-0.94,0.91 -1.43,1.34c-1,0.86 -1.91,1.7 -2.9,2.51S67.75,66.3 66.82,67c-0.7,0.55 -1.41,1.08 -2.09,1.64s-1.47,1.17 -2.19,1.79 -1.42,1.25 -2.09,1.93A21,21 0,0 0,57 76.91l-0.25,0.46c0,0.08 -0.1,0.17 -0.05,0.27s0.05,0.16 -0.08,0.19l0,0s0,0.06 0.06,0.06c0.29,0 0.54,0.18 0.83,0.23a1.47,1.47 0,0 1,0.57 0.22,0.46 0.46,0 0,1 0.2,0.49 14.5,14.5 0,0 1,-0.84 2.72c-0.12,0.28 -0.24,0.57 -0.37,0.85a0.77,0.77 0,0 1,-0.82 0.46A5.49,5.49 0,0 1,55 82.69c-0.26,-0.07 -0.26,-0.07 -0.35,0.19q-0.81,2.34 -1.61,4.69l-1.22,3.54q-3.45,10.1 -6.93,20.19a8.17,8.17 0,0 1,-2.25 3.5,3.23 3.23,0 0,1 -1.29,0.75 1.58,1.58 0,0 1,-1.88 -0.82,4.19 4.19,0 0,1 -0.47,-1.58 8.19,8.19 0,0 1,0.06 -2.37,0.54 0.54,0 0,0 0,-0.13c-0.15,0.19 -0.26,0.35 -0.39,0.5a5,5 0,0 1,-1.45 1.22,1.6 1.6,0 0,1 -2.3,-0.6 4,4 0,0 1,-0.49 -1.75,8.15 8.15,0 0,1 0.33,-3c0.64,-2.18 1.43,-4.3 2.17,-6.44q3.7,-10.87 7.45,-21.74c0.05,-0.15 0,-0.21 -0.12,-0.29a5.25,5.25 0,0 1,-1.12 -0.6,0.75 0.75,0 0,1 -0.3,-0.87 14.66,14.66 0,0 1,0.53 -1.86c0.19,-0.51 0.4,-1 0.64,-1.5a0.4,0.4 0,0 1,0.5 -0.26,8.49 8.49,0 0,1 1.45,0.48S46.06,74 46.13,74ZM52.13,73.23h0c0.2,-0.37 0.39,-0.75 0.6,-1.12a24.65,24.65 0,0 1,2.53 -3.64c1.15,-1.4 2.41,-2.7 3.64,-4a36.69,36.69 0,0 0,4 -5.05,20.3 20.3,0 0,0 3,-7 16.66,16.66 0,0 0,0.24 -3.93c-0.08,-1.66 -0.38,-4.33 -2.11,-5.14a2.24,2.24 0,0 0,-2.2 0.29A18.73,18.73 0,0 0,55.58 50a19.7,19.7 0,0 0,-2.24 6.08,51.63 51.63,0 0,0 -0.58,9c0,0.81 0,1.62 0,2.42q0,1.5 -0.21,3c0,0.48 -0.1,1 -0.19,1.43S52.16,72.76 52.09,73.18Z" fill="#1c6393" fill-opacity="1"/>
    <path d="M52.91,76.56a25.15,25.15 0,0 1,5.78 -8c4.7,-4.74 9.46,-9.25 12.81,-15.12 0.6,-1 1.16,-2.13 1.68,-3.23a45.77,45.77 0,0 0,3.7 -11.75c0.44,-2.63 0.66,-5.3 0.84,-8 0.38,-5.76 0.5,-11.57 0.71,-17.35 0.11,-2.95 0.18,-6 -1.2,-8.66l0.77,0.3a4.72,4.72 0,0 1,0.93 0.59,7 7,0 0,1 1.49,1.9 14,14 0,0 1,0.73 1.45c0.3,0.69 0.6,1.38 0.88,2.08 0.15,0.39 0.32,0.79 0.48,1.18a14.64,14.64 0,0 1,0.54 1.49c0.09,0.35 0.25,0.68 0.36,1s0.2,0.71 0.32,1.07l0.16,0.49c0.24,0.73 0.39,1.48 0.6,2.21 0.06,0.18 0,0.38 0.09,0.55 0.13,0.38 0.15,0.79 0.25,1.18s0.09,0.64 0.16,0.95 0.1,0.74 0.18,1.1a5.11,5.11 0,0 1,0 0.55,5.91 5.91,0 0,1 0.12,1.26c0,0.18 0.09,0.37 0.09,0.58 0,0.52 0.1,1 0.1,1.57 0,0.35 0,0.69 0.06,1s0,0.84 0,1.26a4.64,4.64 0,0 0,0 0.83c0,0.13 0,0.28 0,0.43a2.89,2.89 0,0 1,0 0.83,1.48 1.48,0 0,0 0,0.42 13.45,13.45 0,0 1,0 1.42c0,0.41 0,0.82 0,1.23s-0.06,1.07 -0.09,1.6 -0.08,1 -0.11,1.44 -0.13,1.09 -0.17,1.63S85.07,39.38 85,40c0,0.34 -0.08,0.68 -0.16,1s-0.12,0.64 -0.17,1c-0.11,0.58 -0.22,1.16 -0.36,1.73a36,36 0,0 1,-1.21 4,30.7 30.7,0 0,1 -1.5,3.43 31.75,31.75 0,0 1,-1.94 3.28c-0.59,0.85 -1.2,1.69 -1.85,2.49s-1.48,1.76 -2.28,2.59c-0.5,0.52 -1,1 -1.52,1.54l-1.43,1.34c-1,0.85 -1.91,1.69 -2.9,2.5s-1.86,1.51 -2.79,2.26c-0.7,0.55 -1.41,1.08 -2.1,1.63s-1.46,1.18 -2.18,1.79 -1.42,1.26 -2.09,1.93A21.3,21.3 0,0 0,57.06 77c-0.08,0.15 -0.17,0.3 -0.25,0.46l-0.18,0.4Z" fill="#175a7f" fill-opacity="1"/>
    <path d="M52.45,76.62A22.71,22.71 0,0 1,57 70.19c0.9,-1 1.85,-1.83 2.78,-2.74l2.81,-2.71 -2.69,2.83c-0.89,1 -1.8,1.88 -2.65,2.86a22.08,22.08 0,0 0,-4.13 6.46Z" fill="#206e99" fill-opacity="1"/>
    <path d="M65.82,52.43a17.34,17.34 0,0 0,0.25 -3.94c-0.08,-1.66 -0.38,-4.33 -2.12,-5.14a2.24,2.24 0,0 0,-2.2 0.29,18.82 18.82,0 0,0 -6.21,6.49 20,20 0,0 0,-2.24 6.09,53.62 53.62,0 0,0 -0.58,9c0,0.81 0,1.62 0,2.43 0,1 -0.1,2 -0.21,3 -0.06,0.47 -0.11,1 -0.2,1.42l-0.22,1.27 -0.15,0.62 -0.58,1.75 -3.49,-1.2a27.45,27.45 0,0 0,0.84 -6.5c0,-3.42 -1,-6.72 -1.44,-10.1a38.79,38.79 0,0 1,3.56 -22.1,39.23 39.23,0 0,1 2.73,-4.58 22.26,22.26 0,0 1,3.06 -3.59,11.06 11.06,0 0,1 3.9,-2.54 2.78,2.78 0,0 1,1.34 -0.13,3 3,0 0,1 1.74,1.27 22.59,22.59 0,0 1,3.57 8.9,33.61 33.61,0 0,1 0.41,9.55c-0.06,0.65 -0.13,1.3 -0.23,2a29.76,29.76 0,0 1,-1.2 5.08Z" fill="#175a7f" fill-opacity="1"/>
    <path d="M47.52,74.27a25.81,25.81 0,0 0,0.91 -6.93,46.64 46.64,0 0,0 -0.93,-7 41,41 0,0 1,0 -14.15,40.91 40.91,0 0,0 0.38,14.09 45.88,45.88 0,0 1,1.11 7,27.07 27.07,0 0,1 -0.75,7.12Z" fill="#206e99" fill-opacity="1"/>
    <path d="M54.67,82.72 L53,87.56 51.78,91.1q-3.45,10.09 -6.93,20.19a8.26,8.26 0,0 1,-2.25 3.51,3.33 3.33,0 0,1 -1.29,0.74 1.63,1.63 0,0 1,-1.43 -0.27,2.2 2.2,0 0,1 -0.7,-1.28 10.4,10.4 0,0 1,-0.09 -3.2c0.08,0.46 0.25,1.08 0.83,1.11a0.84,0.84 0,0 0,0.52 -0.18,1.65 1.65,0 0,0 0.36,-0.43 14.15,14.15 0,0 0,1.26 -3.24l9.1,-26.53 0.22,-0.64 3.5,1.2Z" fill="#175a7f" fill-opacity="1"/>
    <path d="M50,79.68l-1.67,4.84c-0.41,1.18 -0.81,2.37 -1.22,3.55q-3.45,10.09 -6.93,20.18a8.2,8.2 0,0 1,-2.25 3.51,3.09 3.09,0 0,1 -1.29,0.74 1.63,1.63 0,0 1,-1.43 -0.26,2.23 2.23,0 0,1 -0.7,-1.28 10.47,10.47 0,0 1,-0.09 -3.21c0.08,0.47 0.25,1.08 0.83,1.11a0.74,0.74 0,0 0,0.52 -0.18,1.61 1.61,0 0,0 0.36,-0.42A14.51,14.51 0,0 0,37.38 105l9.1,-26.54 0.22,-0.63 3.5,1.2Z" fill="#175a7f" fill-opacity="1"/>
    <path d="M46.52,79.46L42.58,89.75 45.86,79.23 46.52,79.46z" fill="#206e99" fill-opacity="1"/>
    <path d="M51.53,81.43L47.59,91.72 50.87,81.2 51.53,81.43z" fill="#206e99" fill-opacity="1"/>
    <path d="M52.87,82c-2.12,-0.7 -4.18,-1.55 -6.22,-2.45L44.3,78.48a5.42,5.42 0,0 1,-1.11 -0.6,0.76 0.76,0 0,1 -0.31,-0.87 17.36,17.36 0,0 1,0.54 -1.87c0.19,-0.51 0.39,-1 0.63,-1.5a0.41,0.41 0,0 1,0.5 -0.26,9.12 9.12,0 0,1 1.45,0.48L50.89,76a26.57,26.57 0,0 0,4.76 1.66l1,0.24a7.84,7.84 0,0 1,0.83 0.23,1.33 1.33,0 0,1 0.57,0.22 0.44,0.44 0,0 1,0.2 0.48,15 15,0 0,1 -0.83,2.72c-0.12,0.29 -0.25,0.57 -0.38,0.86a0.75,0.75 0,0 1,-0.82 0.45A5.58,5.58 0,0 1,55 82.65C54.31,82.45 53.59,82.23 52.87,82Z" fill="#1f6d99" fill-opacity="1"/>
    <path d="M72.26,8.83L71.02,10.56" fill="#000000" fill-opacity="0" stroke="#175a7f" stroke-opacity="1" stroke-width="0.23" stoke-linecap="round"/>
    <path d="M70.55,10a3.52,3.52 0,0 0,-1.22 1.32,1.11 1.11,0 0,0 -0.16,0.68 0.86,0.86 0,0 0,0.75 0.64A2.6,2.6 0,0 0,72 11.58a1.62,1.62 0,0 0,0.3 -1.31" fill="#000000" fill-opacity="0" stroke="#175a7f" stroke-opacity="1" stroke-width="0.23" stoke-linecap="round"/>
    <path d="M72.11,8.65L70.87,10.37" fill="#000000" fill-opacity="1" stroke="#206e99" stroke-opacity="1" stroke-width="0.23" stoke-linecap="round"/>
    <path d="M70.35,9.74a3.49,3.49 0,0 0,-1.22 1.31,1.14 1.14,0 0,0 -0.16,0.69 0.86,0.86 0,0 0,0.75 0.64,2.63 2.63,0 0,0 2.12,-1.07 1.63,1.63 0,0 0,0.3 -1.31" fill="#000000" fill-opacity="1" stroke="#206e99" stroke-opacity="1" stroke-width="0.23" stoke-linecap="round"/>
    <path d="M61.67,43.87c-0.93,0.94 -1.83,1.85 -2.67,2.8a28.11,28.11 0,0 0,-2.29 3,33.85 33.85,0 0,0 -1.88,3.27c-0.58,1.13 -1.08,2.3 -1.6,3.53a11.27,11.27 0,0 1,0.6 -3.94,14.68 14.68,0 0,1 1.73,-3.62A13.23,13.23 0,0 1,61.67 43.87Z" fill="#206e99" fill-opacity="1"/>
    <path d="M-70.01,-80.96H646.67V1577.71H-70.01z" fill="#000000" fill-opacity="0" stroke="#32dd14" stroke-opacity="1" stroke-width="11.07"/>
</svg>