<svg xmlns="http://www.w3.org/2000/svg" width="120.0" height="120.0" viewBox="0 0 120.0 120.0">
    <g>
        <clipPath id="clip_1">
            <path d="M16.58,88.09A1.33,1.33 0,0 0,16.05 90l0.37,0.15a2.63,2.63 0,0 0,0.35 -1.89l-0.19,-0.19 M 0,0"/>
        </clipPath>
        <path d="M4.47 76.73H28.16V101.53H4.47z" clip-path="url(#clip_1)" fill="#424242" fill-opacity="1"/>
    </g>
    <g>
        <clipPath id="clip_1">
            <path d="M22.24,103.87a2.42,2.42 0,0 0,0.86 -0.37c0.68,-0.48 0.63,-1.47 0.76,-2a9.11,9.11 0,0 1,0.38 -1.19h-0.07c-0.35,0.85 -0.39,2.22 -0.77,2.82a2.27,2.27 0,0 1,-2.23 0.72,8.2 8.2,0 0,1 -5.43,-4.23L15,97.73S15,98 15,98a20.45,20.45 0,0 0,2 4.66,13 13,0 0,0 9.16,6.24 15.78,15.78 0,0 1,-3.9 -5 M 0,0"/>
        </clipPath>
        <path d="M3.62 86.37H37.5V120.26H3.62z" clip-path="url(#clip_1)" fill="#545454" fill-opacity="1"/>
    </g>
    <g>
        <clipPath id="clip_1">
            <path d="M43.9,72c-0.85,2 -3,3.28 -4.79,4.34l-9.52,6.42c-3.11,2.09 -4.5,4.6 -7.66,4a2.75,2.75 0,0 1,-1.76 -1.06c-2.08,-3 0.36,-6.26 3.82,-8.72l8.78,-6.58c2,-1.32 3.68,-2.82 5.56,-3.56s3.55,-1.38 5.24,0.6 0.78,3.56 0.33,4.61 M 0,0"/>
        </clipPath>
        <path d="M8.05 54.69H55.91V98.13H8.05z" clip-path="url(#clip_1)" fill="#c7c7c7" fill-opacity="1"/>
    </g>
    <g>
        <clipPath id="clip_1">
            <path d="M42.53,63l0.11,0 -0.11,0 M 0,0"/>
        </clipPath>
        <path d="M31.17 51.62H54V74.37H31.17z" clip-path="url(#clip_1)" fill="#424242" fill-opacity="1"/>
    </g>
    <g>
        <clipPath id="clip_1">
            <path d="M17.34,88.21a1.16,1.16 0,0 0,-1.26 0.74c-0.2,0.38 -0.19,0.94 0.06,1s0.82,-0.19 1.12,-0.53 0.59,-0.9 0.08,-1.22m0,0a0.59,0.59 0,0 1,0.36 0.62,1.53 1.53,0 0,1 -0.18,0.71 1.7,1.7 0,0 1,-0.54 0.64,1.27 1.27,0 0,1 -1.12,0.19 0.74,0.74 0,0 1,-0.43 -0.83,1.57 1.57,0 0,1 0.39,-0.7 2.13,2.13 0,0 1,0.67 -0.51,1 1,0 0,1 0.85,-0.12 M 0,0"/>
        </clipPath>
        <path d="M4.07 76.8H29.06V101.78999999999999H4.07z" clip-path="url(#clip_1)" fill="#3c3c3c" fill-opacity="1"/>
    </g>
    <g>
        <clipPath id="clip_1">
            <path d="M50.15,69c1,1.75 5.89,10.06 4.23,15.85C53.09,90.44 47.74,95.22 41.8,90c0,0 0.78,0.15 0.79,0.13 4.24,2.89 9.48,1.16 11,-4.44 1.42,-5.34 -1.49,-11.64 -4.65,-17C47.53,66.34 45,63.29 42.64,63c1.5,-1 3.27,0.43 4.75,2l0.08,0.09a35.46,35.46 0,0 1,2.68 4 M 0,0"/>
        </clipPath>
        <path d="M30.44 51.26H66.08V103.6H30.44z" clip-path="url(#clip_1)" fill="#c7c7c7" fill-opacity="1"/>
    </g>
    <g>
        <clipPath id="clip_1">
            <path d="M16.72,88.21c-0.26,-0.15 -0.69,0.12 -0.94,0.59s-0.24,1 0,1.11 0.69,-0.12 1,-0.59 0.23,-1 0,-1.11 M 0,0"/>
        </clipPath>
        <path d="M4.24 76.81H28.29V101.31H4.24z" clip-path="url(#clip_1)" fill="#e6e6e6" fill-opacity="1"/>
    </g>
    <g>
        <clipPath id="clip_1">
            <path d="M16.45,90.06 L16.08,90c-0.24,-0.49 -0.42,-1.43 0.42,-1.74l0.08,-0.07 0.15,0.15a3.35,3.35 0,0 1,-0.28 1.74 M 0,0"/>
        </clipPath>
        <path d="M4.52 76.81H28.09V101.42H4.52z" clip-path="url(#clip_1)" fill="#aaabac" fill-opacity="1"/>
    </g>
    <g>
        <clipPath id="clip_1">
            <path d="M14.68,63H53.11V103.94H14.68z M 0,0"/>
        </clipPath>
        <g clip-path="url(#clip_1)">
            <clipPath id="clip_2">
                <path d="M12.4 60.98H53.29V106.41999999999999H12.4z M 0,0"/>
            </clipPath>
            <g clip-path="url(#clip_2)">
                <clipPath id="clip_3">
                    <path d="M41,83.46c5.8,-1.77,9.73,-3.95,12.07,-6.19a45.9,45.9,0,0,0,-3.24,-7.38c-0.73,-1.12,-1.52,-2.14,-2.25,-3.26,-0.4,-0.48,-0.75,-1,-1.14,-1.48A6.94,6.94,0,0,0,43.12,63c-0.95,-0.14,-2.07 0.89,-3,1.43,-2.57,1.45,-5,3.2,-7.62,4.91,-9.9,6.41,-17.73,15.2,-17.8,24.37,0,2.74 0.1,6.57,3.79,9a5.18,5.18,0,0,0,3.77,1.13C18,94.68,30.09,86.79,41,83.46 M 0,0"/>
                </clipPath>
                <g clip-path="url(#clip_3)">
                    <clipPath id="clip_4">
                        <path d="M14.68 60.98H53.3V104.13999999999999H14.68z M 0,0"/>
                    </clipPath>
                    <path d="M3.32 51.64H64.46V115.3H3.32z" clip-path="url(#clip_4)" fill="#898989" fill-opacity="1"/>
                </g>
            </g>
        </g>
    </g>
    <g>
        <clipPath id="clip_1">
            <path d="M28.05,46.82l0.09,0Z M 0,0"/>
        </clipPath>
        <path d="M16.69 35.46H39.5V58.21H16.69z" clip-path="url(#clip_1)" fill="#7a7a7c" fill-opacity="1"/>
    </g>
    <g>
        <clipPath id="clip_1">
            <path d="M15.82,88.93c-0.2,0.61 -0.08,1.19 0.27,1.3s0.79,-0.28 1,-0.89 0.08,-1.19 -0.27,-1.3 -0.78,0.29 -1,0.89 M 0,0"/>
        </clipPath>
        <path d="M4.37 76.66H28.53V101.61H4.37z" clip-path="url(#clip_1)" fill="#aaabac" fill-opacity="1"/>
    </g>
    <g>
        <clipPath id="clip_1">
            <path d="M18.29,91.94a0.94,0.94 0,0 0,0.42 1.23c0.4,0.13 0.87,-0.2 1.05,-0.75a1,1 0,0 0,-0.41 -1.23c-0.4,-0.13 -0.88,0.21 -1.06,0.75 M 0,0"/>
        </clipPath>
        <path d="M6.87 79.81H31.19V104.56H6.87z" clip-path="url(#clip_1)" fill="#aaabac" fill-opacity="1"/>
    </g>
    <g>
        <clipPath id="clip_1">
            <path d="M18.55,91.5a0.78,0.78 0,0 0,-1 0.46A0.77,0.77 0,0 0,17.73 93a0.78,0.78 0,0 0,1 -0.46,0.79 0.79,0 0,0 -0.16,-1.07 M 0,0"/>
        </clipPath>
        <path d="M6.08 80.08H30.200000000000003V104.45H6.08z" clip-path="url(#clip_1)" fill="#e6e6e6" fill-opacity="1"/>
    </g>
    <g>
        <clipPath id="clip_1">
            <path d="M19.07,91.52a1,1 0,0 0,-1.25 0.62c-0.18,0.42 -0.08,0.93 0.23,1s0.82,0 1.12,-0.4a0.8,0.8 0,0 0,-0.1 -1.26m0,0a1,1 0,0 1,0.35 1.37,1.29 1.29,0 0,1 -1.64,0.73 1,1 0,0 1,-0.21 -1.6,1.34 1.34,0 0,1 1.5,-0.5 M 0,0"/>
        </clipPath>
        <path d="M5.91 80.07H30.9V105.05999999999999H5.91z" clip-path="url(#clip_1)" fill="#3c3c3c" fill-opacity="1"/>
    </g>
    <g>
        <clipPath id="clip_1">
            <path d="M35.27,69l-10.8,8c-3,2.12 -5.22,5.26 -3.55,7.7a2,2 0,0 0,1.25 0.75c2.59,0.69 4.07,-1.51 6.72,-3.28l9,-6.06c3.89,-2.37 7,-5.6 5.23,-8.24s-5.26,-0.64 -7.85,1.09 M 0,0"/>
        </clipPath>
        <path d="M8.99 55.25H54.99V96.96000000000001H8.99z" clip-path="url(#clip_1)" fill="#545454" fill-opacity="1"/>
    </g>
    <g>
        <clipPath id="clip_1">
            <path d="M92.86,12.39C82.19,17 72.41,31 67,39.92c-1.58,2.59 -3.52,4.8 -5.48,7.46C58.81,51 53.67,52.93 51,52.57c-1.24,-0.17 -2.62,-1.37 -3.86,-0.63 -0.88,0.53 -1.23,1 -1.29,1.53A76.1,76.1 0,0 0,56.94 65.38a28.88,28.88 0,0 0,8.2 4.76c2.61,0.94 3.85,-1.64 1.88,-3.53 -7.36,-7.07 2.45,-9.8 9.83,-15.88S101.72,27 102.81,12c-2.78,-1.88 -7.4,-0.69 -10,0.4 M 0,0"/>
        </clipPath>
        <path d="M34.46 -0.36H114.16999999999999V81.7H34.46z" clip-path="url(#clip_1)" fill="#545454" fill-opacity="1"/>
    </g>
    <g>
        <clipPath id="clip_1">
            <path d="M22.24,11.99H105.32V109H22.24z M 0,0"/>
        </clipPath>
        <g clip-path="url(#clip_1)">
            <clipPath id="clip_2">
                <path d="M21.49 11H107.82V110.96H21.49z M 0,0"/>
            </clipPath>
            <g clip-path="url(#clip_2)">
                <clipPath id="clip_3">
                    <path d="M45.72,99.21s8.19,-10.06,10.83,-13.8c0.13,-0.18 0.26,-0.35 0.4,-0.52,1.21,-1.48,5.95,-7.5,7.79,-8.81,1.46,-1,2.68,-2.16,4.11,-2.49,1,-0.23,2.05 0.49,3,-0.91 0.86,-1.24 0.1,-2.08 0.4,-3.26 0.49,-1.86,2.11,-3.72,3.39,-5.55,2.45,-3.5,5.83,-6.36,8.44,-9.92l7.67,-9,4.43,-5.83c5.45,-8,10.8,-16.13,8.65,-24.12a5,5,0,0,0,-2,-3c-1.09,15,-18.71,32.77,-26,38.74S59.65,59.54,67,66.61c2,1.89 0.73,4.47,-1.88,3.53a28.88,28.88,0,0,1,-8.2,-4.76A76.18,76.18,0,0,1,45.82,53.46c-0.1 0.78 0.51,1.57,1,2.49a4.47,4.47,0,0,1,-0.21,3.23,3.93,3.93,0,0,1,-0.33 0.59,8.27,8.27,0,0,1,4,1.7A14.2,14.2,0,0,1,55.8,71.6a6.76,6.76,0,0,1,-2.21,5.16,16.84,16.84,0,0,1,0.95,7.52,10,10,0,0,1,-1,3.07l-1.39,2.11a6.41,6.41,0,0,1,-7.9,2.17c-0.92,-0.42,-1.84,-1.46,-2.77,-1.7a6.08,6.08,0,0,0,-3.16 0.16c-0.75,1.07,-1.33,2.39,-2.14,3.59C33,98.31,28,101,24.24,100.31a9.11,9.11,0,0,0,-0.38,1.19c-0.13 0.53,-0.08,1.52,-0.76,2a2.42,2.42,0,0,1,-0.86 0.37,15.78,15.78,0,0,0,3.9,5c5.45 0.76,14.48,-2.75,19.58,-9.69 M 0,0"/>
                </clipPath>
                <g clip-path="url(#clip_3)">
                    <clipPath id="clip_4">
                        <path d="M21.49 11H105.55V110.96H21.49z M 0,0"/>
                    </clipPath>
                    <path d="M10.88 0.63H116.67999999999999V120.36H10.88z" clip-path="url(#clip_4)" fill="#434242" fill-opacity="1"/>
                </g>
            </g>
        </g>
    </g>
    <g>
        <clipPath id="clip_1">
            <path d="M23.86,101.5a9.34,9.34 0,0 1,1.48 -3.23c2.06,-3 7.5,-6 10,-7.13 1.81,-0.78 3.85,-1.68 5.66,-1.36 2.84,0.5 4,2.47 7.15,1.73a8.46,8.46 0,0 0,5.47 -5.21c0.9,-2.73 0.48,-5.9 -0.53,-9 -2.34,2.24 -6.27,4.42 -12.07,6.19 -10.94,3.33 -23,11.22 -18.79,20.41a2.42,2.42 0,0 0,0.86 -0.37c0.68,-0.48 0.63,-1.47 0.76,-2 M 0,0"/>
        </clipPath>
        <path d="M10.03 65.91H65.49V115.22H10.03z" clip-path="url(#clip_1)" fill="#6d6d6d" fill-opacity="1"/>
    </g>
    <g>
        <clipPath id="clip_1">
            <path d="M37.85,76.08l-9,6.06c-2.51,1.68 -4,4 -6.4,3.48A2.48,2.48 0,0 1,21 84.68c-1.66,-2.41 0.6,-5.54 3.55,-7.63L35,69.23c2.7,-1.81 5.44,-4 8.07,-1.31 1.38,4.29 -1.36,5.79 -5.23,8.16 M 0,0"/>
        </clipPath>
        <path d="M9.03 55.31H54.800000000000004V97.06H9.03z" clip-path="url(#clip_1)" fill="#424242" fill-opacity="1"/>
    </g>
    <g>
        <clipPath id="clip_1">
            <path d="M19.19,91.27l-0.26,0c-0.73,0.48 -0.6,1.1 -0.46,1.71l0.34,0.19a0.51,0.51 0,0 0,0.4 0,1.33 1.33,0 0,0 0.28,-1.59l-0.3,-0.23 M 0,0"/>
        </clipPath>
        <path d="M7 79.87H30.99V104.51H7z" clip-path="url(#clip_1)" fill="#424242" fill-opacity="1"/>
    </g>
    <g>
        <clipPath id="clip_1">
            <path d="M50.29,61.47a8.27,8.27 0,0 0,-4 -1.7,7.25 7.25,0 0,1 -2.07,2.06c-0.36,0.25 -1.25,0.7 -1.44,1.08 1.83,-1.13 5.19,2.68 6.3,4.46a45.52,45.52 0,0 1,4.56 9.39A6.76,6.76 0,0 0,55.8 71.6a14.2,14.2 0,0 0,-5.51 -10.13 M 0,0"/>
        </clipPath>
        <path d="M31.37 48.41H67.18V88.12H31.37z" clip-path="url(#clip_1)" fill="#545454" fill-opacity="1"/>
    </g>
</svg>