<svg xmlns="http://www.w3.org/2000/svg" width="120.0" height="120.0" viewBox="0 0 120.0 120.0">
    <path d="M105.49,7.8a3.41,3.41 0,0 1,0.46 0.58l0.06,-0.26Z" fill="#ddd5c7" fill-opacity="1"/>
    <path d="M105.5,7.81c1.73,1.46 -0.43,4 -1.51,5.77h0s-0.66,0.9 -1,1.44 -1.67,2 -2.28,2.7A28.52,28.52 0,0 1,97.56 21l-1.9,2 -7,6.92L76,42.05l-9.21,8.76L59.11,58 53.5,63.18l-4.42,4 -4,3.52c-3.26,2.64 -6.35,5.53 -9.61,7.94C30.84,82 26.4,85.7 21.62,87.31c-1.28,0.44 -3.94,1.31 -5.25,-0.29 -1.67,-2.06 0,-5.65 1,-8a59.49,59.49 0,0 1,3.09 -5.61l1.79,-2.77 2.32,-3.32 2.18,-2.89 1.06,-1.31A42,42 0,0 1,31.2 59L35.56,54l2.87,-3.08 3.75,-3.76c2.48,-2.23 4.65,-4.74 7.18,-6.79 3.53,-2.86 6.76,-6 10.29,-8.54 2.61,-1.91 5.13,-3.94 7.78,-5.69A199.31,199.31 0,0 1,86 14.86a109.2,109.2 0,0 1,12.34 -5.8c2,-0.72 4.16,-1.76 6.24,-1.55a2.07,2.07 0,0 1,0.91 0.29Z" fill="#e3e3e3" fill-opacity="1" fill-rule="evenodd"/>
    <path d="M108.15,9.47c2,1.67 -0.48,4.69 -1.7,6.76 -1.64,2.8 -4.53,5.57 -6.63,8.2L96.7,28.07l-1.47,1.59c-0.64,0.69 -1.28,1.38 -1.93,2.06 -0.93,1 -1.87,2 -2.81,3l-9.3,10c-1,1.1 -2,2.2 -2.93,3.29l-1.32,1.51 -3.43,4L70.14,57.6l-3.06,3.91 -2.7,3.65 -1.7,2.36 -4.53,6.69 -3.52,5.54c-0.5,0.79 -1,1.57 -1.49,2.36s-3.51,5.24 -3.67,5.49l-1.79,2.49L46.6,91.64 44.9,94 43.67,95.5 40.89,99c-2.46,2.94 -5,6.11 -7.72,8.11a0.19,0.19 0,0 1,-0.26 0,13.33 13.33,0 0,0 -1.5,-1.38C30.54,105 20.27,97.36 17,95.52c-2.64,-1.59 -5.21,-3.16 -5.23,-3.45a55.7,55.7 0,0 1,1.11 -5.6,31.83 31.83,0 0,1 2.78,-6.2c0.46,-0.86 1.4,-2.35 1.54,-2.6s3.47,-5.13 3.91,-5.28c-0.7,1 -4.22,6.08 -4.66,6.89 -1.65,3.08 -3.1,5.83 -3,8.61a3.55,3.55 0,0 0,2.15 3.28c1.82,0.83 3.71,0.44 5.45,0 4.13,-1.14 7.78,-3.37 11.59,-5.79 4.07,-2.59 11.46,-8.38 11.67,-8.54s3.22,-2.78 4.74,-4c2,-1.69 11.73,-10.25 14.61,-12.85L74.21,49.83 85.55,38.57C86.69,37.4 88,36.13 89.1,35l7.23,-7.53L98.58,25c0.84,-0.92 1.45,-1.65 2.28,-2.57 0.28,-0.33 2.15,-2.49 2.86,-3.33 0.35,-0.45 1.35,-1.56 2.32,-2.95s2.81,-3.8 2.35,-5.89a2.67,2.67 0,0 0,-0.72 -1.05Z" fill="#f0d9d9" fill-opacity="1" fill-rule="evenodd"/>
    <path d="M55.56,38c-5,4.43 -8.2,8.94 -7.19,10.07s5.87,-1.53 10.85,-6 8.19,-8.94 7.18,-10.07S60.54,33.61 55.56,38Z" fill="#ac8787" fill-opacity="1" fill-rule="evenodd"/>
    <path d="M45.29,55.27c-1.81,1.5 -4,1.89 -4.81,0.88s0,-3.06 1.77,-4.56 4,-1.9 4.81,-0.88S47.11,53.76 45.29,55.27Z" fill="#ac8787" fill-opacity="1" fill-rule="evenodd"/>
    <path d="M45,55c-1.68,1.39 -3.67,1.76 -4.45,0.82s0,-2.83 1.64,-4.22 3.67,-1.75 4.45,-0.81S46.66,53.6 45,55Z" fill="#f0d9d9" fill-opacity="1" fill-rule="evenodd"/>
    <path d="M11.9,92.17C12.12,92 24,97.5 33,107.05c-0.17,0.43 -0.83,1 -1.16,0.63S20.48,97.4 11.8,93.29C11.65,93.22 11.69,92.29 11.9,92.17Z" fill="#ac8787" fill-opacity="1" fill-rule="evenodd"/>
    <path d="M31.85,107.68a0.24,0.24 0,0 1,0 0.35,31.18 31.18,0 0,1 -3.61,2.44c-1.43,0.78 -3.38,2.26 -4.85,2 -1.32,-0.21 -3.43,-1.93 -4.54,-3.24l-2,-2.22a6.4,6.4 0,0 1,-0.41 -0.5,41.79 41.79,0 0,1 -4.39,-6.8A6.4,6.4 0,0 1,11.23 95c0.07,-0.43 0.21,-1.52 0.53,-1.63C12.28,93.18 15.48,95 17,96A87.62,87.62 0,0 1,31.85 107.68Z" fill="#f0d9d9" fill-opacity="1" fill-rule="evenodd"/>
    <path d="M107.67,9.18c2.37,2 -1,5.86 -2.62,8.24a32,32 0,0 1,-2.1 3c-0.36,0.42 -1.39,1.52 -1.75,1.94l-3.47,3.89 -2.08,2.28 -7.88,8.19q-6,6 -12,12l-8.42,8.11 -6,5.61 -4.48,4.05L52,70.71c-3.28,2.72 -6.42,5.61 -9.74,8.05l-3.88,3a95.37,95.37 0,0 1,-11.91 7.67,29.7 29.7,0 0,1 -5.84,2.47 11.23,11.23 0,0 1,-3 0.5,7.15 7.15,0 0,1 -2,-0.25A3.69,3.69 0,0 1,13 88.41c0.08,-3.18 1.8,-6.13 3.69,-9.52 0.77,-1.38 1.87,-2.61 2.75,-4.06a7.1,7.1 0,0 1,1.26 -1.68c-0.66,1.15 -1.45,2.34 -2,3.4 -1.46,2.81 -2.94,5.29 -3.33,8 -0.14,1 -0.28,2.92 1.14,3.73 1.65,1 3.45,0.31 5,-0.24 3.81,-1.35 7.54,-4.09 11.2,-6.75s7.3,-5.92 11,-9l6,-5.24 5.65,-5.13 8.11,-7.52 10,-9.49L87.1,31.76l7.64,-7.5 4.35,-4.51c0.14,-0.15 0.28,-0.31 0.43,-0.46l0.94,-1.1 1.66,-2 1.59,-2.11c1,-1.53 2.56,-4.08 2.41,-5.23a1.9,1.9 0,0 0,-0.62 -1.09Z" fill="#ac8787" fill-opacity="1" fill-rule="evenodd"/>
    <path d="M107.67,9.18 L106,8.12l-0.06,0.26a1.38,1.38 0,0 1,0.17 0.52c0.15,1.15 -1,3 -2,4.5l-1.58,2.11 -1.66,2 -1,1.1c-0.15,0.15 -0.29,0.31 -0.43,0.47l-4.35,4.5L87.5,31 73.89,44.15l-10,9.49 -8.1,7.52 -5.66,5.13 -6,5.24c-3.71,3.07 -7.25,6.28 -11,9s-7.39,5.4 -11.2,6.75c-1.53,0.55 -3.33,1.19 -5,0.24a2.26,2.26 0,0 1,-0.51 -0.4,4.11 4.11,0 0,1 -0.63,-3.33c0.39,-2.67 1.86,-5.15 3.32,-8 0.56,-1.06 1.36,-2.25 2,-3.39a6.85,6.85 0,0 0,-1.26 1.67c-0.88,1.45 -2,2.68 -2.74,4.06s-1.41,2.51 -2,3.71a14.05,14.05 0,0 0,-1.7 5.81,3.83 3.83,0 0,0 1.3,3 2.78,2.78 0,0 0,0.4 0.16,7.3 7.3,0 0,0 2,0.26 11.44,11.44 0,0 0,3.05 -0.5,30.6 30.6,0 0,0 5.9,-2.5 95.89,95.89 0,0 0,12 -7.74l3.92,-3c3.36,-2.46 6.52,-5.38 9.84,-8.12 1.33,-1.17 3.52,-3.07 4.85,-4.23l4.53,-4.09 6.08,-5.66 8.5,-8.19L87.91,34.89l7.94,-8.26L98,24.32l3.51,-3.92 1.08,-1.28c0.9,-1.09 2.1,-2.18 2.83,-3.27 1.07,-1.6 2.75,-3.73 3.06,-5.57A2.27,2.27 0,0 0,107.67 9.18Z" fill="#e5caca" fill-opacity="1"/>
    <path d="M54.18,39.61l4.21,1.46a0.21,0.21 0,0 1,0.07 0.36c-1.5,1.26 -8.62,7.18 -9.93,6.08s4.62,-7.06 5.43,-7.86A0.22,0.22 0,0 1,54.18 39.61Z" fill="#f0d9d9" fill-opacity="1"/>
    <path d="M66.07,32c-2.21,-0.89 -9.6,5.49 -10.65,6.41a0.08,0.08 0,0 0,0 0.14A23,23 0,0 1,60 40a0.06,0.06 0,0 0,0.09 0c1,-0.92 7.18,-6.72 6,-8.06" fill="#f0d9d9" fill-opacity="1"/>
</svg>