<svg xmlns="http://www.w3.org/2000/svg" width="120.0" height="120.0" viewBox="0 0 120.0 120.0">
    <path d="M107.08,12.53l0.11,0.07a1,1 0,0 0,0.25 0.22,5.46 5.46,0 0,1 0.48,0.36 6.2,6.2 0,0 1,1.19 1.51,6 6,0 0,1 0.56,1.36 8.57,8.57 0,0 1,0.24 2.37,16.83 16.83,0 0,1 -0.57,3.73c-0.26,1.07 -0.58,2.12 -0.93,3.17 -0.51,1.54 -1,3.1 -1.55,4.61s-1.15,3.17 -1.79,4.73c-0.88,2.14 -1.69,4.31 -2.63,6.42 -0.47,1 -0.9,2.1 -1.38,3.14s-1,2 -1.46,3c-0.27,0.55 -0.52,1.11 -0.81,1.66 -0.44,0.84 -0.9,1.68 -1.36,2.51s-0.82,1.49 -1.22,2.23c-0.18,0.33 -0.4,0.63 -0.6,0.94 -0.55,0.9 -1.1,1.81 -1.69,2.68a0.92,0.92 0,0 0,-0.16 0.31l-1.25,1.8a0.58,0.58 0,0 0,-0.17 0.18c-0.5,0.74 -1.06,1.43 -1.58,2.14 -0.76,1 -1.58,1.95 -2.4,2.91 -0.6,0.72 -1.24,1.41 -1.89,2.08 -1.64,1.7 -3.27,3.41 -4.94,5.07 -2.33,2.31 -4.58,4.7 -6.8,7.11l-4,4.35c-0.7,0.77 -1.4,1.54 -2.08,2.33S67.38,87 66.74,87.78s-1.13,1.36 -1.68,2.06 -0.92,1.21 -1.35,1.84a5.08,5.08 0,0 0,-0.38 0.53c-0.16,0.28 -0.33,0.56 -0.5,0.84a7.47,7.47 0,0 0,-0.65 1.44,12.5 12.5,0 0,0 -0.6,3.69c0,1.18 0,2.37 0,3.56a6.48,6.48 0,0 1,-0.32 2.18,8.09 8.09,0 0,1 -0.55,1.15 4.55,4.55 0,0 1,-1 1.19,7.87 7.87,0 0,1 -1.84,1 16.46,16.46 0,0 1,-2.05 0.69,12.9 12.9,0 0,1 -1.83,0.46l-0.83,0.11c-0.34,0 -0.68,0.1 -1,0.13a16.88,16.88 0,0 1,-1.74 0.08,27.92 27.92,0 0,1 -4.57,-0.29c-0.65,-0.1 -1.29,-0.2 -1.93,-0.33s-1.27,-0.26 -1.88,-0.43l-3.21,-1a23.13,23.13 0,0 1,-2.46 -0.87c-1.14,-0.48 -2.25,-1 -3.37,-1.54a34.31,34.31 0,0 1,-4.5 -2.53L28,101.5c-0.55,-0.35 -1.1,-0.7 -1.64,-1.07l-0.86,-0.63a7.89,7.89 0,0 1,-0.65 -0.49c-0.08,-0.08 -4.48,-3.72 -4.63,-3.86 -1.24,-1.15 -2.45,-2.33 -3.58,-3.59a34.29,34.29 0,0 1,-2.89 -3.47c-0.32,-0.48 -0.69,-0.92 -1,-1.41a20,20 0,0 1,-1.56 -3,11.27 11.27,0 0,1 -0.46,-1.22c-0.07,-0.31 -0.16,-0.62 -0.24,-0.92a5.69,5.69 0,0 1,-0.2 -0.91c-0.05,-0.44 -0.1,-0.87 -0.17,-1.3a6.69,6.69 0,0 1,0.16 -2.52,1.13 1.13,0 0,1 0.08,-0.24 3.33,3.33 0,0 1,1 -1.36,3.92 3.92,0 0,1 0.56,-0.33 4.5,4.5 0,0 1,1.26 -0.33,27.7 27.7,0 0,1 3.29,-0.26c0.69,0 1.38,0 2.07,0a19.18,19.18 0,0 1,2.92 0.32,31.18 31.18,0 0,1 3.83,0.86c0.33,0.09 0.66,0.17 1,0.29 0.75,0.26 1.48,0.58 2.22,0.9s1.4,0.6 2.07,1c0.51,0.27 1,0.58 1.52,0.84a15,15 0,0 1,1.58 1L34,80c0.88,0.58 1.74,1.19 2.57,1.85s1.36,1.1 2,1.69a1.45,1.45 0,0 0,0.45 0.33c0.4,0.14 0.8,0.29 1.22,0.4 0.83,0.21 1.67,0.39 2.52,0.55a6.42,6.42 0,0 0,2.23 0,2.74 2.74,0 0,0 1.23,-0.58 6.91,6.91 0,0 0,1.47 -1.93A1.82,1.82 0,0 0,47.9 82a19.65,19.65 0,0 0,0.85 -2.37c0.18,-0.7 0.38,-1.41 0.53,-2.12 0.29,-1.34 0.49,-2.69 0.7,-4 0.54,-3.29 1.1,-6.59 1.79,-9.85 0.21,-1 0.38,-2 0.64,-2.94 0.17,-0.65 0.33,-1.31 0.51,-2 0.31,-1.2 0.58,-2.42 0.93,-3.61 0.63,-2.14 1.32,-4.25 2.13,-6.33 0.59,-1.51 1.23,-3 1.89,-4.46a50.21,50.21 0,0 1,2.31 -4.5c0.6,-1 1.24,-2 1.94,-3S63.48,35 64.17,34c0.32,-0.42 0.66,-0.83 1,-1.24s0.87,-1 1.31,-1.52c1,-1.12 2,-2.16 3.06,-3.19 1.28,-1.25 2.63,-2.44 4,-3.57q1.67,-1.36 3.42,-2.62 2,-1.42 4,-2.71C82.8,18 84.66,17 86.58,16c0.88,-0.45 1.76,-0.91 2.67,-1.33a36.81,36.81 0,0 1,3.69 -1.47c1.34,-0.45 2.69,-0.89 4.06,-1.22a27.36,27.36 0,0 1,3.23 -0.59,13.42 13.42,0 0,1 3.85,0.07 8.28,8.28 0,0 1,2 0.61C106.44,12.18 106.75,12.36 107.08,12.53Z" fill="#3a4768" fill-opacity="1"/>
    <path d="M109.47,18.87a18,18 0,0 1,-0.66 5.31c-0.38,1.77 -0.91,3.47 -1.41,5.18 -1,3.43 -2.26,6.78 -3.58,10.09a103.78,103.78 0,0 1,-4.32 9.8c-0.82,1.6 -1.71,3.15 -2.56,4.7 -0.4,0.77 -1,1.57 -1.46,2.3l-0.74,1.13 -0.37,0.56 -0.18,0.28s0,0 0,0l-0.12,0.26 -1.29,1.77 -0.15,0.17h0l-0.16,0.21 -0.32,0.41 -0.65,0.83c-0.43,0.56 -0.89,1.08 -1.35,1.61 -0.93,1 -1.85,2.1 -2.85,3.07s-2,1.91 -3,2.86 -2.05,1.85 -3.1,2.76c0.88,-1.07 1.78,-2.13 2.68,-3.17S85.6,67 86.45,65.91s1.71,-2.14 2.54,-3.22c0.41,-0.54 0.83,-1.08 1.21,-1.65l0.59,-0.84 0.29,-0.42 0.14,-0.21a3.7,3.7 0,0 1,0.33 -0.36l-0.15,0.16 1.2,-1.83 -0.12,0.27a3.94,3.94 0,0 1,0.26 -0.55l0.18,-0.29 0.34,-0.56 0.68,-1.13c0.46,-0.78 0.91,-1.43 1.32,-2.24 0.84,-1.57 1.71,-3.12 2.49,-4.68s1.56,-3.16 2.28,-4.77 1.44,-3.23 2.13,-4.86c1.41,-3.25 2.81,-6.5 4.1,-9.79 0.61,-1.65 1.29,-3.29 1.86,-5A21.4,21.4 0,0 0,109.47 18.87Z" fill="#2c3a56" fill-opacity="1"/>
    <path d="M10.79,77a32.66,32.66 0,0 0,1.86 3.26,15.91 15.91,0 0,0 2.48,2.77 46.93,46.93 0,0 0,6 4.52,73.19 73.19,0 0,0 6.47,3.77c2.21,1.14 4.52,2.11 6.85,3s4.65,1.91 7,2.78a66.13,66.13 0,0 1,7 2.89,25 25,0 0,1 3.26,2 32.28,32.28 0,0 0,3.11 2.07,7.37 7.37,0 0,0 3.5,1 3.9,3.9 0,0 0,3.16 -1.65,4.15 4.15,0 0,1 -1.32,1.35 4,4 0,0 1,-1.83 0.56,7.58 7.58,0 0,1 -3.73,-0.83 31.13,31.13 0,0 1,-3.24 -2,25.73 25.73,0 0,0 -3.24,-1.81c-2.26,-1 -4.62,-1.87 -7,-2.72s-4.7,-1.8 -7,-2.71a63.48,63.48 0,0 1,-13.37 -7.1,45.72 45.72,0 0,1 -5.88,-4.79 16.55,16.55 0,0 1,-2.36 -3A24.16,24.16 0,0 1,10.79 77Z" fill="#465c7f" fill-opacity="1"/>
    <path d="M90.9,18.91L84.64,23.79 80.01,27.58 72.92,34.49 66.25,41.82 62.38,47.41 59.84,52.83 57.64,57.62 58.62,52.85 61.31,45.98 64.45,40.46 66.7,37.65 70.53,33.35 75.96,28.48 81.22,24.56 86.2,21.38 90.9,18.91z" fill="#465c7f" fill-opacity="1"/>
    <path d="M46.82,83.65a0.17,0.17 0,0 0,-0.16 0.11,2.75 2.75,0 0,1 -1.8,1 6.62,6.62 0,0 1,-2.13 -0.08c-1.29,-0.22 -2.51,-0.68 -3.78,-0.93a4.44,4.44 0,0 0,0.38 0.37A16.17,16.17 0,0 1,43 88.84a7.35,7.35 0,0 1,0.58 5.26c0.57,-1.78 1.12,-3.56 1.67,-5.35l0.82,-2.68A9.12,9.12 0,0 0,46.82 83.65Z" fill="#2c3a56" fill-opacity="1" fill-rule="evenodd"/>
</svg>