<svg xmlns="http://www.w3.org/2000/svg" width="120.0" height="120.0" viewBox="0 0 120.0 120.0">
    <path d="M56.52,44.06c-8.91,2.9 -16.13,0.19 -18.44,-1.94 -2.51,-2.33 -2.13,-4.47 0.1,-8.18a18.52,18.52 0,0 1,2.29 -2.81l-0.81,0.55c-5.78,4.88 -12.76,11.68 -16.06,17 -4.79,7.76 -0.57,14 6.17,10.73 2.48,-1.22 9.89,-5.22 18.87,-10l1.79,-1 0.44,-0.24 1.87,-1 0.08,-0.05 1.79,-0.95 0.48,-0.25 3.81,-2 0.51,-0.27 1.92,-1h0l1.92,-1 0.45,-0.24 2,-1C62.26,42 59,43.25 56.52,44.06" fill="#000000" fill-opacity="1"/>
    <path d="M86.35,13.86c-12.44,0 -18.32,1.81 -27.68,6.26A78.91,78.91 0,0 0,42.6 30.39a19.72,19.72 0,0 0,-2.29 2.82s-1.6,2.89 0,5 5.82,4 11,3.82S63,40.17 71,36.06 94.15,24.46 99.18,24s8.18,-0.42 10.16,2.05a6,6 0,0 1,0.89 2.34,12.87 12.87,0 0,0 -3.39,-8c-3.41,-3.53 -8,-6.54 -20.49,-6.54" fill="#000000" fill-opacity="1"/>
    <path d="M47.27,91.65c3.73,1.9 13.4,1.29 28.85,-9S98,67.65 92.46,63.86c-4.15,-1.38 -10,-0.36 -13.26,0.58 -5.6,1.6 -32.31,15.75 -36,16.21 -1.6,3.54 0.3,9.09 4,11" fill="#000000" fill-opacity="1"/>
    <path d="M98.41,20.86c-5,0.54 -20,9.51 -27.86,14.43s-14.39,6.88 -19.47,7.12 -9.25,-2.06 -10.82,-4.57 0,-6 0,-6c-2.2,4.44 -2.58,7 -0.1,9.78 2.29,2.55 9.42,5.79 18.21,2.33 2.47,-1 5.68,-2.52 9.05,-4.28h0c2.7,-1.7 5.27,-2.6 7.82,-4.16 0,0 0.47,-0.23 0.47,-0.24C83.2,30.76 93.49,28 97.12,26.47c11.18,-4.77 8.5,-0.47 12.17,1h0.06c0,-0.25 0,-0.73 0,-1.37a7.75,7.75 0,0 0,-0.88 -2.79c-2,-3 -5.07,-3 -10,-2.46" fill="#000000" fill-opacity="1"/>
    <path d="M66,25.46c-2.08,-1.71 -8.72,-3.87 -11.82,-3.23a11.65,11.65 0,0 0,-4.51 2c-6.4,4.69 -15,10.53 -18.35,15.42 -5.39,7.76 0.49,14 8.06,10.73 2.79,-1.22 11.12,-5.22 21.21,-10l2,-1 0.49,-0.24 2.1,-1 0.1,0 2,-1c0.12,-0.06 1,-0.61 1.64,-1A2.25,2.25 0,0 0,70 34.8C70.91,30.66 68.4,27.45 66,25.46Z" fill="#000000" fill-opacity="1"/>
    <path d="M66.17,24.18c-2.1,-1.72 -8.77,-3.88 -11.88,-3.24a11.67,11.67 0,0 0,-4.53 2c-6.44,4.69 -15,10.53 -18.44,15.42 -5.41,7.76 0.49,14 8.1,10.73 2.8,-1.22 11.17,-5.22 21.3,-10l2,-1 0.49,-0.24 2.11,-1 0.1,0 2,-1c0.12,0 1,-0.61 1.65,-1a2.35,2.35 0,0 0,1.07 -1.4C71.11,29.37 68.59,26.16 66.17,24.18Z" fill="#827172" fill-opacity="1" fill-rule="evenodd"/>
    <path d="M54.28,20.83a11.65,11.65 0,0 0,-4.53 2c-6.43,4.69 -15,10.53 -18.44,15.42 -1.84,2.64 -3.06,6.31 -1.06,9.22 0.82,-1.77 1.38,-3.65 2.29,-5.37a29.33,29.33 0,0 1,3.94 -5.19c1.53,-1.79 3.07,-3.57 4.71,-5.26 1.07,-1.1 2.17,-2.16 3.33,-3.16l0.6,-0.5c1.09,-0.9 2.17,-1.8 3.24,-2.71a39.72,39.72 0,0 1,4.51 -3.57A5.78,5.78 0,0 1,54.28 20.83Z" fill="#9e8d8f" fill-opacity="1" fill-rule="evenodd"/>
    <path d="M38.14,39.9l-0.22,0 -3.13,-1.23c-0.3,-0.12 -0.42,-0.35 -0.27,-0.51a0.8,0.8 0,0 1,0.81 -0.08l3.13,1.23c0.3,0.11 0.42,0.34 0.27,0.5a0.67,0.67 0,0 1,-0.59 0.14" fill="#000000" fill-opacity="1"/>
    <path d="M55.6,28.74l-0.52,-0.16 0.52,-0.15c0.28,-0.07 0.4,-0.25 0.28,-0.39a0.77,0.77 0,0 0,-0.72 -0.11L54,28.26l-1.07,-0.33a0.68,0.68 0,0 0,-0.66 0.12c-0.12,0.14 0,0.32 0.25,0.39l0.4,0.12 -0.66,0.19c-0.27,0.07 -0.4,0.25 -0.27,0.39a0.88,0.88 0,0 0,0.71 0.11L54,28.89l1.2,0.36 0.19,0a0.59,0.59 0,0 0,0.48 -0.15c0.11,-0.14 0,-0.32 -0.26,-0.4" fill="#000000" fill-opacity="1"/>
    <g>
        <clipPath id="clip_1">
            <path d="M38.14,39.9l-0.22,0 -3.13,-1.23c-0.3,-0.12 -0.42,-0.35 -0.27,-0.51a0.8,0.8 0,0 1,0.81 -0.08l3.13,1.23c0.3,0.11 0.42,0.34 0.27,0.5a0.67,0.67 0,0 1,-0.59 0.14 M 0,0"/>
        </clipPath>
        <path d="M22.05 25.56H51.19V52.32H22.05z" clip-path="url(#clip_1)" fill="#6b6263" fill-opacity="1"/>
    </g>
    <g>
        <clipPath id="clip_1">
            <path d="M22.43,78.77a1.9,1.9 0,0 0,-0.74 -1.24H21c0.43,0 0.78,0.65 0.78,1.39s-0.38,1.39 -0.84,1.39l0.41,0 0.66,0.08a1.52,1.52 0,0 0,0.45 -1.67 M 0,0"/>
        </clipPath>
        <path d="M8.51 65.12H34.89V92.85000000000001H8.51z" clip-path="url(#clip_1)" fill="#aaaaaa" fill-opacity="1"/>
    </g>
    <g>
        <clipPath id="clip_1">
            <path d="M21,77.52h-0.11v0.12l0.12,-0.12 M 0,0"/>
        </clipPath>
        <path d="M8.45 65.12H33.379999999999995V90.04H8.45z" clip-path="url(#clip_1)" fill="#aaaaaa" fill-opacity="1"/>
    </g>
    <g>
        <clipPath id="clip_1">
            <path d="M21,77.53h-0.06c-0.46,0 -0.83,0.63 -0.83,1.4s0.37,1.39 0.83,1.39 0.84,-0.62 0.84,-1.39 -0.35,-1.34 -0.78,-1.39 M 0,0"/>
        </clipPath>
        <path d="M7.68 65.12H34.16V92.71000000000001H7.68z" clip-path="url(#clip_1)" fill="#ffffff" fill-opacity="1"/>
    </g>
    <g>
        <clipPath id="clip_1">
            <path d="M15.33,74.85c0,-0.73 -0.35,-1.32 -0.77,-1.32h0c-0.42,0 -0.75,0.6 -0.75,1.32s0.34,1.32 0.76,1.32h0.09l0,0c0.39,-0.06 0.7,-0.62 0.7,-1.31 M 0,0"/>
        </clipPath>
        <path d="M1.4 61.13H27.74V88.58H1.4z" clip-path="url(#clip_1)" fill="#ffffff" fill-opacity="1"/>
    </g>
    <g>
        <clipPath id="clip_1">
            <path d="M51,47.72l1.79,-0.95L51,47.72 M 0,0"/>
        </clipPath>
        <path d="M38.63 34.36H65.23V60.120000000000005H38.63z" clip-path="url(#clip_1)" fill="#c6b6c6" fill-opacity="1"/>
    </g>
    <g>
        <clipPath id="clip_1">
            <path d="M8.64,21.79H111.36V106.14H8.64z M 0,0"/>
        </clipPath>
        <path d="M110.46,28.55c-.5,-4.69,-5.22,-6.11,-16.54,-2.12,-1.57.55,-3.67,1.44,-6.14,2.57,-3.32,1.51,-7.32,3.46,-11.65,5.64h0c-2.58,1.3,-5.27,2.68,-8,4.1h0c-5.75,3,-11.67,6.1,-17,9,-9,4.77,-16.39,8.77,-18.88,10C25.43,61,20.2,54.74,25,47c3.3,-5.34,11.28,-12.14,17.06,-17C14.8,49.35,9.4,66.36,12.76,82.13c2.4,11.25,14.15,23.75,31.73,23.75s52.4,-24.66,52.8,-34.76c.16,-4.16,-1.93,-6.29,-4.83,-7.26,5.54,3.78,-.9,8.54,-16.35,18.81S51,93.55,47.27,91.65s-5.63,-7.46,-4,-11c0,0,1.94,-7.76,13.7,-14.61s36,-16.33,44,-22.83c7.69,-6.27,9.5,-10.84,9.62,-14,0,-.22,0,-.42,-.05,-.63" clip-path="url(#clip_1)" fill="#000000" fill-opacity="1"/>
    </g>
    <g>
        <clipPath id="clip_1">
            <path d="M14.65,76.18a0.55,0.55 0,0 0,0.42 0.16,0.44 0.44,0 0,0 0.26,-0.1Z M 0,0"/>
        </clipPath>
        <path d="M2.24 63.77H27.729999999999997V88.75H2.24z" clip-path="url(#clip_1)" fill="#3c3c3c" fill-opacity="1"/>
    </g>
    <g>
        <clipPath id="clip_1">
            <path d="M63.73,41l-1.92,1 1.92,-1 M 0,0"/>
        </clipPath>
        <path d="M49.41 28.61H76.14V54.42H49.41z" clip-path="url(#clip_1)" fill="#c6b6c6" fill-opacity="1"/>
    </g>
    <g>
        <clipPath id="clip_1">
            <path d="M47.27,91.65c3.73,1.9 13.4,1.29 28.85,-9S98,67.65 92.46,63.86c-4.15,-1.38 -10,-0.36 -13.26,0.58 -5.6,1.6 -32.31,15.75 -36,16.21 -1.6,3.54 0.3,9.09 4,11 M 0,0"/>
        </clipPath>
        <path d="M30.26 50.78H106.82000000000001V104.9H30.26z" clip-path="url(#clip_1)" fill="#cecece" fill-opacity="1"/>
    </g>
    <g>
        <clipPath id="clip_1">
            <path d="M21.2,77.42a0.49,0.49 0,0 0,-0.22 0.1h0.71a0.68,0.68 0,0 0,-0.49 -0.1 M 0,0"/>
        </clipPath>
        <path d="M8.58 65H34.1V89.93H8.58z" clip-path="url(#clip_1)" fill="#3c3c3c" fill-opacity="1"/>
    </g>
    <g>
        <clipPath id="clip_1">
            <path d="M14.85,73.4a0.51,0.51 0,0 0,-0.3 0.13h0.68a0.57,0.57 0,0 0,-0.38 -0.13 M 0,0"/>
        </clipPath>
        <path d="M2.14 60.99H27.63V85.94H2.14z" clip-path="url(#clip_1)" fill="#3c3c3c" fill-opacity="1"/>
    </g>
    <g>
        <clipPath id="clip_1">
            <path d="M15.78,74.81a1.78,1.78 0,0 0,-0.55 -1.28h-0.67c0.42,0 0.77,0.59 0.77,1.32s-0.31,1.25 -0.7,1.31c0,0 0,0 0,0l0.68,0.06a1.66,1.66 0,0 0,0.45 -1.43 M 0,0"/>
        </clipPath>
        <path d="M2.16 61.13H28.19V88.64H2.16z" clip-path="url(#clip_1)" fill="#aaaaaa" fill-opacity="1"/>
    </g>
    <g>
        <clipPath id="clip_1">
            <path d="M76.11,34.65h0 M 0,0"/>
        </clipPath>
        <path d="M63.71 22.24H88.53999999999999V47.06H63.71z" clip-path="url(#clip_1)" fill="#c6b6c6" fill-opacity="1"/>
    </g>
    <g>
        <clipPath id="clip_1">
            <path d="M55.13,45.54l-1.86,1 1.86,-1 M 0,0"/>
        </clipPath>
        <path d="M40.86 33.14H67.53V58.94H40.86z" clip-path="url(#clip_1)" fill="#c6b6c6" fill-opacity="1"/>
    </g>
    <g>
        <clipPath id="clip_1">
            <path d="M53.27,46.53l-0.44,0.24 0.44,-0.24 M 0,0"/>
        </clipPath>
        <path d="M40.42 34.13H65.67V59.17H40.42z" clip-path="url(#clip_1)" fill="#c6b6c6" fill-opacity="1"/>
    </g>
    <g>
        <clipPath id="clip_1">
            <path d="M68.07,38.76h0l-1.95,1 1.95,-1 M 0,0"/>
        </clipPath>
        <path d="M53.72 26.36H80.48V52.18H53.72z" clip-path="url(#clip_1)" fill="#c6b6c6" fill-opacity="1"/>
    </g>
    <g>
        <clipPath id="clip_1">
            <path d="M57,44.55l-1.79,1 1.79,-1 M 0,0"/>
        </clipPath>
        <path d="M42.82 32.14H69.42V57.900000000000006H42.82z" clip-path="url(#clip_1)" fill="#c6b6c6" fill-opacity="1"/>
    </g>
    <g>
        <clipPath id="clip_1">
            <path d="M98.41,20.86c-5,0.54 -20,9.51 -27.86,14.43s-14.39,6.88 -19.47,7.12 -9.25,-2.06 -10.82,-4.57 0,-6 0,-6c-2.2,4.44 -2.58,7 -0.1,9.78 2.29,2.55 9.42,5.79 18.21,2.33 2.47,-1 5.68,-2.52 9.05,-4.28h0c2.7,-1.7 5.27,-2.6 7.82,-4.16 0,0 0.47,-0.23 0.47,-0.24C83.2,30.76 93.49,28 97.12,26.47c11.18,-4.77 8.5,-0.47 12.17,1h0.06c0,-0.25 0,-0.73 0,-1.37a7.75,7.75 0,0 0,-0.88 -2.79c-2,-3 -5.07,-3 -10,-2.46 M 0,0"/>
        </clipPath>
        <path d="M26.19 5.74H121.61V60.34H26.19z" clip-path="url(#clip_1)" fill="#d8d8d8" fill-opacity="1"/>
    </g>
    <g>
        <clipPath id="clip_1">
            <path d="M61.81,42l-0.51,0.27 0.51,-0.27 M 0,0"/>
        </clipPath>
        <path d="M48.89 29.62H74.21000000000001V54.7H48.89z" clip-path="url(#clip_1)" fill="#c6b6c6" fill-opacity="1"/>
    </g>
    <g>
        <clipPath id="clip_1">
            <path d="M55.22,45.5l-0.09,0 0.09,0 M 0,0"/>
        </clipPath>
        <path d="M42.73 33.09H67.63V57.940000000000005H42.73z" clip-path="url(#clip_1)" fill="#c6b6c6" fill-opacity="1"/>
    </g>
    <g>
        <clipPath id="clip_1">
            <path d="M21.32,80.36a0.66,0.66 0,0 0,0.53 0.13l0.13,0Z M 0,0"/>
        </clipPath>
        <path d="M8.92 67.95H34.39V92.91H8.92z" clip-path="url(#clip_1)" fill="#3c3c3c" fill-opacity="1"/>
    </g>
    <g>
        <clipPath id="clip_1">
            <path d="M63.75,41h0 M 0,0"/>
        </clipPath>
        <path d="M51.33 28.61H76.15V53.42H51.33z" clip-path="url(#clip_1)" fill="#c6b6c6" fill-opacity="1"/>
    </g>
    <g>
        <clipPath id="clip_1">
            <path d="M61.3,42.29l-3.81,2 3.81,-2 M 0,0"/>
        </clipPath>
        <path d="M45.09 29.89H73.7V56.7H45.09z" clip-path="url(#clip_1)" fill="#c6b6c6" fill-opacity="1"/>
    </g>
    <g>
        <clipPath id="clip_1">
            <path d="M55.6,28.74l-0.52,-0.16 0.52,-0.15c0.28,-0.07 0.4,-0.25 0.28,-0.39a0.77,0.77 0,0 0,-0.72 -0.11L54,28.26l-1.07,-0.33a0.68,0.68 0,0 0,-0.66 0.12c-0.12,0.14 0,0.32 0.25,0.39l0.4,0.12 -0.66,0.19c-0.27,0.07 -0.4,0.25 -0.27,0.39a0.88,0.88 0,0 0,0.71 0.11L54,28.89l1.2,0.36 0.19,0a0.59,0.59 0,0 0,0.48 -0.15c0.11,-0.14 0,-0.32 -0.26,-0.4 M 0,0"/>
        </clipPath>
        <path d="M39.53 15.49H68.33V41.69H39.53z" clip-path="url(#clip_1)" fill="#6b6263" fill-opacity="1"/>
    </g>
    <g>
        <clipPath id="clip_1">
            <path d="M65.67,40l-1.92,1 1.92,-1 M 0,0"/>
        </clipPath>
        <path d="M51.34 27.6H78.08V53.41H51.34z" clip-path="url(#clip_1)" fill="#c6b6c6" fill-opacity="1"/>
    </g>
    <g>
        <clipPath id="clip_1">
            <path d="M56.52,44.06c-8.91,2.9 -16.13,0.19 -18.44,-1.94 -2.51,-2.33 -2.13,-4.47 0.1,-8.18a18.52,18.52 0,0 1,2.29 -2.81l-0.81,0.55c-5.78,4.88 -12.76,11.68 -16.06,17 -4.79,7.76 -0.57,14 6.17,10.73 2.48,-1.22 9.89,-5.22 18.87,-10l1.79,-1 0.44,-0.24 1.87,-1 0.08,-0.05 1.79,-0.95 0.48,-0.25 3.81,-2 0.51,-0.27 1.92,-1h0l1.92,-1 0.45,-0.24 2,-1C62.26,42 59,43.25 56.52,44.06 M 0,0"/>
        </clipPath>
        <path d="M9.14 18.72H78.07000000000001V72.75H9.14z" clip-path="url(#clip_1)" fill="#d8d8d8" fill-opacity="1"/>
    </g>
    <g>
        <clipPath id="clip_1">
            <path d="M66.12,39.77l-0.45,0.24 0.45,-0.24 M 0,0"/>
        </clipPath>
        <path d="M53.27 27.37H78.53V52.41H53.27z" clip-path="url(#clip_1)" fill="#c6b6c6" fill-opacity="1"/>
    </g>
    <g>
        <clipPath id="clip_1">
            <path d="M57.49,44.29l-0.48,0.26 0.48,-0.26 M 0,0"/>
        </clipPath>
        <path d="M44.61 31.89H69.9V56.95H44.61z" clip-path="url(#clip_1)" fill="#c6b6c6" fill-opacity="1"/>
    </g>
    <g>
        <clipPath id="clip_1">
            <path d="M68.1,38.74c2.73,-1.41 5.43,-2.79 8,-4.09 -2.59,1.3 -5.29,2.68 -8,4.09 M 0,0"/>
        </clipPath>
        <path d="M55.7 22.24H88.52000000000001V51.14H55.7z" clip-path="url(#clip_1)" fill="#c6b6c6" fill-opacity="1"/>
    </g>
    <g>
        <clipPath id="clip_1">
            <path d="M68.07,38.76h0l0,0 0,0 M 0,0"/>
        </clipPath>
        <path d="M55.67 26.34H80.51V51.16H55.67z" clip-path="url(#clip_1)" fill="#c6b6c6" fill-opacity="1"/>
    </g>
</svg>