<svg xmlns="http://www.w3.org/2000/svg" width="120.0" height="120.0" viewBox="0 0 120.0 120.0">
    <path d="M100.55,54.43l1,0.27c2.37,0.55 4.87,0.5 7.13,1.47a2.77,2.77 0,0 1,0.78 0.46,1.15 1.15,0 0,1 0.33,1.54 32.69,32.69 0,0 1,-3.17 5,30.91 30.91,0 0,1 -2.35,2.65 25.89,25.89 0,0 1,-7.79 5.29,34.11 34.11,0 0,1 -5.63,2 37.11,37.11 0,0 1,-14.71 0.81c-3.08,-0.52 -6.16,-1.64 -9.32,-1.25a16.52,16.52 0,0 0,-3.72 1A62.09,62.09 0,0 0,51 80.21c-2.83,1.74 -5.69,3.46 -8.6,5.07 -2.32,1.28 -4.64,2.55 -7.08,3.6a20.8,20.8 0,0 1,-5.73 1.65,15.74 15.74,0 0,1 -8.22,-1.18 17.1,17.1 0,0 1,-5.85 -4.21,21.84 21.84,0 0,1 -3,-4.2 28.37,28.37 0,0 1,-2.43 -6,2.77 2.77,0 0,1 0.21,-2.11 7.6,7.6 0,0 1,1.27 -1.71c3.68,-3.8 8.6,-6.64 12.8,-9.85A74.64,74.64 0,0 0,38.22 47.93c1.81,-2.33 3.53,-4.72 5.38,-7q1.55,-1.93 3.22,-3.75a24,24 0,0 1,10.42 -6.77,22.62 22.62,0 0,1 2.29,-0.59A20.73,20.73 0,0 1,72.46 31.2,24.73 24.73,0 0,1 79.8,37c0.74,0.82 1.49,1.63 2.22,2.45s1.35,1.56 2,2.34c1.79,2.07 3.57,4.14 5.46,6.12a28,28 0,0 0,5.65 4.2A21,21 0,0 0,100.55 54.43ZM59.78,41.33a12.61,12.61 0,0 0,0.2 2.3,7.84 7.84,0 0,0 1.41,3.5 12.12,12.12 0,0 0,2.84 2.65,13.05 13.05,0 0,0 1.43,0.88c0.16,0.08 0.26,0.05 0.3,-0.13l0.09,-0.3a17.17,17.17 0,0 0,0.51 -3.9,18.92 18.92,0 0,0 -0.26,-3.44 16.17,16.17 0,0 0,-2.2 -6.15,8.4 8.4,0 0,0 -1.89,-2.18c-0.27,-0.21 -0.3,-0.21 -0.5,0.07A9.35,9.35 0,0 0,60.92 36,13.43 13.43,0 0,0 59.78,41.33Z" fill="#3acccc" fill-opacity="1"/>
    <path d="M104.35,65.83a25.91,25.91 0,0 1,-7.8 5.3,34.33 34.33,0 0,1 -5.62,2A37.27,37.27 0,0 1,86 74.1,35 35,0 0,1 76.21,74c-3.08,-0.51 -6.16,-1.63 -9.32,-1.24a16.66,16.66 0,0 0,-3.72 1,41.64 41.64,0 0,0 3.91,-2.34c2.48,-1.8 4.64,-4 7.1,-5.83a13.53,13.53 0,0 1,9.24 -2.72,29.69 29.69,0 0,1 4.6,0.9L92.92,65a55.51,55.51 0,0 0,6.5 1.34,15.29 15.29,0 0,0 2.53,0.16 3.41,3.41 0,0 0,1.18 -0.17C103.54,66.17 103.94,66 104.35,65.83Z" fill="#129b9b" fill-opacity="1"/>
    <path d="M106.91,56.94a26.66,26.66 0,0 1,-14.7 -6c-1.4,-1.22 -2.31,-2.74 -3.58,-4 1.5,1 2.67,2.41 4,3.42a40.66,40.66 0,0 0,4.47 2.72A52.24,52.24 0,0 0,106.91 56.94Z" fill="#60efeb" fill-opacity="1"/>
    <path d="M56.8,32.43a13,13 0,0 1,3.51 0.65,6.43 6.43,0 0,1 1,0.44 5.89,5.89 0,0 1,1.91 1.66,20.94 20.94,0 0,1 2.44,5 19.49,19.49 0,0 1,0.9 5.37c0.36,3.42 0.14,6.69 -1.66,9.77A33.19,33.19 0,0 1,54.83 65.75a66.23,66.23 0,0 1,-21.37 9.1,56.34 56.34,0 0,1 -10,1.53 47.88,47.88 0,0 1,-6.56 0A12.41,12.41 0,0 1,11 74.87a1.59,1.59 0,0 1,-0.54 -0.49,1.39 1.39,0 0,1 -0.15,-0.94 4.59,4.59 0,0 1,1.25 -2.32c3.68,-3.81 8.61,-6.65 12.81,-9.86A74.58,74.58 0,0 0,38.22 47.92c2.59,-3.33 5.05,-6.72 7.85,-9.88l0.21,-0.24a24.85,24.85 0,0 1,3.47 -3.41,9.93 9.93,0 0,1 5,-1.92A12.52,12.52 0,0 1,56.8 32.43ZM59.8,41.32a11.72,11.72 0,0 0,0.21 2.3,7.79 7.79,0 0,0 1.4,3.51 12.55,12.55 0,0 0,2.84 2.65,16 16,0 0,0 1.43,0.87c0.16,0.09 0.26,0.05 0.31,-0.12s0.06,-0.21 0.08,-0.31a17.17,17.17 0,0 0,0.51 -3.9,18.74 18.74,0 0,0 -0.26,-3.43 16.05,16.05 0,0 0,-2.2 -6.15,8.25 8.25,0 0,0 -1.89,-2.19c-0.27,-0.21 -0.3,-0.21 -0.49,0.07a9,9 0,0 0,-0.8 1.38A13.38,13.38 0,0 0,59.78 41.32Z" fill="#26b5bd" fill-opacity="1"/>
    <path d="M100.63,54.81l1.56,0.31c0.36,0.07 0.73,0.1 1.1,0.15l1.46,0.19c1,0.14 1.94,0.31 2.9,0.53a7.26,7.26 0,0 1,1 0.32l0.44,0.2a1.05,1.05 0,0 1,0.37 0.25,0.28 0.28,0 0,1 0.07,0.17 0.22,0.22 0,0 1,0 0.17,0.27 0.27,0 0,1 -0.14,0.07 3.84,3.84 0,0 1,-1.9 -0.11c-1,-0.2 -1.89,-0.46 -2.82,-0.73a20.23,20.23 0,0 1,-2.64 -0.95l-0.33,-0.14Z" fill="#26b5bd" fill-opacity="1"/>
    <path d="M40.91,47.58c-0.42,0.26 -0.83,0.53 -1.24,0.8A17.91,17.91 0,0 1,36 50.67s2.47,-3 2.3,-2.77c2.53,-3.34 5,-6.72 7.82,-9.86l0.21,-0.24a24.85,24.85 0,0 1,3.47 -3.41,9.93 9.93,0 0,1 5,-1.92 12.52,12.52 0,0 1,2 0,13 13,0 0,1 3.51,0.65 6.43,6.43 0,0 1,1 0.44,5.89 5.89,0 0,1 1.91,1.66 20.94,20.94 0,0 1,2.44 5,19.49 19.49,0 0,1 0.9,5.37 19.35,19.35 0,0 1,-0.11 5.54,10.78 10.78,0 0,0 -1.36,-0.74 12.91,12.91 0,0 1,-3 -2.38A8.07,8.07 0,0 1,59.89 43c-0.12,-0.87 -1.3,-1.16 -2,-1.32 -5.07,-1.18 -10,1.7 -14.25,4.2C42.72,46.43 41.81,47 40.91,47.58ZM59.78,41.32a11.72,11.72 0,0 0,0.21 2.3,7.79 7.79,0 0,0 1.4,3.51 12.55,12.55 0,0 0,2.84 2.65,16 16,0 0,0 1.43,0.87c0.16,0.09 0.26,0.05 0.31,-0.12s0.06,-0.21 0.08,-0.31a17.17,17.17 0,0 0,0.51 -3.9,18.74 18.74,0 0,0 -0.26,-3.43 16.05,16.05 0,0 0,-2.2 -6.15,8.25 8.25,0 0,0 -1.89,-2.19c-0.27,-0.21 -0.3,-0.21 -0.49,0.07a9,9 0,0 0,-0.8 1.38A13.38,13.38 0,0 0,59.78 41.32Z" fill="#17aaaa" fill-opacity="1"/>
    <path d="M12.22,75.59A47,47 0,0 0,23.14 76,56.59 56.59,0 0,0 33.87,74.1a66.09,66.09 0,0 0,19.89 -8.65,35.14 35.14,0 0,0 8.05,-7.18 24.91,24.91 0,0 0,3 -4.5,17.84 17.84,0 0,0 1.61,-5.1 16.85,16.85 0,0 0,-0.06 -5.35,20.58 20.58,0 0,0 -1.69,-5.13 10.59,10.59 0,0 0,-3.12 -4.33,8.8 8.8,0 0,0 -5.13,-1.5 8.71,8.71 0,0 1,5.28 1.29A11.11,11.11 0,0 1,65.05 38a21.2,21.2 0,0 1,1.85 5.22,17.64 17.64,0 0,1 0.19,5.57 17.29,17.29 0,0 1,-1.59 5.35,25.75 25.75,0 0,1 -3,4.68 36,36 0,0 1,-8.2 7.43A64.92,64.92 0,0 1,34.05 74.8a57.31,57.31 0,0 1,-10.89 1.64A44.07,44.07 0,0 1,12.22 75.59Z" fill="#60efeb" fill-opacity="1"/>
    <path d="M-139.38,-108.53H728.09V565.48H-139.38z" fill="#000000" fill-opacity="0" stroke="#3299fe" stroke-opacity="1" stroke-width="19.72"/>
</svg>