<svg xmlns="http://www.w3.org/2000/svg" width="120.0" height="120.0" viewBox="0 0 120.0 120.0">
    <path d="M45.06,100.78c7.82,-3.33 8.73,-11.49 16.13,-19.41 6.62,-7.09 11.66,-8.93 14.7,-9.48a13.2,13.2 0,0 1,6.18 0.44,27.34 27.34,0 0,1 4.15,2.43c1.27,1 4.32,3.11 5,6.91 0.73,4.2 0.73,13.26 -7.65,21.16 -8.72,8.23 -28.56,13.59 -43.75,6.3S24.06,72.06 37.93,52.45c12.27,-17.34 14.73,-21 19.12,-27.85 4.49,-7.06 11,-12.34 15.52,-14.58 5.15,-2.56 13.26,-3.65 16.8,-1.24s5.38,9.77 -8.29,18.14 -20.38,7.14 -33,21.55c-9.61,11 -13.84,23.86 -14.38,32.94C33.11,91.67 36.58,104.4 45.06,100.78Z" fill="#f33921" fill-opacity="1"/>
    <path d="M59.66,25.35s4.49,-7.84 9.49,-9.16c4.55,-1.2 4.72,2.45 -0.71,6.84L63,27.42s9.26,-3.62 12,-8 -1.77,-5.47 -4.08,-5.13S64.59,16.15 59.66,25.35Z" fill="#ff5555" fill-opacity="1"/>
    <path d="M88.89,8.49c1.43,0.74 3.5,5 -5.41,11.15s-22.29,13.16 -29,19.5c-6.29,6 -7.69,9.58 -7.69,9.58s7.75,-10.45 24.1,-18.9C86.09,22 91.21,17.05 91.69,12.71 92,9.86 88.89,8.49 88.89,8.49Z" fill="#e72d1f" fill-opacity="1"/>
    <path d="M88.89,8.49s3.11,1.37 2.8,4.22c-0.48,4.34 -5.6,9.28 -20.76,17.11 -16.35,8.45 -24.1,18.9 -24.1,18.9S56.58,39.14 63.11,36 80.9,27.69 85.55,23.81s5.77,-6.5 6.32,-9.11S91.68,10 88.89,8.49Z" fill="#d00505" fill-opacity="1"/>
    <path d="M82.07,72.33S86.17,80.1 77.82,89s-17.09,14 -31.45,15.13a13.65,13.65 0,0 1,-6.11 -0.59s4.83,3.07 14,1.91S77.15,99.1 84.17,89.4c6.65,-9.17 3.23,-13.68 3.23,-13.68S83.65,72.73 82.07,72.33Z" fill="#e72d1f" fill-opacity="1"/>
    <path d="M40.26,103.55s4.65,3.09 13.82,1.93S77.15,99.1 84.17,89.4c6.65,-9.17 3.23,-13.68 3.23,-13.68s2.88,2.08 3.25,4.09 2,8.47 -7.5,17.18S57.08,107.7 50.64,107.37C43.58,107 40.26,103.55 40.26,103.55Z" fill="#d00505" fill-opacity="1"/>
    <path d="M40.4,103.63s3.29,3.31 10,3.73c6,0.37 23.2,-1.67 32.73,-10.37S91,81.82 90.65,79.81c0,0 1.4,4.52 0.69,8.09s-0.83,4 -0.83,4 -4.08,10 -16.88,14.34C61.41,110.43 46.17,111.09 40.4,103.63Z" fill="#e72d1f" fill-opacity="1"/>
    <path d="M40.4,103.63S50,114 73.63,106.24A28.32,28.32 0,0 0,90.51 91.9,27.83 27.83,0 0,1 72.9,109.29C58,114.21 45.59,111.14 40.4,103.63Z" fill="#d00505" fill-opacity="1"/>
</svg>