<svg xmlns="http://www.w3.org/2000/svg" width="120.0" height="120.0" viewBox="0 0 120.0 120.0">
    <path d="M105.9,16.62S76.41,-0.56 46.75,35.25 12.83,84.63 12.83,84.63 7.45,99.27 21,105.55c9.34,4.33 15.28,-1.25 15.28,-1.25s9,-2.24 14.05,-13.77c3.52,-8.06 5.47,-19.09 5.47,-19.09s2,-16.82 21.36,-24.66c19.7,-8 25.65,-15.52 25.65,-15.52A10.61,10.61 0,0 0,108 24.1,7.66 7.66,0 0,0 105.9,16.62Z" fill="#a56174" fill-opacity="1"/>
    <path d="M49.61,93.54c-15.13,21.1 -28.58,12 -28.58,12S26.66,74 62.8,51.09a53.05,53.05 0,0 1,11.25 -5.68c7.06,-2.65 15.3,-6.83 19.35,-9.71s14,-8.94 14.19,-16L108,24.1c-0.28,5.46 -14.27,17.76 -31.46,23.52S56.33,72 56.33,72C52.93,90.06 49.61,93.54 49.61,93.54Z" fill="#875061" fill-opacity="1"/>
    <path d="M52.054,37.868a10.43,24.75 66.58,1 0,45.422 -19.675a10.43,24.75 66.58,1 0,-45.422 19.675z" fill="#000000" fill-opacity="0" stroke="#875061" stroke-opacity="1" stroke-width="1.0"/>
    <path d="M52.128,36.854a10.43,24.12 66.58,1 0,44.266 -19.174a10.43,24.12 66.58,1 0,-44.266 19.174z" fill="#000000" fill-opacity="0" stroke="#875061" stroke-opacity="1" stroke-width="1.0"/>
    <path d="M70.23,18C58.34,23.12 50.51,31.46 52.73,36.6s9.16,-5.9 21.05,-11S98,23.09 95.79,18 82.12,12.82 70.23,18Z" fill="#aa687e" fill-opacity="1"/>
    <path d="M40.629,56.243a2.27,5.25 47.24,1 0,7.709 -7.129a2.27,5.25 47.24,1 0,-7.709 7.129z" fill="#b76e86" fill-opacity="1"/>
    <path d="M18.573,102.62a0.52,1.24 122.43,1 0,0.558 -0.878a0.52,1.24 122.43,1 0,-0.558 0.878z" fill="#ffffff" fill-opacity="1"/>
    <path d="M-92.96,-2337.05H1441.83V1843.09H-92.96z" fill="#000000" fill-opacity="0" stroke="#ffffff" stroke-opacity="1" stroke-width="5.0"/>
</svg>