<svg xmlns="http://www.w3.org/2000/svg" width="120.0" height="120.0" viewBox="0 0 120.0 120.0">
    <path d="M46.25,28.45c-2.84,7.36 -0.49,16.46 1.24,24.49 1.32,6.07 -1.15,9.68 -3.56,12 -4.62,4.44 -12.31,0.06 -18.51,8.58a9,9 0,0 0,3.74 13.74,31.55 31.55,0 0,0 13.3,2c-1.75,0.24 -3.55,0.42 -5.39,0.53 -11.68,0.68 -17,-5.38 -18.29,-11.83C24.69,62.86 36,67.89 42,63.69 45.94,60.93 47,57 45.21,51c-3,-10.11 -4.58,-16.81 0.5,-26.12 1.54,-2.83 3.44,-4.57 5.32,-5C50.31,20.46 48.59,22.38 46.25,28.45Z" fill="#49606c" fill-opacity="1"/>
    <path d="M28.32,74.89c-2.14,2.28 0,6.91 4,8.66A7.65,7.65 0,0 1,28.32 74.89Z" fill="#4b585f" fill-opacity="1"/>
    <path d="M67,64.27h0c-0.49,0.08 -0.9,0.14 -1.23,0.17 -0.52,0 -1,0.06 -1.49,0C43.84,65.68 53.57,48 53.64,35.65c0,-7.22 -0.59,-12.63 -2.59,-15.75l0,0 0,0c-0.73,0.6 -2.44,2.54 -4.76,8.56 -2.84,7.37 -0.49,16.47 1.24,24.49 1.32,6.08 -1.15,9.68 -3.56,12 -4.62,4.43 -12.3,0.06 -18.51,8.57a9,9 0,0 0,3.74 13.75,31.6 31.6,0 0,0 13.3,2h0c27.76,-3.8 44.16,-23.08 53.41,-23.54C85,60 72.05,63.39 67,64.27ZM76.87,70.13C68.49,81 39.73,86.72 32.36,83.55a4.44,4.44 0,0 1,-0.49 -0.24c-3.72,-1.88 -5.6,-6.22 -3.55,-8.41 0,0 0,0 0,0 1.13,-1.19 3.44,-1.73 7.28,-0.86 10.07,2.3 22.3,-0.09 33.77,-4.55L70.65,69C76.86,66.48 79.39,66.8 76.82,70.13Z" fill="#627e8b" fill-opacity="1"/>
    <path d="M64.2,64.49C43.84,65.68 53.57,48 53.64,35.65c0,-7.22 -0.59,-12.63 -2.59,-15.75 2.24,0.69 5.05,5.08 5.84,10.23 0,0.32 0.1,0.64 0.14,0.95 1.28,10.13 -2.47,15.15 -3.27,19.86 -1.22,7.15 2.33,11.72 5.54,12.71l0.3,0.09 0.13,0a3,3 0,0 0,0.51 0.08h0.06A10.93,10.93 0,0 0,64.2 64.49Z" fill="#7a98ab" fill-opacity="1"/>
    <path d="M96.77,66C81.88,70.54 67.11,93.1 40.28,95.87a23.41,23.41 0,0 1,-10.89 -2.69l-0.07,0c-0.73,-0.45 -1.46,-0.94 -2.2,-1.44l-0.06,0s-7.2,-4.59 -8.44,-12.45a1.7,1.7 0,0 1,0.16 -1.28C20,84.37 25.39,90.43 37.07,89.75c1.84,-0.11 3.64,-0.29 5.39,-0.53h0c27.76,-3.81 44.16,-23.08 53.41,-23.54C96.2,65.79 96.49,65.91 96.77,66Z" fill="#96b5c1" fill-opacity="1"/>
    <path d="M98.18,66.71c-10.43,3.47 -21,15.67 -35.64,23.38h0A146.24,146.24 0,0 1,48 95a29.93,29.93 0,0 1,-7.71 0.91C67.11,93.1 81.88,70.54 96.77,66A13.26,13.26 0,0 1,98.18 66.71Z" fill="#41545b" fill-opacity="1"/>
    <path d="M101.43,71.79c-2,-3.53 -17,7.67 -28.32,14.22h0C69.57,87.39 66,88.8 62.54,90.09c14.63,-7.71 25.21,-19.91 35.64,-23.38C100.66,68.12 101.54,69.88 101.43,71.79Z" fill="#96b5c1" fill-opacity="1"/>
    <path d="M96.81,80.37a1.49,1.49 0,0 0,-0.13 -2c-1.31,-1.11 -12,3.09 -23.57,7.59 11.35,-6.55 26.31,-17.75 28.32,-14.22C101.29,74.52 99.13,77.57 96.81,80.37Z" fill="#41545b" fill-opacity="1"/>
    <path d="M96.81,80.37l0,0c-11.2,13.49 -39.26,29 -67.4,12.78a23.41,23.41 0,0 0,10.89 2.69A29.93,29.93 0,0 0,48 95,146.24 146.24,0 0,0 62.51,90.1h0c3.43,-1.29 7,-2.7 10.55,-4.07h0c11.55,-4.5 22.26,-8.7 23.57,-7.59A1.49,1.49 0,0 1,96.81 80.37Z" fill="#49606c" fill-opacity="1"/>
    <path d="M76.82,70.13C68.49,81 39.73,86.72 32.35,83.55c-4,-1.75 -6.17,-6.38 -4,-8.66h0c1.13,-1.19 3.44,-1.73 7.28,-0.86 10.07,2.29 22.3,-0.09 33.77,-4.55l1.27,-0.5C76.86,66.48 79.39,66.8 76.82,70.13Z" fill="#7a98ab" fill-opacity="1"/>
    <path d="M60.24,63.84a3,3 0,0 1,-0.51 -0.08l-0.13,0 -0.3,-0.09c-3.21,-1 -6.76,-5.56 -5.54,-12.71 0.8,-4.71 4.55,-9.73 3.27,-19.86 0,-0.31 -0.09,-0.63 -0.14,-0.95 -0.79,-5.15 -3.6,-9.54 -5.84,-10.23l0,0a6.3,6.3 0,0 1,5.49 3.47c7.31,13.3 1.12,22.32 0,27.3A25,25 0,0 0,56 56.9c0.1,3.4 1.42,5.84 4.27,6.93Z" fill="#49606c" fill-opacity="1"/>
    <path d="M51.05,19.9h0Z" fill="#49606c" fill-opacity="1"/>
    <path d="M-132.03,-763.88H756.11V245.41H-132.03z" fill="#000000" fill-opacity="0" stroke="#3299fe" stroke-opacity="1" stroke-width="16.87"/>
</svg>