<svg xmlns="http://www.w3.org/2000/svg" width="120.0" height="120.0" viewBox="0 0 120.0 120.0">
    <path d="M66.88,106.29c-2.68,-2.53 -5.29,-1.37 -7.71,0.07a52.71,52.71 0,0 0,-5.17 4c-5.73,4.47 -11.23,4.41 -17.23,0.32 -7.22,-4.92 -12.23,-11.14 -12.92,-20.2A14.12,14.12 0,0 1,26 81.25c2.72,-4.08 5.54,-4.47 9.19,-1.26 5.55,4.88 10,3.33 11.65,-4.19a36.15,36.15 0,0 0,0.84 -7.25c0.09,-6.61 2.92,-11.74 8.49,-15.06s8,-7.79 8.12,-14.19c0.06,-4.59 2.47,-8.3 6.29,-10.95A16.41,16.41 0,0 0,78.13 16,12.49 12.49,0 0,1 84.58,6C90.24,2.84 96,6.21 96.2,12.7a12.44,12.44 0,0 1,-4.74 10.53c-4.32,3.41 -5.71,7.76 -5.52,12.86a14.05,14.05 0,0 1,-6.07 12.63c-4.82,3.44 -6.39,8 -6,13.67 0.46,6.31 -1.63,11.58 -6.82,15.5a46.08,46.08 0,0 0,-5.26 4.5c-6,6.12 -5,14.35 2.12,19C66.77,103.19 66.77,103.19 66.88,106.29Z" fill="#34915a" fill-opacity="1"/>
    <path d="M35.14,80a7.37,7.37 0,0 0,-3.65 -2A4.71,4.71 0,0 0,30 77.85a2.61,2.61 0,0 0,-1.41 0.59,2.73 2.73,0 0,0 -0.8,1.36 5.19,5.19 0,0 0,0 2.32,0.58 0.58,0 0,0 1,0.24c0.42,-0.56 0.71,-1.49 1.32,-1.85a5.93,5.93 0,0 1,2.39 -0.76,6.28 6.28,0 0,1 1.3,0l0.71,0.1 0.33,0.05C34.87,79.91 35.1,79.91 35.14,80Z" fill="#287547" fill-opacity="1"/>
    <path d="M52.68,104.84A91.46,91.46 0,0 1,42.37 99C37,95.43 31,90.62 29.21,84.1" fill="#000000" fill-opacity="0" stroke="#287547" stroke-opacity="1" stroke-width="0.54" stoke-linecap="round" stoke-linejoin="round"/>
    <path d="M42.73,113.53c0.17,0 0.35,0.11 0.53,0.15 0.47,0.13 0.94,0.22 1.41,0.35l0.69,0.17 0.69,0.17 0.13,0c0.35,0.09 0.7,0.21 1,0.29a21.23,21.23 0,0 0,10.56 -0.35,20 20,0 0,0 3.82,-1.45 13,13 0,0 0,4.08 -3.14c0.69,-0.82 1.59,-2 1.22,-3.15a2.09,2.09 0,0 0,-1 -1.12,5 5,0 0,0 -3,-0.65 9.85,9.85 0,0 0,-3.77 1.53,52.71 52.71,0 0,0 -5.17,4l-0.47,0.36 -0.47,0.34 -0.47,0.32 -0.47,0.29 -0.47,0.28 -0.47,0.26 -0.47,0.23 -0.47,0.22 -0.47,0.2 -0.47,0.17 -0.46,0.16 -0.47,0.13a4.05,4.05 0,0 1,-0.47 0.12l-0.47,0.1 -0.46,0.07 -0.47,0.06 -0.47,0 -0.47,0h-0.47l-0.47,0 -0.47,0a3.55,3.55 0,0 1,-0.47 -0.06,4.85 4.85,0 0,1 -0.55,-0.09c-0.23,0 -0.45,-0.09 -0.67,-0.15s-0.44,-0.12 -0.66,-0.18l-0.54,-0.17C41.75,113.18 42.23,113.37 42.73,113.53Z" fill="#e4e0da" fill-opacity="1"/>
    <path d="M56,90c-0.41,5 1.64,6.92 1.48,7.23s-1.59,-0.54 -2.81,-2.27 -1.42,-4.7 -0.08,-7.52C56.32,83.7 60,79.61 60.37,80S56.34,85.43 56,90Z" fill="#000000" fill-opacity="0.3"/>
    <path d="M65.51,72.43c-4.8,2.87 -8.6,1.89 -8.77,2.18s2,1.24 4.86,1.53a8.41,8.41 0,0 0,7.82 -3.65c2.21,-3.48 3.09,-9 2.36,-9.12C70.86,63.22 69.84,69.84 65.51,72.43Z" fill="#000000" fill-opacity="0.3"/>
    <path d="M79.24,44.37c-4,2.35 -7.26,1.51 -7.4,1.75s1.69,1 4.12,1.3a7,7 0,0 0,6.58 -3c1.85,-2.86 2.55,-7.43 1.93,-7.54C83.69,36.78 82.88,42.26 79.24,44.37Z" fill="#000000" fill-opacity="0.3"/>
    <path d="M90.48,19.48c-3.35,2.18 -6,1.54 -6.08,1.76s1.35,0.86 3.32,1a6,6 0,0 0,5.45 -2.81c1.59,-2.58 2.3,-6.62 1.8,-6.7S93.51,17.51 90.48,19.48Z" fill="#000000" fill-opacity="0.3"/>
    <path d="M77.79,18.22c-0.06,0.27 -0.14,0.54 -0.21,0.8a15.24,15.24 0,0 1,-1.09 2.73c-0.44,0.88 -1,1.68 -1.54,2.52 0,-0.06 0.18,-0.06 0.24,-0.07 0.46,-0.07 0.93,-0.08 1.4,-0.16a11.38,11.38 0,0 0,4.46 -1.85c0.26,-0.17 0.52,-0.36 0.77,-0.56a2.44,2.44 0,0 0,0.64 -0.6c0.28,-0.31 -2,-0.84 -2.94,-1.48A4.38,4.38 0,0 1,78 17.23a2.58,2.58 0,0 0,-0.14 0.83Z" fill="#000000" fill-opacity="1"/>
    <path d="M64,42.61c-0.08,0.34 -0.18,0.69 -0.28,1a18.63,18.63 0,0 1,-1.38 3.49c-0.57,1.12 -1.33,2.14 -2,3.21 0,-0.07 0.23,-0.07 0.31,-0.08 0.59,-0.09 1.19,-0.11 1.78,-0.21a14.65,14.65 0,0 0,5.7 -2.35c0.34,-0.23 0.67,-0.47 1,-0.72A3,3 0,0 0,70 46.2c0.36,-0.39 -2.51,-1.08 -3.75,-1.89a5.6,5.6 0,0 1,-2 -3A3.47,3.47 0,0 0,64 42.41C64,42.48 64,42.54 64,42.61Z" fill="#000000" fill-opacity="1"/>
    <path d="M47.41,72.18c-0.11,1.07 -0.29,2.14 -0.49,3.19A14.86,14.86 0,0 1,46 78.45a25.39,25.39 0,0 1,-1.62 2.75c0.1,-0.17 0.45,-0.26 0.62,-0.36l0.75,-0.42c0.5,-0.28 1,-0.57 1.48,-0.86 1,-0.59 1.94,-1.21 2.9,-1.84s1.73,-1.25 2.62,-1.83c0.26,-0.17 0.35,-0.4 0.55,-0.63 0.37,-0.38 -2.5,-1.07 -3.74,-1.88a5.54,5.54 0,0 1,-2 -3,1.44 1.44,0 0,1 -0.08,0.25 2.19,2.19 0,0 0,0 0.36c0,0.2 0,0.41 0,0.61S47.43,72 47.41,72.18Z" fill="#000000" fill-opacity="1"/>
    <path d="M33.38,101.14a2.2,2.2 0,0 1,-0.5 -1.55,1.77 1.77,0 0,1 1.62,-1.87 2,2 0,0 1,-0.18 3.89,1.38 1.38,0 0,1 -0.39,-0.09" fill="#000000" fill-opacity="1" stroke="#287547" stroke-opacity="1" stroke-width="1.0" stoke-linecap="round"/>
    <path d="M34.349,100.995a1.32,1.04 92.6,1 0,0.12 -2.637a1.32,1.04 92.6,1 0,-0.12 2.637z" fill="#000000" fill-opacity="1" stroke="#287547" stroke-opacity="1" stroke-width="1.0" stoke-linecap="round"/>
    <path d="M33.28,102.04L33.68,101.25" fill="#000000" fill-opacity="1" stroke="#287547" stroke-opacity="1" stroke-width="1.0" stoke-linecap="round"/>
    <path d="M33.13,101.5a2.66,2.66 0,0 1,-0.63 -1.92,2.22 2.22,0 0,1 2,-2.34 2.5,2.5 0,0 1,-0.22 4.85,1.66 1.66,0 0,1 -0.49,-0.11" fill="#000000" fill-opacity="1" stroke="#287547" stroke-opacity="1" stroke-width="1.0" stoke-linecap="round"/>
    <path d="M-127.87,-781.21H739.6V2858.73H-127.87z" fill="#000000" fill-opacity="0" stroke="#3299fe" stroke-opacity="1" stroke-width="24.22"/>
</svg>