<svg xmlns="http://www.w3.org/2000/svg" width="120.0" height="120.0" viewBox="0 0 120.0 120.0">
    <path d="M32.9,88.57C34.76,90.92 36,93.46 35,96.14l-2,3.77a89.23,89.23 0,0 0,-4.08 8.38,5.34 5.34,0 0,0 0.53,3.5c-3.74,1 -7.53,-0.16 -8.72,-4.25 -1.47,-5 0.06,-10.57 2.28,-16 0.71,-1.72 2.92,-6.33 4.94,-6.32a5.64,5.64 0,0 1,3.26 1.58C31.76,87.4 32.33,88 32.9,88.57Z" fill="#394156" fill-opacity="1" fill-rule="evenodd"/>
    <path d="M95.23,11.63a8.87,8.87 0,0 1,1.88 5.12c0.06,5.24 -2.61,10.33 -5.57,16q-1.65,2.55 -3.29,5.1c-0.88,1.57 -2.37,2.9 -3.32,4.6 -0.83,1 -1.65,2.11 -2.47,3.16 -0.61,0.77 -1.21,1.55 -1.81,2.32l-7,8.29L64.81,66.45l-4.56,4.84C56.12,75.37 53,79 48.11,79.59a8.26,8.26 0,0 1,-7 -2.24,4.94 4.94,0 0,1 -1.7,-3.23c0,-2.85 4,-6.55 6.26,-8.54L48.27,63c1.06,-1.9 1.55,-6 3.5,-7.8s4.28,-1.87 6,-3.44l1.51,-1.71 5.61,-8c0.92,-1.34 1.85,-2.67 2.78,-4 2.66,-4.18 4.27,-7.37 6.93,-11.56 0.93,-1.4 1.8,-2.62 3.64,-5.18a87.68,87.68 0,0 1,7.55 -9c0.86,-0.77 4,-4.72 8.35,-1.71Z" fill="#e4dbd7" fill-opacity="1" fill-rule="evenodd"/>
    <path d="M98.29,9.93a5.86,5.86 0,0 1,0.9 1.52A11.22,11.22 0,0 1,99.65 13c0.83,3.45 -0.25,7.31 -1.36,11a61.52,61.52 0,0 1,-5.14 11.13q-1.38,2.57 -3,5L89,41.93a43,43 0,0 1,-3.5 4.74L82.7,50c-1.47,1.47 -2.61,3.19 -4,4.57l-4.25,4.77 -3.12,3.92c-0.93,1.15 -1.85,2.31 -2.77,3.46a43.6,43.6 0,0 1,-4.35 5.14L62,74.35a28,28 0,0 0,-4.59 6.81c-2.21,4.48 -4.17,8.53 -6.53,13 -3.64,6.94 -11.69,12.72 -16.61,15.42 -1.62,0.89 -4.44,2.54 -6.2,2.34l-0.39,-0.27c-0.58,-1.16 0.51,-3 1,-4.36 1.45,-3.72 6.19,-10 5.93,-13.36 -0.16,-2.14 -4.88,-9.66 -8.16,-7.44 -2.74,1.86 -3.8,7 -5,9.26 0,-1.37 0.88,-2.79 1.41,-4.17 1.33,-3.45 4,-8.75 7.55,-12l3.34,-3.35c0.87,-0.77 1.82,-1.54 2.69,-2.32 -0.42,0.47 -0.91,0.94 -1.35,1.41 -0.16,0.17 -0.3,0.35 -0.44,0.53 -1.2,1.66 -1.85,3.22 -1.56,4.37 0.52,2.08 2.84,4.09 5.23,5.07 4.58,1.89 8.36,0.43 12.34,-2.41 2.41,-1.71 4.32,-4.23 6.74,-6.51l3,-3.49 3.71,-4.32 3,-3.61q4,-4.66 8,-9.35l6.36,-7.39 2.72,-3.39 3.26,-4.34c0.82,-1.25 2.17,-3.28 3,-4.53 1.27,-2.18 2.62,-4.27 3.61,-6.39 2.59,-5.57 5.14,-11.3 3.27,-16.31 -0.92,-2.45 -4.34,-5.92 -7,-4.31l-0.12,0a5.52,5.52 0,0 1,6.23 -0.52,5.71 5.71,0 0,1 1.68,1.49Z" fill="#3a4768" fill-opacity="1" fill-rule="evenodd"/>
    <path d="M32.33,89.3c1.75,2.22 2.92,4.63 1.93,7.2 -0.66,1.2 -1.31,2.41 -2,3.62a86.11,86.11 0,0 0,-3.95 8c-0.42,1.11 -1.83,3.08 -0.51,3.78 0.18,0.13 0.34,0.08 0.5,0.12 -3.55,1 -6.67,-0.64 -7.77,-4.54 -1.34,-4.75 0.17,-10.08 2.33,-15.26 0.68,-1.65 2.82,-6.07 4.75,-6.09a5.24,5.24 0,0 1,3.08 1.48Z" fill="#515a77" fill-opacity="1" fill-rule="evenodd"/>
    <path d="M23.14,103.53s0,0 -0.06,0c-0.81,-0.13 -0.83,-0.18 -0.33,-0.87 0.29,-0.4 0.58,-0.79 0.89,-1.16 0.15,-0.17 0.3,-0.58 0.59,-0.32s-0.07,0.42 -0.21,0.6 -0.42,0.54 -0.63,0.81a0.72,0.72 0,0 0,-0.18 0.32c0.1,0.13 0.26,0.08 0.39,0.1 0.41,0.08 0.47,0.19 0.25,0.51 -0.4,0.58 -0.83,1.15 -1.24,1.73 -0.09,0.12 -0.18,0.23 -0.34,0.14s-0.14,-0.27 -0.05,-0.42 0.42,-0.59 0.62,-0.9S23.11,103.74 23.14,103.53Z" fill="#394156" fill-opacity="1" fill-rule="evenodd"/>
    <path d="M25.6,96.53c-0.28,0 -0.41,0.13 -0.57,0.24s-0.19,0.08 -0.27,0a0.2,0.2 0,0 1,0 -0.22,1.06 1.06,0 0,1 0.86,-0.48c0.28,0 0.41,0.18 0.47,0.46s-0.08,0.49 0.17,0.61 0.41,-0.08 0.59,-0.22a0.21,0.21 0,0 1,0.32 0c0.09,0.13 0,0.23 -0.08,0.32a1.29,1.29 0,0 1,-0.62 0.35,0.6 0.6,0 0,1 -0.8,-0.5C25.64,96.92 25.63,96.74 25.6,96.53Z" fill="#394156" fill-opacity="1" fill-rule="evenodd"/>
    <path d="M28,93.25l-0.22,-0.14a0.23,0.23 0,0 1,-0.11 -0.31,0.2 0.2,0 0,1 0.3,-0.11c0.38,0.22 0.48,-0.08 0.65,-0.3s0.23,-0.44 0.46,-0.28 0,0.34 -0.1,0.49 -0.18,0.22 -0.21,0.37a0.27,0.27 0,0 0,0.17 0.16c0.16,0.05 0.25,0.14 0.17,0.31a0.23,0.23 0,0 1,-0.31 0.12c-0.37,-0.23 -0.53,0 -0.71,0.26s-0.23,0.45 -0.44,0.29 0,-0.37 0.13,-0.55S27.86,93.39 28,93.25Z" fill="#394156" fill-opacity="1" fill-rule="evenodd"/>
    <path d="M24.84,97.34a0.44,0.44 0,0 1,0.44 0.4c0,0.14 0,0.29 0,0.42s0.2,0.33 0.44,0.22a0.86,0.86 0,0 0,0.2 -0.13c0.12,-0.07 0.25,-0.21 0.37,-0.07s0,0.3 -0.1,0.42a0.8,0.8 0,0 1,-1.22 0.07,1 1,0 0,1 -0.15,-0.57c0,-0.36 -0.09,-0.4 -0.39,-0.22l-0.1,0.07c-0.12,0.1 -0.26,0.26 -0.4,0.06s0.06,-0.3 0.17,-0.41A0.83,0.83 0,0 1,24.84 97.34Z" fill="#394156" fill-opacity="1" fill-rule="evenodd"/>
    <path d="M64.16,68.49l3,-3.6 8,-9.35 6.36,-7.4 2.72,-3.38 3.26,-4.34 3,-4.54c1.27,-2.17 2.62,-4.26 3.61,-6.38 2.59,-5.57 5.14,-11.31 3.27,-16.31L99.65,13c0.83,3.44 -0.25,7.3 -1.36,11a61.6,61.6 0,0 1,-5.14 11.14q-1.38,2.57 -3,5L89,41.88a43,43 0,0 1,-3.5 4.74c-0.77,0.9 -2,2.37 -2.78,3.28 -1.47,1.47 -2.61,3.19 -4,4.56l-4.25,4.78 -3.12,3.91 -2.77,3.47a44.42,44.42 0,0 1,-4.35 5.14L62,74.29a28.23,28.23 0,0 0,-4.59 6.81c-2.21,4.49 -4.18,8.54 -6.53,13 -3.42,6.52 -9.71,11.34 -15.92,15a24.07,24.07 0,0 1,-5.92 2.78,1.58 1.58,0 0,1 -1.38,-0.08 1.14,1.14 0,0 1,0 -1.63c0.75,-0.77 2.14,-0.88 3.1,-1.26a35.52,35.52 0,0 0,4.46 -2.1,42.16 42.16,0 0,0 9.94,-8A36.91,36.91 0,0 0,52 89a51.14,51.14 0,0 0,2 -5.08,22.74 22.74,0 0,1 0.71,-2.26A14.06,14.06 0,0 1,56 79.49c2.28,-3.23 4.73,-6.32 7.07,-9.5ZM98.25,9.83" fill="#2d3b56" fill-opacity="1" fill-rule="evenodd"/>
    <path d="M98.1,15.7a24.59,24.59 0,0 1,-1.72 9.19,86 86,0 0,1 -4.59,9l-2.71,4.36q-1.92,2.64 -3.85,5.27l-1.51,2 -3.55,4.29q-3.19,3.69 -6.38,7.4c-2.76,3.22 -5.46,6.45 -8.22,9.68 -1.21,1.44 -2.32,2.82 -3.57,4.24 -1.7,2.11 -3.52,4.22 -5.4,6.23l-2.31,2.35a22.11,22.11 0,0 1,-7.88 5.69,10.55 10.55,0 0,1 -8.81,-0.4c-2.89,-1.34 -5,-4.08 -4.39,-6.33 1,-4.08 7.3,-7.39 9.81,-10.49 -0.33,0.45 -0.87,1 -1.25,1.44a2.35,2.35 0,0 0,-0.24 0.37c-0.81,1.43 -1.55,2.6 -1.21,3.9 0.45,1.75 2.59,3.37 4.48,4.09 3.73,1.44 7.3,0 10.54,-2.48 2.5,-1.94 4.65,-4.6 7,-7l4.13,-4.48 3.64,-4.31L75.92,53l2.13,-2.64c0.7,-0.86 5.86,-7 8.3,-10.44A71.36,71.36 0,0 0,93.8 27c2.21,-5.38 2.88,-10.81 2,-12.95 -1.35,-3.42 -5.5,-5.65 -8.22,-3.19l-0.05,0c2.57,-2.64 4.8,-3 7.42,-0.95A8.3,8.3 0,0 1,98.1 15.7Z" fill="#cea596" fill-opacity="1" fill-rule="evenodd"/>
    <path d="M95,23.43c1.2,-4.09 1.46,-7.77 0.81,-9.44a7.08,7.08 0,0 0,-3.48 -3.75L95,9.82A8.32,8.32 0,0 1,98.1 15.7a23.38,23.38 0,0 1,-0.73 6.06ZM37.6,84.93c-2.89,-1.34 -5,-4.08 -4.39,-6.33 1,-4.08 7.3,-7.38 9.81,-10.49 -0.33,0.45 -0.87,1 -1.25,1.44a2.92,2.92 0,0 0,-0.24 0.37c-0.81,1.44 -1.55,2.61 -1.21,3.9 0.45,1.76 2.59,3.37 4.48,4.1" fill="#e2c8c0" fill-opacity="1" fill-rule="evenodd"/>
    <path d="M56.52,52.69a7.22,7.22 0,0 1,1.78 -0.83,4 4,0 0,1 2.08,-0.08 3.54,3.54 0,0 1,1.79 1.09,5 5,0 0,1 1,1.71c-0.58,-0.34 -1.07,-0.75 -1.57,-1.08a5,5 0,0 0,-1.49 -0.77,5.22 5.22,0 0,0 -1.7,-0.15C57.82,52.61 57.18,52.7 56.52,52.69Z" fill="#c9c2c0" fill-opacity="1"/>
    <path d="M-965.52,-2168.54H709.99V1324.03H-965.52z" fill="#000000" fill-opacity="0" stroke="#3299fe" stroke-opacity="1" stroke-width="19.72"/>
</svg>