<svg xmlns="http://www.w3.org/2000/svg" width="120.0" height="120.0" viewBox="0 0 120.0 120.0">
    <path d="M57,73.61C61.29,64.26 62.67,60 76.28,44.67S91,24.34 91.28,18.11a9.86,9.86 0,0 0,-0.64 -4.06c-0.45,5 -4.27,12.3 -17.3,22.23 -14.5,11 -20.52,7.83 -23,2.73a101.41,101.41 0,0 1,-7.59 19.14c-6.64,13.2 -9.88,18 -12.55,24.25s-2.17,22 4.91,28 11.19,-0.14 13,-5.11C51.07,96.81 50.4,88 57,73.61Z" fill="#a5476d" fill-opacity="1" fill-rule="evenodd"/>
    <path d="M73.34,36.28c13,-9.93 16.85,-17.27 17.3,-22.23 -1.45,-3.64 -5.1,-5.72 -9.17,-6.61 -4.38,-1 -12,0.4 -14.72,0.93a6.34,6.34 0,0 1,3.6 1.17C74.13,12.28 74,19 70,24.51s-10.23,7.78 -14,5a7.46,7.46 0,0 1,-2.75 -6.39,75.94 75.94,0 0,1 -1.12,7.52c-0.45,2.49 -1,5.19 -1.82,8.33C52.82,44.11 58.84,47.33 73.34,36.28Z" fill="#e4e0da" fill-opacity="1" fill-rule="evenodd"/>
    <path d="M70,24.68c-4.1,5.42 -10.44,7.51 -14.16,4.66s-3.41,-9.55 0.69,-15S67,6.85 70.7,9.7 74.1,19.26 70,24.68Z" fill="#a5476d" fill-opacity="1" fill-rule="evenodd"/>
    <path d="M66.24,21c-2.57,3.4 -6.53,4.7 -8.86,2.92s-2.13,-6 0.43,-9.37 6.53,-4.7 8.86,-2.92S68.8,17.62 66.24,21Z" fill="#722e4d" fill-opacity="1" fill-rule="evenodd"/>
    <path d="M70.46,51.88q-2.26,2.84 -4.29,5.87a89.49,89.49 0,0 0,-7.43 13.42c-3.89,8.69 -6,18 -8.57,27.11 -0.87,3.08 -1.75,6.66 -3.6,9.36A2.61,2.61 0,0 1,44.19 109c-0.72,-0.16 -1.15,-0.9 -1.46,-1.63 -1.61,-3.85 -1.92,-8.86 -1.53,-13.33a49.68,49.68 0,0 1,3.73 -14.5c3.22,-7.87 7.77,-15.1 12,-22.4 1.8,-3.08 3.38,-6.32 5.22,-9.37a6.1,6.1 0,0 1,2.75 -2c2,-1 4.2,-1.74 6.24,-2.75a70.43,70.43 0,0 0,6.17 -3.46c1.16,-0.73 2.3,-1.5 3.43,-2.29 0.57,-0.39 1.13,-0.79 1.69,-1.19l0.88,-0.63c0.21,-0.15 0.62,-0.6 0.87,-0.64 0.46,-0.07 0,0.4 -0.15,0.6 -0.28,0.37 -0.57,0.73 -0.86,1.08 -0.56,0.71 -1.14,1.4 -1.71,2.11 -0.28,0.35 -6.77,7.87 -7,8.23L73,48.6c-0.79,1 -1.55,2 -2.35,3Z" fill="#933f65" fill-opacity="1" fill-rule="evenodd"/>
    <path d="M49.89,55.91q-2.4,5.48 -4.88,10.9c-1.65,3.62 -3.35,7.22 -4.93,10.87a30.61,30.61 0,0 0,-2 5.58,28.64 28.64,0 0,0 -0.61,5.91 33,33 0,0 0,1.83 11.7,11.29 11.29,0 0,0 1.38,2.59 5.12,5.12 0,0 0,2.2 1.86,1.35 1.35,0 0,0 1.31,-0.26 3.46,3.46 0,0 0,0.85 -1.17,15.14 15.14,0 0,0 1,-2.78c1.06,-3.84 2,-7.7 3,-11.56s2,-7.71 3.31,-11.47 2.86,-7.43 4.54,-11c-1.67,3.62 -3.18,7.3 -4.49,11.06S50,85.7 49.08,89.57s-1.87,7.74 -2.91,11.58a16.62,16.62 0,0 1,-1 2.82,3.72 3.72,0 0,1 -0.9,1.23 1.54,1.54 0,0 1,-1.47 0.3,3.37 3.37,0 0,1 -0.69,-0.33c-0.2,-0.16 -0.41,-0.3 -0.6,-0.47a6.79,6.79 0,0 1,-1 -1.12,11.39 11.39,0 0,1 -1.42,-2.64 32.93,32.93 0,0 1,-1.79 -11.77,29 29,0 0,1 0.64,-5.94A31.5,31.5 0,0 1,40 77.64c1.6,-3.65 3.31,-7.24 5,-10.85S48.27,59.55 49.89,55.91Z" fill="#933f65" fill-opacity="1"/>
    <path d="M49.1,60.27Q47.06,65 45,69.61c-1.42,3.1 -2.88,6.18 -4.23,9.31A27.68,27.68 0,0 0,39 83.7a25.26,25.26 0,0 0,-0.52 5.06,28.09 28.09,0 0,0 1.56,10A9.48,9.48 0,0 0,41.2 101a4.41,4.41 0,0 0,1.87 1.59,1.15 1.15,0 0,0 1.11,-0.23 3,3 0,0 0,0.72 -1A13.25,13.25 0,0 0,45.76 99c0.91,-3.29 1.73,-6.6 2.54,-9.91s1.71,-6.6 2.83,-9.82 2.47,-6.36 3.92,-9.45c-1.42,3.1 -2.71,6.26 -3.82,9.48s-2,6.51 -2.8,9.83 -1.6,6.62 -2.49,9.92a15.09,15.09 0,0 1,-0.87 2.41,3.21 3.21,0 0,1 -0.77,1.06 1.35,1.35 0,0 1,-1.28 0.27,4.54 4.54,0 0,1 -2,-1.66 10.06,10.06 0,0 1,-1.22 -2.26,28.39 28.39,0 0,1 -1.54,-10.09 24.87,24.87 0,0 1,0.55 -5.09,27.17 27.17,0 0,1 1.77,-4.81C43.37,72.63 46.34,66.5 49.1,60.27Z" fill="#933f65" fill-opacity="1"/>
    <path d="M49.22,62.69Q47.41,66.85 45.55,71c-1.25,2.75 -2.53,5.48 -3.74,8.25a29.83,29.83 0,0 0,-1.6 4.21,23.17 23.17,0 0,0 -0.64,4.46 26.08,26.08 0,0 0,0.93 8.93,8.06 8.06,0 0,0 1,2 2.84,2.84 0,0 0,1.64 1.33,1.07 1.07,0 0,0 0.89,-0.44 4.75,4.75 0,0 0,0.56 -1,19 19,0 0,0 0.75,-2.12c0.83,-2.9 1.61,-5.82 2.37,-8.74s1.62,-5.82 2.64,-8.66 2.22,-5.62 3.5,-8.36A98.13,98.13 0,0 0,47.8 88c-0.75,2.92 -1.52,5.84 -2.34,8.75a18.89,18.89 0,0 1,-0.75 2.15,4.93 4.93,0 0,1 -0.58,1 1.28,1.28 0,0 1,-1.06 0.52,2 2,0 0,1 -1,-0.54 5.15,5.15 0,0 1,-0.75 -0.87,8 8,0 0,1 -1,-2.07 26.28,26.28 0,0 1,-0.91 -9,24.33 24.33,0 0,1 0.66,-4.49 31.84,31.84 0,0 1,1.63 -4.23Z" fill="#933f65" fill-opacity="1"/>
    <path d="M50.71,61.9c-2.28,5.28 -4.68,10.52 -7,15.77a26.06,26.06 0,0 0,-2.37 16.74,8.36 8.36,0 0,0 0.65,2 4.79,4.79 0,0 0,0.58 0.88c0.22,0.26 0.54,0.5 0.79,0.3a4.58,4.58 0,0 0,0.86 -1.88l0.6,-2.08 2.56,-8.25c0.85,-2.75 1.76,-5.48 2.8,-8.17s2.19,-5.32 3.4,-7.93a130.17,130.17 0,0 0,-6.07 16.15L45,93.7l-0.58,2.08c-0.1,0.35 -0.21,0.69 -0.34,1a2.2,2.2 0,0 1,-0.59 1,0.58 0.58,0 0,1 -0.61,0 1.58,1.58 0,0 1,-0.44 -0.37,4.67 4.67,0 0,1 -0.61,-0.91 9,9 0,0 1,-0.68 -2.08,26.2 26.2,0 0,1 2.45,-16.83Z" fill="#933f65" fill-opacity="1"/>
    <path d="M-180.19,-129.52H1495.32V3363.05H-180.19z" fill="#000000" fill-opacity="0" stroke="#3299fe" stroke-opacity="1" stroke-width="19.72"/>
</svg>