<svg xmlns="http://www.w3.org/2000/svg" width="120.0" height="120.0" viewBox="0 0 120.0 120.0">
    <path d="M12.81,77.31a9.71,9.71 0,0 1,0.3 -2.84,55.88 55.88,0 0,1 3.57,-12.66 54.8,54.8 0,0 1,4.41 -8.46,63.19 63.19,0 0,1 9.17,-11.08A110.83,110.83 0,0 1,44 30.94a216.18,216.18 0,0 1,21.9 -13.56c3.9,-2.13 7.82,-4.24 11.85,-6.1a10.93,10.93 0,0 1,6.74 -1.12,2 2,0 0,1 1,0.35 13.09,13.09 0,0 0,-6.37 1.85,80.9 80.9,0 0,0 -10,6.32 22.41,22.41 0,0 0,-6 6.17,8.15 8.15,0 0,0 0.73,10.33 16,16 0,0 0,8 5.08,22.35 22.35,0 0,0 12.32,-0.42c3.81,-1.08 7,-3.25 10.17,-5.58a66.17,66.17 0,0 1,6.37 -4.53c1.51,-0.86 3.06,-1.67 4.91,-1.34A2.18,2.18 0,0 1,107 29.94a9.64,9.64 0,0 1,0.08 6.34c-1,3.4 -2.33,6.66 -3.61,9.94S100.66,53 99.16,56.33c-0.86,1.92 -1.77,3.82 -2.67,5.72q-2,4.23 -4.24,8.33a120.31,120.31 0,0 1,-9.49 15A63.93,63.93 0,0 1,67.9 100.23a54.07,54.07 0,0 1,-13 6.55,58.82 58.82,0 0,1 -11.48,2.72c-0.76,0.1 -1.54,0.14 -2.31,0.2a4.57,4.57 0,0 0,-1.47 -0.23,5.92 5.92,0 0,1 -5.14,-4 11.16,11.16 0,0 1,-0.6 -3.58,28.83 28.83,0 0,1 2.43,-11.39 51.38,51.38 0,0 1,5.29 -9.68A87.91,87.91 0,0 1,52 68.45c2.45,-2.48 4.85,-5 6.36,-8.18A17,17 0,0 0,60.09 50a10.92,10.92 0,0 0,-8 -9.25c-4.32,-1.34 -8.47,-0.51 -12.48,1.31A28.19,28.19 0,0 0,31 48.4,94.07 94.07,0 0,0 19.42,62.46a48.06,48.06 0,0 0,-5.45 11C13.54,74.72 13.19,76 12.81,77.31Z" fill="#3a4768" fill-opacity="1" fill-rule="evenodd"/>
    <path d="M105.62,28.39A5.67,5.67 0,0 1,107 29.94c1.23,2.13 0.59,4.59 0.08,6.34 -1,3.4 -2.33,6.66 -3.61,9.94S100.66,53 99.16,56.33c-0.86,1.92 -1.77,3.82 -2.67,5.72C90.76,74.09 84,85.88 74.13,95c-8,7.34 -17.9,12.79 -28.63,14.33a14.41,14.41 0,0 1,-7.55 -0.5c-2.35,-1 -4.29,-3.35 -4.05,-5.89a2.88,2.88 0,0 1,1.17 -2.2,4.1 4.1,0 0,1 2.12,-0.45c4.74,-0.15 9.62,0 14.33,-0.7C68.29,97 78.3,81.68 86.31,68.21 90,62 93.72,55.6 97.07,49.17a105,105 0,0 0,4.84 -10.57,40 40,0 0,0 1.86,-5.4A12,12 0,0 1,105.62 28.39Z" fill="#2d3b56" fill-opacity="1" fill-rule="evenodd"/>
    <path d="M12.81,77.31c0.38,-1.29 0.73,-2.59 1.16,-3.87a48.06,48.06 0,0 1,5.45 -11A94.07,94.07 0,0 1,31 48.4a28.19,28.19 0,0 1,8.56 -6.34c4,-1.82 8.16,-2.65 12.48,-1.31a10.92,10.92 0,0 1,8 9.25,17 17,0 0,1 -1.76,10.27C56.82,63.48 54.42,66 52,68.45A87.91,87.91 0,0 0,41.66 80.84a51.38,51.38 0,0 0,-5.29 9.68,28.83 28.83,0 0,0 -2.43,11.39 11.16,11.16 0,0 0,0.6 3.58,5.92 5.92,0 0,0 5.14,4 4.57,4.57 0,0 1,1.47 0.23,24.75 24.75,0 0,1 -4.71,0.3A36.92,36.92 0,0 1,26 108.67,16.21 16.21,0 0,1 14.68,98.35a39.36,39.36 0,0 1,-2.32 -13,37.1 37.1,0 0,1 0.44,-7.66A2.67,2.67 0,0 0,12.81 77.31ZM24.45,77.06 L25.27,76.36c0.72,-0.57 1.45,-1.11 2.14,-1.71a0.8,0.8 0,0 0,0.19 -1.21c-0.37,-0.42 -0.71,0 -1,0.2 -1.05,0.82 -2.08,1.64 -3.1,2.49a3,3 0,0 0,-0.83 0.81,0.84 0.84,0 0,0 0.43,1.37l0.81,0.39c0.33,0.15 0.34,0.3 0.07,0.54 -0.44,0.39 -0.88,0.79 -1.31,1.2a10.67,10.67 0,0 0,-1.16 1.17,0.88 0.88,0 0,0 0,1.25c0.4,0.35 0.64,-0.08 0.9,-0.33 1,-1 2.07,-2 3.18,-2.92a1.89,1.89 0,0 0,0.61 -0.73c0.19,-0.47 0.15,-0.83 -0.37,-1.08S25,77.34 24.45,77.06ZM36.36,59.31a2.33,2.33 0,0 0,-2.07 0.21c-0.43,0.23 -0.85,0.56 -0.61,1.07s0.66,0.11 1,0c0.83,-0.33 1.34,0 1.32,0.92 0,0.16 0,0.31 0,0.47a2.05,2.05 0,0 0,1 2.14,2.65 2.65,0 0,0 2.57,-0.44 0.7,0.7 0,0 0,0.23 -0.68,0.42 0.42,0 0,0 -0.37,-0.35 1.07,1.07 0,0 0,-0.64 0.19c-0.9,0.4 -1.56,0 -1.56,-1 0,-0.36 0,-0.73 0,-1.09A1.55,1.55 0,0 0,36.36 59.31ZM34.56,66.54a2.51,2.51 0,0 0,2.61 -0.27,0.67 0.67,0 0,0 0.24,-1c-0.23,-0.34 -0.54,-0.18 -0.85,0 -0.94,0.49 -1.65,0 -1.62,-1 0,-0.34 0.06,-0.69 0,-1a1.49,1.49 0,0 0,-1.23 -1.53,2.48 2.48,0 0,0 -2.23,0.77 0.59,0.59 0,0 0,0 0.76c0.19,0.2 0.4,0.12 0.62,0 1.26,-0.57 1.65,-0.29 1.57,1.12a3.77,3.77 0,0 0,0.05 1A1.87,1.87 0,0 0,34.56 66.54ZM48.77,52.31a0.76,0.76 0,0 0,1 -0.33,0.52 0.52,0 0,0 -0.14,-0.82c-0.13,-0.1 -0.22,-0.25 -0.35,-0.33 -0.44,-0.26 -0.27,-0.48 0,-0.72s0.55,-0.48 0.82,-0.72a0.49,0.49 0,0 0,0.14 -0.68,0.56 0.56,0 0,0 -0.74,-0.16 1.44,1.44 0,0 0,-0.39 0.27c-0.31,0.27 -0.57,0.66 -0.93,0.79s-0.65,-0.43 -1,-0.64a0.7,0.7 0,0 0,-1 0.2,0.55 0.55,0 0,0 0,0.84c0.73,0.78 0.71,0.8 -0.11,1.54l-0.2,0.19c-0.25,0.24 -0.45,0.52 -0.2,0.83s0.62,0.21 0.91,0a4.11,4.11 0,0 0,0.3 -0.29c0.28,-0.24 0.52,-0.6 0.84,-0.68s0.59,0.4 0.89,0.61ZM19.92,94.6a1.11,1.11 0,0 0,-0.38 -1.2c-0.71,-0.65 -1.42,-1.3 -2.14,-1.93 -0.16,-0.14 -0.31,-0.42 -0.56,-0.29a0.71,0.71 0,0 0,-0.32 0.65,1 1,0 0,0 0.23,0.83c0.82,0.77 1.65,1.51 2.48,2.25C19.5,95.15 19.72,95.11 19.92,94.6Z" fill="#515a77" fill-opacity="1" fill-rule="evenodd"/>
    <path d="M86.35,10.92c0.92,0.12 0.79,0.93 1,1.53a1.91,1.91 0,0 1,0.1 0.38A3.16,3.16 0,0 0,88.92 15a85.89,85.89 0,0 1,8.59 7.24A61,61 0,0 1,103 27.89a10.62,10.62 0,0 0,-1.36 0.2,13.94 13.94,0 0,0 -3.06,1.54 59.66,59.66 0,0 1,-9.11 4.92,12.91 12.91,0 0,1 -15.26,-4c-2.54,-3.22 -2.12,-5.89 -0.25,-8.75A23.17,23.17 0,0 1,83.26 14a4.72,4.72 0,0 1,3.09 -0.68c0.36,0.07 0.34,-0.16 0.31,-0.36C86.57,12.27 86.46,11.6 86.35,10.92Z" fill="#e4dbd7" fill-opacity="1" fill-rule="evenodd"/>
    <path d="M87.13,10.92c0.11,0.68 0.28,1.44 0.38,2.12 0,0.2 0.11,0.47 -0.25,0.4a7.52,7.52 0,0 0,-4 0.55,23.17 23.17,0 0,0 -9.32,7.8c-1.87,2.86 -2.29,5.53 0.25,8.75a12.91,12.91 0,0 0,15.26 4,59.66 59.66,0 0,0 9.11,-4.92 13.94,13.94 0,0 1,3.06 -1.54,10.62 10.62,0 0,1 1.36,-0.2c0.63,0 1.28,0 1.91,0.13 0.25,0 0.62,0 0.73,0.37 -1.85,-0.33 -3.4,0.48 -4.91,1.34a66.17,66.17 0,0 0,-6.37 4.53c-3.14,2.33 -6.36,4.5 -10.17,5.58a22.35,22.35 0,0 1,-12.32 0.42,16 16,0 0,1 -8,-5.08 8.15,8.15 0,0 1,-0.73 -10.33,22.41 22.41,0 0,1 6,-6.17 80.9,80.9 0,0 1,10 -6.32,13.09 13.09,0 0,1 6.37,-1.85C85.83,10.54 86.91,10.62 87.13,10.92Z" fill="#cea596" fill-opacity="1" fill-rule="evenodd"/>
    <path d="M94.34,34.26a66.17,66.17 0,0 1,6.37 -4.53c1.51,-0.86 3.06,-1.67 4.91,-1.34 -0.11,-0.38 -0.48,-0.33 -0.73,-0.37 -0.63,-0.09 -1.28,-0.09 -1.91,-0.13a10.62,10.62 0,0 0,-1.36 0.2,13.94 13.94,0 0,0 -3.06,1.54L96.33,31l-1.08,0.64 -1,0.58 -0.32,0.18 -2.36,3.84Z" fill="#000000" fill-opacity="1" fill-rule="evenodd"/>
    <path d="M68.78,39.09a15.73,15.73 0,0 1,-5 -3.91,8 8,0 0,1 -1.47,-9l10.11,-0.72a6.8,6.8 0,0 0,1.75 5,14.36 14.36,0 0,0 1.63,1.75Z" fill="#000000" fill-opacity="1" fill-rule="evenodd"/>
    <path d="M24.45,77.06c0.53,0.28 1,0.53 1.41,0.74s0.56,0.61 0.37,1.08a1.89,1.89 0,0 1,-0.61 0.73c-1.11,0.92 -2.14,1.93 -3.18,2.92 -0.26,0.25 -0.5,0.68 -0.9,0.33a0.88,0.88 0,0 1,0 -1.25,10.67 10.67,0 0,1 1.16,-1.17c0.43,-0.41 0.87,-0.81 1.31,-1.2 0.27,-0.24 0.26,-0.39 -0.07,-0.54l-0.81,-0.39a0.84,0.84 0,0 1,-0.43 -1.37,3 3,0 0,1 0.83,-0.81c1,-0.85 2.05,-1.67 3.1,-2.49 0.29,-0.23 0.63,-0.62 1,-0.2a0.8,0.8 0,0 1,-0.19 1.21c-0.69,0.6 -1.42,1.14 -2.14,1.71Z" fill="#3a4768" fill-opacity="1" fill-rule="evenodd"/>
    <path d="M36.36,59.31a1.55,1.55 0,0 1,0.88 1.4c0,0.36 0,0.73 0,1.09 0,1 0.66,1.42 1.56,1a1.07,1.07 0,0 1,0.64 -0.19,0.42 0.42,0 0,1 0.37,0.35 0.7,0.7 0,0 1,-0.23 0.68A2.65,2.65 0,0 1,37 64.1,2.05 2.05,0 0,1 36,62c0,-0.16 0,-0.31 0,-0.47 0,-0.9 -0.49,-1.25 -1.32,-0.92 -0.34,0.13 -0.75,0.53 -1,0s0.18,-0.84 0.61,-1.07A2.33,2.33 0,0 1,36.36 59.31Z" fill="#3a4768" fill-opacity="1" fill-rule="evenodd"/>
    <path d="M34.56,66.54a1.87,1.87 0,0 1,-0.79 -1.21,3.77 3.77,0 0,1 -0.05,-1c0.08,-1.41 -0.31,-1.69 -1.57,-1.12 -0.22,0.1 -0.43,0.18 -0.62,0a0.59,0.59 0,0 1,0 -0.76,2.48 2.48,0 0,1 2.23,-0.77A1.49,1.49 0,0 1,35 63.24c0,0.33 0,0.68 0,1 0,1 0.68,1.51 1.62,1 0.31,-0.15 0.62,-0.31 0.85,0a0.67,0.67 0,0 1,-0.24 1A2.51,2.51 0,0 1,34.56 66.54Z" fill="#3a4768" fill-opacity="1" fill-rule="evenodd"/>
    <path d="M48.77,52.31l-0.16,-0.11c-0.3,-0.21 -0.51,-0.69 -0.89,-0.61s-0.56,0.44 -0.84,0.68a4.11,4.11 0,0 1,-0.3 0.29c-0.29,0.22 -0.64,0.34 -0.91,0s-0.05,-0.59 0.2,-0.83l0.2,-0.19c0.82,-0.74 0.84,-0.76 0.11,-1.54a0.55,0.55 0,0 1,0 -0.84,0.7 0.7,0 0,1 1,-0.2c0.35,0.21 0.53,0.8 1,0.64s0.62,-0.52 0.93,-0.79a1.44,1.44 0,0 1,0.39 -0.27,0.56 0.56,0 0,1 0.74,0.16 0.49,0.49 0,0 1,-0.14 0.68c-0.27,0.24 -0.53,0.49 -0.82,0.72s-0.46,0.46 0,0.72c0.13,0.08 0.22,0.23 0.35,0.33a0.52,0.52 0,0 1,0.14 0.82A0.76,0.76 0,0 1,48.77 52.31Z" fill="#3a4768" fill-opacity="1" fill-rule="evenodd"/>
    <path d="M19.92,94.6c-0.2,0.51 -0.42,0.55 -0.69,0.31 -0.83,-0.74 -1.66,-1.48 -2.48,-2.25a1,1 0,0 1,-0.23 -0.83,0.71 0.71,0 0,1 0.32,-0.65c0.25,-0.13 0.4,0.15 0.56,0.29 0.72,0.63 1.43,1.28 2.14,1.93A1.11,1.11 0,0 1,19.92 94.6Z" fill="#3a4768" fill-opacity="1" fill-rule="evenodd"/>
    <path d="M-965.52,-2741.41H709.99V751.16H-965.52z" fill="#000000" fill-opacity="0" stroke="#3299fe" stroke-opacity="1" stroke-width="19.72"/>
</svg>