<svg xmlns="http://www.w3.org/2000/svg" width="120.0" height="120.0" viewBox="0 0 120.0 120.0">
    <path d="M47.57,99.21c1.1,-2.35 3.66,-24.37 12.37,-34.29 10,-11.34 22.75,-19 30,-30.62C96.72,23.48 96.34,14.35 88.53,9c-5.42,-3.68 -14.8,3.58 -17.77,2.19s-4.82,-2 -8.41,0.33c-6.82,4.32 -4.22,8.3 -3.87,11.23 0.31,2.64 -6.32,4.29 -16.36,23.1C31.55,65.68 24.45,95.81 25.35,104.33c1,9.52 6.88,8.67 12,5.53S45.65,103.32 47.57,99.21Z" fill="#3c9f91" fill-opacity="1" fill-rule="evenodd"/>
    <path d="M65.2,16.2a5.41,5.41 0,0 1,3 -1,2.37 2.37,0 0,0 0.18,-2.45c-0.82,-1.22 -3.32,-1 -5.58,0.52s-3.42,3.75 -2.59,5c0.49,0.74 1.58,1 2.86,0.67A5.21,5.21 0,0 1,65.2 16.2Z" fill="#278976" fill-opacity="1" fill-rule="evenodd"/>
    <path d="M68.16,15.2a5.41,5.41 0,0 0,-3 1A5.21,5.21 0,0 0,63 18.91a7.9,7.9 0,0 0,2.72 -1.19A7.41,7.41 0,0 0,68.16 15.2Z" fill="#217262" fill-opacity="1" fill-rule="evenodd"/>
    <path d="M58.53,20.32a6.51,6.51 0,0 0,5.65 0.31c2.69,-1 3.63,-2.07 3.95,-1.91s-1.5,2.9 -5.21,3.38C59,22.6 58.32,20.22 58.53,20.32Z" fill="#51b7a6" fill-opacity="1" fill-rule="evenodd"/>
    <path d="M94.72,19.8c0,0.16 0,0.32 0,0.48a20.3,20.3 0,0 1,-0.33 3.48,25.71 25.71,0 0,1 -2.18,6.47 40.41,40.41 0,0 1,-3.3 5.7,55 55,0 0,1 -4.31,5.44c-1.58,1.77 -3.28,3.45 -5,5.08s-3.54,3.26 -5.34,4.85 -3.63,3.19 -5.42,4.81 -3.53,3.26 -5.24,5a61.78,61.78 0,0 0,-4.44 4.85,31.87 31.87,0 0,0 -3.56,5.84 48.7,48.7 0,0 0,-2.43 5.76c-0.72,2 -1.38,4.08 -1.94,6.18 -0.47,1.77 -1,3.61 -1.39,5.39 -0.76,3.26 -1.38,9 -3.15,11.81a19.13,19.13 0,0 1,-5.41 6.24c-0.55,0.46 -1.85,1.4 -2.5,1.82 -0.87,0.56 -1.71,-11.64 -1.62,-12.67 0.59,-6.92 -0.14,-1.85 0.79,-8.91 0.78,-5.86 3.84,-15.91 5.76,-21.5C47.62,54.46 54.47,44.63 62.3,35.42A72.25,72.25 0,0 1,77 22.17a35.59,35.59 0,0 1,3.43 -1.73c1.4,-0.76 3.47,-1.78 4.92,-2.43 0.81,-0.36 1.63,-0.67 2.46,-1a11.11,11.11 0,0 1,2.9 -0.61l0.51,0c0.51,0 1,0 1.52,0.06 0.25,0 0.51,0.05 0.76,0.09l0.38,0c0.06,0 0.31,0 0.35,0.14A13.24,13.24 0,0 1,94.72 19.8Z" fill="#339181" fill-opacity="1" fill-rule="evenodd"/>
    <path d="M87.83,24.05a16.94,16.94 0,0 1,-0.67 5.74,24.23 24.23,0 0,1 -1.33,3.9 31.38,31.38 0,0 1,-6 8.4c-0.39,0.4 -0.78,0.8 -1.18,1.19 -5.22,5.13 -14,12.2 -19.84,18.54S49.4,79.33 48.08,85s-1,7.44 -4.29,10.84a15.8,15.8 0,0 1,-2.65 2.32c-1.62,1.09 -2.64,1 -3.25,0.7 -2.64,-1.41 1.76,-28.58 11.62,-45.56S70.87,26.16 76.6,22.44c2.34,-1.52 5.74,-3.29 8.6,-2.23A4.17,4.17 0,0 1,87.83 24.05Z" fill="#e2c8c0" fill-opacity="1" fill-rule="evenodd"/>
    <path d="M48.64,83.41c1.44,-5.29 5.19,-15.77 10.7,-21.9s15.39,-13.9 20.16,-19c6.53,-7 7.28,-9.7 8.38,-15.58 -5.18,2.46 -18,8.19 -30.77,27.69C45.33,72.51 42.78,87.72 42.47,97.11a10.34,10.34 0,0 0,1.78 -1.75C47.31,92.07 47.21,88.7 48.64,83.41Z" fill="#cea596" fill-opacity="1" fill-rule="evenodd"/>
    <path d="M-167.52,-523.06H1507.99V2969.51H-167.52z" fill="#000000" fill-opacity="0" stroke="#3299fe" stroke-opacity="1" stroke-width="19.72"/>
</svg>