<svg xmlns="http://www.w3.org/2000/svg" width="120.0" height="120.0" viewBox="0 0 120.0 120.0">
    <path d="M43.55,90.88c4.61,1 6.1,-6 12.29,-12.2S66.39,69.44 73.36,69 83.73,71 85,73.1s3.13,10.38 -7.14,18.57c-9.94,7.91 -20.6,11.44 -32.11,7.13s-14.27,-21 -9.21,-34.94S51.13,40.54 55.05,34.33C58,29.72 65,21.23 73.79,19.75S85.66,21.23 85.92,23s-1,6.85 -10.82,10.73c-9.46,3.73 -15.93,6.51 -22.31,12.81 -5.93,5.84 -13.36,17.76 -14.28,28.68C37.55,86.68 39.89,90.1 43.55,90.88Z" fill="#616160" fill-opacity="1"/>
    <path d="M65.09,27.72c0.13,-0.06 2,-1.34 5.82,-3.59l3.85,-2.26A17.79,17.79 0,0 0,69.14 24,18.55 18.55,0 0,0 65.09,27.72Z" fill="#4d4c4c" fill-opacity="1"/>
    <path d="M73.36,69c-4.87,1.48 -5.7,3.66 -10.92,9.3C56.71,84.48 51.24,89.7 46.92,91a5.32,5.32 0,0 1,-4.4 -0.41s3.08,2 6.85,-2.58c2.81,-3.44 9.21,-12.85 15.28,-16.5A15.91,15.91 0,0 1,73.36 69Z" fill="#4d4c4c" fill-opacity="1"/>
    <path d="M73.36,69c-4.87,1.48 -5.7,3.66 -10.92,9.3 -5.73,6.18 -11.81,12.09 -16.26,12.86C41.17,92 39,86.47 39,86.47s1.63,7.31 12.68,4.84c7.64,-1.72 15.13,-8 21.08,-15 4.47,-5.29 7.26,-6.33 9,-6A11.77,11.77 0,0 0,77.18 69C74,68.75 73.36,69 73.36,69Z" fill="#545454" fill-opacity="1"/>
    <path d="M81.82,70.34s-2.94,-1.35 -9,6c-5.9,7.08 -13.44,13.29 -21.08,15C39.2,94.13 38.6,84.56 38.6,84.56s-0.2,11.7 18.89,8.87c13.25,-2 16.85,-9.71 21.46,-14.38 4.17,-4.23 6.32,-5.29 6.32,-5.29A7.29,7.29 0,0 0,81.82 70.34Z" fill="#696969" fill-opacity="1"/>
    <path d="M38.6,84.56s0,11.86 18.74,8.9c13.23,-2.09 17,-9.74 21.61,-14.41 4.17,-4.23 6.32,-5.29 6.32,-5.29a4.92,4.92 0,0 1,0.5 1.83c0.15,1.24 0.16,2 0.16,2a47.06,47.06 0,0 0,-3.45 4.58C81.14,84.29 77,90.88 69.34,94.31a32,32 0,0 1,-22 1.41A12.69,12.69 0,0 1,38.6 84.56Z" fill="#545454" fill-opacity="1"/>
    <path d="M38.6,84.56a12.71,12.71 0,0 0,8.74 11.16,31.63 31.63,0 0,0 22,-1.41c7.68,-3.43 11.8,-10 13.14,-12.16a47.06,47.06 0,0 1,3.45 -4.58,12 12,0 0,1 -0.66,4.16c-0.79,2.46 -3.67,7.88 -10.69,12.32C67.38,98.62 65.14,99 65.14,99s-8.77,2.16 -16.92,-0.77C39,94.87 38.6,84.56 38.6,84.56Z" fill="#696969" fill-opacity="1"/>
    <path d="M-76.55,-379.13H617.05V1103.41H-76.55z" fill="#000000" fill-opacity="0" stroke="#3299fe" stroke-opacity="1" stroke-width="19.72"/>
</svg>