<svg xmlns="http://www.w3.org/2000/svg" width="120.0" height="120.0" viewBox="0 0 120.0 120.0">
    <path d="M29.74,74.6c-2.46,3.21 -2.88,6.21 1,8 8.37,4 14.64,-5 21.78,-13.94A183.46,183.46 0,0 1,66.17 53.56,96.26 96.26,0 0,0 55.62,68.39c-3.93,6.81 -3.14,14.74 -8.81,21 -3.26,3.62 -10.9,4.77 -14,8.26 -2.36,2.69 -1.13,8.5 -5.33,12.71A14,14 0,0 1,21.13 114a8.05,8.05 0,0 1,-2.67 -3.39c-2.09,-5 3.05,-13.46 -1.36,-16.21 -2.52,-1.57 -4.93,-0.17 -7.15,3.11 0.23,-0.36 0.47,-0.71 0.73,-1.06 4.25,-5.54 9.77,-4.18 13.43,-8.24C27,85.1 25.77,79 29.74,74.6Z" fill="#5b1d3b" fill-opacity="1"/>
    <path d="M52.49,68.69c-7.14,8.94 -13.41,17.89 -21.78,13.94 -3.85,-1.82 -3.43,-4.82 -1,-8l0.27,-0.29c4.29,-4.43 7.44,-4.11 18.6,-10.19S73.12,39.69 78.05,32.64c7.81,-11.18 10.86,-15.29 18,-21 10.25,-8.2 13.84,-6 14.94,-5 2.74,2.47 -1.4,9.16 -7,15C97.43,28.36 88.91,33.94 77.36,42.9A79.69,79.69 0,0 0,66.17 53.56,183.46 183.46,0 0,0 52.49,68.69Z" fill="#722e58" fill-opacity="1"/>
    <path d="M17.1,94.44c4.41,2.75 -0.73,11.18 1.36,16.21A8.05,8.05 0,0 0,21.13 114a9.73,9.73 0,0 1,-9.15 -2,11.08 11.08,0 0,1 -2,-14.51C12.17,94.27 14.58,92.87 17.1,94.44Z" fill="#722e58" fill-opacity="1"/>
    <path d="M95.87,15.42c-1.43,1.36 -2.26,2.81 -1.86,3.24s1.89,-0.33 3.33,-1.69 2.26,-2.81 1.86,-3.24S97.3,14.06 95.87,15.42Z" fill="#8c5479" fill-opacity="1"/>
</svg>