<svg xmlns="http://www.w3.org/2000/svg" width="120.0" height="120.0" viewBox="0 0 120.0 120.0">
    <path d="M48.34,44.94S53.17,21.11 53,17.75s1.28,-7.69 3.23,-8.45c2.6,-1 4.93,1.64 4.93,1.64l-4.22,29.3 -2.77,7.62Z" fill="#95c8e5" fill-opacity="1"/>
    <path d="M45.57,110.9S57.42,112.67 62,89.74c3.57,-18 0.45,-19.62 1.77,-25.28S80.3,44.93 82.29,33.68C84.13,23.24 84.13,9.75 75.69,11S73.76,24.58 71,32.31 67.06,42 64.9,41.64s-3.33,-8.93 -2.36,-14.45 2.78,-9.48 5.18,-10.48 3.79,-5.38 1.83,-6.82S60,8.7 58.51,16s-1.13,16.66 -3.73,21.1c-2.74,4.69 -6,6.07 -6.44,7.89s-1,13.44 -3.06,17.34 -7.16,15.5 -8,24S36.52,109.3 45.57,110.9Z" fill="#95c8e5" fill-opacity="1"/>
    <path d="M51.25,31.1s-1.8,8.58 -1.09,9.2c0.88,0.78 3.48,0 5.19,-8.47s1.39,-16 3.63,-18.72c1.66,-2 2.71,-2.91 5.15,-3.57A9.66,9.66 0,0 0,58.51 16c-0.58,2.42 -1.66,13.5 -2.55,17.78 -2.58,12.36 -5.76,8.53 -7,15.07 0,0 -0.12,5.81 -5.83,19.86A72.51,72.51 0,0 0,38 102.39s-3.47,-8.87 1.2,-24.58C43,65 44.84,64.47 46.4,55s5.44,-31.37 5.86,-33.73 -0.12,-4.18 0.15,-6.35S54.6,9.23 57,9.2a8.1,8.1 0,0 0,-3.47 7.64C53.66,18.8 54,16.39 51.25,31.1Z" fill="#84b9d3" fill-opacity="1"/>
    <path d="M53.13,108.11s6.15,-4.18 8.83,-18.37 1.67,-17.86 1.55,-19.84 -1,-5 2.17,-9.35c2.66,-3.65 10.18,-13.63 10.18,-13.63S63.22,60.85 62.72,64.28a28.9,28.9 0,0 0,0 6.71C62.84,73.76 62.59,95 53.13,108.11Z" fill="#84b9d3" fill-opacity="1"/>
    <path d="M42.507,93.779a5.13,3.09 100,1 0,1.782 -10.104a5.13,3.09 100,1 0,-1.782 10.104z" fill="#9ed1e8" fill-opacity="1"/>
    <path d="M43.069,92.379a4.34,2.48 100,1 0,1.507 -8.548a4.34,2.48 100,1 0,-1.507 8.548z" fill="#8fc2d8" fill-opacity="1"/>
    <path d="M63.3,39.55S65.06,45.93 68,43s5,-9 5.22,-15.22c0.26,-7.15 -3.9,-14.71 2.18,-16.6a5.55,5.55 0,0 1,5.39 1.48S77.4,8.47 73.16,11s-0.76,12 -1.49,17.21C70.89,33.83 67,46.71 63.3,39.55Z" fill="#84b9d3" fill-opacity="1"/>
    <path d="M64.1,21.35a8.33,8.33 0,0 1,3.29 -4.84,6.44 6.44,0 0,0 3,-5.47 5.22,5.22 0,0 1,-2 5.34C64.5,19.1 64.1,21.35 64.1,21.35Z" fill="#84b9d3" fill-opacity="1"/>
    <path d="M66.39,41.91s-2.54,0.93 -3.7,-4.72a24.64,24.64 0,0 1,0 -10.65s-3.27,15.53 3.57,17.22Z" fill="#84b9d3" fill-opacity="1"/>
    <path d="M39.16,105.65s3.72,6 10.46,4.58C49.62,110.23 43.15,113.58 39.16,105.65Z" fill="#84b9d3" fill-opacity="1"/>
    <path d="M-68.3,-1746.39H675.7V2188.72H-68.3z" fill="#000000" fill-opacity="0" stroke="#32dd14" stroke-opacity="1" stroke-width="11.07"/>
</svg>