<svg xmlns="http://www.w3.org/2000/svg" width="120.0" height="120.0" viewBox="0 0 120.0 120.0">
    <path d="M104.24,9.52a9,9 0,0 0,-4.08 0.26c4.88,0.91 6.11,3.66 5,10.62 -1.42,8.81 -15.07,47.18 -38.09,64.23S29.54,104 17.6,105.1a18.07,18.07 0,0 1,-4.41 -0.07c2.29,4.08 4,5.57 11.35,5.57 6.27,0 21.21,-1.6 36.61,-11.31 16.48,-10.4 29.26,-25.78 37.71,-43.87C106.53,39 114.69,11.06 104.24,9.52Z" fill="#cc8bb3" fill-opacity="1"/>
    <path d="M17.58,105.1C29.52,104 44,101.68 67,84.63s36.67,-55.42 38.09,-64.23c1.12,-7 -0.11,-9.71 -5,-10.62 -3.9,1.26 -5.9,5.43 -9.08,9.37 -4.13,5.11 -21.22,22.39 -36.74,35S14.86,84.7 11.92,93.85A13.9,13.9 0,0 0,13.16 105v0A18.07,18.07 0,0 0,17.58 105.1Z" fill="#eaaccb" fill-opacity="1"/>
    <path d="M58.63,62.87A1.25,1.25 0,0 1,57 61.81a0.25,0.25 0,0 0,-0.27 -0.22,0.25 0.25,0 0,0 -0.22,0.28 1.72,1.72 0,0 0,1.73 1.55,1.66 1.66,0 0,0 0.49,-0.07 0.24,0.24 0,0 0,0.18 -0.3A0.26,0.26 0,0 0,58.63 62.87Z" fill="#cc8bb3" fill-opacity="1"/>
    <path d="M58.56,63.84a2.12,2.12 0,0 1,-1.7 -0.4,2.07 2.07,0 0,1 -0.78,-1.4 0.24,0.24 0,0 0,-0.28 -0.22,0.25 0.25,0 0,0 -0.21,0.28 2.54,2.54 0,0 0,2.55 2.28,2.94 2.94,0 0,0 0.51,0 0.24,0.24 0,0 0,0.2 -0.29A0.24,0.24 0,0 0,58.56 63.84Z" fill="#cc8bb3" fill-opacity="1"/>
    <path d="M67.64,52.19a2.19,2.19 0,0 0,-1.73 -0.31,0.25 0.25,0 0,0 -0.19,0.3 0.24,0.24 0,0 0,0.3 0.19,1.65 1.65,0 0,1 2.06,1.5 0.25,0.25 0,0 0,0.25 0.23h0a0.25,0.25 0,0 0,0.23 -0.27A2.18,2.18 0,0 0,67.64 52.19Z" fill="#cc8bb3" fill-opacity="1"/>
    <path d="M68.28,51.14a3.21,3.21 0,0 0,-2.45 -0.38,0.25 0.25,0 0,0 -0.18,0.3 0.25,0.25 0,0 0,0.3 0.19,2.69 2.69,0 0,1 3.33,2.22 0.26,0.26 0,0 0,0.25 0.21h0a0.23,0.23 0,0 0,0.2 -0.28A3.17,3.17 0,0 0,68.28 51.14Z" fill="#cc8bb3" fill-opacity="1"/>
    <path d="M66.52,53.18l-0.81,0.88a0.24,0.24 0,0 0,0 0.35,0.28 0.28,0 0,0 0.17,0.07 0.25,0.25 0,0 0,0.18 -0.08l0.82,-0.88a0.25,0.25 0,0 0,0 -0.35A0.26,0.26 0,0 0,66.52 53.18Z" fill="#cc8bb3" fill-opacity="1"/>
    <path d="M66.73,54.34a0.25,0.25 0,0 0,-0.3 0.19,1.27 1.27,0 0,1 -0.34,0.59 1.24,1.24 0,0 1,-0.69 0.35,0.71 0.71,0 0,1 -0.56,-0.17A0.92,0.92 0,0 1,65 54.05a1.14,1.14 0,0 1,0.58 -0.33,0.25 0.25,0 0,0 0.19,-0.3 0.25,0.25 0,0 0,-0.3 -0.19,1.74 1.74,0 0,0 -0.83,0.47 1.39,1.39 0,0 0,-0.18 1.95,1.12 1.12,0 0,0 0.81,0.32h0.16a1.67,1.67 0,0 0,1 -0.49,1.76 1.76,0 0,0 0.46,-0.83A0.24,0.24 0,0 0,66.73 54.34Z" fill="#cc8bb3" fill-opacity="1"/>
    <path d="M77.71,44.13a0.25,0.25 0,0 0,-0.35 -0.07s-0.94,0.62 -1.47,0c-0.17,-0.19 -0.1,-0.47 0,-0.91s0.39,-1.11 -0.21,-1.53S73.94,42 73.9,42a0.25,0.25 0,0 0,-0.05 0.35,0.28 0.28,0 0,0 0.36,0c0.22,-0.18 0.87,-0.57 1.23,-0.32s0.21,0.44 0,1a1.33,1.33 0,0 0,0 1.41,1.28 1.28,0 0,0 1,0.41 2.21,2.21 0,0 0,1.16 -0.37A0.25,0.25 0,0 0,77.71 44.13Z" fill="#cc8bb3" fill-opacity="1"/>
    <path d="M12.79,103.51c1.56,3.38 4.09,6 5.64,5.85s1.54,-3 0,-6.38 -4.09,-6 -5.64,-5.85S11.22,100.13 12.79,103.51Z" fill="#cc8bb3" fill-opacity="1"/>
    <path d="M13.49,103c1.31,2.71 3.34,4.86 4.54,4.79s1.13,-2.33 -0.18,-5 -3.33,-4.86 -4.54,-4.79S12.19,100.26 13.49,103Z" fill="#aa6b95" fill-opacity="1"/>
</svg>