<svg xmlns="http://www.w3.org/2000/svg" width="120.0" height="120.0" viewBox="0 0 120.0 120.0">
    <path d="M98.8,11.31c2.68,6.48 -1.48,15.89 -4.53,23.41 -2.12,5.21 -4.92,10.43 -7.44,15.8l-3.5,6.53L77.1,67.78 70.52,78.07l-2.61,3.8L65.63,85c-2.41,3.27 -4.82,6 -7.07,9a73.92,73.92 0,0 0,-5 -8.12c-0.53,-0.72 -1.34,-2.28 -2.49,-2.56 1,-1.12 4.69,-5.85 5.58,-7.09A69.91,69.91 0,0 0,62.69 65.8a143.21,143.21 0,0 0,8.46 -25.39,177.4 177.4,0 0,1 5.36,-19.85C79.84,11.24 90,3.74 97.65,9.53A4.58,4.58 0,0 1,98.8 11.31Z" fill="#d7c9ca" fill-opacity="1" fill-rule="evenodd"/>
    <path d="M58.78,66.19c-2.18,1.62 -4.89,2.24 -7.26,3.27 -2.72,1.18 -5,3.13 -7.54,5.58 -2.8,2.68 -5.65,7.68 -5.62,10.32 0,0.83 0.15,2.24 1.31,2.74 2.79,1.21 6.26,-0.43 7.4,-1.38a5.8,5.8 0,0 1,2.37 2.72,35.48 35.48,0 0,1 3,6.91c0.24,0.71 1.13,2.64 0.82,3.31l-1.16,1.17c-1.85,1.7 -3.47,3.4 -5.3,4.78 -5.19,3.93 -10.19,7.12 -16,6.88A10.93,10.93 0,0 1,22 107.07a15,15 0,0 1,-1.56 -8.83c0.38,-5 2.59,-9.84 5.21,-15.29 1.06,-2.2 5.55,-8.67 6.37,-9.83a148.41,148.41 0,0 1,9.94 -11.69c4.57,-4.12 11.9,-11.22 17.39,-7.27C63,57.3 62.21,63.65 58.78,66.19Z" fill="#a77d76" fill-opacity="1" fill-rule="evenodd"/>
    <path d="M53.47,99.51s-12.68,13.83 -20.64,8 -1.22,-20.75 -0.21,-22.7a62.16,62.16 0,0 1,7.23 -10.85c3.87,-4.68 12.78,-9.66 15.13,-12.1A7.72,7.72 0,0 0,56.61 53s4.49,0 5.06,5.36 -2.18,7.11 -3.35,8.14 -5.73,1.67 -9,4.12c-4.92,3.64 -6.77,5.3 -9.11,9.5S38,86.69 39.4,87.84C41.89,89.75 47,86.75 47,86.75s1.05,-0.15 3.05,3A27,27 0,0 1,53.47 99.51Z" fill="#bb938a" fill-opacity="1" fill-rule="evenodd"/>
    <path d="M58.56,94S69.75,79.57 75.28,68.53C80.35,58.42 88.2,41.31 89,31c0.7,-9.6 7.26,-18.43 8.84,-20.43a0.38,0.38 0,0 1,0.63 0.07c0.78,1.53 2.69,6.75 -1.07,16.63 -4.56,12 -12.85,27.89 -12.85,27.89S69.56,82.6 58.56,94Z" fill="#c5bcbc" fill-opacity="1" fill-rule="evenodd"/>
    <path d="M54.48,87.05c1.46,2.13 2.86,4.55 4.14,6.86 -0.71,1.79 -4.11,4.23 -5.37,5.84 0,0 0.09,-0.3 0.08,-0.31 0.14,-0.58 -0.56,-2.17 -0.82,-3a35.09,35.09 0,0 0,-3.26 -7.26A4.93,4.93 0,0 0,47 86.75l1.84,-1.41c0.19,-0.14 2.18,-2 2.18,-2C52.29,83.58 53,84.92 54.48,87.05Z" fill="#d2b3a6" fill-opacity="1" fill-rule="evenodd"/>
    <path d="M-91.9,-743.08H796.24V266.21H-91.9z" fill="#000000" fill-opacity="0" stroke="#3299fe" stroke-opacity="1" stroke-width="16.87"/>
</svg>