<svg xmlns="http://www.w3.org/2000/svg" width="120.0" height="120.0" viewBox="0 0 120.0 120.0">
    <path d="M39.42,107.61s6.09,2.55 23.52,-14.18 39,-48.58 42.38,-62.5 -0.38,-15.93 -3.39,-17.85 -9.83,-2.37 -20.46,8.17S60.66,46.91 38.24,62.51s-19.1,13.56 -19.1,13.56Z" fill="#545454" fill-opacity="1"/>
    <path d="M21.74,73.85s12.75,-8.2 27.47,-19.48S74.64,30 78.88,25.51s8,-4.8 11,-3.23 5.26,5.66 1.72,11.21S76.4,54.11 70.27,60.19 58,72.84 55.33,81.25s-3.07,13.32 -4.88,16.82 -6.26,8.79 -10.29,9.43 -15.54,1.85 -22.28,-5.2C12.44,96.62 10,82.49 21.74,73.85Z" fill="#474747" fill-opacity="1"/>
    <path d="M106.54,24s-3.37,14.56 -20.22,37.32C62.21,93.93 54,96 54,96l-3,0.85a25.38,25.38 0,0 1,-4.33 6.45c-3.73,4.08 -7.15,4.36 -7.15,4.36s4,1.34 12.17,-4.8A157.59,157.59 0,0 0,82.56 70.72C93.81,55.37 102.5,40 104,35.5A71.93,71.93 0,0 0,106.54 24Z" fill="#474747" fill-opacity="1"/>
    <path d="M88.33,24.25c0.88,0.47 3.69,2.56 0.22,7.91S74.83,51.66 71.24,53.25a9.71,9.71 0,0 1,-9.62 -0.58c-2.43,-1.73 -2.8,-4 -0.18,-6.72S77.8,29 80,26.86 84.74,22.32 88.33,24.25Z" fill="#545454" fill-opacity="1"/>
    <path d="M18.19,93.71c1.17,5.65 5.24,9.58 9.09,8.78s6,-6 4.85,-11.66S26.89,81.25 23,82.05 17,88.07 18.19,93.71Z" fill="#383838" fill-opacity="1"/>
    <path d="M19.65,92.77c1,4.77 4.47,8.08 7.79,7.39s5.21,-5.11 4.22,-9.88 -4.48,-8.08 -7.79,-7.39S18.66,88 19.65,92.77Z" fill="#232323" fill-opacity="1"/>
</svg>