<svg xmlns="http://www.w3.org/2000/svg" width="120.0" height="120.0" viewBox="0 0 120.0 120.0">
    <path d="M28.38,112.1a12.9,12.9 0,0 1,-7 -4.77,8.72 8.72,0 0,1 -1.3,-8.53C23.94,88.11 31.58,81 41.53,76.07c4.4,-2.18 8.86,-4.25 13.32,-6.31C63,66 66,59.17 66,50.67c-0.07,-6.74 -0.6,-13.46 -0.58,-20.19s1.69,-13.54 3.92,-20c1.6,-4.62 4.57,-6 9.42,-5.76 16.66,0.93 22.73,15.44 21.7,27.08 -0.64,7.27 -4.31,12.81 -9.32,17.67C87,53.39 82.77,57.09 78.75,61c-6.27,6.15 -8,13.66 -5.73,22 1.43,5.22 2.42,10.35 1.87,15.82a10.19,10.19 0,0 1,-3.65 7.22,40.38 40.38,0 0,1 -16.66,8.1C46.14,116.23 37.89,115.48 28.38,112.1Z" fill="#786fb0" fill-opacity="1"/>
    <path d="M78.14,5.27a24.61,24.61 0,0 1,7.4 1.09A10,10 0,0 1,87.32 7c0.58,0.27 1.17,0.52 1.74,0.8A22.62,22.62 0,0 1,92.22 10,23.56 23.56,0 0,1 100,22.91 27.32,27.32 0,0 1,99.37 38a25.09,25.09 0,0 1,-3.65 6.64A34.86,34.86 0,0 1,90.51 50a33.42,33.42 0,0 0,7.55 -12.44,28.39 28.39,0 0,0 0.24,-14.27 26.24,26.24 0,0 0,-2.57 -6.69A20.85,20.85 0,0 0,91.32 11a22.43,22.43 0,0 0,-2.84 -2.2c-0.52,-0.31 -1.06,-0.59 -1.59,-0.88a9.77,9.77 0,0 0,-1.64 -0.76A28.06,28.06 0,0 0,78.14 5.27Z" fill="#6460a0" fill-opacity="1"/>
    <path d="M65.85,53.55c0,0.29 0,0.46 -0.07,0.74a16.42,16.42 0,0 1,-0.59 3.11,27.42 27.42,0 0,1 -1,3.07 3.05,3.05 0,0 1,0.61 -0.46c0.45,-0.16 0.5,-0.24 1,-0.41A12,12 0,0 0,70 56.88a9.2,9.2 0,0 0,0.68 -0.72,2.14 2.14,0 0,0 0.54,-0.74c0.24,-0.37 -2.16,-0.5 -3.27,-1a4.47,4.47 0,0 1,-2 -2.09c-0.06,0.29 0,0.68 -0.06,1C65.87,53.36 65.85,53.5 65.85,53.55Z" fill="#6460a0" fill-opacity="1" fill-rule="evenodd"/>
    <path d="M72.3,73.09c0.09,0.72 -1.73,9.06 -1.89,9.79A66.08,66.08 0,0 1,67.09 94.4a27.76,27.76 0,0 1,-10 13.55c-2.54,2 -6.73,3.37 -9.8,4.18a48.11,48.11 0,0 1,-7 1.21c-0.84,0.1 -4.87,0.67 -5.62,0.66 0.32,0.12 3.82,0.82 4.06,0.84a58.34,58.34 0,0 0,12.6 0,41.31 41.31,0 0,0 11.58,-3.34c3.37,-1.41 6.77,-3.17 9.16,-6.12 2,-2.46 2.6,-5.57 2.93,-8.72 0.58,-5.6 -1.09,-10.28 -2.28,-15.53C72.23,78.82 71.54,75.48 72.3,73.09Z" fill="#6460a0" fill-opacity="1" fill-rule="evenodd"/>
    <path d="M90.7,42a73.68,73.68 0,0 0,-0.16 -8.28,60.32 60.32,0 0,0 -1.19,-8.16 41,41 0,0 0,-2.47 -7.83,36.7 36.7,0 0,0 -4.18,-7.12 27.3,27.3 0,0 1,2.66 3.21,31.16 31.16,0 0,1 2.14,3.61 32.94,32.94 0,0 1,2.73 7.93,44.08 44.08,0 0,1 1,8.32A42.84,42.84 0,0 1,90.7 42Z" fill="#847fc6" fill-opacity="1"/>
    <path d="M74.61,62.32A6.05,6.05 0,0 1,74 63.38c-0.66,1 -1.35,2 -2,3.11S70.89,68.81 70.35,70a34.28,34.28 0,0 0,-1.46 3.65q-0.14,0.42 -0.24,0.87c0,0.14 -0.16,0.23 -0.26,0.18l-0.8,-0.4c-0.11,0 -0.14,-0.22 -0.08,-0.37 0.87,-2 1.78,-3.88 2.78,-5.77 0.58,-1.11 1.15,-2.27 1.76,-3.37 0.31,-0.57 0.64,-1.1 1,-1.64s0.59,-1 0.93,-1.51a2.43,2.43 0,0 1,0.2 -0.25,0.61 0.61,0 0,1 0.31,-0.25 0.23,0.23 0,0 1,0.3 0.15,0.64 0.64,0 0,1 0,0.31A2.65,2.65 0,0 1,74.61 62.32Z" fill="#847fc6" fill-opacity="1"/>
</svg>