<svg xmlns="http://www.w3.org/2000/svg" width="120.0" height="120.0" viewBox="0 0 120.0 120.0">
    <path d="M37.44,108.76a39.17,39.17 0,0 1,-15 -15.64L22.41,93c-1.39,-2.83 -3.15,-5.84 -0.5,-8.83 2.28,-2.59 8.6,-3.43 11.62,-1.66a13.27,13.27 0,0 1,3.91 3.21c2.35,3.07 4.58,2.1 6.75,0 3.24,-3.12 3.78,-7.31 4,-11.49A57.78,57.78 0,0 0,48 66.93a7.36,7.36 0,0 1,3.9 -7.32c2.61,-1.58 5.06,-3.42 7.69,-5 4,-2.41 5.83,-6 5.05,-10.5 -1,-5.88 1.49,-9.58 6.31,-12.32 1.48,-0.85 2.79,-2 4.26,-2.87 3.66,-2.16 5.3,-5.26 4.72,-9.52a6.35,6.35 0,0 1,1.31 -5.18A58.36,58.36 0,0 1,91.74 4.52a4.67,4.67 0,0 1,5.18 -0.47A4.74,4.74 0,0 1,99.44 9a71.33,71.33 0,0 1,-2.27 13.37,7.13 7.13,0 0,1 -4.27,4.73c-3.51,1.57 -5.24,4.24 -5,8.14 0,0.85 -0.11,1.72 0,2.57 0.85,7.56 -1.35,13.37 -8.89,16.51 -2.85,1.18 -4,3.81 -4.09,6.86 -0.09,3.54 -0.37,7.1 -0.23,10.63a7.75,7.75 0,0 1,-4.37 7.78A44.45,44.45 0,0 0,62.07 85c-8,7.11 -7.22,16.31 2.13,21.18 3.88,2 3.61,5.13 3.71,8.3 0.08,2.45 -2.14,2 -3.56,2a58.78,58.78 0,0 1,-24.19 -6.17C39.24,109.8 38.33,109.3 37.44,108.76Z" fill="#a5476d" fill-opacity="1"/>
    <path d="M67.85,114.56a1.65,1.65 0,0 1,0 0.7c-0.23,1.08 -1.09,1.22 -2.07,1.26a29.62,29.62 0,0 1,-3.52 -0.16,58 58,0 0,1 -12.33,-2.22q-3.35,-1 -6.58,-2.31a45,45 0,0 1,-5.93 -3.08c2.4,0.94 4.75,1.92 7.23,2.63A65,65 0,0 0,52 113a73.1,73.1 0,0 0,7.68 0.74c2.18,0.1 4.37,0.08 6.54,0.38l0.88,0.13a1.42,1.42 0,0 1,0.73 0.25Z" fill="#545454" fill-opacity="1"/>
    <path d="M35.56,84a7.83,7.83 0,0 0,-3.89 -2.25A4.92,4.92 0,0 0,30 81.61a2.86,2.86 0,0 0,-1.53 0.61,2.91 2.91,0 0,0 -0.9,1.44 5.76,5.76 0,0 0,-0.06 2.51,0.63 0.63,0 0,0 1.1,0.28c0.47,-0.59 0.8,-1.59 1.46,-2a6.3,6.3 0,0 1,2.6 -0.76,6.54 6.54,0 0,1 1.4,0l0.76,0.13 0.37,0.06C35.27,84 35.52,84 35.56,84Z" fill="#84365a" fill-opacity="1"/>
    <path d="M56.58,108.1a100.35,100.35 0,0 1,-11.81 -4.86C38.5,100.1 31.48,95.74 28.71,89" fill="#000000" fill-opacity="0" stroke="#84365a" stroke-opacity="1" stroke-width="0.59" stoke-linecap="round" stoke-linejoin="round"/>
    <path d="M54.27,95.23c-0.56,5.4 1.6,7.51 1.43,7.83s-1.71,-0.62 -3,-2.5 -1.43,-5.11 0.09,-8.12c2,-3.94 6.08,-8.27 6.44,-7.82S54.78,90.36 54.27,95.23Z" fill="#ffffff" fill-opacity="0.2" fill-rule="evenodd"/>
    <path d="M95.78,22.55a0.3,0.3 0,0 0,0.39 -0.21c0.61,-2.42 1.07,-4.81 1.44,-7.28a42.89,42.89 0,0 0,0.54 -4.36,8.93 8.93,0 0,0 -0.56,-4.32c-0.15,-0.29 -0.54,-1.15 -1,-1 0,0 0,0.09 -0.06,0.12a2.46,2.46 0,0 0,0 0.26c0,0.64 0.18,1.26 0.22,1.89s0.08,1.38 0.08,2.07a31.9,31.9 0,0 1,-0.67 6.09,24.46 24.46,0 0,1 -1.79,5.83 0.28,0.28 0,0 0,0.15 0.4Z" fill="#ffffff" fill-opacity="0.2"/>
    <path d="M72.1,59A5.55,5.55 0,0 0,72 60.39c0.06,1.46 0.2,2.91 0.13,4.38a42.9,42.9 0,0 1,-0.46 4.53,28.36 28.36,0 0,1 -0.9,4.38c-0.1,0.33 -0.21,0.64 -0.33,1a0.29,0.29 0,0 0,0.18 0.38l1.32,0.4a0.3,0.3 0,0 0,0.37 -0.24,73.49 73.49,0 0,0 0.82,-7.37c0.1,-1.47 0.25,-3 0.31,-4.44 0,-0.75 0,-1.5 0,-2.25s0,-1.41 0,-2.11l-0.06,-0.39a0.93,0.93 0,0 0,-0.2 -0.49,0.45 0.45,0 0,0 -0.49,-0.14 0.6,0.6 0,0 0,-0.26 0.24A2.28,2.28 0,0 0,72.1 59Z" fill="#ffffff" fill-opacity="0.2"/>
    <path d="M85.51,34.46a3.86,3.86 0,0 0,-0.09 1.14c0,1.2 0.1,2.38 0,3.57a33.71,33.71 0,0 1,-0.5 3.63,20.26 20.26,0 0,1 -0.87,3.47c-0.09,0.26 -0.19,0.5 -0.3,0.75a0.24,0.24 0,0 0,0.15 0.32l1.1,0.45a0.24,0.24 0,0 0,0.33 -0.16,58.24 58.24,0 0,0 0.87,-5.9c0.12,-1.18 0.28,-2.38 0.36,-3.57 0,-0.61 0.05,-1.22 0.06,-1.83s0.06,-1.14 0,-1.71c0,-0.11 0,-0.22 0,-0.33a0.84,0.84 0,0 0,-0.16 -0.42,0.43 0.43,0 0,0 -0.42,-0.16 0.48,0.48 0,0 0,-0.22 0.18A1.62,1.62 0,0 0,85.51 34.46Z" fill="#ffffff" fill-opacity="0.2"/>
    <path d="M48.07,65.52a50.73,50.73 0,0 0,0.18 5.08,45.69 45.69,0 0,1 -0.2,5.85l-0.15,1.23 0.9,-1a20.21,20.21 0,0 1,4.08 -3.58,15.72 15.72,0 0,1 3.76,-1.87 11.69,11.69 0,0 1,2.18 -0.28,1 1,0 0,0 0.48,-0.07l0.07,0a0.09,0.09 0,0 0,0 -0.07,0.13 0.13,0 0,0 -0.08,-0.1 38.79,38.79 0,0 1,-6.53 -2.37,29.18 29.18,0 0,1 -4.66,-3.44C48.1,65.07 48.08,65.29 48.07,65.52Z" fill="#84365a" fill-opacity="1"/>
    <path d="M64.64,39.57a9.25,9.25 0,0 0,-0.18 1.3,11.47 11.47,0 0,0 0.08,2.19 20.64,20.64 0,0 1,0.32 3A10.34,10.34 0,0 1,64.58 48c-0.07,0.29 -0.13,0.58 -0.18,0.88 0,0.1 0,0.4 -0.1,0.48a19.65,19.65 0,0 1,2.44 -2.11,33.3 33.3,0 0,1 3.4,-2.18A8,8 0,0 1,73.37 44a2.27,2.27 0,0 0,0.69 -0.12c0.31,-0.13 -3.45,-1.08 -5.29,-2.07a29.1,29.1 0,0 1,-4 -2.93A6.25,6.25 0,0 1,64.64 39.57Z" fill="#84365a" fill-opacity="1"/>
    <path d="M80.11,16.44a7.59,7.59 0,0 0,-0.17 2.7,13.26 13.26,0 0,1 0,3.57l-0.43,1.41c0,0.08 -0.12,0.26 -0.1,0.34s0.32,-0.13 0.37,-0.18 0.37,-0.29 0.55,-0.44c0.68,-0.56 1.31,-1.17 2,-1.74A6.92,6.92 0,0 1,84.1 21a14.94,14.94 0,0 1,2.16 -0.66l0.3,-0.07C87,20.13 88.3,20 88.41,20s0,0 0,0a0.05,0.05 0,0 0,0 -0.05,0.09 0.09,0 0,0 -0.06,-0.07 25.28,25.28 0,0 1,-4.76 -1.65,19.51 19.51,0 0,1 -3.26,-2.53C80.33,15.79 80.15,16.28 80.11,16.44Z" fill="#84365a" fill-opacity="1"/>
    <path d="M-127.87,-88.35H739.6V3551.59H-127.87z" fill="#000000" fill-opacity="0" stroke="#3299fe" stroke-opacity="1" stroke-width="24.22"/>
</svg>