<svg xmlns="http://www.w3.org/2000/svg" width="120.0" height="120.0" viewBox="0 0 120.0 120.0">
    <g>
        <clipPath id="clip_1">
            <path d="M21.31,88.85a0.89,0.89 0,0 0,-1 0.75,0.73 0.73,0 0,0 0.46,0.87c0.3,0.1 0.76,-0.18 1,-0.54a0.71,0.71 0,0 0,-0.39 -1.08m0,0A1,1 0,0 1,22 90a1.16,1.16 0,0 1,-1.37 0.91A0.91,0.91 0,0 1,20 89.54a1.25,1.25 0,0 1,1.3 -0.69 M 0,0"/>
        </clipPath>
        <path d="M9.43 78.37H32.44V101.38000000000001H9.43z" clip-path="url(#clip_1)" fill="#3c3c3c" fill-opacity="1"/>
    </g>
    <g>
        <clipPath id="clip_1">
            <path d="M41.54,60.62l0.1,0 -0.1,0 M 0,0"/>
        </clipPath>
        <path d="M31.08 50.12H52.099999999999994V71.08H31.08z" clip-path="url(#clip_1)" fill="#424343" fill-opacity="1"/>
    </g>
    <g>
        <clipPath id="clip_1">
            <path d="M34.91,66.86 L25,75.36c-2.76,2.24 -4.7,5.43 -2.93,7.68a1.94,1.94 0,0 0,1.26 0.64c2.55,0.5 3.84,-1.73 6.28,-3.62l8.32,-6.45c3.6,-2.55 6.41,-5.88 4.52,-8.31S37.3,65 34.91,66.86 M 0,0"/>
        </clipPath>
        <path d="M10.91 53.75H53.489999999999995V94.21000000000001H10.91z" clip-path="url(#clip_1)" fill="#717b9b" fill-opacity="1"/>
    </g>
    <g>
        <clipPath id="clip_1">
            <path d="M18.48,86.07c-0.29,-0.08 -0.64,0.26 -0.78,0.76s0,1 0.26,1.06 0.64,-0.26 0.78,-0.76 0,-1 -0.26,-1.06 M 0,0"/>
        </clipPath>
        <path d="M7.18 75.6H29.259999999999998V98.36H7.18z" clip-path="url(#clip_1)" fill="#e6e6e6" fill-opacity="1"/>
    </g>
    <g>
        <clipPath id="clip_1">
            <path d="M26,99.1a9.11,9.11 0,0 1,1.22 -3.23c1.8,-3 6.86,-6.34 9.22,-7.55 1.7,-0.88 3.62,-1.88 5.39,-1.7 2.78,0.31 4.07,2.14 7,1.21a8.22,8.22 0,0 0,5 -5.4c0.86,-3.34 -0.3,-7.21 -2,-10.81 -1.26,0.85 -2.48,1.64 -3.65,2.36C37.13,80.76 21,87.22 24.54,101.5a2.14,2.14 0,0 0,0.85 -0.43c0.63,-0.5 0.52,-1.46 0.6,-2 M 0,0"/>
        </clipPath>
        <path d="M13.57 61.16H64.56V111.96H13.57z" clip-path="url(#clip_1)" fill="#777f97" fill-opacity="1"/>
    </g>
    <g>
        <clipPath id="clip_1">
            <path d="M43.45,69.19c-0.69,2 -2.74,3.38 -4.35,4.52l-8.8,6.84c-2.87,2.21 -4.05,4.74 -7.14,4.31A2.6,2.6 0,0 1,21.39 84c-2.22,-2.75 -0.07,-6.08 3.12,-8.68l8.06,-7c1.84,-1.4 3.38,-3 5.15,-3.8s3.34,-1.58 5.11,0.24 1,3.38 0.62,4.43 M 0,0"/>
        </clipPath>
        <path d="M10.02 53.2H54.400000000000006V95.37H10.02z" clip-path="url(#clip_1)" fill="#bec3d6" fill-opacity="1"/>
    </g>
    <g>
        <clipPath id="clip_1">
            <path d="M60.36,36.88c-4.26,5.57 -6.87,14.48 -6.26,17.55s2.76,2.83 3.38,-3.18c0,0 -0.29,-0.25 0.63,-3.22s2.88,-4.61 5.16,-8.37 4.37,-12.12 -1,-15.59c0.12,0.41 2.21,7.39 -1.93,12.81 M 0,0"/>
        </clipPath>
        <path d="M43.55 13.62H76.08V66.82000000000001H43.55z" clip-path="url(#clip_1)" fill="#59617c" fill-opacity="1"/>
    </g>
    <g>
        <clipPath id="clip_1">
            <path d="M19,86.07a1,1 0,0 0,-1 0.81c-0.09,0.36 0.07,0.84 0.34,0.86s0.75,-0.28 0.95,-0.61 0.33,-0.86 -0.25,-1.06m0,0a0.62,0.62 0,0 1,0.51 0.48,1.12 1.12,0 0,1 0,0.63 1.33,1.33 0,0 1,-0.35 0.63,1.31 1.31,0 0,1 -1.06,0.32 0.75,0.75 0,0 1,-0.64 -0.65,1 1,0 0,1 0.18,-0.65 1.77,1.77 0,0 1,0.52 -0.54,1.1 1.1,0 0,1 0.81,-0.22 M 0,0"/>
        </clipPath>
        <path d="M7.02 75.6H30.03V98.61H7.02z" clip-path="url(#clip_1)" fill="#3c3c3c" fill-opacity="1"/>
    </g>
    <g>
        <clipPath id="clip_1">
            <path d="M16.57,60.58H51.78V101.6H16.57z M 0,0"/>
        </clipPath>
        <g clip-path="url(#clip_1)">
            <clipPath id="clip_2">
                <path d="M14.48 60.01H52.129999999999995V101.84H14.48z M 0,0"/>
            </clipPath>
            <g clip-path="url(#clip_2)">
                <clipPath id="clip_3">
                    <path d="M48.13,74c1.17,-0.72,2.39,-1.51,3.65,-2.36a52.54,52.54,0,0,0,-2.7,-4.82c-0.78,-1,-1.61,-2,-2.39,-3,-0.41,-0.44,-0.78,-0.92,-1.19,-1.35a6.69,6.69,0,0,0,-3.39,-1.85c-0.93,-0.08,-1.94,1,-2.83,1.57,-2.39,1.58,-4.6,3.43,-7.05,5.26C23.07,74.27,16.07,83.29,16.6,92.17c0.15,2.65 0.53,6.35,4.26,8.48a5.05,5.05,0,0,0,3.68 0.85C21,87.22,37.13,80.76,48.13,74 M 0,0"/>
                </clipPath>
                <g clip-path="url(#clip_3)">
                    <clipPath id="clip_4">
                        <path d="M16.57 60.01H52.13V101.84H16.57z M 0,0"/>
                    </clipPath>
                    <path d="M6.11 50.13H62.23V112.07H6.11z" clip-path="url(#clip_4)" fill="#888ea6" fill-opacity="1"/>
                </g>
            </g>
        </g>
    </g>
    <g>
        <clipPath id="clip_1">
            <path d="M20.92,88.84a0.78,0.78 0,0 0,-0.85 0.65,0.77 0.77,0 0,0 0.38,1c0.34,0.1 0.71,-0.19 0.84,-0.64a0.78,0.78 0,0 0,-0.37 -1 M 0,0"/>
        </clipPath>
        <path d="M9.57 78.37H31.79V100.96000000000001H9.57z" clip-path="url(#clip_1)" fill="#e6e6e6" fill-opacity="1"/>
    </g>
    <g>
        <clipPath id="clip_1">
            <path d="M17.29,15.41H103.43V106H17.29z M 0,0"/>
        </clipPath>
        <g clip-path="url(#clip_1)">
            <clipPath id="clip_2">
                <path d="M16.57 14H106.50999999999999V108.12H16.57z M 0,0"/>
            </clipPath>
            <g clip-path="url(#clip_2)">
                <clipPath id="clip_3">
                    <path d="M99.67,15.41c-0.06,4.18,-0.91,11.93,-5.82,18.54,-6.51,8.77,-27,27.47,-42.07,37.67,1.73,3.6,2.89,7.47,2,10.81a8.22,8.22,0,0,1,-5,5.4c-3,0.93,-4.26,-0.9,-7,-1.21a6.31,6.31,0,0,0,-2.82 0.49s-0.85,3.39,-4.74,7.27,-7.9,3.61,-8,3.6l-9,-1.66a13.32,13.32,0,0,0,1.5,3.63,14,14,0,0,0,7.14,5.44,12.64,12.64,0,0,0,6.13 0.41c7.58,-1.3,13.12,-7.53,19.75,-17.32A220.88,220.88,0,0,1,68.74,66.73c2.31,-2.47,15.65,-12.88,27.4,-27.41,10.25,-12.68,7.61,-20.44,4.54,-23.15A9.18,9.18,0,0,0,99.67,15.41Z M 0,0"/>
                </clipPath>
                <g clip-path="url(#clip_3)">
                    <clipPath id="clip_4">
                        <path d="M16.57 14H104.41V106.03H16.57z M 0,0"/>
                    </clipPath>
                    <path d="M6.83 4.95H113.89V116.45H6.83z" clip-path="url(#clip_4)" fill="#5e688a" fill-opacity="1"/>
                </g>
            </g>
        </g>
    </g>
    <g>
        <clipPath id="clip_1">
            <path d="M41.82,86.62c2.78,0.31 4.07,2.14 7,1.21a8.24,8.24 0,0 0,5 -5.4c0.86,-3.34 -0.3,-7.21 -2,-10.81C66.87,61.42 87.34,42.72 93.85,34c4.91,-6.61 5.76,-14.36 5.82,-18.54 -2.75,-1.79 -7.56,-2.65 -14.93,2.24C76.38,23.21 70.28,32.5 65.61,41.39s-8.13,9.86 -8.13,9.86c-0.62,6 -2.77,6.24 -3.38,3.18s2,-12 6.26,-17.55 2,-12.41 1.93,-12.8c-0.19,-0.12 -0.36,-0.25 -0.56,-0.36 -6.34,-3.35 -11,6.13 -12,11.77s-0.45,15.08 -1.94,18.25c-1,2.09 -5.58,6.54 -5.58,6.54L39,87.11h0a6.31,6.31 0,0 1,2.82 -0.49 M 0,0"/>
        </clipPath>
        <path d="M28.54 3.54H110.13V98.55000000000001H28.54z" clip-path="url(#clip_1)" fill="#717b9b" fill-opacity="1"/>
    </g>
    <g>
        <clipPath id="clip_1">
            <path d="M49.31,65.94c1.07,1.62 6.36,9.35 5.13,15.07 -0.88,5.47 -5.75,10.45 -11.84,5.76 0,0 0.76,0.1 0.78,0.09 4.28,2.52 9.25,0.5 10.32,-5 1,-5.26 -2.21,-11.17 -5.62,-16.16 -1.48,-2.16 -4.15,-5 -6.44,-5.1 1.39,-1.12 3.19,0.2 4.73,1.63l0.08,0.08a35.54,35.54 0,0 1,2.86 3.65 M 0,0"/>
        </clipPath>
        <path d="M31.19 49.7H65.09V99.09H31.19z" clip-path="url(#clip_1)" fill="#bec3d6" fill-opacity="1"/>
    </g>
    <g>
        <clipPath id="clip_1">
            <path d="M37.87,73.58 L29.55,80c-2.31,1.79 -3.57,4.15 -6,3.79a2.49,2.49 0,0 1,-1.5 -0.82c-1.76,-2.22 0.23,-5.39 2.94,-7.61l9.65,-8.26c2.49,-1.92 5,-4.21 7.72,-1.8 1.62,4.07 -0.93,5.7 -4.52,8.25 M 0,0"/>
        </clipPath>
        <path d="M10.95 53.83H53.34V94.31H10.95z" clip-path="url(#clip_1)" fill="#424343" fill-opacity="1"/>
    </g>
</svg>