<svg xmlns="http://www.w3.org/2000/svg" width="120.0" height="120.0" viewBox="0 0 120.0 120.0">
    <path d="M-169.57,-762.46H1534.9V3203.11H-169.57z" fill="#000000" fill-opacity="0" stroke="#32dd14" stroke-opacity="1" stroke-width="11.07"/>
    <path d="M66.13,111.17s2.59,-1.69 -0.26,-9.33 -20.67,-46 -17.66,-59.37c2.78,-12.38 10.41,-17.29 23,-19.88s12.56,0 12.56,0 -6.47,11.27 -14.37,12 -11.78,-2 -14.37,-1.29 -5.65,6.34 -5.83,11.14c-0.11,2.85 0.41,13.89 8.29,25.9C67.48,85.66 73.93,105.55 66.13,111.17Z" fill="#17616e" fill-opacity="1"/>
    <path d="M66.39,110.78S53.67,111 44,90.93s-9.55,-50.47 -3.34,-63.68 14,-18.9 25,-18.39c0,0 4.38,3.5 7.39,3.21 0,0 4.08,4.18 6,4.76 0,0 2.81,4.27 4.27,5.15 0,0 -23.89,-1.46 -32.54,14.08s7.07,40.3 9,47.3S70.46,108.61 66.39,110.78Z" fill="#206b78" fill-opacity="1"/>
    <path d="M37.3,67.79s4.34,38.32 28.83,43.38c0,0 1.75,0.18 1.27,-4.22 0,0 0.38,3.08 -2.08,2.24S44.36,100.94 37.3,67.79Z" fill="#17616e" fill-opacity="1"/>
    <path d="M40.576,79.286a2.49,1.39 72.36,1 0,2.649 -0.842a2.49,1.39 72.36,1 0,-2.649 0.842z" fill="#25747c" fill-opacity="1"/>
    <path d="M49.107,97.695a2.49,1.39 55.66,1 0,2.295 -1.568a2.49,1.39 55.66,1 0,-2.295 1.568z" fill="#25747c" fill-opacity="1"/>
    <path d="M41.32,77.73c0.73,-0.24 1.66,0.64 2.07,2l0,0.09a4.17,4.17 0,0 0,-0.2 -1.35c-0.41,-1.31 -1.35,-2.18 -2.08,-2s-1,1.43 -0.59,2.71C40.58,78.44 40.85,77.88 41.32,77.73Z" fill="#13575e" fill-opacity="1"/>
    <path d="M49.37,96c0.63,-0.43 1.78,0.13 2.56,1.26l0,0.07a3.8,3.8 0,0 0,-0.59 -1.22c-0.78,-1.13 -1.93,-1.7 -2.56,-1.26s-0.5,1.66 0.24,2.77A1.44,1.44 0,0 1,49.37 96Z" fill="#13575e" fill-opacity="1"/>
    <path d="M41.53,44.73S43.08,18.06 65.61,8.86c0,0 4.28,3.24 7.64,3.24C73.25,12.1 49,12 41.53,44.73Z" fill="#17616e" fill-opacity="1"/>
    <path d="M79,16.83a15.16,15.16 0,0 1,-5.77 -4.73S50.33,17.93 46.06,37.35C46.06,37.35 53.38,18.28 79,16.83Z" fill="#17616e" fill-opacity="1"/>
    <path d="M37.12,49.85S35.76,24.27 54,12.1a12.47,12.47 0,0 1,6.61 -1.78S41.88,19.26 37.12,49.85Z" fill="#25747c" fill-opacity="1"/>
    <path d="M46.7,35A35.79,35.79 0,0 1,62.86 16.49S50.49,19.32 46.7,35Z" fill="#25747c" fill-opacity="1"/>
</svg>