<svg xmlns="http://www.w3.org/2000/svg" width="120.0" height="120.0" viewBox="0 0 120.0 120.0">
    <path d="M14.07,82.68c2.06,-3.84 5.7,-5.44 9.25,-7.08 3.07,-1.42 6.1,-2.93 9,-4.63A3.07,3.07 0,0 0,34 67a19.28,19.28 0,0 1,-0.79 -6.29,5 5,0 0,1 3.71,-4.85A18.51,18.51 0,0 1,51 57.37c2.31,1.25 2.84,1.17 3.83,-1.32 2,-5.13 3.25,-10.32 1.77,-15.9a24,24 0,0 1,-0.23 -11.65A21.2,21.2 0,0 1,63 17.39c3.26,-2.94 6.65,-5.61 11,-7 5.84,-1.79 10.06,0.65 13,4.74 4.21,5.83 6,12.39 4.58,19.57A20.62,20.62 0,0 1,86.87 44c-5,6 -11.42,10.21 -17.39,15a17,17 0,0 0,-5.54 8.58c-0.56,1.92 0.33,3.51 1.46,5 4.74,6.06 9.58,12 14.2,18.18 2.93,3.89 4.05,8.28 2.49,13.15 -1,3.06 -5.64,6.4 -9.2,6.29a25.48,25.48 0,0 1,-17.65 -7.39,38.55 38.55,0 0,0 -9.53,-7.11c-1.73,-0.85 -3.35,-0.41 -5,0.15 -4.1,1.37 -7.93,3.43 -12.1,4.57 -3.64,1 -7.1,1.13 -10.44,-1.26C12.87,95.32 10.93,87.83 14.07,82.68Z" fill="#e96491" fill-opacity="1"/>
    <path d="M44.55,95.1A103.24,103.24 0,0 1,57 104.38a41.91,41.91 0,0 0,4 3.46,13.36 13.36,0 0,0 5.65,2.09l3.14,0.11h0.73a4.5,4.5 0,0 1,-1.77 -0.7c-0.78,-0.37 -1.56,-0.75 -2.32,-1.17a40.09,40.09 0,0 1,-9 -7.59,35.22 35.22,0 0,0 -4.51,-4.3 11.14,11.14 0,0 0,-4.08 -1.94A6,6 0,0 0,44.55 95.1Z" fill="#808080" fill-opacity="1"/>
    <path d="M62.24,104.67a53.83,53.83 0,0 1,-7.4 -6.38,19.21 19.21,0 0,0 -3.7,-2.86 10.22,10.22 0,0 0,-2.07 -0.9l-0.53,-0.14a1.93,1.93 0,0 0,-0.47 0A7,7 0,0 0,47 94.4a33.52,33.52 0,0 0,-4.65 0.92,45.54 45.54,0 0,0 -4.57,1.44 53.45,53.45 0,0 1,-9.34 2.88c3,-1.18 5.88,-2.71 8.87,-4a35.37,35.37 0,0 1,4.64 -1.74,32.27 32.27,0 0,1 4.88,-1 8.35,8.35 0,0 1,1.34 0,3.48 3.48,0 0,1 0.74,0.1c0.22,0 0.43,0.11 0.64,0.18a10.42,10.42 0,0 1,2.37 1.09,18.13 18.13,0 0,1 3.83,3.28C57.92,99.86 59.93,102.35 62.24,104.67Z" fill="#d35988" fill-opacity="1"/>
    <path d="M57.38,46.22c0,0.41 0,0.82 0.06,1.23a23,23 0,0 1,-0.35 4.38,20.61 20.61,0 0,1 -1.58,4.59 5,5 0,0 1,0.92 -0.55c0.62,-0.31 1.28,-0.54 1.9,-0.86a17.15,17.15 0,0 0,5.48 -4.65,13.42 13.42,0 0,0 0.83,-1.15 3.13,3.13 0,0 0,0.63 -1.14c0.26,-0.56 -3.16,-0.3 -4.82,-0.76a6.43,6.43 0,0 1,-3.28 -2.57A4,4 0,0 0,57.35 46Z" fill="#d35988" fill-opacity="1" fill-rule="evenodd"/>
    <path d="M57,42.09a24.92,24.92 0,0 1,0.35 7.81,21.89 21.89,0 0,1 -2.26,7.56 15.07,15.07 0,0 1,-5.2 5.88,52.72 52.72,0 0,1 -6.77,3.86A61.43,61.43 0,0 0,49.63 63a16.05,16.05 0,0 0,4.58 -6,26.9 26.9,0 0,0 2.25,-7.25A40.15,40.15 0,0 0,57 42.09Z" fill="#f482ae" fill-opacity="1"/>
    <path d="M76.37,13.15c-1.22,0.71 -2.46,1.38 -3.65,2.12a34.53,34.53 0,0 0,-3.47 2.27c-1.11,0.82 -2,1.83 -3.1,2.62s-2.1,1.66 -3.32,2.53l-0.17,-0.11a8.43,8.43 0,0 1,2.13 -3.88,13.13 13.13,0 0,1 3.59,-2.51 39.34,39.34 0,0 1,3.9 -1.82c1.33,-0.51 2.66,-1 4,-1.41Z" fill="#f482ae" fill-opacity="1"/>
</svg>