<svg xmlns="http://www.w3.org/2000/svg" width="120.0" height="120.0" viewBox="0 0 120.0 120.0">
    <path d="M111.62,21.13A7.12,7.12 0,0 1,112 23a10.93,10.93 0,0 1,0 2.14c0,0.15 0,0.3 -0.05,0.45a1.29,1.29 0,0 1,-0.06 0.45,31.3 31.3,0 0,1 -4.09,10.66 184.12,184.12 0,0 1,-11.3 17.17c-0.16,0.23 -0.3,0.48 -0.44,0.72C94.41,56.84 92.67,59 91,61.22c-0.14,0.15 -0.3,0.41 -0.43,0.57 -1.24,1.57 -2.51,3.14 -3.75,4.72C85,68.81 83,71.11 81,73.26c-3.23,3.49 -6.53,6.88 -9.77,10.3 -2.32,2.44 -4.72,4.82 -7.09,7.22s-4.71,5 -7.13,7.52a126.2,126.2 0,0 1,-11.55 11,32.59 32.59,0 0,1 -14.78,7.25 10.71,10.71 0,0 1,-6.62 -0.46,16 16,0 0,1 -4.79,-3.49 37.43,37.43 0,0 1,-7.91 -12.21,64 64,0 0,1 -4,-14.29c-0.22,-1.36 -0.49,-2.72 0.22,-4s1.22,-2.57 1.86,-3.83A57.83,57.83 0,0 1,15 69.36a71.78,71.78 0,0 1,8.61 -9.5c4.37,-4 8.82,-8 13.24,-12l8.87,-8q5.24,-4.71 10.44,-9.45a11.06,11.06 0,0 0,1.69 -2,39.12 39.12,0 0,1 6,-7.12c3.36,-3 6.7,-6.11 10.07,-9.13 2.15,-1.92 4.33,-4 6.66,-5.67 1.18,-0.86 2.27,-2 3.54,-2.79a3.18,3.18 0,0 1,4 0.5,2.39 2.39,0 0,0 1.13,0.6 35.05,35.05 0,0 1,7.57 3c1.21,0.63 2.34,1.4 3.5,2.11L104,12.75a0.75,0.75 0,0 0,0.14 0.17A24.53,24.53 0,0 1,109 18.19a2,2 0,0 0,0.58 0.46A4.78,4.78 0,0 1,111 19.88,6.41 6.41,0 0,1 111.62,21.13Z" fill="#2d2d2d" fill-opacity="1"/>
    <path d="M109.37,18.05l-1.29,-0.17a16.8,16.8 0,0 0,-6.8 2c-1.22,0.61 -2.42,1.24 -3.62,1.9 -2,1.1 -4,2.32 -6,3.44a34.07,34.07 0,0 1,-5.81 2.71,12.61 12.61,0 0,1 -5.41,0.71A10.23,10.23 0,0 1,74.92 26a7.53,7.53 0,0 1,-2.16 -2.88c-1.22,-3.18 0.7,-6.43 2.34,-9a53.2,53.2 0,0 1,3.37 -4.81,30.11 30.11,0 0,1 3.91,-4.15c-1,0.9 -2.16,1.72 -3.25,2.56S77,9.3 76.05,10.2a3.52,3.52 0,0 0,-0.41 0.36L74,12.05l-1.69,1.53 -1.4,1.26 -0.76,0.69a0.1,0.1 0,0 0,-0.05 0l-3.65,3.28c-3.59,3.23 -8.4,7 -8.29,12.33 0.12,5.56 5.46,9.78 10.5,10.93 4.13,0.94 8.74,0.27 12.86,-0.43 4.71,-0.8 13.17,-3.4 15.43,2.78a10.07,10.07 0,0 1,-0.06 6.26,31.5 31.5,0 0,1 -4.16,7.78C91.68,60.1 91,61 90,62.6l-0.25,0.36c2.57,-3.41 5,-6.38 7.51,-9.8a144.14,144.14 0,0 0,11.1 -16.89,46.29 46.29,0 0,0 2.2,-4.47c0.32,-0.77 0.62,-1.55 0.89,-2.34 0.13,-0.39 0.26,-0.8 0.38,-1.2a4.47,4.47 0,0 1,0.3 -1.13,12 12,0 0,0 0.39,-5.08A5.64,5.64 0,0 0,109.37 18.05Z" fill="#434242" fill-opacity="1"/>
    <path d="M89.39,63.23q0.56,-0.7 1.08,-1.41c0.59,-0.8 1.13,-1.63 1.72,-2.42 1.08,-1.61 2.16,-3.21 3.09,-4.91a22.93,22.93 0,0 0,1.38 -3,3.57 3.57,0 0,1 0.25,-0.76A10,10 0,0 0,97 44.44c-2.25,-6.18 -10.71,-3.58 -15.43,-2.78 -4.11,0.7 -8.73,1.36 -12.85,0.43 -5,-1.15 -10.39,-5.37 -10.5,-10.94a9.08,9.08 0,0 1,1 -4.24c-0.54,0.73 -1.13,1.44 -1.64,2.19a8.62,8.62 0,0 0,-1.32 5.26,10.35 10.35,0 0,0 2.57,5.4 16,16 0,0 0,4.81 3.89l0.27,0.14a19.29,19.29 0,0 0,6 1.86,33.28 33.28,0 0,0 6.39,0.13c1.42,-0.07 2.83,-0.12 4.25,-0.17a20.63,20.63 0,0 1,5.87 0.38,6.27 6.27,0 0,1 4.58,4.38c0.6,2.43 -0.08,4.66 -1,6.92 -2,5.05 -5.29,9.31 -8.59,13.56q-5.15,6.6 -10.69,12.88c-2.6,2.94 -5.27,5.8 -8,8.62q6,-6 11.84,-12.09c2.5,-2.61 5,-5.22 7.42,-7.91s4.66,-5.41 6.81,-8.26Z" fill="#383838" fill-opacity="1"/>
    <path d="M56.2,34.2a8.67,8.67 0,0 1,1.32 -5.27c0.51,-0.75 1.09,-1.45 1.64,-2.18a9.21,9.21 0,0 0,-1 4.24" fill="#4f4e4e" fill-opacity="1"/>
    <path d="M76.38,45.9l4.25,-0.16a20.62,20.62 0,0 1,5.87 0.37,6.31 6.31,0 0,1 4.58,4.38c0.6,2.44 -0.08,4.67 -1,6.93 -2,5 -5.29,9.31 -8.59,13.55q-5.15,6.61 -10.69,12.89c-2.6,2.93 -5.27,5.79 -8,8.62q6,-6 11.84,-12.1c2.5,-2.6 5,-5.22 7.42,-7.9s4.66,-5.41 6.81,-8.26l0.66,-0.86c0.36,-0.47 0.73,-0.94 1.08,-1.42 0.59,-0.79 1.13,-1.62 1.72,-2.41 1.08,-1.61 2.16,-3.21 3.09,-4.91a22.48,22.48 0,0 0,1.38 -3,3.48 3.48,0 0,1 0.25,-0.75 10,10 0,0 0,0.06 -6.26C94.89,38.39 86.43,41 81.71,41.78" fill="#4f4e4e" fill-opacity="1"/>
    <path d="M109.29,18.13a5.87,5.87 0,0 0,-3 -1.21,9.34 9.34,0 0,0 -3.34,0.59c-5.31,1.8 -9.75,5.5 -15,7.41a20.25,20.25 0,0 1,-3.35 1,8 8,0 0,1 -6.48,-1.68 4.75,4.75 0,0 1,-1.45 -1.88,4.57 4.57,0 0,1 -0.19,-2.46 19.61,19.61 0,0 1,3.28 -7.18,37.84 37.84,0 0,1 2.46,-3.54 25.09,25.09 0,0 1,2.69 -3.13,5.86 5.86,0 0,1 4,-1.57l-0.85,-0.71a2.33,2.33 0,0 0,-1.38 -0.64c-1.74,-0.13 -3.12,0.9 -4.37,2A29.62,29.62 0,0 0,78.38 9.3,53.81 53.81,0 0,0 75,14.11c-1.63,2.62 -3.55,5.87 -2.34,9A7.77,7.77 0,0 0,74.83 26,10.41 10.41,0 0,0 80.4,28.7 12.68,12.68 0,0 0,85.82 28a34.39,34.39 0,0 0,5.8 -2.71c2,-1.12 3.95,-2.34 6,-3.44 1.19,-0.66 2.4,-1.29 3.62,-1.91A16.58,16.58 0,0 1,108 18Z" fill="#4e4e4e" fill-opacity="1"/>
    <path d="M109.29,18.13a5.84,5.84 0,0 0,-3 -1.21,9.28 9.28,0 0,0 -3.33,0.59c-5.31,1.81 -9.76,5.5 -15,7.41a19.68,19.68 0,0 1,-3.35 1,8 8,0 0,1 -6.48,-1.68 4.77,4.77 0,0 1,-1.45 -1.88,4.57 4.57,0 0,1 -0.18,-2.46 19.29,19.29 0,0 1,3.28 -7.18,41.24 41.24,0 0,1 2.45,-3.54 25.17,25.17 0,0 1,2.7 -3.13,5.82 5.82,0 0,1 4,-1.57l-0.84,-0.71a2.39,2.39 0,0 0,-1.39 -0.64c-1.74,-0.13 -3.12,0.91 -4.37,2A30.11,30.11 0,0 0,78.39 9.3,51.26 51.26,0 0,0 75,14.11c-1.64,2.62 -3.56,5.87 -2.34,9.05A7.53,7.53 0,0 0,74.84 26a10.23,10.23 0,0 0,5.57 2.66A12.63,12.63 0,0 0,85.82 28a34.07,34.07 0,0 0,5.81 -2.71c2,-1.12 3.94,-2.34 6,-3.44 1.19,-0.66 2.4,-1.29 3.62,-1.9A16.75,16.75 0,0 1,108 18Z" fill="#383838" fill-opacity="1"/>
    <path d="M77.89,24.17a4.74,4.74 0,0 1,-1.46 -2,4.79 4.79,0 0,1 -0.21,-0.74l-4,0.41a4.89,4.89 0,0 0,1 2.45,10.85 10.85,0 0,0 7,4.27L80,25.4 79.19,25a3.68,3.68 0,0 1,-0.71 -0.42l-0.59,-0.44" fill="#4f4e4e" fill-opacity="1"/>
    <path d="M9.11,85.46a16.21,16.21 0,0 1,0.23 2c0.06,0.69 0.11,1.38 0.18,2.07s0.14,1.17 0.24,1.76a40.76,40.76 0,0 0,3.15 10,33 33,0 0,0 7.75,10.83l0.2,0.18a14.11,14.11 0,0 0,1.18 0.85,21.48 21.48,0 0,0 2.26,1.36 4.86,4.86 0,0 0,2.26 0.67c1.85,0 2.65,-1.75 2.62,-3.4A15.93,15.93 0,0 0,26 103.34a35.06,35.06 0,0 0,-6.39 -6.66c-3.14,-2.62 -6.76,-5.17 -8.56,-9 -0.21,-0.43 -0.4,-0.88 -0.62,-1.31s-0.45,-1.1 -1,-1.29a0.27,0.27 0,0 0,-0.3 0C9.07,85.22 9.09,85.34 9.11,85.46Z" fill="#161616" fill-opacity="1"/>
    <path d="M88.38,4.52l-0.42,0a4.54,4.54 0,0 0,-2 0.7,13.06 13.06,0 0,0 -3.31,3.32c-1.06,1.35 -2,2.77 -3,4.2a19.61,19.61 0,0 0,-3.28 7.18,4.67 4.67,0 0,0 0.18,2.46 4.87,4.87 0,0 0,1.45 1.88A8,8 0,0 0,84.56 26a20.25,20.25 0,0 0,3.35 -1c5.28,-1.91 9.72,-5.6 15,-7.41a9.11,9.11 0,0 1,3.34 -0.58,5.81 5.81,0 0,1 3,1.2 12.13,12.13 0,0 0,-2.65 -3.33,38 38,0 0,0 -15,-9.54A10,10 0,0 0,88.38 4.52Z" fill="#2d2d2d" fill-opacity="1"/>
    <path d="M88.88,8.37a17.4,17.4 0,0 1,5.54 2.57,15.65 15.65,0 0,1 3.51,3.57" fill="#000000" fill-opacity="0" stroke="#4c4c4c" stroke-opacity="1" stroke-width="0.32" stoke-linecap="round"/>
    <path d="M88.52,10.2a13.55,13.55 0,0 1,2.81 1.1,13.29 13.29,0 0,1 2.25,1.56 8.12,8.12 0,0 1,1.83 2.05" fill="#000000" fill-opacity="0" stroke="#4c4c4c" stroke-opacity="1" stroke-width="0.32" stoke-linecap="round"/>
    <path d="M88.28,12.18A13,13 0,0 1,92.66 15" fill="#000000" fill-opacity="0" stroke="#4c4c4c" stroke-opacity="1" stroke-width="0.32" stoke-linecap="round"/>
    <path d="M87.65,21.93a13.52,13.52 0,0 1,-2.81 -1.09,13.85 13.85,0 0,1 -2.26,-1.57 8.06,8.06 0,0 1,-1.82 -2" fill="#000000" fill-opacity="0" stroke="#4c4c4c" stroke-opacity="1" stroke-width="0.32" stoke-linecap="round"/>
    <path d="M87.88,20a12.76,12.76 0,0 1,-4.37 -2.85" fill="#000000" fill-opacity="0" stroke="#4c4c4c" stroke-opacity="1" stroke-width="0.32" stoke-linecap="round"/>
    <path d="M96.9,43.82l15.66,-17.44 0.18,-1 0.11,-0.95 0,-1.33 -0.12,-1a5.69,5.69 0,0 0,-3.12 -4l-1.3,-0.17L88.53,40.65l1.25,-0.11h1.13l0.39,0c2.38,0.17 4.47,1 5.6,3.27" fill="#6c6c6c" fill-opacity="0.5"/>
    <path d="M30.39,110.77a13,13 0,0 0,-1 -4.09,19.75 19.75,0 0,0 -2,-3.7 32.18,32.18 0,0 0,-5.7 -6.19c-2.1,-1.88 -4.43,-3.55 -6.42,-5.62a17.35,17.35 0,0 1,-2.6 -3.42,21.21 21.21,0 0,1 -0.9,-1.94l-0.43,-1a1.37,1.37 0,0 0,-0.67 -0.77,1.43 1.43,0 0,1 0.76,0.73l0.49,0.94c0.33,0.64 0.64,1.27 1,1.86a17.3,17.3 0,0 0,2.68 3.24c2,2 4.32,3.61 6.49,5.48a30.92,30.92 0,0 1,5.68 6.4A14.85,14.85 0,0 1,30.39 110.77Z" fill="#ffffff" fill-opacity="0.15"/>
    <path d="M-49.83,-3047.21H1484.92V1029.07H-49.83z" fill="#000000" fill-opacity="0" stroke="#32dd14" stroke-opacity="1" stroke-width="25.4"/>
</svg>