<svg xmlns="http://www.w3.org/2000/svg" width="120.0" height="120.0" viewBox="0 0 120.0 120.0">
    <path d="M30,56.57C20.74,69 15.48,88.2 30.34,99.46 44.22,110 57.78,103 65.74,96.64S79.07,80 79.07,80s12.72,-22.9 15.6,-31.72 7.48,-25.13 -0.23,-30.94S73.83,18.45 65,23.54 39.24,44 30,56.57ZM39.83,75.08c6.14,-8.14 14.11,-12.49 17.79,-9.72S59.27,77 53.13,85.14 39,97.63 35.35,94.85 33.66,83.22 39.79,75.08Z" fill="#49627c" fill-opacity="1"/>
    <path d="M73.76,88.26S97.35,45.93 96.57,39.68c-0.5,-3.9 -2.52,-3.74 -4,-3.07a5.82,5.82 0,0 0,-2.14 1.74c-2.81,3.55 -14.68,18.56 -20.64,27C63,75 53.9,83.89 52.35,86.25s14.7,-20.94 18.32,-27.63S85.44,28.63 79,23.8s-26.82,9.76 -26.82,9.76 29.52,-26.68 43,-16.07C110.23,29.26 81.48,77 81.48,77Z" fill="#49627c" fill-opacity="1"/>
    <path d="M20.59,80.54s-0.7,12.86 15.85,22c14.92,8.28 31.2,-7.41 31.2,-7.41s-8.21,6.17 -16.61,7c-8.63,0.83 -13.47,0.07 -18.41,-3.07C23.42,93.24 20.59,80.54 20.59,80.54Z" fill="#405368" fill-opacity="1"/>
    <path d="M52.35,86.25s0.25,-0.41 0.68,-1.18c3.58,-6.32 22.09,-39.23 10.52,-45.94 -9.47,-5.51 -28.16,16 -32.1,20.95C26,67 21.08,78.36 23.93,87.35 27,97.1 39.68,95.88 39.68,95.88s-9,3.75 -13.67,-1.58C15.92,82.82 21.72,68.88 26.24,61c5.11,-8.86 19.89,-23 26,-27.47S74.13,20.1 79,23.8s-2.36,22.08 -2.36,22.08S71.9,58.45 65.16,67.81 52.35,86.25 52.35,86.25Z" fill="#58738a" fill-opacity="1"/>
    <path d="M52.35,86.25s9.85,-15 5.36,-20.53c-2.68,-3.3 -9.06,0.79 -13,4.28A41,41 0,0 0,35.6 82.5c-2.27,4.74 -3.61,9.81 -0.25,12.35 2.9,2 6.36,0.5 6.36,0.5a11.5,11.5 0,0 1,-11.58 -3A13.94,13.94 0,0 1,26 79.83c0.07,-1.33 2.13,-8.7 6.93,-14.76s15.79,-13.25 24.75,-6.5S52.35,86.25 52.35,86.25Z" fill="#405368" fill-opacity="1"/>
    <path d="M74.94,83.29 L90.65,54.53s6.68,-11.89 3.76,-14.29c-2.49,-2 -11,10 -13.45,13.62Q80.2,55 79.34,56.05S62.7,79.41 56.2,86.27a49.22,49.22 0,0 1,-13.86 10,22.35 22.35,0 0,1 -6.82,1.59c-1.39,-0.1 4.7,3.92 11.32,3.59s15.22,-3.33 20,-8A59.94,59.94 0,0 0,74.94 83.29Z" fill="#49627c" fill-opacity="1"/>
    <path d="M-92.63,-2733.49H1442.16V1446.65H-92.63z" fill="#000000" fill-opacity="0" stroke="#ffffff" stroke-opacity="1" stroke-width="5.0"/>
</svg>