<svg xmlns="http://www.w3.org/2000/svg" width="120.0" height="120.0" viewBox="0 0 120.0 120.0">
    <path d="M46.19,107c-6.31,-2.36 -12.46,-4.34 -17.71,-8.27 -3.66,-2.74 -3.9,-4.88 -1.13,-8.59 2.22,-3 5.51,-3.78 8.82,-4.64 6.24,-1.62 12.68,-2.26 18.89,-4.09A15.54,15.54 0,0 0,65.72 61.59a25.86,25.86 0,0 0,-2 -4.88A16.83,16.83 0,0 1,62 44.14c0.64,-2.59 0,-4.34 -2.11,-6.09 -4.8,-4 -8.1,-9 -7.09,-15.58C54.47,11.68 65.73,7 75.2,13.06a15.54,15.54 0,0 1,7.66 14.51c-0.17,4 1.15,6.36 4.54,8.5A14.77,14.77 0,0 1,90 59.4c-5.19,5.18 -9.36,10.7 -10.78,18.06 -0.58,3 0,4.45 3.28,5.16 4.37,0.94 9,2.49 10.15,7.52s-1.29,9.09 -5.28,12.21c-9.62,7.51 -20.67,8.05 -32.11,6.48C52.09,108.4 49,107.6 46.19,107Z" fill="#2d2d2d" fill-opacity="1"/>
    <path d="M77.18,24.94c-0.73,4.23 -3.13,5.8 -3.05,6s1.66,-0.43 3.22,-1.85a6.44,6.44 0,0 0,1.77 -6.33c-0.87,-3.12 -3.52,-6.62 -4,-6.28S77.84,21.13 77.18,24.94Z" fill="#494949" fill-opacity="1" fill-rule="evenodd"/>
    <path d="M89.68,48.56c-0.74,4.22 -3.14,5.79 -3.06,6s1.66,-0.43 3.23,-1.86a6.43,6.43 0,0 0,1.76 -6.32c-0.86,-3.13 -3.52,-6.63 -3.94,-6.29S90.34,44.75 89.68,48.56Z" fill="#494949" fill-opacity="1" fill-rule="evenodd"/>
    <path d="M66.27,64.05a6.32,6.32 0,0 1,0.15 1.37,14.93 14.93,0 0,1 -0.06,2.84 15.29,15.29 0,0 1,-0.81 3.53c0,-0.09 1.08,-0.5 1.56,-0.88 1.65,-1.3 4.57,-2.69 5.54,-4.55 0.19,-0.37 0.36,-0.75 0.52,-1.13a2.85,2.85 0,0 0,0.35 -1.09c0.14,-0.52 -2.77,0.27 -4.27,0.14A5.59,5.59 0,0 1,66 62.61a7.1,7.1 0,0 1,0.17 0.8C66.17,63.47 66.25,64 66.27,64.05Z" fill="#1e1e1e" fill-opacity="1" fill-rule="evenodd"/>
    <path d="M87.31,102.49a32.22,32.22 0,0 1,-16.09 6.64,61.13 61.13,0 0,1 -18.51,-0.51 68.2,68.2 0,0 1,-12.89 -3.83A47.63,47.63 0,0 1,28.47 98.9c-3.65,-2.73 -3.9,-4.87 -1.13,-8.58l1.77,2c3.52,4.07 8.75,6.7 13.69,8.63a72.58,72.58 0,0 0,16.57 4.12,47.77 47.77,0 0,0 14.52,0.16c5.06,-0.86 9.87,-3.08 14.32,-5.52a19.35,19.35 0,0 0,3.24 -2,21.46 21.46,0 0,1 -1.68,2.31c-0.74,0.87 -1.52,1.63 -1.52,1.63Z" fill="#1e1e1e" fill-opacity="1"/>
    <path d="M76.36,80.1c0.49,4.46 2.61,5.79 2.53,6.08s-1.5,-0.2 -2.86,-1.5 -2,-3.89 -1.34,-6.59c0.91,-3.53 3.47,-7.75 3.84,-7.45S75.92,76.06 76.36,80.1Z" fill="#494949" fill-opacity="1" fill-rule="evenodd"/>
    <path d="M62.07,44.13a17.2,17.2 0,0 0,-0.49 3.66c0.46,-0.35 1,-0.64 1.41,-1a15,15 0,0 0,4 -4.9c0.19,-0.37 0.36,-0.74 0.52,-1.13a2.69,2.69 0,0 0,0.35 -1.09c0.14,-0.52 -2.77,0.27 -4.27,0.15a5.68,5.68 0,0 1,-3.24 -1.68,1 1,0 0,0 0,0.24A5.25,5.25 0,0 1,62.07 44.13Z" fill="#1e1e1e" fill-opacity="1"/>
</svg>