<svg xmlns="http://www.w3.org/2000/svg" width="120.0" height="120.0" viewBox="0 0 120.0 120.0">
    <path d="M78.33,66.11c-2.68,4.5 -5.77,8.17 -10.39,10.51a13.42,13.42 0,0 0,-6.79 15.87c1.13,4.15 2.19,8.32 3.35,12.46a4.35,4.35 0,0 1,-1.69 5.15c-4.67,3.7 -9.56,5.91 -15.65,4 -7.38,-2.32 -14.52,-5 -20.92,-9.54 -4.32,-3.06 -4.82,-7.6 -4.84,-12.11 0,-3.86 3.59,-4.88 6.52,-6.15 3.38,-1.46 6.73,-3 10.15,-4.4 8.65,-3.49 11.7,-7.79 11.63,-17.07 -0.06,-6.93 3,-12.69 6.76,-18.07A364.23,364.23 0,0 1,85.57 9.53,28 28,0 0,1 88.26,7c2.26,-1.93 4.83,-2.63 7.48,-1.14s3.17,3.88 2.83,6.69c-0.63,5.19 -2.8,9.93 -4.5,14.8A355.8,355.8 0,0 1,78.33 66.11Z" fill="#177986" fill-opacity="1"/>
    <path d="M63.13,109.69a5.28,5.28 0,0 1,-1.47 1.43c-0.31,0.23 0.56,-0.41 -0.21,0.16a21.75,21.75 0,0 1,-3.62 2.18,16.06 16.06,0 0,1 -4,1.33c-3,0.54 -5.28,0 -8.06,-1 -3.33,-1.12 -6.71,-2.31 -10,-3.74A54.25,54.25 0,0 1,26 104.59a11.3,11.3 0,0 1,-4.46 -8.5,24.19 24.19,0 0,1 -0.17,-3.41 5.76,5.76 0,0 1,0.22 -1.62c0,0.41 0.54,1.14 0.71,1.49 1.27,2.51 4.16,4.3 7.15,6.08a53.8,53.8 0,0 0,9.11 4.64,66.83 66.83,0 0,0 8.71,2.55c4.22,1 7.25,1 11,2.1A24.35,24.35 0,0 1,63.13 109.69Z" fill="#9fa2a3" fill-opacity="1"/>
    <path d="M52.14,115a16.68,16.68 0,0 1,-6.41 -1.14l1.53,-8c1.23,0.28 2.36,0.49 3.44,0.67 1.59,0.26 3.06,0.46 4.56,0.74 1,0.18 1.93,0.39 3,0.69l1.6,0.46Z" fill="#cccece" fill-opacity="1"/>
    <path d="M56.05,71.64l-0.43,-0.24a16.66,16.66 0,0 1,-3.81 -3.19,16.44 16.44,0 0,1 -2.23,-2.83c0,0.34 -0.1,0.67 -0.11,1s0,0.85 0,1.27a21.22,21.22 0,0 1,-0.55 4,12.92 12.92,0 0,1 -3.41,6.18c-0.1,0.11 -0.76,0.67 -0.86,0.79a12.54,12.54 0,0 1,1.9 -0.33l0.93,-0.19a40.59,40.59 0,0 0,6.72 -2.28c0.68,-0.28 1.35,-0.57 2,-0.88s1.3,-0.68 2,-1a3.29,3.29 0,0 0,0.73 -0.48,0.84 0.84,0 0,0 0.18,-0.24 0.37,0.37 0,0 0,0 -0.29,0.44 0.44,0 0,0 -0.27,-0.21A22.44,22.44 0,0 1,56.05 71.64Z" fill="#166b72" fill-opacity="1" fill-rule="evenodd"/>
    <path d="M92.61,5.48a2,2 0,0 0,0.12 0.23,10.4 10.4,0 0,0 0.7,0.79 4.55,4.55 0,0 1,0.73 1.06c1,2.14 0.18,4.61 -0.65,6.66q-2.43,6.06 -4.9,12.11 -1.26,3.11 -2.54,6.2c-3.76,9.16 -7.5,18.32 -11.68,27.29l-0.06,0.14a35.61,35.61 0,0 1,-3.89 6.89,13.91 13.91,0 0,1 -9.26,5.3 3.36,3.36 0,0 1,-2.71 -0.3A4.43,4.43 0,0 0,60 72.5a10,10 0,0 0,1.7 0.41c0.74,0.07 4.26,0.59 5,0.57 2,0 4,-0.16 5.59,-1.23a21.4,21.4 0,0 0,7.75 -9.81c1.27,-3 2.71,-5.91 4,-8.91 2.52,-6 4.83,-12.08 7.17,-18.23 1.63,-4.29 3.18,-9.19 4.87,-13.45a40.38,40.38 0,0 0,1.67 -5.2c0.28,-1.13 0.54,-2.37 0.73,-3.54A12.22,12.22 0,0 0,98.56 10a6.44,6.44 0,0 0,-0.7 -2.05,6.71 6.71,0 0,0 -3.78,-2.75A5.2,5.2 0,0 0,92.41 5,1.89 1.89,0 0,0 92.61,5.48Z" fill="#2497a0" fill-opacity="1" fill-rule="evenodd"/>
    <path d="M60,99.6c1.56,5.41 3.28,6 3.31,6.37s-1,0.54 -2.24,-0.38 -2.39,-3.83 -2.7,-7.64c-0.4,-5 0.05,-11.7 0.37,-11.52S58.55,94.72 60,99.6Z" fill="#2497a0" fill-opacity="1" fill-rule="evenodd"/>
    <path d="M-123.21,-2483.18H744.26V1156.76H-123.21z" fill="#000000" fill-opacity="0" stroke="#3299fe" stroke-opacity="1" stroke-width="24.22"/>
</svg>