<svg xmlns="http://www.w3.org/2000/svg" width="120.0" height="120.0" viewBox="0 0 120.0 120.0">
    <path d="M66.35,19.17c15.87,7.16 29.51,21.92 30,40.13a32.84,32.84 0,0 1,-0.68 7.6,25.77 25.77,0 0,1 -3.44,8.75 93.5,93.5 0,0 1,-5.17 8.12c-1.38,1.76 -2.47,3.78 -3.91,5.49s-2.12,3.41 -3.28,5a35.89,35.89 0,0 1,-8.14 8.58c-7.65,5.51 -19.35,4.35 -26.1,-2.08a20.39,20.39 0,0 1,-5 -6.52A20.13,20.13 0,0 1,39 87.4c-0.4,-6.55 -1.79,-13 -2.44,-19.51C36,62.08 35.71,56 32.71,50.78c-4,-6.86 -10.36,-12.87 -8.65,-21.65A16.94,16.94 0,0 1,29 19.7,23.61 23.61,0 0,1 39.32,14c4.08,-1 9.31,0.09 13.37,0.86A61.53,61.53 0,0 1,66.35 19.17Z" fill="#d8a6a1" fill-opacity="1"/>
    <path d="M52.51,15.25a20.19,20.19 0,0 0,-5 -0.94,24.13 24.13,0 0,0 -8.39,0A23.53,23.53 0,0 0,28.8 20.06a17,17 0,0 0,-4.91 9.44A17.34,17.34 0,0 0,26 40.7c1,1.94 2.33,3.6 3.46,5.46s1.92,3.78 3.56,5.15a8.89,8.89 0,0 0,5.76 1.8,20.62 20.62,0 0,0 9.51,-2.62c6.68,-3.65 10.9,-11.05 11.38,-18.56 0.32,-4.93 -1,-11.6 -4.73,-15.17A7.2,7.2 0,0 0,52.51 15.25Z" fill="#dfbdba" fill-opacity="1"/>
    <path d="M31.157,38.154a8.58,6.66 113.96,1 0,6.969 -15.681a8.58,6.66 113.96,1 0,-6.969 15.681z" fill="#ae8f8c" fill-opacity="1"/>
    <path d="M41.48,29.07a9.41,9.41 0,0 1,-1.22 5.18,10.38 10.38,0 0,1 -1.65,2.2 9.38,9.38 0,0 1,-2.27 1.62,7.2 7.2,0 0,1 -2.74,0.73 5.53,5.53 0,0 1,-5.81 -4.95,6.39 6.39,0 0,0 3.41,3.48A5.76,5.76 0,0 0,35.79 37a9.74,9.74 0,0 0,3.64 -3.21A13.11,13.11 0,0 0,41.48 29.07Z" fill="#a08180" fill-opacity="1"/>
    <path d="M35.88,57.77C37.3,54 42.57,55.25 45,57.23c4.24,3.41 4.71,8.67 5.16,13.73a60.66,60.66 0,0 1,-0.12 13.13c-0.5,4 -2.51,8.1 -2.22,12.09 0.27,3.67 2.74,5.58 4.67,8.33 -0.18,-0.25 -1.86,-0.38 -2.27,-0.59a19.08,19.08 0,0 1,-2.61 -1.55,21.53 21.53,0 0,1 -4.29,-4 20.54,20.54 0,0 1,-4.6 -11.53c-0.65,-8.61 -1.89,-17.14 -3,-25.69a7.64,7.64 0,0 1,0 -2.78A3.54,3.54 0,0 1,35.88 57.77Z" fill="#e5b4b1" fill-opacity="1"/>
    <path d="M42.856,86.825a2.76,2.39 94.49,1 0,0.432 -5.503a2.76,2.39 94.49,1 0,-0.432 5.503z" fill="#cb9c98" fill-opacity="1"/>
    <path d="M39.509,69.862a2.76,2.39 76.41,1 0,4.646 -1.123a2.76,2.39 76.41,1 0,-4.646 1.123z" fill="#cb9c98" fill-opacity="1"/>
    <path d="M40.81,71.7a2.68,2.68 0,0 1,-1.33 -1.54,3.06 3.06,0 0,1 0,-2.13 2.42,2.42 0,0 1,1.57 -1.47,2.06 2.06,0 0,1 2,0.47 2.34,2.34 0,0 0,-1.82 0,2.16 2.16,0 0,0 -1.15,1.24A3.33,3.33 0,0 0,40.81 71.7Z" fill="#bc8e8b" fill-opacity="1"/>
    <path d="M42.13,86.5A2.68,2.68 0,0 1,40.8 85a3.06,3.06 0,0 1,0 -2.13,2.42 2.42,0 0,1 1.57,-1.47 2.06,2.06 0,0 1,2 0.47,2.39 2.39,0 0,0 -1.82,0 2.21,2.21 0,0 0,-1.15 1.25A3.33,3.33 0,0 0,42.13 86.5Z" fill="#bc8e8b" fill-opacity="1"/>
    <path d="M68,77.77c2.91,-3.83 6,-7.64 10.1,-10.43A18.57,18.57 0,0 1,85 64.42a8.43,8.43 0,0 1,3.86 0.15,5 5,0 0,1 1.8,1 4.57,4.57 0,0 1,1.19 1.69,7.42 7.42,0 0,1 0.41,3.88 17,17 0,0 1,-1 3.62A55.08,55.08 0,0 1,88 81.27c-1.11,2.16 -2.34,4.25 -3.62,6.3s-2.66,4 -4,6c1.15,-2.12 2.38,-4.2 3.52,-6.32s2.29,-4.23 3.29,-6.41a68.8,68.8 0,0 0,3 -6.53A15.69,15.69 0,0 0,91 71a6.17,6.17 0,0 0,-0.35 -3.24,3.28 3.28,0 0,0 -2.21,-2 7.31,7.31 0,0 0,-3.3 -0.16,19.1 19.1,0 0,0 -6.48,2.56 33.44,33.44 0,0 0,-5.58 4.45C71.32,74.22 69.71,76 68,77.77Z" fill="#c1908e" fill-opacity="1"/>
    <path d="M84.31,65.1a7.49,7.49 0,0 1,4.75 -0.45,4.56 4.56,0 0,1 2.27,1.44 6.44,6.44 0,0 1,0.73 1.16,7.33 7.33,0 0,1 0.41,1.28 10.91,10.91 0,0 1,-0.29 5A29.61,29.61 0,0 1,90.44 78c-0.7,1.41 -1.44,2.75 -2.14,4.1s-1.52,2.72 -2.38,4a63.28,63.28 0,0 1,-5.63 7.4c1.18,-2.88 2.59,-5.63 3.93,-8.36l4,-8.23a31.76,31.76 0,0 0,1.72 -4.07,10.14 10.14,0 0,0 0.64,-4 3.5,3.5 0,0 0,-1.93 -3.06A8.62,8.62 0,0 0,84.31 65.1Z" fill="#a37c78" fill-opacity="1"/>
    <path d="M-843.99,-1010.93H690.76V2494.08H-843.99z" fill="#000000" fill-opacity="0" stroke="#32dd14" stroke-opacity="1" stroke-width="23.55"/>
</svg>