<svg xmlns="http://www.w3.org/2000/svg" width="120.0" height="120.0" viewBox="0 0 120.0 120.0">
    <path d="M55.7,44.19c-8.9,2.9 -16.12,0.19 -18.44,-1.94 -2.51,-2.33 -2.13,-4.47 0.1,-8.18a19.16,19.16 0,0 1,2.29 -2.81l-0.81,0.55c-5.77,4.88 -12.75,11.68 -16.05,17 -4.8,7.76 -0.57,14 6.16,10.73 2.48,-1.22 9.9,-5.22 18.87,-10l1.79,-0.95 0.44,-0.24 1.87,-1 0.09,0 1.79,-1 0.48,-0.25 3.8,-2 0.52,-0.27 1.92,-1h0l1.93,-1 0.45,-0.24 2,-1c-3.41,1.47 -6.66,2.76 -9.16,3.57" fill="#000000" fill-opacity="1"/>
    <path d="M85.54,14c-12.45,0 -18.32,1.81 -27.68,6.26A78.56,78.56 0,0 0,41.79 30.52a18.56,18.56 0,0 0,-2.29 2.82s-1.6,2.89 0,5 5.82,4 11,3.82 11.72,-1.84 19.72,-6 23.17,-11.6 28.19,-12.06 8.18,-0.42 10.16,2.05a5.8,5.8 0,0 1,0.89 2.34,12.85 12.85,0 0,0 -3.38,-8C102.61,17 98,14 85.54,14" fill="#000000" fill-opacity="1"/>
    <path d="M46.46,91.78c3.72,1.9 13.39,1.29 28.84,-9S97.18,67.77 91.64,64c-4.15,-1.38 -10,-0.36 -13.26,0.58 -5.59,1.6 -32.31,15.75 -36,16.21 -1.6,3.54 0.31,9.09 4,11" fill="#000000" fill-opacity="1"/>
    <path d="M97.59,21c-5,0.54 -20,9.51 -27.85,14.43s-14.4,6.88 -19.47,7.12S41,40.48 39.44,38s0,-6 0,-6c-2.2,4.44 -2.58,7 -0.1,9.78 2.29,2.55 9.42,5.79 18.22,2.33 2.47,-1 5.67,-2.52 9,-4.28h0c2.7,-1.7 5.27,-2.6 7.83,-4.16l0.47,-0.24c7.45,-4.54 17.75,-7.28 21.37,-8.83 11.18,-4.77 8.5,-0.47 12.18,1h0.06c0,-0.25 0,-0.73 0,-1.37a8,8 0,0 0,-0.88 -2.79c-2,-3 -5.08,-3 -10,-2.46" fill="#000000" fill-opacity="1"/>
    <path d="M65.18,25.59c-2.09,-1.71 -8.73,-3.87 -11.82,-3.23a11.58,11.58 0,0 0,-4.51 2c-6.41,4.69 -15,10.53 -18.35,15.41 -5.39,7.77 0.48,14 8,10.74 2.79,-1.22 11.12,-5.22 21.21,-10l2,-1 0.5,-0.24 2.09,-1 0.1,0 2,-0.95 1.64,-1a2.28,2.28 0,0 0,1.06 -1.39C70.09,30.79 67.59,27.58 65.18,25.59Z" fill="#000000" fill-opacity="1"/>
    <path d="M65.35,24.31c-2.09,-1.72 -8.76,-3.88 -11.88,-3.24a11.8,11.8 0,0 0,-4.53 2c-6.43,4.69 -15,10.53 -18.43,15.42 -5.42,7.76 0.48,14 8.09,10.73C41.4,48 49.78,44 59.91,39.23l2,-0.95 0.5,-0.24 2.1,-1 0.1,-0.05 2,-0.95c0.11,-0.05 1,-0.61 1.64,-1a2.31,2.31 0,0 0,1.07 -1.4C70.29,29.5 67.77,26.29 65.35,24.31Z" fill="#713936" fill-opacity="1" fill-rule="evenodd"/>
    <path d="M53.47,21a11.82,11.82 0,0 0,-4.53 2c-6.44,4.69 -15,10.53 -18.44,15.42 -1.84,2.64 -3.06,6.31 -1.07,9.22 0.82,-1.77 1.38,-3.65 2.3,-5.37A28.8,28.8 0,0 1,35.66 37c1.53,-1.79 3.08,-3.57 4.72,-5.26 1.06,-1.1 2.17,-2.16 3.33,-3.16 0.19,-0.17 0.4,-0.34 0.6,-0.5l3.24,-2.71a39.72,39.72 0,0 1,4.51 -3.57A5.94,5.94 0,0 1,53.47 21Z" fill="#7f4140" fill-opacity="1" fill-rule="evenodd"/>
    <path d="M37.32,40 L37.1,40 34,38.75c-0.3,-0.12 -0.42,-0.35 -0.28,-0.51a0.8,0.8 0,0 1,0.81 -0.08l3.13,1.23c0.3,0.11 0.42,0.34 0.27,0.5a0.66,0.66 0,0 1,-0.59 0.14" fill="#000000" fill-opacity="1"/>
    <path d="M54.79,28.87l-0.53,-0.16 0.53,-0.15c0.27,-0.07 0.4,-0.25 0.28,-0.39a0.77,0.77 0,0 0,-0.72 -0.11l-1.16,0.33 -1.07,-0.33a0.7,0.7 0,0 0,-0.67 0.12c-0.11,0.14 0,0.32 0.26,0.39l0.39,0.12 -0.65,0.19c-0.28,0.07 -0.4,0.25 -0.28,0.39a0.63,0.63 0,0 0,0.52 0.14,0.69 0.69,0 0,0 0.2,0L53.17,29l1.21,0.36 0.18,0a0.58,0.58 0,0 0,0.48 -0.15c0.12,-0.14 0,-0.32 -0.25,-0.4" fill="#000000" fill-opacity="1"/>
    <g>
        <clipPath id="clip_1">
            <path d="M62.93,41.14h0 M 0,0"/>
        </clipPath>
        <path d="M50.51 28.73H75.33V53.54H50.51z" clip-path="url(#clip_1)" fill="#c6b6c6" fill-opacity="1"/>
    </g>
    <g>
        <clipPath id="clip_1">
            <path d="M10.31,24.23H109.7V106.01H10.31z M 0,0"/>
        </clipPath>
        <g clip-path="url(#clip_1)">
            <clipPath id="clip_2">
                <path d="M7.82 21.92H110.53999999999999V106.27H7.82z M 0,0"/>
            </clipPath>
            <path d="M109.64,28.68c-.49,-4.69,-5.22,-6.11,-16.53,-2.12,-1.57.55,-3.67,1.44,-6.15,2.57,-3.32,1.51,-7.32,3.46,-11.64,5.64h0c-2.58,1.3,-5.28,2.68,-8,4.09l0,0c-5.76,3,-11.68,6.1,-17,9,-9,4.77,-16.39,8.76,-18.87,10,-6.74,3.32,-12,-3,-7.17,-10.73,3.3,-5.34,11.28,-12.14,17.06,-17C14,49.48,8.58,66.49,11.94,82.26,14.34,93.51,26.1,106,43.68,106S96.07,81.35,96.47,71.25c.17,-4.16,-1.92,-6.29,-4.83,-7.26,5.54,3.78,-.9,8.54,-16.34,18.81s-25.12,10.88,-28.85,9,-5.63,-7.46,-4,-11c0,0,1.94,-7.76,13.7,-14.61s36,-16.33,43.95,-22.83c7.7,-6.27,9.5,-10.84,9.62,-14,0,-.22,0,-.42,0,-.63" clip-path="url(#clip_2)" fill="#000000" fill-opacity="1"/>
        </g>
    </g>
    <g>
        <clipPath id="clip_1">
            <path d="M20.39,77.54a0.7,0.7 0,0 0,-0.23 0.11h0.71a0.71,0.71 0,0 0,-0.48 -0.11 M 0,0"/>
        </clipPath>
        <path d="M7.76 65.13H33.28V90.06H7.76z" clip-path="url(#clip_1)" fill="#3c3c3c" fill-opacity="1"/>
    </g>
    <g>
        <clipPath id="clip_1">
            <path d="M65.31,39.9l-0.45,0.24 0.45,-0.24 M 0,0"/>
        </clipPath>
        <path d="M52.45 27.5H77.71000000000001V52.54H52.45z" clip-path="url(#clip_1)" fill="#c6b6c6" fill-opacity="1"/>
    </g>
    <g>
        <clipPath id="clip_1">
            <path d="M67.25,38.89h0l0,0 0,0 M 0,0"/>
        </clipPath>
        <path d="M54.85 26.47H79.69V51.29H54.85z" clip-path="url(#clip_1)" fill="#c6b6c6" fill-opacity="1"/>
    </g>
    <g>
        <clipPath id="clip_1">
            <path d="M50.22,47.85l1.79,-1 -1.79,1 M 0,0"/>
        </clipPath>
        <path d="M37.82 34.49H64.42V60.25H37.82z" clip-path="url(#clip_1)" fill="#c6b6c6" fill-opacity="1"/>
    </g>
    <g>
        <clipPath id="clip_1">
            <path d="M67.28,38.87c2.74,-1.41 5.44,-2.79 8,-4.09 -2.58,1.3 -5.28,2.68 -8,4.09 M 0,0"/>
        </clipPath>
        <path d="M54.88 22.37H87.7V51.269999999999996H54.88z" clip-path="url(#clip_1)" fill="#c6b6c6" fill-opacity="1"/>
    </g>
    <g>
        <clipPath id="clip_1">
            <path d="M54.4,45.63l-0.08,0 0.08,0 M 0,0"/>
        </clipPath>
        <path d="M41.91 33.22H66.81V58.07H41.91z" clip-path="url(#clip_1)" fill="#c6b6c6" fill-opacity="1"/>
    </g>
    <g>
        <clipPath id="clip_1">
            <path d="M15,74.94a1.83,1.83 0,0 0,-0.56 -1.28h-0.66c0.42,0 0.76,0.59 0.76,1.32s-0.31,1.25 -0.7,1.31l0,0 0.68,0.06A1.7,1.7 0,0 0,15 74.94 M 0,0"/>
        </clipPath>
        <path d="M1.34 61.26H27.37V88.77H1.34z" clip-path="url(#clip_1)" fill="#aaaaaa" fill-opacity="1"/>
    </g>
    <g>
        <clipPath id="clip_1">
            <path d="M56.68,44.42l-0.48,0.26 0.48,-0.26 M 0,0"/>
        </clipPath>
        <path d="M43.79 32.02H69.08V57.08H43.79z" clip-path="url(#clip_1)" fill="#c6b6c6" fill-opacity="1"/>
    </g>
    <g>
        <clipPath id="clip_1">
            <path d="M52.45,46.66l-0.44,0.23 0.44,-0.23 M 0,0"/>
        </clipPath>
        <path d="M39.61 34.26H64.86V59.3H39.61z" clip-path="url(#clip_1)" fill="#c6b6c6" fill-opacity="1"/>
    </g>
    <g>
        <clipPath id="clip_1">
            <path d="M37.32,40 L37.1,40 34,38.75c-0.3,-0.12 -0.42,-0.35 -0.28,-0.51a0.8,0.8 0,0 1,0.81 -0.08l3.13,1.23c0.3,0.11 0.42,0.34 0.27,0.5a0.66,0.66 0,0 1,-0.59 0.14 M 0,0"/>
        </clipPath>
        <path d="M21.24 25.68H50.379999999999995V52.44H21.24z" clip-path="url(#clip_1)" fill="#663130" fill-opacity="1"/>
    </g>
    <g>
        <clipPath id="clip_1">
            <path d="M20.16,77.65h-0.11v0.12a1.36,1.36 0,0 1,0.12 -0.12 M 0,0"/>
        </clipPath>
        <path d="M7.64 65.25H32.57V90.17H7.64z" clip-path="url(#clip_1)" fill="#aaaaaa" fill-opacity="1"/>
    </g>
    <g>
        <clipPath id="clip_1">
            <path d="M97.59,21c-5,0.54 -20,9.51 -27.85,14.43s-14.4,6.88 -19.47,7.12S41,40.48 39.44,38s0,-6 0,-6c-2.2,4.44 -2.58,7 -0.1,9.78 2.29,2.55 9.42,5.79 18.22,2.33 2.47,-1 5.67,-2.52 9,-4.28h0c2.7,-1.7 5.27,-2.6 7.83,-4.16l0.47,-0.24c7.45,-4.54 17.75,-7.28 21.37,-8.83 11.18,-4.77 8.5,-0.47 12.18,1h0.06c0,-0.25 0,-0.73 0,-1.37a8,8 0,0 0,-0.88 -2.79c-2,-3 -5.08,-3 -10,-2.46 M 0,0"/>
        </clipPath>
        <path d="M25.38 5.87H120.8V60.47H25.38z" clip-path="url(#clip_1)" fill="#d04946" fill-opacity="1"/>
    </g>
    <g>
        <clipPath id="clip_1">
            <path d="M64.86,40.14l-1.93,1 1.93,-1 M 0,0"/>
        </clipPath>
        <path d="M50.53 27.73H77.27V53.54H50.53z" clip-path="url(#clip_1)" fill="#c6b6c6" fill-opacity="1"/>
    </g>
    <g>
        <clipPath id="clip_1">
            <path d="M75.3,34.78h0 M 0,0"/>
        </clipPath>
        <path d="M62.9 22.37H87.72999999999999V47.19H62.9z" clip-path="url(#clip_1)" fill="#c6b6c6" fill-opacity="1"/>
    </g>
    <g>
        <clipPath id="clip_1">
            <path d="M14,73.53a0.53,0.53 0,0 0,-0.31 0.13h0.68a0.54,0.54 0,0 0,-0.37 -0.13 M 0,0"/>
        </clipPath>
        <path d="M1.33 61.12H26.82V86.07H1.33z" clip-path="url(#clip_1)" fill="#3c3c3c" fill-opacity="1"/>
    </g>
    <g>
        <clipPath id="clip_1">
            <path d="M54.79,28.87l-0.53,-0.16 0.53,-0.15c0.27,-0.07 0.4,-0.25 0.28,-0.39a0.77,0.77 0,0 0,-0.72 -0.11l-1.16,0.33 -1.07,-0.33a0.7,0.7 0,0 0,-0.67 0.12c-0.11,0.14 0,0.32 0.26,0.39l0.39,0.12 -0.65,0.19c-0.28,0.07 -0.4,0.25 -0.28,0.39a0.63,0.63 0,0 0,0.52 0.14,0.69 0.69,0 0,0 0.2,0L53.17,29l1.21,0.36 0.18,0a0.58,0.58 0,0 0,0.48 -0.15c0.12,-0.14 0,-0.32 -0.25,-0.4 M 0,0"/>
        </clipPath>
        <path d="M38.72 15.62H67.52V41.82H38.72z" clip-path="url(#clip_1)" fill="#663130" fill-opacity="1"/>
    </g>
    <g>
        <clipPath id="clip_1">
            <path d="M20.51,80.49a0.64,0.64 0,0 0,0.52 0.13l0.14,-0.05Z M 0,0"/>
        </clipPath>
        <path d="M8.1 68.08H33.57V93.03999999999999H8.1z" clip-path="url(#clip_1)" fill="#3c3c3c" fill-opacity="1"/>
    </g>
    <g>
        <clipPath id="clip_1">
            <path d="M55.7,44.19c-8.9,2.9 -16.12,0.19 -18.44,-1.94 -2.51,-2.33 -2.13,-4.47 0.1,-8.18a19.16,19.16 0,0 1,2.29 -2.81l-0.81,0.55c-5.77,4.88 -12.75,11.68 -16.05,17 -4.8,7.76 -0.57,14 6.16,10.73 2.48,-1.22 9.9,-5.22 18.87,-10l1.79,-0.95 0.44,-0.24 1.87,-1 0.09,0 1.79,-1 0.48,-0.25 3.8,-2 0.52,-0.27 1.92,-1h0l1.93,-1 0.45,-0.24 2,-1c-3.41,1.47 -6.66,2.76 -9.16,3.57 M 0,0"/>
        </clipPath>
        <path d="M8.33 18.85H77.26V72.88H8.33z" clip-path="url(#clip_1)" fill="#d04946" fill-opacity="1"/>
    </g>
    <g>
        <clipPath id="clip_1">
            <path d="M46.46,91.78c3.72,1.9 13.39,1.29 28.84,-9S97.18,67.77 91.64,64c-4.15,-1.38 -10,-0.36 -13.26,0.58 -5.59,1.6 -32.31,15.75 -36,16.21 -1.6,3.54 0.31,9.09 4,11 M 0,0"/>
        </clipPath>
        <path d="M29.45 50.91H106.01V105.03H29.45z" clip-path="url(#clip_1)" fill="#af3e3c" fill-opacity="1"/>
    </g>
    <g>
        <clipPath id="clip_1">
            <path d="M56.2,44.68l-1.8,1 1.8,-1 M 0,0"/>
        </clipPath>
        <path d="M42 32.27H68.6V58.03H42z" clip-path="url(#clip_1)" fill="#c6b6c6" fill-opacity="1"/>
    </g>
    <g>
        <clipPath id="clip_1">
            <path d="M61,42.15l-0.52,0.27 0.52,-0.27 M 0,0"/>
        </clipPath>
        <path d="M48.08 29.75H73.4V54.83H48.08z" clip-path="url(#clip_1)" fill="#c6b6c6" fill-opacity="1"/>
    </g>
    <g>
        <clipPath id="clip_1">
            <path d="M62.92,41.15l-1.92,1 1.92,-1 M 0,0"/>
        </clipPath>
        <path d="M48.59 28.74H75.32000000000001V54.55H48.59z" clip-path="url(#clip_1)" fill="#c6b6c6" fill-opacity="1"/>
    </g>
    <g>
        <clipPath id="clip_1">
            <path d="M20.15,77.66h0c-0.46,0 -0.84,0.63 -0.84,1.4s0.38,1.39 0.84,1.39 0.83,-0.62 0.83,-1.39 -0.34,-1.34 -0.78,-1.39 M 0,0"/>
        </clipPath>
        <path d="M6.86 65.25H33.34V92.84H6.86z" clip-path="url(#clip_1)" fill="#ffffff" fill-opacity="1"/>
    </g>
    <g>
        <clipPath id="clip_1">
            <path d="M67.26,38.89h0l-1.94,1 2,-1 M 0,0"/>
        </clipPath>
        <path d="M52.9 26.49H79.66V52.31H52.9z" clip-path="url(#clip_1)" fill="#c6b6c6" fill-opacity="1"/>
    </g>
    <g>
        <clipPath id="clip_1">
            <path d="M54.32,45.67l-1.87,1 1.87,-1 M 0,0"/>
        </clipPath>
        <path d="M40.05 33.27H66.72V59.07000000000001H40.05z" clip-path="url(#clip_1)" fill="#c6b6c6" fill-opacity="1"/>
    </g>
    <g>
        <clipPath id="clip_1">
            <path d="M60.48,42.42l-3.8,2 3.8,-2 M 0,0"/>
        </clipPath>
        <path d="M44.27 30.02H72.88V56.83H44.27z" clip-path="url(#clip_1)" fill="#c6b6c6" fill-opacity="1"/>
    </g>
    <g>
        <clipPath id="clip_1">
            <path d="M14.51,75c0,-0.73 -0.34,-1.32 -0.76,-1.32h0c-0.41,0 -0.75,0.6 -0.75,1.32s0.35,1.32 0.77,1.32h0.08s0,0 0,0c0.39,-0.06 0.7,-0.62 0.7,-1.31 M 0,0"/>
        </clipPath>
        <path d="M0.58 61.26H26.919999999999998V88.71H0.58z" clip-path="url(#clip_1)" fill="#ffffff" fill-opacity="1"/>
    </g>
    <g>
        <clipPath id="clip_1">
            <path d="M13.83,76.31a0.59,0.59 0,0 0,0.42 0.16,0.52 0.52,0 0,0 0.26,-0.1Z M 0,0"/>
        </clipPath>
        <path d="M1.43 63.9H26.919999999999998V88.88H1.43z" clip-path="url(#clip_1)" fill="#3c3c3c" fill-opacity="1"/>
    </g>
    <g>
        <clipPath id="clip_1">
            <path d="M21.62,78.9a2,2 0,0 0,-0.75 -1.25h-0.72c0.44,0 0.78,0.65 0.78,1.39s-0.37,1.39 -0.83,1.39l0.41,0 0.66,0.08a1.52,1.52 0,0 0,0.45 -1.67 M 0,0"/>
        </clipPath>
        <path d="M7.69 65.25H34.07V92.98H7.69z" clip-path="url(#clip_1)" fill="#aaaaaa" fill-opacity="1"/>
    </g>
</svg>