<svg xmlns="http://www.w3.org/2000/svg" width="120.0" height="120.0" viewBox="0 0 120.0 120.0">
    <path d="M105.66,22.87l0,0.06Z" fill="#1d1d1b" fill-opacity="1" fill-rule="evenodd"/>
    <path d="M105.59,22.77l0,0.09Z" fill="#1d1d1b" fill-opacity="1" fill-rule="evenodd"/>
    <path d="M104,21.32a10.64,10.64 0,0 0,-5.65 -2C90,18.65 80.82,25.22 75.78,29.49c-6.44,5.45 -12.23,11.26 -18,17.11 -4.41,4.49 -8.92,8.85 -13,13.53q-2.13,2.25 -4.24,4.52L30.82,75.4q-2.36,2.68 -4.73,5.36l3.34,-3.87L37,68.19c5.51,-6.45 11.31,-12.68 16.9,-19.1 3.34,-3.85 7.08,-7.41 10.26,-11.31A87.37,87.37 0,0 0,69.57 30a14.7,14.7 0,0 0,1.61 -3.19c0.56,-1.63 1,-3.37 1.58,-5 0.95,-2.6 3.13,-4.86 5.43,-6.78 4.23,-3 5.79,-3.44 6.57,-3.74 3.55,-1.36 8,-1.24 10.46,0.35a29.11,29.11 0,0 1,5.4 4.94c1.25,1.36 2.44,2.77 3.65,4.32 0.61,0.74 1,1.6 1.44,2.21A10.11,10.11 0,0 0,104 21.32Z" fill="#aaaaaa" fill-opacity="1" fill-rule="evenodd"/>
    <path d="M26,80.89c0.05,-0.08 0.06,-0.08 0.12,-0.1Z" fill="#1d1d1b" fill-opacity="1" fill-rule="evenodd"/>
    <path d="M25.82,81.07c0,-0.08 0.09,-0.15 0.17,-0.15Z" fill="#1d1d1b" fill-opacity="1" fill-rule="evenodd"/>
    <path d="M25.71,81.2c0.05,-0.08 0.06,-0.08 0.12,-0.1Z" fill="#1d1d1b" fill-opacity="1" fill-rule="evenodd"/>
    <path d="M25.6,81.33c0,-0.08 0.06,-0.08 0.12,-0.1Z" fill="#1d1d1b" fill-opacity="1" fill-rule="evenodd"/>
    <path d="M25.49,81.46c0.05,-0.08 0.06,-0.08 0.12,-0.1Z" fill="#1d1d1b" fill-opacity="1" fill-rule="evenodd"/>
    <path d="M25.43,81.48h0Z" fill="#1d1d1b" fill-opacity="1" fill-rule="evenodd"/>
    <path d="M25.38,81.59c0,-0.06 0,0 0.07,0Z" fill="#1d1d1b" fill-opacity="1" fill-rule="evenodd"/>
    <path d="M25.32,81.61h0Z" fill="#1d1d1b" fill-opacity="1" fill-rule="evenodd"/>
    <path d="M25.27,81.72c0,-0.06 0,0 0.07,0Z" fill="#1d1d1b" fill-opacity="1" fill-rule="evenodd"/>
    <path d="M25.21,81.74h0Z" fill="#1d1d1b" fill-opacity="1" fill-rule="evenodd"/>
    <path d="M25.17,81.79h0Z" fill="#1d1d1b" fill-opacity="1" fill-rule="evenodd"/>
    <path d="M25.1,81.87h0Z" fill="#1d1d1b" fill-opacity="1" fill-rule="evenodd"/>
    <path d="M25.05,81.92h0Z" fill="#1d1d1b" fill-opacity="1" fill-rule="evenodd"/>
    <path d="M25,82h0Z" fill="#1d1d1b" fill-opacity="1" fill-rule="evenodd"/>
    <path d="M24.94,82.05h0Z" fill="#1d1d1b" fill-opacity="1" fill-rule="evenodd"/>
    <path d="M24.88,82.13h0Z" fill="#1d1d1b" fill-opacity="1" fill-rule="evenodd"/>
    <path d="M24.83,82.18h0Z" fill="#1d1d1b" fill-opacity="1" fill-rule="evenodd"/>
    <path d="M24.77,82.26h0Z" fill="#1d1d1b" fill-opacity="1" fill-rule="evenodd"/>
    <path d="M24.72,82.31h0Z" fill="#1d1d1b" fill-opacity="1" fill-rule="evenodd"/>
    <path d="M24.61,82.44h0Z" fill="#1d1d1b" fill-opacity="1" fill-rule="evenodd"/>
    <path d="M24.5,82.57h0Z" fill="#1d1d1b" fill-opacity="1" fill-rule="evenodd"/>
    <path d="M24.39,82.7h0Z" fill="#1d1d1b" fill-opacity="1" fill-rule="evenodd"/>
    <path d="M24.28,82.83h0Z" fill="#1d1d1b" fill-opacity="1" fill-rule="evenodd"/>
    <path d="M93.65,11a12.49,12.49 0,0 0,-3.46 -0.8,17.8 17.8,0 0,0 -3.33,0.31l-1.47,0.41a12.91,12.91 0,0 0,-4.08 1.67,20.34 20.34,0 0,0 -7.39,6.69 18.59,18.59 0,0 0,-1.48 3.56c-0.11,0.35 -0.25,0.77 -0.36,1.13 0,0 0.07,-1.09 0.12,-1.42 0.16,-1.26 0.31,-2.52 0.47,-3.78a12.28,12.28 0,0 1,6 -9.86,13.64 13.64,0 0,1 5.1,-2.05 14.45,14.45 0,0 1,2.66 -0.18,13.26 13.26,0 0,1 6.46,2.44 16.39,16.39 0,0 1,3 3.11A7.84,7.84 0,0 0,93.65 11Z" fill="#e6e6e6" fill-opacity="1" fill-rule="evenodd"/>
    <path d="M92.63,10.71a12.82,12.82 0,0 0,-3.68 -0.1c-5.91,0.5 -11.46,4.62 -14,7.76 -0.75,0.94 -1.35,2.09 -2,3.05a9.93,9.93 0,0 1,1.73 -3.29c2.58,-3.51 8.9,-8.36 15,-8.08a9.61,9.61 0,0 1,4.09 0.95C93.37,10.87 93,10.8 92.63,10.71Z" fill="#ffffff" fill-opacity="1" fill-rule="evenodd"/>
    <path d="M13.49,109.35a3.55,3.55 0,0 1,-0.08 -0.47c0,-0.1 0,-0.2 0,-0.3a16.3,16.3 0,0 1,0 -3.62,21 21,0 0,1 0.33,-2.25c1,-5.83 3.91,-10.76 7.58,-15.25 4.43,-5.42 9.29,-10.6 13.94,-15.94l1.09,-1.19 1.33,-1.52c0.47,-0.51 1,-1 1.51,-1.57S40.24,66 40.81,65.4l7,-7.39c2.83,-2.94 5.66,-5.9 8.49,-8.85L58.44,47a70.44,70.44 0,0 1,5.41 -5.38l4.64,-4.52c2.83,-2.59 5.67,-5.16 8.69,-7.69a64.15,64.15 0,0 1,8.12 -5.6c1.07,-0.64 2.29,-1.07 3.46,-1.68a23.72,23.72 0,0 1,6.43 -2c5,-0.61 9.67,0.46 11.75,5.7a7.94,7.94 0,0 1,0.28 0.77,0.08 0.08,0 0,1 0,0c0.06,0.24 0.13,0.47 0.19,0.71l0.06,0.23a16.2,16.2 0,0 0,-0.36 -1.78c-2.89,-7.22 -9.26,-7.45 -13.84,-6.35 -7,1.85 -13.87,7 -16.15,8.68 -2.61,1.95 -7.58,6.82 -9.25,8.38l-7.19,7.1 -3.86,4c-1,1 -3.08,3 -4.06,4 -1.81,2 -3.49,3.62 -5.24,5.62l-7.21,7.68c-6.61,7.57 -13.56,14.81 -19.88,22.49a34.21,34.21 0,0 0,-6.86 12.33,28.08 28.08,0 0,0 -1.1,5.66c-0.14,2.1 -0.12,7.62 3,7.6l-0.05,0a2.46,2.46 0,0 1,-0.41 -0.34A5.84,5.84 0,0 1,13.49 109.35Z" fill="#ffffff" fill-opacity="1"/>
    <path d="M13.37,108.58c0,0.1 0,0.2 0,0.3C13.39,108.78 13.38,108.68 13.37,108.58Z" fill="#ffffff" fill-opacity="1"/>
    <path d="M21.25,87.46c-3.67,4.49 -6.59,9.42 -7.58,15.25C14.8,97 18,91.91 21.55,87.43c4.75,-6.06 9.68,-11.32 14.73,-17.1l-1.09,1.19C30.54,76.86 25.68,82 21.25,87.46Z" fill="#ffffff" fill-opacity="1"/>
    <path d="M15,112.61a2.46,2.46 0,0 0,0.41 0.34,6.07 6.07,0 0,1 -1.94,-3.6A5.84,5.84 0,0 0,15 112.61Z" fill="#ffffff" fill-opacity="1"/>
    <path d="M107.22,26.63q0.12,0.38 0.21,0.75c-0.06,-0.24 -0.13,-0.47 -0.19,-0.71A0.08,0.08 0,0 0,107.22 26.63Z" fill="#ffffff" fill-opacity="1"/>
    <path d="M107.43,27.38q-0.09,-0.37 -0.21,-0.75c0,-0.16 -0.11,-0.3 -0.16,-0.45a29.88,29.88 0,0 1,-4.18 9.68C96.72,45.33 37.62,93.45 14.59,112a5.22,5.22 0,0 0,0.84 0.92c1.5,1 3,-0.12 4.52,-1.22l2.76,-1.85L28.32,106c2.62,-1.91 5.13,-3.93 7.56,-6l5.87,-4.66L56,83.78c10.91,-9.22 22,-18.22 32.4,-27.61 3.81,-3.45 7.84,-6.81 11,-10.62a68.19,68.19 0,0 0,5.07 -6.44,24.25 24.25,0 0,0 3.11,-8.78 20,20 0,0 0,0 -2.6A1.81,1.81 0,0 0,107.43 27.38Z" fill="#898989" fill-opacity="1"/>
    <path d="M106.94,25.86a9.24,9.24 0,0 0,-2.59 -3.72c-2.39,-2 -5.69,-2.4 -9.16,-2a23.72,23.72 0,0 0,-6.43 2c-1.17,0.61 -2.39,1 -3.46,1.68a64.15,64.15 0,0 0,-8.12 5.6c-3,2.53 -5.86,5.1 -8.69,7.69l-4.64,4.52A70.44,70.44 0,0 0,58.44 47l-2.18,2.15c-2.83,3 -5.66,5.91 -8.49,8.85l-7,7.39c-0.57,0.61 -1.13,1.23 -1.69,1.84l-2.84,3.09c-5.05,5.78 -10,11 -14.73,17.1C18,91.91 14.8,97 13.67,102.71c-0.11,0.64 -0.2,1.3 -0.26,2a19.25,19.25 0,0 0,0 3.91c0,0.1 0,0.2 0,0.3s0.05,0.31 0.08,0.47A8.24,8.24 0,0 0,14 111a6.84,6.84 0,0 0,0.59 1.06c23,-18.58 82.13,-66.7 88.29,-76.17a29.88,29.88 0,0 0,4.18 -9.68Z" fill="#aaaaaa" fill-opacity="1"/>
    <path d="M80.05,62.52c-5.75,5.48 -11.45,9 -12.72,7.84s2.35,-6.52 8.11,-12 11.45,-9 12.72,-7.84S85.81,57 80.05,62.52Z" fill="#636466" fill-opacity="0.37" fill-rule="evenodd"/>
    <path d="M80.12,62.7C75.06,67.5 70,70.57 68.9,69.54S70.94,63.78 76,59s10.08,-7.87 11.21,-6.84S85.17,57.89 80.12,62.7Z" fill="#ffffff" fill-opacity="1" fill-rule="evenodd"/>
    <path d="M58.47,73.67c-2,2 -2.62,4.4 -1.48,5.35s3.67,0.11 5.63,-1.89 2.62,-4.4 1.48,-5.36S60.43,71.67 58.47,73.67Z" fill="#636466" fill-opacity="0.37" fill-rule="evenodd"/>
    <path d="M58.77,74c-1.81,1.85 -2.43,4.07 -1.37,5s3.39,0.1 5.21,-1.75 2.43,-4.07 1.37,-5S60.59,72.17 58.77,74Z" fill="#ffffff" fill-opacity="1" fill-rule="evenodd"/>
</svg>