<svg xmlns="http://www.w3.org/2000/svg" width="120.0" height="120.0" viewBox="0 0 120.0 120.0">
    <path d="M63,96.87c-2.32,-8.93 -1.37,-16.82 6.19,-23.49a33.18,33.18 0,0 0,7.89 -11.21c4.56,-10.32 8.48,-20.92 12.61,-31.43 1.84,-4.69 3.66,-9.4 5.31,-14.16s-0.15,-9.17 -4.59,-11.24S83.46,4 80.39,9q-14.74,24.1 -29.2,48.39a11.67,11.67 0,0 0,-1.65 7.13c1.35,8.31 -2.71,13.5 -9.3,17.16 -4.59,2.55 -9.71,4.2 -14.57,6.15 4.08,1.68 7.18,4.64 10.27,7.66a59.89,59.89 0,0 0,10.12 8c4.18,2.62 8.8,5.14 13.71,6a9.44,9.44 0,0 0,3.63 0c0.46,-0.1 2.94,-0.71 2.75,-1.39C66.15,108.13 63.67,99.55 63,96.87Z" fill="#5795a0" fill-opacity="1"/>
    <path d="M66.1,108.38c-0.09,0 -0.24,0.3 -0.3,0.38l-0.3,0.43a9.36,9.36 0,0 1,-2.43 2.51,15 15,0 0,1 -2.86,1.88 21.28,21.28 0,0 1,-3.35 1.21,20.24 20.24,0 0,1 -7.53,0.88 14.32,14.32 0,0 1,-3.71 -0.87l-15.27,-7.51a13.2,13.2 0,0 1,-3.94 -4,12 12,0 0,1 -2,-6.12 21.24,21.24 0,0 1,0.67 -7.36,10.61 10.61,0 0,0 0.55,-1.93c4.08,1.67 7.18,4.64 10.27,7.66a59.91,59.91 0,0 0,10.13 8A52,52 0,0 0,54.47 108c2.77,1.1 5.75,2.06 8.75,1.39C64.23,109.13 65.13,108.66 66.1,108.38Z" fill="#b1b2b2" fill-opacity="1"/>
    <path d="M64.12,110.22a11.79,11.79 0,0 1,-1.75 1.71,10.61 10.61,0 0,1 -2,1.18A22.25,22.25 0,0 1,52 115.37l-0.56,0a7,7 0,0 1,-1 0,0.74 0.74,0 0,1 -0.4,-0.16c-0.42,-0.44 0.05,-1.51 0.19,-2a21,21 0,0 1,1 -2.82,12.4 12.4,0 0,1 0.71,-1.41c0.22,-0.39 0.55,-1.06 1,-1.08a1.53,1.53 0,0 1,0.66 0.16c1.25,0.5 2.48,1 3.76,1.43a9,9 0,0 0,6.5 0l0.38,-0.17 0.14,0 0.11,0a0.21,0.21 0,0 1,0.1 0,0.12 0.12,0 0,1 0.07,0.07 0.14,0.14 0,0 1,0 0.11,0.48 0.48,0 0,1 -0.13,0.23l-0.17,0.22Z" fill="#d1d3d3" fill-opacity="1"/>
    <path d="M28.66,101.26c2.38,4.88 4.7,5.23 4.76,5.62s-1.31,0.59 -3,-0.16 -3.4,-3.34 -4,-6.85c-0.82,-4.58 -0.6,-10.87 -0.16,-10.73S26.5,96.85 28.66,101.26Z" fill="#d1d3d3" fill-opacity="1" fill-rule="evenodd"/>
    <path d="M59.5,97.59c1.14,6.94 3.32,7.92 3.29,8.44s-1.42,0.48 -2.9,-0.88 -2.5,-5.14 -2.26,-9.88c0.31,-6.2 2,-14.39 2.45,-14.1S58.47,91.34 59.5,97.59Z" fill="#ffffff" fill-opacity="0.3" fill-rule="evenodd"/>
    <path d="M68.63,70.8a1.61,1.61 0,0 0,0.36 -0.1c0.25,-0.12 1.65,-0.55 1.89,-0.69l1.39,-0.88c3.09,-2.32 4.1,-5.57 5.67,-9 0.47,-1 1.07,-2.54 1.52,-3.57l4.09,-10.12 0.8,-2c0.76,-1.94 1.36,-3.53 2.12,-5.47 1.24,-3.16 2.28,-5.91 3.52,-9.06 1.59,-4 3.2,-8.32 4.67,-12.42a20.42,20.42 0,0 0,0.94 -3.81c0.07,-1.33 -3.12,1 -4.9,0.66 -0.46,1.06 -0.38,0.91 -0.86,2.06 -1.51,3.63 -2.18,5.42 -3.78,9 -0.41,0.92 -0.81,1.84 -1.21,2.77 -2.78,6.45 -5.51,13 -7.81,19.67 -0.61,1.77 -1.47,3.48 -2.1,5.26S73.7,56.78 73,58.58a30.56,30.56 0,0 1,-2.7 5.47,25.33 25.33,0 0,1 -4.11,4.55L64,70.7c0.06,-0.06 0.33,0.06 0.4,0.07a5.77,5.77 0,0 0,0.6 0.09,11.92 11.92,0 0,0 1.33,0.11 12.13,12.13 0,0 0,1.81 -0.1Z" fill="#ffffff" fill-opacity="0.3"/>
    <path d="M57.19,68.75l-0.49,-0.23a18.61,18.61 0,0 1,-4.49 -3.24,19 19,0 0,1 -2.69,-3c0,0.37 -0.06,0.75 0,1.13s0.07,1 0.11,1.42c0.08,0.92 0.18,1.85 0.19,2.78a14.52,14.52 0,0 1,-3.23 9.06l-0.3,0.39c0.1,-0.13 0.75,-0.19 0.92,-0.24l1,-0.28a44.78,44.78 0,0 0,7.29 -3.06c0.73,-0.37 1.45,-0.73 2.16,-1.13s1.39,-0.86 2.09,-1.29a4,4 0,0 0,0.77 -0.59,0.87 0.87,0 0,0 0.19,-0.28 0.42,0.42 0,0 0,0 -0.33,0.53 0.53,0 0,0 -0.31,-0.21A23.47,23.47 0,0 1,57.19 68.75Z" fill="#3a7b82" fill-opacity="1" fill-rule="evenodd"/>
    <path d="M-127.87,-1790.76H739.6V1849.18H-127.87z" fill="#000000" fill-opacity="0" stroke="#3299fe" stroke-opacity="1" stroke-width="24.22"/>
</svg>