<svg xmlns="http://www.w3.org/2000/svg" width="120.0" height="120.0" viewBox="0 0 120.0 120.0">
    <path d="M24.92,113.27s-10.67,-5.71 2.87,-24.85S49.68,68.51 59.12,54.51 73.3,28.29 77.65,17.9 88,3.26 93.56,5.81 102,21.55 91.12,34.6 76.34,49.33 69.25,60 57.12,87.56 47,101.8 30.86,116.9 24.92,113.27Z" fill="#5e89a9" fill-opacity="1"/>
    <path d="M34.54,108.7c-3.53,-2.49 5.36,-16.1 9,-20.85S57.34,67.11 63,58.88 92.51,12.63 96.56,15.49C104.31,21 72.12,52 66.46,61c-4.68,7.38 -9.63,25.92 -15.79,35.28S37.6,110.87 34.54,108.7Z" fill="#719bbc" fill-opacity="1"/>
    <path d="M23.69,109.76s-1.44,-7.32 8.24,-20.36A210.8,210.8 0,0 1,52.48 65.56c7.23,-7.63 18.8,-29.32 21.37,-34.26 2.93,-5.62 8,-21.2 19.71,-25.49 0,0 -8.07,-4 -14,8.06 -4.29,8.77 -6.74,15.72 -10.24,23.22S57.86,57.86 52.84,62.35 11.68,98.39 23.69,109.76Z" fill="#719bbc" fill-opacity="1"/>
    <path d="M28.09,114.72s-9.63,-6.27 -5.21,-17.53C22.88,97.19 15.92,110.76 28.09,114.72Z" fill="#4a7b96" fill-opacity="1"/>
    <path d="M41.61,100.77a8.08,8.08 0,0 0,-1.53 0.32,2.8 2.8,0 0,0 -0.86,0.73c-0.25,0.27 -0.21,0.58 -0.26,0.91a1.54,1.54 0,0 0,0.43 1.07,1.24 1.24,0 0,1 -1.09,-1 1.62,1.62 0,0 1,0.05 -0.87,2.09 2.09,0 0,1 0.43,-0.72 2.27,2.27 0,0 1,1.4 -0.72A1.9,1.9 0,0 1,41.61 100.77Z" fill="#4f7f9f" fill-opacity="1"/>
    <path d="M41.69,101.61a1.13,1.13 0,0 0,-1.59 0.06,1.15 1.15,0 0,0 -0.32,1.57" fill="#4f7f9f" fill-opacity="1"/>
    <path d="M42.15,101.34c0.17,0 0.19,0.09 0.33,0.24a1.16,1.16 0,0 1,0.24 0.57,1.61 1.61,0 0,1 -0.35,1.16 2.17,2.17 0,0 1,-0.93 0.63,1.54 1.54,0 0,1 -1.21,0c0.31,-0.21 0.56,0.09 0.75,-0.09l0.45,-0.18a3.65,3.65 0,0 0,0.48 -0.38,5 5,0 0,0 0.51,-0.85C42.52,102.18 42.33,101.66 42.15,101.34Z" fill="#4f7f9f" fill-opacity="1"/>
    <path d="M39.34,103.79a1.44,1.44 0,0 1,-0.43 -0.49A1.85,1.85 0,0 1,40 101a2.19,2.19 0,0 1,1.65 -0.18l-0.07,0.25a1.94,1.94 0,0 0,-1.46 0.16,1.58 1.58,0 0,0 -1,2 1.2,1.2 0,0 0,0.87 0.62,2.06 2.06,0 0,0 1.3,-0.2 2,2 0,0 0,0.93 -0.93,1.22 1.22,0 0,0 0,-1.07 1.05,1.05 0,0 0,-0.2 -0.27l0.18,-0.19a1.24,1.24 0,0 1,0.25 0.35,1.43 1.43,0 0,1 0,1.29A2.37,2.37 0,0 1,40 104.05,1.73 1.73,0 0,1 39.34,103.79Z" fill="#5f8aaa" fill-opacity="1"/>
    <path d="M45.32,96.11a1.29,1.29 0,0 0,-1.56 2" fill="#4f7f9f" fill-opacity="1"/>
    <path d="M43.827,98.137a1.26,0.99 128.37,1 0,1.564 -1.976a1.26,0.99 128.37,1 0,-1.564 1.976z" fill="#5f8aaa" fill-opacity="1"/>
    <path d="M39.831,103.312a0.99,1.26 49.65,1 0,1.921 -1.632a0.99,1.26 49.65,1 0,-1.921 1.632z" fill="#5f8aaa" fill-opacity="1"/>
    <path d="M-68.3,-80.97H675.7V3854.14H-68.3z" fill="#000000" fill-opacity="0" stroke="#32dd14" stroke-opacity="1" stroke-width="11.07"/>
</svg>