<svg xmlns="http://www.w3.org/2000/svg" width="120.0" height="120.0" viewBox="0 0 120.0 120.0">
    <path d="M56.05,45.48c-8.18,2.66 -14.81,0.17 -16.94,-1.79 -2.31,-2.13 -2,-4.1 0.09,-7.51a18.11,18.11 0,0 1,2.11 -2.59l-0.75,0.52c-5.3,4.48 -11.72,10.73 -14.75,15.63 -4.4,7.14 -0.52,12.9 5.67,9.86 2.28,-1.12 9.09,-4.79 17.33,-9.17l1.65,-0.88 0.4,-0.21 1.72,-0.91a0.2,0.2 0,0 1,0.08 0l1.64,-0.87 0.44,-0.24 3.5,-1.84 0.47,-0.25 1.77,-0.92h0l1.77,-0.93 0.41,-0.21 1.79,-0.93c-3.13,1.35 -6.11,2.53 -8.41,3.28" fill="#000000" fill-opacity="1"/>
    <path d="M83.46,17.73C72,17.73 66.63,19.39 58,23.48a72.35,72.35 0,0 0,-14.76 9.44,17.57 17.57,0 0,0 -2.11,2.59s-1.47,2.65 0,4.58 5.35,3.68 10.07,3.5S62,41.9 69.34,38.13s21.29,-10.66 25.9,-11.08 7.52,-0.39 9.33,1.88a5.38,5.38 0,0 1,0.83 2.15,11.83 11.83,0 0,0 -3.11,-7.34c-3.14,-3.25 -7.4,-6 -18.83,-6" fill="#000000" fill-opacity="1"/>
    <path d="M105.61,31.22c-0.46,-4.3 -4.8,-5.61 -15.2,-1.94 -1.44,0.5 -3.37,1.32 -5.64,2.36 -3,1.39 -6.73,3.18 -10.7,5.18h0c-2.38,1.19 -4.86,2.46 -7.37,3.76l0,0c-5.29,2.73 -10.73,5.6 -15.65,8.22C42.77,53.22 36,56.89 33.68,58c-6.19,3 -11,-2.73 -6.59,-9.86 3,-4.91 10.37,-11.16 15.68,-15.64 -25,17.82 -30,33.45 -26.92,47.94 2.2,10.34 13,21.82 29.15,21.82S93.14,79.61 93.51,70.33c0.15,-3.82 -3.51,-8.42 -6.18,-9.31 5.09,3.48 0.91,10.49 -13.27,19.92S52,89.64 48.4,88.52s-5.11,-6.15 -4.55,-9.43c0,0 1.78,-7.13 12.59,-13.42s33,-15 40.37,-21c7.07,-5.76 8.73,-9.95 8.84,-12.88a5.85,5.85 0,0 0,0 -0.59" fill="#000000" fill-opacity="1"/>
    <path d="M86.25,64.77c-0.78,-1.89 -2.1,-2.7 -5.09,-2.64l-2,0.27a28.6,28.6 0,0 0,-3.87 1.18C69.94,65.73 65,68.84 60.07,71.45c-3.71,2 -6.74,3.84 -10.37,5.44a39.94,39.94 0,0 1,-5.84 2.28c0,0.15 14.87,-1.18 15.37,-1a1.83,1.83 0,0 1,0.84 -0.61l0,-0.18 1.62,0.27c-1.44,-0.63 -3.39,-0.38 -3.82,-2l0.62,0.7c1,0.78 2.2,0.83 3.82,1.14a3.76,3.76 0,0 0,1.62 0.05c-1.26,0.13 -2.41,-0.49 -3.29,-0.62 -0.05,-0.12 -0.09,-0.23 -0.13,-0.35 0.16,-0.21 0.34,-0.23 0.39,-0.57a15.41,15.41 0,0 0,2.2 0.4c-1.12,-0.47 -2.21,-0.25 -2.86,-1.15A10.27,10.27 0,0 0,65 76.28l0,-0.09a8.77,8.77 0,0 1,-2.94 -0.57c0.09,-0.38 0.2,-0.28 0.44,-0.62 0,-0.08 0,0 0,-0.08v-0.14l1.18,0.16a10.54,10.54 0,0 1,-1.44 -0.51l-0.09,-0.13a8.57,8.57 0,0 0,4.17 0.62l-1.14,0c-0.53,-0.1 -1,-0.23 -1.45,-0.35 -0.06,-0.13 -0.07,-0.11 0,-0.26s0.4,-0.36 0.52,-0.49a1.43,1.43 0,0 1,-0.08 -0.22,12.88 12.88,0 0,0 2.59,0.27c-1.07,-0.41 -2.08,0.2 -2.77,-0.66 1,0.69 2.66,0.38 4,0.31 -0.74,-0.25 -2.29,0.45 -2.63,-0.4l-0.09,0c0.25,-0.27 0.66,-0.33 0.62,-0.79a8.42,8.42 0,0 0,2.06 0.14c-0.4,-0.16 -1.48,-0.11 -1.93,-0.22L65.78,72a4.23,4.23 0,0 0,2.68 0.13C68,72 67.31,72.35 67,72c-0.13,-0.25 0.5,-0.5 0.57,-1 1.81,0.11 4.65,-1.21 4.43,-2.9l-1.66,1.31 -1.45,0.8 -1.23,0.35 -0.09,0c0.2,-1.1 2.55,-2.4 3.73,-2.63 0.53,-0.11 0.91,0.21 1.19,0.26 0.59,0.11 1.11,-0.6 1,-0.79 -0.35,-0.65 -2.09,0 -2.59,0.22 -1.77,0.75 -4.38,2.44 -5.14,4.13l-0.09,0c-0.18,-2 4.18,-4.27 5.75,-4.92 0.73,-0.3 2.71,-1 3.21,0 0.17,0 0.71,0.06 1.06,0.09 0.11,-0.45 0.31,-0.59 0.26,-1.1 -3.31,-1 -7.73,2.43 -10.24,4.35a4.92,4.92 0,0 0,-1.93 2.5C63.31,71.55 65.43,70 66,69.51a28.62,28.62 0,0 1,6.72 -3.86A5.54,5.54 0,0 1,76.19 65c0.54,0.16 0.68,0.59 1.06,0.88l-0.09,-0.26h0.17s0.69,0.14 0.88,0.44c1.08,-0.81 0.15,-2.47 -1.84,-2 -4.56,1 -8.35,3.47 -11.64,5.93 -0.83,0.61 -2.83,2.22 -2.86,3.33 0,0 0,0.09 0,0.14 -0.41,-1.06 1.72,-2.77 2.28,-3.21a37.89,37.89 0,0 1,10.24 -5.8c1.51,-0.55 5.08,-1.42 5.31,0.88a0.9,0.9 0,0 0,-0.13 -0.7l0.26,0.17 0.22,-0.22a1.53,1.53 0,0 1,0.93 1.1l0.22,0a3.73,3.73 0,0 0,0.08 -2.33,2.07 2.07,0 0,1 0.88,1.89c0.2,-0.28 0,-1 -0.13,-1.28 0.09,0 0,0 0.09,0 0.18,0.2 0.1,0.37 0.44,0.44 -0.1,-0.15 0.22,-0.22 0.13,-0.49 1.07,0.18 1.45,1.85 1,3.08l0.14,0.13a1.25,1.25 0,0 1,0.52 -0.83l0,0.08c0.16,0.08 0,0.35 0,0.62 0.58,-0.85 0.35,-2.38 0.13,-3.34l0.26,0.13c0,-0.11 0,0 0.05,-0.13A9.23,9.23 0,0 0,86.08 65c0.25,-0.12 0,-0.2 0.17,-0.22" fill="#e3e3e3" fill-opacity="1" fill-rule="evenodd"/>
    <path d="M76.76,65.6c0.88,0.76 -0.4,3.08 -0.92,3.47 0.09,-0.14 0.18,-0.29 0.26,-0.44l-1.27,1.28a0.93,0.93 0,0 0,0 -0.13c1.37,-0.75 1.88,-3 1.89,-4.18" fill="#000000" fill-opacity="1"/>
    <path d="M79.44,65.78c0.18,0.13 -0.07,1.08 -0.22,1.45A6.59,6.59 0,0 1,77 70.13,13.62 13.62,0 0,0 78.61,68c0,-0.06 0.11,-0.28 0.17,-0.18 0.31,-0.7 0.5,-1.65 0.66,-2.06" fill="#000000" fill-opacity="1"/>
    <path d="M82.3,66.13c0.52,0.39 0,1.83 -0.4,2.77a10.88,10.88 0,0 1,-3.07 3.69c-0.2,0.16 -1.49,1.24 -1.63,1.14a2.6,2.6 0,0 1,-0.79 0.48l0,0.05c-0.23,0.16 -1.47,0.83 -1.58,0.7a11.77,11.77 0,0 1,-3.56 1.19c-0.78,0.26 -3.92,0.9 -4.66,0.44a17.57,17.57 0,0 0,4.92 -1.1c5.09,-1.8 9,-4.41 10.81,-9.36" fill="#000000" fill-opacity="1"/>
    <path d="M74.17,66.66c0.22,0.06 0.22,0.14 0.35,0.26A3.24,3.24 0,0 1,73 69.86l0.66,-0.83 -1.45,1.23c1.07,-1.39 1.7,-1.75 1.93,-3.6" fill="#000000" fill-opacity="1"/>
    <path d="M79.66,66.92h0.13c-0.54,2.75 -2.36,4.83 -5.4,6.37 -0.32,0.16 -2.1,1.18 -2.37,1 -0.78,0.36 -3.94,1.24 -4.48,0.84C71.15,75 76.1,72 77.82,69.86c0.65,-0.81 1.68,-1.7 1.84,-2.94" fill="#000000" fill-opacity="1"/>
    <path d="M76.76,68.37c0.3,0.36 -0.45,1.23 -0.83,1.63a13.22,13.22 0,0 1,-4.83 3.2c-0.49,0.21 -2.33,0.84 -2.68,0.57 2.63,-0.23 7.56,-3.42 8.34,-5.4" fill="#000000" fill-opacity="1"/>
    <path d="M74.08,69.2c0.2,0.76 -3.75,3.51 -4.83,3.17a9.35,9.35 0,0 0,4.83 -3.17" fill="#000000" fill-opacity="1"/>
    <path d="M71.58,69.69c0.1,0.63 -2.1,1.6 -2.46,1.45a4.63,4.63 0,0 0,2.46 -1.45" fill="#000000" fill-opacity="1"/>
    <path d="M46.9,30.11L42.52,32.72 39.84,34.86 37.82,37.03 36.12,44.09 40.51,46.36 51.44,47.53 63.82,43.46 73.78,38.84 82.91,33.73 91.17,29.88 95.55,28.84 97.53,27.86 102.67,27.86 103.33,27.14 102.61,25.47 92.3,26.29 46.9,30.11z" fill="#000000" fill-opacity="1"/>
    <path d="M30.7,48.7c1.18,2.23 4.89,4.77 9.6,4.6 3.77,-0.15 8.52,-1.38 14,-3.63 8.17,-4 20.57,-9.87 26.12,-12 7.78,-3 12.09,-5 14.79,-8s3,-6.49 1.79,-8.47 -5.51,-2.82 -5.51,-2.82c4.57,0.38 8.24,2.22 9.18,4.86 0.87,2.44 0.62,7.36 -6.46,11.48 -2,1.16 -5.33,2.87 -8.38,4.27h0c-1.42,0.54 -2.61,1.08 -3.79,1.62l0.2,-0.07 -0.22,0.08c-1,0.47 -2.08,0.94 -3.24,1.4l-0.72,0.26c-1.81,0.71 -2.76,1.09 -4.63,1.88 -3.06,1.34 -7.28,3.25 -10.23,4.68l-0.67,0.34c-2.37,1.15 -4.47,1.86 -7,3.12h0c-3.12,1.3 -6.09,2.44 -8.39,3.16C38.94,58 33.44,55.19 31.32,53.3l-2,-3.4a5.11,5.11 0,0 1,-0.7 -2.59L29,44.47l3.3,-3.64 -1.13,3.46Z" fill="#a38078" fill-opacity="1" fill-rule="evenodd"/>
    <path d="M31.69,53.74c-2.28,-1.53 -4.05,-5.32 -3.71,-7.44 0.59,-3.67 4.33,-5.18 7,-7.75a4.48,4.48 0,0 1,-0.69 1.12c-0.09,0.1 -1.58,1.7 -1.65,1.82a13.3,13.3 0,0 0,-1.28 2.4c-0.52,1.34 -0.35,6.09 1.2,7.11" fill="#000000" fill-opacity="1"/>
    <path d="M95.18,29.74c2.7,-3.07 3,-6.5 1.78,-8.47s-5.51,-2.83 -5.51,-2.83c4.58,0.39 8.24,2.22 9.18,4.87 0.87,2.44 0.62,7.36 -6.46,11.47" fill="#000000" fill-opacity="1"/>
    <path d="M49.72,39.36a1.31,1.31 0,0 1,-0.7 -0.31,1.39 1.39,0 0,1 -0.33,-1.34c0.05,-0.45 0,-0.6 -0.13,-0.7 -0.48,-0.31 -1.38,0 -1.65,0.15a0.38,0.38 0,1 1,-0.34 -0.68,2.79 2.79,0 0,1 2.4,-0.12 1.33,1.33 0,0 1,0.47 1.44c0,0.39 0,0.57 0.08,0.68 0.34,0.3 1.28,0.09 1.69,-0.07a0.38,0.38 0,1 1,0.26 0.72,3.75 3.75,0 0,1 -1.75,0.23" fill="#000000" fill-opacity="1"/>
    <path d="M64.31,31a2.18,2.18 0,0 1,-0.64 -0.2,1.1 1.1,0 0,1 -0.54,-1.33c0.06,-0.36 0.06,-0.41 -0.17,-0.51a2.41,2.41 0,0 0,-1.73 0.17,0.39 0.39,0 0,1 -0.51,-0.19 0.37,0.37 0,0 1,0.18 -0.5,3.26 3.26,0 0,1 2.37,-0.18 1.06,1.06 0,0 1,0.61 1.33c-0.06,0.36 -0.05,0.42 0.15,0.53a3.77,3.77 0,0 0,2 0.06,0.37 0.37,0 0,1 0.45,0.29 0.38,0.38 0,0 1,-0.3 0.45,5.45 5.45,0 0,1 -1.82,0.08" fill="#000000" fill-opacity="1"/>
    <path d="M47.56,41.24a1.28,1.28 0,0 1,-0.7 -0.31,1.39 1.39,0 0,1 -0.34,-1.34c0.06,-0.45 0,-0.6 -0.12,-0.7 -0.48,-0.3 -1.36,0 -1.66,0.15a0.38,0.38 0,0 1,-0.51 -0.17,0.38 0.38,0 0,1 0.18,-0.51 2.76,2.76 0,0 1,2.39 -0.12,1.32 1.32,0 0,1 0.48,1.44c-0.05,0.38 -0.05,0.57 0.08,0.68 0.34,0.3 1.28,0.08 1.68,-0.07a0.38,0.38 0,0 1,0.49 0.23,0.38 0.38,0 0,1 -0.22,0.49 3.75,3.75 0,0 1,-1.75 0.23" fill="#000000" fill-opacity="1"/>
    <g>
        <clipPath id="clip_1">
            <path d="M62.69,42.67h0 M 0,0"/>
        </clipPath>
        <path d="M51.28 31.28H74.08V54.08H51.28z" clip-path="url(#clip_1)" fill="#c6b6c6" fill-opacity="1"/>
    </g>
    <g>
        <clipPath id="clip_1">
            <path d="M18.21,73.76c0,-0.67 -0.31,-1.21 -0.7,-1.21h0c-0.38,0 -0.68,0.55 -0.68,1.21s0.31,1.21 0.7,1.21h0.08l0,0c0.36,0 0.64,-0.56 0.64,-1.2 M 0,0"/>
        </clipPath>
        <path d="M5.41 61.15H29.6V86.37H5.41z" clip-path="url(#clip_1)" fill="#ffffff" fill-opacity="1"/>
    </g>
    <g>
        <clipPath id="clip_1">
            <path d="M82.3,66.13c0.52,0.39 0,1.83 -0.4,2.77a10.88,10.88 0,0 1,-3.07 3.69c-0.2,0.16 -1.49,1.24 -1.63,1.14a2.6,2.6 0,0 1,-0.79 0.48l0,0.05c-0.23,0.16 -1.47,0.83 -1.58,0.7a11.77,11.77 0,0 1,-3.56 1.19c-0.78,0.26 -3.92,0.9 -4.66,0.44a17.57,17.57 0,0 0,4.92 -1.1c5.09,-1.8 9,-4.41 10.81,-9.36 M 0,0"/>
        </clipPath>
        <path d="M56.51 56.07H92.57V86.82H56.51z" clip-path="url(#clip_1)" fill="#b5b5b5" fill-opacity="1"/>
    </g>
    <g>
        <clipPath id="clip_1">
            <path d="M23.61,76.12a0.45,0.45 0,0 0,-0.21 0.1h0.65a0.59,0.59 0,0 0,-0.44 -0.1 M 0,0"/>
        </clipPath>
        <path d="M12.01 64.71H35.45V87.60999999999999H12.01z" clip-path="url(#clip_1)" fill="#3c3c3c" fill-opacity="1"/>
    </g>
    <g>
        <clipPath id="clip_1">
            <path d="M23.72,78.82a0.62,0.62 0,0 0,0.48 0.13l0.12,0Z M 0,0"/>
        </clipPath>
        <path d="M12.32 67.43H35.72V90.36000000000001H12.32z" clip-path="url(#clip_1)" fill="#3c3c3c" fill-opacity="1"/>
    </g>
    <g>
        <clipPath id="clip_1">
            <path d="M60.44,43.85 L57,45.69l3.49,-1.84 M 0,0"/>
        </clipPath>
        <path d="M45.55 32.46H71.84V57.09H45.55z" clip-path="url(#clip_1)" fill="#c6b6c6" fill-opacity="1"/>
    </g>
    <g>
        <clipPath id="clip_1">
            <path d="M64.88,41.53l-0.42,0.22 0.42,-0.22 M 0,0"/>
        </clipPath>
        <path d="M53.07 30.14H76.28V53.150000000000006H53.07z" clip-path="url(#clip_1)" fill="#c6b6c6" fill-opacity="1"/>
    </g>
    <g>
        <clipPath id="clip_1">
            <path d="M76.76,68.37c0.3,0.36 -0.45,1.23 -0.83,1.63a13.22,13.22 0,0 1,-4.83 3.2c-0.49,0.21 -2.33,0.84 -2.68,0.57 2.63,-0.23 7.56,-3.42 8.34,-5.4 M 0,0"/>
        </clipPath>
        <path d="M58.35 58.31H86.89V83.91H58.35z" clip-path="url(#clip_1)" fill="#b5b5b5" fill-opacity="1"/>
    </g>
    <g>
        <clipPath id="clip_1">
            <path d="M53.07,47.75l-0.41,0.21 0.41,-0.21 M 0,0"/>
        </clipPath>
        <path d="M41.27 36.35H64.47V59.36H41.27z" clip-path="url(#clip_1)" fill="#c6b6c6" fill-opacity="1"/>
    </g>
    <g>
        <clipPath id="clip_1">
            <path d="M18.63,73.73a1.67,1.67 0,0 0,-0.51 -1.18h-0.61c0.39,0 0.7,0.54 0.7,1.21s-0.28,1.15 -0.64,1.2l0,0 0.62,0a1.52,1.52 0,0 0,0.42 -1.3 M 0,0"/>
        </clipPath>
        <path d="M6.11 61.15H30.03V86.43H6.11z" clip-path="url(#clip_1)" fill="#aaaaaa" fill-opacity="1"/>
    </g>
    <g>
        <clipPath id="clip_1">
            <path d="M74.08,69.2c0.2,0.76 -3.75,3.51 -4.83,3.17a9.35,9.35 0,0 0,4.83 -3.17 M 0,0"/>
        </clipPath>
        <path d="M59.19 59.14H84.16V82.46000000000001H59.19z" clip-path="url(#clip_1)" fill="#b5b5b5" fill-opacity="1"/>
    </g>
    <g>
        <clipPath id="clip_1">
            <path d="M51,48.83 L52.66,48 51,48.83 M 0,0"/>
        </clipPath>
        <path d="M39.62 36.56H64.06V60.230000000000004H39.62z" clip-path="url(#clip_1)" fill="#c6b6c6" fill-opacity="1"/>
    </g>
    <g>
        <clipPath id="clip_1">
            <path d="M66.69,40.59c2.51,-1.3 5,-2.57 7.37,-3.76 -2.38,1.19 -4.86,2.46 -7.37,3.76 M 0,0"/>
        </clipPath>
        <path d="M55.3 25.43H85.44999999999999V51.980000000000004H55.3z" clip-path="url(#clip_1)" fill="#c6b6c6" fill-opacity="1"/>
    </g>
    <g>
        <clipPath id="clip_1">
            <path d="M66.66,40.61h0l0,0 0,0 M 0,0"/>
        </clipPath>
        <path d="M55.27 29.2H78.09V52.01H55.27z" clip-path="url(#clip_1)" fill="#c6b6c6" fill-opacity="1"/>
    </g>
    <g>
        <clipPath id="clip_1">
            <path d="M49.72,39.36a1.31,1.31 0,0 1,-0.7 -0.31,1.39 1.39,0 0,1 -0.33,-1.34c0.05,-0.45 0,-0.6 -0.13,-0.7 -0.48,-0.31 -1.38,0 -1.65,0.15a0.38,0.38 0,1 1,-0.34 -0.68,2.79 2.79,0 0,1 2.4,-0.12 1.33,1.33 0,0 1,0.47 1.44c0,0.39 0,0.57 0.08,0.68 0.34,0.3 1.28,0.09 1.69,-0.07a0.38,0.38 0,1 1,0.26 0.72,3.75 3.75,0 0,1 -1.75,0.23 M 0,0"/>
        </clipPath>
        <path d="M36.17 23.55H61.92V51.96H36.17z" clip-path="url(#clip_1)" fill="#b5b5b5" fill-opacity="1"/>
    </g>
    <g>
        <clipPath id="clip_1">
            <path d="M79.66,66.92h0.13c-0.54,2.75 -2.36,4.83 -5.4,6.37 -0.32,0.16 -2.1,1.18 -2.37,1 -0.78,0.36 -3.94,1.24 -4.48,0.84C71.15,75 76.1,72 77.82,69.86c0.65,-0.81 1.68,-1.7 1.84,-2.94 M 0,0"/>
        </clipPath>
        <path d="M57.47 56.86H89.85V85.35H57.47z" clip-path="url(#clip_1)" fill="#b5b5b5" fill-opacity="1"/>
    </g>
    <g>
        <clipPath id="clip_1">
            <path d="M74.06,36.83h0 M 0,0"/>
        </clipPath>
        <path d="M62.66 25.43H85.47V48.230000000000004H62.66z" clip-path="url(#clip_1)" fill="#c6b6c6" fill-opacity="1"/>
    </g>
    <g>
        <clipPath id="clip_1">
            <path d="M56.05,45.48c-8.18,2.66 -14.81,0.17 -16.94,-1.79 -2.31,-2.13 -2,-4.1 0.09,-7.51a18.11,18.11 0,0 1,2.11 -2.59l-0.75,0.52c-5.3,4.48 -11.72,10.73 -14.75,15.63 -4.4,7.14 -0.52,12.9 5.67,9.86 2.28,-1.12 9.09,-4.79 17.33,-9.17l1.65,-0.88 0.4,-0.21 1.72,-0.91a0.2,0.2 0,0 1,0.08 0l1.64,-0.87 0.44,-0.24 3.5,-1.84 0.47,-0.25 1.77,-0.92h0l1.77,-0.93 0.41,-0.21 1.79,-0.93c-3.13,1.35 -6.11,2.53 -8.41,3.28 M 0,0"/>
        </clipPath>
        <path d="M12.53 22.2H75.86V71.83H12.53z" clip-path="url(#clip_1)" fill="#d8d8d8" fill-opacity="1"/>
    </g>
    <g>
        <clipPath id="clip_1">
            <path d="M23.4,76.22h-0.1v0.1l0.11,-0.1 M 0,0"/>
        </clipPath>
        <path d="M11.9 64.82H34.8V87.71H11.9z" clip-path="url(#clip_1)" fill="#aaaaaa" fill-opacity="1"/>
    </g>
    <g>
        <clipPath id="clip_1">
            <path d="M86.25,64.77c-0.78,-1.89 -2.1,-2.7 -5.09,-2.64l-2,0.27a28.6,28.6 0,0 0,-3.87 1.18C69.94,65.73 65,68.84 60.07,71.45c-3.71,2 -6.74,3.84 -10.37,5.44a39.94,39.94 0,0 1,-5.84 2.28c0,0.15 14.87,-1.18 15.37,-1a1.83,1.83 0,0 1,0.84 -0.61l0,-0.18 1.62,0.27c-1.44,-0.63 -3.39,-0.38 -3.82,-2l0.62,0.7c1,0.78 2.2,0.83 3.82,1.14a3.76,3.76 0,0 0,1.62 0.05c-1.26,0.13 -2.41,-0.49 -3.29,-0.62 -0.05,-0.12 -0.09,-0.23 -0.13,-0.35 0.16,-0.21 0.34,-0.23 0.39,-0.57a15.41,15.41 0,0 0,2.2 0.4c-1.12,-0.47 -2.21,-0.25 -2.86,-1.15A10.27,10.27 0,0 0,65 76.28l0,-0.09a8.77,8.77 0,0 1,-2.94 -0.57c0.09,-0.38 0.2,-0.28 0.44,-0.62 0,-0.08 0,0 0,-0.08v-0.14l1.18,0.16a10.54,10.54 0,0 1,-1.44 -0.51l-0.09,-0.13a8.57,8.57 0,0 0,4.17 0.62l-1.14,0c-0.53,-0.1 -1,-0.23 -1.45,-0.35 -0.06,-0.13 -0.07,-0.11 0,-0.26s0.4,-0.36 0.52,-0.49a1.43,1.43 0,0 1,-0.08 -0.22,12.88 12.88,0 0,0 2.59,0.27c-1.07,-0.41 -2.08,0.2 -2.77,-0.66 1,0.69 2.66,0.38 4,0.31 -0.74,-0.25 -2.29,0.45 -2.63,-0.4l-0.09,0c0.25,-0.27 0.66,-0.33 0.62,-0.79a8.42,8.42 0,0 0,2.06 0.14c-0.4,-0.16 -1.48,-0.11 -1.93,-0.22L65.78,72a4.23,4.23 0,0 0,2.68 0.13C68,72 67.31,72.35 67,72c-0.13,-0.25 0.5,-0.5 0.57,-1 1.81,0.11 4.65,-1.21 4.43,-2.9l-1.66,1.31 -1.45,0.8 -1.23,0.35 -0.09,0c0.2,-1.1 2.55,-2.4 3.73,-2.63 0.53,-0.11 0.91,0.21 1.19,0.26 0.59,0.11 1.11,-0.6 1,-0.79 -0.35,-0.65 -2.09,0 -2.59,0.22 -1.77,0.75 -4.38,2.44 -5.14,4.13l-0.09,0c-0.18,-2 4.18,-4.27 5.75,-4.92 0.73,-0.3 2.71,-1 3.21,0 0.17,0 0.71,0.06 1.06,0.09 0.11,-0.45 0.31,-0.59 0.26,-1.1 -3.31,-1 -7.73,2.43 -10.24,4.35a4.92,4.92 0,0 0,-1.93 2.5C63.31,71.55 65.43,70 66,69.51a28.62,28.62 0,0 1,6.72 -3.86A5.54,5.54 0,0 1,76.19 65c0.54,0.16 0.68,0.59 1.06,0.88l-0.09,-0.26h0.17s0.69,0.14 0.88,0.44c1.08,-0.81 0.15,-2.47 -1.84,-2 -4.56,1 -8.35,3.47 -11.64,5.93 -0.83,0.61 -2.83,2.22 -2.86,3.33 0,0 0,0.09 0,0.14 -0.41,-1.06 1.72,-2.77 2.28,-3.21a37.89,37.89 0,0 1,10.24 -5.8c1.51,-0.55 5.08,-1.42 5.31,0.88a0.9,0.9 0,0 0,-0.13 -0.7l0.26,0.17 0.22,-0.22a1.53,1.53 0,0 1,0.93 1.1l0.22,0a3.73,3.73 0,0 0,0.08 -2.33,2.07 2.07,0 0,1 0.88,1.89c0.2,-0.28 0,-1 -0.13,-1.28 0.09,0 0,0 0.09,0 0.18,0.2 0.1,0.37 0.44,0.44 -0.1,-0.15 0.22,-0.22 0.13,-0.49 1.07,0.18 1.45,1.85 1,3.08l0.14,0.13a1.25,1.25 0,0 1,0.52 -0.83l0,0.08c0.16,0.08 0,0.35 0,0.62 0.58,-0.85 0.35,-2.38 0.13,-3.34l0.26,0.13c0,-0.11 0,0 0.05,-0.13A9.23,9.23 0,0 0,86.08 65c0.25,-0.12 0,-0.2 0.17,-0.22 M 0,0"/>
        </clipPath>
        <path d="M33.8 52.07H96.32V89.25H33.8z" clip-path="url(#clip_1)" fill="#e3e3e3" fill-opacity="1"/>
    </g>
    <g>
        <clipPath id="clip_1">
            <path d="M79.44,65.78c0.18,0.13 -0.07,1.08 -0.22,1.45A6.59,6.59 0,0 1,77 70.13,13.62 13.62,0 0,0 78.61,68c0,-0.06 0.11,-0.28 0.17,-0.18 0.31,-0.7 0.5,-1.65 0.66,-2.06 M 0,0"/>
        </clipPath>
        <path d="M66.92 55.71H89.57V80.19H66.92z" clip-path="url(#clip_1)" fill="#b5b5b5" fill-opacity="1"/>
    </g>
    <g>
        <clipPath id="clip_1">
            <path d="M76.76,65.6c0.88,0.76 -0.4,3.08 -0.92,3.47 0.09,-0.14 0.18,-0.29 0.26,-0.44l-1.27,1.28a0.93,0.93 0,0 0,0 -0.13c1.37,-0.75 1.88,-3 1.89,-4.18 M 0,0"/>
        </clipPath>
        <path d="M64.77 55.54H87.13V79.97H64.77z" clip-path="url(#clip_1)" fill="#b5b5b5" fill-opacity="1"/>
    </g>
    <g>
        <clipPath id="clip_1">
            <path d="M62.68,42.68l-1.76,0.92 1.76,-0.92 M 0,0"/>
        </clipPath>
        <path d="M49.52 31.28H74.08V55H49.52z" clip-path="url(#clip_1)" fill="#c6b6c6" fill-opacity="1"/>
    </g>
    <g>
        <clipPath id="clip_1">
            <path d="M57,45.69l-0.44,0.23 0.44,-0.23 M 0,0"/>
        </clipPath>
        <path d="M45.11 34.29H68.34V57.32H45.11z" clip-path="url(#clip_1)" fill="#c6b6c6" fill-opacity="1"/>
    </g>
    <g>
        <clipPath id="clip_1">
            <path d="M74.17,66.66c0.22,0.06 0.22,0.14 0.35,0.26A3.24,3.24 0,0 1,73 69.86l0.66,-0.83 -1.45,1.23c1.07,-1.39 1.7,-1.75 1.93,-3.6 M 0,0"/>
        </clipPath>
        <path d="M62.17 56.59H84.59V80.32000000000001H62.17z" clip-path="url(#clip_1)" fill="#b5b5b5" fill-opacity="1"/>
    </g>
    <g>
        <clipPath id="clip_1">
            <path d="M50.27,89.05c6.53,1.21 20.51,-2.26 32.42,-12.54 8.59,-7.42 7.06,-12.68 5.55,-15a3.83,3.83 0,0 0,-1.35 -0.59,6.7 6.7,0 0,0 -2.36,-0.17c-0.76,0.1 -1.53,0.15 -2.28,0.28a23.08,23.08 0,0 0,-5.07 1.63c-4,1.73 -7.81,3.79 -11.62,5.88 -4,2.19 -8,4.41 -12,6.57a53.09,53.09 0,0 1,-8.5 3.71l-1.19,0.38c-0.58,2.89 -0.11,8.66 6.41,9.88 M 0,0"/>
        </clipPath>
        <path d="M33.62 50.62H99.47999999999999V99.34H33.62z" clip-path="url(#clip_1)" fill="#cecece" fill-opacity="1"/>
    </g>
    <g>
        <clipPath id="clip_1">
            <path d="M64.31,31a2.18,2.18 0,0 1,-0.64 -0.2,1.1 1.1,0 0,1 -0.54,-1.33c0.06,-0.36 0.06,-0.41 -0.17,-0.51a2.41,2.41 0,0 0,-1.73 0.17,0.39 0.39,0 0,1 -0.51,-0.19 0.37,0.37 0,0 1,0.18 -0.5,3.26 3.26,0 0,1 2.37,-0.18 1.06,1.06 0,0 1,0.61 1.33c-0.06,0.36 -0.05,0.42 0.15,0.53a3.77,3.77 0,0 0,2 0.06,0.37 0.37,0 0,1 0.45,0.29 0.38,0.38 0,0 1,-0.3 0.45,5.45 5.45,0 0,1 -1.82,0.08 M 0,0"/>
        </clipPath>
        <path d="M50.88 15.21H76.27000000000001V43.97H50.88z" clip-path="url(#clip_1)" fill="#b5b5b5" fill-opacity="1"/>
    </g>
    <g>
        <clipPath id="clip_1">
            <path d="M24.74,77.36a1.75,1.75 0,0 0,-0.69 -1.14h-0.66c0.4,0 0.72,0.59 0.72,1.27s-0.34,1.28 -0.77,1.28l0.38,0 0.6,0.08a1.4,1.4 0,0 0,0.42 -1.54 M 0,0"/>
        </clipPath>
        <path d="M11.95 64.82H36.19V90.28999999999999H11.95z" clip-path="url(#clip_1)" fill="#aaaaaa" fill-opacity="1"/>
    </g>
    <g>
        <clipPath id="clip_1">
            <path d="M17.59,75a0.51,0.51 0,0 0,0.38 0.15,0.37 0.37,0 0,0 0.24,-0.1Z M 0,0"/>
        </clipPath>
        <path d="M6.19 63.58H29.610000000000003V86.53H6.19z" clip-path="url(#clip_1)" fill="#3c3c3c" fill-opacity="1"/>
    </g>
    <g>
        <clipPath id="clip_1">
            <path d="M64.46,41.75l-1.77,0.92 1.77,-0.92 M 0,0"/>
        </clipPath>
        <path d="M51.3 30.35H75.86V54.06H51.3z" clip-path="url(#clip_1)" fill="#c6b6c6" fill-opacity="1"/>
    </g>
    <g>
        <clipPath id="clip_1">
            <path d="M71.58,69.69c0.1,0.63 -2.1,1.6 -2.46,1.45a4.63,4.63 0,0 0,2.46 -1.45 M 0,0"/>
        </clipPath>
        <path d="M59.06 59.62H81.65V81.21H59.06z" clip-path="url(#clip_1)" fill="#b5b5b5" fill-opacity="1"/>
    </g>
    <g>
        <clipPath id="clip_1">
            <path d="M54.86,46.79l-0.08,0.05 0.08,-0.05 M 0,0"/>
        </clipPath>
        <path d="M43.38 35.4H66.25V58.23H43.38z" clip-path="url(#clip_1)" fill="#c6b6c6" fill-opacity="1"/>
    </g>
    <g>
        <clipPath id="clip_1">
            <path d="M47.56,41.24a1.28,1.28 0,0 1,-0.7 -0.31,1.39 1.39,0 0,1 -0.34,-1.34c0.06,-0.45 0,-0.6 -0.12,-0.7 -0.48,-0.3 -1.36,0 -1.66,0.15a0.38,0.38 0,0 1,-0.51 -0.17,0.38 0.38,0 0,1 0.18,-0.51 2.76,2.76 0,0 1,2.39 -0.12,1.32 1.32,0 0,1 0.48,1.44c-0.05,0.38 -0.05,0.57 0.08,0.68 0.34,0.3 1.28,0.08 1.68,-0.07a0.38,0.38 0,0 1,0.49 0.23,0.38 0.38,0 0,1 -0.22,0.49 3.75,3.75 0,0 1,-1.75 0.23 M 0,0"/>
        </clipPath>
        <path d="M34.01 25.43H59.76V53.84H34.01z" clip-path="url(#clip_1)" fill="#b5b5b5" fill-opacity="1"/>
    </g>
    <g>
        <clipPath id="clip_1">
            <path d="M23.39,76.23h-0.05c-0.42,0 -0.76,0.57 -0.76,1.28s0.34,1.28 0.76,1.28 0.77,-0.58 0.77,-1.28 -0.32,-1.23 -0.72,-1.27 M 0,0"/>
        </clipPath>
        <path d="M11.18 64.82H35.5V90.16999999999999H11.18z" clip-path="url(#clip_1)" fill="#ffffff" fill-opacity="1"/>
    </g>
    <g>
        <clipPath id="clip_1">
            <path d="M56.51,45.92l-1.65,0.87 1.65,-0.87 M 0,0"/>
        </clipPath>
        <path d="M43.46 34.53H67.9V58.19H43.46z" clip-path="url(#clip_1)" fill="#c6b6c6" fill-opacity="1"/>
    </g>
    <g>
        <clipPath id="clip_1">
            <path d="M17.77,72.43a0.46,0.46 0,0 0,-0.28 0.12h0.63a0.53,0.53 0,0 0,-0.35 -0.12 M 0,0"/>
        </clipPath>
        <path d="M6.1 61.03H29.520000000000003V83.95H6.1z" clip-path="url(#clip_1)" fill="#3c3c3c" fill-opacity="1"/>
    </g>
    <g>
        <clipPath id="clip_1">
            <path d="M60.92,43.6l-0.48,0.25 0.48,-0.25 M 0,0"/>
        </clipPath>
        <path d="M49.05 32.21H72.32V55.25H49.05z" clip-path="url(#clip_1)" fill="#c6b6c6" fill-opacity="1"/>
    </g>
    <g>
        <clipPath id="clip_1">
            <path d="M54.78,46.84c-0.58,0.3 -1.15,0.6 -1.71,0.91 0.56,-0.31 1.13,-0.61 1.71,-0.91 M 0,0"/>
        </clipPath>
        <path d="M41.67 35.44H66.18V59.14H41.67z" clip-path="url(#clip_1)" fill="#c6b6c6" fill-opacity="1"/>
    </g>
    <g>
        <clipPath id="clip_1">
            <path d="M66.67,40.61h0l-1.78,0.92 1.79,-0.92 M 0,0"/>
        </clipPath>
        <path d="M53.48 29.21H78.06V52.93H53.48z" clip-path="url(#clip_1)" fill="#c6b6c6" fill-opacity="1"/>
    </g>
</svg>