<svg xmlns="http://www.w3.org/2000/svg" width="120.0" height="120.0" viewBox="0 0 120.0 120.0">
    <path d="M92.24,16.24c-1.15,-2.44 -5,-4.13 -9.54,-3.95S74.41,14.48 73.49,17c0,0 -4.06,10.16 -7.06,14.63A58.84,58.84 0,0 1,55.35 43.47c-4.07,3.47 -8.5,6.49 -12.28,10.27A62.41,62.41 0,0 0,33.14 66.4c-6.9,11.87 -8.73,27.86 -1.2,39.95 1,1.63 2.24,3.09 4.28,3.29a9.68,9.68 0,0 0,4 -0.66c9.23,-3.08 17.23,-10.29 20.45,-19.57 2.58,-7.42 2.08,-15.78 6,-22.75 6.9,-12.21 22.1,-16.74 29,-29.09a15.6,15.6 0,0 0,2.18 -6.79C98.13,25.45 92.24,16.24 92.24,16.24Z" fill="#d158a9" fill-opacity="1"/>
    <path d="M35.81,109.57a8.71,8.71 0,0 0,3.55 -0.81L41,108l1.59,-0.89a28.87,28.87 0,0 0,5.65 -4.48,39.14 39.14,0 0,0 8,-11.8 35.7,35.7 0,0 0,2.19 -6.7c0.5,-2.32 0.83,-4.73 1.21,-7.2a56,56 0,0 1,1.54 -7.58A26.24,26.24 0,0 1,64.59 62c3,-4.54 7.07,-8 11.1,-11s8.17,-5.69 11.75,-8.84A32.11,32.11 0,0 0,92.27 37a22.6,22.6 0,0 0,1.85 -2.89,14.06 14.06,0 0,0 1.1,-3.2c1.17,-4.44 -0.5,-9.34 -2.48,-13.87a27.6,27.6 0,0 1,3.89 6.5,17.3 17.3,0 0,1 1.11,3.77 10.75,10.75 0,0 1,0.18 2,18.8 18.8,0 0,1 -0.13,2 16.2,16.2 0,0 1,-0.93 3.95A14.57,14.57 0,0 1,96 37.17a19.45,19.45 0,0 1,-1 1.71A35.93,35.93 0,0 1,90.09 45c-3.66,3.68 -7.81,6.61 -11.64,9.64s-7.43,6.15 -9.94,10a22.68,22.68 0,0 0,-2.88 6.11,62.55 62.55,0 0,0 -1.62,7c-0.45,2.42 -0.91,4.93 -1.6,7.44a35.93,35.93 0,0 1,-2.91 7.28,38 38,0 0,1 -9.71,11.95 29.59,29.59 0,0 1,-6.56 4l-1.79,0.68 -1.83,0.54A8.27,8.27 0,0 1,35.81 109.57Z" fill="#b73091" fill-opacity="1"/>
    <path d="M76.092,18.076a3.3,7.34 87.74,1 0,14.669 -0.579a3.3,7.34 87.74,1 0,-14.669 0.579z" fill="#6d0755" fill-opacity="1"/>
    <path d="M97.46,25.79A3.78,3.78 0,0 1,97.24 28,6.64 6.64,0 0,1 95.94,30a13,13 0,0 1,-3.71 2.66A24.47,24.47 0,0 1,83.55 35a24.69,24.69 0,0 1,-9 -0.78,13.23 13.23,0 0,1 -4.13,-1.94 7.09,7.09 0,0 1,-1.62 -1.66,3.68 3.68,0 0,1 -0.61,-2.17 4.08,4.08 0,0 0,1.11 1.75,7.16 7.16,0 0,0 1.72,1.09 15.2,15.2 0,0 0,4 1.14,33.63 33.63,0 0,0 8.33,0.22 33.68,33.68 0,0 0,8.16 -1.71,15.46 15.46,0 0,0 3.68,-1.84 6.77,6.77 0,0 0,1.5 -1.38A4,4 0,0 0,97.46 25.79Z" fill="#b1b2b2" fill-opacity="1"/>
    <path d="M88.68,32.88a19.66,19.66 0,0 1,-3.48 0.8,21.17 21.17,0 0,1 -2.83,0.2" fill="#000000" fill-opacity="0" stroke="#d1d3d3" stroke-opacity="1" stroke-width="2.26"/>
    <path d="M76.11,18.35a1.76,1.76 0,0 1,0.15 -1.12,3.39 3.39,0 0,1 0.7,-0.94 6.37,6.37 0,0 1,1.93 -1.24,12.4 12.4,0 0,1 4.4,-1 12.55,12.55 0,0 1,4.46 0.62,6.6 6.6,0 0,1 2,1.09 3.85,3.85 0,0 1,0.78 0.88,1.78 1.78,0 0,1 0.23,1.11 2.36,2.36 0,0 0,-1.38 -1.42,8.59 8.59,0 0,0 -1.94,-0.61 18.31,18.31 0,0 0,-4.12 -0.27,18 18,0 0,0 -4.08,0.59 7.75,7.75 0,0 0,-1.88 0.77A2.34,2.34 0,0 0,76.11 18.35Z" fill="#b73091" fill-opacity="1"/>
    <path d="M73,19.29a9.74,9.74 0,0 0,3.88 2.8,16.71 16.71,0 0,0 4.66,1A22.74,22.74 0,0 0,86.36 23a16.25,16.25 0,0 0,2.37 -0.46c0.39,-0.1 0.78,-0.22 1.17,-0.35A3.67,3.67 0,0 1,91.12 22a1.18,1.18 0,0 0,-0.54 0.26l-0.53,0.33a11.88,11.88 0,0 1,-1.11 0.6,11.34 11.34,0 0,1 -2.42,0.83 15.45,15.45 0,0 1,-5.07 0.28,13.14 13.14,0 0,1 -4.93,-1.35A7.63,7.63 0,0 1,73 19.29Z" fill="#ffffff" fill-opacity="0.3"/>
    <path d="M32.577,83.329a3.14,2.42 106.44,1 0,1.777 -6.023a3.14,2.42 106.44,1 0,-1.777 6.023z" fill="#c447a1" fill-opacity="1"/>
    <path d="M35.868,73.009a3.14,2.42 112.63,1 0,2.416 -5.796a3.14,2.42 112.63,1 0,-2.416 5.796z" fill="#c447a1" fill-opacity="1"/>
    <path d="M34.83,77.47a2.36,2.36 0,0 0,-2 0.34,3.79 3.79,0 0,0 -1.32,1.59 3.65,3.65 0,0 0,-0.34 2,2.32 2.32,0 0,0 1.05,1.76 2.2,2.2 0,0 1,-1.35 -1.71,3.77 3.77,0 0,1 1.81,-3.92A2.19,2.19 0,0 1,34.83 77.47Z" fill="#af3793" fill-opacity="1"/>
    <path d="M-848.66,-373.08H686.09V3131.93H-848.66z" fill="#000000" fill-opacity="0" stroke="#32dd14" stroke-opacity="1" stroke-width="23.55"/>
</svg>