<svg xmlns="http://www.w3.org/2000/svg" width="120.0" height="120.0" viewBox="0 0 120.0 120.0">
    <path d="M90.21,7.2a10,10 0,0 1,2.92 1.53c5.49,4.11 6.72,12.12 7.1,18.5a34.84,34.84 0,0 1,-2.72 14.91,77.23 77.23,0 0,1 -6,11.53c-6.2,10.2 -13.76,19.71 -18.34,30.82a50.28,50.28 0,0 0,-3 10.6c-0.17,1 0.81,1.78 1.69,2.31 0.49,0.29 1,0.46 1.52,0.77a5.87,5.87 0,0 1,1.88 2.71,12.77 12.77,0 0,1 1.18,3.25c0.52,3.09 -1.33,6.71 -4.89,5.87 -1.61,-0.39 -3.25,-0.57 -4.86,-0.91a1.47,1.47 0,0 0,-1.59 0.64,8.68 8.68,0 0,1 -5.86,3.51c-9.82,0.65 -19.44,-3.39 -28,-7.77a36.47,36.47 0,0 1,-8.48 -5.35,13.17 13.17,0 0,1 -2.14,-2.46 4.27,4.27 0,0 1,-0.91 -2.61c0.12,-1.06 1,-1.71 1.74,-2.38a18.24,18.24 0,0 1,1.87 -1.52,8.42 8.42,0 0,1 4.41,-1.57c2.62,-0.12 5.17,0.68 7.78,0.74 5.75,0.11 11.73,-1.28 15.94,-5.41a21.26,21.26 0,0 0,5.36 -10.28,104 104,0 0,0 2,-14c0.54,-5.06 0.79,-10.15 1.26,-15.21 0.67,-7.2 1.69,-14.83 5,-21.35A39.69,39.69 0,0 1,78 9.76C81.58,7.31 86.14,5.87 90.21,7.2Z" fill="#706699" fill-opacity="1"/>
    <path d="M19.76,95a1.19,1.19 0,0 0,0 0.72,9.66 9.66,0 0,0 3,4.34 36.47,36.47 0,0 0,8.48 5.35c8.55,4.38 18.17,8.42 28,7.77a17,17 0,0 1,-3.59 -0.54,43 43,0 0,1 -14,-5.09A60.37,60.37 0,0 1,31.2 99.92c-1.2,-1.07 -2.35,-2.2 -3.64,-3.16 -1.92,-1.43 -4.65,-2.87 -7.11,-2.25a1,1 0,0 0,-0.64 0.37A0.93,0.93 0,0 0,19.76 95Z" fill="#635d8c" fill-opacity="1"/>
    <path d="M65.71,107.18a19,19 0,0 0,0.92 -3.56,68.05 68.05,0 0,0 0.57,-7.41 30,30 0,0 1,0.89 -6.33A67.37,67.37 0,0 1,71 81.22c2.51,-5.91 5.34,-11.67 8.4,-17.31 1.45,-2.67 2.91,-5.34 4.61,-7.85a39,39 0,0 1,2.88 -3.85,18.3 18.3,0 0,1 1.69,-1.72 4,4 0,0 1,1.78 -1.19,1.28 1.28,0 0,1 1.16,0.43 2,2 0,0 1,0.35 0.86,6.52 6.52,0 0,1 -1,4.12c-0.64,1.15 -1.42,2.23 -2.13,3.33 -1,1.49 -1.94,3 -2.92,4.44 -1.95,3 -3.92,5.89 -5.78,8.9a83.72,83.72 0,0 0,-7.81 16,34.59 34.59,0 0,0 -2.09,8 20.74,20.74 0,0 0,0.48 7c0.28,1.13 0.57,2.26 1,3.36a16.13,16.13 0,0 0,0.81 2,3.25 3.25,0 0,0 0.84,1.07 8.94,8.94 0,0 0,1.32 0.74,3.67 3.67,0 0,1 -3,0.48c-1.62,-0.38 -3.26,-0.57 -4.87,-0.91a1.49,1.49 0,0 0,-1.59 0.64l0.56,-2.57" fill="#635d8c" fill-opacity="1"/>
    <path d="M79.47,63.91A148.15,148.15 0,0 0,69.94 85a44.55,44.55 0,0 0,-2.31 11.21c-0.2,3.82 -0.5,7.82 -2,11.42l-0.08,0A44.82,44.82 0,0 0,66.8 96.14a37.79,37.79 0,0 1,2.51 -11.38A138.12,138.12 0,0 1,79.4 63.87Z" fill="#8279b7" fill-opacity="1"/>
    <path d="M59.1,102.12a13.73,13.73 0,0 1,-9 0.85,38 38,0 0,1 -8.43,-3.65 88.27,88.27 0,0 1,-7.9 -4.69l-3.81,-2.57L28,90.78l-0.95,-0.63c-0.32,-0.18 -0.66,-0.41 -1,-0.25l0,-0.05a1.27,1.27 0,0 1,1.13 0.18l1,0.57c0.66,0.38 1.32,0.77 2,1.17L34,94.21c2.56,1.69 5.16,3.27 7.83,4.76a36.89,36.89 0,0 0,8.3 3.76,13.58 13.58,0 0,0 8.93,-0.65Z" fill="#8279b7" fill-opacity="1"/>
    <path d="M77.92,13.18c-1.39,1.71 -3,3.24 -4.39,4.92a35.72,35.72 0,0 0,-3.72 5.32,44.42 44.42,0 0,0 -4.52,12.11 111.44,111.44 0,0 0,-2 12.93c-0.4,4.36 -1.06,8.76 -1.8,13.09 0.18,-4.42 0.44,-8.77 0.65,-13.19A80.51,80.51 0,0 1,63.85 35.2a39.82,39.82 0,0 1,5 -12.38A31,31 0,0 1,73 17.61C74.61,16.06 76.29,14.66 77.92,13.18Z" fill="#8279b7" fill-opacity="1"/>
    <path d="M52.28,84.11l-0.49,0.52A12.42,12.42 0,0 1,50 86.2a18.17,18.17 0,0 1,-2.43 1.56,4 4,0 0,1 0.73,0.15c0.41,0.11 0.81,0.27 1.23,0.37a10.46,10.46 0,0 0,4.42 0.08c0.29,-0.06 0.58,-0.12 0.86,-0.2a1.94,1.94 0,0 0,0.75 -0.28c0.35,-0.15 -1.34,-1.42 -1.93,-2.31A4.08,4.08 0,0 1,53.18 83c-0.2,0.24 -0.38,0.51 -0.56,0.7C52.58,83.74 52.31,84.07 52.28,84.11Z" fill="#635d8c" fill-opacity="1" fill-rule="evenodd"/>
    <path d="M70.59,96.86c0.77,0.33 1.52,0.61 2.27,1a4.94,4.94 0,0 1,2 1.73,11.1 11.1,0 0,1 1,2.33 8.28,8.28 0,0 1,0.39 2.47l-1.11,-2.19c-0.36,-0.7 -0.73,-1.44 -1.12,-2.09a6.09,6.09 0,0 0,-1.56 -1.61A11,11 0,0 1,70.59 96.86Z" fill="#635d8c" fill-opacity="1"/>
    <path d="M-85.19,-1051.63H631.49V607.04H-85.19z" fill="#000000" fill-opacity="0" stroke="#32dd14" stroke-opacity="1" stroke-width="11.07"/>
</svg>