<svg xmlns="http://www.w3.org/2000/svg" width="120.0" height="120.0" viewBox="0 0 120.0 120.0">
    <path d="M91.33,10.66c1.15,0.61 4.18,4.4 3.14,13.2s-3.43,13.07 -3.7,15a37.31,37.31 0,0 1,-7.66 15.74C78.83,59.63 71.8,67.21 68.42,73.23S64.36,84.37 64.8,91.36s0.73,10.14 0.41,11.11A13.3,13.3 0,0 1,63.69 106a9.93,9.93 0,0 1,-3.7 3.76c-1,0.46 -6.31,-1.3 -11.06,-7.22s-6.2,-10.3 -10.69,-13.63 -7.13,-2.83 -9.63,-3.2a8.41,8.41 0,0 1,-3.26 -0.92,8.12 8.12,0 0,1 1,-4 7.76,7.76 0,0 1,1.77 -2.61,52.48 52.48,0 0,0 9.33,-3.57c3.77,-2.06 8.86,-5 12.37,-11.28s5,-11.78 7.08,-18.08 4.74,-12.45 7.78,-16.35c0.94,-1.21 2.15,-2.52 3.7,-4.3 1,-1.2 2.53,-2.92 3.83,-4.25C78.33,14.11 86.21,7.94 91.33,10.66Z" fill="#b21616" fill-opacity="1" fill-rule="evenodd"/>
    <path d="M64.66,28.86a52.78,52.78 0,0 1,3.7 -4.3c1,-1.2 2.53,-2.92 3.83,-4.25 6.14,-6.2 14,-12.37 19.14,-9.65 1.15,0.61 4.18,4.4 3.14,13.2s-3.43,13.07 -3.7,15c0,0 -2.48,-2 -11.47,0.67C73.48,41.27 64.93,48.52 60,56s-8.88,14.32 -8.88,14.32 6,-14.07 7.15,-20.9C59.63,41.83 63.27,31.37 64.66,28.86Z" fill="#961414" fill-opacity="1" fill-rule="evenodd"/>
    <path d="M60,109.77c-1,0.46 -6.31,-1.3 -11.06,-7.22s-6.2,-10.3 -10.69,-13.63 -7.13,-2.83 -9.63,-3.2a8.41,8.41 0,0 1,-3.26 -0.92s-0.4,0.72 1.4,3.8c1.7,2.92 1.58,2.57 7.5,6.75 6.57,4.65 12.63,10.78 18.31,13.05C58.61,110.82 60,109.77 60,109.77Z" fill="#9d9ea5" fill-opacity="1" fill-rule="evenodd"/>
    <path d="M52.56,108.4c-5.68,-2.27 -11.74,-8.4 -18.31,-13.05a63.36,63.36 0,0 1,-5.63 -4.12S29.7,93.3 35.8,98A89.56,89.56 0,0 0,52.56 108.4Z" fill="#c12121" fill-opacity="1" fill-rule="evenodd"/>
    <path d="M56.86,85.55c-0.08,12.26 5.24,16.51 4.92,17.28s-4,-1 -7.26,-5S50.21,86.69 53,79.59c3.6,-9.29 11.86,-19.91 12.77,-19C66.88,61.78 56.93,74.48 56.86,85.55Z" fill="#bc3333" fill-opacity="1" fill-rule="evenodd"/>
    <path d="M49.8,63.29s-4.39,7.6 -11.23,11.84c-4.25,2.64 -10.65,3.08 -10.65,3.08l0.18,-0.07a52.48,52.48 0,0 0,9.33 -3.57C41.2,72.51 46.29,69.57 49.8,63.29Z" fill="#bc3333" fill-opacity="1" fill-rule="evenodd"/>
</svg>