<svg xmlns="http://www.w3.org/2000/svg" width="120.0" height="120.0" viewBox="0 0 120.0 120.0">
    <path d="M49.65,45.84s-8.07,65.32 17,65.32S87.37,61.08 85.91,50 72.77,8.19 60.25,8.87c-11.31,0.62 -23.33,12.25 -23.33,12.25L52.08,39.79s-1.16,3.5 -6.41,5.25A18.93,18.93 0,0 0,49.65 45.84Z" fill="#cebad8" fill-opacity="1"/>
    <path d="M45.67,45s10,4.81 17.86,0.07c8.86,-5.33 4.3,-20.78 4.3,-20.78s7.92,11.12 -0.29,21.87c-11.35,14.88 -8.68,44.33 15,53 0,0 8.3,-11 3.34,-49.25S63.27,8.44 59.67,8.87a23.66,23.66 0,0 0,-5.55 1.46S57.62,30.16 45.67,45Z" fill="#d8c7e0" fill-opacity="1"/>
    <path d="M49.65,46.42s9.68,-0.09 16.93,-4.17c0,0 -6.61,10.44 -17.55,10.14C49,52.39 49.43,47.86 49.65,46.42Z" fill="#b6a4c1" fill-opacity="1"/>
    <path d="M46,45.11s12.83,-5 8.46,-35.07c0,0 -21.58,7.29 -21.58,20.41S46,45.11 46,45.11Z" fill="#ffc1d0" fill-opacity="1"/>
    <path d="M45.67,45s1,0.41 4,-3c0,0 -12.45,-2 -13.41,-10.6 -0.89,-7.91 1.91,-11.85 1.91,-11.85a15.1,15.1 0,0 0,-5.63 12.23C32.84,38.44 38.88,44.31 45.67,45Z" fill="#e7b1bb" fill-opacity="1"/>
    <path d="M84.77,94.34A28.43,28.43 0,0 1,66.2 75.49c-0.12,-0.46 -2.79,-10.88 0,-18.2h0c-2.69,7.08 0.74,17.87 0.77,18a27.59,27.59 0,0 0,18 18.3Z" fill="#cebad8" fill-opacity="1"/>
    <path d="M86.36,87.65A13.83,13.83 0,0 1,81.29 86a20.76,20.76 0,0 1,-8.88 -9.78c-0.16,-0.29 -4,-7.62 -1.1,-15.58h0c-2.82,7.62 1.78,15.15 1.82,15.22 4.9,10.31 13.2,11 13.28,11Z" fill="#cebad8" fill-opacity="1"/>
    <path d="M87.08,80.79c-0.25,0 -6.17,-1.14 -9.41,-5.93C75.7,72 75,67.7 75.85,63.19h0a15.62,15.62 0,0 0,2.48 11.22c3,4.5 8.83,5.58 8.89,5.59Z" fill="#cebad8" fill-opacity="1"/>
    <path d="M49.65,42s12.85,2.42 16.93,0.21c0,0 -2,3.9 -9.86,4.39 0,0 -6.89,0.72 -11,-1.56C45.74,45.08 47.28,44.82 49.65,42Z" fill="#cebad8" fill-opacity="1"/>
    <path d="M65.47,14.09m-1.29,0a1.29,1.29 0,1 1,2.58 0a1.29,1.29 0,1 1,-2.58 0" fill="#b6a4c1" fill-opacity="1"/>
    <path d="M-169.57,-1103.33H1534.9V2862.24H-169.57z" fill="#000000" fill-opacity="0" stroke="#32dd14" stroke-opacity="1" stroke-width="11.07"/>
</svg>