<svg xmlns="http://www.w3.org/2000/svg" width="120.0" height="120.0" viewBox="0 0 120.0 120.0">
    <g>
        <clipPath id="clip_1">
            <path d="M53,65.27c2.27,-0.42 0.15,-4.63 2.19,-9.06a17.17,17.17 0,0 1,2 -4.42c1.59,-2.57 5.83,-6.62 11.29,-12.68s3.06,-11 2.33,-11.75a26.67,26.67 0,0 1,-3.35 6.86c-3.06,4.29 -14,13.15 -15.73,18.93S50.72,65.69 53,65.27 M 0,0"/>
        </clipPath>
        <path d="M38.6 15.17H84.17V77.48H38.6z" clip-path="url(#clip_1)" fill="#879ea3" fill-opacity="1"/>
    </g>
    <g>
        <clipPath id="clip_1">
            <path d="M33.91,67.2l0.11,0 -0.11,0 M 0,0"/>
        </clipPath>
        <path d="M21.72 54.96H46.209999999999994V79.38H21.72z" clip-path="url(#clip_1)" fill="#424343" fill-opacity="1"/>
    </g>
    <g>
        <clipPath id="clip_1">
            <path d="M41.53,73.35c-0.79,-1 -1.63,-2 -2.42,-3 -0.42,-0.43 -0.8,-0.92 -1.21,-1.35a6.87,6.87 0,0 0,-3.35 -1.82h-0.06c-0.93,-0.08 -1.94,1 -2.83,1.6 -2.39,1.59 -4.59,3.46 -7,5.32C15.47,81 8.5,90.11 9.08,99a16.37,16.37 0,0 0,0.69 4,7.67 7.67,0 0,0 3.64,4.44 7,7 0,0 0,2.62 0.94,11.23 11.23,0 0,1 -0.46,-4.39 17.15,17.15 0,0 1,1.49 -5.6c1.94,-4.31 8.2,-9.67 15.62,-15.33 3.26,-2.48 6.74,-5 10.18,-7.57 -0.44,-0.76 -0.88,-1.5 -1.33,-2.2 M 0,0"/>
        </clipPath>
        <path d="M-3.14 54.96H55.05V120.62H-3.14z" clip-path="url(#clip_1)" fill="#ced9de" fill-opacity="1"/>
    </g>
    <g>
        <clipPath id="clip_1">
            <path d="M42.86,75.55c-3.44,2.55 -6.92,5.09 -10.18,7.57 -7.42,5.66 -13.68,11 -15.62,15.33a17.15,17.15 0,0 0,-1.49 5.6,11.23 11.23,0 0,0 0.46,4.39A2.59,2.59 0,0 0,18 107.9c0.62,-0.51 0.51,-1.47 0.59,-2a8,8 0,0 1,0.33 -1.3,9.43 9.43,0 0,1 0.87,-1.94c1.79,-3 6.85,-6.4 9.21,-7.64 0.78,-0.41 1.61,-0.84 2.45,-1.18a6.53,6.53 0,0 1,2.95 -0.56c2.79,0.29 4.09,2.12 7.07,1.17A8.21,8.21 0,0 0,46.37 89c1.05,-4.2 -1,-9.19 -3.51,-13.46 M 0,0"/>
        </clipPath>
        <path d="M3.33 63.36H58.839999999999996V120.64H3.33z" clip-path="url(#clip_1)" fill="#aebcbf" fill-opacity="1"/>
    </g>
    <g>
        <clipPath id="clip_1">
            <path d="M10.65,93.09c-0.29,-0.1 -0.66,0.22 -0.83,0.72s-0.09,1 0.2,1.07 0.65,-0.22 0.82,-0.71 0.09,-1 -0.19,-1.08 M 0,0"/>
        </clipPath>
        <path d="M-2.46 80.88H23.119999999999997V107.09H-2.46z" clip-path="url(#clip_1)" fill="#e6e6e6" fill-opacity="1"/>
    </g>
    <g>
        <clipPath id="clip_1">
            <path d="M13.56,96a1.07,1.07 0,0 0,-1.25 0.82c-0.11,0.46 0.09,1 0.45,1.05a1.15,1.15 0,0 0,1.16 -0.58A0.83,0.83 0,0 0,13.56 96m0,0a1.08,1.08 0,0 1,0.65 1.38,1.37 1.37,0 0,1 -1.65,1A1,1 0,0 1,12 96.77,1.46 1.46,0 0,1 13.56,96 M 0,0"/>
        </clipPath>
        <path d="M-0.37 83.8H26.45V110.62H-0.37z" clip-path="url(#clip_1)" fill="#3c3c3c" fill-opacity="1"/>
    </g>
    <g>
        <clipPath id="clip_1">
            <path d="M16,108.44a7,7 0,0 1,-2.62 -0.94,7.7 7.7,0 0,1 -3.64,-4.44h0s0.09,4.14 5.24,7.72a12.72,12.72 0,0 0,3.64 1.76,9.71 9.71,0 0,1 -2.61,-4.1 M 0,0"/>
        </clipPath>
        <path d="M-2.43 90.87H30.83V124.73H-2.43z" clip-path="url(#clip_1)" fill="#a0b5b8" fill-opacity="1"/>
    </g>
    <g>
        <clipPath id="clip_1">
            <path d="M41.75,72.49c1.09,1.62 6.45,9.34 5.25,15.08 -0.85,5.5 -5.7,10.53 -11.85,5.87 0,0 0.77,0.09 0.78,0.08 4.32,2.5 9.29,0.44 10.33,-5.1 1,-5.3 -2.29,-11.2 -5.74,-16.19 -1.5,-2.16 -4.2,-4.94 -6.5,-5.08 1.38,-1.13 3.21,0.18 4.76,1.61a0.6,0.6 0,0 1,0.08 0.08,33.85 33.85,0 0,1 2.89,3.65 M 0,0"/>
        </clipPath>
        <path d="M21.83 54.53H59.36V107.46000000000001H21.83z" clip-path="url(#clip_1)" fill="#d9e9e9" fill-opacity="1"/>
    </g>
    <g>
        <clipPath id="clip_1">
            <path d="M109.27,8.68c0.31,17.81 -26,40.49 -34.41,47.28 -9.7,7.84 -19.5,10.16 -26.18,15.24 -1.89,1.45 -3.85,2.9 -5.82,4.35 2.46,4.27 4.56,9.26 3.51,13.46a8.24,8.24 0,0 1,-4.93 5.45c-3,1 -4.28,-0.88 -7.07,-1.17a6.53,6.53 0,0 0,-2.95 0.56,22.2 22.2,0 0,1 -5.21,8c-3.7,3.6 -7.23,2.84 -7.33,2.81a9.12,9.12 0,0 0,-0.32 1.3c-0.08,0.52 0,1.48 -0.59,2a2.59,2.59 0,0 1,-1.94 0.54,9.71 9.71,0 0,0 2.61,4.1c4.25,1.25 9,0 14.24,-3.83 6.83,-4.91 9.65,-11.62 14.06,-17.21s7.46,-7.89 18.73,-19.13 7.89,-7.94 16.79,-14.6 13.76,-9.85 20,-20.16c5.36,-8.9 11.57,-24 6.84,-28.93 M 0,0"/>
        </clipPath>
        <path d="M3.84 -3.51H123.14V125.18999999999998H3.84z" clip-path="url(#clip_1)" fill="#879ea3" fill-opacity="1"/>
    </g>
    <g>
        <clipPath id="clip_1">
            <path d="M30.32,80.22 L22,86.75c-2.31,1.81 -3.55,4.19 -6,3.84a2.42,2.42 0,0 1,-1.52 -0.81c-1.79,-2.21 0.19,-5.41 2.9,-7.65l9.64,-8.36c2.48,-1.94 5,-4.26 7.74,-1.85 1.65,4.07 -0.91,5.72 -4.49,8.3 M 0,0"/>
        </clipPath>
        <path d="M1.66 58.7H47.51V102.82H1.66z" clip-path="url(#clip_1)" fill="#424343" fill-opacity="1"/>
    </g>
    <g>
        <clipPath id="clip_1">
            <path d="M34.55,7H109.27V75.55H34.55z M 0,0"/>
        </clipPath>
        <g clip-path="url(#clip_1)">
            <clipPath id="clip_2">
                <path d="M33.43 3.57H111.44999999999999V76.71H33.43z M 0,0"/>
            </clipPath>
            <g clip-path="url(#clip_2)">
                <clipPath id="clip_3">
                    <path d="M109.27,8.68a5.27,5.27,0,0,0,-3.13,-1.54C96.27,5.6,85.89,17.33,79.65,26.67S70.21,46.42,67.08,50s-11.9,6.26,-11.9,6.26c-2,4.43 0.08,8.64,-2.19,9.06s-3,-6.35,-1.22,-12.12S64.44,38.51,67.5,34.22a26.61,26.61,0,0,0,3.34,-6.86l0,0c-0.69,-0.62,-3.21,-3.43,-10.2,1S49,42.48,47.22,47.36s-4,11.51,-6.85,14.1,-5.78,5.37,-5.78,5.37l0,0.34A6.87,6.87,0,0,1,37.9,69c0.41 0.43 0.79 0.92,1.21,1.35 0.79,1,1.63,2,2.42,3,0.45 0.7 0.89,1.44,1.33,2.2,2,-1.45,3.93,-2.9,5.82,-4.35C55.36,66.12,65.16,63.8,74.86,56c8.4,-6.79,34.72,-29.47,34.41,-47.28 M 0,0"/>
                </clipPath>
                <g clip-path="url(#clip_3)">
                    <clipPath id="clip_4">
                        <path d="M33.43 6.01H111.44999999999999V76.71000000000001H33.43z M 0,0"/>
                    </clipPath>
                    <path d="M22.36 -5.19H121.46V87.75H22.36z" clip-path="url(#clip_4)" fill="#a0b5b8" fill-opacity="1"/>
                </g>
            </g>
        </g>
    </g>
    <g>
        <clipPath id="clip_1">
            <path d="M35.89,75.79c-0.68,2 -2.73,3.4 -4.34,4.56l-8.78,6.92c-2.87,2.24 -4,4.78 -7.15,4.37a2.64,2.64 0,0 1,-1.78 -0.89C11.6,88 13.73,84.64 16.91,82L25,75c1.83,-1.41 3.37,-3 5.14,-3.85s3.34,-1.6 5.13,0.21 1,3.39 0.65,4.45 M 0,0"/>
        </clipPath>
        <path d="M0.72 58.05H48.56V103.87H0.72z" clip-path="url(#clip_1)" fill="#d9e9e9" fill-opacity="1"/>
    </g>
    <g>
        <clipPath id="clip_1">
            <path d="M12.92,96c-0.33,-0.12 -0.73,0.15 -0.89,0.6a0.77,0.77 0,0 0,0.32 1c0.33,0.12 0.73,-0.15 0.88,-0.59a0.77,0.77 0,0 0,-0.31 -1 M 0,0"/>
        </clipPath>
        <path d="M-0.22 83.8H25.490000000000002V109.85H-0.22z" clip-path="url(#clip_1)" fill="#e6e6e6" fill-opacity="1"/>
    </g>
    <g>
        <clipPath id="clip_1">
            <path d="M27.3,73.5l-9.91,8.59c-2.75,2.27 -4.68,5.48 -2.9,7.73a2,2 0,0 0,1.28 0.64c2.56,0.48 3.84,-1.76 6.28,-3.67l8.3,-6.53c3.61,-2.59 6.4,-6 4.49,-8.38s-5.15,-0.24 -7.54,1.62 M 0,0"/>
        </clipPath>
        <path d="M1.61 58.61H47.65V102.71000000000001H1.61z" clip-path="url(#clip_1)" fill="#a0b5b8" fill-opacity="1"/>
    </g>
    <g>
        <clipPath id="clip_1">
            <path d="M11.43,93.1a1.2,1.2 0,0 0,-1.27 0.9c-0.13,0.41 0,1 0.3,1s0.89,-0.29 1.15,-0.68 0.47,-1 -0.18,-1.25m0,0a0.7,0.7 0,0 1,0.54 0.58,1.37 1.37,0 0,1 0,0.75 1.64,1.64 0,0 1,-0.46 0.72,1.5 1.5,0 0,1 -1.24,0.33 0.86,0.86 0,0 1,-0.67 -0.8,1.41 1.41,0 0,1 0.28,-0.76 2.17,2.17 0,0 1,0.64 -0.6,1.21 1.21,0 0,1 0.95,-0.22 M 0,0"/>
        </clipPath>
        <path d="M-2.63 80.88H24.19V107.69999999999999H-2.63z" clip-path="url(#clip_1)" fill="#3c3c3c" fill-opacity="1"/>
    </g>
</svg>