<svg xmlns="http://www.w3.org/2000/svg" width="120.0" height="120.0" viewBox="0 0 120.0 120.0">
    <path d="M10,95.09c5,-5.6 10.6,-4.09 13.22,-6.9 2.1,-2.24 3,-10.75 7.31,-14.79s13,-6.47 24.33,-13.17 21.48,-20 28.38,-29.5S93,17 101.33,11.64c7.68,-4.92 10.39,-4.21 11.06,-3.53s0.74,1.88 -1,6.09c-1.51,3.74 -4.2,9.53 -16.6,19 -5.36,3.41 -15.28,8.3 -26.95,18.42C49.33,67.71 47.73,77 38.73,83.63c-7.41,5.43 -11.07,5.23 -13.32,7.22C22.82,93.14 23.88,99 18,103.57c-4.11,3.19 -8.14,3.28 -10.44,0.64A9.78,9.78 0,0 1,10 95.09Z" fill="#d7c48e" fill-opacity="1"/>
    <path d="M96.33,18.75c-1.42,1.32 -2.3,2.68 -2,3s1.76,-0.41 3.18,-1.73 2.31,-2.67 2,-3S97.76,17.44 96.33,18.75Z" fill="#e7dba9" fill-opacity="1"/>
    <path d="M18,103.57c5.93,-4.61 4.87,-10.43 7.46,-12.72 2.25,-2 5.91,-1.79 13.32,-7.22 9,-6.6 10.6,-15.92 29.13,-32 11.67,-10.12 21.33,-14.93 27,-18.42Q92.45,35 89.6,37C74,47.92 66.73,55.39 60,64.69S51.5,82 46.83,88.52s-12.06,4.9 -15.5,8c-2.89,2.6 -1.2,7.44 -5.39,11.95 -5.49,5.91 -12.21,4.21 -15.54,0.85a11.17,11.17 0,0 1,-2.89 -5.1C9.81,106.85 13.84,106.76 18,103.57Z" fill="#cdb272" fill-opacity="1"/>
    <path d="M27.55,85.58a14.53,14.53 0,0 1,-3.1 3.78,46.27 46.27,0 0,1 -5.62,3.87c0,0.16 3,-0.4 5.85,-3.07S27.73,85.72 27.55,85.58Z" fill="#cdb272" fill-opacity="1"/>
    <path d="M84.06,33.82c-0.22,-0.17 -11.64,12.32 -17,17.28C56.57,60.87 48.55,66.19 49,66.64s6.42,-3.85 18.58,-15.36C80,39.55 84.66,34.26 84.06,33.82Z" fill="#cdb272" fill-opacity="1"/>
</svg>