<svg xmlns="http://www.w3.org/2000/svg" width="120.0" height="120.0" viewBox="0 0 120.0 120.0">
    <path d="M55.24,94.82c-0.62,3 1,10.27 -1.6,12a1.44,1.44 0,0 1,-1.32 0.22c1.34,0.4 2.16,-2.13 2.31,-3.22 0.29,-2 -0.44,-6.73 -0.15,-8.37a36.17,36.17 0,0 1,2.77 -8.88c5.89,-14.35 12.89,-41.19 11.28,-53.89 -1.69,-13.25 -7.15,-13.82 -8.66,-14.22 -3.07,-0.79 -5.36,0.68 -5.82,1.51a2.15,2.15 0,0 0,-0.8 -0.16A3.42,3.42 0,0 0,51 21.47s0.14,-0.35 0.2,-0.46c2.84,-5 6.94,-5.71 7.77,-6.54A5,5 0,0 1,61 13c1,-0.39 8.1,7 8.51,22.78C70.43,69.26 58.86,77.42 55.24,94.82Z" fill="#8c3758" fill-opacity="1"/>
    <path d="M53.06,82c-0.89,-7.21 -2.24,-18.26 -2,-22 0.44,-8.31 3.08,-17.82 2.92,-22.45 -0.13,-3.67 -2,-8.56 -2.77,-10.43 -0.07,-0.15 -0.12,-0.29 -0.17,-0.39a3.34,3.34 0,0 0,1.21 1.2h0c2.18,4 3.11,7.28 3.07,10C55.14,45.77 50.65,54.86 53.06,82Z" fill="#8c3758" fill-opacity="1"/>
    <path d="M56.16,24c0,0.16 0,0.31 0,0.47a5.41,5.41 0,0 1,-0.44 1.78,2.86 2.86,0 0,1 -2.46,2 2,2 0,0 1,-1 -0.28h0A3.34,3.34 0,0 1,51 26.73s0,0 0,-0.05 -0.06,-0.16 -0.09,-0.22l0,-0.09s0,0 0,0a1.52,1.52 0,0 1,-0.07 -0.18,1.27 1.27,0 0,1 0,-0.14h0a6.41,6.41 0,0 1,-0.25 -2.84,5.89 5.89,0 0,1 0.68,-2.09 2.52,2.52 0,0 1,2.1 -1.31,2.15 2.15,0 0,1 0.8,0.16C55.26,20.43 56.16,22.06 56.16,24Z" fill="#a25a6d" fill-opacity="1"/>
    <path d="M52.3,107c-0.9,-0.34 -1.44,-1.81 -1.3,-3.51a23.75,23.75 0,0 1,1.45 -5.76c0.59,-2 1,-3.3 1.21,-4.47 -0.52,3.36 -2,7.87 -2.18,9.57S51.5,106.5 52.3,107Z" fill="#8c3758" fill-opacity="1"/>
    <path d="M54.48,95.4c-0.29,1.64 0.44,6.35 0.15,8.37 -0.15,1.09 -1,3.62 -2.31,3.22h0c-0.8,-0.49 -1,-2.34 -0.82,-4.17s1.66,-6.21 2.18,-9.57a0.71,0.71 0,0 0,0 -0.2A17.09,17.09 0,0 0,53.77 88c-0.11,-1 -0.36,-3.17 -0.7,-5.84 0,0 0,-0.08 0,-0.11C50.65,54.86 55.14,45.77 55.29,38c0,-2.74 -0.89,-6 -3.07,-10a2,2 0,0 0,1 0.28,2.86 2.86,0 0,0 2.46,-2 15.07,15.07 0,0 1,1.85 2.63A11.68,11.68 0,0 1,59 32.63a23.71,23.71 0,0 1,0.53 4.11c0.28,5.49 -1.79,10.8 -3.5,16.71A43.9,43.9 0,0 0,55 58.07a42.93,42.93 0,0 0,-0.58 4.71A75.37,75.37 0,0 0,54.25 72c0.12,3 0.38,6 0.56,9a58.71,58.71 0,0 1,0.1 9,31.87 31.87,0 0,0 2.39,-8.9c0.42,-3 0.71,-6.06 1,-9.05 0.55,-6 1.08,-11.75 2.81,-17.19C62,52.1 62.87,49.17 63.5,46a26.43,26.43 0,0 0,0.22 -9.76,21.06 21.06,0 0,0 -1.39,-4.73 14.92,14.92 0,0 0,-2.68 -4.22,16.62 16.62,0 0,0 -3.5,-2.86c0,-0.16 0,-0.31 0,-0.47 0,-1.93 -0.9,-3.56 -2.11,-4.07A5.52,5.52 0,0 1,59.88 18c1.5,0.4 7,1.4 8.65,14.65 1.61,12.68 -5.39,39.52 -11.28,53.89A36.17,36.17 0,0 0,54.48 95.4Z" fill="#a04664" fill-opacity="1"/>
    <path d="M53.15,27.84c-1.48,0 -2.68,-1.73 -2.68,-3.86s1.2,-3.86 2.68,-3.86C51.1,21.48 50.47,26 53.15,27.84Z" fill="#6c213a" fill-opacity="1"/>
    <path d="M55.83,24c0,2.13 -1.2,3.86 -2.68,3.86 -2.68,-1.88 -2,-6.36 0,-7.72C54.63,20.12 55.83,21.84 55.83,24Z" fill="#451322" fill-opacity="1"/>
    <path d="M63.5,46c-0.63,3.13 -1.54,6.07 -2.4,8.91 -1.73,5.44 -2.26,11.19 -2.81,17.19 -0.28,3 -0.57,6 -1,9.05a31.81,31.81 0,0 1,-2.39 8.89,58.58 58.58,0 0,0 -0.1,-9c-0.18,-3 -0.44,-6 -0.56,-9.06a75.4,75.4 0,0 1,0.12 -9.25,42.46 42.46,0 0,1 0.58,-4.7 44.69,44.69 0,0 1,1.11 -4.63c1.71,-5.9 3.78,-11.21 3.5,-16.7A23.59,23.59 0,0 0,59 32.63a11.51,11.51 0,0 0,-1.47 -3.76,15.07 15.07,0 0,0 -1.85,-2.63 5.47,5.47 0,0 0,0.44 -1.79,17 17,0 0,1 3.5,2.87 15,15 0,0 1,2.68 4.21,21.14 21.14,0 0,1 1.39,4.74A26.43,26.43 0,0 1,63.5 46Z" fill="#933f5e" fill-opacity="1"/>
    <path d="M50.73,26a1.27,1.27 0,0 0,0 0.14,0.38 0.38,0 0,1 -0.05,-0.15Z" fill="#8c3758" fill-opacity="1"/>
    <path d="M51,26.68c0,-0.1 -0.06,-0.16 -0.09,-0.22l0,-0.09s0,0 0,0a1.52,1.52 0,0 1,-0.07 -0.18A1.89,1.89 0,0 0,51 26.68Z" fill="#8c3758" fill-opacity="1"/>
    <path d="M-76.55,-952.8H617.05V529.74H-76.55z" fill="#000000" fill-opacity="0" stroke="#3299fe" stroke-opacity="1" stroke-width="19.72"/>
</svg>