<svg xmlns="http://www.w3.org/2000/svg" width="120.0" height="120.0" viewBox="0 0 120.0 120.0">
    <g>
        <clipPath id="clip_1">
            <path d="M33.34,67.26l0.1,-0.05 -0.1,0.05 M 0,0"/>
        </clipPath>
        <path d="M21.03 54.9H45.760000000000005V79.56H21.03z" clip-path="url(#clip_1)" fill="#424343" fill-opacity="1"/>
    </g>
    <g>
        <clipPath id="clip_1">
            <path d="M7.88,67.21H43.82V109.3H7.88z M 0,0"/>
        </clipPath>
        <g clip-path="url(#clip_1)">
            <clipPath id="clip_2">
                <path d="M5.42 65.09H44.81V109.4H5.42z M 0,0"/>
            </clipPath>
            <g clip-path="url(#clip_2)">
                <clipPath id="clip_3">
                    <path d="M41.09,73.56c-0.8,-1.06,-1.66,-2,-2.46,-3.08,-0.42,-0.44,-0.81,-0.94,-1.23,-1.38a8.28,8.28,0,0,0,-2.89,-1.77,3.27,3.27,0,0,0,-0.58,-0.11c-1,-0.08,-2,1,-2.9,1.62,-2.44,1.62,-4.69,3.53,-7.2,5.41,-9.36,7,-16.49,16.32,-15.92,25.41a15.37,15.37,0,0,0,0.86,4.63,7.87,7.87,0,0,0,3.53,4,6.63,6.63,0,0,0,2.85,1,11.56,11.56,0,0,1,0,-4.15C16.64,97.58,25.07,90.93,32,86.24c3.35,-2.25,6.36,-4,8.09,-5.26,1.19,-0.85,2.42,-1.71,3.69,-2.6a55.14,55.14,0,0,0,-2.73,-4.82 M 0,0"/>
                </clipPath>
                <g clip-path="url(#clip_3)">
                    <clipPath id="clip_4">
                        <path d="M7.88 65.09H44.81V109.4H7.88z M 0,0"/>
                    </clipPath>
                    <path d="M-4.43 54.9H56.13V121.60999999999999H-4.43z" clip-path="url(#clip_4)" fill="#ac8a8a" fill-opacity="1"/>
                </g>
            </g>
        </g>
    </g>
    <g>
        <clipPath id="clip_1">
            <path d="M35.33,76c-0.7,2 -2.79,3.46 -4.44,4.64l-9,7C19,90 17.78,92.58 14.6,92.15a2.69,2.69 0,0 1,-1.82 -0.92C10.51,88.42 12.69,85 16,82.32l8.23,-7.14c1.88,-1.45 3.45,-3.06 5.27,-3.92s3.41,-1.62 5.22,0.22 1,3.47 0.66,4.55 M 0,0"/>
        </clipPath>
        <path d="M-0.46 58.06H48.13V104.51H-0.46z" clip-path="url(#clip_1)" fill="#d8c6c0" fill-opacity="1"/>
    </g>
    <g>
        <clipPath id="clip_1">
            <path d="M38.63,70.48c0.8,1.06 1.66,2 2.46,3.08a55.14,55.14 0,0 1,2.73 4.82c13.83,-9.7 31.47,-21.74 37.9,-28 12.45,-12.12 28.17,-29.92 28.55,-42.73C107.35,4.54 101,5.49 91.1,13.48 80.5,22.07 76.07,36.27 70,46.22c-4.32,7 -7.94,7.24 -20.43,12.42s-15,8.14 -15,8.14l-0.08,0.55a8.22,8.22 0,0 1,2.9 1.77c0.42,0.44 0.81,0.94 1.23,1.38 M 0,0"/>
        </clipPath>
        <path d="M22.2 -6.31H122.58V90.69H22.2z" clip-path="url(#clip_1)" fill="#a26a73" fill-opacity="1"/>
    </g>
    <g>
        <clipPath id="clip_1">
            <path d="M29.63,80.54l-8.49,6.64C18.77,89 17.5,91.44 15,91.08a2.47,2.47 0,0 1,-1.54 -0.83c-1.81,-2.27 0.21,-5.53 3,-7.81L26.33,74c2.54,-2 5.11,-4.34 7.9,-1.87 1.68,4.16 -0.94,5.83 -4.6,8.46 M 0,0"/>
        </clipPath>
        <path d="M0.49 58.71H47.06V103.42H0.49z" clip-path="url(#clip_1)" fill="#424343" fill-opacity="1"/>
    </g>
    <g>
        <clipPath id="clip_1">
            <path d="M9.5,95.12c-0.29,-0.09 -0.65,0.26 -0.79,0.77s0,1 0.26,1.07 0.65,-0.26 0.79,-0.77 0,-1 -0.26,-1.07 M 0,0"/>
        </clipPath>
        <path d="M-3.66 82.79H22.14V109.28H-3.66z" clip-path="url(#clip_1)" fill="#e6e6e6" fill-opacity="1"/>
    </g>
    <g>
        <clipPath id="clip_1">
            <path d="M8.77,7.65H112.12V114H8.77z M 0,0"/>
        </clipPath>
        <g clip-path="url(#clip_1)">
            <clipPath id="clip_2">
                <path d="M7.88 6H116.21V116.79H7.88z M 0,0"/>
            </clipPath>
            <g clip-path="url(#clip_2)">
                <clipPath id="clip_3">
                    <path d="M110.27,7.65c-0.38,12.81,-16.1,30.6,-28.54,42.73,-6.44,6.26,-24.08,18.31,-37.91,28,1.82,3.71,3,7.71,2.17,11.17a8.45,8.45,0,0,1,-5.06,5.55c-3,1,-4.36,-0.91,-7.21,-1.21a6.2,6.2,0,0,0,-2.74 0.45,24.83,24.83,0,0,1,-5.34,8,10.07,10.07,0,0,1,-7.78,3.13,9,9,0,0,0,-0.3,1.22c-0.09 0.53,0,1.51,-0.61,2a2.54,2.54,0,0,1,-1.8 0.55,6.63,6.63,0,0,1,-2.85,-1,7.87,7.87,0,0,1,-3.53,-4h0s0,0.87,1.3,3.25a12.87,12.87,0,0,0,6.17,5.11c0.62 0.28,1.27 0.55,2,0.8,4,1.42,9.86 0.07,14.52,-3.81,7.46,-6.21,9.72,-14.86,19.22,-23.59,7.14,-6.55,19.18,-18.72,26,-24.47S93.3,52.56,103,38s10.75,-26.62,7.23,-30.38 M 0,0"/>
                </clipPath>
                <g clip-path="url(#clip_3)">
                    <clipPath id="clip_4">
                        <path d="M7.88 6H113.74V114.33H7.88z M 0,0"/>
                    </clipPath>
                    <path d="M-3.54 -4.66H124.42999999999999V126.31H-3.54z" clip-path="url(#clip_4)" fill="#965f65" fill-opacity="1"/>
                </g>
            </g>
        </g>
    </g>
    <g>
        <clipPath id="clip_1">
            <path d="M10.27,95.12a1.16,1.16 0,0 0,-1.22 0.95c-0.11,0.42 0.08,1 0.39,1s0.9,-0.33 1.13,-0.73 0.39,-1 -0.3,-1.24m0,0a0.77,0.77 0,0 1,0.61 0.56,1.36 1.36,0 0,1 0,0.75 1.48,1.48 0,0 1,-1.66 1.12,0.9 0.9,0 0,1 -0.76,-0.77A1.3,1.3 0,0 1,8.7 96a2.28,2.28 0,0 1,0.61 -0.63,1.3 1.3,0 0,1 1,-0.26 M 0,0"/>
        </clipPath>
        <path d="M-3.82 82.79H23.259999999999998V109.87H-3.82z" clip-path="url(#clip_1)" fill="#3c3c3c" fill-opacity="1"/>
    </g>
    <g>
        <clipPath id="clip_1">
            <path d="M41.32,72.68c1.1,1.65 6.55,9.55 5.31,15.4 -0.89,5.62 -5.85,10.73 -12.11,6 0,0 0.79,0.09 0.8,0.08 4.4,2.57 9.48,0.48 10.55,-5.17 1,-5.4 -2.3,-11.44 -5.81,-16.54 -1.53,-2.21 -4.27,-5 -6.62,-5.2 1.42,-1.15 3.27,0.19 4.85,1.65l0.09,0.08a36.49,36.49 0,0 1,2.94 3.74 M 0,0"/>
        </clipPath>
        <path d="M21.13 54.47H59.120000000000005V108.24000000000001H21.13z" clip-path="url(#clip_1)" fill="#d8c6c0" fill-opacity="1"/>
    </g>
    <g>
        <clipPath id="clip_1">
            <path d="M26.57,73.67 L16.43,82.41c-2.81,2.31 -4.79,5.58 -3,7.88a2,2 0,0 0,1.3 0.65c2.61,0.51 3.92,-1.78 6.42,-3.73l8.49,-6.64c3.68,-2.62 6.54,-6 4.6,-8.53s-5.26,-0.26 -7.7,1.63 M 0,0"/>
        </clipPath>
        <path d="M0.45 58.63H47.21V103.33000000000001H0.45z" clip-path="url(#clip_1)" fill="#a26a73" fill-opacity="1"/>
    </g>
    <g>
        <clipPath id="clip_1">
            <path d="M12.6,97.93a1.07,1.07 0,0 0,-1.22 0.89,0.87 0.87,0 0,0 0.55,1 1.16,1.16 0,0 0,1.13 -0.64,0.85 0.85,0 0,0 -0.46,-1.28m0,0a1.11,1.11 0,0 1,0.76 1.35,1.37 1.37,0 0,1 -1.61,1.07 1.07,1.07 0,0 1,-0.68 -1.6,1.48 1.48,0 0,1 1.53,-0.82 M 0,0"/>
        </clipPath>
        <path d="M-1.39 85.6H25.689999999999998V112.67999999999999H-1.39z" clip-path="url(#clip_1)" fill="#3c3c3c" fill-opacity="1"/>
    </g>
    <g>
        <clipPath id="clip_1">
            <path d="M12,97.93c-0.34,-0.1 -0.73,0.19 -0.86,0.65a0.78,0.78 0,0 0,0.38 1c0.35,0.1 0.73,-0.2 0.86,-0.66a0.77,0.77 0,0 0,-0.38 -1 M 0,0"/>
        </clipPath>
        <path d="M-1.24 85.6H24.700000000000003V111.91999999999999H-1.24z" clip-path="url(#clip_1)" fill="#e6e6e6" fill-opacity="1"/>
    </g>
    <g>
        <clipPath id="clip_1">
            <path d="M43.82,78.38c-1.27,0.89 -2.5,1.75 -3.69,2.6C38.4,82.2 35.39,84 32,86.24c-7,4.69 -15.4,11.34 -16.84,18.91a11.56,11.56 0,0 0,0 4.15,2.53 2.53,0 0,0 1.8,-0.55c0.64,-0.52 0.52,-1.5 0.61,-2a9,9 0,0 1,0.3 -1.22,10.31 10.31,0 0,1 0.93,-2.09c1.84,-3.1 7,-6.51 9.42,-7.77A24.16,24.16 0,0 1,31 94.34a6.2,6.2 0,0 1,2.74 -0.45c2.85,0.3 4.18,2.17 7.22,1.21A8.45,8.45 0,0 0,46 89.55c0.87,-3.46 -0.35,-7.46 -2.17,-11.17 M 0,0"/>
        </clipPath>
        <path d="M2.68 66.07H58.589999999999996V121.61999999999999H2.68z" clip-path="url(#clip_1)" fill="#957171" fill-opacity="1"/>
    </g>
</svg>