<svg xmlns="http://www.w3.org/2000/svg" width="120.0" height="120.0" viewBox="0 0 120.0 120.0">
    <path d="M16,112.13c1.24,0.36 11.45,2 20.44,-9.07s9.19,-16.29 17.93,-25.51 17.77,-16 32.34,-26.34S101.62,41 103.86,36.65c5,-9.66 4.91,-18.07 4.08,-19.69S103,10.64 94.79,9.41c-8.72,-1.31 -11.06,-0.15 -11.06,-0.15a10.49,10.49 0,0 0,-9.63 1.08c-5.21,3.28 -5.33,7.13 -5.87,7.82s-3,2.56 -10.69,13C40.86,53.74 20.93,79.84 15.48,90.78S10.53,110.56 16,112.13Z" fill="#c1a3b1" fill-opacity="1" fill-rule="evenodd"/>
    <path d="M16,112.13c-1.29,0 10.44,3.12 20.44,-9.07C45.49,92 45.62,86.77 54.36,77.55s17.77,-16 32.34,-26.34S101.62,41 103.86,36.65c5,-9.66 4.91,-18.07 4.08,-19.69 0,0 2.22,4.6 -6.35,13.1 -9.87,9.78 -20.51,15.08 -29.9,22.47A177.23,177.23 0,0 0,38.41 86C29.36,98.17 23.13,112 16,112.13Z" fill="#000000" fill-opacity="1" fill-rule="evenodd"/>
    <path d="M16,112.13c8.07,-0.68 13.37,-14 22.42,-26.1a177.23,177.23 0,0 1,33.28 -33.5c9.39,-7.39 20,-12.69 29.9,-22.47 8.57,-8.5 6.35,-13.1 6.35,-13.1 -0.84,-1.62 -4.9,-6.32 -13.15,-7.55 -1.74,-0.27 -3.23,-0.43 -4.49,-0.52a7,7 0,0 1,5.72 5c1.06,3.88 1,9 -11.93,18.45C73.16,40.38 56.86,52 44.41,68.3c-12.84,16.85 -22.19,35.61 -25.95,39.19s-5,3 -5,3S15.26,112.19 16,112.13Z" fill="#d3b4c3" fill-opacity="1" fill-rule="evenodd"/>
    <path d="M79.48,19.59c4.23,-3.05 6.12,-7.67 4.21,-10.31S76.81,7 72.58,10s-6.12,7.67 -4.21,10.31S75.25,22.64 79.48,19.59Z" fill="#c1a3b1" fill-opacity="1" fill-rule="evenodd"/>
    <path d="M78.25,18c3,-2.13 4.28,-5.33 3,-7.16s-4.78,-1.58 -7.73,0.55 -4.27,5.33 -3,7.16S75.3,20.08 78.25,18Z" fill="#9b8c95" fill-opacity="1" fill-rule="evenodd"/>
    <path d="M71.24,23.66s9.68,1.9 14.7,-8.14c0,0 1.46,-2.89 1.77,0.59s-8.35,11.82 -16.87,9.18C66.73,24 71.24,23.66 71.24,23.66Z" fill="#000000" fill-opacity="1" fill-rule="evenodd"/>
    <path d="M67.76,16.64a11,11 0,0 1,-1.66 3.77l1.42,0.24 1.11,-1.57Z" fill="#c1a3b1" fill-opacity="1" fill-rule="evenodd"/>
    <path d="M82.43,8.17a5.62,5.62 0,0 0,3.17 0.71L85.73,10l-2.18,-0.18Z" fill="#c1a3b1" fill-opacity="1" fill-rule="evenodd"/>
    <path d="M-882.63,-1098.52H652.16V3081.62H-882.63z" fill="#000000" fill-opacity="0" stroke="#ffffff" stroke-opacity="1" stroke-width="5.0"/>
</svg>