<svg xmlns="http://www.w3.org/2000/svg" width="120.0" height="120.0" viewBox="0 0 120.0 120.0">
    <path d="M81.85,85.13c1.36,0.24 2.32,2.16 0,4.92s-6.24,7.64 -9.76,10.32 -6.76,3.72 -11,0c-3.84,-3.36 -8.72,-9.21 -15,-19.65 -6.4,-10.7 -15.56,-31.38 -16.75,-33.41 1.08,1.87 2.15,3.82 2.15,3.82a2.11,2.11 0,0 1,0.29 0.06C33.65,55 44,76.63 52.4,89c7.12,10.45 10.3,12.24 14,12.7 3.44,0.42 9.08,-6.28 12.12,-9.48s1.08,-4.28 0.4,-4.24a2.57,2.57 0,0 0,-0.66 0.17c0.71,-0.86 1.43,-1.75 2.12,-2.64A2.22,2.22 0,0 1,81.85 85.13Z" fill="#383838" fill-opacity="1"/>
    <path d="M78.53,92.17c-3,3.2 -8.68,9.9 -12.12,9.48 -3.71,-0.46 -6.89,-2.25 -14,-12.7C44,76.63 33.65,55 31.87,51.24c1.09,0.3 5.12,2.14 9.39,13.41C45.14,74.86 47,77.35 47,77.35s1.23,2.06 2,1.88 7.08,-5.81 10.5,-11 5.59,-9.16 8.63,-18 5.68,-22.55 8.52,-27.68S86,11.67 93.85,15s9.35,12.08 6.79,22.72S88.41,60.46 77.85,72.22 64.57,88.85 63.13,92.53a5.84,5.84 0,0 0,1.3 6.23s1.94,-0.21 7,-3.81a40.56,40.56 0,0 0,6.86 -6.85,2.57 2.57,0 0,1 0.66,-0.17C79.61,87.89 81.57,89 78.53,92.17Z" fill="#434242" fill-opacity="1"/>
    <path d="M12.91,46.78c1.4,-5.31 6,-9.07 8.64,-8.67A3.55,3.55 0,0 1,23 38.7c5.07,5 6.87,12.63 12.79,25C55.22,104.47 64.25,107 70.33,104c6.23,-3 10.68,-9.58 15.6,-14.6 2.16,-2.2 3.78,-4.3 4,-6.94s-1.62,-4.59 -4.88,-3.06c0.44,-0.57 0.87,-1.11 1.28,-1.62 4.08,-5 8.64,-8.57 15.17,-8.81s7.8,4.74 5.1,8.39S94.09,82.92 83.35,93.63c-9.64,9.61 -12.46,14.63 -26.2,11.33S32.34,95.18 21.33,78.09C10.43,61.18 11.51,52.1 12.91,46.78Z" fill="#383838" fill-opacity="1"/>
    <path d="M90,82.47c-0.24,2.64 -1.86,4.74 -4,6.94C81,94.43 76.56,101 70.33,104c-6.08,3 -15.11,0.46 -34.55,-40.27C29.86,51.33 28.06,43.69 23,38.7c2.06,1.34 3.78,4.5 4.59,5.64 0.54,0.82 6.18,13.85 13.12,28 6.35,12.91 15.12,24.39 17.6,26.87 4.72,4.72 8,5.2 11.39,4.16S81.93,92.57 84.81,89.05s2.08,-6.64 0,-7.08a3.15,3.15 0,0 0,-1.91 0.25c0.76,-1 1.48,-1.93 2.17,-2.81C88.33,77.88 90.18,79.92 90,82.47Z" fill="#2d2d2d" fill-opacity="1"/>
    <path d="M84.81,82c2.08,0.44 2.88,3.56 0,7.08s-11.72,13.24 -15.12,14.28 -6.67,0.56 -11.39,-4.16c-2.48,-2.48 -11.25,-14 -17.6,-26.87 -6.94,-14.11 -12.58,-27.14 -13.12,-28 0.4,0.56 1.13,1.77 1.85,3 1.19,2 10.35,22.71 16.75,33.41 6.24,10.44 11.12,16.29 15,19.65 4.19,3.67 7.43,2.63 11,0s7.44,-7.56 9.76,-10.32 1.36,-4.68 0,-4.92a2.22,2.22 0,0 0,-1.46 0.33c0.86,-1.09 1.7,-2.18 2.51,-3.24A3.15,3.15 0,0 1,84.81 82Z" fill="#333333" fill-opacity="1"/>
    <path d="M31.1,86.4c3.3,5.43 11,12.07 15.49,14.41s9.3,4.3 10.54,3.68c0.91,-0.46 -1.64,-2 -3.41,-3.6a58.43,58.43 0,0 1,-6.12 -6.21C46,92.78 39.83,85.2 37.34,83.25s-5,-3.6 -6.54,-3.6S27.81,81 31.1,86.4ZM35,85.83c1.35,0 3.59,1 8.13,6A98.86,98.86 0,0 0,54 102.36c2.41,1.89 0.47,1.43 0.47,1.43a23.88,23.88 0,0 1,-5.64 -2.26c-2.85,-1.47 -6.54,-4.15 -11.22,-9.1S34,85.83 35,85.83Z" fill="#434242" fill-opacity="1"/>
    <path d="M71.08,51.21c0.68,-3.31 1.36,-6.57 2.09,-9.85s1.5,-6.53 2.43,-9.77c0.48,-1.62 1,-3.24 1.61,-4.83a19.06,19.06 0,0 1,2.42 -4.62,15.06 15.06,0 0,1 8.23,-5.94A18.55,18.55 0,0 0,80.93 23,21 21,0 0,0 79,27.41c-0.53,1.55 -1,3.13 -1.47,4.74 -1,3.18 -1.82,6.42 -2.85,9.62A70.44,70.44 0,0 1,71.08 51.21Z" fill="#ffffff" fill-opacity="0.25"/>
    <path d="M-103.31,-1013.84H1431.44V2491.17H-103.31z" fill="#000000" fill-opacity="0" stroke="#32dd14" stroke-opacity="1" stroke-width="23.55"/>
</svg>