<svg xmlns="http://www.w3.org/2000/svg" width="120.0" height="120.0" viewBox="0 0 120.0 120.0">
    <path d="M21,110.69c-0.28,-0.21 -0.57,-0.43 -0.81,-0.58C20.43,110.32 20.7,110.51 21,110.69Z" fill="#dcdcdc" fill-opacity="1"/>
    <path d="M21.49,111.05l0.3,0.13c-0.27,-0.15 -0.55,-0.31 -0.82,-0.49Z" fill="#dcdcdc" fill-opacity="1"/>
    <path d="M101.38,11.23a23,23 0,0 0,-1.84 -3.06c-1.66,-1.26 -3.37,-0.44 -4.81,0A24.65,24.65 0,0 0,86 13.26L83.34,16l-2.1,2.51c-0.8,1.51 -1.91,2.75 -2.6,4.18a84.32,84.32 0,0 0,-5.35 13.19c-1.14,4 -2.4,7.89 -3.84,11.9a34.22,34.22 0,0 1,-2.66 6.37c-1.83,-1.83 -6,-0.08 -7.65,1.12 0,0 0,-0.07 0,-0.1a7.39,7.39 0,0 0,0.61 -2.49c0.29,-2.42 0.53,-5.18 -3.11,-5.12 -3.19,0.07 -6.38,2.48 -9.24,4.91S42.41,58.89 41.1,62c-1.8,4.22 -3.34,8.19 -5.13,12.32l-1.8,3.13a14.53,14.53 0,0 1,-2.6 3.34l-2.74,3.18 -4.5,3.9c-3.93,3.47 -6.61,8.76 -6.77,12.55 -0.28,6.49 7.23,8.46 11.77,7.24 1.35,-0.37 3,-1.23 4.41,-1.22 0.7,0 4.13,0.76 4.36,1.3 0,0 0.36,0.25 0.35,0.28 -0.86,1.1 -2.29,1.29 -3.35,1.8 -3.6,1.73 -7.27,2.94 -11.22,2a14,14 0,0 1,-2.09 -0.55c3.61,2 7.19,1.38 10.32,0.5 6,-1.67 10.48,-5.05 16.06,-10 1.52,-1.62 3,-3.23 4.58,-4.85Q55.86,93 59,89.11l2,-2.69q6.43,-7.77 12.89,-15.53l5.9,-7 2.11,-2.7 2.76,-3.54L88,53l1.86,-2.62 4.4,-7C99.8,32.39 105,20.87 101.38,11.23ZM46.14,72.7c-0.16,0.57 -0.24,1.83 -0.65,2.21a3.27,3.27 0,0 1,-1.56 0.79,0.86 0.86,0 0,1 -0.71,-0.92c0,-0.88 3.65,-6.22 4.71,-6.62A21,21 0,0 0,46.14 72.7Z" fill="#a4238b" fill-opacity="1"/>
    <path d="M101.38,11.23a23,23 0,0 0,-1.84 -3.06c-1.66,-1.26 -3.37,-0.44 -4.81,0A24.65,24.65 0,0 0,86 13.26L83.34,16l-2.1,2.51c-0.8,1.51 -1.91,2.75 -2.6,4.18a83.36,83.36 0,0 0,-5.35 13.19c-1.14,4 -2.4,7.89 -3.84,11.9a34.22,34.22 0,0 1,-2.66 6.37c-4.4,9.2 -14.58,19.28 -22,22.44l-15.23,7a14.11,14.11 0,0 0,-1.82 1A23.37,23.37 0,0 0,19 94.82c-2.91,7.24 -1.36,10.08 1.67,11.46a15.2,15.2 0,0 0,2.2 0.78,15 15,0 0,0 6.42,0.55c1.35,-0.37 3,-1.23 4.41,-1.22 0.7,0 4.13,0.76 4.36,1.3 0,0 0.36,0.25 0.35,0.28 -0.86,1.1 -2.29,1.29 -3.35,1.8 -3.6,1.73 -7.27,2.94 -11.22,2a14,14 0,0 1,-2.09 -0.55c3.61,2 7.19,1.38 10.32,0.5 6,-1.67 10.48,-5.05 16.06,-10 1.52,-1.62 3,-3.23 4.58,-4.85Q55.86,93 59,89.11l2,-2.69q6.43,-7.77 12.89,-15.53l5.9,-7 2.11,-2.7 2.76,-3.54L88,53l1.86,-2.62 4.4,-7C99.8,32.39 105,20.87 101.38,11.23Z" fill="#b62c99" fill-opacity="1"/>
    <path d="M58.4,47.88s-4.27,-2 -10.85,4.35c-3.72,3.54 -6.61,9.7 -7.39,11.45 -0.13,0.28 -0.21,0.58 -0.34,0.85 -1,2 -2.25,6.2 -3.58,8.89 1.66,-2.69 3.55,-7.78 5.44,-11s5.6,-9 9,-11.35A16.71,16.71 0,0 1,58.4 47.88Z" fill="#921681" fill-opacity="1" fill-rule="evenodd"/>
    <path d="M47.84,96.33a32.56,32.56 0,0 0,1.33 -4.42,87.87 87.87,0 0,1 3.24,-11.52c1.6,-3.73 3.17,-6.62 5.51,-8.56S64.73,65.23 66,62c1.2,-3 2.49,-7 0.37,-8.63s-6.37,0.73 -8.82,2.33S47.71,66.06 46.33,71.45 44.62,81 43.7,85.66s-1.24,9 -4.1,12.72 -6.51,7.43 -10.16,8.49c-1.87,0.54 -7,0.6 -9.84,-1.54a5.53,5.53 0,0 1,-2.09 -4s-0.43,6.14 2.24,8.17a13.19,13.19 0,0 0,11 2c3.93,-1.1 9.7,-4.08 12.08,-6.29C44.93,103.27 46.78,99.1 47.84,96.33Z" fill="#921681" fill-opacity="1" fill-rule="evenodd"/>
    <path d="M99.54,8.17s-2.34,-2.35 -9.86,2.31 -10,10 -11.84,13.64c-2.21,4.44 -4.36,10.93 -6.22,16.74C69.82,46.49 66.88,54 66.88,54s0.46,0.08 0.59,2.18c0,0 5.18,-13.53 6.74,-17.3s3.42,-9.8 6.72,-16.39c2,-4 5.72,-7.49 9.22,-9.89A33.38,33.38 0,0 1,99.54 8.17Z" fill="#a4238b" fill-opacity="1" fill-rule="evenodd"/>
    <path d="M35.1,109.77c-3.6,1.73 -7.27,2.94 -11.22,2a14,14 0,0 1,-2.09 -0.55c3.61,2 7.19,1.38 10.32,0.5 6,-1.67 10.48,-5.05 16.06,-10 1.52,-1.62 3,-3.23 4.58,-4.85Q55.86,93 59,89.11l2,-2.69q6.43,-7.77 12.89,-15.53l5.9,-7 2.11,-2.7 2.76,-3.54L88,53l1.86,-2.62 4.4,-7c5.51,-11 10.73,-22.49 7.09,-32.13a23,23 0,0 0,-1.84 -3.06c1.75,9.48 -2.91,29.11 -20,50.89s-35.22,44.1 -40.58,48.61c-0.22,0.18 -0.45,0.35 -0.68,0.51C37.38,109.09 36.09,109.29 35.1,109.77Z" fill="#a4238b" fill-opacity="1"/>
    <path d="M17.51,101.36c0,-0.13 0,-0.09 0,-0.16S17.53,101.3 17.51,101.36Z" fill="#000000" fill-opacity="1" fill-rule="evenodd"/>
    <path d="M19.6,109.49l0.08,0.06Z" fill="#000000" fill-opacity="1" fill-rule="evenodd"/>
    <path d="M19.74,109.72l0,0 0.17,0.13Z" fill="#000000" fill-opacity="1" fill-rule="evenodd"/>
    <path d="M20,110l0.35,0.21Z" fill="#000000" fill-opacity="1" fill-rule="evenodd"/>
    <path d="M38.94,107.67c-0.57,1.16 -4.1,2.49 -5.16,2.91 -3.15,1.25 -6.52,2.2 -9.94,1.36 -4.32,-1.07 -6,-4.11 -6.36,-8a9.39,9.39 0,0 1,0 -2.53,9.83 9.83,0 0,0 0.91,2.93c1.35,2.22 4.27,2.93 6,3.11a15.86,15.86 0,0 0,4.72 -0.13c1.73,-0.36 2.84,-1.24 4.13,-1.42a2.67,2.67 0,0 1,1.34 0.18l2.08,0.76 2.14,0.73A1,1 0,0 0,38.94 107.67Z" fill="#b99d82" fill-opacity="1" fill-rule="evenodd"/>
    <path d="M67.32,54.84a11.48,11.48 0,0 1,-1.42 7.7,25.93 25.93,0 0,1 -6.42,8.17 18.13,18.13 0,0 0,-3.19 3.22,27.79 27.79,0 0,0 -3.45,5.58c-0.91,2.26 -2.45,7.64 -2.85,9.08s-1.37,5.49 -1.37,5.49 1.64,-8.93 2.13,-10.76a46.93,46.93 0,0 1,2.62 -7.26,16.16 16.16,0 0,1 4.47,-5.5 24.32,24.32 0,0 0,5.54 -6C66,60.69 67.32,54.84 67.32,54.84Z" fill="#86107c" fill-opacity="1" fill-rule="evenodd"/>
</svg>