<svg xmlns="http://www.w3.org/2000/svg" width="120.0" height="120.0" viewBox="0 0 120.0 120.0">
    <path d="M76.65,25.85c0,2.41 -5.65,4.56 -7.1,4.83 -0.6,0.11 -2,0.32 -2.51,-0.71s0.89,-2.91 1.95,-3.71c1.89,-1.42 5.1,-2.4 7.5,-0.66C76.54,25.69 76.6,25.77 76.65,25.85Z" fill="#49627c" fill-opacity="1" fill-rule="evenodd"/>
    <path d="M79.88,24.32l0.07,0.18 -0.14,0.1a4.94,4.94 0,0 1,-2 -1.07l0.12,-0.25a3,3 0,0 1,1.83 0.82A1.51,1.51 0,0 0,79.88 24.32Z" fill="#49627c" fill-opacity="1" fill-rule="evenodd"/>
    <path d="M35.48,48.16l-1.55,2.19A43.91,43.91 0,0 0,30 56.55a74.6,74.6 0,0 0,-4 8.72,41.1 41.1,0 0,0 -1.85,14c0.14,1.25 0.28,2.51 0.41,3.77a26.36,26.36 0,0 0,3.64 11.42c1.26,2.09 3.3,3.16 5.36,5.21a12.54,12.54 0,0 0,3.76 2.17c4.17,1.8 7,3.14 10.79,3l3.07,-0.37c6.31,-0.39 13.35,-4.1 18.9,-9C73.76,92.25 81.6,82.58 85.38,75.6s6.32,-19 8,-26.72A97.92,97.92 0,0 0,95.66 37c0.15,-1.75 0.56,-3.33 0,-5 -0.31,-0.93 -1,-1.41 -1.62,-2.35 -1.61,-1.14 -3.07,-1.06 -4.51,-1.19A24.68,24.68 0,0 1,83.75 27a8.3,8.3 0,0 1,-2.51 -0.9l0.1,-0.14 0.14,-0.1 0.48,0.07c-2.61,-2.63 -3.77,-5.37 -5.54,-8.07 -0.68,-1 -2.08,-2.48 -3.43,-2.63 -2.35,-0.25 -4.31,1.67 -6.37,3.13 -4.75,3.37 -9.17,7.42 -13.85,11.43C48.48,33.46 45,38.1 40.7,42.41 39.08,44.41 37.1,46.16 35.48,48.16ZM55.22,65.79c3,2.12 -5.38,15.85 -9.39,21.17 -1.5,2 -4.57,5.15 -6.07,4.09s0.29,-5.7 0.94,-7.19C43.17,78.1 52.23,63.68 55.22,65.79Z" fill="#49627c" fill-opacity="1" fill-rule="evenodd"/>
    <path d="M25,82.55s-2.46,10 10.26,19 30.11,-2.18 30.11,-2.18 -17.36,8.45 -29.12,0.39S25,82.55 25,82.55Z" fill="#000000" fill-opacity="1" fill-rule="evenodd"/>
    <path d="M58.93,38.2s-12.2,6.61 -17.51,10.67A40.53,40.53 0,0 0,28.21 63.66c-3.05,6.08 -1.94,22.08 2.2,25.42a10.38,10.38 0,0 0,9.08 1.75s-4.69,3.58 -11.18,-1.14c-6.28,-4.58 -5.56,-23 1.82,-34.21C37.32,44.53 42.54,40 47.33,34.78c6.37,-7 20.9,-17.64 20.9,-17.64A61.47,61.47 0,0 0,61.5 29.29,48.73 48.73,0 0,0 58.93,38.2Z" fill="#58738a" fill-opacity="1" fill-rule="evenodd"/>
    <path d="M58.93,38.2s-14,7 -21.34,12.78c-5.61,5 -10,10 -12,20.11 -1.78,8.71 2.57,16.7 6,19.27s7.88,0.47 7.88,0.47 -1.43,-2.07 2,-8.76c5.46,-10.75 11.71,-16.84 13.76,-16.28Z" fill="#000000" fill-opacity="1" fill-rule="evenodd"/>
    <path d="M58.93,38.2a68.37,68.37 0,0 1,3.56 -12.11,35 35,0 0,1 4.77,-7.82c1.36,-1.73 3.8,-3.72 5.83,-3.18a6.91,6.91 0,0 1,3.41 2.83s3.29,5.54 4.51,7c2.13,2.53 7.43,3.21 7.8,3.24a24.81,24.81 0,0 1,3.64 0.5A4.85,4.85 0,0 1,94.32 30s-4.84,-1.89 -8.69,-0.91C82.13,30 58.93,38.2 58.93,38.2Z" fill="#6d7b8c" fill-opacity="1" fill-rule="evenodd"/>
    <path d="M81.67,26.33l-0.35,-0.26c0.48,-0.36 1.68,0.29 2.28,0.75C83.12,27 82.2,26.51 81.67,26.33Z" fill="#8b99ac" fill-opacity="1"/>
    <path d="M77.89,23.25c-0.33,0.79 1.48,1.25 1.93,1.43l0.21,-0.19 -0.23,-0.43C79.05,23.5 78.51,23.15 77.89,23.25Z" fill="#8b99ac" fill-opacity="1"/>
    <path d="M68.92,26.27c-1,0.73 -2.36,2.51 -2,3.56s1.65,1 2.32,1c1.89,-0.1 4.15,-1.46 5.83,-2.64 0.54,-0.38 1.52,-1.12 1.6,-1.88 0,-0.33 -0.09,-0.46 -0.21,-0.75C74,23.77 70.86,24.87 68.92,26.27Z" fill="#405368" fill-opacity="1"/>
    <path d="M76.33,25.94c-2,-1.64 -4.82,-0.7 -6.79,0.21" fill="#000000" fill-opacity="0" stroke="#6d7b8c" stroke-opacity="1" stroke-width="2.0" stoke-linecap="round"/>
    <path d="M93.75,31.38a0.29,0.29 0,0 0,-0.56 -0.14c-2.43,6 -10,28.11 -23.33,43.05C55.72,90.08 42,100.23 30.89,92.08a34.44,34.44 0,0 1,-4.56 -4.16c-0.23,-0.2 0.36,4.69 9.88,11.79 13.92,9.86 34,-8.14 38.84,-13.39 6.36,-6.9 11.46,-20 14.29,-27.33C91.67,53 93.27,37.07 93.75,31.38Z" fill="#405368" fill-opacity="0.33"/>
    <path d="M-92.96,-3057.85H1441.83V1122.29H-92.96z" fill="#000000" fill-opacity="0" stroke="#ffffff" stroke-opacity="1" stroke-width="5.0"/>
</svg>