<svg xmlns="http://www.w3.org/2000/svg" width="120.0" height="120.0" viewBox="0 0 120.0 120.0">
    <path d="M55.37,80.12s-9.95,-29.67 -11,-58.72c0,0 7.61,-10.72 13,-12.43 0,0 1,-0.54 2.28,4.37 0,0 1.6,0.68 1.68,-3.9 0,0 0.27,-1.45 1.18,0S69,34.09 70.28,40.2s4.66,30.34 4.35,36.86Z" fill="#4a4b4e" fill-opacity="1"/>
    <path d="M59.64,78.8S45.19,25.92 45.4,20c0,0 4.59,-6.7 10.71,-10.46 0,0 12.31,53.57 12.2,68Z" fill="#3b3b41" fill-opacity="1"/>
    <path d="M59.67,13.34s7.91,39.4 8.12,40.22 1.26,1.86 1.6,-0.05c0.5,-2.71 -7.84,-39.85 -8.36,-41.46A1.51,1.51 0,0 1,59.67 13.34Z" fill="#1b1c20" fill-opacity="1"/>
    <path d="M74.63,77.06s-1.41,-18.33 -2,-22.05c0,0 0.83,17.79 0.5,22.06Z" fill="#3b3b41" fill-opacity="1"/>
    <path d="M55.37,80.12l1.15,-0.42S49.88,62.62 45.24,33.32C45.24,33.32 49.36,65.29 55.37,80.12Z" fill="#3b3b41" fill-opacity="1"/>
    <path d="M55.37,80.12S63,77 74.63,77.06c0,0 1,21.44 1,25.27 0,6.37 -7.87,8.79 -12.32,8.85s-9,-2.11 -10.36,-6.88 0.33,-9.72 1.87,-11.49C57.64,89.6 55.78,84.42 55.37,80.12Z" fill="#8f9190" fill-opacity="1"/>
    <path d="M58.3,110.22s7.24,0.31 5.82,-8.82c-0.74,-4.72 -3.32,-19.49 -4.48,-22.6a47.56,47.56 0,0 1,8.67 -1.32s-1.14,4.58 -0.19,13c1.3,11.37 5,11.22 4.89,16.35C73,106.85 66.12,111.79 58.3,110.22Z" fill="#868787" fill-opacity="1"/>
    <path d="M56.92,95.11s-3.2,1 -3,5.67c0.16,4.51 3,7.35 4.66,7.35 2.54,0 3.42,-3.16 3.34,-6.18S60.1,94.49 56.92,95.11Z" fill="#1f2024" fill-opacity="1"/>
    <path d="M59.49,95.83a6.58,6.58 0,0 0,-1.74 4.78,9 9,0 0,0 2.82,6.58 8.3,8.3 0,0 0,1.32 -5.08C61.84,100 61.07,97.12 59.49,95.83Z" fill="#2f3033" fill-opacity="1"/>
    <path d="M72.56,80.59s-2.39,0.31 -2.18,3.31 0.92,10.87 1,11.5a1.55,1.55 0,0 0,1.66 1.54,2.25 2.25,0 0,0 2.39,-1.89c0.2,-1.1 -0.78,-11.51 -0.81,-12.86C74.63,81.36 74.26,80.35 72.56,80.59Z" fill="#4d4d4e" fill-opacity="1"/>
    <path d="M58.3,110.22a13.83,13.83 0,0 0,8.75 0.51c8.39,-2.26 8.39,-6.6 8.39,-6.6S70.59,111.54 58.3,110.22Z" fill="#4d4d4e" fill-opacity="1"/>
    <path d="M-68.3,-3694.87H675.7V240.24H-68.3z" fill="#000000" fill-opacity="0" stroke="#32dd14" stroke-opacity="1" stroke-width="11.07"/>
</svg>