<svg xmlns="http://www.w3.org/2000/svg" width="120.0" height="120.0" viewBox="0 0 120.0 120.0">
    <path d="M60.83,64.87s6.06,-6.57 11,-20.24S82.35,9.21 90.52,7.75 105,11.44 102.43,21.24 96.36,40.13 86.25,54.49A319,319 0,0 1,63.15 82.9s2.07,-3.26 0.76,-9.25c-1.21,-5.52 -3.46,-6.56 -3.46,-6.56Z" fill="#d8cbd5" fill-opacity="1" fill-rule="evenodd"/>
    <path d="M60.21,64.39s4.56,-2.08 13.51,-25.57c4.64,-12.16 7.51,-25 14.47,-26.67S99.32,16 96.69,24.61s-6,16.67 -15.22,29.6A324.49,324.49 0,0 1,60.66 80s1.89,-2.93 1.07,-8.06" fill="#e2d9e0" fill-opacity="1" fill-rule="evenodd"/>
    <path d="M60.4,85.83s0.9,-2.33 0.36,-7.56 -0.83,-7.85 -0.31,-11.18 1,-5.52 2.22,-10.73 0.27,-10.34 -3.6,-12.29c-3.65,-1.84 -8,0.51 -8.87,8.34 -0.93,8.91 2.62,14 0.33,18.91S44.9,78.75 37.74,82 22.62,89.44 19,95.11c-3.46,5.37 -2.48,12.69 3.69,16.33 5.71,3.38 13.41,-2 18.6,-6.4A190,190 0,0 0,60.4 85.83Z" fill="#cea5b7" fill-opacity="1" fill-rule="evenodd"/>
    <path d="M60.89,79.85s-0.12,-0.94 -0.49,-5.24 -1,-4.64 -0.82,-7.55a40.27,40.27 0,0 1,1.62 -9.54c1.27,-4.51 0.82,-8.86 -2.27,-10.3 -2.91,-1.37 -6.67,0.89 -7.79,7.63 -1.28,7.67 1.36,11.78 -0.8,16.15s-5.08,6.66 -11.18,9.85 -12.9,7.22 -16.23,12.27c-3.16,4.79 -2.78,11 2.11,13.75 4.52,2.56 11.19,-2.5 15.72,-6.53C49.43,92.63 60.89,79.85 60.89,79.85Z" fill="#e0bdca" fill-opacity="1" fill-rule="evenodd"/>
    <path d="M60.45,67.09s2.25,1 3.46,6.56c1.31,6 -0.76,9.25 -0.76,9.25L60.4,85.83s0.9,-2.33 0.36,-7.56S59.93,70.42 60.45,67.09Z" fill="#e09b86" fill-opacity="1" fill-rule="evenodd"/>
    <path d="M64.26,75.86s1.12,4.48 -1.11,7c-1.71,2 -2.83,3 -2.75,2.93L60.78,83l0.11,-3.19s1.11,-1.4 1.65,-2C63.44,76.8 63.34,77 64.26,75.86Z" fill="#c48476" fill-opacity="1" fill-rule="evenodd"/>
    <path d="M60.83,64.87l-0.38,2.22a5.12,5.12 0,0 1,1.62 1.7Z" fill="#efe8ed" fill-opacity="1" fill-rule="evenodd"/>
    <path d="M20,105.62c1.12,-0.4 -0.7,-1.53 -1.66,-1.17a1.53,1.53 0,0 0,-0.05 0.64A1.35,1.35 0,0 0,20 105.62Z" fill="#ffffff" fill-opacity="1" fill-rule="evenodd"/>
    <path d="M22.59,108.3c0.34,-0.79 -1.56,-0.86 -1.84,-0.79l-0.23,0.17c0,0.1 0,0.2 0,0.3C20.88,108.49 22.27,109.06 22.59,108.3Z" fill="#ffffff" fill-opacity="1" fill-rule="evenodd"/>
    <path d="M-90.63,-430.84H1444.16V3749.3H-90.63z" fill="#000000" fill-opacity="0" stroke="#ffffff" stroke-opacity="1" stroke-width="5.0"/>
</svg>