<svg xmlns="http://www.w3.org/2000/svg" width="120.0" height="120.0" viewBox="0 0 120.0 120.0">
    <g>
        <clipPath id="clip_1">
            <path d="M55.74,60.08A3,3 0,0 1,52 61.59a2.23,2.23 0,0 1,-1.12 -3.06,3.6 3.6,0 0,1 1.57,-1.59 2.32,2.32 0,0 1,2.7 0.24,2.48 2.48,0 0,1 0.57,2.9 M 0,0"/>
        </clipPath>
        <path d="M38.44,44.4h29.76v29.61h-29.76z" clip-path="url(#clip_1)" fill="#d1d1d1" fill-opacity="1"/>
    </g>
    <g>
        <clipPath id="clip_1">
            <path d="M86.64,25.88a9.51,9.51 0,0 1,1.83 -3.21c1.31,-1.47 1,1 -0.06,2.42s0.25,2.06 0.25,2.06a17.73,17.73 0,0 1,3.23 -2.72c1.77,-1.12 2.83,-0.26 1.16,1.22a5.74,5.74 0,0 0,-1.82 3.57,36.83 36.83,0 0,1 5.07,-2.48c0.92,-0.47 3.22,-1.9 3.41,-1.29S95,30.76 95,30.76s2.76,-0.44 8.14,-3.93c3.67,-2.38 6.89,-7.59 8.56,-10.66a1.66,1.66 0,0 0,-0.12 -0.31A17,17 0,0 0,102.38 7a4.45,4.45 0,0 0,-3.17 -0.14c-0.3,0.1 -0.62,0.18 -0.92,0.3a39.85,39.85 0,0 0,-10.47 5.93,17.16 17.16,0 0,0 -3.1,3 9.14,9.14 0,0 0,-2.06 5.38c0.1,0.17 0.2,0.36 0.31,0.59 2.11,4.64 3.67,3.81 3.67,3.81 M 0,0"/>
        </clipPath>
        <path d="M70.44,-5.62h53.5v48.6h-53.5z" clip-path="url(#clip_1)" fill="#ededed" fill-opacity="1"/>
    </g>
    <g>
        <clipPath id="clip_1">
            <path d="M82.71,26.35a19.89,19.89 0,0 1,-3.23 4.4,15.12 15.12,0 0,1 -5,3s3.82,3.19 5.61,4.92 5.25,5.58 5.25,5.58a11.9,11.9 0,0 1,2.44 -4.82,12.48 12.48,0 0,1 5,-3.44s-3,-3.49 -4.72,-5.23a57.38,57.38 0,0 0,-5.36 -4.36 M 0,0"/>
        </clipPath>
        <path d="M62.29,14.13h42.73v42.29h-42.73z" clip-path="url(#clip_1)" fill="#d0adad" fill-opacity="1"/>
    </g>
    <g>
        <clipPath id="clip_1">
            <path d="M72.62,32.4 L74.84,34 76.9,35.7c1.37,1.18 2.77,2.33 4,3.61s2.57,2.53 3.79,3.87l1.76,2.07a6.55,6.55 0,0 1,1.45 2.36l0,0.08 0,0.07a1.71,1.71 0,0 1,-0.13 0.35,1.29 1.29,0 0,1 -0.27,0.32c-0.15,0.14 -0.3,0.3 -0.46,0.47a5.62,5.62 0,0 1,-1 0.93l-0.4,0.25v-0.47a2.36,2.36 0,0 0,-0.49 -1.2c-0.25,-0.4 -0.52,-0.8 -0.8,-1.18 -0.57,-0.77 -1.2,-1.5 -1.84,-2.22 -1.29,-1.44 -2.61,-2.86 -4,-4.23s-2.79,-2.69 -4.25,-4C73.55,36.18 72.8,35.57 72,35a7.12,7.12 0,0 0,-2.53 -1.35h0l0,0a8.49,8.49 0,0 1,1.8 -1.79h0l0.21,0.07ZM76.9,35.7 L75.76,35.19h0l-0.2,-0.07h0a8.49,8.49 0,0 0,-1.78 1.81v0a7,7 0,0 1,2.57 1.33c0.8,0.54 1.57,1.14 2.32,1.75q2.27,1.84 4.39,3.84c1.41,1.33 2.78,2.72 4.09,4.16 0.65,0.71 1.3,1.45 1.89,2.23 0.29,0.4 0.58,0.8 0.84,1.22a2.88,2.88 0,0 1,0.56 1.47l-0.4,-0.22a4.94,4.94 0,0 0,1 -0.84c0.15,-0.15 0.31,-0.32 0.48,-0.48a0.54,0.54 0,0 0,0.17 -0.18,2 2,0 0,0 0.11,-0.28v0.15a5.93,5.93 0,0 0,-1.35 -2.22l-1.68,-2.11c-1.16,-1.36 -2.43,-2.64 -3.65,-4a51.13,51.13 0,0 0,-3.94 -3.7l-2,-1.78Z M 0,0"/>
        </clipPath>
        <path d="M57.23,19.58h42.97v42.72h-42.97z" clip-path="url(#clip_1)" fill="#9e8282" fill-opacity="1"/>
    </g>
    <g>
        <clipPath id="clip_1">
            <path d="M8.9,44.85h77v68.54h-77z M 0,0"/>
        </clipPath>
        <g clip-path="url(#clip_1)">
            <clipPath id="clip_2">
                <path d="M8.0,43.28h78.23v70.9h-78.23z M 0,0"/>
            </clipPath>
            <g clip-path="url(#clip_2)">
                <clipPath id="clip_3">
                    <path d="M12,113.4a10.38,10.38,0,0,0,4.07,-1,35,35,0,0,0,9.47,-6.12c5,-4.46,9.93,-9,14.9,-13.48q9.63,-8.72,19.08,-17.6Q72.61,62.92,85.32,50.28a2.38,2.38,0,0,0,0.58,-0.68,2.68,2.68,0,0,0,-0.53,-1.33,23.89,23.89,0,0,0,-2.68,-3.42S24.77,106.64,8.9,112.05A3.94,3.94,0,0,0,12,113.4 M 0,0"/>
                </clipPath>
                <g clip-path="url(#clip_3)">
                    <clipPath id="clip_4">
                        <path d="M8.0,43.28h78.23v70.9h-78.23z M 0,0"/>
                    </clipPath>
                    <path d="M-3.33,32.63h101.44v92.99h-101.44z" clip-path="url(#clip_4)" fill="#dcdcdc" fill-opacity="1"/>
                </g>
            </g>
        </g>
    </g>
    <g>
        <clipPath id="clip_1">
            <path d="M43.59,66.38a3.66,3.66 0,0 1,1.22 -1.56,2.84 2.84,0 0,1 1.92,-0.62 2.15,2.15 0,0 1,1.71 1.19,3.07 3.07,0 0,1 0.15,2.13 3,3 0,0 1,-3.42 2,2.31 2.31,0 0,1 -1.62,-1.17 2.45,2.45 0,0 1,0 -2m0,0a2.26,2.26 0,0 0,0 1.92,2.1 2.1,0 0,0 1.6,0.93 2.8,2.8 0,0 0,2.84 -1.87,2.85 2.85,0 0,0 0,-1.78 1.82,1.82 0,0 0,-1.33 -1.11,3 3,0 0,0 -3.1,1.91 M 0,0"/>
        </clipPath>
        <path d="M31.14,51.96h29.79v29.83h-29.79z" clip-path="url(#clip_1)" fill="#aaaaaa" fill-opacity="1"/>
    </g>
    <g>
        <clipPath id="clip_1">
            <path d="M82.38,16.17h29.62v20.29h-29.62z M 0,0"/>
        </clipPath>
        <g clip-path="url(#clip_1)">
            <clipPath id="clip_2">
                <path d="M81.34,13.94h31.78v24.45h-31.78z M 0,0"/>
            </clipPath>
            <g clip-path="url(#clip_2)">
                <clipPath id="clip_3">
                    <path d="M82.67,24a5.9,5.9,0,0,1,-0.29,2,49.32,49.32,0,0,1,9.8,9.12c0.35 0.42 0.66 0.88,1,1.32a7.79,7.79,0,0,1,2.31,-0.35L97.83,36a8.08,8.08,0,0,0,3.42,-1,12.67,12.67,0,0,0,4,-3.49,37.93,37.93,0,0,0,6.41,-11.76,5.11,5.11,0,0,0,0.08,-3.59c-1.67,3.07,-4.89,8.28,-8.56,10.66C97.77,30.32,95,30.76,95,30.76s4.89,-4.69,4.7,-5.31,-2.49 0.82,-3.41,1.29a36.83,36.83,0,0,0,-5.07,2.48,5.74,5.74,0,0,1,1.82,-3.57c1.67,-1.48 0.61,-2.34,-1.16,-1.22a17.73,17.73,0,0,0,-3.23,2.72s-1.29,-0.61,-0.25,-2.06,1.37,-3.89 0.06,-2.42a9.51,9.51,0,0,0,-1.83,3.21s-1.56 0.83,-3.67,-3.81c-0.11,-0.23,-0.21,-0.42,-0.31,-0.59q0,0.32,0,0.63c0,0.62,0,1.25,0,1.87 M 0,0"/>
                </clipPath>
                <g clip-path="url(#clip_3)">
                    <clipPath id="clip_4">
                        <path d="M81.34,13.94h31.78v24.45h-31.78z M 0,0"/>
                    </clipPath>
                    <path d="M70.15,3.94h54.07v44.74h-54.07z" clip-path="url(#clip_4)" fill="#dcdcdc" fill-opacity="1"/>
                </g>
            </g>
        </g>
    </g>
    <g>
        <clipPath id="clip_1">
            <path d="M72.62,32.4A18.44,18.44 0,0 1,74.86 34c1.36,1.09 2.7,2.21 4,3.43 0.52,0.5 1.08,1 1.6,1.49 1.32,1.3 2.63,2.6 3.85,4 0.9,1 1.82,2.07 2.63,3.19a5.17,5.17 0,0 1,0.82 1.58,1.11 1.11,0 0,1 -0.25,0.48 11.27,11.27 0,0 1,-1.57 1.44,2.58 2.58,0 0,0 -0.52,-1.33 23.89,23.89 0,0 0,-2.68 -3.42,83.37 83.37,0 0,0 -7.53,-7.39 36.76,36.76 0,0 0,-3.75 -2.94,5 5,0 0,0 -1.91,-0.9 8.22,8.22 0,0 1,1.78 -1.8l0.2,0.07 1.14,0.51 M 0,0"/>
        </clipPath>
        <path d="M57.27,19.59h42.66v42.23h-42.66z" clip-path="url(#clip_1)" fill="#edba98" fill-opacity="1"/>
    </g>
    <g>
        <clipPath id="clip_1">
            <path d="M74.81,28.77a26.36,26.36 0,0 1,4.44 -2.34c2.1,-0.79 2.22,-0.62 2.39,-0.62a3.82,3.82 0,0 1,2 1.07l0.7,0.62A12.07,12.07 0,0 0,83.17 27a4.79,4.79 0,0 0,-1.53 1.49,5.9 5.9,0 0,1 -2.15,2.07c-0.71,0.34 -2.77,0.48 -4,1.1s-1.71,0.86 -1.71,0.95 2.16,2.26 2.16,2.26a41.86,41.86 0,0 0,-3.66 -2.65c-0.44,-0.26 1.18,-1.36 3.06,-2s3.82,-0.17 4.91,-1.57 1.37,-2 1.34,-2.17a4.58,4.58 0,0 0,-2.7 0.53c-1.24,0.58 -4,1.76 -4,1.76 M 0,0"/>
        </clipPath>
        <path d="M59.94,13.57h36.57v33.53h-36.57z" clip-path="url(#clip_1)" fill="#e6e6e6" fill-opacity="1"/>
    </g>
    <g>
        <clipPath id="clip_1">
            <path d="M82.69,44.85a82.08,82.08 0,0 0,-7.53 -7.39,36.76 36.76,0 0,0 -3.75,-2.94 5,5 0,0 0,-1.91 -0.9c-0.17,0.16 -0.35,0.31 -0.5,0.47q-8.56,9.19 -17,18.52 -9.8,10.88 -19.33,22 -8.82,10.3 -17.6,20.64a39.71,39.71 0,0 0,-5.69 8.86,1.29 1.29,0 0,1 -0.36,0.83 11.69,11.69 0,0 0,-1 4.47,4.16 4.16,0 0,0 0.9,2.66c15.87,-5.41 73.79,-67.2 73.79,-67.2 M 0,0"/>
        </clipPath>
        <path d="M-4.22,21.4h99.14v102.88h-99.14z" clip-path="url(#clip_1)" fill="#ededed" fill-opacity="1"/>
    </g>
    <g>
        <clipPath id="clip_1">
            <path d="M39.08,71.21a3,3 0,0 1,3.3 -1.78A2.22,2.22 0,0 1,44 70.74a2.48,2.48 0,0 1,-0.16 2.13,3.15 3.15,0 0,1 -3.54,1.75 2.46,2.46 0,0 1,-1.22 -3.41m0,0A2.38,2.38 0,0 0,39 73.13a2,2 0,0 0,1.36 1.23,2.38 2.38,0 0,0 1.76,-0.4 3.1,3.1 0,0 0,1.22 -1.34,2.12 2.12,0 0,0 0.22,-1.71 1.88,1.88 0,0 0,-1.26 -1.22,2.68 2.68,0 0,0 -3.23,1.52 M 0,0"/>
        </clipPath>
        <path d="M26.59,57.15h29.81v29.8h-29.81z" clip-path="url(#clip_1)" fill="#aaaaaa" fill-opacity="1"/>
    </g>
    <g>
        <clipPath id="clip_1">
            <path d="M43.71,72.94A2.86,2.86 0,0 1,40 74.45a2.12,2.12 0,0 1,-1.19 -2.63,3.29 3.29,0 0,1 2.51,-2.24 2.26,2.26 0,0 1,2.5 3c0,0.11 -0.09,0.21 -0.13,0.32 M 0,0"/>
        </clipPath>
        <path d="M26.49,57.3h29.69v29.58h-29.69z" clip-path="url(#clip_1)" fill="#d1d1d1" fill-opacity="1"/>
    </g>
    <g>
        <clipPath id="clip_1">
            <path d="M50.78,58.26a2.91,2.91 0,0 1,3.62 -1.54,2.2 2.2,0 0,1 1.06,3 3.74,3.74 0,0 1,-1.54 1.61,2.22 2.22,0 0,1 -2.62,-0.22 2.49,2.49 0,0 1,-0.52 -2.87 M 0,0"/>
        </clipPath>
        <path d="M38.32,44.32h29.6v29.58h-29.6z" clip-path="url(#clip_1)" fill="#f2f2f2" fill-opacity="1"/>
    </g>
    <g>
        <clipPath id="clip_1">
            <path d="M43.65,66.45a3.4,3.4 0,0 1,2.12 -1.94,2.15 2.15,0 0,1 2.85,1.73A2.61,2.61 0,0 1,47.45 69a2.79,2.79 0,0 1,-3.13 0.09,2.06 2.06,0 0,1 -0.67,-2.64 M 0,0"/>
        </clipPath>
        <path d="M31.22,52.17h29.67v29.58h-29.67z" clip-path="url(#clip_1)" fill="#d1d1d1" fill-opacity="1"/>
    </g>
    <g>
        <clipPath id="clip_1">
            <path d="M90.58,44.17a21,21 0,0 0,2.34 -4.63c0.66,-2.14 0.48,-2.25 0.47,-2.42a3.74,3.74 0,0 0,-1.18 -1.88c-0.67,-0.66 -0.61,-0.78 -0.61,-0.78a3.72,3.72 0,0 1,0.5 1.21c-0.08,0.49 -0.51,1 -1.39,1.62a5.92,5.92 0,0 0,-1.94 2.27c-0.29,0.73 -0.3,2.79 -0.85,4.1s-0.75,1.76 -0.84,1.77 -2.39,-2 -2.39,-2A23,23 0,0 1,87.42 47c0.24,0.46 1.43,-1.32 2,-3.24s-0.05,-3.82 1.28,-5 1.92,-1.49 2.08,-1.47A4.65,4.65 0,0 1,92.36 40c-0.5,1.27 -1.78,4.19 -1.78,4.19 M 0,0"/>
        </clipPath>
        <path d="M72.47,22.24h33.17v37.02h-33.17z" clip-path="url(#clip_1)" fill="#b99e7c" fill-opacity="1"/>
    </g>
    <g>
        <clipPath id="clip_1">
            <path d="M82.38,26a49.32,49.32 0,0 1,9.8 9.12c0.35,0.42 0.66,0.88 1,1.32a2.38,2.38 0,0 1,0 2,24.56 24.56,0 0,1 -4.81,8.63c-0.19,0.22 -0.35,0.49 -0.68,0.54a5.17,5.17 0,0 0,-0.82 -1.58C86.08,45 85.16,44 84.26,42.91c-1.22,-1.41 -2.53,-2.71 -3.85,-4 -0.52,-0.51 -1.08,-1 -1.6,-1.49 -1.25,-1.22 -2.59,-2.34 -4,-3.43a18.44,18.44 0,0 0,-2.24 -1.58l-1.14,-0.51 -0.2,-0.07a1.27,1.27 0,0 1,0.49 -0.65A24.59,24.59 0,0 1,77.91 27c0.81,-0.39 1.64,-0.72 2.48,-1a2.24,2.24 0,0 1,2 0 M 0,0"/>
        </clipPath>
        <path d="M59.06,13.55h46.59v46.36h-46.59z" clip-path="url(#clip_1)" fill="#e3cece" fill-opacity="1"/>
    </g>
    <g>
        <clipPath id="clip_1">
            <path d="M50.78,58.26a3.1,3.1 0,0 1,3.37 -1.76,2.24 2.24,0 0,1 1.62,1.34A2.46,2.46 0,0 1,55.63 60a3.67,3.67 0,0 1,-1.5 1.5,2.56 2.56,0 0,1 -2.09,0.22 2.53,2.53 0,0 1,-1.26 -3.45m0,0a2.49,2.49 0,0 0,-0.05 2,2.11 2.11,0 0,0 1.39,1.24 3,3 0,0 0,3 -1.72,2 2,0 0,0 -1.08,-3 2.78,2.78 0,0 0,-3.3 1.5 M 0,0"/>
        </clipPath>
        <path d="M38.3,44.22h29.87v29.85h-29.87z" clip-path="url(#clip_1)" fill="#aaaaaa" fill-opacity="1"/>
    </g>
    <g>
        <clipPath id="clip_1">
            <path d="M43.59,66.38a3.43,3.43 0,0 1,2.08 -1.95,2 2,0 0,1 2.74,1.69A2.82,2.82 0,0 1,44.21 69a2,2 0,0 1,-0.62 -2.61 M 0,0"/>
        </clipPath>
        <path d="M31.15,52.09h29.51v29.54h-29.51z" clip-path="url(#clip_1)" fill="#f2f2f2" fill-opacity="1"/>
    </g>
    <g>
        <clipPath id="clip_1">
            <path d="M39.08,71.21a2.81,2.81 0,0 1,3.6 -1.54,2.06 2.06,0 0,1 1.12,2.59 3.35,3.35 0,0 1,-2.46 2.26,2.19 2.19,0 0,1 -2.39,-3c0,-0.11 0.09,-0.21 0.13,-0.32 M 0,0"/>
        </clipPath>
        <path d="M26.6,57.25h29.54v29.54h-29.54z" clip-path="url(#clip_1)" fill="#f2f2f2" fill-opacity="1"/>
    </g>
</svg>