<svg xmlns="http://www.w3.org/2000/svg" width="36.0" height="36.0" viewBox="0 0 36.0 36.0">
    <path d="M27.097 32c-1.208 0-1.878-1.183-1.99-2.281a0.794 0.794 0 0 1-0.004-0.085V6.71c-0.001 0-0.061-1.063-0.648-1.063-0.216 0-0.311 0.07 -0.376 0.139 -0.252 0.27 -0.314 0.889 -0.303 1.131l0.001 15.941c0.002 0.107 0.002 1.196-0.681 1.908-0.365 0.379 -0.851 0.58 -1.407 0.58 -1.74 0-2.229-1.751-2.244-2.677V11.052c-0.002 0-0.068-0.82-0.46-0.82-0.277 0-0.362 0.093 -0.394 0.128 -0.175 0.192 -0.206 0.614 -0.194 0.787 l0.002 0.067 v17.974c-0.015 0.967 -0.517 2.771-2.306 2.771-1.83 0-2.37-1.876-2.4-2.867l-0.001-22.26v0.001c-0.001 0-0.066-0.801-0.444-0.801-0.255 0-0.378 0.741 -0.382 0.977 v15.484c-0.022 1.255-0.709 2.589-2.166 2.589-1.635 0-2.228-1.597-2.228-2.67V10.605c-0.001-0.025-0.017-0.759-0.414-0.759-0.534 0-0.568 0.942 -0.569 0.982 v5.66a0.815 0.815 0 0 1-0.806 0.824 H0.806A0.815 0.815 0 0 1 0 16.488c0-0.454 0.361 -0.823 0.806 -0.823h5.071v-4.857c0.022-1.264 0.714 -2.609 2.181-2.609 0.834 0 1.496 0.479 1.817 1.314 0.203 0.525 0.209 1.036 0.209 1.092v11.807c0.001 0.1 0.03 1.023 0.616 1.023 0.522 0 0.554-0.947 0.554 -0.956V6.994c0.022-1.264 0.655 -2.609 1.994-2.609 1.349 0 2.011 1.252 2.056 2.414l0.001 22.267c0.001 0.023 0.059 1.246 0.788 1.246 0.656 0 0.693-1.096 0.695 -1.142l-0.001-17.927c-0.015-0.248-0.032-1.273 0.613 -1.993 0.272 -0.303 0.767 -0.665 1.585-0.665 1.359 0 2.027 1.262 2.071 2.435v11.635c0.001 0.025 0.038 1.044 0.633 1.044 0.173 0 0.229-0.058 0.256 -0.087 0.173 -0.179 0.222 -0.61 0.22 -0.738l-0.001-15.92c-0.005-0.114-0.041-1.461 0.75 -2.307 0.397 -0.423 0.93 -0.647 1.541-0.647 1.717 0 2.229 1.754 2.259 2.682l0.001 22.901c0.041 0.287 0.206 0.77 0.382 0.77 0.375 0 0.397-0.746 0.397 -0.753V16.407c0-0.455 0.361 -0.824 0.807 -0.824h6.893c0.445 0 0.806 0.369 0.806 0.824 a0.815 0.815 0 0 1-0.806 0.824 h-6.087v12.383c-0.01 0.964 -0.553 2.386-2.01 2.386" fill="#ffffff" fill-opacity="1"/>
</svg>