<svg xmlns="http://www.w3.org/2000/svg" width="37.0" height="36.0" viewBox="0 0 37.0 36.0">
    <path d="M15.646 32l-0.042-0.001a0.827 0.827 0 0 1-0.782-0.73L12.8 13.456l-0.407 5.136a0.826 0.826 0 0 1-0.825 0.759 H0.828A0.826 0.826 0 0 1 0 18.527c0-0.455 0.371 -0.823 0.828 -0.823h9.974l1.027-12.945A0.826 0.826 0 0 1 12.64 4a0.84 0.84 0 0 1 0.837 0.731 l2.422 21.34 3.284-15.227a0.83 0.83 0 0 1 0.803-0.651h0.007a0.83 0.83 0 0 1 0.808 0.635 l2.451 10.37 2.655-5.53a0.827 0.827 0 0 1 0.592-0.453 0.828 0.828 0 0 1 0.719 0.204 l2.48 2.285h6.473c0.457 0 0.828 0.368 0.828 0.823 a0.826 0.826 0 0 1-0.828 0.824 h-6.797a0.833 0.833 0 0 1-0.563-0.22l-1.893-1.743-3.186 6.633a0.827 0.827 0 0 1-0.836 0.463 0.826 0.826 0 0 1-0.718-0.63l-2.147-9.083-3.576 16.578a0.829 0.829 0 0 1-0.81 0.651" fill="#ffffff" fill-opacity="1"/>
</svg>