<svg xmlns="http://www.w3.org/2000/svg" width="36.0" height="36.0" viewBox="0 0 36.0 36.0">
    <path d="M35.194 32H28.91a0.815 0.815 0 0 1-0.806-0.824v-4.554h-3.907a0.815 0.815 0 0 1-0.806-0.824V5.647h-5.894v7.064a0.815 0.815 0 0 1-0.806 0.824 h-3.907v9.215a0.815 0.815 0 0 1-0.806 0.824 H7.722v7.602a0.815 0.815 0 0 1-0.806 0.824 H0.806A0.815 0.815 0 0 1 0 31.176c0-0.454 0.36 -0.823 0.806 -0.823H6.11V22.75c0-0.455 0.36 -0.823 0.806 -0.823h4.256v-9.216c0-0.455 0.36 -0.823 0.806 -0.823h3.907V4.824c0-0.455 0.36 -0.824 0.806 -0.824h7.506c0.445 0 0.806 0.369 0.806 0.824 v20.151h3.907c0.445 0 0.806 0.368 0.806 0.823 v4.555h5.478c0.445 0 0.806 0.369 0.806 0.823 a0.815 0.815 0 0 1-0.806 0.824" fill="#ffffff" fill-opacity="1"/>
</svg>