<svg xmlns="http://www.w3.org/2000/svg" width="36.0" height="36.0" viewBox="0 0 36.0 36.0">
    <path d="M28.594 32c-2.265 0-3.63-2.223-4.357-13.949-0.511-8.231-1.421-12.404-2.705-12.404-0.832 0-2.017 1.286-2.706 12.404C18.108 29.628 16.565 32 14.469 32c-2.266 0-3.631-2.223-4.358-13.949C9.363 5.995 7.604 5.647 7.406 5.647c-0.583 0-2.011 1.209-2.706 12.404C3.948 30.181 1.168 31.76 0.619 31.953L0.067 30.4s-0.025 0.004 -0.067 0.028 c0.024-0.013 2.364-1.453 3.048-12.479C3.769 6.333 5.25 4 7.406 4c1.813 0 3.597 1.69 4.357 13.949 0.503 8.115 1.439 12.404 2.706 12.404 0.454 0 1.991-0.895 2.705-12.404C17.905 6.158 19.215 4 21.532 4c2.264 0 3.629 2.223 4.357 13.949 0.503 8.115 1.439 12.404 2.705 12.404 0.479 0 1.936 0 2.706-12.404 0.752 -12.13 3.531-13.709 4.081-13.902l0.552 1.553s0.024-0.004 0.067 -0.028c-0.024 0.013 -2.364 1.453-3.048 12.479C32.22 29.842 30.91 32 28.594 32" fill="#ffffff" fill-opacity="1"/>
</svg>