<svg xmlns="http://www.w3.org/2000/svg" width="36.0" height="36.0" viewBox="0 0 36.0 36.0">
    <path d="M14.76 32c-2.158 0-2.951-1.845-2.957-3.085V7.031c-0.018-0.294-0.17-1.384-1.346-1.384-0.37 0-0.648 0.101 -0.85 0.309 -0.378 0.391 -0.454 1.109-0.451 1.354v13.61c-0.031 1.255-0.844 3.09-2.958 3.09-2.072 0-2.852-1.784-2.87-2.984v-3.534H0.806A0.815 0.815 0 0 1 0 16.668c0-0.455 0.36 -0.823 0.806 -0.823h3.328c0.445 0 0.806 0.368 0.806 0.823 v4.346c0.01 0.301 0.13 1.349 1.258 1.349 1.273 0 1.342-1.313 1.346-1.463V7.323c-0.004-0.139-0.008-1.557 0.907 -2.514C8.957 4.28 9.65 4 10.457 4c2.08 0 2.909 1.792 2.957 2.998v21.913c0.008 0.33 0.126 1.442 1.347 1.442 1.395 0 1.475-1.442 1.479-1.606V14.239c0.038-1.183 0.809 -2.903 2.78-2.903 1.837 0 2.475 1.697 2.556 2.594 0.002 0.025 0.004 0.05 0.004 0.075v7.523c0.01 0.335 0.14 1.489 1.39 1.489 1.45 0 1.523-1.357 1.523-1.629v-4.72c0-0.455 0.36 -0.823 0.807 -0.823h9.894c0.445 0 0.806 0.368 0.806 0.823 a0.815 0.815 0 0 1-0.806 0.824 h-9.09v3.896c0 1.317-0.834 3.276-3.134 3.276-2.17 0-2.984-1.869-3.002-3.124v-7.488c-0.03-0.232-0.19-1.069-0.947-1.069-1.074 0-1.162 1.068-1.17 1.283V28.77c-0.035 1.313-0.887 3.23-3.09 3.23" fill="#ffffff" fill-opacity="1"/>
</svg>