<svg xmlns="http://www.w3.org/2000/svg" width="36.0" height="37.0" viewBox="0 0 36.0 37.0">
    <path d="M6.697,13.521c0.174,0.787 1.282,0.782 1.45,-0.006l1.964,-9.213 2.111,9.225c0.184,0.801 1.323,0.765 1.455,-0.047l1.442,-8.833 2.106,8.885c0.184,0.776 1.277,0.766 1.446,-0.013l1.94,-8.9 1.643,8.876c0.149,0.804 1.278,0.824 1.454,0.026l1.993,-9.02 1.762,9.002c0.157,0.8 1.282,0.81 1.454,0.014l1.903,-8.85 1.614,8.827a0.745,0.745 0,0 0,0.73 0.615h2.094c0.41,0 0.742,-0.337 0.742,-0.752a0.747,0.747 0,0 0,-0.742 -0.752L33.78,12.605l-2.173,-11.881c-0.147,-0.807 -1.282,-0.825 -1.455,-0.023l-1.928,8.965 -1.752,-8.952c-0.156,-0.797 -1.277,-0.811 -1.452,-0.018l-1.973,8.928 -1.647,-8.902c-0.15,-0.804 -1.28,-0.823 -1.455,-0.024l-2.03,9.31 -2.209,-9.323c-0.189,-0.797 -1.322,-0.756 -1.454,0.053l-1.43,8.758 -2.015,-8.805c-0.18,-0.782 -1.282,-0.774 -1.449,0.01l-1.95,9.155 -2.026,-9.16c-0.176,-0.796 -1.302,-0.778 -1.453,0.024l-2.236,11.885h-0.952a0.747,0.747 0,0 0,-0.742 0.752c0,0.415 0.332,0.752 0.742,0.752h1.566a0.745,0.745 0,0 0,0.73 -0.611l1.68,-8.932 1.98,8.955z" fill="#ffffff" fill-opacity="1" fill-rule="evenodd"/>
</svg>