<svg xmlns="http://www.w3.org/2000/svg" width="36.0" height="36.0" viewBox="0 0 36.0 36.0">
    <path d="M17.252 32c-2.13 0-2.903-1.916-2.903-3.203l-0.023-21.594c0-0.04 0.003 -0.08 0.009 -0.12 0.023 -0.189 0.024 -0.771-0.263-1.106-0.189-0.219-0.513-0.33-0.965-0.33-0.604 0-1.047 0.15 -1.315 0.446 -0.383 0.422 -0.356 1.051-0.355 1.057l0.002 0.06 0.022 12.196a0.83 0.83 0 0 1-0.235 0.583 0.795 0.795 0 0 1-0.57 0.242 H0.805A0.814 0.814 0 0 1 0 19.407c0-0.454 0.36 -0.823 0.805 -0.823h9.043L9.827 7.236c-0.012-0.248-0.019-1.381 0.783 -2.263 0.586 -0.646 1.427-0.973 2.497-0.973 1.175 0 1.839 0.492 2.188 0.905 0.739 0.872 0.677 2.031 0.643 2.346l0.023 21.545c0.005 0.362 0.112 1.557 1.291 1.557 0.972 0 1.041-1.692 1.041-1.709V13.326c-0.02-0.264-0.041-1.194 0.597 -1.939 0.333 -0.39 0.971 -0.859 2.113-0.875 0.999 -0.016 1.576 0.391 1.899 0.731 0.746 0.787 0.72 1.878 0.715 1.999l0.001 11.218c-0.013 0.356 0.06 1.301 0.531 1.808 0.23 0.247 0.542 0.37 0.956 0.376 0.404 0.015 0.6 -0.148 0.71 -0.265 0.45 -0.474 0.501 -1.497 0.49 -1.745l-0.001-7.576c-0.006-0.121-0.038-1.511 0.766 -2.367a2.03 2.03 0 0 1 1.52-0.641c0.708 0 1.321 0.249 1.772 0.72 0.828 0.863 0.826 2.156 0.823 2.3v1.69h4.008c0.446 0 0.807 0.369 0.807 0.823 a0.815 0.815 0 0 1-0.807 0.824 h-4.814a0.815 0.815 0 0 1-0.806-0.824v-2.53c0.002-0.218-0.061-0.821-0.365-1.134-0.093-0.095-0.257-0.222-0.618-0.222-0.204 0-0.295 0.068 -0.357 0.135 -0.263 0.279 -0.328 0.935 -0.317 1.192v7.573c0.008 0.156 0.054 1.877-0.943 2.928-0.486 0.512 -1.131 0.767 -1.89 0.766 -0.851-0.012-1.581-0.322-2.111-0.897-1.019-1.106-0.974-2.784-0.966-2.972V13.205c0.003-0.169-0.038-0.585-0.266-0.821-0.056-0.057-0.227-0.236-0.716-0.225-0.435 0.006 -0.742 0.109 -0.915 0.305 -0.244 0.277 -0.21 0.729 -0.209 0.734 0.002 0.026 0.005 0.064 0.005 0.09 v15.381c-0.03 1.167-0.624 3.331-2.653 3.331" fill="#ffffff" fill-opacity="1"/>
</svg>