<svg xmlns="http://www.w3.org/2000/svg" width="36.0" height="37.0" viewBox="0 0 36.0 37.0">
    <path d="M31.067,2.109c0.239,0 0.455,0.093 0.614,0.244 0.43,0.253 0.73,0.695 0.866,1.272l3.447,29.51a0.877,0.877 0,0 1,-0.778 0.968,0.883 0.883,0 0,1 -0.98,-0.768L30.9,4.74l-3.334,28.594a0.881,0.881 0,0 1,-0.87 0.774l-0.097,-0.005 -0.096,0.005a0.881,0.881 0,0 1,-0.87 -0.774L22.3,4.74l-3.334,28.594a0.881,0.881 0,0 1,-0.87 0.774L18,34.104l-0.096,0.005a0.881,0.881 0,0 1,-0.87 -0.774L13.7,4.74l-3.334,28.594a0.881,0.881 0,0 1,-0.87 0.774l-0.097,-0.005 -0.096,0.005a0.881,0.881 0,0 1,-0.87 -0.774L5.1,4.74l-3.334,28.594a0.881,0.881 0,0 1,-0.87 0.774l-0.11,-0.006a0.878,0.878 0,0 1,-0.785 -0.859l0.006,-0.11 3.447,-29.51c0.135,-0.576 0.436,-1.017 0.866,-1.271a0.89,0.89 0,0 1,0.614 -0.244c0.056,0 0.112,0.002 0.166,0.006h0.004l0.163,-0.006c0.238,0 0.454,0.093 0.614,0.244 0.43,0.253 0.73,0.695 0.865,1.272l2.654,22.72 2.655,-22.72c0.135,-0.577 0.435,-1.018 0.865,-1.272a0.89,0.89 0,0 1,0.614 -0.244c0.057,0 0.112,0.002 0.167,0.006h0.004l0.162,-0.006c0.239,0 0.455,0.093 0.614,0.244 0.43,0.253 0.73,0.695 0.866,1.272l2.653,22.72 2.655,-22.72c0.135,-0.577 0.436,-1.018 0.866,-1.272a0.89,0.89 0,0 1,0.614 -0.244c0.056,0 0.112,0.002 0.166,0.006h0.004l0.163,-0.006c0.238,0 0.455,0.093 0.614,0.244 0.43,0.253 0.73,0.695 0.866,1.272l2.653,22.72 2.655,-22.72c0.135,-0.577 0.436,-1.018 0.865,-1.272a0.89,0.89 0,0 1,0.614 -0.244c0.057,0 0.112,0.002 0.167,0.006h0.004l0.162,-0.006z" fill="#ffffff" fill-opacity="1" fill-rule="evenodd"/>
</svg>