<svg xmlns="http://www.w3.org/2000/svg" width="36.0" height="37.0" viewBox="0 0 36.0 37.0">
    <path d="M3.892,5.632h4.298L8.19,30.84c0,0.701 0.558,1.27 1.248,1.27h4.67c0.69,0 1.248,-0.569 1.248,-1.27L15.356,5.632h4.135L19.491,30.84c0,0.701 0.558,1.27 1.247,1.27h4.757c0.689,0 1.247,-0.569 1.247,-1.27L26.742,5.632h4.465L31.207,30.84c0,0.701 0.559,1.27 1.248,1.27h2.796a0.755,0.755 0,0 0,0.749 -0.762,0.755 0.755,0 0,0 -0.749,-0.762h-2.546L32.705,5.378c0,-0.7 -0.559,-1.27 -1.248,-1.27h-4.964c-0.69,0 -1.248,0.57 -1.248,1.27v25.207h-4.257L20.988,5.378c0,-0.7 -0.559,-1.27 -1.248,-1.27h-4.633c-0.69,0 -1.248,0.57 -1.248,1.27v25.207h-4.172L9.687,5.378c0,-0.7 -0.559,-1.27 -1.248,-1.27h-4.796c-0.69,0 -1.248,0.57 -1.248,1.27v25.207h-1.646a0.755,0.755 0,0 0,-0.749 0.762c0,0.42 0.335,0.762 0.749,0.762h1.895c0.69,0 1.248,-0.569 1.248,-1.27L3.892,5.632z" fill="#ffffff" fill-opacity="1" fill-rule="evenodd"/>
</svg>